<svg width="178" height="57" fill="none" xmlns="http://www.w3.org/2000/svg"><path d="M73.05 22.992v3.816h6.246c1.278 0 1.71-.558 1.71-1.908 0-1.314-.378-1.908-1.71-1.908H73.05ZM84.21 33h-2.988v-1.944c0-1.224-.648-1.764-2.376-1.764H73.05V33h-2.988V20.508h9.486c2.592 0 4.446.846 4.446 4.392 0 1.908-.9 2.718-1.818 3.258 1.242.414 2.034.9 2.034 2.25V33Zm9.966-5.454c0-.864-.396-1.62-1.674-1.62h-2.754c-1.17 0-1.512.756-1.512 1.62h5.94Zm2.862 1.656h-8.802v.342c0 .774.198 1.602 1.422 1.602h3.456c.72 0 1.062-.36 1.062-1.062h2.862c0 1.566-.738 2.916-3.744 2.916H88.92c-2.502 0-3.672-1.458-3.672-3.402v-2.25c0-1.566 1.062-3.276 3.726-3.276h4.248c2.934 0 3.816 1.836 3.816 3.618v1.512Zm4.45-2.52h-2.844c0-1.458.792-2.574 3.6-2.574h4.41c2.808 0 3.78 1.404 3.78 3.132V33h-2.988v-1.008c-.504.666-.81 1.008-1.89 1.008h-3.996c-1.817 0-2.987-.72-2.987-2.268v-1.08c0-1.476.81-2.358 3.599-2.358h3.618c.882 0 1.332.288 1.656.864v-1.116c0-.9-.504-1.08-1.638-1.08h-3.168c-.954 0-1.152.09-1.152.432v.288Zm1.422 2.466c-1.044 0-1.422.234-1.422 1.008 0 .72.342.99 1.422.99h3.078c1.098 0 1.458-.252 1.458-.99 0-.72-.36-1.008-1.458-1.008h-3.078Zm12.717-8.64V33h-2.988V20.508h2.988Zm8.418 0h12.762v2.484h-9.774v2.304h9.486v2.484h-9.486V33h-2.988V20.508Zm17.486 6.174h-2.844c0-1.458.792-2.574 3.6-2.574h4.41c2.808 0 3.78 1.404 3.78 3.132V33h-2.988v-1.008c-.504.666-.81 1.008-1.89 1.008h-3.996c-1.818 0-2.988-.72-2.988-2.268v-1.08c0-1.476.81-2.358 3.6-2.358h3.618c.882 0 1.332.288 1.656.864v-1.116c0-.9-.504-1.08-1.638-1.08h-3.168c-.954 0-1.152.09-1.152.432v.288Zm1.422 2.466c-1.044 0-1.422.234-1.422 1.008 0 .72.342.99 1.422.99h3.078c1.098 0 1.458-.252 1.458-.99 0-.72-.36-1.008-1.458-1.008h-3.078Zm12.465-5.04v1.26c.054-.144.522-1.26 2.574-1.26h2.412c2.628 0 3.96 1.35 3.96 3.654V33h-2.988v-4.644c0-1.548-.576-2.196-2.106-2.196h-1.476c-1.512 0-2.376.846-2.376 2.43V33h-2.988v-8.892h2.988Zm11.492-1.71h2.988v1.71h5.58v2.052h-5.58v3.204c0 1.116.558 1.584 1.422 1.584h1.242c.864 0 1.17-.684 1.17-1.584h2.988c0 1.872-.504 3.636-4.32 3.636h-1.89c-2.304 0-3.6-1.26-3.6-3.312V26.16h-1.08v-2.052h1.08v-1.71Z" fill="#fff"/><g opacity=".9"><circle cx="28.5" cy="28.5" r="28.5" transform="matrix(1 0 0 -1 0 57)" fill="url(#a)"/><circle cx="28.5" cy="28.5" r="28.169" transform="matrix(1 0 0 -1 0 57)" stroke="#fff" stroke-opacity=".7" stroke-width=".663"/><circle cx="28.5" cy="28.5" r="28.5" fill="url(#b)"/><circle cx="28.5" cy="28.5" r="28.169" stroke="#fff" stroke-opacity=".7" stroke-width=".663"/><circle cx="28.5" cy="35.128" r="21.872" fill="url(#c)"/><circle cx="28.5" cy="35.128" r="21.541" stroke="#fff" stroke-opacity=".7" stroke-width=".663"/><circle cx="21.872" cy="21.872" r="21.872" transform="matrix(1 0 0 -1 6.628 43.744)" fill="url(#d)"/><circle cx="21.872" cy="21.872" r="21.541" transform="matrix(1 0 0 -1 6.628 43.744)" stroke="#fff" stroke-opacity=".7" stroke-width=".663"/><circle cx="28.5" cy="42.419" r="14.581" fill="url(#e)"/><circle cx="28.5" cy="42.419" r="14.25" stroke="#fff" stroke-opacity=".7" stroke-width=".663"/><circle cx="14.581" cy="14.581" r="14.581" transform="matrix(1 0 0 -1 13.919 29.163)" fill="url(#f)"/><circle cx="14.581" cy="14.581" r="14.25" transform="matrix(1 0 0 -1 13.919 29.163)" stroke="#fff" stroke-opacity=".7" stroke-width=".663"/><circle cx="28.5" cy="48.384" r="8.616" fill="url(#g)"/><circle cx="28.5" cy="48.384" r="8.285" stroke="#fff" stroke-opacity=".7" stroke-width=".663"/><circle cx="8.616" cy="8.616" r="8.616" transform="matrix(1 0 0 -1 19.884 17.232)" fill="url(#h)"/><circle cx="8.616" cy="8.616" r="8.285" transform="matrix(1 0 0 -1 19.884 17.232)" stroke="#fff" stroke-opacity=".7" stroke-width=".663"/><circle cx="28.5" cy="52.36" r="4.64" fill="url(#i)"/><circle cx="28.5" cy="52.36" r="4.308" stroke="#fff" stroke-opacity=".7" stroke-width=".663"/><circle cx="4.64" cy="4.64" r="4.64" transform="matrix(1 0 0 -1 23.86 9.28)" fill="url(#j)"/><circle cx="4.64" cy="4.64" r="4.308" transform="matrix(1 0 0 -1 23.86 9.28)" stroke="#fff" stroke-opacity=".7" stroke-width=".663"/></g><defs><radialGradient id="a" cx="0" cy="0" r="1" gradientUnits="userSpaceOnUse" gradientTransform="rotate(91.637 13.042 15.592) scale(52.5214)"><stop offset=".765" stop-color="#fff" stop-opacity="0"/><stop offset="1" stop-color="#fff" stop-opacity=".66"/></radialGradient><radialGradient id="b" cx="0" cy="0" r="1" gradientUnits="userSpaceOnUse" gradientTransform="rotate(91.637 13.042 15.592) scale(52.5214)"><stop offset=".765" stop-color="#fff" stop-opacity="0"/><stop offset="1" stop-color="#fff" stop-opacity=".66"/></radialGradient><radialGradient id="c" cx="0" cy="0" r="1" gradientUnits="userSpaceOnUse" gradientTransform="matrix(0 -44 44 0 27 57)"><stop offset=".674" stop-color="#fff" stop-opacity="0"/><stop offset="1" stop-color="#fff" stop-opacity=".66"/></radialGradient><radialGradient id="d" cx="0" cy="0" r="1" gradientUnits="userSpaceOnUse" gradientTransform="matrix(0 -44 44 0 20.372 43.744)"><stop offset=".674" stop-color="#fff" stop-opacity="0"/><stop offset="1" stop-color="#fff" stop-opacity=".66"/></radialGradient><radialGradient id="e" cx="0" cy="0" r="1" gradientUnits="userSpaceOnUse" gradientTransform="matrix(0 -29 29 0 29 57)"><stop offset=".753" stop-color="#fff" stop-opacity="0"/><stop offset="1" stop-color="#fff" stop-opacity=".66"/></radialGradient><radialGradient id="f" cx="0" cy="0" r="1" gradientUnits="userSpaceOnUse" gradientTransform="matrix(0 -29 29 0 15.081 29.163)"><stop offset=".753" stop-color="#fff" stop-opacity="0"/><stop offset="1" stop-color="#fff" stop-opacity=".66"/></radialGradient><radialGradient id="g" cx="0" cy="0" r="1" gradientUnits="userSpaceOnUse" gradientTransform="rotate(90 -9.942 38.442) scale(8.61628)"><stop offset=".755" stop-color="#fff" stop-opacity="0"/><stop offset="1" stop-color="#fff" stop-opacity=".66"/></radialGradient><radialGradient id="h" cx="0" cy="0" r="1" gradientUnits="userSpaceOnUse" gradientTransform="rotate(90 0 8.616) scale(8.61628)"><stop offset=".755" stop-color="#fff" stop-opacity="0"/><stop offset="1" stop-color="#fff" stop-opacity=".66"/></radialGradient><radialGradient id="i" cx="0" cy="0" r="1" gradientUnits="userSpaceOnUse" gradientTransform="rotate(90 -11.93 40.43) scale(4.63953)"><stop offset=".755" stop-color="#fff" stop-opacity="0"/><stop offset="1" stop-color="#fff" stop-opacity=".66"/></radialGradient><radialGradient id="j" cx="0" cy="0" r="1" gradientUnits="userSpaceOnUse" gradientTransform="rotate(90 0 4.64) scale(4.63953)"><stop offset=".755" stop-color="#fff" stop-opacity="0"/><stop offset="1" stop-color="#fff" stop-opacity=".66"/></radialGradient></defs></svg>