<svg width="174" height="75" fill="none" xmlns="http://www.w3.org/2000/svg"><g opacity=".9"><ellipse cx="36.247" cy="37.376" rx="36.247" ry="37.376" transform="matrix(1 0 0 -1 0 74.753)" fill="url(#a)"/><path d="M43.22 52.253c0-12.206-9.593-22.08-21.4-22.08-11.806 0-21.4 9.874-21.4 22.08 0 12.206 9.594 22.08 21.4 22.08 11.807 0 21.4-9.874 21.4-22.08Z" stroke="#fff" stroke-opacity=".7" stroke-width=".841"/><ellipse cx="36.247" cy="37.377" rx="36.247" ry="37.376" fill="url(#b)"/><path d="M43.22 22.5c0 12.207-9.593 22.08-21.4 22.08-11.806 0-21.4-9.873-21.4-22.08C.42 10.296 10.015.423 21.82.423c11.807 0 21.4 9.873 21.4 22.079Z" stroke="#fff" stroke-opacity=".7" stroke-width=".841"/><ellipse cx="35.817" cy="46.068" rx="27.817" ry="28.684" fill="url(#c)"/><path d="M41.071 34.651c0 9.317-7.321 16.847-16.325 16.847S8.42 43.968 8.42 34.651c0-9.316 7.32-16.847 16.325-16.847 9.004 0 16.325 7.53 16.325 16.847Z" stroke="#fff" stroke-opacity=".7" stroke-width=".841"/><ellipse cx="27.817" cy="28.684" rx="27.817" ry="28.684" transform="matrix(1 0 0 -1 8 57.37)" fill="url(#d)"/><path d="M41.071 40.103c0-9.317-7.321-16.847-16.325-16.847S8.42 30.786 8.42 40.103c0 9.316 7.32 16.846 16.325 16.846 9.004 0 16.325-7.53 16.325-16.846Z" stroke="#fff" stroke-opacity=".7" stroke-width=".841"/><ellipse cx="35.545" cy="55.63" rx="18.545" ry="19.122" fill="url(#e)"/><path d="M38.907 48.02c0 6.137-4.822 11.09-10.743 11.09S17.42 54.157 17.42 48.02c0-6.138 4.822-11.092 10.743-11.092s10.743 4.954 10.743 11.091Z" stroke="#fff" stroke-opacity=".7" stroke-width=".841"/><ellipse cx="18.545" cy="19.122" rx="18.545" ry="19.122" transform="matrix(1 0 0 -1 17 38.246)" fill="url(#f)"/><path d="M38.907 26.735c0-6.138-4.822-11.091-10.743-11.091S17.42 20.596 17.42 26.733c0 6.138 4.822 11.091 10.743 11.091s10.743-4.953 10.743-11.09Z" stroke="#fff" stroke-opacity=".7" stroke-width=".841"/><ellipse cx="35.958" cy="63.454" rx="10.958" ry="11.3" fill="url(#g)"/><path d="M37.773 58.957c0 3.536-2.777 6.381-6.176 6.381-3.4 0-6.176-2.845-6.176-6.381 0-3.537 2.777-6.382 6.176-6.382s6.176 2.845 6.176 6.382Z" stroke="#fff" stroke-opacity=".7" stroke-width=".841"/><ellipse cx="10.958" cy="11.3" rx="10.958" ry="11.3" transform="matrix(1 0 0 -1 25 22.6)" fill="url(#h)"/><path d="M37.773 15.797c0-3.537-2.777-6.381-6.176-6.381-3.4 0-6.176 2.845-6.176 6.381 0 3.537 2.777 6.382 6.176 6.382s6.176-2.845 6.176-6.382Z" stroke="#fff" stroke-opacity=".7" stroke-width=".841"/><ellipse cx="35.901" cy="68.669" rx="5.901" ry="6.084" fill="url(#i)"/><path d="M36.684 66.248c0 1.803-1.414 3.242-3.132 3.242-1.717 0-3.131-1.44-3.131-3.242 0-1.803 1.414-3.242 3.131-3.242 1.718 0 3.132 1.439 3.132 3.242Z" stroke="#fff" stroke-opacity=".7" stroke-width=".841"/><ellipse cx="5.901" cy="6.084" rx="5.901" ry="6.084" transform="matrix(1 0 0 -1 30 12.169)" fill="url(#j)"/><path d="M36.684 8.506c0-1.803-1.414-3.242-3.132-3.242-1.717 0-3.131 1.44-3.131 3.242 0 1.803 1.414 3.242 3.131 3.242 1.718 0 3.132-1.439 3.132-3.242Z" stroke="#fff" stroke-opacity=".7" stroke-width=".841"/></g><path d="M88.311 40.818v3.12h5.107c1.045 0 1.398-.457 1.398-1.56 0-1.075-.31-1.56-1.398-1.56H88.31ZM97.435 49h-2.442v-1.59c0-1-.53-1.442-1.943-1.442h-4.739V49h-2.443V38.787h7.756c2.12 0 3.635.691 3.635 3.59 0 1.56-.736 2.223-1.487 2.664 1.016.339 1.663.736 1.663 1.84V49Zm8.149-4.46c0-.706-.324-1.324-1.369-1.324h-2.252c-.956 0-1.236.618-1.236 1.325h4.857Zm2.34 1.355h-7.197v.28c0 .632.162 1.31 1.163 1.31h2.825c.589 0 .869-.295.869-.87h2.34c0 1.281-.604 2.385-3.061 2.385h-3.577c-2.045 0-3.002-1.192-3.002-2.781v-1.84c0-1.28.868-2.678 3.047-2.678h3.473c2.398 0 3.12 1.5 3.12 2.958v1.236Zm3.638-2.06h-2.325c0-1.193.647-2.105 2.943-2.105h3.606c2.296 0 3.09 1.148 3.09 2.56V49h-2.443v-.824c-.412.544-.662.824-1.545.824h-3.267c-1.486 0-2.443-.589-2.443-1.854v-.883c0-1.207.662-1.928 2.943-1.928h2.958c.722 0 1.089.235 1.354.706v-.912c0-.736-.412-.883-1.339-.883h-2.59c-.78 0-.942.073-.942.353v.236Zm1.163 2.016c-.854 0-1.163.191-1.163.824 0 .588.28.81 1.163.81h2.516c.898 0 1.192-.207 1.192-.81 0-.589-.294-.824-1.192-.824h-2.516Zm10.396-7.064V49h-2.443V38.787h2.443Zm6.883 0h10.434v2.03h-7.991v1.884h7.756v2.031h-7.756V49h-2.443V38.787Zm14.297 5.047h-2.325c0-1.192.647-2.104 2.943-2.104h3.605c2.296 0 3.091 1.148 3.091 2.56V49h-2.443v-.824c-.412.544-.662.824-1.545.824h-3.267c-1.487 0-2.443-.589-2.443-1.854v-.883c0-1.207.662-1.928 2.943-1.928h2.958c.721 0 1.089.235 1.354.706v-.912c0-.736-.412-.883-1.339-.883h-2.59c-.78 0-.942.073-.942.353v.236Zm1.162 2.017c-.853 0-1.162.191-1.162.824 0 .588.279.81 1.162.81h2.517c.898 0 1.192-.207 1.192-.81 0-.589-.294-.824-1.192-.824h-2.517Zm10.191-4.121v1.03c.044-.118.427-1.03 2.104-1.03h1.973c2.148 0 3.237 1.104 3.237 2.988V49h-2.443v-3.797c0-1.266-.471-1.795-1.722-1.795h-1.206c-1.237 0-1.943.691-1.943 1.986V49h-2.443v-7.27h2.443Zm9.396-1.398h2.443v1.398h4.562v1.678h-4.562v2.62c0 .912.456 1.294 1.162 1.294h1.016c.706 0 .956-.559.956-1.295h2.443c0 1.53-.412 2.973-3.532 2.973h-1.545c-1.884 0-2.943-1.03-2.943-2.708v-2.884h-.883V41.73h.883v-1.398Z" fill="#fff"/><defs><radialGradient id="a" cx="0" cy="0" r="1" gradientUnits="userSpaceOnUse" gradientTransform="matrix(-1.90753 68.85018 -66.77358 -1.85 36.883 3.935)"><stop offset=".765" stop-color="#fff" stop-opacity="0"/><stop offset="1" stop-color="#fff" stop-opacity=".66"/></radialGradient><radialGradient id="b" cx="0" cy="0" r="1" gradientUnits="userSpaceOnUse" gradientTransform="matrix(-1.90753 68.85018 -66.77358 -1.85 36.882 3.936)"><stop offset=".765" stop-color="#fff" stop-opacity="0"/><stop offset="1" stop-color="#fff" stop-opacity=".66"/></radialGradient><radialGradient id="c" cx="0" cy="0" r="1" gradientUnits="userSpaceOnUse" gradientTransform="matrix(0 -57.703 55.9599 0 33.91 74.751)"><stop offset=".674" stop-color="#fff" stop-opacity="0"/><stop offset="1" stop-color="#fff" stop-opacity=".66"/></radialGradient><radialGradient id="d" cx="0" cy="0" r="1" gradientUnits="userSpaceOnUse" gradientTransform="matrix(0 -57.703 55.9599 0 25.91 57.367)"><stop offset=".674" stop-color="#fff" stop-opacity="0"/><stop offset="1" stop-color="#fff" stop-opacity=".66"/></radialGradient><radialGradient id="e" cx="0" cy="0" r="1" gradientUnits="userSpaceOnUse" gradientTransform="matrix(0 -38.0315 36.8827 0 36.18 74.753)"><stop offset=".753" stop-color="#fff" stop-opacity="0"/><stop offset="1" stop-color="#fff" stop-opacity=".66"/></radialGradient><radialGradient id="f" cx="0" cy="0" r="1" gradientUnits="userSpaceOnUse" gradientTransform="matrix(0 -38.0315 36.8827 0 19.18 38.245)"><stop offset=".753" stop-color="#fff" stop-opacity="0"/><stop offset="1" stop-color="#fff" stop-opacity=".66"/></radialGradient><radialGradient id="g" cx="0" cy="0" r="1" gradientUnits="userSpaceOnUse" gradientTransform="matrix(0 11.2997 -10.9583 0 35.958 63.454)"><stop offset=".755" stop-color="#fff" stop-opacity="0"/><stop offset="1" stop-color="#fff" stop-opacity=".66"/></radialGradient><radialGradient id="h" cx="0" cy="0" r="1" gradientUnits="userSpaceOnUse" gradientTransform="scale(10.9583 11.2997) rotate(90 0 1)"><stop offset=".755" stop-color="#fff" stop-opacity="0"/><stop offset="1" stop-color="#fff" stop-opacity=".66"/></radialGradient><radialGradient id="i" cx="0" cy="0" r="1" gradientUnits="userSpaceOnUse" gradientTransform="matrix(0 6.08443 -5.90064 0 35.9 68.67)"><stop offset=".755" stop-color="#fff" stop-opacity="0"/><stop offset="1" stop-color="#fff" stop-opacity=".66"/></radialGradient><radialGradient id="j" cx="0" cy="0" r="1" gradientUnits="userSpaceOnUse" gradientTransform="scale(5.90064 6.08443) rotate(90 0 1)"><stop offset=".755" stop-color="#fff" stop-opacity="0"/><stop offset="1" stop-color="#fff" stop-opacity=".66"/></radialGradient></defs></svg>