<svg width="31" height="27" fill="none" xmlns="http://www.w3.org/2000/svg"><path d="M27.1.5H3.9a3.808 3.808 0 0 0-2.758 1.2A4.202 4.202 0 0 0 0 4.596v17.808c0 1.087.41 2.128 1.142 2.896A3.808 3.808 0 0 0 3.9 26.5h23.2a3.808 3.808 0 0 0 2.758-1.2A4.202 4.202 0 0 0 31 22.404V4.596A4.2 4.2 0 0 0 29.858 1.7 3.808 3.808 0 0 0 27.1.5ZM3.9 2.138h23.2c.59-.001 1.16.233 1.591.656a2.49 2.49 0 0 1 .733 1.622c-3.853 2.162-7.722 4.308-11.592 6.47a9.453 9.453 0 0 1-1.653.87 3.1 3.1 0 0 1-1.369-.026c-.449-.11-.87-.32-1.237-.614-2.215-1.228-4.43-2.474-6.63-3.702C5.164 6.43 3.354 5.43 1.576 4.432A2.495 2.495 0 0 1 2.305 2.8 2.267 2.267 0 0 1 3.9 2.138Zm25.54 20.266c0 .652-.247 1.277-.686 1.738-.438.46-1.034.72-1.654.72H3.9c-.62 0-1.216-.26-1.654-.72a2.521 2.521 0 0 1-.686-1.738V6.291c3.682 2.032 7.348 4.096 11.03 6.144a8.572 8.572 0 0 0 2.107.983 4.307 4.307 0 0 0 3.12-.672c2.262-1.245 4.509-2.506 6.77-3.751 1.623-.918 3.23-1.802 4.853-2.704v16.113Z" fill="#fff"/></svg>