<svg width="377" height="258" fill="none" xmlns="http://www.w3.org/2000/svg"><mask id="a" maskUnits="userSpaceOnUse" x="8" y="47" width="301" height="85" fill="#000"><path fill="#fff" d="M8 47h301v85H8z"/><path d="M126.9 98.26c3.24 2.04 6.54 4.26 9.9 6.66 3.36 2.28 6.78 4.8 10.26 7.56 1.32.96 2.46 2.1 3.42 3.42.96 1.2 1.44 2.64 1.44 4.32 0 2.4-.84 4.44-2.52 6.12-1.68 1.68-3.72 2.52-6.12 2.52-.96 0-1.98-.24-3.06-.72s-2.1-1.08-3.06-1.8c-4.92-3.6-9.96-7.08-15.12-10.44-5.16-3.48-10.56-6.48-16.2-9a95.854 95.854 0 0 0-17.28-6.3c-6-1.56-12.24-2.34-18.72-2.34H34.02c-1.56.24-2.88.96-3.96 2.16-1.08 1.2-1.62 2.7-1.62 4.5v15.3c0 2.4-.9 4.44-2.7 6.12-1.68 1.68-3.66 2.52-5.94 2.52-2.4 0-4.44-.84-6.12-2.52-1.68-1.68-2.52-3.72-2.52-6.12v-17.28c0-3 .54-5.82 1.62-8.46 1.2-2.76 2.76-5.1 4.68-7.02 1.92-2.04 4.2-3.6 6.84-4.68 2.64-1.2 5.52-1.8 8.64-1.8h95.4c1.8 0 3.36-.6 4.68-1.8 1.44-1.32 2.16-2.94 2.16-4.86 0-1.8-.72-3.36-2.16-4.68-1.32-1.32-2.88-1.98-4.68-1.98H19.8c-2.4 0-4.44-.84-6.12-2.52-1.68-1.68-2.52-3.72-2.52-6.12s.84-4.44 2.52-6.12c1.68-1.68 3.72-2.52 6.12-2.52h107.82c3.36 0 6.48.66 9.36 1.98 3 1.2 5.58 2.88 7.74 5.04 2.28 2.16 4.02 4.68 5.22 7.56 1.32 2.88 1.98 6 1.98 9.36 0 3.36-.66 6.48-1.98 9.36-1.2 2.88-2.94 5.4-5.22 7.56-2.16 2.16-4.74 3.9-7.74 5.22-2.88 1.2-6 1.8-9.36 1.8h-.72Zm33.991-39.24c0-2.4.84-4.44 2.52-6.12 1.68-1.68 3.72-2.52 6.12-2.52h127.62c2.4 0 4.44.84 6.12 2.52 1.68 1.68 2.52 3.72 2.52 6.12s-.84 4.44-2.52 6.12c-1.68 1.68-3.72 2.52-6.12 2.52h-127.62c-2.4 0-4.44-.84-6.12-2.52-1.68-1.68-2.52-3.72-2.52-6.12Zm21.96 69.84c-2.64 0-5.28-.54-7.92-1.62-2.64-1.2-4.98-2.82-7.02-4.86-2.04-2.04-3.72-4.5-5.04-7.38-1.32-2.88-1.98-6.12-1.98-9.72v-16.2c0-3.24.9-5.4 2.7-6.48 1.92-1.08 4.86-1.62 8.82-1.62h120.78c2.4 0 4.44.84 6.12 2.52 1.68 1.68 2.52 3.72 2.52 6.12s-.84 4.44-2.52 6.12c-1.68 1.68-3.72 2.52-6.12 2.52h-115.02v8.82c0 1.2.48 2.28 1.44 3.24 1.08.84 2.46 1.26 4.14 1.26h113.4c2.4 0 4.44.84 6.12 2.52 1.68 1.68 2.52 3.72 2.52 6.12s-.84 4.44-2.52 6.12c-1.68 1.68-3.72 2.52-6.12 2.52h-114.3Z"/></mask><path d="M126.9 98.26v-3h-10.395l8.797 5.539 1.598-2.539Zm9.9 6.66-1.744 2.441.03.021.03.02 1.684-2.482Zm10.26 7.56-1.864 2.35.049.039.051.037 1.764-2.426Zm3.42 3.42-2.426 1.765.04.055.044.054 2.342-1.874Zm-10.26 12.24 1.219-2.741-1.219 2.741Zm-3.06-1.8 1.8-2.4-.014-.011-.014-.01-1.772 2.421Zm-15.12-10.44-1.677 2.487.02.014.02.013 1.637-2.514Zm-16.2-9-1.294 2.706.035.017.035.016 1.224-2.739Zm-17.28-6.3-.755 2.903.755-2.903Zm-54.54-2.34v-3h-.23l-.226.035.456 2.965Zm-3.96 2.16-2.23-2.007 2.23 2.007Zm-4.32 25.92-2.047-2.193-.038.035-.036.037 2.121 2.121Zm-12.06 0 2.122-2.121-2.122 2.121Zm-.9-31.86-2.751-1.196-.013.03-.012.03 2.776 1.136Zm4.68-7.02 2.121 2.121.033-.032.03-.033-2.184-2.056Zm6.84-4.68 1.136 2.777.053-.022.053-.024L24.3 82.78Zm108.72-3.6 2.018 2.22.009-.009-2.027-2.211Zm0-9.54-2.121 2.121.046.046.048.044 2.027-2.211Zm-119.34-4.5 2.122-2.121-2.122 2.121Zm0-12.24-2.121-2.121L13.68 52.9Zm123.3-.54-1.25 2.727.067.031.069.027 1.114-2.785Zm7.74 5.04-2.121 2.121.029.029.029.028 2.063-2.178Zm5.22 7.56-2.769 1.154.02.048.022.048 2.727-1.25Zm0 18.72-2.727-1.25-.022.048-.02.048 2.769 1.154Zm-5.22 7.56-2.063-2.178-.029.028-.029.029 2.121 2.121Zm-7.74 5.22 1.154 2.77.027-.012.027-.012-1.208-2.746Zm-11.678 4.339a200.972 200.972 0 0 1 9.754 6.562l3.488-4.882a208.098 208.098 0 0 0-10.045-6.758l-3.197 5.078Zm9.814 6.603a168.907 168.907 0 0 1 10.08 7.428l3.728-4.7a174.51 174.51 0 0 0-10.439-7.692l-3.369 4.964Zm10.18 7.504a12.404 12.404 0 0 1 2.758 2.759l4.852-3.53a18.415 18.415 0 0 0-4.081-4.081l-3.529 4.852Zm2.842 2.868c.494.618.782 1.38.782 2.446h6c0-2.294-.671-4.412-2.097-6.194l-4.685 3.748Zm.782 2.446c0 1.613-.53 2.888-1.641 3.999l4.242 4.242c2.249-2.249 3.399-5.054 3.399-8.241h-6Zm-1.641 3.999c-1.111 1.111-2.385 1.641-3.999 1.641v6c3.187 0 5.992-1.15 8.241-3.399l-4.242-4.242Zm-3.999 1.641c-.455 0-1.059-.114-1.841-.461l-2.437 5.482c1.377.613 2.813.979 4.278.979v-6Zm-1.841-.461a12.75 12.75 0 0 1-2.479-1.459l-3.6 4.8a18.774 18.774 0 0 0 3.642 2.141l2.437-5.482Zm-2.507-1.48a339.828 339.828 0 0 0-15.255-10.533l-3.274 5.028a335.05 335.05 0 0 1 14.986 10.347l3.543-4.842Zm-15.214-10.506a110 110 0 0 0-16.654-9.252l-2.448 5.478a103.981 103.981 0 0 1 15.747 8.748l3.355-4.974Zm-16.583-9.219a98.875 98.875 0 0 0-17.82-6.498l-1.51 5.807a92.923 92.923 0 0 1 16.741 6.103l2.589-5.412Zm-17.82-6.498C83.058 96.07 76.563 95.26 69.84 95.26v6c6.237 0 12.223.75 17.965 2.243l1.51-5.806ZM69.84 95.26H34.02v6h35.82v-6Zm-36.276.035c-2.26.348-4.202 1.416-5.734 3.118l4.46 4.014c.629-.698 1.327-1.07 2.186-1.202l-.912-5.93Zm-5.734 3.118c-1.634 1.816-2.39 4.058-2.39 6.507h6c0-1.151.324-1.909.85-2.493l-4.46-4.014Zm-2.39 6.507v15.3h6v-15.3h-6Zm0 15.3c0 1.544-.537 2.798-1.747 3.927l4.094 4.386c2.39-2.231 3.653-5.057 3.653-8.313h-6Zm-1.821 3.999c-1.144 1.143-2.371 1.641-3.819 1.641v6c3.112 0 5.845-1.182 8.061-3.399l-4.242-4.242ZM19.8 125.86c-1.613 0-2.887-.53-3.998-1.641l-4.243 4.242c2.249 2.249 5.055 3.399 8.241 3.399v-6Zm-3.998-1.641c-1.111-1.111-1.642-2.386-1.642-3.999h-6c0 3.187 1.15 5.992 3.399 8.241l4.243-4.242Zm-1.642-3.999v-17.28h-6v17.28h6Zm0-17.28c0-2.631.472-5.063 1.397-7.324l-5.553-2.272c-1.236 3.02-1.844 6.227-1.844 9.596h6Zm1.371-7.264c1.066-2.452 2.424-4.468 4.05-6.095L15.34 85.34c-2.214 2.213-3.976 4.877-5.31 7.945l5.502 2.392Zm4.114-6.16c1.62-1.722 3.54-3.039 5.791-3.96l-2.272-5.553c-3.03 1.24-5.669 3.043-7.888 5.4l4.369 4.113Zm5.897-4.005c2.22-1.01 4.673-1.531 7.398-1.531v-6c-3.515 0-6.822.678-9.881 2.069l2.483 5.462Zm7.398-1.531h95.4v-6h-95.4v6Zm95.4 0c2.539 0 4.82-.873 6.698-2.58l-4.036-4.44c-.762.693-1.601 1.02-2.662 1.02v6Zm6.707-2.589c2.048-1.877 3.133-4.294 3.133-7.071h-6c0 1.063-.355 1.886-1.187 2.649l4.054 4.422Zm3.133-7.071c0-2.718-1.132-5.057-3.133-6.891l-4.054 4.422c.879.806 1.187 1.587 1.187 2.469h6Zm-3.039-6.801c-1.859-1.86-4.173-2.859-6.801-2.859v6c.972 0 1.778.32 2.559 1.101l4.242-4.242Zm-6.801-2.859H19.8v6h108.54v-6Zm-108.54 0c-1.613 0-2.887-.53-3.998-1.641l-4.243 4.242c2.249 2.25 5.055 3.399 8.241 3.399v-6Zm-3.998-1.641c-1.111-1.111-1.642-2.386-1.642-3.999h-6c0 3.187 1.15 5.992 3.399 8.241l4.243-4.242ZM14.16 59.02c0-1.613.53-2.888 1.642-3.999l-4.243-4.242c-2.25 2.249-3.399 5.054-3.399 8.241h6Zm1.642-3.999c1.11-1.11 2.385-1.641 3.998-1.641v-6c-3.186 0-5.992 1.15-8.241 3.399l4.243 4.242ZM19.8 53.38h107.82v-6H19.8v6Zm107.82 0c2.955 0 5.646.578 8.11 1.707l2.5-5.454c-3.296-1.51-6.845-2.253-10.61-2.253v6Zm8.246 1.765c2.645 1.058 4.877 2.52 6.733 4.376l4.242-4.242c-2.463-2.464-5.392-4.362-8.747-5.704l-2.228 5.57Zm6.791 4.433a18.923 18.923 0 0 1 4.514 6.536l5.538-2.308a24.906 24.906 0 0 0-5.926-8.584l-4.126 4.356Zm4.556 6.632c1.129 2.464 1.707 5.155 1.707 8.11h6c0-3.765-.742-7.314-2.253-10.61l-5.454 2.5Zm1.707 8.11c0 2.955-.578 5.646-1.707 8.11l5.454 2.5c1.511-3.296 2.253-6.845 2.253-10.61h-6Zm-1.749 8.206a18.923 18.923 0 0 1-4.514 6.536l4.126 4.356a24.906 24.906 0 0 0 5.926-8.584l-5.538-2.308Zm-4.572 6.593c-1.878 1.878-4.142 3.414-6.827 4.595l2.416 5.492c3.316-1.459 6.212-3.403 8.653-5.845l-4.242-4.242Zm-6.773 4.572c-2.487 1.036-5.211 1.569-8.206 1.569v6c3.725 0 7.241-.667 10.514-2.03l-2.308-5.54Zm-8.206 1.569h-.72v6h.72v-6Zm35.791-42.36-2.122-2.121 2.122 2.121Zm139.86 0 2.121-2.121-2.121 2.121Zm-139.86 12.24 2.121-2.121-2.121 2.121Zm11.52 62.1-1.242 2.731.053.024.053.022 1.136-2.777Zm-7.02-4.86-2.122 2.121 2.122-2.121Zm-5.04-7.38 2.727-1.25-2.727 1.25Zm.72-32.4-1.471-2.615-.037.02-.036.023 1.544 2.572Zm135.72 13.14 2.121 2.121-2.121-2.121Zm-121.14 2.52v-3h-3v3h3Zm1.44 12.06-2.122 2.121.132.132.148.115 1.842-2.368Zm123.66 3.78-2.122 2.121 2.122-2.121Zm-139.38-55.08c0-1.613.53-2.888 1.641-3.999l-4.243-4.242c-2.249 2.249-3.398 5.054-3.398 8.241h6Zm1.641-3.999c1.111-1.11 2.385-1.641 3.999-1.641v-6c-3.187 0-5.993 1.15-8.242 3.399l4.243 4.242Zm3.999-1.641h127.62v-6h-127.62v6Zm127.62 0c1.613 0 2.887.53 3.998 1.641l4.243-4.242c-2.249-2.25-5.055-3.399-8.241-3.399v6Zm3.998 1.641c1.111 1.111 1.642 2.386 1.642 3.999h6c0-3.187-1.15-5.992-3.399-8.241l-4.243 4.242Zm1.642 3.999c0 1.613-.531 2.888-1.642 3.999l4.243 4.242c2.249-2.249 3.399-5.054 3.399-8.241h-6Zm-1.642 3.999c-1.111 1.11-2.385 1.641-3.998 1.641v6c3.186 0 5.992-1.15 8.241-3.399l-4.243-4.242Zm-3.998 1.641h-127.62v6h127.62v-6Zm-127.62 0c-1.614 0-2.888-.53-3.999-1.641l-4.243 4.242c2.249 2.25 5.055 3.399 8.242 3.399v-6Zm-3.999-1.641c-1.111-1.111-1.641-2.386-1.641-3.999h-6c0 3.187 1.149 5.992 3.398 8.241l4.243-4.242Zm17.319 62.841c-2.22 0-4.476-.452-6.784-1.397l-2.272 5.554c2.971 1.215 5.996 1.843 9.056 1.843v-6Zm-6.679-1.351a20.741 20.741 0 0 1-6.14-4.25l-4.243 4.242a26.731 26.731 0 0 0 7.9 5.47l2.483-5.462Zm-6.14-4.25c-1.764-1.765-3.248-3.921-4.434-6.509l-5.455 2.5c1.454 3.172 3.331 5.936 5.646 8.251l4.243-4.242Zm-4.434-6.509c-1.117-2.438-1.707-5.243-1.707-8.47h-6c0 3.973.73 7.648 2.252 10.97l5.455-2.5Zm-1.707-8.47v-16.2h-6v16.2h6Zm0-16.2c0-2.797.77-3.623 1.243-3.907l-3.087-5.145c-3.126 1.875-4.156 5.37-4.156 9.052h6Zm1.17-3.865c1.241-.698 3.553-1.235 7.35-1.235v-6c-4.124 0-7.692.543-10.291 2.005l2.941 5.23Zm7.35-1.235h120.78v-6h-120.78v6Zm120.78 0c1.613 0 2.887.53 3.998 1.641l4.243-4.242c-2.249-2.25-5.055-3.399-8.241-3.399v6Zm3.998 1.641c1.111 1.111 1.642 2.386 1.642 3.999h6c0-3.187-1.15-5.992-3.399-8.241l-4.243 4.242Zm1.642 3.999c0 1.613-.531 2.888-1.642 3.999l4.243 4.242c2.249-2.249 3.399-5.054 3.399-8.241h-6Zm-1.642 3.999c-1.111 1.11-2.385 1.641-3.998 1.641v6c3.186 0 5.992-1.15 8.241-3.399l-4.243-4.242Zm-3.998 1.641h-115.02v6h115.02v-6Zm-118.02 3v8.82h6v-8.82h-6Zm0 8.82c0 2.103.876 3.919 2.318 5.361l4.243-4.242c-.478-.478-.561-.822-.561-1.119h-6Zm2.598 5.608c1.717 1.336 3.79 1.892 5.982 1.892v-6c-1.169 0-1.856-.284-2.299-.628l-3.683 4.736Zm5.982 1.892h113.4v-6h-113.4v6Zm113.4 0c1.613 0 2.887.53 3.998 1.641l4.243-4.242c-2.249-2.249-5.055-3.399-8.241-3.399v6Zm3.998 1.641c1.111 1.111 1.642 2.386 1.642 3.999h6c0-3.187-1.15-5.992-3.399-8.241l-4.243 4.242Zm1.642 3.999c0 1.613-.531 2.888-1.642 3.999l4.243 4.242c2.249-2.249 3.399-5.054 3.399-8.241h-6Zm-1.642 3.999c-1.111 1.111-2.385 1.641-3.998 1.641v6c3.186 0 5.992-1.15 8.241-3.399l-4.243-4.242Zm-3.998 1.641h-114.3v6h114.3v-6Z" fill="#29FF7F" fill-opacity=".1" mask="url(#a)"/><mask id="b" maskUnits="userSpaceOnUse" x="85" y="171" width="285" height="89" fill="#000"><path fill="#fff" d="M85 171h285v89H85z"/><path d="M103.458 253.62c-1.68 2.16-3.9 3.24-6.66 3.24-2.4 0-4.44-.84-6.12-2.52-1.68-1.68-2.52-3.72-2.52-6.12 0-2.28.6-4.02 1.8-5.22l43.74-58.86c2.04-2.76 4.74-4.98 8.1-6.66 3.36-1.8 6.96-2.7 10.8-2.7 3.6 0 7.02.78 10.26 2.34 3.24 1.56 5.88 3.72 7.92 6.48l43.74 58.5c.6.96 1.14 1.92 1.62 2.88.6.96.9 2.04.9 3.24 0 2.4-.84 4.44-2.52 6.12-1.68 1.68-3.72 2.52-6.12 2.52-3 0-5.28-1.14-6.84-3.42l-41.94-55.98c-.84-.96-1.92-1.98-3.24-3.06-1.2-1.2-2.46-1.8-3.78-1.8-1.32 0-2.64.6-3.96 1.8-1.2 1.08-2.16 2.1-2.88 3.06l-42.3 56.16Zm147.313 3.24c-3.36 0-6.54-.6-9.54-1.8-3-1.32-5.64-3.06-7.92-5.22-2.16-2.16-3.9-4.68-5.22-7.56-1.32-2.88-1.98-6-1.98-9.36v-45.9c0-2.4.84-4.44 2.52-6.12 1.68-1.68 3.72-2.52 6.12-2.52 2.28 0 4.26.84 5.94 2.52 1.8 1.68 2.7 3.72 2.7 6.12v45.9c0 1.8.66 3.36 1.98 4.68 1.44 1.32 3.06 1.98 4.86 1.98h108c2.4 0 4.44.84 6.12 2.52 1.68 1.68 2.52 3.72 2.52 6.12s-.84 4.44-2.52 6.12c-1.68 1.68-3.72 2.52-6.12 2.52h-107.46Z"/></mask><path d="m103.458 253.62 2.368 1.842.015-.019.014-.018-2.397-1.805Zm-12.78.72 2.121-2.121-2.12 2.121Zm-.72-11.34 2.121 2.121.156-.155.131-.177L89.958 243Zm43.74-58.86 2.408 1.789.005-.006-2.413-1.783Zm8.1-6.66 1.342 2.683.038-.019.037-.02-1.417-2.644Zm21.06-.36 1.302-2.703-1.302 2.703Zm7.92 6.48-2.412 1.783.005.007.005.006 2.402-1.796Zm43.74 58.5 2.544-1.59-.066-.106-.075-.1-2.403 1.796Zm1.62 2.88-2.683 1.342.064.127.075.121 2.544-1.59Zm-14.58 8.46 2.476-1.694-.036-.053-.039-.052-2.401 1.799Zm-41.94-55.98 2.401-1.799-.068-.091-.075-.086-2.258 1.976Zm-3.24-3.06-2.121 2.121.106.106.115.095 1.9-2.322Zm-7.74 0 2.007 2.23.006-.005.005-.005-2.018-2.22Zm-2.88 3.06 2.397 1.805.003-.005-2.4-1.8Zm-44.668 54.318c-1.106 1.422-2.448 2.082-4.292 2.082v6c3.677 0 6.774-1.5 9.028-4.398l-4.736-3.684Zm-4.292 2.082c-1.613 0-2.888-.53-3.999-1.641l-4.242 4.242c2.249 2.249 5.055 3.399 8.241 3.399v-6Zm-3.999-1.641c-1.11-1.111-1.64-2.386-1.64-3.999h-6c0 3.187 1.149 5.992 3.398 8.241l4.242-4.242Zm-1.64-3.999c0-1.766.455-2.633.92-3.099l-4.242-4.242c-1.935 1.934-2.679 4.547-2.679 7.341h6Zm1.207-3.431 43.74-58.86-4.816-3.578-43.74 58.86 4.816 3.578Zm43.745-58.866c1.733-2.345 4.051-4.271 7.029-5.76l-2.683-5.366c-3.743 1.871-6.824 4.385-9.171 7.56l4.825 3.566Zm7.104-5.799c2.921-1.564 6.034-2.344 9.383-2.344v-6c-4.33 0-8.417 1.02-12.216 3.056l2.833 5.288Zm9.383-2.344c3.15 0 6.125.679 8.959 2.043l2.603-5.406a26.357 26.357 0 0 0-11.562-2.637v6Zm8.959 2.043c2.822 1.359 5.073 3.211 6.809 5.56l4.825-3.566c-2.344-3.171-5.373-5.639-9.031-7.4l-2.603 5.406Zm6.819 5.573 43.74 58.5 4.805-3.592-43.74-58.5-4.805 3.592Zm43.598 58.294a31.526 31.526 0 0 1 1.481 2.632l5.366-2.684a37.524 37.524 0 0 0-1.759-3.128l-5.088 3.18Zm1.62 2.88c.284.454.444.977.444 1.65h6c0-1.727-.44-3.364-1.356-4.83l-5.088 3.18Zm.444 1.65c0 1.613-.53 2.888-1.641 3.999l4.243 4.242c2.249-2.249 3.398-5.054 3.398-8.241h-6Zm-1.641 3.999c-1.111 1.111-2.385 1.641-3.999 1.641v6c3.187 0 5.993-1.15 8.242-3.399l-4.243-4.242Zm-3.999 1.641c-2.11 0-3.417-.731-4.364-2.114l-4.952 3.388c2.174 3.177 5.426 4.726 9.316 4.726v-6Zm-4.439-2.219-41.94-55.98-4.802 3.598 41.94 55.98 4.802-3.598Zm-42.083-56.157c-.979-1.118-2.189-2.253-3.598-3.406l-3.8 4.644c1.232 1.007 2.181 1.912 2.882 2.714l4.516-3.952Zm-3.376-3.205c-1.595-1.595-3.576-2.679-5.902-2.679v6c.315 0 .853.116 1.659.921l4.243-4.242Zm-5.902-2.679c-2.295 0-4.302 1.057-5.978 2.58l4.036 4.44c.965-.877 1.597-1.02 1.942-1.02v-6Zm-5.967 2.57c-1.298 1.169-2.404 2.332-3.273 3.49l4.8 3.6c.571-.762 1.386-1.639 2.487-2.63l-4.014-4.46Zm-3.269 3.485-42.3 56.16 4.793 3.61 42.3-56.16-4.793-3.61Zm97.869 59.405-1.208 2.746.047.02.047.019 1.114-2.785Zm-7.92-5.22-2.121 2.121.029.029.029.028 2.063-2.178Zm-5.22-7.56 2.728-1.25-2.728 1.25Zm.54-61.38-2.121-2.121 2.121 2.121Zm12.06 0-2.121 2.121.037.037.037.035 2.047-2.193Zm4.68 56.7-2.121 2.121.046.046.048.044 2.027-2.211Zm118.98 4.5-2.121 2.121 2.121-2.121Zm-113.58 11.76c-2.994 0-5.794-.533-8.425-1.585l-2.229 5.57c3.369 1.348 6.928 2.015 10.654 2.015v-6Zm-8.331-1.546c-2.699-1.187-5.046-2.739-7.065-4.652l-4.127 4.356c2.541 2.407 5.473 4.335 8.775 5.788l2.417-5.492Zm-7.007-4.595c-1.899-1.899-3.437-4.121-4.614-6.689l-5.455 2.5c1.463 3.192 3.405 6.01 5.826 8.431l4.243-4.242Zm-4.614-6.689c-1.13-2.464-1.708-5.155-1.708-8.11h-6c0 3.765.743 7.314 2.253 10.61l5.455-2.5Zm-1.708-8.11v-45.9h-6v45.9h6Zm0-45.9c0-1.613.531-2.888 1.642-3.999l-4.243-4.242c-2.249 2.249-3.399 5.054-3.399 8.241h6Zm1.642-3.999c1.111-1.111 2.385-1.641 3.998-1.641v-6c-3.186 0-5.992 1.15-8.241 3.399l4.243 4.242Zm3.998-1.641c1.448 0 2.675.498 3.819 1.641l4.243-4.242c-2.217-2.217-4.949-3.399-8.062-3.399v6Zm3.893 1.713c1.21 1.129 1.747 2.383 1.747 3.927h6c0-3.256-1.263-6.082-3.653-8.313l-4.094 4.386Zm1.747 3.927v45.9h6v-45.9h-6Zm0 45.9c0 2.628 1 4.942 2.859 6.801l4.243-4.242c-.781-.781-1.102-1.587-1.102-2.559h-6Zm2.953 6.891c1.942 1.781 4.27 2.769 6.887 2.769v-6c-.982 0-1.894-.332-2.833-1.191l-4.054 4.422Zm6.887 2.769h108v-6h-108v6Zm108 0c1.614 0 2.888.53 3.999 1.641l4.243-4.242c-2.249-2.249-5.055-3.399-8.242-3.399v6Zm3.999 1.641c1.111 1.111 1.641 2.386 1.641 3.999h6c0-3.187-1.149-5.992-3.398-8.241l-4.243 4.242Zm1.641 3.999c0 1.613-.53 2.888-1.641 3.999l4.243 4.242c2.249-2.249 3.398-5.054 3.398-8.241h-6Zm-1.641 3.999c-1.111 1.111-2.385 1.641-3.999 1.641v6c3.187 0 5.993-1.15 8.242-3.399l-4.243-4.242Zm-3.999 1.641h-107.46v6h107.46v-6Z" fill="#29FF7F" fill-opacity=".1" mask="url(#b)"/><path d="M13.854 186v-8.708H8.576V186h-1.26v-9.94h7.812V186h-1.274Zm4.916 2.926h-1.204V179h1.204v1.078c.242-.355.583-.644 1.022-.868a3.08 3.08 0 0 1 1.442-.35c.97 0 1.782.355 2.436 1.064.662.709.994 1.568.994 2.576s-.332 1.867-.994 2.576c-.654.709-1.466 1.064-2.436 1.064a3.18 3.18 0 0 1-1.442-.336c-.439-.233-.78-.527-1.022-.882v4.004Zm.574-4.62c.448.485 1.017.728 1.708.728.69 0 1.26-.243 1.708-.728.448-.485.672-1.087.672-1.806 0-.719-.224-1.321-.672-1.806-.448-.485-1.018-.728-1.708-.728-.691 0-1.26.243-1.708.728-.448.485-.672 1.087-.672 1.806 0 .719.224 1.321.672 1.806Zm10.162 1.834c-1.055 0-1.932-.35-2.632-1.05-.691-.709-1.036-1.573-1.036-2.59s.345-1.876 1.036-2.576c.7-.709 1.577-1.064 2.632-1.064 1.045 0 1.913.355 2.604 1.064.7.7 1.05 1.559 1.05 2.576 0 1.017-.35 1.881-1.05 2.59-.691.7-1.559 1.05-2.604 1.05Zm-1.764-1.848c.457.485 1.045.728 1.764.728.718 0 1.302-.243 1.75-.728.448-.485.672-1.083.672-1.792 0-.709-.224-1.307-.672-1.792-.448-.485-1.032-.728-1.75-.728-.719 0-1.307.243-1.764.728-.448.485-.672 1.083-.672 1.792 0 .709.224 1.307.672 1.792ZM34.888 186v-7h3.052c.775 0 1.367.173 1.778.518.41.345.616.807.616 1.386 0 .551-.229 1.003-.686 1.358.765.373 1.148.943 1.148 1.708 0 .588-.21 1.073-.63 1.456-.42.383-1.05.574-1.89.574h-3.388Zm1.204-1.05h2.254c.373 0 .667-.093.882-.28.224-.187.336-.443.336-.77s-.112-.579-.336-.756c-.215-.187-.509-.28-.882-.28h-2.254v2.086Zm0-3.052h1.946c.719 0 1.078-.313 1.078-.938 0-.327-.103-.56-.308-.7-.205-.149-.462-.224-.77-.224h-1.946v1.862Zm9.533 4.242c-1.055 0-1.932-.35-2.632-1.05-.69-.709-1.036-1.573-1.036-2.59s.345-1.876 1.036-2.576c.7-.709 1.577-1.064 2.632-1.064 1.045 0 1.913.355 2.604 1.064.7.7 1.05 1.559 1.05 2.576 0 1.017-.35 1.881-1.05 2.59-.69.7-1.559 1.05-2.604 1.05Zm-1.764-1.848c.457.485 1.045.728 1.764.728.718 0 1.302-.243 1.75-.728.448-.485.672-1.083.672-1.792 0-.709-.224-1.307-.672-1.792-.448-.485-1.032-.728-1.75-.728-.719 0-1.307.243-1.764.728-.448.485-.672 1.083-.672 1.792 0 .709.224 1.307.672 1.792Zm6.351.602h.168c.672 0 1.008-.756 1.008-2.268V179h5.558v5.894h1.05v2.87h-1.134V186h-5.516v1.764h-1.134v-2.87Zm2.38-4.788v2.716c0 .877-.145 1.568-.434 2.072h3.584v-4.788h-3.15Zm8.12 5.894h-1.078v-7h1.204v5.138L64.786 179h1.064v7h-1.19v-5.138L60.712 186Zm7.426-7h1.106l2.59 3.444L74.438 179h1.106v7H74.34v-5.054l-2.506 3.304-2.492-3.304V186h-1.204v-7Zm14.134 7h-1.078v-7h1.204v5.138L86.347 179h1.064v7h-1.19v-5.138L82.272 186Zm10.534.14c-1.054 0-1.927-.35-2.617-1.05-.691-.709-1.036-1.573-1.036-2.59s.345-1.876 1.035-2.576c.691-.709 1.564-1.064 2.618-1.064.868 0 1.62.243 2.255.728a3.423 3.423 0 0 1 1.273 1.876h-1.288a2.229 2.229 0 0 0-.84-1.092c-.392-.271-.858-.406-1.4-.406-.718 0-1.306.243-1.763.728-.449.485-.672 1.087-.672 1.806 0 .719.224 1.321.672 1.806.457.485 1.045.728 1.763.728.542 0 1.008-.135 1.4-.406.392-.271.672-.635.84-1.092h1.288a3.418 3.418 0 0 1-1.26 1.89c-.634.476-1.39.714-2.267.714Zm8.231 0c-1.055 0-1.927-.35-2.618-1.05-.69-.709-1.036-1.573-1.036-2.59s.345-1.876 1.036-2.576c.69-.709 1.563-1.064 2.618-1.064.868 0 1.619.243 2.254.728a3.422 3.422 0 0 1 1.274 1.876h-1.288a2.229 2.229 0 0 0-.84-1.092c-.392-.271-.859-.406-1.4-.406-.719 0-1.307.243-1.764.728-.448.485-.672 1.087-.672 1.806 0 .719.224 1.321.672 1.806.457.485 1.045.728 1.764.728.541 0 1.008-.135 1.4-.406.392-.271.672-.635.84-1.092h1.288a3.413 3.413 0 0 1-1.26 1.89c-.635.476-1.391.714-2.268.714Zm4.885-.042c-.317 0-.527-.014-.63-.042v-1.078c.065.019.215.028.448.028.289 0 .504-.098.644-.294.14-.205.21-.565.21-1.078V179h5.404v7h-1.204v-5.894h-2.996v3.78c0 .719-.173 1.269-.518 1.652-.345.373-.798.56-1.358.56Zm11.34.042c-1.017 0-1.862-.345-2.534-1.036-.662-.691-.994-1.559-.994-2.604 0-1.055.322-1.923.966-2.604.654-.691 1.517-1.036 2.59-1.036 1.083 0 1.932.383 2.548 1.148.616.765.887 1.703.812 2.814h-5.698c.019.635.252 1.167.7 1.596.448.42.99.63 1.624.63.952 0 1.629-.392 2.03-1.176h1.232c-.177.653-.555 1.195-1.134 1.624-.578.429-1.292.644-2.142.644Zm1.372-5.712c-.382-.336-.844-.504-1.386-.504-.541 0-1.026.163-1.456.49-.42.327-.681.812-.784 1.456h4.368c-.112-.635-.359-1.115-.742-1.442Zm3 4.466h.168c.672 0 1.008-.756 1.008-2.268V179h5.558v5.894h1.05v2.87h-1.134V186h-5.516v1.764h-1.134v-2.87Zm2.38-4.788v2.716c0 .877-.145 1.568-.434 2.072h3.584v-4.788h-3.15Zm10.013 6.034c-1.055 0-1.932-.35-2.632-1.05-.691-.709-1.036-1.573-1.036-2.59s.345-1.876 1.036-2.576c.7-.709 1.577-1.064 2.632-1.064 1.045 0 1.913.355 2.604 1.064.7.7 1.05 1.559 1.05 2.576 0 1.017-.35 1.881-1.05 2.59-.691.7-1.559 1.05-2.604 1.05Zm-1.764-1.848c.457.485 1.045.728 1.764.728.719 0 1.302-.243 1.75-.728.448-.485.672-1.083.672-1.792 0-.709-.224-1.307-.672-1.792-.448-.485-1.031-.728-1.75-.728-.719 0-1.307.243-1.764.728-.448.485-.672 1.083-.672 1.792 0 .709.224 1.307.672 1.792Zm7.146 1.708v-7h3.052c.775 0 1.368.173 1.778.518.411.345.616.807.616 1.386 0 .551-.228 1.003-.686 1.358.766.373 1.148.943 1.148 1.708 0 .588-.21 1.073-.63 1.456-.42.383-1.05.574-1.89.574h-3.388Zm1.204-1.05h2.254c.374 0 .668-.093.882-.28.224-.187.336-.443.336-.77s-.112-.579-.336-.756c-.214-.187-.508-.28-.882-.28h-2.254v2.086Zm0-3.052h1.946c.719 0 1.078-.313 1.078-.938 0-.327-.102-.56-.308-.7-.205-.149-.462-.224-.77-.224h-1.946v1.862Zm9.309 4.242c-.97 0-1.787-.355-2.45-1.064-.653-.709-.98-1.568-.98-2.576s.327-1.867.98-2.576c.663-.709 1.48-1.064 2.45-1.064.514 0 .99.117 1.428.35.448.224.794.513 1.036.868V179h1.204v7h-1.204v-1.078c-.242.355-.588.649-1.036.882a3.09 3.09 0 0 1-1.428.336Zm.182-1.106c.691 0 1.26-.243 1.708-.728.448-.485.672-1.087.672-1.806 0-.719-.224-1.321-.672-1.806-.448-.485-1.017-.728-1.708-.728-.7 0-1.274.243-1.722.728-.448.485-.672 1.087-.672 1.806 0 .719.224 1.321.672 1.806.448.485 1.022.728 1.722.728Zm5.753.966v-7h1.204v2.884h3.822V179h1.204v7h-1.204v-3.024h-3.822V186h-1.204Zm9.582 0h-1.078v-7h1.204v5.138l3.948-5.138h1.064v7h-1.19v-5.138L165.439 186Zm6.235 0 2.828-2.744c-.55-.131-.975-.373-1.274-.728a1.991 1.991 0 0 1-.448-1.302c0-.644.22-1.176.658-1.596.448-.42 1.078-.63 1.89-.63h2.59v7h-1.204v-2.548h-.896L173.186 186h-1.512Zm3.724-3.626h1.316v-2.296h-1.316c-.942 0-1.414.387-1.414 1.162 0 .364.122.644.364.84.252.196.602.294 1.05.294Zm8.185 3.626v-7h3.052c.775 0 1.368.173 1.778.518.411.345.616.807.616 1.386 0 .551-.228 1.003-.686 1.358.766.373 1.148.943 1.148 1.708 0 .588-.21 1.073-.63 1.456-.42.383-1.05.574-1.89.574h-3.388Zm1.204-1.05h2.254c.374 0 .668-.093.882-.28.224-.187.336-.443.336-.77s-.112-.579-.336-.756c-.214-.187-.508-.28-.882-.28h-2.254v2.086Zm0-3.052h1.946c.719 0 1.078-.313 1.078-.938 0-.327-.102-.56-.308-.7-.205-.149-.462-.224-.77-.224h-1.946v1.862Zm12.91 4.242c-1.055 0-1.932-.35-2.632-1.05-.691-.709-1.036-1.573-1.036-2.59s.345-1.876 1.036-2.576c.7-.709 1.577-1.064 2.632-1.064 1.045 0 1.913.355 2.604 1.064.7.7 1.05 1.559 1.05 2.576 0 1.017-.35 1.881-1.05 2.59-.691.7-1.559 1.05-2.604 1.05Zm-1.764-1.848c.457.485 1.045.728 1.764.728.719 0 1.302-.243 1.75-.728.448-.485.672-1.083.672-1.792 0-.709-.224-1.307-.672-1.792-.448-.485-1.031-.728-1.75-.728-.719 0-1.307.243-1.764.728-.448.485-.672 1.083-.672 1.792 0 .709.224 1.307.672 1.792Zm10.506 1.848c-1.101 0-1.983-.364-2.646-1.092-.653-.728-.98-1.685-.98-2.87v-.714c0-1.717.308-3.001.924-3.85.616-.859 1.624-1.423 3.024-1.694l2.604-.476v1.148l-2.338.434c-.998.177-1.722.513-2.17 1.008-.438.495-.714 1.223-.826 2.184.607-.812 1.466-1.218 2.576-1.218 1.055 0 1.9.336 2.534 1.008.644.672.966 1.493.966 2.464 0 1.027-.35 1.895-1.05 2.604-.69.709-1.563 1.064-2.618 1.064Zm-1.736-1.834c.448.476 1.027.714 1.736.714.71 0 1.293-.238 1.75-.714.458-.476.686-1.087.686-1.834 0-.7-.228-1.269-.686-1.708-.448-.448-1.022-.672-1.722-.672-.718 0-1.306.229-1.764.686-.448.448-.672 1.013-.672 1.694 0 .747.224 1.358.672 1.834Zm6.807 1.792c-.317 0-.527-.014-.63-.042v-1.078c.065.019.215.028.448.028.289 0 .504-.098.644-.294.14-.205.21-.565.21-1.078V179h5.404v7h-1.204v-5.894h-2.996v3.78c0 .719-.173 1.269-.518 1.652-.345.373-.798.56-1.358.56Zm11.242.042c-.97 0-1.787-.355-2.45-1.064-.653-.709-.98-1.568-.98-2.576s.327-1.867.98-2.576c.663-.709 1.48-1.064 2.45-1.064.514 0 .99.117 1.428.35.448.224.794.513 1.036.868V179h1.204v7h-1.204v-1.078c-.242.355-.588.649-1.036.882a3.09 3.09 0 0 1-1.428.336Zm.182-1.106c.691 0 1.26-.243 1.708-.728.448-.485.672-1.087.672-1.806 0-.719-.224-1.321-.672-1.806-.448-.485-1.017-.728-1.708-.728-.7 0-1.274.243-1.722.728-.448.485-.672 1.087-.672 1.806 0 .719.224 1.321.672 1.806.448.485 1.022.728 1.722.728Zm8.861 1.106c-1.055 0-1.928-.35-2.618-1.05-.691-.709-1.036-1.573-1.036-2.59s.345-1.876 1.036-2.576c.69-.709 1.563-1.064 2.618-1.064.868 0 1.619.243 2.254.728a3.427 3.427 0 0 1 1.274 1.876h-1.288a2.229 2.229 0 0 0-.84-1.092c-.392-.271-.859-.406-1.4-.406-.719 0-1.307.243-1.764.728-.448.485-.672 1.087-.672 1.806 0 .719.224 1.321.672 1.806.457.485 1.045.728 1.764.728.541 0 1.008-.135 1.4-.406.392-.271.672-.635.84-1.092h1.288a3.424 3.424 0 0 1-1.26 1.89c-.635.476-1.391.714-2.268.714Zm6.425-.14v-5.894h-2.226V179h5.754v1.106h-2.324V186h-1.204Zm5.982 0h-1.078v-7h1.204v5.138l3.948-5.138h1.064v7h-1.19v-5.138L244.202 186Zm10.803 0v-7h1.204v2.884h3.822V179h1.204v7h-1.204v-3.024h-3.822V186h-1.204Zm11.388.14c-.971 0-1.787-.355-2.45-1.064-.653-.709-.98-1.568-.98-2.576s.327-1.867.98-2.576c.663-.709 1.479-1.064 2.45-1.064a3 3 0 0 1 1.428.35c.448.224.793.513 1.036.868V179h1.204v7h-1.204v-1.078c-.243.355-.588.649-1.036.882a3.096 3.096 0 0 1-1.428.336Zm.182-1.106c.691 0 1.26-.243 1.708-.728.448-.485.672-1.087.672-1.806 0-.719-.224-1.321-.672-1.806-.448-.485-1.017-.728-1.708-.728-.7 0-1.274.243-1.722.728-.448.485-.672 1.087-.672 1.806 0 .719.224 1.321.672 1.806.448.485 1.022.728 1.722.728Zm12.237 1.106c-1.054 0-1.932-.35-2.632-1.05-.69-.709-1.036-1.573-1.036-2.59s.346-1.876 1.036-2.576c.7-.709 1.578-1.064 2.632-1.064 1.046 0 1.914.355 2.604 1.064.7.7 1.05 1.559 1.05 2.576 0 1.017-.35 1.881-1.05 2.59-.69.7-1.558 1.05-2.604 1.05Zm-1.764-1.848c.458.485 1.046.728 1.764.728.719 0 1.302-.243 1.75-.728.448-.485.672-1.083.672-1.792 0-.709-.224-1.307-.672-1.792-.448-.485-1.031-.728-1.75-.728-.718 0-1.306.243-1.764.728-.448.485-.672 1.083-.672 1.792 0 .709.224 1.307.672 1.792Zm10.255 1.848c-1.055 0-1.928-.35-2.618-1.05-.691-.709-1.036-1.573-1.036-2.59s.345-1.876 1.036-2.576c.69-.709 1.563-1.064 2.618-1.064.868 0 1.619.243 2.254.728a3.427 3.427 0 0 1 1.274 1.876h-1.288a2.229 2.229 0 0 0-.84-1.092c-.392-.271-.859-.406-1.4-.406-.719 0-1.307.243-1.764.728-.448.485-.672 1.087-.672 1.806 0 .719.224 1.321.672 1.806.457.485 1.045.728 1.764.728.541 0 1.008-.135 1.4-.406.392-.271.672-.635.84-1.092h1.288a3.424 3.424 0 0 1-1.26 1.89c-.635.476-1.391.714-2.268.714Zm5.122-.14v-7h1.204v2.884h3.822V179h1.204v7h-1.204v-3.024h-3.822V186h-1.204Zm11.612.14c-1.055 0-1.932-.35-2.632-1.05-.691-.709-1.036-1.573-1.036-2.59s.345-1.876 1.036-2.576c.7-.709 1.577-1.064 2.632-1.064 1.045 0 1.913.355 2.604 1.064.7.7 1.05 1.559 1.05 2.576 0 1.017-.35 1.881-1.05 2.59-.691.7-1.559 1.05-2.604 1.05Zm-1.764-1.848c.457.485 1.045.728 1.764.728.719 0 1.302-.243 1.75-.728.448-.485.672-1.083.672-1.792 0-.709-.224-1.307-.672-1.792-.448-.485-1.031-.728-1.75-.728-.719 0-1.307.243-1.764.728-.448.485-.672 1.083-.672 1.792 0 .709.224 1.307.672 1.792Zm7.146 1.708v-7h3.052c.775 0 1.367.173 1.778.518.411.345.616.807.616 1.386 0 .551-.229 1.003-.686 1.358.765.373 1.148.943 1.148 1.708 0 .588-.21 1.073-.63 1.456-.42.383-1.05.574-1.89.574h-3.388Zm1.204-1.05h2.254c.373 0 .667-.093.882-.28.224-.187.336-.443.336-.77s-.112-.579-.336-.756c-.215-.187-.509-.28-.882-.28h-2.254v2.086Zm0-3.052h1.946c.719 0 1.078-.313 1.078-.938 0-.327-.103-.56-.308-.7-.205-.149-.462-.224-.77-.224h-1.946v1.862Zm9.407 4.242c-1.017 0-1.862-.345-2.534-1.036-.663-.691-.994-1.559-.994-2.604 0-1.055.322-1.923.966-2.604.653-.691 1.517-1.036 2.59-1.036 1.083 0 1.932.383 2.548 1.148.616.765.887 1.703.812 2.814h-5.698c.019.635.252 1.167.7 1.596.448.42.989.63 1.624.63.952 0 1.629-.392 2.03-1.176h1.232c-.177.653-.555 1.195-1.134 1.624-.579.429-1.293.644-2.142.644Zm1.372-5.712c-.383-.336-.845-.504-1.386-.504a2.34 2.34 0 0 0-1.456.49c-.42.327-.681.812-.784 1.456h4.368c-.112-.635-.359-1.115-.742-1.442ZM7.134 204v-7h6.076v7h-1.204v-5.894H8.338V204H7.134Zm9.544 2.926h-1.204V197h1.204v1.078c.242-.355.583-.644 1.022-.868a3.08 3.08 0 0 1 1.442-.35c.97 0 1.782.355 2.436 1.064.663.709.994 1.568.994 2.576s-.331 1.867-.994 2.576c-.654.709-1.465 1.064-2.436 1.064a3.18 3.18 0 0 1-1.442-.336c-.439-.233-.78-.527-1.022-.882v4.004Zm.574-4.62c.448.485 1.017.728 1.708.728.69 0 1.26-.243 1.708-.728.448-.485.672-1.087.672-1.806 0-.719-.224-1.321-.672-1.806-.448-.485-1.017-.728-1.708-.728-.69 0-1.26.243-1.708.728-.448.485-.672 1.087-.672 1.806 0 .719.224 1.321.672 1.806Zm10.162 1.834c-1.055 0-1.932-.35-2.632-1.05-.69-.709-1.036-1.573-1.036-2.59s.345-1.876 1.036-2.576c.7-.709 1.577-1.064 2.632-1.064 1.045 0 1.913.355 2.604 1.064.7.7 1.05 1.559 1.05 2.576 0 1.017-.35 1.881-1.05 2.59-.69.7-1.559 1.05-2.604 1.05Zm-1.764-1.848c.457.485 1.045.728 1.764.728.718 0 1.302-.243 1.75-.728.448-.485.672-1.083.672-1.792 0-.709-.224-1.307-.672-1.792-.448-.485-1.032-.728-1.75-.728-.719 0-1.307.243-1.764.728-.448.485-.672 1.083-.672 1.792 0 .709.224 1.307.672 1.792Zm8.35 4.634h-1.204V197H34v1.078c.243-.355.583-.644 1.022-.868a3.08 3.08 0 0 1 1.442-.35c.97 0 1.783.355 2.436 1.064.663.709.994 1.568.994 2.576s-.331 1.867-.994 2.576c-.653.709-1.465 1.064-2.436 1.064a3.18 3.18 0 0 1-1.442-.336c-.439-.233-.78-.527-1.022-.882v4.004Zm.574-4.62c.448.485 1.017.728 1.708.728.69 0 1.26-.243 1.708-.728.448-.485.672-1.087.672-1.806 0-.719-.224-1.321-.672-1.806-.448-.485-1.017-.728-1.708-.728-.69 0-1.26.243-1.708.728-.448.485-.672 1.087-.672 1.806 0 .719.224 1.321.672 1.806ZM48.096 204v-7H49.3v7h-1.204Zm-6.468 0v-7h1.204v2.52h1.624c.84 0 1.475.219 1.904.658.439.439.658.961.658 1.568 0 .616-.22 1.148-.658 1.596-.438.439-1.078.658-1.918.658h-2.814Zm1.204-3.388v2.296H44.4c.448 0 .794-.103 1.036-.308.252-.205.378-.49.378-.854s-.121-.644-.364-.84c-.242-.196-.588-.294-1.036-.294h-1.582Zm8.75 3.388v-7h3.051c.775 0 1.368.173 1.778.518.41.345.616.807.616 1.386 0 .551-.228 1.003-.686 1.358.766.373 1.148.943 1.148 1.708 0 .588-.21 1.073-.63 1.456-.42.383-1.05.574-1.89.574h-3.388Zm1.203-1.05h2.254c.374 0 .668-.093.882-.28.224-.187.336-.443.336-.77s-.112-.579-.336-.756c-.214-.187-.508-.28-.882-.28h-2.254v2.086Zm0-3.052h1.946c.719 0 1.078-.313 1.078-.938 0-.327-.102-.56-.308-.7-.205-.149-.462-.224-.77-.224h-1.946v1.862ZM59.21 204v-7h1.204v2.884h3.822V197h1.204v7h-1.204v-3.024h-3.822V204H59.21Zm14.972 0v-7h1.204v7h-1.204Zm-6.468 0v-7h1.204v2.52h1.624c.84 0 1.475.219 1.904.658.439.439.658.961.658 1.568 0 .616-.22 1.148-.658 1.596-.439.439-1.078.658-1.918.658h-2.814Zm1.204-3.388v2.296h1.568c.448 0 .793-.103 1.036-.308.252-.205.378-.49.378-.854s-.121-.644-.364-.84c-.243-.196-.588-.294-1.036-.294h-1.582ZM82.371 204l-2.128-2.646L78.115 204h-1.498l2.87-3.542L76.855 197h1.456l1.932 2.534L82.161 197h1.47l-2.646 3.458 2.87 3.542h-1.484Zm7.175 0h-1.078v-7h1.204v5.138L93.62 197h1.064v7h-1.19v-5.138L89.546 204Zm6.754-1.106h.168c.672 0 1.008-.756 1.008-2.268V197h5.558v5.894h1.05v2.87h-1.134V204h-5.516v1.764H96.3v-2.87Zm2.38-4.788v2.716c0 .877-.145 1.568-.434 2.072h3.584v-4.788h-3.15Zm9.887 6.034c-1.017 0-1.862-.345-2.534-1.036-.662-.691-.994-1.559-.994-2.604 0-1.055.322-1.923.966-2.604.654-.691 1.517-1.036 2.59-1.036 1.083 0 1.932.383 2.548 1.148.616.765.887 1.703.812 2.814h-5.698c.019.635.252 1.167.7 1.596.448.42.99.63 1.624.63.952 0 1.629-.392 2.03-1.176h1.232c-.177.653-.555 1.195-1.134 1.624-.578.429-1.292.644-2.142.644Zm1.372-5.712c-.382-.336-.844-.504-1.386-.504-.541 0-1.026.163-1.456.49-.42.327-.681.812-.784 1.456h4.368c-.112-.635-.359-1.115-.742-1.442Zm4.832 5.572h-1.078v-7h1.204v5.138l3.948-5.138h1.064v7h-1.19v-5.138L114.771 204Zm3.724-8.708c-.42.411-.948.616-1.582.616-.635 0-1.167-.205-1.596-.616-.42-.411-.63-.947-.63-1.61v-.182h.952v.182c0 .448.116.798.35 1.05.242.243.55.364.924.364.373 0 .676-.121.91-.364.242-.252.364-.602.364-1.05v-.182h.952v.182c0 .663-.215 1.199-.644 1.61Zm229.961-47.636c0 .576.032 1.016.096 1.32.064.304.216.456.456.456.128 0 .288-.048.48-.144.208-.112.464-.256.768-.432l10.992-6.72c.176-.112.368-.2.576-.264.224-.064.448-.096.672-.096.656 0 1.2.224 1.632.672.448.448.672 1 .672 1.656v6.984c0 .32-.112.592-.336.816a1.11 1.11 0 0 1-.816.336 1.11 1.11 0 0 1-.816-.336 1.11 1.11 0 0 1-.336-.816v-4.728c0-.576-.032-1.016-.096-1.32-.064-.304-.216-.456-.456-.456-.128 0-.296.056-.504.168-.192.096-.44.232-.744.408l-10.992 6.72c-.176.112-.376.2-.6.264a2.19 2.19 0 0 1-.648.096c-.656 0-1.208-.224-1.656-.672-.432-.448-.648-1-.648-1.656v-6.984c0-.32.112-.592.336-.816a1.11 1.11 0 0 1 .816-.336c.32 0 .592.112.816.336.224.224.336.496.336.816v4.728Zm-5.851-5.88c.32 0 .592.112.816.336.224.224.336.496.336.816 0 .304-.104.568-.312.792a1.214 1.214 0 0 1-.744.36h-4.824c-.48.032-.88.152-1.2.36a2.211 2.211 0 0 0-.72.72c-.176.288-.296.6-.36.936-.064.336-.096.64-.096.912v4.08c0 .32-.112.592-.336.816a1.11 1.11 0 0 1-.816.336 1.11 1.11 0 0 1-.816-.336 1.11 1.11 0 0 1-.336-.816v-4.08c0-.496.064-.992.192-1.488.128-.512.32-.992.576-1.44h-7.872a1.11 1.11 0 0 1-.816-.336 1.11 1.11 0 0 1-.336-.816c0-.32.112-.592.336-.816a1.11 1.11 0 0 1 .816-.336h16.512Zm-39.625 5.232c0-.608.096-1.216.288-1.824a5.627 5.627 0 0 1 .888-1.68 4.711 4.711 0 0 1 1.392-1.248c.544-.32 1.16-.48 1.848-.48h13.992c.32 0 .592.112.816.336.224.224.336.496.336.816 0 .32-.112.592-.336.816a1.11 1.11 0 0 1-.816.336H307.9c-.56 0-1.016.104-1.368.312a2.548 2.548 0 0 0-.816.72 2.855 2.855 0 0 0-.408.96 5.023 5.023 0 0 0-.096.936c0 .288.032.608.096.96.08.336.216.648.408.936.208.288.48.536.816.744.352.192.808.288 1.368.288h13.488c.32 0 .592.112.816.336.224.224.336.496.336.816 0 .32-.112.592-.336.816a1.11 1.11 0 0 1-.816.336h-14.232c-.656 0-1.24-.16-1.752-.48a4.802 4.802 0 0 1-1.32-1.224 6.21 6.21 0 0 1-.816-1.704 6.186 6.186 0 0 1-.288-1.824Zm-14.409.624h6.816l-2.472-3.312a3.63 3.63 0 0 0-.432-.408c-.16-.16-.328-.24-.504-.24s-.352.08-.528.24c-.16.144-.288.28-.384.408l-2.496 3.312Zm8.544 2.304h-10.296l-1.392 1.872c-.24.288-.536.432-.888.432a1.11 1.11 0 0 1-.816-.336 1.11 1.11 0 0 1-.336-.816c0-.288.08-.52.24-.696l5.832-7.848a2.962 2.962 0 0 1 1.08-.888 3.114 3.114 0 0 1 2.808-.048c.432.208.784.496 1.056.864l5.832 7.8c.096.112.176.24.24.384a.953.953 0 0 1 .096.432c0 .32-.112.592-.336.816a1.11 1.11 0 0 1-.816.336c-.384 0-.688-.152-.912-.456l-1.392-1.848Zm-31.282 1.872c-.24.288-.536.432-.888.432a1.11 1.11 0 0 1-.816-.336 1.11 1.11 0 0 1-.336-.816c0-.288.08-.52.24-.696l5.832-7.848a2.962 2.962 0 0 1 1.08-.888 3.114 3.114 0 0 1 2.808-.048c.432.208.784.496 1.056.864l5.832 7.8c.096.112.176.24.24.384a.953.953 0 0 1 .096.432c0 .32-.112.592-.336.816a1.11 1.11 0 0 1-.816.336c-.384 0-.688-.152-.912-.456l-5.592-7.464a3.63 3.63 0 0 0-.432-.408c-.16-.16-.328-.24-.504-.24s-.352.08-.528.24c-.16.144-.288.28-.384.408l-5.64 7.488Zm-20.9-3.696v1.824h13.32c.24 0 .448-.088.624-.264a.82.82 0 0 0 .288-.624.774.774 0 0 0-.288-.624.853.853 0 0 0-.624-.264h-12.744c-.208 0-.4-.016-.576-.048Zm-2.304-5.184c0-.32.112-.592.336-.816a1.11 1.11 0 0 1 .816-.336c.08 0 .16.008.24.024h15.24c.32 0 .592.112.816.336.224.224.336.496.336.816 0 .32-.112.592-.336.816a1.11 1.11 0 0 1-.816.336h-14.328v.864a.87.87 0 0 0 .744.888h12.48c.448 0 .864.088 1.248.264.4.16.744.384 1.032.672.304.288.536.624.696 1.008.176.384.264.8.264 1.248 0 .448-.088.864-.264 1.248-.16.384-.392.72-.696 1.008a3.35 3.35 0 0 1-1.032.696c-.384.16-.8.24-1.248.24h-14.376a1.11 1.11 0 0 1-.816-.336 1.11 1.11 0 0 1-.336-.816c0-.096.008-.184.024-.264a1.349 1.349 0 0 1-.024-.264v-7.632Zm-7.322 7.008c.544 0 .992-.096 1.344-.288.352-.208.624-.456.816-.744.208-.288.344-.6.408-.936.08-.352.12-.672.12-.96 0-.288-.04-.6-.12-.936a2.331 2.331 0 0 0-.408-.96 2.25 2.25 0 0 0-.816-.72c-.352-.208-.8-.312-1.344-.312h-9.696c-.56 0-1.016.104-1.368.312a2.548 2.548 0 0 0-.816.72 2.855 2.855 0 0 0-.408.96 5.023 5.023 0 0 0-.096.936c0 .288.032.608.096.96.08.336.216.648.408.936.208.288.48.536.816.744.352.192.808.288 1.368.288h9.696Zm4.92-2.928a5.82 5.82 0 0 1-.312 1.848 5.582 5.582 0 0 1-.864 1.68 4.86 4.86 0 0 1-1.392 1.224c-.544.32-1.16.48-1.848.48h-10.944a3.575 3.575 0 0 1-1.752-.528 5.152 5.152 0 0 1-1.32-1.248 5.92 5.92 0 0 1-.816-1.656 5.954 5.954 0 0 1-.288-1.8c0-.608.096-1.216.288-1.824a5.627 5.627 0 0 1 .888-1.68 4.711 4.711 0 0 1 1.392-1.248c.544-.32 1.16-.48 1.848-.48h10.944c.656.032 1.24.216 1.752.552.512.32.944.728 1.296 1.224.368.496.648 1.048.84 1.656.192.608.288 1.208.288 1.8Zm-49.2 2.928h13.32c.24 0 .448-.088.624-.264a.82.82 0 0 0 .288-.624.774.774 0 0 0-.288-.624.853.853 0 0 0-.624-.264h-13.32v1.776Zm0-5.856v1.776h13.344c.24 0 .448-.08.624-.24a.804.804 0 0 0 .264-.624.82.82 0 0 0-.288-.624.82.82 0 0 0-.624-.288h-13.32Zm-1.152 8.16a1.11 1.11 0 0 1-.816-.336 1.11 1.11 0 0 1-.336-.816v-8.16c0-.32.112-.592.336-.816a1.11 1.11 0 0 1 .816-.336h14.376c.448 0 .864.088 1.248.264.4.16.744.384 1.032.672.304.288.536.632.696 1.032.176.384.264.8.264 1.248 0 .4-.072.776-.216 1.128-.128.336-.304.64-.528.912.224.272.4.584.528.936.144.336.216.696.216 1.08 0 .448-.088.864-.264 1.248-.16.384-.392.72-.696 1.008a3.35 3.35 0 0 1-1.032.696c-.384.16-.8.24-1.248.24h-14.376Zm53.934-37.648c0-.224.08-.44.24-.648a9.65 9.65 0 0 1 1.944-2.136 9.202 9.202 0 0 1 2.472-1.416c.928-.368 1.96-.632 3.096-.792 1.136-.16 2.408-.24 3.816-.24h4.896v-1.248a.606.606 0 0 0-.24-.36.738.738 0 0 0-.504-.168h-12.576a1.11 1.11 0 0 0-.6.288c-.16.16-.24.36-.24.6 0 .32-.112.592-.336.816a1.11 1.11 0 0 1-.816.336 1.11 1.11 0 0 1-.816-.336 1.11 1.11 0 0 1-.336-.816c0-.448.088-.864.264-1.248.176-.384.416-.72.72-1.008a3.303 3.303 0 0 1 1.056-.672c.4-.176.824-.264 1.272-.264h12.528c.352 0 .704.08 1.056.24.352.144.664.352.936.624s.496.6.672.984c.176.384.264.816.264 1.296v6.168c0 .32-.112.592-.336.816a1.11 1.11 0 0 1-.816.336c-.304 0-.576-.112-.816-.336a1.11 1.11 0 0 1-.336-.816v-2.928h-4.896c-.976 0-1.896.032-2.76.096a9.988 9.988 0 0 0-2.424.432 8.735 8.735 0 0 0-2.208 1.056c-.688.464-1.36 1.104-2.016 1.92-.048.064-.12.144-.216.24a1.764 1.764 0 0 1-.36.24.953.953 0 0 1-.432.096 1.11 1.11 0 0 1-.816-.336 1.11 1.11 0 0 1-.336-.816Zm-18.743-3.432c0 .576.032 1.016.096 1.32.064.304.216.456.456.456.128 0 .288-.048.48-.144.208-.112.464-.256.768-.432l10.992-6.72c.176-.112.368-.2.576-.264.224-.064.448-.096.672-.096.656 0 1.2.224 1.632.672.448.448.672 1 .672 1.656v6.984c0 .32-.112.592-.336.816a1.11 1.11 0 0 1-.816.336 1.11 1.11 0 0 1-.816-.336 1.11 1.11 0 0 1-.336-.816v-4.728c0-.576-.032-1.016-.096-1.32-.064-.304-.216-.456-.456-.456-.128 0-.296.056-.504.168-.192.096-.44.232-.744.408l-10.992 6.72c-.176.112-.376.2-.6.264a2.19 2.19 0 0 1-.648.096c-.656 0-1.208-.224-1.656-.672-.432-.448-.648-1-.648-1.656v-6.984c0-.32.112-.592.336-.816a1.11 1.11 0 0 1 .816-.336c.32 0 .592.112.816.336.224.224.336.496.336.816v4.728Zm-4.7 3.432c0 .32-.112.592-.336.816a1.11 1.11 0 0 1-.816.336 1.11 1.11 0 0 1-.816-.336 1.11 1.11 0 0 1-.336-.816v-2.928h-14.184v2.928c0 .32-.112.592-.336.816a1.11 1.11 0 0 1-.816.336 1.11 1.11 0 0 1-.816-.336 1.11 1.11 0 0 1-.336-.816v-8.16c0-.32.112-.592.336-.816a1.11 1.11 0 0 1 .816-.336c.32 0 .592.112.816.336.224.224.336.496.336.816v2.928h14.184v-2.928c0-.32.112-.592.336-.816a1.11 1.11 0 0 1 .816-.336c.32 0 .592.112.816.336.224.224.336.496.336.816v8.16Zm-33.202-3.456h6.816l-2.472-3.312a3.63 3.63 0 0 0-.432-.408c-.16-.16-.328-.24-.504-.24s-.352.08-.528.24c-.16.144-.288.28-.384.408l-2.496 3.312Zm8.544 2.304h-10.296l-1.392 1.872c-.24.288-.536.432-.888.432a1.11 1.11 0 0 1-.816-.336 1.11 1.11 0 0 1-.336-.816c0-.288.08-.52.24-.696l5.832-7.848a2.962 2.962 0 0 1 1.08-.888 3.114 3.114 0 0 1 2.808-.048c.432.208.784.496 1.056.864l5.832 7.8c.096.112.176.24.24.384a.953.953 0 0 1 .096.432c0 .32-.112.592-.336.816a1.11 1.11 0 0 1-.816.336c-.384 0-.688-.152-.912-.456l-1.392-1.848Zm-32.588 0h13.32c.24 0 .448-.088.624-.264a.82.82 0 0 0 .288-.624.774.774 0 0 0-.288-.624.853.853 0 0 0-.624-.264h-13.32v1.776Zm0-5.856v1.776h13.344c.24 0 .448-.08.624-.24a.804.804 0 0 0 .264-.624.82.82 0 0 0-.288-.624.82.82 0 0 0-.624-.288h-13.32Zm-1.152 8.16a1.11 1.11 0 0 1-.816-.336 1.11 1.11 0 0 1-.336-.816v-8.16c0-.32.112-.592.336-.816a1.11 1.11 0 0 1 .816-.336h14.376c.448 0 .864.088 1.248.264.4.16.744.384 1.032.672.304.288.536.632.696 1.032.176.384.264.8.264 1.248 0 .4-.072.776-.216 1.128-.128.336-.304.64-.528.912.224.272.4.584.528.936.144.336.216.696.216 1.08 0 .448-.088.864-.264 1.248-.16.384-.392.72-.696 1.008a3.35 3.35 0 0 1-1.032.696c-.384.16-.8.24-1.248.24h-14.376Zm-8.473-2.304c.544 0 .992-.096 1.344-.288.352-.208.624-.456.816-.744.208-.288.344-.6.408-.936.08-.352.12-.672.12-.96 0-.288-.04-.6-.12-.936a2.331 2.331 0 0 0-.408-.96 2.25 2.25 0 0 0-.816-.72c-.352-.208-.8-.312-1.344-.312h-9.696c-.56 0-1.016.104-1.368.312a2.548 2.548 0 0 0-.816.72 2.855 2.855 0 0 0-.408.96 5.023 5.023 0 0 0-.096.936c0 .288.032.608.096.96.08.336.216.648.408.936.208.288.48.536.816.744.352.192.808.288 1.368.288h9.696Zm4.92-2.928a5.82 5.82 0 0 1-.312 1.848 5.582 5.582 0 0 1-.864 1.68 4.86 4.86 0 0 1-1.392 1.224c-.544.32-1.16.48-1.848.48h-10.944a3.575 3.575 0 0 1-1.752-.528 5.152 5.152 0 0 1-1.32-1.248 5.92 5.92 0 0 1-.816-1.656 5.954 5.954 0 0 1-.288-1.8c0-.608.096-1.216.288-1.824a5.627 5.627 0 0 1 .888-1.68 4.711 4.711 0 0 1 1.392-1.248c.544-.32 1.16-.48 1.848-.48h10.944c.656.032 1.24.216 1.752.552.512.32.944.728 1.296 1.224.368.496.648 1.048.84 1.656.192.608.288 1.208.288 1.8Zm-33.711 4.295c0-.416.144-.768.432-1.056.288-.288.64-.432 1.056-.432.416 0 .768.144 1.056.432.288.288.432.64.432 1.056 0 .416-.144.768-.432 1.056-.288.288-.64.432-1.056.432-.416 0-.768-.144-1.056-.432a1.436 1.436 0 0 1-.432-1.056Zm-3.72-.816h.6c.32 0 .592.112.816.336.224.224.336.496.336.816 0 .32-.112.592-.336.816a1.11 1.11 0 0 1-.816.336h-5.112a1.214 1.214 0 0 1-.744-.36 1.126 1.126 0 0 1-.312-.792c0-.32.112-.592.336-.816a1.11 1.11 0 0 1 .816-.336h1.56l5.64-7.536c.288-.368.64-.656 1.056-.864a3.114 3.114 0 0 1 1.368-.312c.512 0 .984.12 1.416.36.448.224.816.52 1.104.888l5.544 7.464h1.44c.32 0 .592.112.816.336.224.224.336.496.336.816 0 .32-.112.592-.336.816a1.11 1.11 0 0 1-.816.336h-5.112a1.214 1.214 0 0 1-.744-.36 1.126 1.126 0 0 1-.312-.792c0-.32.112-.592.336-.816a1.11 1.11 0 0 1 .816-.336h.72l-4.296-5.688a2.442 2.442 0 0 0-.408-.408c-.16-.16-.328-.24-.504-.24s-.352.08-.528.24c-.16.144-.296.28-.408.408l-4.272 5.688Zm-27.222-7.559c0-.32.112-.592.336-.816a1.11 1.11 0 0 1 .816-.336h17.016c.32 0 .592.112.816.336.224.224.336.496.336.816 0 .32-.112.592-.336.816a1.11 1.11 0 0 1-.816.336H94.914a1.11 1.11 0 0 1-.816-.336 1.11 1.11 0 0 1-.336-.816Zm2.928 9.312a2.77 2.77 0 0 1-1.056-.216 3.165 3.165 0 0 1-.936-.648 3.347 3.347 0 0 1-.672-.984 3.076 3.076 0 0 1-.264-1.296v-2.16c0-.432.12-.72.36-.864.256-.144.648-.216 1.176-.216h16.104c.32 0 .592.112.816.336.224.224.336.496.336.816 0 .32-.112.592-.336.816a1.11 1.11 0 0 1-.816.336H96.066v1.176c0 .16.064.304.192.432a.873.873 0 0 0 .552.168h15.12c.32 0 .592.112.816.336.224.224.336.496.336.816 0 .32-.112.592-.336.816a1.11 1.11 0 0 1-.816.336H96.69Zm-20.482-.432c-.24.288-.536.432-.888.432a1.11 1.11 0 0 1-.816-.336 1.11 1.11 0 0 1-.336-.816c0-.288.08-.52.24-.696l5.832-7.848a2.962 2.962 0 0 1 1.08-.888 3.114 3.114 0 0 1 2.808-.048c.432.208.784.496 1.056.864l5.832 7.8c.096.112.176.24.24.384a.953.953 0 0 1 .096.432c0 .32-.112.592-.336.816a1.11 1.11 0 0 1-.816.336c-.384 0-.688-.152-.912-.456l-5.592-7.464a3.63 3.63 0 0 0-.432-.408c-.16-.16-.328-.24-.504-.24s-.352.08-.528.24c-.16.144-.288.28-.384.408l-5.64 7.488Zm-24.001-4.8c0-.608.096-1.216.288-1.824a5.627 5.627 0 0 1 .888-1.68 4.711 4.711 0 0 1 1.392-1.248c.544-.32 1.16-.48 1.848-.48h13.992c.32 0 .592.112.816.336.224.224.336.496.336.816 0 .32-.112.592-.336.816a1.11 1.11 0 0 1-.816.336H57.127c-.56 0-1.016.104-1.368.312a2.548 2.548 0 0 0-.816.72 2.855 2.855 0 0 0-.408.96 5.023 5.023 0 0 0-.096.936c0 .288.032.608.096.96.08.336.216.648.408.936.208.288.48.536.816.744.352.192.808.288 1.368.288h13.488c.32 0 .592.112.816.336.224.224.336.496.336.816 0 .32-.112.592-.336.816a1.11 1.11 0 0 1-.816.336H56.383c-.656 0-1.24-.16-1.752-.48a4.802 4.802 0 0 1-1.32-1.224 6.21 6.21 0 0 1-.816-1.704 6.186 6.186 0 0 1-.288-1.824Zm-21.961 0c0-.608.096-1.216.288-1.824a5.627 5.627 0 0 1 .888-1.68 4.711 4.711 0 0 1 1.392-1.248c.544-.32 1.16-.48 1.848-.48h13.992c.32 0 .592.112.816.336.224.224.336.496.336.816 0 .32-.112.592-.336.816a1.11 1.11 0 0 1-.816.336H35.166c-.56 0-1.016.104-1.368.312a2.548 2.548 0 0 0-.816.72 2.855 2.855 0 0 0-.408.96 5.023 5.023 0 0 0-.096.936c0 .288.032.608.096.96.08.336.216.648.408.936.208.288.48.536.816.744.352.192.808.288 1.368.288h13.488c.32 0 .592.112.816.336.224.224.336.496.336.816 0 .32-.112.592-.336.816a1.11 1.11 0 0 1-.816.336H34.422c-.656 0-1.24-.16-1.752-.48a4.802 4.802 0 0 1-1.32-1.224 6.21 6.21 0 0 1-.816-1.704 6.186 6.186 0 0 1-.288-1.824Zm-18.743.648c0 .576.032 1.016.096 1.32.064.304.216.456.456.456.128 0 .288-.048.48-.144.208-.112.464-.256.768-.432l10.992-6.72c.176-.112.368-.2.576-.264.224-.064.448-.096.672-.096.656 0 1.2.224 1.632.672.448.448.672 1 .672 1.656v6.984c0 .32-.112.592-.336.816a1.11 1.11 0 0 1-.816.336 1.11 1.11 0 0 1-.816-.336 1.11 1.11 0 0 1-.336-.816v-4.728c0-.576-.032-1.016-.096-1.32-.064-.304-.216-.456-.456-.456-.128 0-.296.056-.504.168-.192.096-.44.232-.744.408l-10.992 6.72c-.176.112-.376.2-.6.264a2.19 2.19 0 0 1-.648.096c-.656 0-1.208-.224-1.656-.672-.432-.448-.648-1-.648-1.656v-6.984c0-.32.112-.592.336-.816a1.11 1.11 0 0 1 .816-.336c.32 0 .592.112.816.336.224.224.336.496.336.816v4.728Zm263.44-33.064c0 .32-.112.592-.336.816a1.109 1.109 0 0 1-.815.336 1.11 1.11 0 0 1-.816-.336 1.11 1.11 0 0 1-.336-.816v-5.232c0-.656-.04-.984-.12-.984-.064 0-.288.216-.672.648l-5.28 6a2.06 2.06 0 0 1-.769.552 2.819 2.819 0 0 1-.983.168 2.83 2.83 0 0 1-.985-.168 2.053 2.053 0 0 1-.767-.552l-5.28-6c-.368-.432-.593-.648-.673-.648-.08 0-.119.328-.119.984v5.232c0 .32-.112.592-.336.816a1.11 1.11 0 0 1-.816.336c-.32 0-.593-.112-.817-.336a1.11 1.11 0 0 1-.335-.816v-7.008c0-.64.184-1.184.552-1.632.368-.448.872-.672 1.512-.672.384 0 .728.096 1.032.288.304.192.584.424.84.696l5.52 6.288c.08.08.176.168.288.264a.72.72 0 0 0 .384.12c.128 0 .248-.04.36-.12.128-.096.232-.184.312-.264l5.496-6.288h.024c.224-.304.496-.544.816-.72.32-.176.672-.264 1.056-.264.64 0 1.144.224 1.512.672.368.448.551.992.551 1.632v7.008Zm-38.998-3.432c0 .576.032 1.016.096 1.32.064.304.216.456.456.456.128 0 .288-.048.48-.144.208-.112.464-.256.768-.432l10.992-6.72c.176-.112.368-.2.576-.264.224-.064.448-.096.672-.096.656 0 1.2.224 1.632.672.448.448.672 1 .672 1.656v6.984c0 .32-.112.592-.336.816a1.11 1.11 0 0 1-.816.336 1.11 1.11 0 0 1-.816-.336 1.11 1.11 0 0 1-.336-.816v-4.728c0-.576-.032-1.016-.096-1.32-.064-.304-.216-.456-.456-.456-.128 0-.296.056-.504.168-.192.096-.44.232-.744.408l-10.992 6.72c-.176.112-.376.2-.6.264a2.19 2.19 0 0 1-.648.096c-.656 0-1.208-.224-1.656-.672-.432-.448-.648-1-.648-1.656v-6.984c0-.32.112-.592.336-.816a1.11 1.11 0 0 1 .816-.336c.32 0 .592.112.816.336.224.224.336.496.336.816v4.728Zm-16.479 3.648c0-.416.144-.768.432-1.056.288-.288.64-.432 1.056-.432.416 0 .768.144 1.056.432.288.288.432.64.432 1.056 0 .416-.144.768-.432 1.056-.288.288-.64.432-1.056.432-.416 0-.768-.144-1.056-.432a1.436 1.436 0 0 1-.432-1.056Zm-3.72-.816h.6c.32 0 .592.112.816.336.224.224.336.496.336.816 0 .32-.112.592-.336.816a1.11 1.11 0 0 1-.816.336h-5.112a1.214 1.214 0 0 1-.744-.36 1.126 1.126 0 0 1-.312-.792c0-.32.112-.592.336-.816a1.11 1.11 0 0 1 .816-.336h1.56l5.64-7.536c.288-.368.64-.656 1.056-.864a3.114 3.114 0 0 1 1.368-.312c.512 0 .984.12 1.416.36.448.224.816.52 1.104.888l5.544 7.464h1.44c.32 0 .592.112.816.336.224.224.336.496.336.816 0 .32-.112.592-.336.816a1.11 1.11 0 0 1-.816.336h-5.112a1.214 1.214 0 0 1-.744-.36 1.126 1.126 0 0 1-.312-.792c0-.32.112-.592.336-.816a1.11 1.11 0 0 1 .816-.336h.72l-4.296-5.688a2.442 2.442 0 0 0-.408-.408c-.16-.16-.328-.24-.504-.24s-.352.08-.528.24c-.16.144-.296.28-.408.408l-4.272 5.688Zm-12.817-.552c.544 0 .992-.096 1.344-.288.352-.208.624-.456.816-.744.208-.288.344-.6.408-.936.08-.352.12-.672.12-.96 0-.288-.04-.6-.12-.936a2.331 2.331 0 0 0-.408-.96 2.25 2.25 0 0 0-.816-.72c-.352-.208-.8-.312-1.344-.312h-9.696c-.56 0-1.016.104-1.368.312a2.548 2.548 0 0 0-.816.72 2.855 2.855 0 0 0-.408.96 5.023 5.023 0 0 0-.096.936c0 .288.032.608.096.96.08.336.216.648.408.936.208.288.48.536.816.744.352.192.808.288 1.368.288h9.696Zm4.92-2.928a5.82 5.82 0 0 1-.312 1.848 5.605 5.605 0 0 1-.864 1.68 4.874 4.874 0 0 1-1.392 1.224c-.544.32-1.16.48-1.848.48h-10.944a3.575 3.575 0 0 1-1.752-.528 5.152 5.152 0 0 1-1.32-1.248 5.92 5.92 0 0 1-.816-1.656 5.956 5.956 0 0 1-.289-1.8c0-.608.097-1.216.289-1.824a5.627 5.627 0 0 1 .888-1.68 4.711 4.711 0 0 1 1.392-1.248c.544-.32 1.16-.48 1.848-.48h10.944a3.436 3.436 0 0 1 1.751.552c.513.32.945.728 1.297 1.224.368.496.647 1.048.84 1.656.192.608.288 1.208.288 1.8Zm-38.397 2.928h13.32c.24 0 .448-.088.624-.264a.82.82 0 0 0 .288-.624.774.774 0 0 0-.288-.624.853.853 0 0 0-.624-.264h-13.32v1.776Zm0-5.856v1.776h13.344c.24 0 .448-.08.624-.24a.804.804 0 0 0 .264-.624.82.82 0 0 0-.288-.624.82.82 0 0 0-.624-.288h-13.32Zm-1.152 8.16a1.11 1.11 0 0 1-.816-.336 1.11 1.11 0 0 1-.336-.816v-8.16c0-.32.112-.592.336-.816a1.11 1.11 0 0 1 .816-.336h14.376c.448 0 .864.088 1.248.264.4.16.744.384 1.032.672.304.288.536.632.696 1.032.176.384.264.8.264 1.248 0 .4-.072.776-.216 1.128-.128.336-.304.64-.528.912.224.272.4.584.528.936.144.336.216.696.216 1.08 0 .448-.088.864-.264 1.248-.16.384-.392.72-.696 1.008a3.35 3.35 0 0 1-1.032.696c-.384.16-.8.24-1.248.24H168.3Zm-8.473-2.304c.544 0 .992-.096 1.344-.288.352-.208.624-.456.816-.744.208-.288.344-.6.408-.936.08-.352.12-.672.12-.96 0-.288-.04-.6-.12-.936a2.331 2.331 0 0 0-.408-.96 2.25 2.25 0 0 0-.816-.72c-.352-.208-.8-.312-1.344-.312h-9.696c-.56 0-1.016.104-1.368.312a2.548 2.548 0 0 0-.816.72 2.855 2.855 0 0 0-.408.96 5.023 5.023 0 0 0-.096.936c0 .288.032.608.096.96.08.336.216.648.408.936.208.288.48.536.816.744.352.192.808.288 1.368.288h9.696Zm4.92-2.928a5.82 5.82 0 0 1-.312 1.848 5.582 5.582 0 0 1-.864 1.68 4.86 4.86 0 0 1-1.392 1.224c-.544.32-1.16.48-1.848.48h-10.944a3.575 3.575 0 0 1-1.752-.528 5.152 5.152 0 0 1-1.32-1.248 5.92 5.92 0 0 1-.816-1.656 5.954 5.954 0 0 1-.288-1.8c0-.608.096-1.216.288-1.824a5.627 5.627 0 0 1 .888-1.68 4.711 4.711 0 0 1 1.392-1.248c.544-.32 1.16-.48 1.848-.48h10.944c.656.032 1.24.216 1.752.552.512.32.944.728 1.296 1.224.368.496.648 1.048.84 1.656.192.608.288 1.208.288 1.8Zm-38.396-2.928v1.776h13.32c.24 0 .448-.08.624-.24a.845.845 0 0 0 .288-.648.82.82 0 0 0-.288-.624.853.853 0 0 0-.624-.264h-13.32Zm13.224-2.304c.448 0 .864.088 1.248.264.4.16.744.384 1.032.672.304.288.536.624.696 1.008.176.384.264.8.264 1.248 0 .448-.088.864-.264 1.248-.16.384-.392.72-.696 1.008a3.35 3.35 0 0 1-1.032.696c-.384.16-.8.24-1.248.24h-13.224v2.928c0 .32-.12.592-.36.816a1.083 1.083 0 0 1-.792.336 1.11 1.11 0 0 1-.816-.336 1.11 1.11 0 0 1-.336-.816v-8.16c0-.32.112-.592.336-.816a1.11 1.11 0 0 1 .816-.336h14.376Zm-20.231 5.232c0-.288-.04-.6-.12-.936a2.331 2.331 0 0 0-.408-.96 2.25 2.25 0 0 0-.816-.72c-.352-.208-.8-.312-1.344-.312h-8.664c-.56 0-1.016.104-1.368.312a2.548 2.548 0 0 0-.816.72 2.855 2.855 0 0 0-.408.96 5.023 5.023 0 0 0-.096.936v4.08c0 .32-.112.592-.336.816a1.11 1.11 0 0 1-.816.336 1.11 1.11 0 0 1-.816-.336 1.11 1.11 0 0 1-.336-.816v-4.08c0-.608.096-1.216.288-1.824a5.627 5.627 0 0 1 .888-1.68 4.711 4.711 0 0 1 1.392-1.248c.544-.32 1.16-.48 1.848-.48h10.056c.656.032 1.24.216 1.752.552.512.32.944.728 1.296 1.224.368.496.648 1.048.84 1.656.192.608.288 1.208.288 1.8v4.08c0 .32-.112.592-.336.816a1.11 1.11 0 0 1-.816.336 1.11 1.11 0 0 1-.816-.336 1.11 1.11 0 0 1-.336-.816v-4.08ZM14.854 236v-8.708H9.576V236h-1.26v-9.94h7.812V236h-1.274Zm4.916 2.926h-1.204V229h1.204v1.078c.242-.355.583-.644 1.022-.868a3.08 3.08 0 0 1 1.442-.35c.97 0 1.782.355 2.436 1.064.662.709.994 1.568.994 2.576s-.332 1.867-.994 2.576c-.654.709-1.466 1.064-2.436 1.064a3.18 3.18 0 0 1-1.442-.336c-.439-.233-.78-.527-1.022-.882v4.004Zm.574-4.62c.448.485 1.017.728 1.708.728.69 0 1.26-.243 1.708-.728.448-.485.672-1.087.672-1.806 0-.719-.224-1.321-.672-1.806-.448-.485-1.018-.728-1.708-.728-.691 0-1.26.243-1.708.728-.448.485-.672 1.087-.672 1.806 0 .719.224 1.321.672 1.806Zm9.938 1.834a3.22 3.22 0 0 1-2.45-1.064c-.654-.709-.98-1.568-.98-2.576s.326-1.867.98-2.576a3.221 3.221 0 0 1 2.45-1.064 3 3 0 0 1 1.428.35c.448.224.793.513 1.036.868V229h1.204v7h-1.204v-1.078c-.243.355-.588.649-1.036.882a3.095 3.095 0 0 1-1.428.336Zm.182-1.106c.69 0 1.26-.243 1.708-.728.448-.485.672-1.087.672-1.806 0-.719-.224-1.321-.672-1.806-.448-.485-1.018-.728-1.708-.728-.7 0-1.274.243-1.722.728-.448.485-.672 1.087-.672 1.806 0 .719.224 1.321.672 1.806.448.485 1.022.728 1.722.728Zm5.752.966v-7h3.052c.775 0 1.367.173 1.778.518.41.345.616.807.616 1.386 0 .551-.229 1.003-.686 1.358.765.373 1.148.943 1.148 1.708 0 .588-.21 1.073-.63 1.456-.42.383-1.05.574-1.89.574h-3.388Zm1.204-1.05h2.254c.373 0 .667-.093.882-.28.224-.187.336-.443.336-.77s-.112-.579-.336-.756c-.215-.187-.509-.28-.882-.28H37.42v2.086Zm0-3.052h1.946c.719 0 1.078-.313 1.078-.938 0-.327-.103-.56-.308-.7-.205-.149-.462-.224-.77-.224H37.42v1.862ZM44.923 236h-1.078v-7h1.204v5.138L48.997 229h1.064v7h-1.19v-5.138L44.923 236Zm7.216.098c-.318 0-.528-.014-.63-.042v-1.078c.065.019.215.028.448.028.29 0 .504-.098.644-.294.14-.205.21-.565.21-1.078V229h5.404v7H57.01v-5.894h-2.996v3.78c0 .719-.173 1.269-.518 1.652-.346.373-.798.56-1.358.56Zm8.358-.098v-7h1.204v2.52h1.624c.84 0 1.475.219 1.904.658.439.439.658.961.658 1.568 0 .616-.22 1.148-.658 1.596-.438.439-1.078.658-1.918.658h-2.814Zm1.204-3.388v2.296h1.568c.448 0 .794-.103 1.036-.308.252-.205.378-.49.378-.854s-.121-.644-.364-.84c-.242-.196-.588-.294-1.036-.294h-1.582ZM67.443 236v-7h1.204v2.884h3.822V229h1.204v7h-1.204v-3.024h-3.822V236h-1.204Zm11.612.14c-1.055 0-1.933-.35-2.633-1.05-.69-.709-1.035-1.573-1.035-2.59s.345-1.876 1.035-2.576c.7-.709 1.578-1.064 2.633-1.064 1.045 0 1.913.355 2.603 1.064.7.7 1.05 1.559 1.05 2.576 0 1.017-.35 1.881-1.05 2.59-.69.7-1.558 1.05-2.603 1.05Zm-1.765-1.848c.458.485 1.046.728 1.764.728.72 0 1.302-.243 1.75-.728.448-.485.672-1.083.672-1.792 0-.709-.224-1.307-.671-1.792-.449-.485-1.032-.728-1.75-.728-.72 0-1.307.243-1.765.728-.448.485-.672 1.083-.672 1.792 0 .709.225 1.307.672 1.792Zm11.728 4.634h-1.204V229h1.204v1.078c.242-.355.583-.644 1.022-.868a3.08 3.08 0 0 1 1.442-.35c.97 0 1.782.355 2.436 1.064.662.709.994 1.568.994 2.576s-.332 1.867-.994 2.576c-.654.709-1.466 1.064-2.436 1.064a3.18 3.18 0 0 1-1.442-.336c-.439-.233-.78-.527-1.022-.882v4.004Zm.574-4.62c.448.485 1.017.728 1.708.728.69 0 1.26-.243 1.708-.728.448-.485.672-1.087.672-1.806 0-.719-.224-1.321-.672-1.806-.448-.485-1.018-.728-1.708-.728-.691 0-1.26.243-1.708.728-.448.485-.672 1.087-.672 1.806 0 .719.224 1.321.672 1.806Zm10.036 1.834c-1.018 0-1.862-.345-2.534-1.036-.663-.691-.994-1.559-.994-2.604 0-1.055.322-1.923.966-2.604.653-.691 1.516-1.036 2.59-1.036 1.082 0 1.932.383 2.548 1.148.616.765.886 1.703.812 2.814h-5.698c.018.635.252 1.167.7 1.596.448.42.99.63 1.624.63.952 0 1.628-.392 2.03-1.176h1.232c-.178.653-.556 1.195-1.134 1.624-.579.429-1.293.644-2.142.644Zm1.372-5.712c-.383-.336-.845-.504-1.386-.504-.542 0-1.027.163-1.456.49-.42.327-.682.812-.784 1.456h4.368c-.112-.635-.36-1.115-.742-1.442Zm3.753 5.572v-7h1.204v5.894h2.786V229h1.204v5.894h2.786V229h1.204v7h-9.184Zm14.355.14c-.971 0-1.787-.355-2.45-1.064-.653-.709-.98-1.568-.98-2.576s.327-1.867.98-2.576c.663-.709 1.479-1.064 2.45-1.064a3 3 0 0 1 1.428.35c.448.224.793.513 1.036.868V229h1.204v7h-1.204v-1.078c-.243.355-.588.649-1.036.882a3.096 3.096 0 0 1-1.428.336Zm.182-1.106c.691 0 1.26-.243 1.708-.728.448-.485.672-1.087.672-1.806 0-.719-.224-1.321-.672-1.806-.448-.485-1.017-.728-1.708-.728-.7 0-1.274.243-1.722.728-.448.485-.672 1.087-.672 1.806 0 .719.224 1.321.672 1.806.448.485 1.022.728 1.722.728Zm8.734 1.106c-1.017 0-1.862-.345-2.534-1.036-.662-.691-.994-1.559-.994-2.604 0-1.055.322-1.923.966-2.604.654-.691 1.517-1.036 2.59-1.036 1.083 0 1.932.383 2.548 1.148.616.765.887 1.703.812 2.814h-5.698c.019.635.252 1.167.7 1.596.448.42.99.63 1.624.63.952 0 1.629-.392 2.03-1.176h1.232c-.177.653-.555 1.195-1.134 1.624-.578.429-1.292.644-2.142.644Zm1.372-5.712c-.382-.336-.844-.504-1.386-.504-.541 0-1.026.163-1.456.49-.42.327-.681.812-.784 1.456h4.368c-.112-.635-.359-1.115-.742-1.442ZM133.15 229h1.106l2.59 3.444L139.45 229h1.106v7h-1.204v-5.054l-2.506 3.304-2.492-3.304V236h-1.204v-7Zm13.056 7v-7h6.076v7h-1.204v-5.894h-3.668V236h-1.204Zm9.544 2.926h-1.204V229h1.204v1.078c.243-.355.583-.644 1.022-.868.448-.233.929-.35 1.442-.35.971 0 1.783.355 2.436 1.064.663.709.994 1.568.994 2.576s-.331 1.867-.994 2.576c-.653.709-1.465 1.064-2.436 1.064-.513 0-.994-.112-1.442-.336-.439-.233-.779-.527-1.022-.882v4.004Zm.574-4.62c.448.485 1.017.728 1.708.728.691 0 1.26-.243 1.708-.728.448-.485.672-1.087.672-1.806 0-.719-.224-1.321-.672-1.806-.448-.485-1.017-.728-1.708-.728-.691 0-1.26.243-1.708.728-.448.485-.672 1.087-.672 1.806 0 .719.224 1.321.672 1.806Zm10.162 1.834c-1.055 0-1.932-.35-2.632-1.05-.691-.709-1.036-1.573-1.036-2.59s.345-1.876 1.036-2.576c.7-.709 1.577-1.064 2.632-1.064 1.045 0 1.913.355 2.604 1.064.7.7 1.05 1.559 1.05 2.576 0 1.017-.35 1.881-1.05 2.59-.691.7-1.559 1.05-2.604 1.05Zm-1.764-1.848c.457.485 1.045.728 1.764.728.719 0 1.302-.243 1.75-.728.448-.485.672-1.083.672-1.792 0-.709-.224-1.307-.672-1.792-.448-.485-1.031-.728-1.75-.728-.719 0-1.307.243-1.764.728-.448.485-.672 1.083-.672 1.792 0 .709.224 1.307.672 1.792Zm10.506 1.848c-1.101 0-1.983-.364-2.646-1.092-.653-.728-.98-1.685-.98-2.87v-.714c0-1.717.308-3.001.924-3.85.616-.859 1.624-1.423 3.024-1.694l2.604-.476v1.148l-2.338.434c-.998.177-1.722.513-2.17 1.008-.438.495-.714 1.223-.826 2.184.607-.812 1.466-1.218 2.576-1.218 1.055 0 1.9.336 2.534 1.008.644.672.966 1.493.966 2.464 0 1.027-.35 1.895-1.05 2.604-.69.709-1.563 1.064-2.618 1.064Zm-1.736-1.834c.448.476 1.027.714 1.736.714.71 0 1.293-.238 1.75-.714.458-.476.686-1.087.686-1.834 0-.7-.228-1.269-.686-1.708-.448-.448-1.022-.672-1.722-.672-.718 0-1.306.229-1.764.686-.448.448-.672 1.013-.672 1.694 0 .747.224 1.358.672 1.834Zm6.807 1.792c-.317 0-.527-.014-.63-.042v-1.078c.065.019.215.028.448.028.289 0 .504-.098.644-.294.14-.205.21-.565.21-1.078V229h5.404v7h-1.204v-5.894h-2.996v3.78c0 .719-.173 1.269-.518 1.652-.345.373-.798.56-1.358.56Zm11.34.042c-1.017 0-1.862-.345-2.534-1.036-.662-.691-.994-1.559-.994-2.604 0-1.055.322-1.923.966-2.604.654-.691 1.517-1.036 2.59-1.036 1.083 0 1.932.383 2.548 1.148.616.765.887 1.703.812 2.814h-5.698c.019.635.252 1.167.7 1.596.448.42.99.63 1.624.63.952 0 1.629-.392 2.03-1.176h1.232c-.177.653-.555 1.195-1.134 1.624-.578.429-1.292.644-2.142.644Zm1.372-5.712c-.382-.336-.844-.504-1.386-.504-.541 0-1.026.163-1.456.49-.42.327-.681.812-.784 1.456h4.368c-.112-.635-.359-1.115-.742-1.442Zm3.754-1.428h1.106l2.59 3.444 2.604-3.444h1.106v7h-1.204v-5.054l-2.506 3.304-2.492-3.304V236h-1.204v-7Zm16.148 7v-7h1.204v7h-1.204Zm-6.468 0v-7h1.204v2.52h1.624c.84 0 1.474.219 1.904.658.438.439.658.961.658 1.568 0 .616-.22 1.148-.658 1.596-.439.439-1.078.658-1.918.658h-2.814Zm1.204-3.388v2.296h1.568c.448 0 .793-.103 1.036-.308.252-.205.378-.49.378-.854s-.122-.644-.364-.84c-.243-.196-.588-.294-1.036-.294h-1.582ZM219.775 236v-7h6.076v7h-1.204v-5.894h-3.668V236h-1.204Zm11.447.14c-1.054 0-1.932-.35-2.632-1.05-.69-.709-1.036-1.573-1.036-2.59s.346-1.876 1.036-2.576c.7-.709 1.578-1.064 2.632-1.064 1.046 0 1.914.355 2.604 1.064.7.7 1.05 1.559 1.05 2.576 0 1.017-.35 1.881-1.05 2.59-.69.7-1.558 1.05-2.604 1.05Zm-1.764-1.848c.458.485 1.046.728 1.764.728.719 0 1.302-.243 1.75-.728.448-.485.672-1.083.672-1.792 0-.709-.224-1.307-.672-1.792-.448-.485-1.031-.728-1.75-.728-.718 0-1.306.243-1.764.728-.448.485-.672 1.083-.672 1.792 0 .709.224 1.307.672 1.792Zm8.285 1.708v-5.894h-2.226V229h5.754v1.106h-2.324V236h-1.204Zm6.109 2.926h-1.204V229h1.204v1.078c.242-.355.583-.644 1.022-.868.448-.233.928-.35 1.442-.35.97 0 1.782.355 2.436 1.064.662.709.994 1.568.994 2.576s-.332 1.867-.994 2.576c-.654.709-1.466 1.064-2.436 1.064-.514 0-.994-.112-1.442-.336-.439-.233-.78-.527-1.022-.882v4.004Zm.574-4.62c.448.485 1.017.728 1.708.728.69 0 1.26-.243 1.708-.728.448-.485.672-1.087.672-1.806 0-.719-.224-1.321-.672-1.806-.448-.485-1.018-.728-1.708-.728-.691 0-1.26.243-1.708.728-.448.485-.672 1.087-.672 1.806 0 .719.224 1.321.672 1.806Zm10.036 1.834c-1.018 0-1.862-.345-2.534-1.036-.663-.691-.994-1.559-.994-2.604 0-1.055.322-1.923.966-2.604.653-.691 1.516-1.036 2.59-1.036 1.082 0 1.932.383 2.548 1.148.616.765.886 1.703.812 2.814h-5.698c.018.635.252 1.167.7 1.596.448.42.989.63 1.624.63.952 0 1.628-.392 2.03-1.176h1.232c-.178.653-.556 1.195-1.134 1.624-.579.429-1.293.644-2.142.644Zm1.372-5.712c-.383-.336-.845-.504-1.386-.504-.542 0-1.027.163-1.456.49-.42.327-.682.812-.784 1.456h4.368c-.112-.635-.36-1.115-.742-1.442Zm7.113 5.712c-1.101 0-1.983-.364-2.646-1.092-.653-.728-.98-1.685-.98-2.87v-.714c0-1.717.308-3.001.924-3.85.616-.859 1.624-1.423 3.024-1.694l2.604-.476v1.148l-2.338.434c-.999.177-1.722.513-2.17 1.008-.439.495-.714 1.223-.826 2.184.607-.812 1.465-1.218 2.576-1.218 1.055 0 1.899.336 2.534 1.008.644.672.966 1.493.966 2.464 0 1.027-.35 1.895-1.05 2.604-.691.709-1.563 1.064-2.618 1.064Zm-1.736-1.834c.448.476 1.027.714 1.736.714.709 0 1.293-.238 1.75-.714.457-.476.686-1.087.686-1.834 0-.7-.229-1.269-.686-1.708-.448-.448-1.022-.672-1.722-.672-.719 0-1.307.229-1.764.686-.448.448-.672 1.013-.672 1.694 0 .747.224 1.358.672 1.834Zm8.204 1.694h-1.078v-7h1.204v5.138l3.948-5.138h1.064v7h-1.19v-5.138L269.415 236Zm8.756 0v-5.894h-2.226V229h5.754v1.106h-2.324V236h-1.204Zm7.681.14c-1.017 0-1.862-.345-2.534-1.036-.662-.691-.994-1.559-.994-2.604 0-1.055.322-1.923.966-2.604.654-.691 1.517-1.036 2.59-1.036 1.083 0 1.932.383 2.548 1.148.616.765.887 1.703.812 2.814h-5.698c.019.635.252 1.167.7 1.596.448.42.99.63 1.624.63.952 0 1.629-.392 2.03-1.176h1.232c-.177.653-.555 1.195-1.134 1.624-.578.429-1.292.644-2.142.644Zm1.372-5.712c-.382-.336-.844-.504-1.386-.504-.541 0-1.026.163-1.456.49-.42.327-.681.812-.784 1.456h4.368c-.112-.635-.359-1.115-.742-1.442Zm3.475 5.67c-.317 0-.527-.014-.63-.042v-1.078c.066.019.215.028.448.028.29 0 .504-.098.644-.294.14-.205.21-.565.21-1.078V229h5.404v7h-1.204v-5.894h-2.996v3.78c0 .719-.172 1.269-.518 1.652-.345.373-.798.56-1.358.56Zm11.341.042c-1.018 0-1.862-.345-2.534-1.036-.663-.691-.994-1.559-.994-2.604 0-1.055.322-1.923.966-2.604.653-.691 1.516-1.036 2.59-1.036 1.082 0 1.932.383 2.548 1.148.616.765.886 1.703.812 2.814h-5.698c.018.635.252 1.167.7 1.596.448.42.989.63 1.624.63.952 0 1.628-.392 2.03-1.176h1.232c-.178.653-.556 1.195-1.134 1.624-.579.429-1.293.644-2.142.644Zm1.372-5.712c-.383-.336-.845-.504-1.386-.504-.542 0-1.027.163-1.456.49-.42.327-.682.812-.784 1.456h4.368c-.112-.635-.36-1.115-.742-1.442Zm4.831 5.572h-1.078v-7h1.204v5.138l3.948-5.138h1.064v7h-1.19v-5.138L308.243 236Zm3.724-8.708c-.42.411-.947.616-1.582.616-.634 0-1.166-.205-1.596-.616-.42-.411-.63-.947-.63-1.61v-.182h.952v.182c0 .448.117.798.35 1.05.243.243.551.364.924.364.374 0 .677-.121.91-.364.243-.252.364-.602.364-1.05v-.182h.952v.182c0 .663-.214 1.199-.644 1.61ZM9.212 254H8.134v-7h1.204v5.138L13.286 247h1.064v7h-1.19v-5.138L9.212 254Zm13.91.14c-1.054 0-1.931-.35-2.631-1.05-.69-.709-1.036-1.573-1.036-2.59s.345-1.876 1.036-2.576c.7-.709 1.577-1.064 2.632-1.064 1.045 0 1.913.355 2.604 1.064.7.7 1.05 1.559 1.05 2.576 0 1.017-.35 1.881-1.05 2.59-.69.7-1.559 1.05-2.604 1.05Zm-1.763-1.848c.457.485 1.045.728 1.764.728.718 0 1.302-.243 1.75-.728.448-.485.672-1.083.672-1.792 0-.709-.224-1.307-.672-1.792-.448-.485-1.032-.728-1.75-.728-.719 0-1.307.243-1.764.728-.448.485-.672 1.083-.672 1.792 0 .709.224 1.307.672 1.792ZM28.505 254v-7h6.076v7h-1.204v-5.894H29.71V254h-1.204Zm9.67 0v-5.894h-2.226V247h5.754v1.106h-2.324V254h-1.204Zm5.982 0H43.08v-7h1.204v5.138L48.231 247h1.064v7h-1.19v-5.138L44.157 254Zm7.426-7h1.106l2.59 3.444L57.883 247h1.106v7h-1.204v-5.054l-2.506 3.304-2.492-3.304V254h-1.204v-7Zm10.758 7h-1.078v-7h1.204v5.138L66.415 247h1.064v7h-1.19v-5.138L62.34 254Zm9.652.14c-.719 0-1.349-.177-1.89-.532a2.273 2.273 0 0 1-.994-1.498h1.218c.233.672.788 1.008 1.666 1.008.513 0 .9-.107 1.162-.322.261-.215.392-.495.392-.84s-.13-.616-.392-.812c-.252-.196-.616-.294-1.092-.294h-.812v-.98h.812c.382 0 .686-.084.91-.252.233-.168.35-.415.35-.742a.867.867 0 0 0-.364-.742c-.243-.177-.57-.266-.98-.266-.812 0-1.32.327-1.526.98h-1.19c.13-.644.448-1.134.952-1.47.504-.345 1.096-.518 1.778-.518.784 0 1.395.187 1.834.56.439.364.658.826.658 1.386 0 .681-.29 1.19-.868 1.526.765.345 1.148.919 1.148 1.722 0 .588-.243 1.083-.728 1.484-.486.401-1.167.602-2.044.602Zm5.633-.14h-1.078v-7h1.204v5.138L81.7 247h1.064v7h-1.19v-5.138L77.626 254Zm8.63 2.926h-1.204V247h1.204v1.078c.243-.355.583-.644 1.022-.868a3.08 3.08 0 0 1 1.442-.35c.97 0 1.783.355 2.436 1.064.663.709.994 1.568.994 2.576s-.331 1.867-.994 2.576c-.653.709-1.465 1.064-2.436 1.064a3.18 3.18 0 0 1-1.442-.336c-.439-.233-.78-.527-1.022-.882v4.004Zm.574-4.62c.448.485 1.017.728 1.708.728.69 0 1.26-.243 1.708-.728.448-.485.672-1.087.672-1.806 0-.719-.224-1.321-.672-1.806-.448-.485-1.017-.728-1.708-.728-.69 0-1.26.243-1.708.728-.448.485-.672 1.087-.672 1.806 0 .719.224 1.321.672 1.806Zm10.162 1.834c-1.055 0-1.932-.35-2.632-1.05-.69-.709-1.036-1.573-1.036-2.59s.345-1.876 1.036-2.576c.7-.709 1.577-1.064 2.632-1.064 1.045 0 1.913.355 2.604 1.064.7.7 1.05 1.559 1.05 2.576 0 1.017-.35 1.881-1.05 2.59-.69.7-1.559 1.05-2.604 1.05Zm-1.764-1.848c.457.485 1.045.728 1.764.728.719 0 1.302-.243 1.75-.728.448-.485.672-1.083.672-1.792 0-.709-.224-1.307-.672-1.792-.448-.485-1.031-.728-1.75-.728-.719 0-1.307.243-1.764.728-.448.485-.672 1.083-.672 1.792 0 .709.224 1.307.672 1.792Zm7.146 1.708v-7h3.052c.775 0 1.368.173 1.778.518.411.345.616.807.616 1.386 0 .551-.228 1.003-.686 1.358.766.373 1.148.943 1.148 1.708 0 .588-.21 1.073-.63 1.456-.42.383-1.05.574-1.89.574h-3.388Zm1.204-1.05h2.254c.374 0 .668-.093.882-.28.224-.187.336-.443.336-.77s-.112-.579-.336-.756c-.214-.187-.508-.28-.882-.28h-2.254v2.086Zm0-3.052h1.946c.719 0 1.078-.313 1.078-.938 0-.327-.102-.56-.308-.7-.205-.149-.462-.224-.77-.224h-1.946v1.862Zm9.309 4.242c-.971 0-1.787-.355-2.45-1.064-.653-.709-.98-1.568-.98-2.576s.327-1.867.98-2.576c.663-.709 1.479-1.064 2.45-1.064a3 3 0 0 1 1.428.35c.448.224.793.513 1.036.868V247h1.204v7h-1.204v-1.078c-.243.355-.588.649-1.036.882a3.096 3.096 0 0 1-1.428.336Zm.182-1.106c.691 0 1.26-.243 1.708-.728.448-.485.672-1.087.672-1.806 0-.719-.224-1.321-.672-1.806-.448-.485-1.017-.728-1.708-.728-.7 0-1.274.243-1.722.728-.448.485-.672 1.087-.672 1.806 0 .719.224 1.321.672 1.806.448.485 1.022.728 1.722.728Zm7.083.966v-5.894h-2.226V247h5.754v1.106h-2.324V254h-1.204Zm4.904 0v-7h1.204v2.52h1.624c.84 0 1.475.219 1.904.658.439.439.658.961.658 1.568 0 .616-.219 1.148-.658 1.596-.439.439-1.078.658-1.918.658h-2.814Zm1.204-3.388v2.296h1.568c.448 0 .793-.103 1.036-.308.252-.205.378-.49.378-.854s-.121-.644-.364-.84c-.243-.196-.588-.294-1.036-.294h-1.582Zm12.15 3.528c-1.101 0-1.983-.364-2.646-1.092-.653-.728-.98-1.685-.98-2.87v-.714c0-1.717.308-3.001.924-3.85.616-.859 1.624-1.423 3.024-1.694l2.604-.476v1.148l-2.338.434c-.999.177-1.722.513-2.17 1.008-.439.495-.714 1.223-.826 2.184.607-.812 1.465-1.218 2.576-1.218 1.055 0 1.899.336 2.534 1.008.644.672.966 1.493.966 2.464 0 1.027-.35 1.895-1.05 2.604-.691.709-1.563 1.064-2.618 1.064Zm-1.736-1.834c.448.476 1.027.714 1.736.714.709 0 1.293-.238 1.75-.714.457-.476.686-1.087.686-1.834 0-.7-.229-1.269-.686-1.708-.448-.448-1.022-.672-1.722-.672-.719 0-1.307.229-1.764.686-.448.448-.672 1.013-.672 1.694 0 .747.224 1.358.672 1.834Zm8.204 1.694H143.8v-7h1.204v5.138l3.948-5.138h1.064v7h-1.19v-5.138L144.878 254Zm9.652.14c-.719 0-1.349-.177-1.89-.532-.532-.355-.863-.854-.994-1.498h1.218c.233.672.789 1.008 1.666 1.008.513 0 .901-.107 1.162-.322.261-.215.392-.495.392-.84s-.131-.616-.392-.812c-.252-.196-.616-.294-1.092-.294h-.812v-.98h.812c.383 0 .686-.084.91-.252.233-.168.35-.415.35-.742 0-.317-.121-.565-.364-.742-.243-.177-.569-.266-.98-.266-.812 0-1.321.327-1.526.98h-1.19c.131-.644.448-1.134.952-1.47.504-.345 1.097-.518 1.778-.518.784 0 1.395.187 1.834.56.439.364.658.826.658 1.386 0 .681-.289 1.19-.868 1.526.765.345 1.148.919 1.148 1.722 0 .588-.243 1.083-.728 1.484s-1.167.602-2.044.602Zm4.555-.14v-7h1.204v2.884h3.822V247h1.204v7h-1.204v-3.024h-3.822V254h-1.204Zm11.486.14c-1.017 0-1.862-.345-2.534-1.036-.663-.691-.994-1.559-.994-2.604 0-1.055.322-1.923.966-2.604.653-.691 1.517-1.036 2.59-1.036 1.083 0 1.932.383 2.548 1.148.616.765.887 1.703.812 2.814h-5.698c.019.635.252 1.167.7 1.596.448.42.989.63 1.624.63.952 0 1.629-.392 2.03-1.176h1.232c-.177.653-.555 1.195-1.134 1.624-.579.429-1.293.644-2.142.644Zm1.372-5.712c-.383-.336-.845-.504-1.386-.504a2.34 2.34 0 0 0-1.456.49c-.42.327-.681.812-.784 1.456h4.368c-.112-.635-.359-1.115-.742-1.442Zm6.862 5.712c-1.055 0-1.928-.35-2.618-1.05-.691-.709-1.036-1.573-1.036-2.59s.345-1.876 1.036-2.576c.69-.709 1.563-1.064 2.618-1.064.868 0 1.619.243 2.254.728a3.427 3.427 0 0 1 1.274 1.876h-1.288a2.229 2.229 0 0 0-.84-1.092c-.392-.271-.859-.406-1.4-.406-.719 0-1.307.243-1.764.728-.448.485-.672 1.087-.672 1.806 0 .719.224 1.321.672 1.806.457.485 1.045.728 1.764.728.541 0 1.008-.135 1.4-.406.392-.271.672-.635.84-1.092h1.288a3.424 3.424 0 0 1-1.26 1.89c-.635.476-1.391.714-2.268.714Zm4.898-3.458v-1.204h3.57v1.204h-3.57Zm5.624 3.318v-7h6.076v7h-1.204v-5.894h-3.668V254h-1.204Zm9.544 2.926h-1.204V247h1.204v1.078c.243-.355.584-.644 1.022-.868.448-.233.929-.35 1.442-.35.971 0 1.783.355 2.436 1.064.663.709.994 1.568.994 2.576s-.331 1.867-.994 2.576c-.653.709-1.465 1.064-2.436 1.064-.513 0-.994-.112-1.442-.336-.438-.233-.779-.527-1.022-.882v4.004Zm.574-4.62c.448.485 1.018.728 1.708.728.691 0 1.26-.243 1.708-.728.448-.485.672-1.087.672-1.806 0-.719-.224-1.321-.672-1.806-.448-.485-1.017-.728-1.708-.728-.69 0-1.26.243-1.708.728-.448.485-.672 1.087-.672 1.806 0 .719.224 1.321.672 1.806Zm10.162 1.834c-1.054 0-1.932-.35-2.632-1.05-.69-.709-1.036-1.573-1.036-2.59s.346-1.876 1.036-2.576c.7-.709 1.578-1.064 2.632-1.064 1.046 0 1.914.355 2.604 1.064.7.7 1.05 1.559 1.05 2.576 0 1.017-.35 1.881-1.05 2.59-.69.7-1.558 1.05-2.604 1.05Zm-1.764-1.848c.458.485 1.046.728 1.764.728.719 0 1.302-.243 1.75-.728.448-.485.672-1.083.672-1.792 0-.709-.224-1.307-.672-1.792-.448-.485-1.031-.728-1.75-.728-.718 0-1.306.243-1.764.728-.448.485-.672 1.083-.672 1.792 0 .709.224 1.307.672 1.792Zm14.244.602v2.87h-1.134V254h-5.964v-7h1.204v5.894h3.612V247h1.204v5.894h1.078Zm4.457 1.246c-1.018 0-1.862-.345-2.534-1.036-.663-.691-.994-1.559-.994-2.604 0-1.055.322-1.923.966-2.604.653-.691 1.516-1.036 2.59-1.036 1.082 0 1.932.383 2.548 1.148.616.765.886 1.703.812 2.814h-5.698c.018.635.252 1.167.7 1.596.448.42.989.63 1.624.63.952 0 1.628-.392 2.03-1.176h1.232c-.178.653-.556 1.195-1.134 1.624-.579.429-1.293.644-2.142.644Zm1.372-5.712c-.383-.336-.845-.504-1.386-.504-.542 0-1.027.163-1.456.49-.42.327-.682.812-.784 1.456h4.368c-.112-.635-.36-1.115-.742-1.442Zm6.861 5.712c-1.055 0-1.927-.35-2.618-1.05-.691-.709-1.036-1.573-1.036-2.59s.345-1.876 1.036-2.576c.691-.709 1.563-1.064 2.618-1.064.868 0 1.619.243 2.254.728a3.422 3.422 0 0 1 1.274 1.876h-1.288a2.229 2.229 0 0 0-.84-1.092c-.392-.271-.859-.406-1.4-.406-.719 0-1.307.243-1.764.728-.448.485-.672 1.087-.672 1.806 0 .719.224 1.321.672 1.806.457.485 1.045.728 1.764.728.541 0 1.008-.135 1.4-.406.392-.271.672-.635.84-1.092h1.288a3.413 3.413 0 0 1-1.26 1.89c-.635.476-1.391.714-2.268.714Zm8.231 0c-1.055 0-1.928-.35-2.618-1.05-.691-.709-1.036-1.573-1.036-2.59s.345-1.876 1.036-2.576c.69-.709 1.563-1.064 2.618-1.064.868 0 1.619.243 2.254.728a3.427 3.427 0 0 1 1.274 1.876h-1.288a2.229 2.229 0 0 0-.84-1.092c-.392-.271-.859-.406-1.4-.406-.719 0-1.307.243-1.764.728-.448.485-.672 1.087-.672 1.806 0 .719.224 1.321.672 1.806.457.485 1.045.728 1.764.728.541 0 1.008-.135 1.4-.406.392-.271.672-.635.84-1.092h1.288a3.424 3.424 0 0 1-1.26 1.89c-.635.476-1.391.714-2.268.714Zm11.59-.14v-7h1.204v7h-1.204Zm-6.468 0v-7h1.204v2.52h1.624c.84 0 1.475.219 1.904.658.439.439.658.961.658 1.568 0 .616-.219 1.148-.658 1.596-.439.439-1.078.658-1.918.658h-2.814Zm1.204-3.388v2.296h1.568c.448 0 .793-.103 1.036-.308.252-.205.378-.49.378-.854s-.121-.644-.364-.84c-.243-.196-.588-.294-1.036-.294h-1.582Z" fill="#fff"/></svg>