<svg width="1678" height="403" fill="none" xmlns="http://www.w3.org/2000/svg"><mask id="a" maskUnits="userSpaceOnUse" x="468" y="11" width="562" height="316" fill="#000"><path fill="#fff" d="M468 11h562v316H468z"/><path d="M552.8 169.3c0-9.333 3.267-17.267 9.8-23.8 6.533-6.533 14.467-9.8 23.8-9.8h347.9c7 0 13.067-2.567 18.2-7.7 5.133-5.133 7.7-11.433 7.7-18.9 0-7-2.567-12.833-7.7-17.5-5.133-5.133-11.2-7.7-18.2-7.7H506.6c-9.333 0-17.267-3.267-23.8-9.8-6.533-6.533-9.8-14.467-9.8-23.8s3.267-17.267 9.8-23.8c6.533-6.533 14.467-9.8 23.8-9.8h424.2c13.067 0 25.2 2.333 36.4 7 11.667 4.667 21.7 11.2 30.1 19.6 8.4 8.4 14.93 18.2 19.6 29.4 5.13 11.2 7.7 23.333 7.7 36.4 0 11.667-2.1 22.633-6.3 32.9-3.73 10.267-9.1 19.367-16.1 27.3 14.93 17.733 22.4 37.8 22.4 60.2 0 13.067-2.57 25.2-7.7 36.4-4.67 11.2-11.2 21-19.6 29.4-8.4 8.4-18.433 14.933-30.1 19.6-11.2 4.667-23.333 7-36.4 7H506.6c-9.333 0-17.267-3.267-23.8-9.8-6.533-6.533-9.8-14.467-9.8-23.8s3.267-17.267 9.8-23.8c6.533-6.533 14.467-9.8 23.8-9.8h427.7c7 0 13.067-2.333 18.2-7 5.133-5.133 7.7-11.2 7.7-18.2 0-7.467-2.567-13.767-7.7-18.9-5.133-5.133-11.2-7.7-18.2-7.7H586.4c-9.333 0-17.267-3.267-23.8-9.8-6.533-6.533-9.8-14.467-9.8-23.8Z"/></mask><path d="m952.5 128-3.536-3.536L952.5 128Zm0-36.4-3.536 3.535.085.085.088.08 3.363-3.7ZM482.8 74.1l3.536-3.535L482.8 74.1Zm0-47.6-3.536-3.536L482.8 26.5Zm484.4-2.8-1.923 4.615.033.014.033.013L967.2 23.7Zm49.7 49-4.62 1.923.04.08.03.08 4.55-2.083Zm1.4 69.3-4.63-1.893-.04.091-.03.093 4.7 1.709Zm-16.1 27.3-3.749-3.308-2.852 3.232 2.776 3.297 3.825-3.221Zm14.7 96.6-4.55-2.083-.03.079-.04.081 4.62 1.923Zm-19.6 29.4-3.536-3.536 3.536 3.536Zm-30.1 19.6-1.857-4.642-.033.013-.033.014 1.923 4.615Zm-484.4-2.8 3.536-3.536-3.536 3.536Zm0-47.6 3.536 3.536-3.536-3.536Zm469.7-16.8 3.363 3.7.088-.08.085-.084-3.536-3.536Zm0-37.1-3.536 3.535v.001l3.536-3.536Zm-389.9-17.5-3.536 3.536 3.536-3.536Zm-4.8-23.8c0-8.022 2.751-14.679 8.336-20.264l-7.072-7.072c-7.481 7.482-11.264 16.692-11.264 27.336h10Zm8.336-20.264c5.585-5.585 12.242-8.336 20.264-8.336v-10c-10.644 0-19.854 3.783-27.336 11.264l7.072 7.072ZM586.4 140.7h347.9v-10H586.4v10Zm347.9 0c8.38 0 15.703-3.132 21.736-9.164l-7.072-7.072c-4.234 4.235-9.044 6.236-14.664 6.236v10Zm21.736-9.164c6.1-6.101 9.164-13.686 9.164-22.436h-10c0 6.183-2.069 11.198-6.236 15.364l7.072 7.072ZM965.2 109.1c0-8.394-3.15-15.576-9.337-21.2l-6.726 7.4c4.08 3.709 6.063 8.194 6.063 13.8h10Zm-9.164-21.035C950.003 82.031 942.68 78.9 934.3 78.9v10c5.62 0 10.43 2.001 14.664 6.235l7.072-7.07ZM934.3 78.9H506.6v10h427.7v-10Zm-427.7 0c-8.022 0-14.679-2.75-20.264-8.336l-7.072 7.072c7.482 7.48 16.692 11.264 27.336 11.264v-10Zm-20.264-8.336C480.751 64.98 478 58.322 478 50.3h-10c0 10.644 3.783 19.854 11.264 27.335l7.072-7.07ZM478 50.3c0-8.022 2.751-14.68 8.336-20.264l-7.072-7.072C471.783 30.446 468 39.656 468 50.3h10Zm8.336-20.264c5.585-5.585 12.242-8.336 20.264-8.336v-10c-10.644 0-19.854 3.783-27.336 11.264l7.072 7.072ZM506.6 21.7h424.2v-10H506.6v10Zm424.2 0c12.458 0 23.932 2.222 34.477 6.615l3.846-9.23c-11.855-4.94-24.647-7.385-38.323-7.385v10Zm34.543 6.642c11.075 4.43 20.528 10.6 28.421 18.494l7.076-7.072c-8.911-8.906-19.525-15.803-31.783-20.706l-3.714 9.284Zm28.421 18.494c7.926 7.928 14.096 17.177 18.516 27.787l9.24-3.846c-4.92-11.79-11.81-22.14-20.68-31.013l-7.076 7.072Zm18.586 27.947c4.82 10.507 7.25 21.925 7.25 34.317h10c0-13.741-2.7-26.59-8.15-38.483l-9.1 4.166Zm7.25 34.317c0 11.052-1.99 21.372-5.93 31.007l9.26 3.786c4.46-10.898 6.67-22.511 6.67-34.793h-10Zm-6 31.191c-3.53 9.699-8.58 18.252-15.149 25.701l7.499 6.616c7.43-8.418 13.11-18.064 17.05-28.899l-9.4-3.418Zm-15.225 32.23c14.205 16.866 21.225 35.802 21.225 56.979h10c0-23.623-7.91-44.82-23.58-63.421l-7.645 6.442ZM1019.6 229.5c0 12.392-2.43 23.81-7.25 34.317l9.1 4.166c5.45-11.893 8.15-24.742 8.15-38.483h-10Zm-7.32 34.477c-4.42 10.61-10.59 19.859-18.516 27.787l7.076 7.072c8.87-8.872 15.76-19.223 20.68-31.013l-9.24-3.846Zm-18.516 27.787c-7.893 7.894-17.346 14.064-28.421 18.494l3.714 9.284c12.258-4.903 22.872-11.8 31.783-20.706l-7.076-7.072Zm-28.487 18.521c-10.545 4.393-22.019 6.615-34.477 6.615v10c13.676 0 26.468-2.445 38.323-7.385l-3.846-9.23ZM930.8 316.9H506.6v10h424.2v-10Zm-424.2 0c-8.022 0-14.679-2.751-20.264-8.336l-7.072 7.072c7.482 7.481 16.692 11.264 27.336 11.264v-10Zm-20.264-8.336C480.751 302.979 478 296.322 478 288.3h-10c0 10.644 3.783 19.854 11.264 27.336l7.072-7.072ZM478 288.3c0-8.022 2.751-14.679 8.336-20.264l-7.072-7.072C471.783 268.446 468 277.656 468 288.3h10Zm8.336-20.264c5.585-5.585 12.242-8.336 20.264-8.336v-10c-10.644 0-19.854 3.783-27.336 11.264l7.072 7.072ZM506.6 259.7h427.7v-10H506.6v10Zm427.7 0c8.231 0 15.501-2.789 21.563-8.3l-6.726-7.4c-4.204 3.822-9.068 5.7-14.837 5.7v10Zm21.736-8.464c6.032-6.033 9.164-13.356 9.164-21.736h-10c0 5.62-2.001 10.43-6.236 14.664l7.072 7.072ZM965.2 229.5c0-8.75-3.064-16.335-9.164-22.436l-7.072 7.072c4.167 4.166 6.236 9.181 6.236 15.364h10Zm-9.164-22.436c-6.033-6.032-13.356-9.164-21.736-9.164v10c5.62 0 10.43 2.001 14.664 6.235l7.072-7.071ZM934.3 197.9H586.4v10h347.9v-10Zm-347.9 0c-8.022 0-14.679-2.751-20.264-8.336l-7.072 7.072c7.482 7.481 16.692 11.264 27.336 11.264v-10Zm-20.264-8.336c-5.585-5.585-8.336-12.242-8.336-20.264h-10c0 10.644 3.783 19.854 11.264 27.336l7.072-7.072Z" fill="#29FF7F" fill-opacity=".1" mask="url(#a)"/><path d="M196.523 98.11c0 1.2-.42 2.22-1.26 3.06-.84.84-1.86 1.26-3.06 1.26s-2.22-.42-3.06-1.26c-.84-.84-1.26-1.86-1.26-3.06V87.13h-53.19v10.98c0 1.2-.42 2.22-1.26 3.06-.84.84-1.86 1.26-3.06 1.26s-2.22-.42-3.06-1.26c-.84-.84-1.26-1.86-1.26-3.06v-30.6c0-1.2.42-2.22 1.26-3.06.84-.84 1.86-1.26 3.06-1.26s2.22.42 3.06 1.26c.84.84 1.26 1.86 1.26 3.06v10.98h53.19V67.51c0-1.2.42-2.22 1.26-3.06.84-.84 1.86-1.26 3.06-1.26s2.22.42 3.06 1.26c.84.84 1.26 1.86 1.26 3.06v30.6Zm28.423-12.96h25.56l-9.27-12.42c-.42-.48-.96-.99-1.62-1.53-.6-.6-1.23-.9-1.89-.9-.66 0-1.32.3-1.98.9-.6.54-1.08 1.05-1.44 1.53l-9.36 12.42Zm32.04 8.64h-38.61l-5.22 7.02c-.9 1.08-2.01 1.62-3.33 1.62-1.2 0-2.22-.42-3.06-1.26-.84-.84-1.26-1.86-1.26-3.06 0-1.08.3-1.95.9-2.61l21.87-29.43c1.02-1.38 2.37-2.49 4.05-3.33 1.68-.9 3.48-1.35 5.4-1.35 1.8 0 3.51.39 5.13 1.17 1.62.78 2.94 1.86 3.96 3.24l21.87 29.25c.36.42.66.9.9 1.44.24.48.36 1.02.36 1.62 0 1.2-.42 2.22-1.26 3.06-.84.84-1.86 1.26-3.06 1.26-1.44 0-2.58-.57-3.42-1.71l-5.22-6.93Zm88.236-30.6c1.2 0 2.22.42 3.06 1.26.84.84 1.26 1.86 1.26 3.06 0 1.14-.39 2.13-1.17 2.97-.78.78-1.71 1.23-2.79 1.35h-18.09c-1.8.12-3.3.57-4.5 1.35-1.14.72-2.04 1.62-2.7 2.7a10.41 10.41 0 0 0-1.35 3.51c-.24 1.26-.36 2.4-.36 3.42v15.3c0 1.2-.42 2.22-1.26 3.06-.84.84-1.86 1.26-3.06 1.26s-2.22-.42-3.06-1.26c-.84-.84-1.26-1.86-1.26-3.06v-15.3c0-1.86.24-3.72.72-5.58.48-1.92 1.2-3.72 2.16-5.4h-29.52c-1.2 0-2.22-.42-3.06-1.26-.84-.84-1.26-1.86-1.26-3.06s.42-2.22 1.26-3.06c.84-.84 1.86-1.26 3.06-1.26h61.92Zm21.941 22.05c0 2.16.12 3.81.36 4.95.24 1.14.81 1.71 1.71 1.71.48 0 1.08-.18 1.8-.54.78-.42 1.74-.96 2.88-1.62l41.22-25.2c.66-.42 1.38-.75 2.16-.99.84-.24 1.68-.36 2.52-.36 2.46 0 4.5.84 6.12 2.52 1.68 1.68 2.52 3.75 2.52 6.21v26.19c0 1.2-.42 2.22-1.26 3.06-.84.84-1.86 1.26-3.06 1.26s-2.22-.42-3.06-1.26c-.84-.84-1.26-1.86-1.26-3.06V80.38c0-2.16-.12-3.81-.36-4.95-.24-1.14-.81-1.71-1.71-1.71-.48 0-1.11.21-1.89.63-.72.36-1.65.87-2.79 1.53l-41.22 25.2c-.66.42-1.41.75-2.25.99-.78.24-1.59.36-2.43.36-2.46 0-4.53-.84-6.21-2.52-1.62-1.68-2.43-3.75-2.43-6.21V67.51c0-1.2.42-2.22 1.26-3.06.84-.84 1.86-1.26 3.06-1.26s2.22.42 3.06 1.26c.84.84 1.26 1.86 1.26 3.06v17.73Zm78.926 8.55h49.95c.9 0 1.68-.33 2.34-.99.72-.66 1.08-1.44 1.08-2.34 0-.96-.36-1.74-1.08-2.34-.66-.66-1.44-.99-2.34-.99h-49.95v6.66Zm0-21.96v6.66h50.04c.9 0 1.68-.3 2.34-.9.66-.6.99-1.38.99-2.34 0-.9-.36-1.68-1.08-2.34-.66-.72-1.44-1.08-2.34-1.08h-49.95Zm-4.32 30.6c-1.2 0-2.22-.42-3.06-1.26-.84-.84-1.26-1.86-1.26-3.06v-30.6c0-1.2.42-2.22 1.26-3.06.84-.84 1.86-1.26 3.06-1.26h53.91c1.68 0 3.24.33 4.68.99 1.5.6 2.79 1.44 3.87 2.52 1.14 1.08 2.01 2.37 2.61 3.87.66 1.44.99 3 .99 4.68 0 1.5-.27 2.91-.81 4.23-.48 1.26-1.14 2.4-1.98 3.42.84 1.02 1.5 2.19 1.98 3.51.54 1.26.81 2.61.81 4.05 0 1.68-.33 3.24-.99 4.68-.6 1.44-1.47 2.7-2.61 3.78-1.08 1.08-2.37 1.95-3.87 2.61-1.44.6-3 .9-4.68.9h-53.91Zm145.515-4.32c0 1.2-.42 2.22-1.26 3.06-.84.84-1.86 1.26-3.06 1.26s-2.22-.42-3.06-1.26c-.84-.84-1.26-1.86-1.26-3.06V87.13h-53.19v10.98c0 1.2-.42 2.22-1.26 3.06-.84.84-1.86 1.26-3.06 1.26s-2.22-.42-3.06-1.26c-.84-.84-1.26-1.86-1.26-3.06v-30.6c0-1.2.42-2.22 1.26-3.06.84-.84 1.86-1.26 3.06-1.26s2.22.42 3.06 1.26c.84.84 1.26 1.86 1.26 3.06v10.98h53.19V67.51c0-1.2.42-2.22 1.26-3.06.84-.84 1.86-1.26 3.06-1.26s2.22.42 3.06 1.26c.84.84 1.26 1.86 1.26 3.06v30.6Zm28.424-12.96h25.56l-9.27-12.42c-.42-.48-.96-.99-1.62-1.53-.6-.6-1.23-.9-1.89-.9-.66 0-1.32.3-1.98.9-.6.54-1.08 1.05-1.44 1.53l-9.36 12.42Zm32.04 8.64h-38.61l-5.22 7.02c-.9 1.08-2.01 1.62-3.33 1.62-1.2 0-2.22-.42-3.06-1.26-.84-.84-1.26-1.86-1.26-3.06 0-1.08.3-1.95.9-2.61l21.87-29.43c1.02-1.38 2.37-2.49 4.05-3.33 1.68-.9 3.48-1.35 5.4-1.35 1.8 0 3.51.39 5.13 1.17 1.62.78 2.94 1.86 3.96 3.24l21.87 29.25c.36.42.66.9.9 1.44.24.48.36 1.02.36 1.62 0 1.2-.42 2.22-1.26 3.06-.84.84-1.86 1.26-3.06 1.26-1.44 0-2.58-.57-3.42-1.71l-5.22-6.93Zm21.996 4.32c0-.84.3-1.65.9-2.43 2.16-3.18 4.59-5.85 7.29-8.01 2.76-2.22 5.85-3.99 9.27-5.31 3.48-1.38 7.35-2.37 11.61-2.97 4.26-.6 9.03-.9 14.31-.9h18.36v-4.68c-.12-.54-.42-.99-.9-1.35-.48-.42-1.11-.63-1.89-.63h-47.16c-.84.12-1.59.48-2.25 1.08-.6.6-.9 1.35-.9 2.25 0 1.2-.42 2.22-1.26 3.06-.84.84-1.86 1.26-3.06 1.26s-2.22-.42-3.06-1.26c-.84-.84-1.26-1.86-1.26-3.06 0-1.68.33-3.24.99-4.68.66-1.44 1.56-2.7 2.7-3.78 1.14-1.08 2.46-1.92 3.96-2.52 1.5-.66 3.09-.99 4.77-.99h46.98c1.32 0 2.64.3 3.96.9 1.32.54 2.49 1.32 3.51 2.34 1.02 1.02 1.86 2.25 2.52 3.69.66 1.44.99 3.06.99 4.86v23.13c0 1.2-.42 2.22-1.26 3.06-.84.84-1.86 1.26-3.06 1.26-1.14 0-2.16-.42-3.06-1.26-.84-.84-1.26-1.86-1.26-3.06V87.13h-18.36c-3.66 0-7.11.12-10.35.36-3.18.18-6.21.72-9.09 1.62-2.88.9-5.64 2.22-8.28 3.96-2.58 1.74-5.1 4.14-7.56 7.2-.18.24-.45.54-.81.9-.42.36-.87.66-1.35.9-.48.24-1.02.36-1.62.36-1.2 0-2.22-.42-3.06-1.26-.84-.84-1.26-1.86-1.26-3.06Zm128.523-26.28v6.66h49.95c.9 0 1.68-.3 2.34-.9.72-.66 1.08-1.47 1.08-2.43 0-.9-.36-1.68-1.08-2.34-.66-.66-1.44-.99-2.34-.99h-49.95Zm49.59-8.64c1.68 0 3.24.33 4.68.99 1.5.6 2.79 1.44 3.87 2.52a10.96 10.96 0 0 1 2.61 3.78c.66 1.44.99 3 .99 4.68 0 1.68-.33 3.24-.99 4.68-.6 1.44-1.47 2.7-2.61 3.78-1.08 1.08-2.37 1.95-3.87 2.61-1.44.6-3 .9-4.68.9h-49.59v10.98c0 1.2-.45 2.22-1.35 3.06-.84.84-1.83 1.26-2.97 1.26-1.2 0-2.22-.42-3.06-1.26-.84-.84-1.26-1.86-1.26-3.06v-30.6c0-1.2.42-2.22 1.26-3.06.84-.84 1.86-1.26 3.06-1.26h53.91Zm40.575 21.96h25.56l-9.27-12.42c-.42-.48-.96-.99-1.62-1.53-.6-.6-1.23-.9-1.89-.9-.66 0-1.32.3-1.98.9-.6.54-1.08 1.05-1.44 1.53l-9.36 12.42Zm32.04 8.64h-38.61l-5.22 7.02c-.9 1.08-2.01 1.62-3.33 1.62-1.2 0-2.22-.42-3.06-1.26-.84-.84-1.26-1.86-1.26-3.06 0-1.08.3-1.95.9-2.61l21.87-29.43c1.02-1.38 2.37-2.49 4.05-3.33 1.68-.9 3.48-1.35 5.4-1.35 1.8 0 3.51.39 5.13 1.17 1.62.78 2.94 1.86 3.96 3.24l21.87 29.25c.36.42.66.9.9 1.44.24.48.36 1.02.36 1.62 0 1.2-.42 2.22-1.26 3.06-.84.84-1.86 1.26-3.06 1.26-1.44 0-2.58-.57-3.42-1.71l-5.22-6.93Zm32.257-10.98c0-1.2.42-2.22 1.26-3.06.84-.84 1.86-1.26 3.06-1.26h44.731c.9 0 1.68-.33 2.34-.99.66-.66.99-1.47.99-2.43 0-.9-.33-1.65-.99-2.25-.66-.66-1.44-.99-2.34-.99h-54.991c-1.2 0-2.22-.42-3.06-1.26-.84-.84-1.26-1.86-1.26-3.06s.42-2.22 1.26-3.06c.84-.84 1.86-1.26 3.06-1.26h54.541c1.68 0 3.24.3 4.68.9 1.5.6 2.79 1.44 3.87 2.52s1.92 2.34 2.52 3.78c.66 1.44.99 3 .99 4.68 0 1.5-.27 2.91-.81 4.23a10.86 10.86 0 0 1-2.07 3.51c1.92 2.28 2.88 4.86 2.88 7.74 0 1.68-.33 3.24-.99 4.68-.6 1.44-1.44 2.7-2.52 3.78-1.08 1.08-2.37 1.92-3.87 2.52-1.44.6-3 .9-4.68.9h-54.541c-1.2 0-2.22-.42-3.06-1.26-.84-.84-1.26-1.86-1.26-3.06s.42-2.22 1.26-3.06c.84-.84 1.86-1.26 3.06-1.26h54.991c.9 0 1.68-.3 2.34-.9.66-.66.99-1.44.99-2.34 0-.96-.33-1.77-.99-2.43-.66-.66-1.44-.99-2.34-.99h-44.731c-1.2 0-2.22-.42-3.06-1.26-.84-.84-1.26-1.86-1.26-3.06ZM1031 71.83v6.66h49.95c.9 0 1.68-.3 2.34-.9.72-.66 1.08-1.47 1.08-2.43 0-.9-.36-1.68-1.08-2.34-.66-.66-1.44-.99-2.34-.99H1031Zm49.59-8.64c1.68 0 3.24.33 4.68.99 1.5.6 2.79 1.44 3.87 2.52a10.96 10.96 0 0 1 2.61 3.78c.66 1.44.99 3 .99 4.68 0 1.68-.33 3.24-.99 4.68-.6 1.44-1.47 2.7-2.61 3.78-1.08 1.08-2.37 1.95-3.87 2.61-1.44.6-3 .9-4.68.9H1031v10.98c0 1.2-.45 2.22-1.35 3.06-.84.84-1.83 1.26-2.97 1.26-1.2 0-2.22-.42-3.06-1.26-.84-.84-1.26-1.86-1.26-3.06v-30.6c0-1.2.42-2.22 1.26-3.06.84-.84 1.86-1.26 3.06-1.26h53.91Zm40.58 21.96h25.56l-9.27-12.42c-.42-.48-.96-.99-1.62-1.53-.6-.6-1.23-.9-1.89-.9-.66 0-1.32.3-1.98.9-.6.54-1.08 1.05-1.44 1.53l-9.36 12.42Zm32.04 8.64h-38.61l-5.22 7.02c-.9 1.08-2.01 1.62-3.33 1.62-1.2 0-2.22-.42-3.06-1.26-.84-.84-1.26-1.86-1.26-3.06 0-1.08.3-1.95.9-2.61l21.87-29.43c1.02-1.38 2.37-2.49 4.05-3.33 1.68-.9 3.48-1.35 5.4-1.35 1.8 0 3.51.39 5.13 1.17 1.62.78 2.94 1.86 3.96 3.24l21.87 29.25c.36.42.66.9.9 1.44.24.48.36 1.02.36 1.62 0 1.2-.42 2.22-1.26 3.06-.84.84-1.86 1.26-3.06 1.26-1.44 0-2.58-.57-3.42-1.71l-5.22-6.93Zm30.63-6.84v6.84h49.95c.9 0 1.68-.33 2.34-.99.72-.66 1.08-1.44 1.08-2.34 0-.96-.36-1.74-1.08-2.34-.66-.66-1.44-.99-2.34-.99H1186c-.78 0-1.5-.06-2.16-.18Zm-8.64-19.44c0-1.2.42-2.22 1.26-3.06.84-.84 1.86-1.26 3.06-1.26.3 0 .6.03.9.09h57.15c1.2 0 2.22.42 3.06 1.26.84.84 1.26 1.86 1.26 3.06s-.42 2.22-1.26 3.06c-.84.84-1.86 1.26-3.06 1.26h-53.73v3.24c0 .9.27 1.65.81 2.25.54.6 1.2.96 1.98 1.08h46.8c1.68 0 3.24.33 4.68.99 1.5.6 2.79 1.44 3.87 2.52a10.96 10.96 0 0 1 2.61 3.78c.66 1.44.99 3 .99 4.68 0 1.68-.33 3.24-.99 4.68-.6 1.44-1.47 2.7-2.61 3.78-1.08 1.08-2.37 1.95-3.87 2.61-1.44.6-3 .9-4.68.9h-53.91c-1.2 0-2.22-.42-3.06-1.26-.84-.84-1.26-1.86-1.26-3.06 0-.36.03-.69.09-.99-.06-.3-.09-.63-.09-.99V67.51Zm134.18 26.28c2.04 0 3.72-.36 5.04-1.08 1.32-.78 2.34-1.71 3.06-2.79a8.725 8.725 0 0 0 1.53-3.51c.3-1.32.45-2.52.45-3.6s-.15-2.25-.45-3.51a8.743 8.743 0 0 0-1.53-3.6c-.72-1.08-1.74-1.98-3.06-2.7-1.32-.78-3-1.17-5.04-1.17h-36.36c-2.1 0-3.81.39-5.13 1.17-1.26.72-2.28 1.62-3.06 2.7-.72 1.08-1.23 2.28-1.53 3.6-.24 1.26-.36 2.43-.36 3.51 0 1.08.12 2.28.36 3.6.3 1.26.81 2.43 1.53 3.51.78 1.08 1.8 2.01 3.06 2.79 1.32.72 3.03 1.08 5.13 1.08h36.36Zm18.45-10.98c0 2.28-.39 4.59-1.17 6.93-.72 2.28-1.8 4.38-3.24 6.3a18.226 18.226 0 0 1-5.22 4.59c-2.04 1.2-4.35 1.8-6.93 1.8h-41.04c-2.46-.12-4.65-.78-6.57-1.98a19.32 19.32 0 0 1-4.95-4.68c-1.32-1.86-2.34-3.93-3.06-6.21-.72-2.28-1.08-4.53-1.08-6.75 0-2.28.36-4.56 1.08-6.84.78-2.34 1.89-4.44 3.33-6.3 1.44-1.92 3.18-3.48 5.22-4.68 2.04-1.2 4.35-1.8 6.93-1.8h41.04c2.46.12 4.65.81 6.57 2.07a16.87 16.87 0 0 1 4.86 4.59c1.38 1.86 2.43 3.93 3.15 6.21.72 2.28 1.08 4.53 1.08 6.75Zm75.24-19.62c1.2 0 2.22.42 3.06 1.26.84.84 1.26 1.86 1.26 3.06 0 1.14-.39 2.13-1.17 2.97-.78.78-1.71 1.23-2.79 1.35h-18.09c-1.8.12-3.3.57-4.5 1.35-1.14.72-2.04 1.62-2.7 2.7a10.41 10.41 0 0 0-1.35 3.51c-.24 1.26-.36 2.4-.36 3.42v15.3c0 1.2-.42 2.22-1.26 3.06-.84.84-1.86 1.26-3.06 1.26s-2.22-.42-3.06-1.26c-.84-.84-1.26-1.86-1.26-3.06v-15.3c0-1.86.24-3.72.72-5.58.48-1.92 1.2-3.72 2.16-5.4h-29.52c-1.2 0-2.22-.42-3.06-1.26-.84-.84-1.26-1.86-1.26-3.06s.42-2.22 1.26-3.06c.84-.84 1.86-1.26 3.06-1.26h61.92Zm21.86 15.3h20.79c3.12 0 6.18-.39 9.18-1.17 3-.84 5.91-1.92 8.73-3.24 2.88-1.32 5.61-2.82 8.19-4.5 2.64-1.68 5.16-3.39 7.56-5.13 1.02-.84 2.04-1.26 3.06-1.26 1.2 0 2.22.42 3.06 1.26.84.84 1.26 1.86 1.26 3.06 0 .84-.24 1.59-.72 2.25-.48.6-1.05 1.14-1.71 1.62-1.56 1.2-3.06 2.34-4.5 3.42a90.005 90.005 0 0 1-4.32 2.88c-1.44.9-2.94 1.77-4.5 2.61-1.5.84-3.12 1.68-4.86 2.52 1.74.84 3.36 1.68 4.86 2.52 1.56.84 3.06 1.71 4.5 2.61 1.44.9 2.88 1.89 4.32 2.97 1.44 1.02 2.94 2.13 4.5 3.33.66.48 1.23 1.05 1.71 1.71.48.6.72 1.32.72 2.16 0 1.2-.42 2.22-1.26 3.06-.84.84-1.86 1.26-3.06 1.26-1.02 0-2.04-.42-3.06-1.26-2.46-1.8-5.01-3.54-7.65-5.22a66.445 66.445 0 0 0-8.1-4.5 50.563 50.563 0 0 0-8.73-3.15c-3-.78-6.06-1.17-9.18-1.17h-20.79v10.98c0 1.2-.42 2.22-1.26 3.06-.84.84-1.83 1.26-2.97 1.26-1.2 0-2.22-.42-3.06-1.26-.84-.84-1.26-1.86-1.26-3.06v-30.6c0-1.2.42-2.22 1.26-3.06.84-.84 1.83-1.26 2.97-1.26 1.2 0 2.22.42 3.06 1.26.84.84 1.26 1.86 1.26 3.06v10.98Zm90.25 6.66h25.56l-9.27-12.42c-.42-.48-.96-.99-1.62-1.53-.6-.6-1.23-.9-1.89-.9-.66 0-1.32.3-1.98.9-.6.54-1.08 1.05-1.44 1.53l-9.36 12.42Zm32.04 8.64h-38.61l-5.22 7.02c-.9 1.08-2.01 1.62-3.33 1.62-1.2 0-2.22-.42-3.06-1.26-.84-.84-1.26-1.86-1.26-3.06 0-1.08.3-1.95.9-2.61l21.87-29.43c1.02-1.38 2.37-2.49 4.05-3.33 1.68-.9 3.48-1.35 5.4-1.35 1.8 0 3.51.39 5.13 1.17 1.62.78 2.94 1.86 3.96 3.24l21.87 29.25c.36.42.66.9.9 1.44.24.48.36 1.02.36 1.62 0 1.2-.42 2.22-1.26 3.06-.84.84-1.86 1.26-3.06 1.26-1.44 0-2.58-.57-3.42-1.71l-5.22-6.93ZM65.79 202.81c0-1.08-.15-2.25-.45-3.51a8.743 8.743 0 0 0-1.53-3.6c-.72-1.08-1.74-1.98-3.06-2.7-1.32-.78-3-1.17-5.04-1.17H23.22c-2.1 0-3.81.39-5.13 1.17-1.26.72-2.28 1.62-3.06 2.7-.72 1.08-1.23 2.28-1.53 3.6-.24 1.26-.36 2.43-.36 3.51v15.3c0 1.2-.42 2.22-1.26 3.06-.84.84-1.86 1.26-3.06 1.26s-2.22-.42-3.06-1.26c-.84-.84-1.26-1.86-1.26-3.06v-15.3c0-2.28.36-4.56 1.08-6.84.78-2.34 1.89-4.44 3.33-6.3 1.44-1.92 3.18-3.48 5.22-4.68 2.04-1.2 4.35-1.8 6.93-1.8h37.71c2.46.12 4.65.81 6.57 2.07a16.87 16.87 0 0 1 4.86 4.59c1.38 1.86 2.43 3.93 3.15 6.21.72 2.28 1.08 4.53 1.08 6.75v15.3c0 1.2-.42 2.22-1.26 3.06-.84.84-1.86 1.26-3.06 1.26s-2.22-.42-3.06-1.26c-.84-.84-1.26-1.86-1.26-3.06v-15.3Zm72.446 10.98c2.04 0 3.72-.36 5.04-1.08 1.32-.78 2.34-1.71 3.06-2.79a8.725 8.725 0 0 0 1.53-3.51c.3-1.32.45-2.52.45-3.6s-.15-2.25-.45-3.51a8.743 8.743 0 0 0-1.53-3.6c-.72-1.08-1.74-1.98-3.06-2.7-1.32-.78-3-1.17-5.04-1.17h-36.36c-2.1 0-3.81.39-5.13 1.17-1.26.72-2.28 1.62-3.06 2.7-.72 1.08-1.23 2.28-1.53 3.6-.24 1.26-.36 2.43-.36 3.51 0 1.08.12 2.28.36 3.6.3 1.26.81 2.43 1.53 3.51.78 1.08 1.8 2.01 3.06 2.79 1.32.72 3.03 1.08 5.13 1.08h36.36Zm18.45-10.98c0 2.28-.39 4.59-1.17 6.93-.72 2.28-1.8 4.38-3.24 6.3a18.226 18.226 0 0 1-5.22 4.59c-2.04 1.2-4.35 1.8-6.93 1.8h-41.04c-2.46-.12-4.65-.78-6.57-1.98a19.32 19.32 0 0 1-4.95-4.68c-1.32-1.86-2.34-3.93-3.06-6.21-.72-2.28-1.08-4.53-1.08-6.75 0-2.28.36-4.56 1.08-6.84.78-2.34 1.89-4.44 3.33-6.3 1.44-1.92 3.18-3.48 5.22-4.68 2.04-1.2 4.35-1.8 6.93-1.8h41.04c2.46.12 4.65.81 6.57 2.07a16.87 16.87 0 0 1 4.86 4.59c1.38 1.86 2.43 3.93 3.15 6.21.72 2.28 1.08 4.53 1.08 6.75Zm58.163 2.43c0 2.16.12 3.81.36 4.95.24 1.14.81 1.71 1.71 1.71.48 0 1.08-.18 1.8-.54.78-.42 1.74-.96 2.88-1.62l41.22-25.2c.66-.42 1.38-.75 2.16-.99.84-.24 1.68-.36 2.52-.36 2.46 0 4.5.84 6.12 2.52 1.68 1.68 2.52 3.75 2.52 6.21v26.19c0 1.2-.42 2.22-1.26 3.06-.84.84-1.86 1.26-3.06 1.26s-2.22-.42-3.06-1.26c-.84-.84-1.26-1.86-1.26-3.06v-17.73c0-2.16-.12-3.81-.36-4.95-.24-1.14-.81-1.71-1.71-1.71-.48 0-1.11.21-1.89.63-.72.36-1.65.87-2.79 1.53l-41.22 25.2c-.66.42-1.41.75-2.25.99-.78.24-1.59.36-2.43.36-2.46 0-4.53-.84-6.21-2.52-1.62-1.68-2.43-3.75-2.43-6.21v-26.19c0-1.2.42-2.22 1.26-3.06.84-.84 1.86-1.26 3.06-1.26s2.22.42 3.06 1.26c.84.84 1.26 1.86 1.26 3.06v17.73Zm140.756 12.87c0 1.2-.42 2.22-1.26 3.06-.84.84-1.86 1.26-3.06 1.26s-2.22-.42-3.06-1.26c-.84-.84-1.26-1.86-1.26-3.06v-10.98h-53.19v10.98c0 1.2-.42 2.22-1.26 3.06-.84.84-1.86 1.26-3.06 1.26s-2.22-.42-3.06-1.26c-.84-.84-1.26-1.86-1.26-3.06v-30.6c0-1.2.42-2.22 1.26-3.06.84-.84 1.86-1.26 3.06-1.26s2.22.42 3.06 1.26c.84.84 1.26 1.86 1.26 3.06v10.98h53.19v-10.98c0-1.2.42-2.22 1.26-3.06.84-.84 1.86-1.26 3.06-1.26s2.22.42 3.06 1.26c.84.84 1.26 1.86 1.26 3.06v30.6Zm43.543.81c0-1.56.54-2.88 1.62-3.96s2.4-1.62 3.96-1.62 2.88.54 3.96 1.62 1.62 2.4 1.62 3.96-.54 2.88-1.62 3.96-2.4 1.62-3.96 1.62-2.88-.54-3.96-1.62-1.62-2.4-1.62-3.96Zm-13.95-3.06h2.25c1.2 0 2.22.42 3.06 1.26.84.84 1.26 1.86 1.26 3.06s-.42 2.22-1.26 3.06c-.84.84-1.86 1.26-3.06 1.26h-19.17a4.554 4.554 0 0 1-2.79-1.35c-.78-.84-1.17-1.83-1.17-2.97 0-1.2.42-2.22 1.26-3.06.84-.84 1.86-1.26 3.06-1.26h5.85l21.15-28.26c1.08-1.38 2.4-2.46 3.96-3.24 1.62-.78 3.33-1.17 5.13-1.17 1.92 0 3.69.45 5.31 1.35 1.68.84 3.06 1.95 4.14 3.33l20.79 27.99h5.4c1.2 0 2.22.42 3.06 1.26.84.84 1.26 1.86 1.26 3.06s-.42 2.22-1.26 3.06c-.84.84-1.86 1.26-3.06 1.26h-19.17a4.554 4.554 0 0 1-2.79-1.35c-.78-.84-1.17-1.83-1.17-2.97 0-1.2.42-2.22 1.26-3.06.84-.84 1.86-1.26 3.06-1.26h2.7l-16.11-21.33c-.36-.48-.87-.99-1.53-1.53-.6-.6-1.23-.9-1.89-.9-.66 0-1.32.3-1.98.9-.6.54-1.11 1.05-1.53 1.53l-16.02 21.33Zm75.745-10.62c0 2.16.12 3.81.36 4.95.24 1.14.81 1.71 1.71 1.71.48 0 1.08-.18 1.8-.54.78-.42 1.74-.96 2.88-1.62l41.22-25.2c.66-.42 1.38-.75 2.16-.99.84-.24 1.68-.36 2.52-.36 2.46 0 4.5.84 6.12 2.52 1.68 1.68 2.52 3.75 2.52 6.21v26.19c0 1.2-.42 2.22-1.26 3.06-.84.84-1.86 1.26-3.06 1.26s-2.22-.42-3.06-1.26c-.84-.84-1.26-1.86-1.26-3.06v-17.73c0-2.16-.12-3.81-.36-4.95-.24-1.14-.81-1.71-1.71-1.71-.48 0-1.11.21-1.89.63-.72.36-1.65.87-2.79 1.53l-41.22 25.2c-.66.42-1.41.75-2.25.99-.78.24-1.59.36-2.43.36-2.46 0-4.53-.84-6.21-2.52-1.62-1.68-2.43-3.75-2.43-6.21v-26.19c0-1.2.42-2.22 1.26-3.06.84-.84 1.86-1.26 3.06-1.26s2.22.42 3.06 1.26c.84.84 1.26 1.86 1.26 3.06v17.73Zm78.926 8.55h49.95c.9 0 1.68-.33 2.34-.99.72-.66 1.08-1.44 1.08-2.34 0-.96-.36-1.74-1.08-2.34-.66-.66-1.44-.99-2.34-.99h-49.95v6.66Zm0-21.96v6.66h50.04c.9 0 1.68-.3 2.34-.9.66-.6.99-1.38.99-2.34 0-.9-.36-1.68-1.08-2.34-.66-.72-1.44-1.08-2.34-1.08h-49.95Zm-4.32 30.6c-1.2 0-2.22-.42-3.06-1.26-.84-.84-1.26-1.86-1.26-3.06v-30.6c0-1.2.42-2.22 1.26-3.06.84-.84 1.86-1.26 3.06-1.26h53.91c1.68 0 3.24.33 4.68.99 1.5.6 2.79 1.44 3.87 2.52 1.14 1.08 2.01 2.37 2.61 3.87.66 1.44.99 3 .99 4.68 0 1.5-.27 2.91-.81 4.23-.48 1.26-1.14 2.4-1.98 3.42.84 1.02 1.5 2.19 1.98 3.51.54 1.26.81 2.61.81 4.05 0 1.68-.33 3.24-.99 4.68-.6 1.44-1.47 2.7-2.61 3.78-1.08 1.08-2.37 1.95-3.87 2.61-1.44.6-3 .9-4.68.9h-53.91Zm83.685-17.19c0 2.16.12 3.81.36 4.95.24 1.14.81 1.71 1.71 1.71.48 0 1.08-.18 1.8-.54.78-.42 1.74-.96 2.88-1.62l41.22-25.2c.66-.42 1.38-.75 2.16-.99.84-.24 1.68-.36 2.52-.36 2.46 0 4.5.84 6.12 2.52 1.68 1.68 2.52 3.75 2.52 6.21v26.19c0 1.2-.42 2.22-1.26 3.06-.84.84-1.86 1.26-3.06 1.26s-2.22-.42-3.06-1.26c-.84-.84-1.26-1.86-1.26-3.06v-17.73c0-2.16-.12-3.81-.36-4.95-.24-1.14-.81-1.71-1.71-1.71-.48 0-1.11.21-1.89.63-.72.36-1.65.87-2.79 1.53l-41.22 25.2c-.66.42-1.41.75-2.25.99-.78.24-1.59.36-2.43.36-2.46 0-4.53-.84-6.21-2.52-1.62-1.68-2.43-3.75-2.43-6.21v-26.19c0-1.2.42-2.22 1.26-3.06.84-.84 1.86-1.26 3.06-1.26s2.22.42 3.06 1.26c.84.84 1.26 1.86 1.26 3.06v17.73Zm104.846 13.68c0-1.56.54-2.88 1.62-3.96s2.4-1.62 3.96-1.62 2.88.54 3.96 1.62 1.62 2.4 1.62 3.96-.54 2.88-1.62 3.96-2.4 1.62-3.96 1.62-2.88-.54-3.96-1.62-1.62-2.4-1.62-3.96Zm-13.95-3.06h2.25c1.2 0 2.22.42 3.06 1.26.84.84 1.26 1.86 1.26 3.06s-.42 2.22-1.26 3.06c-.84.84-1.86 1.26-3.06 1.26h-19.17a4.554 4.554 0 0 1-2.79-1.35c-.78-.84-1.17-1.83-1.17-2.97 0-1.2.42-2.22 1.26-3.06.84-.84 1.86-1.26 3.06-1.26h5.85l21.15-28.26c1.08-1.38 2.4-2.46 3.96-3.24 1.62-.78 3.33-1.17 5.13-1.17 1.92 0 3.69.45 5.31 1.35 1.68.84 3.06 1.95 4.14 3.33l20.79 27.99h5.4c1.2 0 2.22.42 3.06 1.26.84.84 1.26 1.86 1.26 3.06s-.42 2.22-1.26 3.06c-.84.84-1.86 1.26-3.06 1.26h-19.17a4.554 4.554 0 0 1-2.79-1.35c-.78-.84-1.17-1.83-1.17-2.97 0-1.2.42-2.22 1.26-3.06.84-.84 1.86-1.26 3.06-1.26h2.7l-16.11-21.33c-.36-.48-.87-.99-1.53-1.53-.6-.6-1.23-.9-1.89-.9-.66 0-1.32.3-1.98.9-.6.54-1.11 1.05-1.53 1.53l-16.02 21.33Zm129.024-12.42h-49.5c-1.68 0-3.27-.3-4.77-.9-1.5-.66-2.82-1.53-3.96-2.61a12.104 12.104 0 0 1-2.7-3.78c-.66-1.44-.99-3-.99-4.68v-4.23c0-1.2.42-2.22 1.26-3.06.84-.84 1.86-1.26 3.06-1.26s2.22.42 3.06 1.26c.84.84 1.26 1.86 1.26 3.06v4.23c0 .96.33 1.77.99 2.43.72.6 1.53.9 2.43.9h49.86v-7.56c0-1.2.42-2.22 1.26-3.06.84-.84 1.86-1.26 3.06-1.26s2.22.42 3.06 1.26c.84.84 1.26 1.86 1.26 3.06v16.56c0 .3-.03.6-.09.9-.18 1.68-.54 3.36-1.08 5.04-.78 2.28-1.89 4.35-3.33 6.21a18.34 18.34 0 0 1-5.4 4.68c-2.1 1.2-4.44 1.8-7.02 1.8h-40.68c-2.04 0-3.99-.42-5.85-1.26-1.8-.84-3.39-1.98-4.77-3.42a15.272 15.272 0 0 1-3.24-4.77c-.6-2.82-.45-4.65.45-5.49.84-.84 1.83-1.26 2.97-1.26 1.2 0 2.22.42 3.06 1.26.84.84 1.41 1.89 1.71 3.15.3 1.2 1.86 2.07 4.68 2.61 1.14.36 2.34.54 3.6.54h36.27c1.98 0 3.6-.33 4.86-.99 1.32-.66 2.37-1.5 3.15-2.52a9.886 9.886 0 0 0 1.53-3.33c.36-1.2.54-2.34.54-3.42v-.09Zm37.061 1.71h25.56l-9.27-12.42c-.42-.48-.96-.99-1.62-1.53-.6-.6-1.23-.9-1.89-.9-.66 0-1.32.3-1.98.9-.6.54-1.08 1.05-1.44 1.53l-9.36 12.42Zm32.04 8.64h-38.61l-5.22 7.02c-.9 1.08-2.01 1.62-3.33 1.62-1.2 0-2.22-.42-3.06-1.26-.84-.84-1.26-1.86-1.26-3.06 0-1.08.3-1.95.9-2.61l21.87-29.43c1.02-1.38 2.37-2.49 4.05-3.33 1.68-.9 3.48-1.35 5.4-1.35 1.8 0 3.51.39 5.13 1.17 1.62.78 2.94 1.86 3.96 3.24l21.87 29.25c.36.42.66.9.9 1.44.24.48.36 1.02.36 1.62 0 1.2-.42 2.22-1.26 3.06-.84.84-1.86 1.26-3.06 1.26-1.44 0-2.58-.57-3.42-1.71l-5.22-6.93Zm29.647 7.02c-.9 1.08-2.01 1.62-3.33 1.62-1.2 0-2.22-.42-3.06-1.26-.84-.84-1.26-1.86-1.26-3.06 0-1.08.3-1.95.9-2.61l21.87-29.43c1.02-1.38 2.37-2.49 4.05-3.33 1.68-.9 3.48-1.35 5.4-1.35 1.8 0 3.51.39 5.13 1.17 1.62.78 2.94 1.86 3.96 3.24l21.87 29.25c.36.42.66.9.9 1.44.24.48.36 1.02.36 1.62 0 1.2-.42 2.22-1.26 3.06-.84.84-1.86 1.26-3.06 1.26-1.44 0-2.58-.57-3.42-1.71l-20.97-27.99c-.42-.48-.96-.99-1.62-1.53-.6-.6-1.23-.9-1.89-.9-.66 0-1.32.3-1.98.9-.6.54-1.08 1.05-1.44 1.53l-21.15 28.08Zm124.418-7.02c.9 0 1.68-.33 2.34-.99.72-.66 1.08-1.44 1.08-2.34 0-.96-.36-1.74-1.08-2.34-.66-.66-1.44-.99-2.34-.99h-49.95v6.66h49.95Zm-54.27 8.64c-1.2 0-2.22-.42-3.06-1.26-.84-.84-1.26-1.86-1.26-3.06v-30.6c0-1.2.42-2.22 1.26-3.06.84-.84 1.86-1.26 3.06-1.26 1.14 0 2.13.42 2.97 1.26.9.84 1.35 1.86 1.35 3.06v10.98h49.59c1.68 0 3.24.33 4.68.99 1.5.6 2.79 1.44 3.87 2.52a10.96 10.96 0 0 1 2.61 3.78c.66 1.44.99 3 .99 4.68 0 1.68-.33 3.24-.99 4.68-.6 1.44-1.47 2.7-2.61 3.78-1.08 1.08-2.37 1.95-3.87 2.61-1.44.6-3 .9-4.68.9h-53.91Zm145.51-4.32c0 1.2-.42 2.22-1.26 3.06-.84.84-1.86 1.26-3.06 1.26s-2.22-.42-3.06-1.26c-.84-.84-1.26-1.86-1.26-3.06v-10.98h-53.19v10.98c0 1.2-.42 2.22-1.26 3.06-.84.84-1.86 1.26-3.06 1.26s-2.22-.42-3.06-1.26c-.84-.84-1.26-1.86-1.26-3.06v-30.6c0-1.2.42-2.22 1.26-3.06.84-.84 1.86-1.26 3.06-1.26s2.22.42 3.06 1.26c.84.84 1.26 1.86 1.26 3.06v10.98h53.19v-10.98c0-1.2.42-2.22 1.26-3.06.84-.84 1.86-1.26 3.06-1.26s2.22.42 3.06 1.26c.84.84 1.26 1.86 1.26 3.06v30.6Zm55.97-4.32c.9 0 1.68-.33 2.34-.99.72-.66 1.08-1.44 1.08-2.34 0-.96-.36-1.74-1.08-2.34-.66-.66-1.44-.99-2.34-.99h-38.34v6.66h38.34Zm-42.66 8.64c-1.2 0-2.22-.42-3.06-1.26-.84-.84-1.26-1.86-1.26-3.06v-30.6c0-1.2.42-2.22 1.26-3.06.84-.84 1.86-1.26 3.06-1.26 1.14 0 2.13.42 2.97 1.26.9.84 1.35 1.86 1.35 3.06v10.98h37.98c1.68 0 3.24.33 4.68.99 1.5.6 2.79 1.44 3.87 2.52a10.96 10.96 0 0 1 2.61 3.78c.66 1.44.99 3 .99 4.68 0 1.68-.33 3.24-.99 4.68-.6 1.44-1.47 2.7-2.61 3.78-1.08 1.08-2.37 1.95-3.87 2.61-1.44.6-3 .9-4.68.9h-42.3Zm66.06-34.92c0-1.2-.42-2.22-1.26-3.06-.84-.84-1.86-1.26-3.06-1.26s-2.22.42-3.06 1.26c-.84.84-1.26 1.86-1.26 3.06v30.78c0 1.2.42 2.22 1.26 3.06.84.84 1.86 1.26 3.06 1.26s2.22-.42 3.06-1.26c.84-.84 1.26-1.86 1.26-3.06v-30.78Zm84.94 30.6c0 1.2-.42 2.22-1.26 3.06-.84.84-1.86 1.26-3.06 1.26s-2.22-.42-3.06-1.26c-.84-.84-1.26-1.86-1.26-3.06v-19.62c0-2.46-.15-3.69-.45-3.69-.24 0-1.08.81-2.52 2.43l-19.8 22.5a7.71 7.71 0 0 1-2.88 2.07c-1.14.42-2.37.63-3.69.63-1.32 0-2.55-.21-3.69-.63a7.71 7.71 0 0 1-2.88-2.07l-19.8-22.5c-1.38-1.62-2.22-2.43-2.52-2.43-.3 0-.45 1.23-.45 3.69v19.62c0 1.2-.42 2.22-1.26 3.06-.84.84-1.86 1.26-3.06 1.26s-2.22-.42-3.06-1.26c-.84-.84-1.26-1.86-1.26-3.06v-26.28c0-2.4.69-4.44 2.07-6.12 1.38-1.68 3.27-2.52 5.67-2.52 1.44 0 2.73.36 3.87 1.08 1.14.72 2.19 1.59 3.15 2.61l20.7 23.58c.3.3.66.63 1.08.99.48.3.96.45 1.44.45s.93-.15 1.35-.45c.48-.36.87-.69 1.17-.99l20.61-23.58h.09a9.393 9.393 0 0 1 3.06-2.7c1.2-.66 2.52-.99 3.96-.99 2.4 0 4.29.84 5.67 2.52 1.38 1.68 2.07 3.72 2.07 6.12v26.28ZM775.021 326.19c1.2 0 2.22.42 3.06 1.26.84.84 1.26 1.86 1.26 3.06 0 1.14-.39 2.13-1.17 2.97-.78.78-1.71 1.23-2.79 1.35h-18.09c-1.8.12-3.3.57-4.5 1.35-1.14.72-2.04 1.62-2.7 2.7a10.41 10.41 0 0 0-1.35 3.51c-.24 1.26-.36 2.4-.36 3.42v15.3c0 1.2-.42 2.22-1.26 3.06-.84.84-1.86 1.26-3.06 1.26s-2.22-.42-3.06-1.26c-.84-.84-1.26-1.86-1.26-3.06v-15.3c0-1.86.24-3.72.72-5.58.48-1.92 1.2-3.72 2.16-5.4h-29.52c-1.2 0-2.22-.42-3.06-1.26-.84-.84-1.26-1.86-1.26-3.06s.42-2.22 1.26-3.06c.84-.84 1.86-1.26 3.06-1.26h61.92Zm21.941 8.64v6.66h49.95c.9 0 1.68-.3 2.34-.9.72-.66 1.08-1.47 1.08-2.43 0-.9-.36-1.68-1.08-2.34-.66-.66-1.44-.99-2.34-.99h-49.95Zm49.59-8.64c1.68 0 3.24.33 4.68.99 1.5.6 2.79 1.44 3.87 2.52a10.96 10.96 0 0 1 2.61 3.78c.66 1.44.99 3 .99 4.68 0 1.68-.33 3.24-.99 4.68-.6 1.44-1.47 2.7-2.61 3.78-1.08 1.08-2.37 1.95-3.87 2.61-1.44.6-3 .9-4.68.9h-49.59v10.98c0 1.2-.45 2.22-1.35 3.06-.84.84-1.83 1.26-2.97 1.26-1.2 0-2.22-.42-3.06-1.26-.84-.84-1.26-1.86-1.26-3.06v-30.6c0-1.2.42-2.22 1.26-3.06.84-.84 1.86-1.26 3.06-1.26h53.91Zm21.136 4.32c0-1.2.42-2.22 1.26-3.06.84-.84 1.86-1.26 3.06-1.26h63.81c1.2 0 2.22.42 3.06 1.26.84.84 1.26 1.86 1.26 3.06s-.42 2.22-1.26 3.06c-.84.84-1.86 1.26-3.06 1.26h-63.81c-1.2 0-2.22-.42-3.06-1.26-.84-.84-1.26-1.86-1.26-3.06Zm10.98 34.92c-1.32 0-2.64-.27-3.96-.81-1.32-.6-2.49-1.41-3.51-2.43-1.02-1.02-1.86-2.25-2.52-3.69-.66-1.44-.99-3.06-.99-4.86v-8.1c0-1.62.45-2.7 1.35-3.24.96-.54 2.43-.81 4.41-.81h60.39c1.2 0 2.22.42 3.06 1.26.84.84 1.26 1.86 1.26 3.06s-.42 2.22-1.26 3.06c-.84.84-1.86 1.26-3.06 1.26h-57.51v4.41c0 .6.24 1.14.72 1.62.54.42 1.23.63 2.07.63h56.7c1.2 0 2.22.42 3.06 1.26.84.84 1.26 1.86 1.26 3.06s-.42 2.22-1.26 3.06c-.84.84-1.86 1.26-3.06 1.26h-57.15Zm79.134-15.48v6.84h49.948c.9 0 1.68-.33 2.34-.99.72-.66 1.08-1.44 1.08-2.34 0-.96-.36-1.74-1.08-2.34-.66-.66-1.44-.99-2.34-.99h-47.788c-.78 0-1.5-.06-2.16-.18Zm-8.64-19.44c0-1.2.42-2.22 1.26-3.06.84-.84 1.86-1.26 3.06-1.26.3 0 .6.03.9.09h57.148c1.2 0 2.22.42 3.06 1.26.84.84 1.26 1.86 1.26 3.06s-.42 2.22-1.26 3.06c-.84.84-1.86 1.26-3.06 1.26h-53.728v3.24c0 .9.27 1.65.81 2.25.54.6 1.2.96 1.98 1.08h46.798c1.68 0 3.24.33 4.68.99 1.5.6 2.79 1.44 3.87 2.52a10.96 10.96 0 0 1 2.61 3.78c.66 1.44.99 3 .99 4.68 0 1.68-.33 3.24-.99 4.68-.6 1.44-1.47 2.7-2.61 3.78-1.08 1.08-2.37 1.95-3.87 2.61-1.44.6-3 .9-4.68.9h-53.908c-1.2 0-2.22-.42-3.06-1.26-.84-.84-1.26-1.86-1.26-3.06 0-.36.03-.69.09-.99-.06-.3-.09-.63-.09-.99v-28.62Zm134.178 26.28c2.04 0 3.72-.36 5.04-1.08 1.32-.78 2.34-1.71 3.06-2.79a8.725 8.725 0 0 0 1.53-3.51c.3-1.32.45-2.52.45-3.6s-.15-2.25-.45-3.51a8.743 8.743 0 0 0-1.53-3.6c-.72-1.08-1.74-1.98-3.06-2.7-1.32-.78-3-1.17-5.04-1.17h-36.36c-2.1 0-3.81.39-5.13 1.17-1.26.72-2.28 1.62-3.06 2.7-.72 1.08-1.23 2.28-1.53 3.6-.24 1.26-.36 2.43-.36 3.51 0 1.08.12 2.28.36 3.6.3 1.26.81 2.43 1.53 3.51.78 1.08 1.8 2.01 3.06 2.79 1.32.72 3.03 1.08 5.13 1.08h36.36Zm18.45-10.98c0 2.28-.39 4.59-1.17 6.93-.72 2.28-1.8 4.38-3.24 6.3a18.226 18.226 0 0 1-5.22 4.59c-2.04 1.2-4.35 1.8-6.93 1.8h-41.04c-2.46-.12-4.65-.78-6.57-1.98a19.32 19.32 0 0 1-4.95-4.68c-1.32-1.86-2.34-3.93-3.06-6.21-.72-2.28-1.08-4.53-1.08-6.75 0-2.28.36-4.56 1.08-6.84.78-2.34 1.89-4.44 3.33-6.3 1.44-1.92 3.18-3.48 5.22-4.68 2.04-1.2 4.35-1.8 6.93-1.8h41.04c2.46.12 4.65.81 6.57 2.07a16.87 16.87 0 0 1 4.86 4.59c1.38 1.86 2.43 3.93 3.15 6.21.72 2.28 1.08 4.53 1.08 6.75Zm17.64 10.98h49.95c.9 0 1.68-.33 2.34-.99.72-.66 1.08-1.44 1.08-2.34 0-.96-.36-1.74-1.08-2.34-.66-.66-1.44-.99-2.34-.99h-49.95v6.66Zm0-21.96v6.66h50.04c.9 0 1.68-.3 2.34-.9.66-.6.99-1.38.99-2.34 0-.9-.36-1.68-1.08-2.34-.66-.72-1.44-1.08-2.34-1.08h-49.95Zm-4.32 30.6c-1.2 0-2.22-.42-3.06-1.26-.84-.84-1.26-1.86-1.26-3.06v-30.6c0-1.2.42-2.22 1.26-3.06.84-.84 1.86-1.26 3.06-1.26h53.91c1.68 0 3.24.33 4.68.99 1.5.6 2.79 1.44 3.87 2.52 1.14 1.08 2.01 2.37 2.61 3.87.66 1.44.99 3 .99 4.68 0 1.5-.27 2.91-.81 4.23-.48 1.26-1.14 2.4-1.98 3.42.84 1.02 1.5 2.19 1.98 3.51.54 1.26.81 2.61.81 4.05 0 1.68-.33 3.24-.99 4.68-.6 1.44-1.47 2.7-2.61 3.78-1.08 1.08-2.37 1.95-3.87 2.61-1.44.6-3 .9-4.68.9h-53.91Zm94.49-17.28h25.56l-9.27-12.42c-.42-.48-.96-.99-1.62-1.53-.6-.6-1.23-.9-1.89-.9-.66 0-1.32.3-1.98.9-.6.54-1.08 1.05-1.44 1.53l-9.36 12.42Zm32.04 8.64h-38.61l-5.22 7.02c-.9 1.08-2.01 1.62-3.33 1.62-1.2 0-2.22-.42-3.06-1.26-.84-.84-1.26-1.86-1.26-3.06 0-1.08.3-1.95.9-2.61l21.87-29.43c1.02-1.38 2.37-2.49 4.05-3.33 1.68-.9 3.48-1.35 5.4-1.35 1.8 0 3.51.39 5.13 1.17 1.62.78 2.94 1.86 3.96 3.24l21.87 29.25c.36.42.66.9.9 1.44.24.48.36 1.02.36 1.62 0 1.2-.42 2.22-1.26 3.06-.84.84-1.86 1.26-3.06 1.26-1.44 0-2.58-.57-3.42-1.71l-5.22-6.93Zm92.46 4.32c0 1.2-.42 2.22-1.26 3.06-.84.84-1.86 1.26-3.06 1.26s-2.22-.42-3.06-1.26c-.84-.84-1.26-1.86-1.26-3.06v-10.98h-53.19v10.98c0 1.2-.42 2.22-1.26 3.06-.84.84-1.86 1.26-3.06 1.26s-2.22-.42-3.06-1.26c-.84-.84-1.26-1.86-1.26-3.06v-30.6c0-1.2.42-2.22 1.26-3.06.84-.84 1.86-1.26 3.06-1.26s2.22.42 3.06 1.26c.84.84 1.26 1.86 1.26 3.06v10.98h53.19v-10.98c0-1.2.42-2.22 1.26-3.06.84-.84 1.86-1.26 3.06-1.26s2.22.42 3.06 1.26c.84.84 1.26 1.86 1.26 3.06v30.6Zm17.63-12.87c0 2.16.12 3.81.36 4.95.24 1.14.81 1.71 1.71 1.71.48 0 1.08-.18 1.8-.54.78-.42 1.74-.96 2.88-1.62l41.22-25.2c.66-.42 1.38-.75 2.16-.99.84-.24 1.68-.36 2.52-.36 2.46 0 4.5.84 6.12 2.52 1.68 1.68 2.52 3.75 2.52 6.21v26.19c0 1.2-.42 2.22-1.26 3.06-.84.84-1.86 1.26-3.06 1.26s-2.22-.42-3.06-1.26c-.84-.84-1.26-1.86-1.26-3.06v-17.73c0-2.16-.12-3.81-.36-4.95-.24-1.14-.81-1.71-1.71-1.71-.48 0-1.11.21-1.89.63-.72.36-1.65.87-2.79 1.53l-41.22 25.2c-.66.42-1.41.75-2.25.99-.78.24-1.59.36-2.43.36-2.46 0-4.53-.84-6.21-2.52-1.62-1.68-2.43-3.75-2.43-6.21v-26.19c0-1.2.42-2.22 1.26-3.06.84-.84 1.86-1.26 3.06-1.26s2.22.42 3.06 1.26c.84.84 1.26 1.86 1.26 3.06v17.73Zm70.28 12.87c0-.84.3-1.65.9-2.43 2.16-3.18 4.59-5.85 7.29-8.01 2.76-2.22 5.85-3.99 9.27-5.31 3.48-1.38 7.35-2.37 11.61-2.97 4.26-.6 9.03-.9 14.31-.9h18.36v-4.68c-.12-.54-.42-.99-.9-1.35-.48-.42-1.11-.63-1.89-.63h-47.16c-.84.12-1.59.48-2.25 1.08-.6.6-.9 1.35-.9 2.25 0 1.2-.42 2.22-1.26 3.06-.84.84-1.86 1.26-3.06 1.26s-2.22-.42-3.06-1.26c-.84-.84-1.26-1.86-1.26-3.06 0-1.68.33-3.24.99-4.68.66-1.44 1.56-2.7 2.7-3.78 1.14-1.08 2.46-1.92 3.96-2.52 1.5-.66 3.09-.99 4.77-.99h46.98c1.32 0 2.64.3 3.96.9 1.32.54 2.49 1.32 3.51 2.34 1.02 1.02 1.86 2.25 2.52 3.69.66 1.44.99 3.06.99 4.86v23.13c0 1.2-.42 2.22-1.26 3.06-.84.84-1.86 1.26-3.06 1.26-1.14 0-2.16-.42-3.06-1.26-.84-.84-1.26-1.86-1.26-3.06v-10.98h-18.36c-3.66 0-7.11.12-10.35.36-3.18.18-6.21.72-9.09 1.62-2.88.9-5.64 2.22-8.28 3.96-2.58 1.74-5.1 4.14-7.56 7.2-.18.24-.45.54-.81.9-.42.36-.87.66-1.35.9-.48.24-1.02.36-1.62.36-1.2 0-2.22-.42-3.06-1.26-.84-.84-1.26-1.86-1.26-3.06Zm155.33 0c0 1.2-.42 2.22-1.26 3.06-.84.84-1.86 1.26-3.06 1.26s-2.22-.42-3.06-1.26c-.84-.84-1.26-1.86-1.26-3.06v-19.62c0-2.46-.15-3.69-.45-3.69-.24 0-1.08.81-2.52 2.43l-19.8 22.5a7.71 7.71 0 0 1-2.88 2.07c-1.14.42-2.37.63-3.69.63-1.32 0-2.55-.21-3.69-.63a7.71 7.71 0 0 1-2.88-2.07l-19.8-22.5c-1.38-1.62-2.22-2.43-2.52-2.43-.3 0-.45 1.23-.45 3.69v19.62c0 1.2-.42 2.22-1.26 3.06-.84.84-1.86 1.26-3.06 1.26s-2.22-.42-3.06-1.26c-.84-.84-1.26-1.86-1.26-3.06v-26.28c0-2.4.69-4.44 2.07-6.12 1.38-1.68 3.27-2.52 5.67-2.52 1.44 0 2.73.36 3.87 1.08 1.14.72 2.19 1.59 3.15 2.61l20.7 23.58c.3.3.66.63 1.08.99.48.3.96.45 1.44.45s.93-.15 1.35-.45c.48-.36.87-.69 1.17-.99l20.61-23.58h.09a9.393 9.393 0 0 1 3.06-2.7c1.2-.66 2.52-.99 3.96-.99 2.4 0 4.29.84 5.67 2.52 1.38 1.68 2.07 3.72 2.07 6.12v26.28ZM624.412 148.216c-1.908 0-3.498-.63-4.77-1.89-1.26-1.272-1.89-2.844-1.89-4.716 0-1.872.63-3.438 1.89-4.698 1.272-1.272 2.862-1.908 4.77-1.908 1.512 0 2.832.432 3.96 1.296 1.14.852 1.872 1.92 2.196 3.204H628.3c-.276-.732-.768-1.326-1.476-1.782-.708-.456-1.512-.684-2.412-.684-1.32 0-2.406.438-3.258 1.314-.852.876-1.278 1.962-1.278 3.258s.426 2.382 1.278 3.258c.852.876 1.938 1.314 3.258 1.314.9 0 1.704-.228 2.412-.684.708-.456 1.2-1.05 1.476-1.782h2.268c-.324 1.284-1.056 2.358-2.196 3.222-1.128.852-2.448 1.278-3.96 1.278Zm15.465-1.386c-.9.9-2.016 1.35-3.348 1.35-1.332 0-2.454-.45-3.366-1.35-.9-.912-1.35-2.022-1.35-3.33 0-1.308.45-2.412 1.35-3.312.912-.912 2.034-1.368 3.366-1.368 1.332 0 2.448.456 3.348 1.368.912.9 1.368 2.004 1.368 3.312 0 1.308-.456 2.418-1.368 3.33Zm-3.348-.486c.78 0 1.422-.27 1.926-.81.516-.552.774-1.23.774-2.034 0-.804-.258-1.476-.774-2.016-.504-.552-1.146-.828-1.926-.828-.792 0-1.446.276-1.962.828-.504.54-.756 1.212-.756 2.016s.252 1.482.756 2.034c.516.54 1.17.81 1.962.81Zm9.821 1.836c-.972 0-1.824-.234-2.556-.702-.732-.48-1.188-1.176-1.368-2.088h2.034c.264.768.894 1.152 1.89 1.152.552-.012.972-.132 1.26-.36.3-.228.45-.528.45-.9 0-.384-.138-.678-.414-.882-.276-.216-.666-.324-1.17-.324h-1.062v-1.458h1.026c.42 0 .75-.09.99-.27.24-.192.36-.468.36-.828 0-.348-.132-.618-.396-.81-.264-.204-.624-.306-1.08-.306-.9 0-1.464.366-1.692 1.098h-1.98c.18-.9.612-1.572 1.296-2.016.696-.444 1.5-.666 2.412-.666 1.068 0 1.89.252 2.466.756.576.492.864 1.092.864 1.8 0 .84-.324 1.47-.972 1.89.9.456 1.35 1.176 1.35 2.16 0 .744-.33 1.392-.99 1.944-.648.54-1.554.81-2.718.81Zm4.989-1.944h.234c.852 0 1.278-.882 1.278-2.646V139h7.416v7.236h1.404v4.014h-1.8V148h-6.714v2.25h-1.818v-4.014Zm3.492-5.472v3.024c0 1.092-.174 1.908-.522 2.448h3.978v-5.472h-3.456Zm12.293 7.416c-1.224 0-2.256-.456-3.096-1.368-.828-.912-1.242-2.016-1.242-3.312 0-1.296.414-2.4 1.242-3.312.84-.912 1.872-1.368 3.096-1.368a3.53 3.53 0 0 1 1.692.414c.516.264.912.588 1.188.972V139h1.98v9h-1.98v-1.206c-.276.384-.672.714-1.188.99a3.66 3.66 0 0 1-1.692.396Zm-1.566-2.628c.504.552 1.146.828 1.926.828s1.422-.276 1.926-.828c.504-.552.756-1.236.756-2.052 0-.816-.252-1.5-.756-2.052s-1.146-.828-1.926-.828-1.422.276-1.926.828c-.504.552-.756 1.236-.756 2.052 0 .816.252 1.5.756 2.052Zm13.086 2.628c-1.344 0-2.448-.438-3.312-1.314-.864-.888-1.296-2.01-1.296-3.366 0-1.356.426-2.472 1.278-3.348.852-.888 1.968-1.332 3.348-1.332 1.392 0 2.514.486 3.366 1.458.852.96 1.23 2.196 1.134 3.708h-7.164c.024.696.288 1.278.792 1.746.504.468 1.146.702 1.926.702 1.104 0 1.86-.42 2.268-1.26h2.07c-.276.876-.804 1.596-1.584 2.16-.78.564-1.722.846-2.826.846Zm-.036-7.704c-.648 0-1.206.186-1.674.558-.456.36-.75.876-.882 1.548h4.986c-.144-.696-.438-1.218-.882-1.566-.444-.36-.96-.54-1.548-.54Zm6.587-1.476h1.728l3.15 4.104 3.186-4.104h1.728v9h-1.98v-5.886l-2.916 3.78-2.916-3.78V148h-1.98v-9Zm18.464 9h-1.764v-9h1.98v5.994l4.59-5.994h1.764v9h-1.98v-5.994l-4.59 5.994Zm9.239 0v-9h1.98v3.564h4.338V139h1.98v9h-1.98v-3.672h-4.338V148h-1.98Zm10.195-1.764h.234c.852 0 1.278-.882 1.278-2.646V139h7.416v7.236h1.404v4.014h-1.8V148h-6.714v2.25h-1.818v-4.014Zm3.492-5.472v3.024c0 1.092-.174 1.908-.522 2.448h3.978v-5.472h-3.456ZM737.11 148h-1.764v-9h1.98v5.994l4.59-5.994h1.764v9h-1.98v-5.994L737.11 148Zm9.24 0v-9h4.104c1.032 0 1.824.246 2.376.738.552.492.828 1.104.828 1.836 0 .636-.246 1.182-.738 1.638.876.468 1.314 1.176 1.314 2.124 0 .756-.27 1.392-.81 1.908-.54.504-1.356.756-2.448.756h-4.626Zm1.98-1.674h2.628c.396 0 .708-.096.936-.288.24-.204.36-.48.36-.828 0-.36-.12-.636-.36-.828-.228-.204-.54-.306-.936-.306h-2.628v2.25Zm0-3.69h2.196c.324 0 .594-.078.81-.234.228-.168.342-.432.342-.792 0-.672-.384-1.008-1.152-1.008h-2.196v2.034Zm9.68 5.364h-1.764v-9h1.98v5.994l4.59-5.994h1.764v9h-1.98v-5.994L758.01 148Zm8.466-1.764h.234c.852 0 1.278-.882 1.278-2.646V139h7.416v7.236h1.404v4.014h-1.8V148h-6.714v2.25h-1.818v-4.014Zm3.492-5.472v3.024c0 1.092-.174 1.908-.522 2.448h3.978v-5.472h-3.456ZM787.035 139l-4.68 10.386c-.396.9-.858 1.548-1.386 1.944-.516.408-1.164.612-1.944.612-.48 0-.846-.03-1.098-.09v-1.71c.36.024.654.036.882.036.66 0 1.2-.438 1.62-1.314l.594-1.314-3.888-8.55h2.178l2.826 6.246 2.7-6.246h2.196Zm4.858 9.18c-1.224 0-2.256-.456-3.096-1.368-.828-.912-1.242-2.016-1.242-3.312 0-1.296.414-2.4 1.242-3.312.84-.912 1.872-1.368 3.096-1.368a3.53 3.53 0 0 1 1.692.414c.516.264.912.588 1.188.972V139h1.98v9h-1.98v-1.206c-.276.384-.672.714-1.188.99a3.66 3.66 0 0 1-1.692.396Zm-1.566-2.628c.504.552 1.146.828 1.926.828s1.422-.276 1.926-.828c.504-.552.756-1.236.756-2.052 0-.816-.252-1.5-.756-2.052s-1.146-.828-1.926-.828-1.422.276-1.926.828c-.504.552-.756 1.236-.756 2.052 0 .816.252 1.5.756 2.052Zm9.109 2.592c-.444 0-.768-.024-.972-.072v-1.71c.264.024.462.036.594.036.372 0 .648-.12.828-.36.18-.252.27-.69.27-1.314V139h7.326v9h-1.98v-7.236h-3.366v4.266c0 1.02-.258 1.794-.774 2.322-.504.528-1.146.792-1.926.792Zm10.705-.144v-9h1.98v2.97h1.89c1.092 0 1.914.306 2.466.918.564.6.846 1.29.846 2.07 0 .792-.282 1.5-.846 2.124-.552.612-1.374.918-2.466.918h-3.87Zm1.98-4.284v2.538h1.728c.504 0 .888-.108 1.152-.324.276-.228.414-.546.414-.954 0-.84-.522-1.26-1.566-1.26h-1.728Zm7.037 4.284v-9h1.98v3.564h4.338V139h1.98v9h-1.98v-3.672h-4.338V148h-1.98Zm19.465 0v-9h1.98v9h-1.98Zm-8.496 0v-9h1.98v2.97h1.89c1.092 0 1.914.306 2.466.918.564.6.846 1.29.846 2.07 0 .792-.282 1.5-.846 2.124-.552.612-1.374.918-2.466.918h-3.87Zm1.98-4.284v2.538h1.728c.504 0 .888-.108 1.152-.324.276-.228.414-.546.414-.954 0-.84-.522-1.26-1.566-1.26h-1.728Zm15.146 4.464c-1.344 0-2.448-.438-3.312-1.314-.864-.888-1.296-2.01-1.296-3.366 0-1.356.426-2.472 1.278-3.348.852-.888 1.968-1.332 3.348-1.332 1.392 0 2.514.486 3.366 1.458.852.96 1.23 2.196 1.134 3.708h-7.164c.024.696.288 1.278.792 1.746.504.468 1.146.702 1.926.702 1.104 0 1.86-.42 2.268-1.26h2.07c-.276.876-.804 1.596-1.584 2.16-.78.564-1.722.846-2.826.846Zm-.036-7.704c-.648 0-1.206.186-1.674.558-.456.36-.75.876-.882 1.548h4.986c-.144-.696-.438-1.218-.882-1.566-.444-.36-.96-.54-1.548-.54ZM858.041 148v-9h8.118v9h-1.98v-7.236h-4.158V148h-1.98Zm12.755 3.762h-1.98V139h1.98v1.206c.276-.384.672-.708 1.188-.972a3.636 3.636 0 0 1 1.71-.414c1.224 0 2.25.456 3.078 1.368.84.912 1.26 2.016 1.26 3.312 0 1.296-.42 2.4-1.26 3.312-.828.912-1.854 1.368-3.078 1.368a3.77 3.77 0 0 1-1.71-.396c-.516-.276-.912-.606-1.188-.99v4.968Zm2.538-5.382c.78 0 1.422-.276 1.926-.828.504-.552.756-1.236.756-2.052 0-.816-.252-1.5-.756-2.052s-1.146-.828-1.926-.828c-.792 0-1.44.276-1.944.828-.504.552-.756 1.236-.756 2.052 0 .816.252 1.5.756 2.052s1.152.828 1.944.828Zm14.131.45c-.9.9-2.016 1.35-3.348 1.35-1.332 0-2.454-.45-3.366-1.35-.9-.912-1.35-2.022-1.35-3.33 0-1.308.45-2.412 1.35-3.312.912-.912 2.034-1.368 3.366-1.368 1.332 0 2.448.456 3.348 1.368.912.9 1.368 2.004 1.368 3.312 0 1.308-.456 2.418-1.368 3.33Zm-3.348-.486c.78 0 1.422-.27 1.926-.81.516-.552.774-1.23.774-2.034 0-.804-.258-1.476-.774-2.016-.504-.552-1.146-.828-1.926-.828-.792 0-1.446.276-1.962.828-.504.54-.756 1.212-.756 2.016s.252 1.482.756 2.034c.516.54 1.17.81 1.962.81Zm6.707 1.656v-9h5.904v1.764h-3.924V148h-1.98Zm9.521 3.762h-1.98V139h1.98v1.206c.276-.384.672-.708 1.188-.972a3.636 3.636 0 0 1 1.71-.414c1.224 0 2.25.456 3.078 1.368.84.912 1.26 2.016 1.26 3.312 0 1.296-.42 2.4-1.26 3.312-.828.912-1.854 1.368-3.078 1.368a3.77 3.77 0 0 1-1.71-.396c-.516-.276-.912-.606-1.188-.99v4.968Zm2.538-5.382c.78 0 1.422-.276 1.926-.828.504-.552.756-1.236.756-2.052 0-.816-.252-1.5-.756-2.052s-1.146-.828-1.926-.828c-.792 0-1.44.276-1.944.828-.504.552-.756 1.236-.756 2.052 0 .816.252 1.5.756 2.052s1.152.828 1.944.828Zm10.405 1.8c-1.224 0-2.256-.456-3.096-1.368-.828-.912-1.242-2.016-1.242-3.312 0-1.296.414-2.4 1.242-3.312.84-.912 1.872-1.368 3.096-1.368a3.53 3.53 0 0 1 1.692.414c.516.264.912.588 1.188.972V139h1.98v9h-1.98v-1.206c-.276.384-.672.714-1.188.99a3.66 3.66 0 0 1-1.692.396Zm-1.566-2.628c.504.552 1.146.828 1.926.828s1.422-.276 1.926-.828c.504-.552.756-1.236.756-2.052 0-.816-.252-1.5-.756-2.052s-1.146-.828-1.926-.828-1.422.276-1.926.828c-.504.552-.756 1.236-.756 2.052 0 .816.252 1.5.756 2.052ZM920.83 139h1.728l3.15 4.104 3.186-4.104h1.728v9h-1.98v-5.886l-2.916 3.78-2.916-3.78V148h-1.98v-9Zm12.463 0h1.728l3.15 4.104 3.186-4.104h1.728v9h-1.98v-5.886l-2.916 3.78-2.916-3.78V148h-1.98v-9Zm12.463 9v-9h1.98v3.564h4.338V139h1.98v9h-1.98v-3.672h-4.338V148h-1.98Zm19.465 0v-9h1.98v9h-1.98Zm-8.496 0v-9h1.98v2.97h1.89c1.092 0 1.914.306 2.466.918.564.6.846 1.29.846 2.07 0 .792-.282 1.5-.846 2.124-.552.612-1.374.918-2.466.918h-3.87Zm1.98-4.284v2.538h1.728c.504 0 .888-.108 1.152-.324.276-.228.414-.546.414-.954 0-.84-.522-1.26-1.566-1.26h-1.728Zm15.146 4.464c-1.344 0-2.448-.438-3.312-1.314-.864-.888-1.296-2.01-1.296-3.366 0-1.356.426-2.472 1.278-3.348.852-.888 1.968-1.332 3.348-1.332 1.392 0 2.514.486 3.366 1.458.852.96 1.23 2.196 1.134 3.708h-7.164c.024.696.288 1.278.792 1.746.504.468 1.146.702 1.926.702 1.104 0 1.86-.42 2.268-1.26h2.07c-.276.876-.804 1.596-1.584 2.16-.78.564-1.722.846-2.826.846Zm-.036-7.704c-.648 0-1.206.186-1.674.558-.456.36-.75.876-.882 1.548h4.986c-.144-.696-.438-1.218-.882-1.566-.444-.36-.96-.54-1.548-.54Zm12.804 11.286h-1.98V139h1.98v1.206c.276-.384.672-.708 1.188-.972a3.636 3.636 0 0 1 1.71-.414c1.224 0 2.25.456 3.078 1.368.84.912 1.26 2.016 1.26 3.312 0 1.296-.42 2.4-1.26 3.312-.828.912-1.854 1.368-3.078 1.368a3.77 3.77 0 0 1-1.71-.396c-.516-.276-.912-.606-1.188-.99v4.968Zm2.538-5.382c.78 0 1.422-.276 1.926-.828.504-.552.756-1.236.756-2.052 0-.816-.252-1.5-.756-2.052s-1.146-.828-1.926-.828c-.792 0-1.44.276-1.944.828-.504.552-.756 1.236-.756 2.052 0 .816.252 1.5.756 2.052s1.152.828 1.944.828Zm10.692 1.8c-1.344 0-2.448-.438-3.312-1.314-.864-.888-1.296-2.01-1.296-3.366 0-1.356.426-2.472 1.278-3.348.852-.888 1.968-1.332 3.348-1.332 1.393 0 2.513.486 3.363 1.458.86.96 1.23 2.196 1.14 3.708h-7.167c.024.696.288 1.278.792 1.746.504.468 1.146.702 1.926.702 1.109 0 1.859-.42 2.269-1.26h2.07c-.28.876-.8 1.596-1.58 2.16-.78.564-1.73.846-2.831.846Zm-.036-7.704c-.648 0-1.206.186-1.674.558-.456.36-.75.876-.882 1.548h4.983c-.14-.696-.43-1.218-.88-1.566-.44-.36-.96-.54-1.547-.54ZM1006.4 148v-9h1.98v7.236h3.13V139h1.98v7.236h3.12V139h1.98v9h-12.19Zm18.83.18c-1.34 0-2.45-.438-3.31-1.314-.86-.888-1.3-2.01-1.3-3.366 0-1.356.43-2.472 1.28-3.348.85-.888 1.97-1.332 3.35-1.332 1.39 0 2.51.486 3.37 1.458.85.96 1.23 2.196 1.13 3.708h-7.16c.02.696.28 1.278.79 1.746.5.468 1.14.702 1.92.702 1.11 0 1.86-.42 2.27-1.26h2.07c-.27.876-.8 1.596-1.58 2.16-.78.564-1.72.846-2.83.846Zm-.03-7.704c-.65 0-1.21.186-1.68.558-.45.36-.75.876-.88 1.548h4.99c-.15-.696-.44-1.218-.89-1.566-.44-.36-.96-.54-1.54-.54Zm6.58 7.524v-9h1.98v3.564h4.34V139h1.98v9h-1.98v-3.672h-4.34V148h-1.98Zm12.74 0h-1.77v-9h1.98v5.994l4.59-5.994h1.77v9h-1.98v-5.994l-4.59 5.994Zm7.78 0 3.36-3.456c-.61-.216-1.08-.552-1.42-1.008-.33-.456-.5-.99-.5-1.602 0-.864.29-1.566.86-2.106.58-.552 1.39-.828 2.43-.828h3.64v9h-1.98v-3.078h-1.01l-3.04 3.078h-2.34Zm4.84-4.734h1.55v-2.592h-1.55c-1 0-1.49.444-1.49 1.332 0 .396.13.708.39.936.28.216.64.324 1.1.324Zm-923.32 125.16c.828.792 1.242 1.782 1.242 2.97 0 1.188-.414 2.184-1.242 2.988-.828.792-1.89 1.188-3.186 1.188h-1.962V280h-2.106v-12.78h4.068c1.296 0 2.358.402 3.186 1.206Zm-1.476 4.554c.432-.42.648-.948.648-1.584 0-.636-.216-1.158-.648-1.566-.42-.42-.996-.63-1.728-.63h-1.944v4.392h1.944c.732 0 1.308-.204 1.728-.612Zm7.961 7.2c-1.224 0-2.256-.456-3.096-1.368-.828-.912-1.242-2.016-1.242-3.312 0-1.296.414-2.4 1.242-3.312.84-.912 1.872-1.368 3.096-1.368a3.53 3.53 0 0 1 1.692.414c.516.264.912.588 1.188.972V271h1.98v9h-1.98v-1.206c-.276.384-.672.714-1.188.99a3.66 3.66 0 0 1-1.692.396Zm-1.566-2.628c.504.552 1.146.828 1.926.828s1.422-.276 1.926-.828c.504-.552.756-1.236.756-2.052 0-.816-.252-1.5-.756-2.052s-1.146-.828-1.926-.828-1.422.276-1.926.828c-.504.552-.756 1.236-.756 2.052 0 .816.252 1.5.756 2.052Zm12.223 2.628c-.972 0-1.824-.234-2.556-.702-.732-.48-1.188-1.176-1.368-2.088h2.034c.264.768.894 1.152 1.89 1.152.552-.012.972-.132 1.26-.36.3-.228.45-.528.45-.9 0-.384-.138-.678-.414-.882-.276-.216-.666-.324-1.17-.324h-1.062v-1.458h1.026c.42 0 .75-.09.99-.27.24-.192.36-.468.36-.828 0-.348-.132-.618-.396-.81-.264-.204-.624-.306-1.08-.306-.9 0-1.464.366-1.692 1.098h-1.98c.18-.9.612-1.572 1.296-2.016.696-.444 1.5-.666 2.412-.666 1.068 0 1.89.252 2.466.756.576.492.864 1.092.864 1.8 0 .84-.324 1.47-.972 1.89.9.456 1.35 1.176 1.35 2.16 0 .744-.33 1.392-.99 1.944-.648.54-1.554.81-2.718.81Zm7.743 3.582h-1.98V271h1.98v1.206c.276-.384.672-.708 1.188-.972a3.636 3.636 0 0 1 1.71-.414c1.224 0 2.25.456 3.078 1.368.84.912 1.26 2.016 1.26 3.312 0 1.296-.42 2.4-1.26 3.312-.828.912-1.854 1.368-3.078 1.368a3.77 3.77 0 0 1-1.71-.396c-.516-.276-.912-.606-1.188-.99v4.968Zm2.538-5.382c.78 0 1.422-.276 1.926-.828.504-.552.756-1.236.756-2.052 0-.816-.252-1.5-.756-2.052s-1.146-.828-1.926-.828c-.792 0-1.44.276-1.944.828-.504.552-.756 1.236-.756 2.052 0 .816.252 1.5.756 2.052s1.152.828 1.944.828Zm10.404 1.8c-1.224 0-2.256-.456-3.096-1.368-.828-.912-1.242-2.016-1.242-3.312 0-1.296.414-2.4 1.242-3.312.84-.912 1.872-1.368 3.096-1.368a3.53 3.53 0 0 1 1.692.414c.516.264.912.588 1.188.972V271h1.98v9h-1.98v-1.206c-.276.384-.672.714-1.188.99a3.66 3.66 0 0 1-1.692.396Zm-1.566-2.628c.504.552 1.146.828 1.926.828s1.422-.276 1.926-.828c.504-.552.756-1.236.756-2.052 0-.816-.252-1.5-.756-2.052s-1.146-.828-1.926-.828-1.422.276-1.926.828c-.504.552-.756 1.236-.756 2.052 0 .816.252 1.5.756 2.052Zm13.464 2.628c-1.464 0-2.61-.48-3.438-1.44-.828-.96-1.242-2.244-1.242-3.852v-.72c0-2.232.42-3.894 1.26-4.986.852-1.092 2.178-1.812 3.978-2.16l3.258-.594v1.89l-2.826.504c-1.176.216-2.046.6-2.61 1.152-.552.552-.894 1.356-1.026 2.412.744-.864 1.734-1.296 2.97-1.296 1.32 0 2.382.426 3.186 1.278.804.84 1.206 1.872 1.206 3.096 0 1.32-.456 2.436-1.368 3.348-.9.912-2.016 1.368-3.348 1.368Zm-1.962-2.61c.504.516 1.152.774 1.944.774s1.44-.258 1.944-.774c.516-.528.774-1.218.774-2.07 0-.756-.258-1.386-.774-1.89-.504-.504-1.146-.756-1.926-.756-.792 0-1.44.258-1.944.774a2.581 2.581 0 0 0-.756 1.872c0 .852.246 1.542.738 2.07Zm12.388 2.61c-1.224 0-2.256-.456-3.096-1.368-.828-.912-1.242-2.016-1.242-3.312 0-1.296.414-2.4 1.242-3.312.84-.912 1.872-1.368 3.096-1.368a3.53 3.53 0 0 1 1.692.414c.516.264.912.588 1.188.972V271h1.98v9h-1.98v-1.206c-.276.384-.672.714-1.188.99a3.66 3.66 0 0 1-1.692.396Zm-1.566-2.628c.504.552 1.146.828 1.926.828s1.422-.276 1.926-.828c.504-.552.756-1.236.756-2.052 0-.816-.252-1.5-.756-2.052s-1.146-.828-1.926-.828-1.422.276-1.926.828c-.504.552-.756 1.236-.756 2.052 0 .816.252 1.5.756 2.052ZM203.188 280v-7.236h-2.7V271h7.506v1.764h-2.826V280h-1.98Zm14.96 0v-9h1.98v9h-1.98Zm-8.496 0v-9h1.98v2.97h1.89c1.092 0 1.914.306 2.466.918.564.6.846 1.29.846 2.07 0 .792-.282 1.5-.846 2.124-.552.612-1.374.918-2.466.918h-3.87Zm1.98-4.284v2.538h1.728c.504 0 .888-.108 1.152-.324.276-.228.414-.546.414-.954 0-.84-.522-1.26-1.566-1.26h-1.728ZM222.801 280v-9h4.104c1.032 0 1.824.246 2.376.738.552.492.828 1.104.828 1.836 0 .636-.246 1.182-.738 1.638.876.468 1.314 1.176 1.314 2.124 0 .756-.27 1.392-.81 1.908-.54.504-1.356.756-2.448.756h-4.626Zm1.98-1.674h2.628c.396 0 .708-.096.936-.288.24-.204.36-.48.36-.828 0-.36-.12-.636-.36-.828-.228-.204-.54-.306-.936-.306h-2.628v2.25Zm0-3.69h2.196c.324 0 .594-.078.81-.234.228-.168.342-.432.342-.792 0-.672-.384-1.008-1.152-1.008h-2.196v2.034Zm11.606 5.544c-1.224 0-2.256-.456-3.096-1.368-.828-.912-1.242-2.016-1.242-3.312 0-1.296.414-2.4 1.242-3.312.84-.912 1.872-1.368 3.096-1.368a3.53 3.53 0 0 1 1.692.414c.516.264.912.588 1.188.972V271h1.98v9h-1.98v-1.206c-.276.384-.672.714-1.188.99a3.66 3.66 0 0 1-1.692.396Zm-1.566-2.628c.504.552 1.146.828 1.926.828s1.422-.276 1.926-.828c.504-.552.756-1.236.756-2.052 0-.816-.252-1.5-.756-2.052s-1.146-.828-1.926-.828-1.422.276-1.926.828c-.504.552-.756 1.236-.756 2.052 0 .816.252 1.5.756 2.052Zm13.087 2.628c-1.344 0-2.448-.438-3.312-1.314-.864-.888-1.296-2.01-1.296-3.366 0-1.356.426-2.472 1.278-3.348.852-.888 1.968-1.332 3.348-1.332 1.392 0 2.514.486 3.366 1.458.852.96 1.23 2.196 1.134 3.708h-7.164c.024.696.288 1.278.792 1.746.504.468 1.146.702 1.926.702 1.104 0 1.86-.42 2.268-1.26h2.07c-.276.876-.804 1.596-1.584 2.16-.78.564-1.722.846-2.826.846Zm-.036-7.704c-.648 0-1.206.186-1.674.558-.456.36-.75.876-.882 1.548h4.986c-.144-.696-.438-1.218-.882-1.566-.444-.36-.96-.54-1.548-.54Zm6.587-1.476h1.728l3.15 4.104 3.186-4.104h1.728v9h-1.98v-5.886l-2.916 3.78-2.916-3.78V280h-1.98v-9Zm16.699 9v-9h8.118v9h-1.98v-7.236h-4.158V280h-1.98Zm12.756 3.762h-1.98V271h1.98v1.206c.276-.384.672-.708 1.188-.972a3.636 3.636 0 0 1 1.71-.414c1.224 0 2.25.456 3.078 1.368.84.912 1.26 2.016 1.26 3.312 0 1.296-.42 2.4-1.26 3.312-.828.912-1.854 1.368-3.078 1.368a3.77 3.77 0 0 1-1.71-.396c-.516-.276-.912-.606-1.188-.99v4.968Zm2.538-5.382c.78 0 1.422-.276 1.926-.828.504-.552.756-1.236.756-2.052 0-.816-.252-1.5-.756-2.052s-1.146-.828-1.926-.828c-.792 0-1.44.276-1.944.828-.504.552-.756 1.236-.756 2.052 0 .816.252 1.5.756 2.052s1.152.828 1.944.828Zm8.478 1.62h-1.764v-9h1.98v5.994l4.59-5.994h1.764v9h-1.98v-5.994L294.93 280Zm9.24.144c-.444 0-.768-.024-.972-.072v-1.71c.264.024.462.036.594.036.372 0 .648-.12.828-.36.18-.252.27-.69.27-1.314V271h7.326v9h-1.98v-7.236h-3.366v4.266c0 1.02-.258 1.794-.774 2.322-.504.528-1.146.792-1.926.792Zm18.121-1.314c-.9.9-2.016 1.35-3.348 1.35-1.332 0-2.454-.45-3.366-1.35-.9-.912-1.35-2.022-1.35-3.33 0-1.308.45-2.412 1.35-3.312.912-.912 2.034-1.368 3.366-1.368 1.332 0 2.448.456 3.348 1.368.912.9 1.368 2.004 1.368 3.312 0 1.308-.456 2.418-1.368 3.33Zm-3.348-.486c.78 0 1.422-.27 1.926-.81.516-.552.774-1.23.774-2.034 0-.804-.258-1.476-.774-2.016-.504-.552-1.146-.828-1.926-.828-.792 0-1.446.276-1.962.828-.504.54-.756 1.212-.756 2.016s.252 1.482.756 2.034c.516.54 1.17.81 1.962.81ZM335.762 280l-3.816-3.834V280h-1.98v-3.852L326.15 280h-2.52l4.518-4.572-3.906-4.428h2.358l3.366 3.852V271h1.98v3.834l3.348-3.834h2.358l-3.906 4.428 4.536 4.572h-2.52Zm7.138.18c-1.344 0-2.448-.438-3.312-1.314-.864-.888-1.296-2.01-1.296-3.366 0-1.356.426-2.472 1.278-3.348.852-.888 1.968-1.332 3.348-1.332 1.392 0 2.514.486 3.366 1.458.852.96 1.23 2.196 1.134 3.708h-7.164c.024.696.288 1.278.792 1.746.504.468 1.146.702 1.926.702 1.104 0 1.86-.42 2.268-1.26h2.07c-.276.876-.804 1.596-1.584 2.16-.78.564-1.722.846-2.826.846Zm-.036-7.704c-.648 0-1.206.186-1.674.558-.456.36-.75.876-.882 1.548h4.986c-.144-.696-.438-1.218-.882-1.566-.444-.36-.96-.54-1.548-.54Zm6.587 7.524v-9h1.98v3.564h4.338V271h1.98v9h-1.98v-3.672h-4.338V280h-1.98Zm12.733 0h-1.764v-9h1.98v5.994l4.59-5.994h1.764v9h-1.98v-5.994l-4.59 5.994Zm7.782 0 3.366-3.456c-.612-.216-1.086-.552-1.422-1.008-.336-.456-.504-.99-.504-1.602 0-.864.288-1.566.864-2.106.576-.552 1.386-.828 2.43-.828h3.636v9h-1.98v-3.078h-1.008L372.306 280h-2.34Zm4.842-4.734h1.548v-2.592h-1.548c-.996 0-1.494.444-1.494 1.332 0 .396.132.708.396.936.276.216.642.324 1.098.324Zm10.432 4.878c-.444 0-.768-.024-.972-.072v-1.71c.264.024.462.036.594.036.372 0 .648-.12.828-.36.18-.252.27-.69.27-1.314V271h7.326v9h-1.98v-7.236h-3.366v4.266c0 1.02-.258 1.794-.774 2.322-.504.528-1.146.792-1.926.792Zm18.751.036c-1.152 0-2.148-.366-2.988-1.098a4.428 4.428 0 0 1-1.512-2.754h-1.566V280h-1.98v-9h1.98v3.582h1.584c.192-1.092.702-1.992 1.53-2.7.828-.708 1.812-1.062 2.952-1.062 1.308 0 2.388.45 3.24 1.35.864.9 1.296 2.01 1.296 3.33 0 1.32-.432 2.43-1.296 3.33-.852.9-1.932 1.35-3.24 1.35Zm-1.836-2.646c.48.528 1.092.792 1.836.792s1.35-.264 1.818-.792c.48-.54.72-1.218.72-2.034 0-.816-.24-1.488-.72-2.016-.468-.54-1.074-.81-1.818-.81s-1.356.27-1.836.81c-.468.528-.702 1.2-.702 2.016 0 .816.234 1.494.702 2.034Zm12.754 2.646c-1.464 0-2.61-.48-3.438-1.44-.828-.96-1.242-2.244-1.242-3.852v-.72c0-2.232.42-3.894 1.26-4.986.852-1.092 2.178-1.812 3.978-2.16l3.258-.594v1.89l-2.826.504c-1.176.216-2.046.6-2.61 1.152-.552.552-.894 1.356-1.026 2.412.744-.864 1.734-1.296 2.97-1.296 1.32 0 2.382.426 3.186 1.278.804.84 1.206 1.872 1.206 3.096 0 1.32-.456 2.436-1.368 3.348-.9.912-2.016 1.368-3.348 1.368Zm-1.962-2.61c.504.516 1.152.774 1.944.774s1.44-.258 1.944-.774c.516-.528.774-1.218.774-2.07 0-.756-.258-1.386-.774-1.89-.504-.504-1.146-.756-1.926-.756-.792 0-1.44.258-1.944.774a2.581 2.581 0 0 0-.756 1.872c0 .852.246 1.542.738 2.07Zm16.114 1.26c-.9.9-2.016 1.35-3.348 1.35-1.332 0-2.454-.45-3.366-1.35-.9-.912-1.35-2.022-1.35-3.33 0-1.308.45-2.412 1.35-3.312.912-.912 2.034-1.368 3.366-1.368 1.332 0 2.448.456 3.348 1.368.912.9 1.368 2.004 1.368 3.312 0 1.308-.456 2.418-1.368 3.33Zm-3.348-.486c.78 0 1.422-.27 1.926-.81.516-.552.774-1.23.774-2.034 0-.804-.258-1.476-.774-2.016-.504-.552-1.146-.828-1.926-.828-.792 0-1.446.276-1.962.828-.504.54-.756 1.212-.756 2.016s.252 1.482.756 2.034c.516.54 1.17.81 1.962.81Zm8.471 1.656h-1.764v-9h1.98v5.994l4.59-5.994h1.764v9h-1.98v-5.994l-4.59 5.994Zm4.662-11.052c-.564.54-1.272.81-2.124.81-.852 0-1.566-.27-2.142-.81-.564-.552-.846-1.278-.846-2.178v-.27h1.404v.27c0 .552.15.99.45 1.314.3.312.678.468 1.134.468.456 0 .834-.156 1.134-.468.3-.324.45-.762.45-1.314v-.27h1.404v.27c0 .9-.288 1.626-.864 2.178Zm12.882 11.232c-1.356 0-2.484-.45-3.384-1.35-.888-.912-1.332-2.022-1.332-3.33 0-1.308.444-2.412 1.332-3.312.9-.912 2.028-1.368 3.384-1.368 1.164 0 2.154.324 2.97.972a4.359 4.359 0 0 1 1.602 2.502h-2.088a2.391 2.391 0 0 0-.936-1.206c-.432-.312-.948-.468-1.548-.468-.792 0-1.44.27-1.944.81s-.756 1.23-.756 2.07c0 .84.252 1.53.756 2.07.504.54 1.152.81 1.944.81.6 0 1.116-.15 1.548-.45.444-.312.756-.72.936-1.224h2.088a4.359 4.359 0 0 1-1.602 2.502c-.816.648-1.806.972-2.97.972Zm6.356-.036c-.444 0-.768-.024-.972-.072v-1.71c.264.024.462.036.594.036.372 0 .648-.12.828-.36.18-.252.27-.69.27-1.314V271h7.326v9h-1.98v-7.236h-3.366v4.266c0 1.02-.258 1.794-.774 2.322-.504.528-1.146.792-1.926.792Zm18.121-1.314c-.9.9-2.016 1.35-3.348 1.35-1.332 0-2.454-.45-3.366-1.35-.9-.912-1.35-2.022-1.35-3.33 0-1.308.45-2.412 1.35-3.312.912-.912 2.034-1.368 3.366-1.368 1.332 0 2.448.456 3.348 1.368.912.9 1.368 2.004 1.368 3.312 0 1.308-.456 2.418-1.368 3.33Zm-3.348-.486c.78 0 1.422-.27 1.926-.81.516-.552.774-1.23.774-2.034 0-.804-.258-1.476-.774-2.016-.504-.552-1.146-.828-1.926-.828-.792 0-1.446.276-1.962.828-.504.54-.756 1.212-.756 2.016s.252 1.482.756 2.034c.516.54 1.17.81 1.962.81ZM489.676 280l-3.816-3.834V280h-1.98v-3.852L480.064 280h-2.52l4.518-4.572-3.906-4.428h2.358l3.366 3.852V271h1.98v3.834l3.348-3.834h2.358l-3.906 4.428 4.536 4.572h-2.52Zm3.722 0v-9h1.98v3.564h4.338V271h1.98v9h-1.98v-3.672h-4.338V280h-1.98Zm18.385-1.17c-.9.9-2.016 1.35-3.348 1.35-1.332 0-2.454-.45-3.366-1.35-.9-.912-1.35-2.022-1.35-3.33 0-1.308.45-2.412 1.35-3.312.912-.912 2.034-1.368 3.366-1.368 1.332 0 2.448.456 3.348 1.368.912.9 1.368 2.004 1.368 3.312 0 1.308-.456 2.418-1.368 3.33Zm-3.348-.486c.78 0 1.422-.27 1.926-.81.516-.552.774-1.23.774-2.034 0-.804-.258-1.476-.774-2.016-.504-.552-1.146-.828-1.926-.828-.792 0-1.446.276-1.962.828-.504.54-.756 1.212-.756 2.016s.252 1.482.756 2.034c.516.54 1.17.81 1.962.81Zm10.776 1.836c-1.356 0-2.484-.45-3.384-1.35-.888-.912-1.332-2.022-1.332-3.33 0-1.308.444-2.412 1.332-3.312.9-.912 2.028-1.368 3.384-1.368 1.164 0 2.154.324 2.97.972a4.359 4.359 0 0 1 1.602 2.502h-2.088a2.391 2.391 0 0 0-.936-1.206c-.432-.312-.948-.468-1.548-.468-.792 0-1.44.27-1.944.81s-.756 1.23-.756 2.07c0 .84.252 1.53.756 2.07.504.54 1.152.81 1.944.81.6 0 1.116-.15 1.548-.45.444-.312.756-.72.936-1.224h2.088a4.359 4.359 0 0 1-1.602 2.502c-.816.648-1.806.972-2.97.972Zm8.029-.18v-7.236h-2.7V271h7.506v1.764h-2.826V280h-1.98Zm8.229 0h-1.764v-9h1.98v5.994l4.59-5.994h1.764v9h-1.98v-5.994l-4.59 5.994Zm17.544.18c-1.356 0-2.484-.45-3.384-1.35-.888-.912-1.332-2.022-1.332-3.33 0-1.308.444-2.412 1.332-3.312.9-.912 2.028-1.368 3.384-1.368 1.164 0 2.154.324 2.97.972a4.359 4.359 0 0 1 1.602 2.502h-2.088a2.391 2.391 0 0 0-.936-1.206c-.432-.312-.948-.468-1.548-.468-.792 0-1.44.27-1.944.81s-.756 1.23-.756 2.07c0 .84.252 1.53.756 2.07.504.54 1.152.81 1.944.81.6 0 1.116-.15 1.548-.45.444-.312.756-.72.936-1.224h2.088a4.359 4.359 0 0 1-1.602 2.502c-.816.648-1.806.972-2.97.972Zm18.916-9.18-4.68 10.386c-.396.9-.858 1.548-1.386 1.944-.516.408-1.164.612-1.944.612-.48 0-.846-.03-1.098-.09v-1.71c.36.024.654.036.882.036.66 0 1.2-.438 1.62-1.314l.594-1.314-3.888-8.55h2.178l2.826 6.246 2.7-6.246h2.196Zm8.67 9h-1.98v-3.924c-.228.324-.576.582-1.044.774-.468.192-1.002.288-1.602.288-.984 0-1.782-.294-2.394-.882-.612-.588-.918-1.428-.918-2.52V271h1.98v2.52c0 1.236.618 1.854 1.854 1.854.552 0 1.044-.186 1.476-.558.432-.372.648-.924.648-1.656V271h1.98v9Zm6.637.18c-1.344 0-2.448-.438-3.312-1.314-.864-.888-1.296-2.01-1.296-3.366 0-1.356.426-2.472 1.278-3.348.852-.888 1.968-1.332 3.348-1.332 1.392 0 2.514.486 3.366 1.458.852.96 1.23 2.196 1.134 3.708h-7.164c.024.696.288 1.278.792 1.746.504.468 1.146.702 1.926.702 1.104 0 1.86-.42 2.268-1.26h2.07c-.276.876-.804 1.596-1.584 2.16-.78.564-1.722.846-2.826.846Zm-.036-7.704c-.648 0-1.206.186-1.674.558-.456.36-.75.876-.882 1.548h4.986c-.144-.696-.438-1.218-.882-1.566-.444-.36-.96-.54-1.548-.54Zm8.068 7.524v-7.236h-2.7V271h7.506v1.764h-2.826V280h-1.98Zm13.634-1.17c-.9.9-2.016 1.35-3.348 1.35-1.332 0-2.454-.45-3.366-1.35-.9-.912-1.35-2.022-1.35-3.33 0-1.308.45-2.412 1.35-3.312.912-.912 2.034-1.368 3.366-1.368 1.332 0 2.448.456 3.348 1.368.912.9 1.368 2.004 1.368 3.312 0 1.308-.456 2.418-1.368 3.33Zm-3.348-.486c.78 0 1.422-.27 1.926-.81.516-.552.774-1.23.774-2.034 0-.804-.258-1.476-.774-2.016-.504-.552-1.146-.828-1.926-.828-.792 0-1.446.276-1.962.828-.504.54-.756 1.212-.756 2.016s.252 1.482.756 2.034c.516.54 1.17.81 1.962.81Zm6.708-7.344h1.728l3.15 4.104 3.186-4.104h1.728v9h-1.98v-5.886l-2.916 3.78-2.916-3.78V280h-1.98v-9Zm16.699 9v-9h8.118v9h-1.98v-7.236h-4.158V280h-1.98Zm18.191-1.17c-.9.9-2.016 1.35-3.348 1.35-1.332 0-2.454-.45-3.366-1.35-.9-.912-1.35-2.022-1.35-3.33 0-1.308.45-2.412 1.35-3.312.912-.912 2.034-1.368 3.366-1.368 1.332 0 2.448.456 3.348 1.368.912.9 1.368 2.004 1.368 3.312 0 1.308-.456 2.418-1.368 3.33Zm-3.348-.486c.78 0 1.422-.27 1.926-.81.516-.552.774-1.23.774-2.034 0-.804-.258-1.476-.774-2.016-.504-.552-1.146-.828-1.926-.828-.792 0-1.446.276-1.962.828-.504.54-.756 1.212-.756 2.016s.252 1.482.756 2.034c.516.54 1.17.81 1.962.81ZM651.94 280v-7.236h-2.7V271h7.506v1.764h-2.826V280h-1.98Zm8.444 3.762h-1.98V271h1.98v1.206c.276-.384.672-.708 1.188-.972a3.636 3.636 0 0 1 1.71-.414c1.224 0 2.25.456 3.078 1.368.84.912 1.26 2.016 1.26 3.312 0 1.296-.42 2.4-1.26 3.312-.828.912-1.854 1.368-3.078 1.368a3.77 3.77 0 0 1-1.71-.396c-.516-.276-.912-.606-1.188-.99v4.968Zm2.538-5.382c.78 0 1.422-.276 1.926-.828.504-.552.756-1.236.756-2.052 0-.816-.252-1.5-.756-2.052s-1.146-.828-1.926-.828c-.792 0-1.44.276-1.944.828-.504.552-.756 1.236-.756 2.052 0 .816.252 1.5.756 2.052s1.152.828 1.944.828Zm10.693 1.8c-1.344 0-2.448-.438-3.312-1.314-.864-.888-1.296-2.01-1.296-3.366 0-1.356.426-2.472 1.278-3.348.852-.888 1.968-1.332 3.348-1.332 1.392 0 2.514.486 3.366 1.458.852.96 1.23 2.196 1.134 3.708h-7.164c.024.696.288 1.278.792 1.746.504.468 1.146.702 1.926.702 1.104 0 1.86-.42 2.268-1.26h2.07c-.276.876-.804 1.596-1.584 2.16-.78.564-1.722.846-2.826.846Zm-.036-7.704c-.648 0-1.206.186-1.674.558-.456.36-.75.876-.882 1.548h4.986c-.144-.696-.438-1.218-.882-1.566-.444-.36-.96-.54-1.548-.54Zm10.943 7.704c-1.464 0-2.61-.48-3.438-1.44-.828-.96-1.242-2.244-1.242-3.852v-.72c0-2.232.42-3.894 1.26-4.986.852-1.092 2.178-1.812 3.978-2.16l3.258-.594v1.89l-2.826.504c-1.176.216-2.046.6-2.61 1.152-.552.552-.894 1.356-1.026 2.412.744-.864 1.734-1.296 2.97-1.296 1.32 0 2.382.426 3.186 1.278.804.84 1.206 1.872 1.206 3.096 0 1.32-.456 2.436-1.368 3.348-.9.912-2.016 1.368-3.348 1.368Zm-1.962-2.61c.504.516 1.152.774 1.944.774s1.44-.258 1.944-.774c.516-.528.774-1.218.774-2.07 0-.756-.258-1.386-.774-1.89-.504-.504-1.146-.756-1.926-.756-.792 0-1.44.258-1.944.774a2.581 2.581 0 0 0-.756 1.872c0 .852.246 1.542.738 2.07Zm8.698 2.43v-9h1.98v3.564h4.338V271h1.98v9h-1.98v-3.672h-4.338V280h-1.98Zm18.385-1.17c-.9.9-2.016 1.35-3.348 1.35-1.332 0-2.454-.45-3.366-1.35-.9-.912-1.35-2.022-1.35-3.33 0-1.308.45-2.412 1.35-3.312.912-.912 2.034-1.368 3.366-1.368 1.332 0 2.448.456 3.348 1.368.912.9 1.368 2.004 1.368 3.312 0 1.308-.456 2.418-1.368 3.33Zm-3.348-.486c.78 0 1.422-.27 1.926-.81.516-.552.774-1.23.774-2.034 0-.804-.258-1.476-.774-2.016-.504-.552-1.146-.828-1.926-.828-.792 0-1.446.276-1.962.828-.504.54-.756 1.212-.756 2.016s.252 1.482.756 2.034c.516.54 1.17.81 1.962.81Zm10.775 1.836c-1.356 0-2.484-.45-3.384-1.35-.888-.912-1.332-2.022-1.332-3.33 0-1.308.444-2.412 1.332-3.312.9-.912 2.028-1.368 3.384-1.368 1.164 0 2.154.324 2.97.972a4.359 4.359 0 0 1 1.602 2.502h-2.088a2.391 2.391 0 0 0-.936-1.206c-.432-.312-.948-.468-1.548-.468-.792 0-1.44.27-1.944.81s-.756 1.23-.756 2.07c0 .84.252 1.53.756 2.07.504.54 1.152.81 1.944.81.6 0 1.116-.15 1.548-.45.444-.312.756-.72.936-1.224h2.088a4.359 4.359 0 0 1-1.602 2.502c-.816.648-1.806.972-2.97.972Zm8.03-.18v-7.236h-2.7V271h7.506v1.764h-2.826V280h-1.98Zm10.196.18c-1.344 0-2.448-.438-3.312-1.314-.864-.888-1.296-2.01-1.296-3.366 0-1.356.426-2.472 1.278-3.348.852-.888 1.968-1.332 3.348-1.332 1.392 0 2.514.486 3.366 1.458.852.96 1.23 2.196 1.134 3.708h-7.164c.024.696.288 1.278.792 1.746.504.468 1.146.702 1.926.702 1.104 0 1.86-.42 2.268-1.26h2.07c-.276.876-.804 1.596-1.584 2.16-.78.564-1.722.846-2.826.846Zm-.036-7.704c-.648 0-1.206.186-1.674.558-.456.36-.75.876-.882 1.548h4.986c-.144-.696-.438-1.218-.882-1.566-.444-.36-.96-.54-1.548-.54Zm8.352 7.524h-1.764v-9h1.98v5.994l4.59-5.994h1.764v9h-1.98v-5.994l-4.59 5.994Zm4.662-11.052c-.564.54-1.272.81-2.124.81-.852 0-1.566-.27-2.142-.81-.564-.552-.846-1.278-.846-2.178v-.27h1.404v.27c0 .552.15.99.45 1.314.3.312.678.468 1.134.468.456 0 .834-.156 1.134-.468.3-.324.45-.762.45-1.314v-.27h1.404v.27c0 .9-.288 1.626-.864 2.178ZM757.088 280v-9h4.104c1.032 0 1.824.246 2.376.738.552.492.828 1.104.828 1.836 0 .636-.246 1.182-.738 1.638.876.468 1.314 1.176 1.314 2.124 0 .756-.27 1.392-.81 1.908-.54.504-1.356.756-2.448.756h-4.626Zm1.98-1.674h2.628c.396 0 .708-.096.936-.288.24-.204.36-.48.36-.828 0-.36-.12-.636-.36-.828-.228-.204-.54-.306-.936-.306h-2.628v2.25Zm0-3.69h2.196c.324 0 .594-.078.81-.234.228-.168.342-.432.342-.792 0-.672-.384-1.008-1.152-1.008h-2.196v2.034Zm11.606 5.544c-1.224 0-2.256-.456-3.096-1.368-.828-.912-1.242-2.016-1.242-3.312 0-1.296.414-2.4 1.242-3.312.84-.912 1.872-1.368 3.096-1.368a3.53 3.53 0 0 1 1.692.414c.516.264.912.588 1.188.972V271h1.98v9h-1.98v-1.206c-.276.384-.672.714-1.188.99a3.66 3.66 0 0 1-1.692.396Zm-1.566-2.628c.504.552 1.146.828 1.926.828s1.422-.276 1.926-.828c.504-.552.756-1.236.756-2.052 0-.816-.252-1.5-.756-2.052s-1.146-.828-1.926-.828-1.422.276-1.926.828c-.504.552-.756 1.236-.756 2.052 0 .816.252 1.5.756 2.052Zm9.109 2.448v-9h1.98v7.236h3.132V271h1.98v7.236h3.114V271h1.98v9h-12.186Zm18.831.18c-1.344 0-2.448-.438-3.312-1.314-.864-.888-1.296-2.01-1.296-3.366 0-1.356.426-2.472 1.278-3.348.852-.888 1.968-1.332 3.348-1.332 1.392 0 2.514.486 3.366 1.458.852.96 1.23 2.196 1.134 3.708h-7.164c.024.696.288 1.278.792 1.746.504.468 1.146.702 1.926.702 1.104 0 1.86-.42 2.268-1.26h2.07c-.276.876-.804 1.596-1.584 2.16-.78.564-1.722.846-2.826.846Zm-.036-7.704c-.648 0-1.206.186-1.674.558-.456.36-.75.876-.882 1.548h4.986c-.144-.696-.438-1.218-.882-1.566-.444-.36-.96-.54-1.548-.54ZM803.6 280v-9h5.904v1.764h-3.924V280h-1.98Zm14.693-1.17c-.9.9-2.016 1.35-3.348 1.35-1.332 0-2.454-.45-3.366-1.35-.9-.912-1.35-2.022-1.35-3.33 0-1.308.45-2.412 1.35-3.312.912-.912 2.034-1.368 3.366-1.368 1.332 0 2.448.456 3.348 1.368.912.9 1.368 2.004 1.368 3.312 0 1.308-.456 2.418-1.368 3.33Zm-3.348-.486c.78 0 1.422-.27 1.926-.81.516-.552.774-1.23.774-2.034 0-.804-.258-1.476-.774-2.016-.504-.552-1.146-.828-1.926-.828-.792 0-1.446.276-1.962.828-.504.54-.756 1.212-.756 2.016s.252 1.482.756 2.034c.516.54 1.17.81 1.962.81Zm15.3 1.836c-1.464 0-2.61-.48-3.438-1.44-.828-.96-1.242-2.244-1.242-3.852v-.72c0-2.232.42-3.894 1.26-4.986.852-1.092 2.178-1.812 3.978-2.16l3.258-.594v1.89l-2.826.504c-1.176.216-2.046.6-2.61 1.152-.552.552-.894 1.356-1.026 2.412.744-.864 1.734-1.296 2.97-1.296 1.32 0 2.382.426 3.186 1.278.804.84 1.206 1.872 1.206 3.096 0 1.32-.456 2.436-1.368 3.348-.9.912-2.016 1.368-3.348 1.368Zm-1.962-2.61c.504.516 1.152.774 1.944.774s1.44-.258 1.944-.774c.516-.528.774-1.218.774-2.07 0-.756-.258-1.386-.774-1.89-.504-.504-1.146-.756-1.926-.756-.792 0-1.44.258-1.944.774a2.581 2.581 0 0 0-.756 1.872c0 .852.246 1.542.738 2.07Zm10.461 2.43h-1.764v-9h1.98v5.994l4.59-5.994h1.764v9h-1.98v-5.994l-4.59 5.994Zm12.354.18c-.972 0-1.824-.234-2.556-.702-.732-.48-1.188-1.176-1.368-2.088h2.034c.264.768.894 1.152 1.89 1.152.552-.012.972-.132 1.26-.36.3-.228.45-.528.45-.9 0-.384-.138-.678-.414-.882-.276-.216-.666-.324-1.17-.324h-1.062v-1.458h1.026c.42 0 .75-.09.99-.27.24-.192.36-.468.36-.828 0-.348-.132-.618-.396-.81-.264-.204-.624-.306-1.08-.306-.9 0-1.464.366-1.692 1.098h-1.98c.18-.9.612-1.572 1.296-2.016.696-.444 1.5-.666 2.412-.666 1.068 0 1.89.252 2.466.756.576.492.864 1.092.864 1.8 0 .84-.324 1.47-.972 1.89.9.456 1.35 1.176 1.35 2.16 0 .744-.33 1.392-.99 1.944-.648.54-1.554.81-2.718.81Zm5.763-.18v-9h1.98v3.564h4.338V271h1.98v9h-1.98v-3.672h-4.338V280h-1.98Zm14.947.18c-1.344 0-2.448-.438-3.312-1.314-.864-.888-1.296-2.01-1.296-3.366 0-1.356.426-2.472 1.278-3.348.852-.888 1.968-1.332 3.348-1.332 1.392 0 2.514.486 3.366 1.458.852.96 1.23 2.196 1.134 3.708h-7.164c.024.696.288 1.278.792 1.746.504.468 1.146.702 1.926.702 1.104 0 1.86-.42 2.268-1.26h2.07c-.276.876-.804 1.596-1.584 2.16-.78.564-1.722.846-2.826.846Zm-.036-7.704c-.648 0-1.206.186-1.674.558-.456.36-.75.876-.882 1.548h4.986c-.144-.696-.438-1.218-.882-1.566-.444-.36-.96-.54-1.548-.54Zm10.655 7.704c-1.356 0-2.484-.45-3.384-1.35-.888-.912-1.332-2.022-1.332-3.33 0-1.308.444-2.412 1.332-3.312.9-.912 2.028-1.368 3.384-1.368 1.164 0 2.154.324 2.97.972a4.359 4.359 0 0 1 1.602 2.502h-2.088a2.391 2.391 0 0 0-.936-1.206c-.432-.312-.948-.468-1.548-.468-.792 0-1.44.27-1.944.81s-.756 1.23-.756 2.07c0 .84.252 1.53.756 2.07.504.54 1.152.81 1.944.81.6 0 1.116-.15 1.548-.45.444-.312.756-.72.936-1.224h2.088a4.359 4.359 0 0 1-1.602 2.502c-.816.648-1.806.972-2.97.972Zm10.134 0c-1.224 0-2.256-.456-3.096-1.368-.828-.912-1.242-2.016-1.242-3.312 0-1.296.414-2.4 1.242-3.312.84-.912 1.872-1.368 3.096-1.368a3.53 3.53 0 0 1 1.692.414c.516.264.912.588 1.188.972V271h1.98v9h-1.98v-1.206c-.276.384-.672.714-1.188.99a3.66 3.66 0 0 1-1.692.396Zm-1.566-2.628c.504.552 1.146.828 1.926.828s1.422-.276 1.926-.828c.504-.552.756-1.236.756-2.052 0-.816-.252-1.5-.756-2.052s-1.146-.828-1.926-.828-1.422.276-1.926.828c-.504.552-.756 1.236-.756 2.052 0 .816.252 1.5.756 2.052Z" fill="#fff"/></svg>