<svg width="361" height="181" fill="none" xmlns="http://www.w3.org/2000/svg"><path fill-rule="evenodd" clip-rule="evenodd" d="m294.39 48.372-.05-.05c-2.394-2.394-5.107-3.522-8.279-3.522h-244.4c-6.12 0-11.42-2.176-15.721-6.478-4.303-4.303-6.48-9.602-6.48-15.722 0-6.12 2.177-11.419 6.48-15.72C30.242 2.576 35.54.4 41.66.4h242.401c7.824 0 15.146 1.398 21.934 4.223 7.013 2.808 13.088 6.757 18.187 11.856 5.071 5.071 9.015 10.986 11.828 17.72 3.109 6.802 4.651 14.148 4.651 22.001 0 7.015-1.261 13.652-3.801 19.882-1.957 5.364-4.661 10.22-8.113 14.552 7.916 10.174 11.914 21.658 11.914 34.366 0 7.853-1.542 15.2-4.651 22.002-2.813 6.734-6.757 12.649-11.828 17.72-5.099 5.099-11.174 9.048-18.187 11.856-6.788 2.825-14.11 4.222-21.934 4.222h-242.4c-6.12 0-11.42-2.176-15.721-6.478-4.303-4.303-6.48-9.602-6.48-15.722 0-6.12 2.177-11.419 6.48-15.721 4.302-4.302 9.601-6.479 15.72-6.479h244.401c3.237 0 5.966-1.044 8.329-3.172 2.359-2.381 3.471-5.078 3.471-8.228 0-3.496-1.168-6.325-3.521-8.678-2.394-2.394-5.107-3.522-8.279-3.522h-198.8c-6.12 0-11.42-2.176-15.721-6.478-4.303-4.303-6.48-9.602-6.48-15.722 0-6.12 2.177-11.419 6.48-15.72 4.302-4.303 9.601-6.48 15.72-6.48h198.801c3.172 0 5.885-1.127 8.279-3.52 2.353-2.354 3.521-5.183 3.521-8.68 0-3.163-1.117-5.688-3.418-7.78l-.053-.048Zm2.071 87.028c-2.933 2.667-6.4 4-10.4 4h-244.4c-5.333 0-9.867 1.867-13.6 5.6-3.733 3.734-5.6 8.267-5.6 13.6 0 5.334 1.867 9.867 5.6 13.6 3.733 3.734 8.267 5.6 13.6 5.6h242.4c7.467 0 14.4-1.333 20.8-4 6.667-2.666 12.4-6.4 17.2-11.2 4.8-4.8 8.533-10.4 11.2-16.8 2.933-6.4 4.4-13.333 4.4-20.8 0-12.8-4.267-24.266-12.8-34.4 4-4.533 7.067-9.733 9.2-15.6 2.4-5.866 3.6-12.133 3.6-18.8 0-7.466-1.467-14.4-4.4-20.8-2.667-6.4-6.4-12-11.2-16.8-4.8-4.8-10.533-8.533-17.2-11.2-6.4-2.666-13.333-4-20.8-4h-242.4c-5.333 0-9.867 1.867-13.6 5.6-3.733 3.734-5.6 8.267-5.6 13.6 0 5.334 1.867 9.867 5.6 13.6 3.733 3.734 8.267 5.6 13.6 5.6h244.4c4 0 7.467 1.467 10.4 4.4 2.933 2.667 4.4 6 4.4 10 0 4.267-1.467 7.867-4.4 10.8-2.933 2.934-6.4 4.4-10.4 4.4h-198.8c-5.333 0-9.867 1.867-13.6 5.6-3.733 3.734-5.6 8.267-5.6 13.6 0 5.334 1.867 9.867 5.6 13.6 3.733 3.734 8.267 5.6 13.6 5.6h198.8c4 0 7.467 1.467 10.4 4.4 2.933 2.934 4.4 6.534 4.4 10.8 0 4-1.467 7.467-4.4 10.4Z" fill="#29FF7F" fill-opacity=".1"/><path d="M331.652 163.42c0-.327.117-.642.35-.945.84-1.237 1.785-2.275 2.835-3.115a13.43 13.43 0 0 1 3.605-2.065c1.354-.537 2.859-.922 4.515-1.155 1.657-.233 3.512-.35 5.565-.35h7.14v-1.82a.879.879 0 0 0-.35-.525c-.186-.163-.431-.245-.735-.245h-18.34a1.626 1.626 0 0 0-.875.42c-.233.233-.35.525-.35.875 0 .467-.163.863-.49 1.19-.326.327-.723.49-1.19.49a1.62 1.62 0 0 1-1.19-.49 1.623 1.623 0 0 1-.49-1.19c0-.653.129-1.26.385-1.82.257-.56.607-1.05 1.05-1.47.444-.42.957-.747 1.54-.98a4.553 4.553 0 0 1 1.855-.385h18.27c.514 0 1.027.117 1.54.35a4.1 4.1 0 0 1 1.365.91c.397.397.724.875.98 1.435.257.56.385 1.19.385 1.89v8.995c0 .467-.163.863-.49 1.19-.326.327-.723.49-1.19.49-.443 0-.84-.163-1.19-.49a1.623 1.623 0 0 1-.49-1.19v-4.27h-7.14a54.8 54.8 0 0 0-4.025.14c-1.236.07-2.415.28-3.535.63s-2.193.863-3.22 1.54c-1.003.677-1.983 1.61-2.94 2.8-.07.093-.175.21-.315.35-.163.14-.338.257-.525.35a1.39 1.39 0 0 1-.63.14 1.62 1.62 0 0 1-1.19-.49 1.623 1.623 0 0 1-.49-1.19Zm-27.333-5.005c0 .84.047 1.482.14 1.925.093.443.315.665.665.665.187 0 .42-.07.7-.21.303-.163.677-.373 1.12-.63l16.03-9.8c.257-.163.537-.292.84-.385.327-.093.653-.14.98-.14.957 0 1.75.327 2.38.98.653.653.98 1.458.98 2.415v10.185c0 .467-.163.863-.49 1.19-.327.327-.723.49-1.19.49-.467 0-.863-.163-1.19-.49a1.619 1.619 0 0 1-.49-1.19v-6.895c0-.84-.047-1.482-.14-1.925-.093-.443-.315-.665-.665-.665-.187 0-.432.082-.735.245-.28.14-.642.338-1.085.595l-16.03 9.8a3.316 3.316 0 0 1-.875.385c-.303.093-.618.14-.945.14-.957 0-1.762-.327-2.415-.98-.63-.653-.945-1.458-.945-2.415V151.52c0-.467.163-.863.49-1.19.327-.327.723-.49 1.19-.49.467 0 .863.163 1.19.49.327.327.49.723.49 1.19v6.895Zm-6.853 5.005c0 .467-.164.863-.49 1.19a1.62 1.62 0 0 1-1.19.49c-.467 0-.864-.163-1.19-.49a1.619 1.619 0 0 1-.49-1.19v-4.27h-20.685v4.27c0 .467-.164.863-.49 1.19a1.62 1.62 0 0 1-1.19.49c-.467 0-.864-.163-1.19-.49a1.619 1.619 0 0 1-.49-1.19v-11.9c0-.467.163-.863.49-1.19.326-.327.723-.49 1.19-.49.466 0 .863.163 1.19.49.326.327.49.723.49 1.19v4.27h20.685v-4.27c0-.467.163-.863.49-1.19.326-.327.723-.49 1.19-.49.466 0 .863.163 1.19.49.326.327.49.723.49 1.19v11.9Zm-59.09-11.9c0-.467.163-.863.49-1.19.327-.327.723-.49 1.19-.49h24.815c.467 0 .863.163 1.19.49.327.327.49.723.49 1.19 0 .467-.163.863-.49 1.19-.327.327-.723.49-1.19.49h-24.815c-.467 0-.863-.163-1.19-.49a1.619 1.619 0 0 1-.49-1.19Zm4.27 13.58a4.04 4.04 0 0 1-1.54-.315 4.612 4.612 0 0 1-1.365-.945 4.886 4.886 0 0 1-.98-1.435c-.257-.56-.385-1.19-.385-1.89v-3.15c0-.63.175-1.05.525-1.26.373-.21.945-.315 1.715-.315h23.485c.467 0 .863.163 1.19.49.327.327.49.723.49 1.19 0 .467-.163.863-.49 1.19-.327.327-.723.49-1.19.49h-22.365v1.715a.87.87 0 0 0 .28.63c.21.163.478.245.805.245h22.05c.467 0 .863.163 1.19.49.327.327.49.723.49 1.19 0 .467-.163.863-.49 1.19-.327.327-.723.49-1.19.49h-22.225Zm-9.46 0h-.245a3.412 3.412 0 0 0-.245-.07c-1.027-.21-2.03-.56-3.01-1.05a12.241 12.241 0 0 1-2.625-1.75 8.774 8.774 0 0 1-1.855-2.24c-.467-.84-.7-1.68-.7-2.52 0-.84.233-1.668.7-2.485a8.774 8.774 0 0 1 1.855-2.24c.77-.7 1.645-1.295 2.625-1.785s1.983-.84 3.01-1.05c.093-.023.175-.035.245-.035a.782.782 0 0 1 .245-.035c.466 0 .863.163 1.19.49.326.327.49.723.49 1.19 0 .443-.152.817-.455 1.12a2.32 2.32 0 0 1-1.12.56c-.724.163-1.412.397-2.065.7a9.088 9.088 0 0 0-1.75 1.05c-.49.373-.887.782-1.19 1.225-.28.42-.42.852-.42 1.295 0 .443.14.887.42 1.33.303.443.7.863 1.19 1.26.513.373 1.096.712 1.75 1.015a8.9 8.9 0 0 0 2.065.665c.443.093.816.292 1.12.595.303.28.455.642.455 1.085 0 .467-.164.863-.49 1.19a1.62 1.62 0 0 1-1.19.49Zm-14.56-1.89v-12.145c0-.537.198-1.015.595-1.435a1.94 1.94 0 0 1 1.47-.63c.56 0 1.038.21 1.435.63.396.42.606.898.63 1.435l-.035 12.32c0 .49-.199.945-.595 1.365-.397.42-.875.63-1.435.63a1.94 1.94 0 0 1-1.47-.63c-.397-.42-.595-.933-.595-1.54Zm-10.22 1.89c-.467 0-.864-.163-1.19-.49a1.619 1.619 0 0 1-.49-1.19c0-.443.151-.805.455-1.085a2.178 2.178 0 0 1 1.12-.595 8.931 8.931 0 0 0 2.065-.665 9.253 9.253 0 0 0 1.715-1.015c.513-.397.91-.817 1.19-1.26.303-.443.455-.887.455-1.33 0-.443-.152-.875-.455-1.295-.28-.443-.677-.852-1.19-1.225a8.177 8.177 0 0 0-1.715-1.05 10.27 10.27 0 0 0-2.065-.7 2.311 2.311 0 0 1-1.12-.56 1.52 1.52 0 0 1-.455-1.12c0-.467.163-.863.49-1.19.326-.327.723-.49 1.19-.49.093 0 .175.012.245.035.07 0 .151.012.245.035 1.026.21 2.03.56 3.01 1.05s1.855 1.085 2.625 1.785a8.795 8.795 0 0 1 1.855 2.24c.466.817.7 1.645.7 2.485 0 .84-.234 1.68-.7 2.52a8.795 8.795 0 0 1-1.855 2.24c-.77.677-1.645 1.26-2.625 1.75s-1.984.84-3.01 1.05a3.268 3.268 0 0 0-.245.07h-.245Zm-29.014-6.685c0 .84.047 1.482.14 1.925.094.443.315.665.665.665.187 0 .42-.07.7-.21.304-.163.677-.373 1.12-.63l16.03-9.8c.257-.163.537-.292.84-.385a3.57 3.57 0 0 1 .98-.14c.957 0 1.75.327 2.38.98.654.653.98 1.458.98 2.415v10.185c0 .467-.163.863-.49 1.19-.326.327-.723.49-1.19.49a1.62 1.62 0 0 1-1.19-.49 1.623 1.623 0 0 1-.49-1.19v-6.895c0-.84-.046-1.482-.14-1.925-.093-.443-.315-.665-.665-.665-.186 0-.431.082-.735.245-.28.14-.641.338-1.085.595l-16.03 9.8a3.302 3.302 0 0 1-.875.385c-.303.093-.618.14-.945.14-.956 0-1.761-.327-2.415-.98-.63-.653-.945-1.458-.945-2.415V151.52c0-.467.164-.863.49-1.19a1.62 1.62 0 0 1 1.19-.49c.467 0 .864.163 1.19.49.327.327.49.723.49 1.19v6.895Zm-30.864 3.325h19.425c.35 0 .653-.128.91-.385.28-.257.42-.56.42-.91 0-.373-.14-.677-.42-.91a1.243 1.243 0 0 0-.91-.385h-19.425v2.59Zm0-8.54v2.59h19.46c.35 0 .653-.117.91-.35.257-.233.385-.537.385-.91 0-.35-.14-.653-.42-.91-.257-.28-.56-.42-.91-.42h-19.425Zm-1.68 11.9c-.467 0-.863-.163-1.19-.49a1.619 1.619 0 0 1-.49-1.19v-11.9c0-.467.163-.863.49-1.19.327-.327.723-.49 1.19-.49h20.965c.653 0 1.26.128 1.82.385.583.233 1.085.56 1.505.98.443.42.782.922 1.015 1.505.257.56.385 1.167.385 1.82 0 .583-.105 1.132-.315 1.645-.187.49-.443.933-.77 1.33.327.397.583.852.77 1.365.21.49.315 1.015.315 1.575 0 .653-.128 1.26-.385 1.82a4.262 4.262 0 0 1-1.015 1.47c-.42.42-.922.758-1.505 1.015-.56.233-1.167.35-1.82.35h-20.965Zm-22.351-1.365c0-.607.21-1.12.63-1.54.42-.42.933-.63 1.54-.63.606 0 1.12.21 1.54.63.42.42.63.933.63 1.54s-.21 1.12-.63 1.54c-.42.42-.934.63-1.54.63-.607 0-1.12-.21-1.54-.63-.42-.42-.63-.933-.63-1.54Zm-5.425-1.19h.875c.466 0 .863.163 1.19.49.326.327.49.723.49 1.19 0 .467-.164.863-.49 1.19a1.62 1.62 0 0 1-1.19.49h-7.455a1.774 1.774 0 0 1-1.085-.525 1.64 1.64 0 0 1-.455-1.155c0-.467.163-.863.49-1.19.326-.327.723-.49 1.19-.49h2.275l8.225-10.99c.42-.537.933-.957 1.54-1.26a4.546 4.546 0 0 1 1.995-.455c.746 0 1.435.175 2.065.525.653.327 1.19.758 1.61 1.295l8.085 10.885h2.1c.466 0 .863.163 1.19.49.326.327.49.723.49 1.19 0 .467-.164.863-.49 1.19a1.62 1.62 0 0 1-1.19.49h-7.455a1.774 1.774 0 0 1-1.085-.525 1.64 1.64 0 0 1-.455-1.155c0-.467.163-.863.49-1.19.326-.327.723-.49 1.19-.49h1.05l-6.265-8.295a3.574 3.574 0 0 0-.595-.595c-.234-.233-.479-.35-.735-.35-.257 0-.514.117-.77.35-.234.21-.432.408-.595.595l-6.23 8.295Zm-18.693-.805c.794 0 1.447-.14 1.96-.42.514-.303.91-.665 1.19-1.085a3.38 3.38 0 0 0 .595-1.365c.117-.513.175-.98.175-1.4a5.9 5.9 0 0 0-.175-1.365 3.389 3.389 0 0 0-.595-1.4c-.28-.42-.676-.77-1.19-1.05-.513-.303-1.166-.455-1.96-.455h-14.14c-.816 0-1.481.152-1.995.455-.49.28-.886.63-1.19 1.05-.28.42-.478.887-.595 1.4-.093.49-.14.945-.14 1.365 0 .42.047.887.14 1.4.117.49.316.945.596 1.365.303.42.7.782 1.19 1.085.513.28 1.178.42 1.995.42h14.139Zm7.175-4.27c0 .887-.151 1.785-.455 2.695-.28.887-.7 1.703-1.26 2.45a7.089 7.089 0 0 1-2.03 1.785c-.793.467-1.691.7-2.695.7h-15.96c-.956-.047-1.808-.303-2.554-.77a7.517 7.517 0 0 1-1.925-1.82 8.624 8.624 0 0 1-1.19-2.415 8.687 8.687 0 0 1-.42-2.625c0-.887.14-1.773.42-2.66a8.201 8.201 0 0 1 1.294-2.45 6.87 6.87 0 0 1 2.03-1.82c.794-.467 1.692-.7 2.695-.7h15.96c.957.047 1.809.315 2.555.805a6.561 6.561 0 0 1 1.89 1.785 8.113 8.113 0 0 1 1.225 2.415c.28.887.42 1.762.42 2.625ZM51.56 153.2v2.59h19.425c.35 0 .653-.117.91-.35.28-.257.42-.572.42-.945 0-.35-.14-.653-.42-.91a1.243 1.243 0 0 0-.91-.385H51.56Zm19.285-3.36c.654 0 1.26.128 1.82.385.584.233 1.085.56 1.505.98.444.42.782.91 1.015 1.47.257.56.385 1.167.385 1.82s-.128 1.26-.385 1.82a4.262 4.262 0 0 1-1.015 1.47c-.42.42-.921.758-1.505 1.015a4.69 4.69 0 0 1-1.82.35H51.56v4.27c0 .467-.175.863-.525 1.19-.326.327-.711.49-1.155.49-.467 0-.863-.163-1.19-.49a1.62 1.62 0 0 1-.49-1.19v-11.9c0-.467.163-.863.49-1.19a1.62 1.62 0 0 1 1.19-.49h20.965Zm-29.503 7.63c0-.42-.059-.875-.175-1.365a3.4 3.4 0 0 0-.595-1.4c-.28-.42-.677-.77-1.19-1.05-.514-.303-1.167-.455-1.96-.455H24.787c-.817 0-1.482.152-1.995.455-.49.28-.887.63-1.19 1.05-.28.42-.479.887-.595 1.4a7.27 7.27 0 0 0-.14 1.365v5.95c0 .467-.164.863-.49 1.19-.327.327-.723.49-1.19.49-.467 0-.864-.163-1.19-.49a1.62 1.62 0 0 1-.49-1.19v-5.95c0-.887.14-1.773.42-2.66a8.204 8.204 0 0 1 1.295-2.45 6.871 6.871 0 0 1 2.03-1.82c.793-.467 1.692-.7 2.695-.7h14.665c.956.047 1.808.315 2.555.805a6.569 6.569 0 0 1 1.89 1.785 8.12 8.12 0 0 1 1.225 2.415c.28.887.42 1.762.42 2.625v5.95c0 .467-.163.863-.49 1.19a1.62 1.62 0 0 1-1.19.49c-.467 0-.864-.163-1.19-.49a1.62 1.62 0 0 1-.49-1.19v-5.95ZM232.64 90.24h9.94l-3.605-4.83a5.24 5.24 0 0 0-.63-.595c-.233-.233-.478-.35-.735-.35s-.513.117-.77.35a4.27 4.27 0 0 0-.56.595l-3.64 4.83Zm12.46 3.36h-15.015l-2.03 2.73c-.35.42-.782.63-1.295.63a1.62 1.62 0 0 1-1.19-.49 1.619 1.619 0 0 1-.49-1.19c0-.42.117-.758.35-1.015l8.505-11.445a4.326 4.326 0 0 1 1.575-1.295 4.378 4.378 0 0 1 2.1-.525c.7 0 1.365.152 1.995.455.63.303 1.143.723 1.54 1.26l8.505 11.375c.14.163.257.35.35.56.093.187.14.397.14.63 0 .467-.163.863-.49 1.19a1.62 1.62 0 0 1-1.19.49c-.56 0-1.003-.222-1.33-.665L245.1 93.6Zm-47.559-5.95h8.085c1.213 0 2.403-.151 3.57-.455a22.009 22.009 0 0 0 3.395-1.26 24.687 24.687 0 0 0 3.185-1.75 59.251 59.251 0 0 0 2.94-1.995c.396-.326.793-.49 1.19-.49.466 0 .863.163 1.19.49.326.327.49.724.49 1.19 0 .327-.094.619-.28.875a3.456 3.456 0 0 1-.665.63c-.607.467-1.19.91-1.75 1.33-.56.397-1.12.77-1.68 1.12-.56.35-1.144.689-1.75 1.015-.584.327-1.214.654-1.89.98.676.327 1.306.654 1.89.98.606.327 1.19.665 1.75 1.015.56.35 1.12.735 1.68 1.155.56.397 1.143.828 1.75 1.295.256.187.478.408.665.665.186.234.28.514.28.84 0 .467-.164.864-.49 1.19a1.62 1.62 0 0 1-1.19.49c-.397 0-.794-.163-1.19-.49a55.828 55.828 0 0 0-2.975-2.03 25.94 25.94 0 0 0-3.15-1.75 19.694 19.694 0 0 0-3.395-1.225 14.135 14.135 0 0 0-3.57-.455h-8.085v4.27c0 .467-.164.864-.49 1.19a1.58 1.58 0 0 1-1.155.49c-.467 0-.864-.163-1.19-.49a1.619 1.619 0 0 1-.49-1.19v-11.9c0-.466.163-.863.49-1.19a1.58 1.58 0 0 1 1.155-.49c.466 0 .863.163 1.19.49.326.327.49.724.49 1.19v4.27Zm-30.659 2.625c0 .84.047 1.482.14 1.925.094.444.315.665.665.665.187 0 .42-.07.7-.21.304-.163.677-.373 1.12-.63l16.03-9.8a3.49 3.49 0 0 1 .84-.385 3.56 3.56 0 0 1 .98-.14c.957 0 1.75.327 2.38.98.654.653.98 1.458.98 2.415V95.28c0 .467-.163.864-.49 1.19-.326.327-.723.49-1.19.49a1.62 1.62 0 0 1-1.19-.49 1.623 1.623 0 0 1-.49-1.19v-6.895c0-.84-.046-1.482-.14-1.925-.093-.443-.315-.665-.665-.665-.186 0-.431.082-.735.245-.28.14-.641.338-1.085.595l-16.03 9.8a3.302 3.302 0 0 1-.875.385 3.17 3.17 0 0 1-.945.14c-.956 0-1.761-.326-2.415-.98-.63-.653-.945-1.458-.945-2.415V83.38c0-.466.164-.863.49-1.19.327-.326.724-.49 1.19-.49.467 0 .864.163 1.19.49.327.327.49.724.49 1.19v6.895Zm-24.031 5.32c0-.606.21-1.12.63-1.54.42-.42.933-.63 1.54-.63s1.12.21 1.54.63c.42.42.63.933.63 1.54s-.21 1.12-.63 1.54c-.42.42-.933.63-1.54.63s-1.12-.21-1.54-.63c-.42-.42-.63-.933-.63-1.54Zm-5.425-1.19h.875c.467 0 .863.163 1.19.49.327.327.49.724.49 1.19 0 .467-.163.864-.49 1.19a1.62 1.62 0 0 1-1.19.49h-7.455a1.77 1.77 0 0 1-1.085-.525 1.643 1.643 0 0 1-.455-1.155c0-.466.163-.863.49-1.19a1.62 1.62 0 0 1 1.19-.49h2.275l8.225-10.99c.42-.537.933-.957 1.54-1.26a4.542 4.542 0 0 1 1.995-.455 4.18 4.18 0 0 1 2.065.525c.653.327 1.19.759 1.61 1.295l8.085 10.885h2.1c.467 0 .863.163 1.19.49.327.327.49.724.49 1.19 0 .467-.163.864-.49 1.19a1.62 1.62 0 0 1-1.19.49h-7.455a1.77 1.77 0 0 1-1.085-.525 1.643 1.643 0 0 1-.455-1.155c0-.466.163-.863.49-1.19a1.62 1.62 0 0 1 1.19-.49h1.05l-6.265-8.295a3.547 3.547 0 0 0-.595-.595c-.233-.233-.478-.35-.735-.35s-.513.117-.77.35c-.233.21-.432.409-.595.595l-6.23 8.295Zm-18.692-.805c.793 0 1.447-.14 1.96-.42.513-.303.91-.665 1.19-1.085.303-.42.502-.875.595-1.365.117-.513.175-.98.175-1.4a5.9 5.9 0 0 0-.175-1.365 3.4 3.4 0 0 0-.595-1.4c-.28-.42-.677-.77-1.19-1.05-.513-.303-1.167-.455-1.96-.455h-14.14c-.817 0-1.482.152-1.995.455-.49.28-.887.63-1.19 1.05a4.17 4.17 0 0 0-.595 1.4c-.093.49-.14.945-.14 1.365 0 .42.047.887.14 1.4a4.2 4.2 0 0 0 .595 1.365c.303.42.7.782 1.19 1.085.513.28 1.178.42 1.995.42h14.14Zm7.175-4.27c0 .887-.152 1.785-.455 2.695-.28.887-.7 1.703-1.26 2.45a7.093 7.093 0 0 1-2.03 1.785c-.793.467-1.692.7-2.695.7h-15.96c-.957-.046-1.808-.303-2.555-.77a7.51 7.51 0 0 1-1.925-1.82 8.635 8.635 0 0 1-1.19-2.415 8.684 8.684 0 0 1-.42-2.625c0-.886.14-1.773.42-2.66a8.207 8.207 0 0 1 1.295-2.45 6.875 6.875 0 0 1 2.03-1.82c.793-.467 1.692-.7 2.695-.7h15.96c.957.047 1.808.315 2.555.805a6.553 6.553 0 0 1 1.89 1.785 8.12 8.12 0 0 1 1.225 2.415c.28.887.42 1.762.42 2.625ZM92.246 81.7c.467 0 .864.163 1.19.49.327.327.49.724.49 1.19 0 .444-.151.829-.455 1.155a1.771 1.771 0 0 1-1.085.525h-7.035c-.7.047-1.283.222-1.75.525a3.23 3.23 0 0 0-1.05 1.05c-.256.42-.431.875-.525 1.365-.093.49-.14.933-.14 1.33v5.95c0 .467-.163.864-.49 1.19a1.62 1.62 0 0 1-1.19.49 1.62 1.62 0 0 1-1.19-.49 1.62 1.62 0 0 1-.49-1.19v-5.95c0-.723.094-1.447.28-2.17a8.24 8.24 0 0 1 .84-2.1h-11.48a1.62 1.62 0 0 1-1.19-.49 1.62 1.62 0 0 1-.49-1.19c0-.466.164-.863.49-1.19a1.62 1.62 0 0 1 1.19-.49h24.08Zm-57.444 1.68c0-.466.163-.863.49-1.19a1.62 1.62 0 0 1 1.19-.49h24.815c.466 0 .863.163 1.19.49.326.327.49.724.49 1.19 0 .467-.164.864-.49 1.19a1.62 1.62 0 0 1-1.19.49H36.482a1.62 1.62 0 0 1-1.19-.49 1.62 1.62 0 0 1-.49-1.19Zm4.27 13.58a4.04 4.04 0 0 1-1.54-.315 4.612 4.612 0 0 1-1.365-.945 4.88 4.88 0 0 1-.98-1.435c-.257-.56-.385-1.19-.385-1.89v-3.15c0-.63.175-1.05.525-1.26.373-.21.945-.315 1.715-.315h23.485c.466 0 .863.163 1.19.49.326.327.49.724.49 1.19 0 .467-.164.864-.49 1.19a1.62 1.62 0 0 1-1.19.49H38.162v1.715a.87.87 0 0 0 .28.63c.21.163.478.245.805.245h22.05c.466 0 .863.163 1.19.49.326.327.49.724.49 1.19 0 .467-.164.864-.49 1.19a1.62 1.62 0 0 1-1.19.49H39.072Zm-7.782-1.68c0 .467-.163.864-.49 1.19a1.62 1.62 0 0 1-1.19.49 1.62 1.62 0 0 1-1.19-.49 1.62 1.62 0 0 1-.49-1.19v-7.63c0-.957-.058-1.435-.175-1.435-.093 0-.42.315-.98.945l-7.7 8.75c-.303.35-.677.618-1.12.805a4.12 4.12 0 0 1-1.435.245 4.12 4.12 0 0 1-1.435-.245 2.999 2.999 0 0 1-1.12-.805l-7.7-8.75c-.537-.63-.863-.945-.98-.945-.117 0-.175.478-.175 1.435v7.63c0 .467-.163.864-.49 1.19a1.62 1.62 0 0 1-1.19.49 1.62 1.62 0 0 1-1.19-.49 1.62 1.62 0 0 1-.49-1.19V85.06c0-.933.268-1.727.805-2.38.537-.653 1.272-.98 2.205-.98.56 0 1.062.14 1.505.42.443.28.852.618 1.225 1.015l8.05 9.17c.117.117.257.245.42.385.187.117.373.175.56.175a.886.886 0 0 0 .525-.175 4.29 4.29 0 0 0 .455-.385l8.015-9.17h.035a3.654 3.654 0 0 1 1.19-1.05 3.15 3.15 0 0 1 1.54-.385c.933 0 1.668.327 2.205.98.537.653.805 1.447.805 2.38v10.22Zm272.848-67.515c0-.326.116-.641.35-.945.84-1.236 1.785-2.274 2.835-3.114a13.418 13.418 0 0 1 3.605-2.066c1.353-.536 2.858-.921 4.515-1.155 1.656-.233 3.511-.35 5.565-.35h7.14v-1.82a.888.888 0 0 0-.35-.524c-.187-.164-.432-.245-.735-.245h-18.34a1.615 1.615 0 0 0-.875.42c-.234.233-.35.524-.35.874 0 .467-.164.864-.49 1.19a1.62 1.62 0 0 1-1.19.49c-.467 0-.864-.163-1.19-.49a1.619 1.619 0 0 1-.49-1.19c0-.653.128-1.26.385-1.82.256-.56.606-1.05 1.05-1.47.443-.42.956-.746 1.54-.98a4.553 4.553 0 0 1 1.855-.385h18.27c.513 0 1.026.117 1.54.35.513.21.968.514 1.365.91.396.397.723.875.98 1.436.256.56.385 1.19.385 1.89v8.994c0 .467-.164.864-.49 1.19a1.62 1.62 0 0 1-1.19.49c-.444 0-.84-.163-1.19-.49a1.619 1.619 0 0 1-.49-1.19v-4.27h-7.14a54.78 54.78 0 0 0-4.025.14c-1.237.07-2.415.28-3.535.63a12.73 12.73 0 0 0-3.22 1.54c-1.004.677-1.984 1.61-2.94 2.8-.07.094-.175.21-.315.35-.164.14-.339.257-.525.35a1.39 1.39 0 0 1-.63.14c-.467 0-.864-.163-1.19-.49a1.619 1.619 0 0 1-.49-1.19Zm-21.015-5.04h9.94l-3.605-4.83a5.24 5.24 0 0 0-.63-.595c-.233-.233-.478-.35-.735-.35-.256 0-.513.117-.77.35-.233.21-.42.409-.56.595l-3.64 4.83Zm12.46 3.36h-15.015l-2.03 2.73c-.35.42-.781.63-1.295.63a1.62 1.62 0 0 1-1.19-.49 1.623 1.623 0 0 1-.49-1.19c0-.42.117-.758.35-1.015l8.505-11.445a4.325 4.325 0 0 1 1.575-1.295 4.384 4.384 0 0 1 2.1-.525c.7 0 1.365.152 1.995.455.63.304 1.144.724 1.54 1.26l8.505 11.375c.14.164.257.35.35.56.094.187.14.397.14.63 0 .467-.163.864-.49 1.19-.326.327-.723.49-1.19.49-.56 0-1.003-.221-1.33-.665l-2.03-2.695Zm-23.513 1.68c0 .467-.163.864-.49 1.19a1.62 1.62 0 0 1-1.19.49 1.62 1.62 0 0 1-1.19-.49 1.619 1.619 0 0 1-.49-1.19v-4.27h-20.685v4.27c0 .467-.163.864-.49 1.19a1.62 1.62 0 0 1-1.19.49 1.62 1.62 0 0 1-1.19-.49 1.619 1.619 0 0 1-.49-1.19v-11.9c0-.466.163-.863.49-1.19a1.62 1.62 0 0 1 1.19-.49c.467 0 .863.164 1.19.49.327.327.49.724.49 1.19v4.27h20.685v-4.27c0-.466.163-.863.49-1.19a1.62 1.62 0 0 1 1.19-.49c.467 0 .863.164 1.19.49.327.327.49.724.49 1.19v11.9Zm-35.484-1.68c.35 0 .653-.128.91-.384.28-.257.42-.56.42-.91 0-.374-.14-.677-.42-.91a1.245 1.245 0 0 0-.91-.386h-19.425v2.59h19.425Zm-21.105 3.36c-.467 0-.864-.163-1.19-.49a1.619 1.619 0 0 1-.49-1.19v-11.9c0-.466.163-.863.49-1.19.326-.326.723-.49 1.19-.49.443 0 .828.164 1.155.49.35.327.525.724.525 1.19v4.27h19.285c.653 0 1.26.129 1.82.385.583.234 1.085.56 1.505.98.443.42.781.91 1.015 1.47.256.56.385 1.167.385 1.82 0 .654-.129 1.26-.385 1.82a4.276 4.276 0 0 1-1.015 1.47c-.42.42-.922.759-1.505 1.016-.56.233-1.167.35-1.82.35h-20.965Zm-27.279-.63c-.35.42-.782.63-1.295.63-.467 0-.864-.163-1.19-.49a1.619 1.619 0 0 1-.49-1.19c0-.42.116-.758.35-1.015l8.505-11.445c.396-.536.921-.968 1.575-1.295a4.378 4.378 0 0 1 2.1-.525c.7 0 1.365.152 1.995.455.63.304 1.143.724 1.54 1.26l8.505 11.375c.14.164.256.35.35.56.093.187.14.397.14.63 0 .467-.164.864-.49 1.19a1.62 1.62 0 0 1-1.19.49c-.56 0-1.004-.221-1.33-.665l-8.155-10.885a5.395 5.395 0 0 0-.63-.595c-.234-.233-.479-.35-.735-.35-.257 0-.514.117-.77.35-.234.21-.42.409-.56.595l-8.225 10.92Zm-23.99-6.09h9.94l-3.605-4.83a5.24 5.24 0 0 0-.63-.595c-.233-.233-.478-.35-.735-.35-.256 0-.513.117-.77.35-.233.21-.42.409-.56.595l-3.64 4.83Zm12.46 3.36h-15.015l-2.03 2.73c-.35.42-.781.63-1.295.63a1.62 1.62 0 0 1-1.19-.49 1.623 1.623 0 0 1-.49-1.19c0-.42.117-.758.35-1.015l8.505-11.445a4.325 4.325 0 0 1 1.575-1.295 4.384 4.384 0 0 1 2.1-.525c.7 0 1.365.152 1.995.455.63.304 1.144.724 1.54 1.26l8.505 11.375c.14.164.257.35.35.56.094.187.14.397.14.63 0 .467-.163.864-.49 1.19-.326.327-.723.49-1.19.49-.56 0-1.003-.221-1.33-.665l-2.03-2.695Zm-47.559-5.949h8.085a14.13 14.13 0 0 0 3.57-.456 21.95 21.95 0 0 0 3.395-1.26 24.608 24.608 0 0 0 3.185-1.75 58.329 58.329 0 0 0 2.94-1.995c.397-.326.793-.49 1.19-.49.467 0 .863.164 1.19.49.327.327.49.724.49 1.19 0 .327-.093.619-.28.876a3.42 3.42 0 0 1-.665.63c-.607.466-1.19.91-1.75 1.33-.56.396-1.12.77-1.68 1.12-.56.35-1.143.688-1.75 1.014-.583.327-1.213.654-1.89.98.677.327 1.307.654 1.89.98.607.327 1.19.665 1.75 1.015.56.35 1.12.736 1.68 1.155.56.397 1.143.829 1.75 1.296.257.186.478.408.665.665a1.3 1.3 0 0 1 .28.84c0 .466-.163.863-.49 1.19a1.62 1.62 0 0 1-1.19.49c-.397 0-.793-.164-1.19-.49a55.484 55.484 0 0 0-2.975-2.03 25.804 25.804 0 0 0-3.15-1.75 19.672 19.672 0 0 0-3.395-1.225 14.135 14.135 0 0 0-3.57-.456h-8.085v4.27c0 .467-.163.864-.49 1.19a1.58 1.58 0 0 1-1.155.49 1.62 1.62 0 0 1-1.19-.49 1.619 1.619 0 0 1-.49-1.19v-11.9c0-.466.163-.863.49-1.19.327-.326.712-.49 1.155-.49.467 0 .863.164 1.19.49.327.327.49.724.49 1.19v4.27ZM98.455 22.76c0 .84.046 1.482.14 1.925.093.444.315.666.665.666.186 0 .42-.07.7-.21a49.3 49.3 0 0 0 1.12-.63l16.03-9.8a3.42 3.42 0 0 1 .84-.386 3.56 3.56 0 0 1 .98-.14c.956 0 1.75.327 2.38.98.653.654.98 1.459.98 2.416v10.184c0 .467-.164.864-.49 1.19a1.62 1.62 0 0 1-1.19.49c-.467 0-.864-.163-1.19-.49a1.619 1.619 0 0 1-.49-1.19V20.87c0-.84-.047-1.481-.14-1.925-.094-.443-.315-.665-.665-.665-.187 0-.432.082-.735.245-.28.14-.642.339-1.085.596l-16.03 9.8a3.32 3.32 0 0 1-.875.384 3.18 3.18 0 0 1-.945.14c-.957 0-1.762-.326-2.415-.98-.63-.653-.945-1.458-.945-2.415V15.867c0-.467.163-.864.49-1.19a1.62 1.62 0 0 1 1.19-.49c.466 0 .863.163 1.19.49.326.326.49.723.49 1.19v6.895Zm-6.854 5.005c0 .467-.163.864-.49 1.19a1.62 1.62 0 0 1-1.19.49 1.62 1.62 0 0 1-1.19-.49 1.62 1.62 0 0 1-.49-1.19v-4.27H67.556v4.27c0 .467-.163.864-.49 1.19a1.62 1.62 0 0 1-1.19.49 1.62 1.62 0 0 1-1.19-.49 1.62 1.62 0 0 1-.49-1.19v-11.9c0-.466.164-.863.49-1.19a1.62 1.62 0 0 1 1.19-.49c.467 0 .864.164 1.19.49.327.327.49.724.49 1.19v4.27h20.685v-4.27c0-.466.164-.863.49-1.19a1.62 1.62 0 0 1 1.19-.49c.467 0 .864.164 1.19.49.327.327.49.724.49 1.19v11.9ZM57.343 22.06h-19.25a4.949 4.949 0 0 1-1.855-.35 5.355 5.355 0 0 1-1.54-1.015 4.708 4.708 0 0 1-1.05-1.47 4.316 4.316 0 0 1-.385-1.82V15.76c0-.467.164-.863.49-1.19a1.62 1.62 0 0 1 1.19-.49c.467 0 .864.163 1.19.49.327.327.49.723.49 1.19v1.645c0 .373.129.688.385.945.28.233.595.35.945.35h19.39v-2.94c0-.467.164-.863.49-1.19a1.62 1.62 0 0 1 1.19-.49c.467 0 .864.163 1.19.49.327.327.49.723.49 1.19v6.44c0 .117-.011.233-.035.35a9.81 9.81 0 0 1-.42 1.96 8.308 8.308 0 0 1-1.295 2.415 7.133 7.133 0 0 1-2.1 1.82c-.816.467-1.726.7-2.73.7h-15.82a5.468 5.468 0 0 1-2.275-.49 6.152 6.152 0 0 1-1.855-1.33 5.942 5.942 0 0 1-1.26-1.855c-.233-1.097-.175-1.808.175-2.135a1.58 1.58 0 0 1 1.155-.49c.467 0 .864.163 1.19.49.327.327.549.735.665 1.225.117.467.724.805 1.82 1.015.444.14.91.21 1.4.21h14.105c.77 0 1.4-.128 1.89-.385.514-.257.922-.583 1.225-.98.28-.397.479-.828.595-1.295.14-.467.21-.91.21-1.33v-.035ZM3.618 121.176h2.296c.999 0 1.806.257 2.422.77.625.513.938 1.227.938 2.142 0 .905-.313 1.619-.938 2.142-.616.513-1.423.77-2.422.77H2.316v-9.94H8.35v1.232H3.618v2.884Zm4.354 2.912c0-.551-.177-.971-.532-1.26-.355-.299-.863-.448-1.526-.448H3.618v3.416h2.296c.663 0 1.171-.149 1.526-.448.355-.299.532-.719.532-1.26Zm5.88 3.052c-1.017 0-1.862-.345-2.534-1.036-.662-.691-.994-1.559-.994-2.604 0-1.055.322-1.923.966-2.604.654-.691 1.517-1.036 2.59-1.036 1.083 0 1.932.383 2.548 1.148.616.765.887 1.703.812 2.814h-5.698c.019.635.252 1.167.7 1.596.448.42.99.63 1.624.63.952 0 1.629-.392 2.03-1.176h1.232c-.177.653-.555 1.195-1.134 1.624-.578.429-1.292.644-2.142.644Zm1.372-5.712c-.382-.336-.844-.504-1.386-.504-.541 0-1.026.163-1.456.49-.42.327-.681.812-.784 1.456h4.368c-.112-.635-.359-1.115-.742-1.442Zm6.862 5.712c-1.055 0-1.928-.35-2.618-1.05-.69-.709-1.036-1.573-1.036-2.59s.345-1.876 1.036-2.576c.69-.709 1.563-1.064 2.618-1.064.868 0 1.62.243 2.254.728a3.423 3.423 0 0 1 1.274 1.876h-1.288a2.229 2.229 0 0 0-.84-1.092c-.392-.271-.859-.406-1.4-.406-.719 0-1.307.243-1.764.728-.448.485-.672 1.087-.672 1.806 0 .719.224 1.321.672 1.806.457.485 1.045.728 1.764.728.541 0 1.008-.135 1.4-.406.392-.271.672-.635.84-1.092h1.288a3.418 3.418 0 0 1-1.26 1.89c-.635.476-1.39.714-2.268.714Zm5.122-.14v-7h6.076v7H32.08v-5.894h-3.668V127h-1.204Zm8.13.098c-.317 0-.527-.014-.63-.042v-1.078c.065.019.215.028.448.028.29 0 .504-.098.644-.294.14-.205.21-.565.21-1.078V120h5.404v7H40.21v-5.894h-2.996v3.78c0 .719-.173 1.269-.518 1.652-.345.373-.798.56-1.358.56Zm11.242.042c-.97 0-1.787-.355-2.45-1.064-.653-.709-.98-1.568-.98-2.576s.327-1.867.98-2.576a3.221 3.221 0 0 1 2.45-1.064c.514 0 .99.117 1.428.35.448.224.794.513 1.036.868V120h1.205v7h-1.205v-1.078c-.242.355-.587.649-1.035.882a3.095 3.095 0 0 1-1.428.336Zm.183-1.106c.69 0 1.26-.243 1.708-.728.448-.485.672-1.087.672-1.806 0-.719-.224-1.321-.672-1.806-.448-.485-1.018-.728-1.708-.728-.7 0-1.274.243-1.722.728-.448.485-.672 1.087-.672 1.806 0 .719.224 1.321.672 1.806.448.485 1.022.728 1.722.728Zm7.082.966v-5.894h-2.226V120h5.754v1.106h-2.324V127h-1.204Zm4.904 0v-7h1.204v2.884h3.822V120h1.204v7h-1.204v-3.024h-3.822V127H58.75Zm11.612.14c-1.055 0-1.932-.35-2.632-1.05-.69-.709-1.036-1.573-1.036-2.59s.346-1.876 1.036-2.576c.7-.709 1.578-1.064 2.632-1.064 1.045 0 1.913.355 2.604 1.064.7.7 1.05 1.559 1.05 2.576 0 1.017-.35 1.881-1.05 2.59-.69.7-1.559 1.05-2.604 1.05Zm-1.764-1.848c.458.485 1.046.728 1.764.728.719 0 1.302-.243 1.75-.728.448-.485.672-1.083.672-1.792 0-.709-.224-1.307-.672-1.792-.448-.485-1.031-.728-1.75-.728-.719 0-1.306.243-1.764.728-.448.485-.672 1.083-.672 1.792 0 .709.224 1.307.672 1.792ZM80.198 127H79.12v-7h1.204v5.138L84.272 120h1.064v7h-1.19v-5.138L80.198 127Zm9.652.14c-.718 0-1.348-.177-1.89-.532a2.273 2.273 0 0 1-.994-1.498h1.218c.234.672.789 1.008 1.666 1.008.514 0 .9-.107 1.162-.322.262-.215.392-.495.392-.84s-.13-.616-.392-.812c-.252-.196-.616-.294-1.092-.294h-.812v-.98h.812c.383 0 .686-.084.91-.252.234-.168.35-.415.35-.742a.867.867 0 0 0-.364-.742c-.242-.177-.57-.266-.98-.266-.812 0-1.32.327-1.526.98h-1.19c.13-.644.448-1.134.952-1.47.504-.345 1.097-.518 1.778-.518.784 0 1.396.187 1.834.56.439.364.658.826.658 1.386 0 .681-.29 1.19-.868 1.526.766.345 1.148.919 1.148 1.722 0 .588-.242 1.083-.728 1.484-.485.401-1.166.602-2.044.602Zm10.927-7.14-3.793 8.246c-.29.644-.616 1.106-.98 1.386-.355.289-.803.434-1.345.434-.345 0-.606-.023-.784-.07v-1.064c.14.028.37.042.686.042.523 0 .943-.355 1.26-1.064l.575-1.232L93.302 120h1.33l2.421 5.278 2.38-5.278h1.344Zm6.55 7h-1.204v-3.262c-.186.289-.471.518-.854.686a3.17 3.17 0 0 1-1.288.252c-.784 0-1.409-.224-1.876-.672-.457-.448-.686-1.078-.686-1.89V120h1.204v1.988c0 1.064.546 1.596 1.638 1.596a1.93 1.93 0 0 0 1.288-.49c.383-.336.574-.807.574-1.414V120h1.204v7Zm3.346 0h-1.078v-7h1.204v5.138l3.948-5.138h1.064v7h-1.19v-5.138L110.673 127Zm7.426-7h1.106l2.59 3.444 2.604-3.444h1.106v7h-1.204v-5.054l-2.506 3.304-2.492-3.304V127h-1.204v-7Zm14.134 7h-1.078v-7h1.204v5.138l3.948-5.138h1.064v7h-1.19v-5.138L132.233 127Zm10.803 0v-7h6.076v7h-1.204v-5.894h-3.668V127h-1.204Zm9.544 2.926h-1.204V120h1.204v1.078c.243-.355.584-.644 1.022-.868.448-.233.929-.35 1.442-.35.971 0 1.783.355 2.436 1.064.663.709.994 1.568.994 2.576s-.331 1.867-.994 2.576c-.653.709-1.465 1.064-2.436 1.064-.513 0-.994-.112-1.442-.336-.438-.233-.779-.527-1.022-.882v4.004Zm.574-4.62c.448.485 1.018.728 1.708.728.691 0 1.26-.243 1.708-.728.448-.485.672-1.087.672-1.806 0-.719-.224-1.321-.672-1.806-.448-.485-1.017-.728-1.708-.728-.69 0-1.26.243-1.708.728-.448.485-.672 1.087-.672 1.806 0 .719.224 1.321.672 1.806Zm10.036 1.834c-1.017 0-1.862-.345-2.534-1.036-.662-.691-.994-1.559-.994-2.604 0-1.055.322-1.923.966-2.604.654-.691 1.517-1.036 2.59-1.036 1.083 0 1.932.383 2.548 1.148.616.765.887 1.703.812 2.814h-5.698c.019.635.252 1.167.7 1.596.448.42.99.63 1.624.63.952 0 1.629-.392 2.03-1.176h1.232c-.177.653-.555 1.195-1.134 1.624-.578.429-1.292.644-2.142.644Zm1.372-5.712c-.382-.336-.844-.504-1.386-.504-.541 0-1.026.163-1.456.49-.42.327-.681.812-.784 1.456h4.368c-.112-.635-.359-1.115-.742-1.442Zm3 4.466h.168c.672 0 1.008-.756 1.008-2.268V120h5.558v5.894h1.05v2.87h-1.134V127h-5.516v1.764h-1.134v-2.87Zm2.38-4.788v2.716c0 .877-.145 1.568-.434 2.072h3.584v-4.788h-3.15Zm6.832 5.992c-.318 0-.528-.014-.63-.042v-1.078c.065.019.214.028.448.028.289 0 .504-.098.644-.294.14-.205.21-.565.21-1.078V120h5.404v7h-1.204v-5.894h-2.996v3.78c0 .719-.173 1.269-.518 1.652-.346.373-.798.56-1.358.56Zm11.466.042c-1.055 0-1.932-.35-2.632-1.05-.691-.709-1.036-1.573-1.036-2.59s.345-1.876 1.036-2.576c.7-.709 1.577-1.064 2.632-1.064 1.045 0 1.913.355 2.604 1.064.7.7 1.05 1.559 1.05 2.576 0 1.017-.35 1.881-1.05 2.59-.691.7-1.559 1.05-2.604 1.05Zm-1.764-1.848c.457.485 1.045.728 1.764.728.719 0 1.302-.243 1.75-.728.448-.485.672-1.083.672-1.792 0-.709-.224-1.307-.672-1.792-.448-.485-1.031-.728-1.75-.728-.719 0-1.307.243-1.764.728-.448.485-.672 1.083-.672 1.792 0 .709.224 1.307.672 1.792ZM201.444 127l-3.318-3.108V127h-1.204v-3.108L193.604 127h-1.582l3.752-3.57-3.262-3.43h1.498l2.912 3.108V120h1.204v3.108l2.926-3.108h1.484l-3.262 3.444 3.752 3.556h-1.582Zm3.743 0h-1.078v-7h1.204v5.138l3.948-5.138h1.064v7h-1.19v-5.138L205.187 127Zm7.426-7h1.106l2.59 3.444 2.604-3.444h1.106v7h-1.204v-5.054l-2.506 3.304-2.492-3.304V127h-1.204v-7Zm14.26 9.926h-1.204V120h1.204v1.078c.243-.355.583-.644 1.022-.868.448-.233.929-.35 1.442-.35.971 0 1.783.355 2.436 1.064.663.709.994 1.568.994 2.576s-.331 1.867-.994 2.576c-.653.709-1.465 1.064-2.436 1.064-.513 0-.994-.112-1.442-.336-.439-.233-.779-.527-1.022-.882v4.004Zm.574-4.62c.448.485 1.017.728 1.708.728.691 0 1.26-.243 1.708-.728.448-.485.672-1.087.672-1.806 0-.719-.224-1.321-.672-1.806-.448-.485-1.017-.728-1.708-.728-.691 0-1.26.243-1.708.728-.448.485-.672 1.087-.672 1.806 0 .719.224 1.321.672 1.806Zm10.036 1.834c-1.017 0-1.862-.345-2.534-1.036-.662-.691-.994-1.559-.994-2.604 0-1.055.322-1.923.966-2.604.654-.691 1.517-1.036 2.59-1.036 1.083 0 1.932.383 2.548 1.148.616.765.887 1.703.812 2.814h-5.698c.019.635.252 1.167.7 1.596.448.42.99.63 1.624.63.952 0 1.629-.392 2.03-1.176h1.232c-.177.653-.555 1.195-1.134 1.624-.578.429-1.292.644-2.142.644Zm1.372-5.712c-.382-.336-.844-.504-1.386-.504-.541 0-1.026.163-1.456.49-.42.327-.681.812-.784 1.456h4.368c-.112-.635-.359-1.115-.742-1.442Zm3.754 5.572v-7h1.204v5.894h2.786V120h1.204v5.894h2.786V120h1.204v7h-9.184Zm14.452.14c-1.017 0-1.862-.345-2.534-1.036-.662-.691-.994-1.559-.994-2.604 0-1.055.322-1.923.966-2.604.654-.691 1.517-1.036 2.59-1.036 1.083 0 1.932.383 2.548 1.148.616.765.887 1.703.812 2.814h-5.698c.019.635.252 1.167.7 1.596.448.42.99.63 1.624.63.952 0 1.629-.392 2.03-1.176h1.232c-.177.653-.555 1.195-1.134 1.624-.578.429-1.292.644-2.142.644Zm1.372-5.712c-.382-.336-.844-.504-1.386-.504-.541 0-1.026.163-1.456.49-.42.327-.681.812-.784 1.456h4.368c-.112-.635-.359-1.115-.742-1.442Zm3.754 5.572v-7h1.204v2.884h3.822V120h1.204v7h-1.204v-3.024h-3.822V127h-1.204Zm9.582 0h-1.078v-7h1.204v5.138l3.948-5.138h1.064v7h-1.19v-5.138L271.769 127Zm6.236 0 2.828-2.744c-.551-.131-.976-.373-1.274-.728a1.986 1.986 0 0 1-.448-1.302c0-.644.219-1.176.658-1.596.448-.42 1.078-.63 1.89-.63h2.59v7h-1.204v-2.548h-.896L279.517 127h-1.512Zm3.724-3.626h1.316v-2.296h-1.316c-.943 0-1.414.387-1.414 1.162 0 .364.121.644.364.84.252.196.602.294 1.05.294ZM106.062 61v-9.94h3.262c.896 0 1.615.257 2.156.77.541.513.812 1.134.812 1.862 0 .915-.355 1.591-1.064 2.03 1.148.42 1.722 1.213 1.722 2.38 0 .84-.308 1.535-.924 2.086-.607.541-1.409.812-2.408.812h-3.556Zm1.302-1.176h2.31c.653 0 1.148-.15 1.484-.448.345-.308.518-.719.518-1.232 0-.504-.173-.91-.518-1.218-.336-.317-.826-.476-1.47-.476h-2.324v3.374Zm0-4.494h1.96c.523 0 .933-.14 1.232-.42.308-.29.462-.663.462-1.12a1.48 1.48 0 0 0-.462-1.106c-.308-.299-.719-.448-1.232-.448h-1.96v3.094ZM121.139 61v-7h1.204v7h-1.204Zm-6.468 0v-7h1.204v2.52h1.624c.84 0 1.475.22 1.904.658.439.439.658.961.658 1.568 0 .616-.219 1.148-.658 1.596-.439.439-1.078.658-1.918.658h-2.814Zm1.204-3.388v2.296h1.568c.448 0 .793-.103 1.036-.308.252-.205.378-.49.378-.854s-.121-.644-.364-.84c-.243-.196-.588-.294-1.036-.294h-1.582ZM124.624 61v-7h3.052c.775 0 1.368.173 1.778.518.411.345.616.807.616 1.386 0 .55-.228 1.003-.686 1.358.766.373 1.148.943 1.148 1.708 0 .588-.21 1.073-.63 1.456-.42.383-1.05.574-1.89.574h-3.388Zm1.204-1.05h2.254c.374 0 .668-.093.882-.28.224-.187.336-.443.336-.77s-.112-.579-.336-.756c-.214-.187-.508-.28-.882-.28h-2.254v2.086Zm0-3.052h1.946c.719 0 1.078-.313 1.078-.938 0-.327-.102-.56-.308-.7-.205-.15-.462-.224-.77-.224h-1.946v1.862Zm9.407 4.242c-1.017 0-1.862-.345-2.534-1.036-.663-.69-.994-1.559-.994-2.604 0-1.055.322-1.923.966-2.604.653-.69 1.517-1.036 2.59-1.036 1.083 0 1.932.383 2.548 1.148.616.765.887 1.703.812 2.814h-5.698c.019.635.252 1.167.7 1.596.448.42.989.63 1.624.63.952 0 1.629-.392 2.03-1.176h1.232c-.177.653-.555 1.195-1.134 1.624-.579.43-1.293.644-2.142.644Zm1.372-5.712c-.383-.336-.845-.504-1.386-.504a2.34 2.34 0 0 0-1.456.49c-.42.327-.681.812-.784 1.456h4.368c-.112-.635-.359-1.115-.742-1.442Zm3 4.466h.168c.672 0 1.008-.756 1.008-2.268V54h5.558v5.894h1.05v2.87h-1.134V61h-5.516v1.764h-1.134v-2.87Zm2.38-4.788v2.716c0 .877-.145 1.568-.434 2.072h3.584v-4.788h-3.15Zm9.887 6.034c-1.018 0-1.862-.345-2.534-1.036-.663-.69-.994-1.559-.994-2.604 0-1.055.322-1.923.966-2.604.653-.69 1.516-1.036 2.59-1.036 1.082 0 1.932.383 2.548 1.148.616.765.886 1.703.812 2.814h-5.698c.018.635.252 1.167.7 1.596.448.42.989.63 1.624.63.952 0 1.628-.392 2.03-1.176h1.232c-.178.653-.556 1.195-1.134 1.624-.579.43-1.293.644-2.142.644Zm1.372-5.712c-.383-.336-.845-.504-1.386-.504a2.34 2.34 0 0 0-1.456.49c-.42.327-.682.812-.784 1.456h4.368c-.112-.635-.36-1.115-.742-1.442ZM156.999 54h1.106l2.59 3.444L163.299 54h1.106v7h-1.204v-5.054l-2.506 3.304-2.492-3.304V61h-1.204v-7Zm13.057 7v-7h3.052c.775 0 1.367.173 1.778.518.411.345.616.807.616 1.386 0 .55-.229 1.003-.686 1.358.765.373 1.148.943 1.148 1.708 0 .588-.21 1.073-.63 1.456-.42.383-1.05.574-1.89.574h-3.388Zm1.204-1.05h2.254c.373 0 .667-.093.882-.28.224-.187.336-.443.336-.77s-.112-.579-.336-.756c-.215-.187-.509-.28-.882-.28h-2.254v2.086Zm0-3.052h1.946c.719 0 1.078-.313 1.078-.938 0-.327-.103-.56-.308-.7-.205-.15-.462-.224-.77-.224h-1.946v1.862Zm9.309 4.242a3.22 3.22 0 0 1-2.45-1.064c-.654-.71-.98-1.568-.98-2.576s.326-1.867.98-2.576c.662-.71 1.479-1.064 2.45-1.064a3 3 0 0 1 1.428.35c.448.224.793.513 1.036.868V54h1.204v7h-1.204v-1.078c-.243.355-.588.649-1.036.882a3.096 3.096 0 0 1-1.428.336Zm.182-1.106c.69 0 1.26-.243 1.708-.728.448-.485.672-1.087.672-1.806 0-.719-.224-1.32-.672-1.806-.448-.485-1.018-.728-1.708-.728-.7 0-1.274.243-1.722.728-.448.485-.672 1.087-.672 1.806 0 .719.224 1.32.672 1.806.448.485 1.022.728 1.722.728Zm5.752.966v-7h1.204v5.894h2.786V54h1.204v5.894h2.786V54h1.204v7h-9.184Zm17.956.14c-1.055 0-1.928-.35-2.618-1.05-.691-.71-1.036-1.573-1.036-2.59s.345-1.876 1.036-2.576c.69-.71 1.563-1.064 2.618-1.064.868 0 1.619.243 2.254.728a3.428 3.428 0 0 1 1.274 1.876h-1.288a2.226 2.226 0 0 0-.84-1.092c-.392-.27-.859-.406-1.4-.406-.719 0-1.307.243-1.764.728-.448.485-.672 1.087-.672 1.806 0 .719.224 1.32.672 1.806.457.485 1.045.728 1.764.728.541 0 1.008-.135 1.4-.406.392-.27.672-.635.84-1.092h1.288a3.426 3.426 0 0 1-1.26 1.89c-.635.476-1.391.714-2.268.714Zm8.006 0c-.97 0-1.787-.355-2.45-1.064-.653-.71-.98-1.568-.98-2.576s.327-1.867.98-2.576a3.222 3.222 0 0 1 2.45-1.064c.514 0 .99.117 1.428.35.448.224.794.513 1.036.868V54h1.204v7h-1.204v-1.078c-.242.355-.588.649-1.036.882a3.09 3.09 0 0 1-1.428.336Zm.182-1.106c.691 0 1.26-.243 1.708-.728.448-.485.672-1.087.672-1.806 0-.719-.224-1.32-.672-1.806-.448-.485-1.017-.728-1.708-.728-.7 0-1.274.243-1.722.728-.448.485-.672 1.087-.672 1.806 0 .719.224 1.32.672 1.806.448.485 1.022.728 1.722.728Zm6.831.966H218.4v-7h1.204v5.138L223.552 54h1.064v7h-1.19v-5.138L219.478 61Zm3.724-8.708c-.42.41-.948.616-1.582.616-.635 0-1.167-.205-1.596-.616-.42-.41-.63-.947-.63-1.61V50.5h.952v.182c0 .448.116.798.35 1.05.242.243.55.364.924.364.373 0 .676-.121.91-.364.242-.252.364-.602.364-1.05V50.5h.952v.182c0 .663-.215 1.2-.644 1.61ZM228.234 61v-5.894h-2.226V54h5.754v1.106h-2.324V61h-1.204Zm7.925 0v-7h3.052c.775 0 1.368.173 1.778.518.411.345.616.807.616 1.386 0 .55-.228 1.003-.686 1.358.766.373 1.148.943 1.148 1.708 0 .588-.21 1.073-.63 1.456-.42.383-1.05.574-1.89.574h-3.388Zm1.204-1.05h2.254c.374 0 .668-.093.882-.28.224-.187.336-.443.336-.77s-.112-.579-.336-.756c-.214-.187-.508-.28-.882-.28h-2.254v2.086Zm0-3.052h1.946c.719 0 1.078-.313 1.078-.938 0-.327-.102-.56-.308-.7-.205-.15-.462-.224-.77-.224h-1.946v1.862ZM248.898 61v-8.708h-3.094V51.06h7.462v1.232h-3.094V61h-1.274Zm9.874-1.064c1.092 0 2.002-.378 2.73-1.134.737-.756 1.106-1.68 1.106-2.772 0-1.092-.369-2.016-1.106-2.772-.728-.756-1.638-1.134-2.73-1.134-1.083 0-1.993.378-2.73 1.134-.728.756-1.092 1.68-1.092 2.772 0 1.092.364 2.016 1.092 2.772.737.756 1.647 1.134 2.73 1.134Zm0 1.232c-1.428 0-2.641-.495-3.64-1.484-.999-.999-1.498-2.217-1.498-3.654 0-1.437.499-2.65 1.498-3.64.999-.999 2.212-1.498 3.64-1.498 1.437 0 2.651.5 3.64 1.498.999.99 1.498 2.203 1.498 3.64 0 1.437-.499 2.655-1.498 3.654-.989.99-2.203 1.484-3.64 1.484ZM272.411 61v-8.708h-5.278V61h-1.26v-9.94h7.812V61h-1.274Zm3.515-3.318v-1.204h3.57v1.204h-3.57Zm8.648 3.458c-.989 0-1.829-.299-2.52-.896-.681-.607-1.022-1.363-1.022-2.268h1.218a1.98 1.98 0 0 0 .714 1.442c.439.364.975.546 1.61.546.579 0 1.059-.159 1.442-.476.383-.317.574-.756.574-1.316 0-.597-.196-1.045-.588-1.344-.383-.299-.91-.448-1.582-.448h-.742v-1.106h.798c.532 0 .966-.15 1.302-.448.345-.299.523-.686.532-1.162 0-.467-.173-.85-.518-1.148-.336-.299-.761-.448-1.274-.448-.588 0-1.083.173-1.484.518-.401.345-.602.826-.602 1.442H281.2c0-.952.317-1.713.952-2.282.635-.57 1.423-.854 2.366-.854.868 0 1.587.252 2.156.756.579.495.868 1.153.868 1.974-.009.476-.14.905-.392 1.288a2.47 2.47 0 0 1-.952.882c.504.205.901.523 1.19.952.289.42.434.91.434 1.47 0 .868-.303 1.573-.91 2.114-.607.541-1.386.812-2.338.812Zm8.474-.14v-7h3.052c.775 0 1.367.173 1.778.518.411.345.616.807.616 1.386 0 .55-.229 1.003-.686 1.358.765.373 1.148.943 1.148 1.708 0 .588-.21 1.073-.63 1.456-.42.383-1.05.574-1.89.574h-3.388Zm1.204-1.05h2.254c.373 0 .667-.093.882-.28.224-.187.336-.443.336-.77s-.112-.579-.336-.756c-.215-.187-.509-.28-.882-.28h-2.254v2.086Zm0-3.052h1.946c.719 0 1.078-.313 1.078-.938 0-.327-.103-.56-.308-.7-.205-.15-.462-.224-.77-.224h-1.946v1.862ZM308.903 61v-4.046h-1.246L304.199 61h-1.624l3.64-4.228c-.737-.159-1.316-.485-1.736-.98-.41-.504-.616-1.106-.616-1.806 0-.868.304-1.573.91-2.114.607-.541 1.424-.812 2.45-.812h2.968V61h-1.288Zm-3.752-7.014c0 .541.182.97.546 1.288.374.317.896.476 1.568.476h1.638v-3.486h-1.638c-.672 0-1.194.154-1.568.462-.364.308-.546.728-.546 1.26ZM312.626 61v-7h1.204v2.884h3.822V54h1.204v7h-1.204v-3.024h-3.822V61h-1.204Zm7.832-1.106h.168c.672 0 1.008-.756 1.008-2.268V54h5.558v5.894h1.05v2.87h-1.134V61h-5.516v1.764h-1.134v-2.87Zm2.38-4.788v2.716c0 .877-.145 1.568-.434 2.072h3.584v-4.788h-3.15Zm9.887 6.034c-1.017 0-1.862-.345-2.534-1.036-.662-.69-.994-1.559-.994-2.604 0-1.055.322-1.923.966-2.604.654-.69 1.517-1.036 2.59-1.036 1.083 0 1.932.383 2.548 1.148.616.765.887 1.703.812 2.814h-5.698c.019.635.252 1.167.7 1.596.448.42.99.63 1.624.63.952 0 1.629-.392 2.03-1.176h1.232c-.177.653-.555 1.195-1.134 1.624-.578.43-1.292.644-2.142.644Zm1.372-5.712c-.382-.336-.844-.504-1.386-.504-.541 0-1.026.163-1.456.49-.42.327-.681.812-.784 1.456h4.368c-.112-.635-.359-1.115-.742-1.442ZM342.555 61l-3.5-3.122V61h-1.204v-7h1.204v3.108L342.163 54h1.526l-3.43 3.43 3.948 3.57h-1.652Zm5.349.14c-1.055 0-1.927-.35-2.618-1.05-.691-.71-1.036-1.573-1.036-2.59s.345-1.876 1.036-2.576c.691-.71 1.563-1.064 2.618-1.064.868 0 1.619.243 2.254.728a3.423 3.423 0 0 1 1.274 1.876h-1.288a2.226 2.226 0 0 0-.84-1.092c-.392-.27-.859-.406-1.4-.406-.719 0-1.307.243-1.764.728-.448.485-.672 1.087-.672 1.806 0 .719.224 1.32.672 1.806.457.485 1.045.728 1.764.728.541 0 1.008-.135 1.4-.406.392-.27.672-.635.84-1.092h1.288a3.415 3.415 0 0 1-1.26 1.89c-.635.476-1.391.714-2.268.714Zm8.105 0c-1.018 0-1.862-.345-2.534-1.036-.663-.69-.994-1.559-.994-2.604 0-1.055.322-1.923.966-2.604.653-.69 1.516-1.036 2.59-1.036 1.082 0 1.932.383 2.548 1.148.616.765.886 1.703.812 2.814h-5.698c.018.635.252 1.167.7 1.596.448.42.989.63 1.624.63.952 0 1.628-.392 2.03-1.176h1.232c-.178.653-.556 1.195-1.134 1.624-.579.43-1.293.644-2.142.644Zm1.372-5.712c-.383-.336-.845-.504-1.386-.504a2.34 2.34 0 0 0-1.456.49c-.42.327-.682.812-.784 1.456h4.368c-.112-.635-.36-1.115-.742-1.442Z" fill="#fff"/></svg>