<svg width="1728" height="400" fill="none" xmlns="http://www.w3.org/2000/svg"><path d="M628.966 81.81c0-1.08-.15-2.25-.45-3.51a8.743 8.743 0 0 0-1.53-3.6c-.72-1.08-1.74-1.98-3.06-2.7-1.32-.78-3-1.17-5.04-1.17h-32.49c-2.1 0-3.81.39-5.13 1.17-1.26.72-2.28 1.62-3.06 2.7-.72 1.08-1.23 2.28-1.53 3.6-.24 1.26-.36 2.43-.36 3.51v15.3c0 1.2-.42 2.22-1.26 3.06-.84.84-1.86 1.26-3.06 1.26s-2.22-.42-3.06-1.26c-.84-.84-1.26-1.86-1.26-3.06v-15.3c0-2.28.36-4.56 1.08-6.84.78-2.34 1.89-4.44 3.33-6.3 1.44-1.92 3.18-3.48 5.22-4.68 2.04-1.2 4.35-1.8 6.93-1.8h37.71c2.46.12 4.65.81 6.57 2.07a16.87 16.87 0 0 1 4.86 4.59c1.38 1.86 2.43 3.93 3.15 6.21.72 2.28 1.08 4.53 1.08 6.75v15.3c0 1.2-.42 2.22-1.26 3.06-.84.84-1.86 1.26-3.06 1.26s-2.22-.42-3.06-1.26c-.84-.84-1.26-1.86-1.26-3.06v-15.3Zm26.276-10.98v6.66h49.95c.9 0 1.68-.3 2.34-.9.72-.66 1.08-1.47 1.08-2.43 0-.9-.36-1.68-1.08-2.34-.66-.66-1.44-.99-2.34-.99h-49.95Zm49.59-8.64c1.68 0 3.24.33 4.68.99 1.5.6 2.79 1.44 3.87 2.52a10.96 10.96 0 0 1 2.61 3.78c.66 1.44.99 3 .99 4.68 0 1.68-.33 3.24-.99 4.68-.6 1.44-1.47 2.7-2.61 3.78-1.08 1.08-2.37 1.95-3.87 2.61-1.44.6-3 .9-4.68.9h-49.59v10.98c0 1.2-.45 2.22-1.35 3.06-.84.84-1.83 1.26-2.97 1.26-1.2 0-2.22-.42-3.06-1.26-.84-.84-1.26-1.86-1.26-3.06v-30.6c0-1.2.42-2.22 1.26-3.06.84-.84 1.86-1.26 3.06-1.26h53.91Zm75.945 30.6c2.04 0 3.72-.36 5.04-1.08 1.32-.78 2.34-1.71 3.06-2.79a8.725 8.725 0 0 0 1.53-3.51c.3-1.32.45-2.52.45-3.6s-.15-2.25-.45-3.51a8.743 8.743 0 0 0-1.53-3.6c-.72-1.08-1.74-1.98-3.06-2.7-1.32-.78-3-1.17-5.04-1.17h-36.36c-2.1 0-3.81.39-5.13 1.17-1.26.72-2.28 1.62-3.06 2.7-.72 1.08-1.23 2.28-1.53 3.6-.24 1.26-.36 2.43-.36 3.51 0 1.08.12 2.28.36 3.6.3 1.26.81 2.43 1.53 3.51.78 1.08 1.8 2.01 3.06 2.79 1.32.72 3.03 1.08 5.13 1.08h36.36Zm18.45-10.98c0 2.28-.39 4.59-1.17 6.93-.72 2.28-1.8 4.38-3.24 6.3a18.226 18.226 0 0 1-5.22 4.59c-2.04 1.2-4.35 1.8-6.93 1.8h-41.04c-2.46-.12-4.65-.78-6.57-1.98a19.32 19.32 0 0 1-4.95-4.68c-1.32-1.86-2.34-3.93-3.06-6.21-.72-2.28-1.08-4.53-1.08-6.75 0-2.28.36-4.56 1.08-6.84.78-2.34 1.89-4.44 3.33-6.3 1.44-1.92 3.18-3.48 5.22-4.68 2.04-1.2 4.35-1.8 6.93-1.8h41.04c2.46.12 4.65.81 6.57 2.07a16.87 16.87 0 0 1 4.86 4.59c1.38 1.86 2.43 3.93 3.15 6.21.72 2.28 1.08 4.53 1.08 6.75Zm17.645 10.98h49.95c.9 0 1.68-.33 2.34-.99.72-.66 1.08-1.44 1.08-2.34 0-.96-.36-1.74-1.08-2.34-.66-.66-1.44-.99-2.34-.99h-49.95v6.66Zm0-21.96v6.66h50.04c.9 0 1.68-.3 2.34-.9.66-.6.99-1.38.99-2.34 0-.9-.36-1.68-1.08-2.34-.66-.72-1.44-1.08-2.34-1.08h-49.95Zm-4.32 30.6c-1.2 0-2.22-.42-3.06-1.26-.84-.84-1.26-1.86-1.26-3.06v-30.6c0-1.2.42-2.22 1.26-3.06.84-.84 1.86-1.26 3.06-1.26h53.91c1.68 0 3.24.33 4.68.99 1.5.6 2.79 1.44 3.87 2.52 1.14 1.08 2.01 2.37 2.61 3.87.66 1.44.99 3 .99 4.68 0 1.5-.27 2.91-.81 4.23-.48 1.26-1.14 2.4-1.98 3.42.84 1.02 1.5 2.19 1.98 3.51.54 1.26.81 2.61.81 4.05 0 1.68-.33 3.24-.99 4.68-.6 1.44-1.47 2.7-2.61 3.78-1.08 1.08-2.37 1.95-3.87 2.61-1.44.6-3 .9-4.68.9h-53.91Zm129.856-8.64c2.04 0 3.72-.36 5.04-1.08 1.32-.78 2.34-1.71 3.06-2.79a8.725 8.725 0 0 0 1.53-3.51c.3-1.32.45-2.52.45-3.6s-.15-2.25-.45-3.51a8.743 8.743 0 0 0-1.53-3.6c-.72-1.08-1.74-1.98-3.06-2.7-1.32-.78-3-1.17-5.04-1.17h-36.36c-2.1 0-3.81.39-5.13 1.17-1.26.72-2.28 1.62-3.06 2.7-.72 1.08-1.23 2.28-1.53 3.6-.24 1.26-.36 2.43-.36 3.51 0 1.08.12 2.28.36 3.6.3 1.26.81 2.43 1.53 3.51.78 1.08 1.8 2.01 3.06 2.79 1.32.72 3.03 1.08 5.13 1.08h36.36Zm18.45-10.98c0 2.28-.39 4.59-1.17 6.93-.72 2.28-1.8 4.38-3.24 6.3a18.226 18.226 0 0 1-5.22 4.59c-2.04 1.2-4.35 1.8-6.93 1.8h-41.04c-2.46-.12-4.65-.78-6.57-1.98a19.32 19.32 0 0 1-4.95-4.68c-1.32-1.86-2.34-3.93-3.06-6.21-.72-2.28-1.08-4.53-1.08-6.75 0-2.28.36-4.56 1.08-6.84.78-2.34 1.89-4.44 3.33-6.3 1.44-1.92 3.18-3.48 5.22-4.68 2.04-1.2 4.35-1.8 6.93-1.8h41.04c2.46.12 4.65.81 6.57 2.07a16.87 16.87 0 0 1 4.86 4.59c1.38 1.86 2.43 3.93 3.15 6.21.72 2.28 1.08 4.53 1.08 6.75Zm43.562 16.11c0-1.56.54-2.88 1.62-3.96s2.4-1.62 3.96-1.62 2.88.54 3.96 1.62 1.62 2.4 1.62 3.96-.54 2.88-1.62 3.96-2.4 1.62-3.96 1.62-2.88-.54-3.96-1.62-1.62-2.4-1.62-3.96Zm-13.947-3.06h2.25c1.2 0 2.22.42 3.06 1.26.84.84 1.26 1.86 1.26 3.06s-.42 2.22-1.26 3.06c-.84.84-1.86 1.26-3.06 1.26h-19.17a4.554 4.554 0 0 1-2.79-1.35c-.78-.84-1.17-1.83-1.17-2.97 0-1.2.42-2.22 1.26-3.06.84-.84 1.86-1.26 3.06-1.26h5.85l21.147-28.26c1.08-1.38 2.4-2.46 3.96-3.24 1.62-.78 3.33-1.17 5.13-1.17 1.92 0 3.69.45 5.31 1.35 1.68.84 3.06 1.95 4.14 3.33l20.79 27.99h5.4c1.2 0 2.22.42 3.06 1.26.84.84 1.26 1.86 1.26 3.06s-.42 2.22-1.26 3.06c-.84.84-1.86 1.26-3.06 1.26h-19.17a4.554 4.554 0 0 1-2.79-1.35c-.78-.84-1.17-1.83-1.17-2.97 0-1.2.42-2.22 1.26-3.06.84-.84 1.86-1.26 3.06-1.26h2.7l-16.11-21.33c-.36-.48-.87-.99-1.53-1.53-.6-.6-1.23-.9-1.89-.9-.66 0-1.32.3-1.98.9-.6.54-1.11 1.05-1.53 1.53l-16.017 21.33Zm75.747-10.62c0 2.16.12 3.81.36 4.95.24 1.14.81 1.71 1.71 1.71.48 0 1.08-.18 1.8-.54.78-.42 1.74-.96 2.88-1.62l41.22-25.2c.66-.42 1.38-.75 2.16-.99.84-.24 1.68-.36 2.52-.36 2.46 0 4.5.84 6.12 2.52 1.68 1.68 2.52 3.75 2.52 6.21v26.19c0 1.2-.42 2.22-1.26 3.06-.84.84-1.86 1.26-3.06 1.26s-2.22-.42-3.06-1.26c-.84-.84-1.26-1.86-1.26-3.06V79.38c0-2.16-.12-3.81-.36-4.95-.24-1.14-.81-1.71-1.71-1.71-.48 0-1.11.21-1.89.63-.72.36-1.65.87-2.79 1.53l-41.22 25.2c-.66.42-1.41.75-2.25.99-.78.24-1.59.36-2.43.36-2.46 0-4.53-.84-6.21-2.52-1.62-1.68-2.43-3.75-2.43-6.21V66.51c0-1.2.42-2.22 1.26-3.06.84-.84 1.86-1.26 3.06-1.26s2.22.42 3.06 1.26c.84.84 1.26 1.86 1.26 3.06v17.73Zm146.24 12.87c0 1.2-.42 2.22-1.26 3.06-.84.84-1.86 1.26-3.06 1.26s-2.22-.42-3.06-1.26c-.84-.84-1.26-1.86-1.26-3.06V77.49c0-2.46-.15-3.69-.45-3.69-.24 0-1.08.81-2.52 2.43l-19.8 22.5a7.71 7.71 0 0 1-2.88 2.07c-1.14.42-2.37.63-3.69.63-1.32 0-2.55-.21-3.69-.63a7.71 7.71 0 0 1-2.88-2.07l-19.8-22.5c-1.38-1.62-2.22-2.43-2.52-2.43-.3 0-.45 1.23-.45 3.69v19.62c0 1.2-.42 2.22-1.26 3.06-.84.84-1.86 1.26-3.06 1.26s-2.22-.42-3.06-1.26c-.84-.84-1.26-1.86-1.26-3.06V70.83c0-2.4.69-4.44 2.07-6.12 1.38-1.68 3.27-2.52 5.67-2.52 1.44 0 2.73.36 3.87 1.08 1.14.72 2.19 1.59 3.15 2.61l20.7 23.58c.3.3.66.63 1.08.99.48.3.96.45 1.44.45s.93-.15 1.35-.45c.48-.36.87-.69 1.17-.99l20.61-23.58h.09a9.393 9.393 0 0 1 3.06-2.7c1.2-.66 2.52-.99 3.96-.99 2.4 0 4.29.84 5.67 2.52 1.38 1.68 2.07 3.72 2.07 6.12v26.28ZM171.14 204.24c0 2.16.12 3.81.36 4.95.24 1.14.81 1.71 1.71 1.71.48 0 1.08-.18 1.8-.54.78-.42 1.74-.96 2.88-1.62l41.22-25.2c.66-.42 1.38-.75 2.16-.99.84-.24 1.68-.36 2.52-.36 2.46 0 4.5.84 6.12 2.52 1.68 1.68 2.52 3.75 2.52 6.21v26.19c0 1.2-.42 2.22-1.26 3.06-.84.84-1.86 1.26-3.06 1.26s-2.22-.42-3.06-1.26c-.84-.84-1.26-1.86-1.26-3.06v-17.73c0-2.16-.12-3.81-.36-4.95-.24-1.14-.81-1.71-1.71-1.71-.48 0-1.11.21-1.89.63-.72.36-1.65.87-2.79 1.53l-41.22 25.2c-.66.42-1.41.75-2.25.99-.78.24-1.59.36-2.43.36-2.46 0-4.53-.84-6.21-2.52-1.62-1.68-2.43-3.75-2.43-6.21v-26.19c0-1.2.42-2.22 1.26-3.06.84-.84 1.86-1.26 3.06-1.26s2.22.42 3.06 1.26c.84.84 1.26 1.86 1.26 3.06v17.73Zm70.286-2.43c0-2.28.36-4.56 1.08-6.84.78-2.34 1.89-4.44 3.33-6.3 1.44-1.92 3.18-3.48 5.22-4.68 2.04-1.2 4.35-1.8 6.93-1.8h52.47c1.2 0 2.22.42 3.06 1.26.84.84 1.26 1.86 1.26 3.06s-.42 2.22-1.26 3.06c-.84.84-1.86 1.26-3.06 1.26h-50.58c-2.1 0-3.81.39-5.13 1.17-1.26.72-2.28 1.62-3.06 2.7-.72 1.08-1.23 2.28-1.53 3.6-.24 1.26-.36 2.43-.36 3.51 0 1.08.12 2.28.36 3.6.3 1.26.81 2.43 1.53 3.51.78 1.08 1.8 2.01 3.06 2.79 1.32.72 3.03 1.08 5.13 1.08h50.58c1.2 0 2.22.42 3.06 1.26.84.84 1.26 1.86 1.26 3.06s-.42 2.22-1.26 3.06c-.84.84-1.86 1.26-3.06 1.26h-53.37c-2.46 0-4.65-.6-6.57-1.8-1.92-1.2-3.57-2.73-4.95-4.59-1.32-1.92-2.34-4.05-3.06-6.39-.72-2.34-1.08-4.62-1.08-6.84Zm82.353 0c0-2.28.36-4.56 1.08-6.84.78-2.34 1.89-4.44 3.33-6.3 1.44-1.92 3.18-3.48 5.22-4.68 2.04-1.2 4.35-1.8 6.93-1.8h52.47c1.2 0 2.22.42 3.06 1.26.84.84 1.26 1.86 1.26 3.06s-.42 2.22-1.26 3.06c-.84.84-1.86 1.26-3.06 1.26h-50.58c-2.1 0-3.81.39-5.13 1.17-1.26.72-2.28 1.62-3.06 2.7-.72 1.08-1.23 2.28-1.53 3.6-.24 1.26-.36 2.43-.36 3.51 0 1.08.12 2.28.36 3.6.3 1.26.81 2.43 1.53 3.51.78 1.08 1.8 2.01 3.06 2.79 1.32.72 3.03 1.08 5.13 1.08h50.58c1.2 0 2.22.42 3.06 1.26.84.84 1.26 1.86 1.26 3.06s-.42 2.22-1.26 3.06c-.84.84-1.86 1.26-3.06 1.26h-53.37c-2.46 0-4.65-.6-6.57-1.8-1.92-1.2-3.57-2.73-4.95-4.59-1.32-1.92-2.34-4.05-3.06-6.39-.72-2.34-1.08-4.62-1.08-6.84Zm90.004 18c-.9 1.08-2.01 1.62-3.33 1.62-1.2 0-2.22-.42-3.06-1.26-.84-.84-1.26-1.86-1.26-3.06 0-1.08.3-1.95.9-2.61l21.87-29.43c1.02-1.38 2.37-2.49 4.05-3.33 1.68-.9 3.48-1.35 5.4-1.35 1.8 0 3.51.39 5.13 1.17 1.62.78 2.94 1.86 3.96 3.24l21.87 29.25c.36.42.66.9.9 1.44.24.48.36 1.02.36 1.62 0 1.2-.42 2.22-1.26 3.06-.84.84-1.86 1.26-3.06 1.26-1.44 0-2.58-.57-3.42-1.71l-20.97-27.99c-.42-.48-.96-.99-1.62-1.53-.6-.6-1.23-.9-1.89-.9-.66 0-1.32.3-1.98.9-.6.54-1.08 1.05-1.44 1.53l-21.15 28.08Zm65.826-33.3c0-1.2.42-2.22 1.26-3.06.84-.84 1.86-1.26 3.06-1.26h63.81c1.2 0 2.22.42 3.06 1.26.84.84 1.26 1.86 1.26 3.06s-.42 2.22-1.26 3.06c-.84.84-1.86 1.26-3.06 1.26h-63.81c-1.2 0-2.22-.42-3.06-1.26-.84-.84-1.26-1.86-1.26-3.06Zm10.98 34.92c-1.32 0-2.64-.27-3.96-.81-1.32-.6-2.49-1.41-3.51-2.43-1.02-1.02-1.86-2.25-2.52-3.69-.66-1.44-.99-3.06-.99-4.86v-8.1c0-1.62.45-2.7 1.35-3.24.96-.54 2.43-.81 4.41-.81h60.39c1.2 0 2.22.42 3.06 1.26.84.84 1.26 1.86 1.26 3.06s-.42 2.22-1.26 3.06c-.84.84-1.86 1.26-3.06 1.26h-57.51v4.41c0 .6.24 1.14.72 1.62.54.42 1.23.63 2.07.63h56.7c1.2 0 2.22.42 3.06 1.26.84.84 1.26 1.86 1.26 3.06s-.42 2.22-1.26 3.06c-.84.84-1.86 1.26-3.06 1.26h-57.15Zm105.055-3.51c0-1.56.54-2.88 1.62-3.96s2.4-1.62 3.96-1.62 2.88.54 3.96 1.62 1.62 2.4 1.62 3.96-.54 2.88-1.62 3.96-2.4 1.62-3.96 1.62-2.88-.54-3.96-1.62-1.62-2.4-1.62-3.96Zm-13.95-3.06h2.25c1.2 0 2.22.42 3.06 1.26.84.84 1.26 1.86 1.26 3.06s-.42 2.22-1.26 3.06c-.84.84-1.86 1.26-3.06 1.26h-19.17a4.554 4.554 0 0 1-2.79-1.35c-.78-.84-1.17-1.83-1.17-2.97 0-1.2.42-2.22 1.26-3.06.84-.84 1.86-1.26 3.06-1.26h5.85l21.15-28.26c1.08-1.38 2.4-2.46 3.96-3.24 1.62-.78 3.33-1.17 5.13-1.17 1.92 0 3.69.45 5.31 1.35 1.68.84 3.06 1.95 4.14 3.33l20.79 27.99h5.4c1.2 0 2.22.42 3.06 1.26.84.84 1.26 1.86 1.26 3.06s-.42 2.22-1.26 3.06c-.84.84-1.86 1.26-3.06 1.26h-19.17a4.554 4.554 0 0 1-2.79-1.35c-.78-.84-1.17-1.83-1.17-2.97 0-1.2.42-2.22 1.26-3.06.84-.84 1.86-1.26 3.06-1.26h2.7l-16.11-21.33c-.36-.48-.87-.99-1.53-1.53-.6-.6-1.23-.9-1.89-.9-.66 0-1.32.3-1.98.9-.6.54-1.11 1.05-1.53 1.53l-16.02 21.33Zm121.915-2.07c2.04 0 3.72-.36 5.04-1.08 1.32-.78 2.34-1.71 3.06-2.79a8.725 8.725 0 0 0 1.53-3.51c.3-1.32.45-2.52.45-3.6s-.15-2.25-.45-3.51a8.743 8.743 0 0 0-1.53-3.6c-.72-1.08-1.74-1.98-3.06-2.7-1.32-.78-3-1.17-5.04-1.17h-36.36c-2.1 0-3.81.39-5.13 1.17-1.26.72-2.28 1.62-3.06 2.7-.72 1.08-1.23 2.28-1.53 3.6-.24 1.26-.36 2.43-.36 3.51 0 1.08.12 2.28.36 3.6.3 1.26.81 2.43 1.53 3.51.78 1.08 1.8 2.01 3.06 2.79 1.32.72 3.03 1.08 5.13 1.08h36.36Zm18.45-10.98c0 2.28-.39 4.59-1.17 6.93-.72 2.28-1.8 4.38-3.24 6.3a18.226 18.226 0 0 1-5.22 4.59c-2.04 1.2-4.35 1.8-6.93 1.8h-41.04c-2.46-.12-4.65-.78-6.57-1.98a19.32 19.32 0 0 1-4.95-4.68c-1.32-1.86-2.34-3.93-3.06-6.21-.72-2.28-1.08-4.53-1.08-6.75 0-2.28.36-4.56 1.08-6.84.78-2.34 1.89-4.44 3.33-6.3 1.44-1.92 3.18-3.48 5.22-4.68 2.04-1.2 4.35-1.8 6.93-1.8h41.04c2.46.12 4.65.81 6.57 2.07a16.87 16.87 0 0 1 4.86 4.59c1.38 1.86 2.43 3.93 3.15 6.21.72 2.28 1.08 4.53 1.08 6.75Zm17.645 10.98h49.95c.9 0 1.68-.33 2.34-.99.72-.66 1.08-1.44 1.08-2.34 0-.96-.36-1.74-1.08-2.34-.66-.66-1.44-.99-2.34-.99h-49.95v6.66Zm0-21.96v6.66h50.04c.9 0 1.68-.3 2.34-.9.66-.6.99-1.38.99-2.34 0-.9-.36-1.68-1.08-2.34-.66-.72-1.44-1.08-2.34-1.08h-49.95Zm-4.32 30.6c-1.2 0-2.22-.42-3.06-1.26-.84-.84-1.26-1.86-1.26-3.06v-30.6c0-1.2.42-2.22 1.26-3.06.84-.84 1.86-1.26 3.06-1.26h53.91c1.68 0 3.24.33 4.68.99 1.5.6 2.79 1.44 3.87 2.52 1.14 1.08 2.01 2.37 2.61 3.87.66 1.44.99 3 .99 4.68 0 1.5-.27 2.91-.81 4.23-.48 1.26-1.14 2.4-1.98 3.42.84 1.02 1.5 2.19 1.98 3.51.54 1.26.81 2.61.81 4.05 0 1.68-.33 3.24-.99 4.68-.6 1.44-1.47 2.7-2.61 3.78-1.08 1.08-2.37 1.95-3.87 2.61-1.44.6-3 .9-4.68.9h-53.91Zm94.486-17.28h25.56l-9.27-12.42c-.42-.48-.96-.99-1.62-1.53-.6-.6-1.23-.9-1.89-.9-.66 0-1.32.3-1.98.9-.6.54-1.08 1.05-1.44 1.53l-9.36 12.42Zm32.04 8.64H823.3l-5.22 7.02c-.9 1.08-2.01 1.62-3.33 1.62-1.2 0-2.22-.42-3.06-1.26-.84-.84-1.26-1.86-1.26-3.06 0-1.08.3-1.95.9-2.61l21.87-29.43c1.02-1.38 2.37-2.49 4.05-3.33 1.68-.9 3.48-1.35 5.4-1.35 1.8 0 3.51.39 5.13 1.17 1.62.78 2.94 1.86 3.96 3.24l21.87 29.25c.36.42.66.9.9 1.44.24.48.36 1.02.36 1.62 0 1.2-.42 2.22-1.26 3.06-.84.84-1.86 1.26-3.06 1.26-1.44 0-2.58-.57-3.42-1.71l-5.22-6.93Zm92.466 4.32c0 1.2-.42 2.22-1.26 3.06-.84.84-1.86 1.26-3.06 1.26s-2.22-.42-3.06-1.26c-.84-.84-1.26-1.86-1.26-3.06v-10.98h-53.19v10.98c0 1.2-.42 2.22-1.26 3.06-.84.84-1.86 1.26-3.06 1.26s-2.22-.42-3.06-1.26c-.84-.84-1.26-1.86-1.26-3.06v-30.6c0-1.2.42-2.22 1.26-3.06.84-.84 1.86-1.26 3.06-1.26s2.22.42 3.06 1.26c.84.84 1.26 1.86 1.26 3.06v10.98h53.19v-10.98c0-1.2.42-2.22 1.26-3.06.84-.84 1.86-1.26 3.06-1.26s2.22.42 3.06 1.26c.84.84 1.26 1.86 1.26 3.06v30.6Zm17.623-12.87c0 2.16.12 3.81.36 4.95.24 1.14.81 1.71 1.71 1.71.48 0 1.08-.18 1.8-.54.78-.42 1.74-.96 2.88-1.62l41.221-25.2c.66-.42 1.38-.75 2.16-.99.84-.24 1.68-.36 2.52-.36 2.46 0 4.5.84 6.12 2.52 1.68 1.68 2.52 3.75 2.52 6.21v26.19c0 1.2-.42 2.22-1.26 3.06-.84.84-1.86 1.26-3.06 1.26s-2.22-.42-3.06-1.26c-.84-.84-1.26-1.86-1.26-3.06v-17.73c0-2.16-.12-3.81-.36-4.95-.24-1.14-.81-1.71-1.71-1.71-.48 0-1.11.21-1.89.63-.72.36-1.65.87-2.79 1.53l-41.221 25.2c-.66.42-1.41.75-2.25.99-.78.24-1.59.36-2.43.36-2.46 0-4.53-.84-6.21-2.52-1.62-1.68-2.43-3.75-2.43-6.21v-26.19c0-1.2.42-2.22 1.26-3.06.84-.84 1.86-1.26 3.06-1.26s2.22.42 3.06 1.26c.84.84 1.26 1.86 1.26 3.06v17.73Zm70.291 12.87c0-.84.3-1.65.9-2.43 2.16-3.18 4.59-5.85 7.29-8.01 2.76-2.22 5.85-3.99 9.27-5.31 3.48-1.38 7.35-2.37 11.61-2.97 4.26-.6 9.03-.9 14.31-.9h18.36v-4.68c-.12-.54-.42-.99-.9-1.35-.48-.42-1.11-.63-1.89-.63h-47.16c-.84.12-1.59.48-2.25 1.08-.6.6-.9 1.35-.9 2.25 0 1.2-.42 2.22-1.26 3.06-.84.84-1.86 1.26-3.06 1.26s-2.22-.42-3.06-1.26c-.84-.84-1.26-1.86-1.26-3.06 0-1.68.33-3.24.99-4.68.66-1.44 1.56-2.7 2.7-3.78 1.14-1.08 2.46-1.92 3.96-2.52 1.5-.66 3.09-.99 4.77-.99h46.98c1.32 0 2.64.3 3.96.9 1.32.54 2.49 1.32 3.51 2.34 1.02 1.02 1.86 2.25 2.52 3.69.66 1.44.99 3.06.99 4.86v23.13c0 1.2-.42 2.22-1.26 3.06-.84.84-1.86 1.26-3.06 1.26-1.14 0-2.16-.42-3.06-1.26-.84-.84-1.26-1.86-1.26-3.06v-10.98h-18.36c-3.66 0-7.11.12-10.35.36-3.18.18-6.21.72-9.09 1.62-2.88.9-5.64 2.22-8.28 3.96-2.58 1.74-5.1 4.14-7.56 7.2-.18.24-.45.54-.81.9-.42.36-.87.66-1.35.9-.48.24-1.02.36-1.62.36-1.2 0-2.22-.42-3.06-1.26-.84-.84-1.26-1.86-1.26-3.06ZM587.167 333.79h49.95c.9 0 1.68-.33 2.34-.99.72-.66 1.08-1.44 1.08-2.34 0-.96-.36-1.74-1.08-2.34-.66-.66-1.44-.99-2.34-.99h-49.95v6.66Zm0-21.96v6.66h50.04c.9 0 1.68-.3 2.34-.9.66-.6.99-1.38.99-2.34 0-.9-.36-1.68-1.08-2.34-.66-.72-1.44-1.08-2.34-1.08h-49.95Zm-4.32 30.6c-1.2 0-2.22-.42-3.06-1.26-.84-.84-1.26-1.86-1.26-3.06v-30.6c0-1.2.42-2.22 1.26-3.06.84-.84 1.86-1.26 3.06-1.26h53.91c1.68 0 3.24.33 4.68.99 1.5.6 2.79 1.44 3.87 2.52 1.14 1.08 2.01 2.37 2.61 3.87.66 1.44.99 3 .99 4.68 0 1.5-.27 2.91-.81 4.23-.48 1.26-1.14 2.4-1.98 3.42.84 1.02 1.5 2.19 1.98 3.51.54 1.26.81 2.61.81 4.05 0 1.68-.33 3.24-.99 4.68-.6 1.44-1.47 2.7-2.61 3.78-1.08 1.08-2.37 1.95-3.87 2.61-1.44.6-3 .9-4.68.9h-53.91Zm124.203-8.64H757c.9 0 1.68-.33 2.34-.99.72-.66 1.08-1.44 1.08-2.34 0-.96-.36-1.74-1.08-2.34-.66-.66-1.44-.99-2.34-.99h-49.95v6.66Zm0-21.96v6.66h50.04c.9 0 1.68-.3 2.34-.9.66-.6.99-1.38.99-2.34 0-.9-.36-1.68-1.08-2.34-.66-.72-1.44-1.08-2.34-1.08h-49.95Zm-4.32 30.6c-1.2 0-2.22-.42-3.06-1.26-.84-.84-1.26-1.86-1.26-3.06v-30.6c0-1.2.42-2.22 1.26-3.06.84-.84 1.86-1.26 3.06-1.26h53.91c1.68 0 3.24.33 4.68.99 1.5.6 2.79 1.44 3.87 2.52 1.14 1.08 2.01 2.37 2.61 3.87.66 1.44.99 3 .99 4.68 0 1.5-.27 2.91-.81 4.23-.48 1.26-1.14 2.4-1.98 3.42.84 1.02 1.5 2.19 1.98 3.51.54 1.26.81 2.61.81 4.05 0 1.68-.33 3.24-.99 4.68-.6 1.44-1.47 2.7-2.61 3.78-1.08 1.08-2.37 1.95-3.87 2.61-1.44.6-3 .9-4.68.9h-53.91Zm94.485-17.28h25.56l-9.27-12.42c-.42-.48-.96-.99-1.62-1.53-.6-.6-1.23-.9-1.89-.9-.66 0-1.32.3-1.98.9-.6.54-1.08 1.05-1.44 1.53l-9.36 12.42Zm32.04 8.64h-38.61l-5.22 7.02c-.9 1.08-2.01 1.62-3.33 1.62-1.2 0-2.22-.42-3.06-1.26-.84-.84-1.26-1.86-1.26-3.06 0-1.08.3-1.95.9-2.61l21.87-29.43c1.02-1.38 2.37-2.49 4.05-3.33 1.68-.9 3.48-1.35 5.4-1.35 1.8 0 3.51.39 5.13 1.17 1.62.78 2.94 1.86 3.96 3.24l21.87 29.25c.36.42.66.9.9 1.44.24.48.36 1.02.36 1.62 0 1.2-.42 2.22-1.26 3.06-.84.84-1.86 1.26-3.06 1.26-1.44 0-2.58-.57-3.42-1.71l-5.22-6.93Zm62.227 0h10.98c2.04 0 3.72-.36 5.04-1.08 1.32-.78 2.34-1.71 3.06-2.79a8.725 8.725 0 0 0 1.53-3.51c.3-1.32.45-2.52.45-3.6v-15.3c0-1.2.42-2.22 1.26-3.06.84-.84 1.86-1.26 3.06-1.26s2.22.42 3.06 1.26c.84.84 1.26 1.86 1.26 3.06v15.3c0 2.22-.36 4.47-1.08 6.75-.72 2.28-1.77 4.35-3.15 6.21a18.045 18.045 0 0 1-4.86 4.68c-1.92 1.2-4.11 1.86-6.57 1.98h-37.71c-2.58 0-4.89-.6-6.93-1.8-2.04-1.2-3.78-2.73-5.22-4.59a22.657 22.657 0 0 1-3.33-6.3c-.72-2.34-1.08-4.65-1.08-6.93v-15.3c0-1.2.42-2.22 1.26-3.06.84-.84 1.86-1.26 3.06-1.26s2.22.42 3.06 1.26c.84.84 1.26 1.86 1.26 3.06v15.3c0 1.08.12 2.28.36 3.6.3 1.26.81 2.43 1.53 3.51.78 1.08 1.8 2.01 3.06 2.79 1.32.72 3.03 1.08 5.13 1.08h12.87v-26.28c0-1.2.42-2.22 1.26-3.06.84-.84 1.86-1.26 3.06-1.26s2.22.42 3.06 1.26c.84.84 1.26 1.86 1.26 3.06v26.28Zm38.696-26.28c0-1.2.42-2.22 1.26-3.06.84-.84 1.86-1.26 3.06-1.26h63.81c1.2 0 2.222.42 3.062 1.26.84.84 1.26 1.86 1.26 3.06s-.42 2.22-1.26 3.06c-.84.84-1.862 1.26-3.062 1.26h-63.81c-1.2 0-2.22-.42-3.06-1.26-.84-.84-1.26-1.86-1.26-3.06Zm10.98 34.92c-1.32 0-2.64-.27-3.96-.81-1.32-.6-2.49-1.41-3.51-2.43-1.02-1.02-1.86-2.25-2.52-3.69-.66-1.44-.99-3.06-.99-4.86v-8.1c0-1.62.45-2.7 1.35-3.24.96-.54 2.43-.81 4.41-.81h60.39c1.2 0 2.22.42 3.06 1.26.842.84 1.262 1.86 1.262 3.06s-.42 2.22-1.262 3.06c-.84.84-1.86 1.26-3.06 1.26h-57.51v4.41c0 .6.24 1.14.72 1.62.54.42 1.23.63 2.07.63h56.7c1.2 0 2.222.42 3.062 1.26.84.84 1.26 1.86 1.26 3.06s-.42 2.22-1.26 3.06c-.84.84-1.862 1.26-3.062 1.26h-57.15Zm79.132-17.19c0 2.16.12 3.81.36 4.95.24 1.14.81 1.71 1.71 1.71.48 0 1.08-.18 1.8-.54.78-.42 1.74-.96 2.88-1.62l41.22-25.2c.66-.42 1.38-.75 2.16-.99.84-.24 1.68-.36 2.52-.36 2.46 0 4.5.84 6.12 2.52 1.68 1.68 2.52 3.75 2.52 6.21v26.19c0 1.2-.42 2.22-1.26 3.06-.84.84-1.86 1.26-3.06 1.26s-2.22-.42-3.06-1.26c-.84-.84-1.26-1.86-1.26-3.06v-17.73c0-2.16-.12-3.81-.36-4.95-.24-1.14-.81-1.71-1.71-1.71-.48 0-1.11.21-1.89.63-.72.36-1.65.87-2.79 1.53l-41.22 25.2c-.66.42-1.41.75-2.25.99-.78.24-1.59.36-2.43.36-2.46 0-4.53-.84-6.21-2.52-1.62-1.68-2.43-3.75-2.43-6.21v-26.19c0-1.2.42-2.22 1.26-3.06.84-.84 1.86-1.26 3.06-1.26s2.22.42 3.06 1.26c.84.84 1.26 1.86 1.26 3.06v17.73Zm13.95-37.35c0-1.2.42-2.22 1.26-3.06.9-.9 1.95-1.35 3.15-1.35s2.19.45 2.97 1.35l5.85 5.76 5.85-5.76c.78-.9 1.77-1.35 2.97-1.35 1.2 0 2.22.45 3.06 1.35.9.84 1.35 1.86 1.35 3.06s-.45 2.25-1.35 3.15l-8.55 8.64-.27.18c-.72.84-1.74 1.26-3.06 1.26s-2.34-.42-3.06-1.26l-.27-.18-8.55-8.64c-.9-.9-1.35-1.95-1.35-3.15Zm151.67 45.9c2.04 0 3.72-.36 5.04-1.08 1.32-.78 2.34-1.71 3.06-2.79a8.725 8.725 0 0 0 1.53-3.51c.3-1.32.45-2.52.45-3.6s-.15-2.25-.45-3.51a8.743 8.743 0 0 0-1.53-3.6c-.72-1.08-1.74-1.98-3.06-2.7-1.32-.78-3-1.17-5.04-1.17h-36.36c-2.1 0-3.81.39-5.13 1.17-1.26.72-2.28 1.62-3.06 2.7-.72 1.08-1.23 2.28-1.53 3.6-.24 1.26-.36 2.43-.36 3.51 0 1.08.12 2.28.36 3.6.3 1.26.81 2.43 1.53 3.51.78 1.08 1.8 2.01 3.06 2.79 1.32.72 3.03 1.08 5.13 1.08h36.36Zm18.45-10.98c0 2.28-.39 4.59-1.17 6.93-.72 2.28-1.8 4.38-3.24 6.3a18.226 18.226 0 0 1-5.22 4.59c-2.04 1.2-4.35 1.8-6.93 1.8h-41.04c-2.46-.12-4.65-.78-6.57-1.98a19.32 19.32 0 0 1-4.95-4.68c-1.32-1.86-2.34-3.93-3.06-6.21-.72-2.28-1.08-4.53-1.08-6.75 0-2.28.36-4.56 1.08-6.84.78-2.34 1.89-4.44 3.33-6.3 1.44-1.92 3.18-3.48 5.22-4.68 2.04-1.2 4.35-1.8 6.93-1.8h41.04c2.46.12 4.65.81 6.57 2.07a16.87 16.87 0 0 1 4.86 4.59c1.38 1.86 2.43 3.93 3.15 6.21.72 2.28 1.08 4.53 1.08 6.75Zm17.64 4.14v6.84h49.95c.9 0 1.68-.33 2.34-.99.72-.66 1.08-1.44 1.08-2.34 0-.96-.36-1.74-1.08-2.34-.66-.66-1.44-.99-2.34-.99h-47.79c-.78 0-1.5-.06-2.16-.18Zm-8.64-19.44c0-1.2.42-2.22 1.26-3.06.84-.84 1.86-1.26 3.06-1.26.3 0 .6.03.9.09h57.15c1.2 0 2.22.42 3.06 1.26.84.84 1.26 1.86 1.26 3.06s-.42 2.22-1.26 3.06c-.84.84-1.86 1.26-3.06 1.26H1222v3.24c0 .9.27 1.65.81 2.25.54.6 1.2.96 1.98 1.08h46.8c1.68 0 3.24.33 4.68.99 1.5.6 2.79 1.44 3.87 2.52a10.96 10.96 0 0 1 2.61 3.78c.66 1.44.99 3 .99 4.68 0 1.68-.33 3.24-.99 4.68-.6 1.44-1.47 2.7-2.61 3.78-1.08 1.08-2.37 1.95-3.87 2.61-1.44.6-3 .9-4.68.9h-53.91c-1.2 0-2.22-.42-3.06-1.26-.84-.84-1.26-1.86-1.26-3.06 0-.36.03-.69.09-.99-.06-.3-.09-.63-.09-.99v-28.62Zm87.02 33.3c-.9 1.08-2.01 1.62-3.33 1.62-1.2 0-2.22-.42-3.06-1.26-.84-.84-1.26-1.86-1.26-3.06 0-1.08.3-1.95.9-2.61l21.87-29.43c1.02-1.38 2.37-2.49 4.05-3.33 1.68-.9 3.48-1.35 5.4-1.35 1.8 0 3.51.39 5.13 1.17 1.62.78 2.94 1.86 3.96 3.24l21.87 29.25c.36.42.66.9.9 1.44.24.48.36 1.02.36 1.62 0 1.2-.42 2.22-1.26 3.06-.84.84-1.86 1.26-3.06 1.26-1.44 0-2.58-.57-3.42-1.71l-20.97-27.99c-.42-.48-.96-.99-1.62-1.53-.6-.6-1.23-.9-1.89-.9-.66 0-1.32.3-1.98.9-.6.54-1.08 1.05-1.44 1.53l-21.15 28.08Zm85.26-15.66h25.56l-9.27-12.42c-.42-.48-.96-.99-1.62-1.53-.6-.6-1.23-.9-1.89-.9-.66 0-1.32.3-1.98.9-.6.54-1.08 1.05-1.44 1.53l-9.36 12.42Zm32.04 8.64h-38.61l-5.22 7.02c-.9 1.08-2.01 1.62-3.33 1.62-1.2 0-2.22-.42-3.06-1.26-.84-.84-1.26-1.86-1.26-3.06 0-1.08.3-1.95.9-2.61l21.87-29.43c1.02-1.38 2.37-2.49 4.05-3.33 1.68-.9 3.48-1.35 5.4-1.35 1.8 0 3.51.39 5.13 1.17 1.62.78 2.94 1.86 3.96 3.24l21.87 29.25c.36.42.66.9.9 1.44.24.48.36 1.02.36 1.62 0 1.2-.42 2.22-1.26 3.06-.84.84-1.86 1.26-3.06 1.26-1.44 0-2.58-.57-3.42-1.71l-5.22-6.93Zm22-10.98c0-2.28.36-4.56 1.08-6.84.78-2.34 1.89-4.44 3.33-6.3 1.44-1.92 3.18-3.48 5.22-4.68 2.04-1.2 4.35-1.8 6.93-1.8h52.47c1.2 0 2.22.42 3.06 1.26.84.84 1.26 1.86 1.26 3.06s-.42 2.22-1.26 3.06c-.84.84-1.86 1.26-3.06 1.26h-50.58c-2.1 0-3.81.39-5.13 1.17-1.26.72-2.28 1.62-3.06 2.7-.72 1.08-1.23 2.28-1.53 3.6-.24 1.26-.36 2.43-.36 3.51 0 1.08.12 2.28.36 3.6.3 1.26.81 2.43 1.53 3.51.78 1.08 1.8 2.01 3.06 2.79 1.32.72 3.03 1.08 5.13 1.08h50.58c1.2 0 2.22.42 3.06 1.26.84.84 1.26 1.86 1.26 3.06s-.42 2.22-1.26 3.06c-.84.84-1.86 1.26-3.06 1.26h-53.37c-2.46 0-4.65-.6-6.57-1.8-1.92-1.2-3.57-2.73-4.95-4.59-1.32-1.92-2.34-4.05-3.06-6.39-.72-2.34-1.08-4.62-1.08-6.84Zm148.59-19.62c1.2 0 2.22.42 3.06 1.26.84.84 1.26 1.86 1.26 3.06 0 1.14-.39 2.13-1.17 2.97-.78.78-1.71 1.23-2.79 1.35h-18.09c-1.8.12-3.3.57-4.5 1.35-1.14.72-2.04 1.62-2.7 2.7a10.41 10.41 0 0 0-1.35 3.51c-.24 1.26-.36 2.4-.36 3.42v15.3c0 1.2-.42 2.22-1.26 3.06-.84.84-1.86 1.26-3.06 1.26s-2.22-.42-3.06-1.26c-.84-.84-1.26-1.86-1.26-3.06v-15.3c0-1.86.24-3.72.72-5.58.48-1.92 1.2-3.72 2.16-5.4h-29.52c-1.2 0-2.22-.42-3.06-1.26-.84-.84-1.26-1.86-1.26-3.06s.42-2.22 1.26-3.06c.84-.84 1.86-1.26 3.06-1.26h61.92Zm21.94 22.05c0 2.16.12 3.81.36 4.95.24 1.14.81 1.71 1.71 1.71.48 0 1.08-.18 1.8-.54.78-.42 1.74-.96 2.88-1.62l41.22-25.2c.66-.42 1.38-.75 2.16-.99.84-.24 1.68-.36 2.52-.36 2.46 0 4.5.84 6.12 2.52 1.68 1.68 2.52 3.75 2.52 6.21v26.19c0 1.2-.42 2.22-1.26 3.06-.84.84-1.86 1.26-3.06 1.26s-2.22-.42-3.06-1.26c-.84-.84-1.26-1.86-1.26-3.06v-17.73c0-2.16-.12-3.81-.36-4.95-.24-1.14-.81-1.71-1.71-1.71-.48 0-1.11.21-1.89.63-.72.36-1.65.87-2.79 1.53l-41.22 25.2c-.66.42-1.41.75-2.25.99-.78.24-1.59.36-2.43.36-2.46 0-4.53-.84-6.21-2.52-1.62-1.68-2.43-3.75-2.43-6.21v-26.19c0-1.2.42-2.22 1.26-3.06.84-.84 1.86-1.26 3.06-1.26s2.22.42 3.06 1.26c.84.84 1.26 1.86 1.26 3.06v17.73Z" fill="#fff"/><mask id="a" maskUnits="userSpaceOnUse" x="80" y="130" width="1628" height="239" fill="#000"><path fill="#fff" d="M80 130h1628v239H80z"/><path d="M406.662 278.5c9 5.667 18.167 11.833 27.5 18.5 9.333 6.333 18.833 13.333 28.5 21a42.81 42.81 0 0 1 9.5 9.5c2.667 3.333 4 7.333 4 12 0 6.667-2.333 12.333-7 17s-10.333 7-17 7c-2.667 0-5.5-.667-8.5-2s-5.833-3-8.5-5a936.591 936.591 0 0 0-42-29 297.055 297.055 0 0 0-45-25c-15.333-7.333-31.333-13.167-48-17.5s-34-6.5-52-6.5h-99.5c-4.333.667-8 2.667-11 6s-4.5 7.5-4.5 12.5v42.5c0 6.667-2.5 12.333-7.5 17-4.667 4.667-10.167 7-16.5 7-6.667 0-12.333-2.333-17-7s-7-10.333-7-17v-48c0-8.333 1.5-16.167 4.5-23.5 3.333-7.667 7.667-14.167 13-19.5 5.333-5.667 11.667-10 19-13 7.333-3.333 15.333-5 24-5h265c5 0 9.333-1.667 13-5 4-3.667 6-8.167 6-13.5 0-5-2-9.333-6-13-3.667-3.667-8-5.5-13-5.5h-301.5c-6.667 0-12.333-2.333-17-7s-7-10.333-7-17 2.333-12.333 7-17 10.333-7 17-7h299.5c9.333 0 18 1.833 26 5.5 8.333 3.333 15.5 8 21.5 14 6.333 6 11.167 13 14.5 21 3.667 8 5.5 16.667 5.5 26 0 9.333-1.833 18-5.5 26-3.333 8-8.167 15-14.5 21-6 6-13.167 10.833-21.5 14.5-8 3.333-16.667 5-26 5h-2Zm94.418-109c0-6.667 2.333-12.333 7-17s10.333-7 17-7h354.5c6.667 0 12.333 2.333 17 7s7 10.333 7 17-2.333 12.333-7 17-10.333 7-17 7h-354.5c-6.667 0-12.333-2.333-17-7s-7-10.333-7-17Zm61 194c-7.333 0-14.667-1.5-22-4.5-7.333-3.333-13.833-7.833-19.5-13.5s-10.333-12.5-14-20.5-5.5-17-5.5-27v-45c0-9 2.5-15 7.5-18 5.333-3 13.5-4.5 24.5-4.5h335.5c6.667 0 12.333 2.333 17 7s7 10.333 7 17-2.333 12.333-7 17-10.333 7-17 7h-319.5V303c0 3.333 1.333 6.333 4 9 3 2.333 6.833 3.5 11.5 3.5h315c6.667 0 12.333 2.333 17 7s7 10.333 7 17-2.333 12.333-7 17-10.333 7-17 7h-317.5Zm409.137-9c-4.667 6-10.834 9-18.5 9-6.667 0-12.334-2.333-17-7-4.667-4.667-7-10.333-7-17 0-6.333 1.666-11.167 5-14.5l121.503-163.5c5.66-7.667 13.16-13.833 22.5-18.5 9.33-5 19.33-7.5 30-7.5 10 0 19.5 2.167 28.5 6.5s16.33 10.333 22 18l121.5 162.5c1.66 2.667 3.16 5.333 4.5 8 1.66 2.667 2.5 5.667 2.5 9 0 6.667-2.34 12.333-7 17-4.67 4.667-10.34 7-17 7-8.34 0-14.67-3.167-19-9.5l-116.5-155.5c-2.34-2.667-5.34-5.5-9-8.5-3.34-3.333-6.84-5-10.5-5-3.67 0-7.34 1.667-11 5-3.34 3-6 5.833-8 8.5l-117.503 156Zm409.203 9c-9.33 0-18.17-1.667-26.5-5-8.33-3.667-15.67-8.5-22-14.5-6-6-10.83-13-14.5-21s-5.5-16.667-5.5-26V169.5c0-6.667 2.33-12.333 7-17s10.33-7 17-7c6.33 0 11.83 2.333 16.5 7 5 4.667 7.5 10.333 7.5 17V297c0 5 1.83 9.333 5.5 13 4 3.667 8.5 5.5 13.5 5.5h300c6.67 0 12.33 2.333 17 7s7 10.333 7 17-2.33 12.333-7 17-10.33 7-17 7h-298.5Z"/></mask><path d="M406.662 278.5v-5h-17.325l14.661 9.231 2.664-4.231Zm27.5 18.5-2.906 4.069.049.035.05.033 2.807-4.137Zm28.5 21-3.107 3.917.082.065.084.062 2.941-4.044Zm9.5 9.5-4.044 2.941.068.093.072.089 3.904-3.123Zm-28.5 34 2.031-4.569-2.031 4.569Zm-8.5-5 3-4-.023-.018-.024-.017-2.953 4.035Zm-42-29-2.796 4.145.034.023.034.022 2.728-4.19Zm-45-25-2.157 4.511.058.028.059.026 2.04-4.565Zm-48-17.5-1.258 4.839 1.258-4.839Zm-151.5-6.5v-5h-.382l-.378.058.76 4.942Zm-11 6-3.716-3.345 3.716 3.345Zm-12 72-3.411-3.655-.063.059-.061.06 3.535 3.536Zm-33.5 0 3.536-3.536-3.536 3.536Zm-2.5-88.5-4.585-1.994-.022.05-.02.051L89.661 268Zm13-19.5 3.536 3.536.053-.054.052-.055-3.641-3.427Zm19-13 1.893 4.628.089-.037.087-.039-2.069-4.552Zm302-10 3.363 3.7.008-.007.008-.007-3.379-3.686Zm0-26.5-3.535 3.536.076.076.081.074 3.378-3.686Zm-331.5-12.5 3.536-3.536-3.536 3.536Zm0-34-3.535-3.536 3.535 3.536Zm342.5-1.5-2.083 4.545.112.052.114.045 1.857-4.642Zm21.5 14-3.535 3.536.047.047.049.047 3.439-3.63Zm14.5 21-4.615 1.923.033.081.037.079 4.545-2.083Zm0 52-4.545-2.083-.037.079-.033.081 4.615 1.923Zm-14.5 21-3.439-3.63-.049.047-.047.047 3.535 3.536Zm-21.5 14.5 1.923 4.615.046-.019.045-.019-2.014-4.577Zm-30.664 9.231c8.912 5.611 17.998 11.723 27.258 18.338l5.812-8.138c-9.406-6.719-18.653-12.94-27.742-18.662l-5.328 8.462Zm27.357 18.406c9.221 6.258 18.622 13.184 28.2 20.78l6.214-7.834c-9.755-7.737-19.355-14.811-28.799-21.22l-5.615 8.274Zm28.366 20.907a37.792 37.792 0 0 1 8.397 8.397l8.088-5.882a47.827 47.827 0 0 0-10.603-10.603l-5.882 8.088Zm8.537 8.579c1.89 2.363 2.904 5.233 2.904 8.877h10c0-5.689-1.652-10.819-5.096-15.123l-7.808 6.246Zm2.904 8.877c0 5.356-1.817 9.746-5.535 13.464l7.071 7.072c5.615-5.615 8.464-12.558 8.464-20.536h-10Zm-5.535 13.464c-3.719 3.719-8.109 5.536-13.465 5.536v10c7.978 0 14.921-2.849 20.536-8.464l-7.071-7.072Zm-13.465 5.536c-1.825 0-3.965-.456-6.469-1.569l-4.062 9.138c3.496 1.554 7.023 2.431 10.531 2.431v-10Zm-6.469-1.569a38.734 38.734 0 0 1-7.531-4.431l-6 8a48.744 48.744 0 0 0 9.469 5.569l4.062-9.138Zm-7.578-4.466a941.317 941.317 0 0 0-42.225-29.155l-5.456 8.38a931.325 931.325 0 0 1 41.776 28.845l5.905-8.07Zm-42.157-29.11a302.155 302.155 0 0 0-45.756-25.42l-4.08 9.13a292.09 292.09 0 0 1 44.244 24.58l5.592-8.29Zm-45.639-25.366c-15.625-7.473-31.927-13.415-48.899-17.828l-2.516 9.678c16.361 4.254 32.06 9.978 47.101 17.172l4.314-9.022Zm-48.899-17.828c-17.095-4.445-34.853-6.661-53.258-6.661v10c17.595 0 34.504 2.117 50.742 6.339l2.516-9.678Zm-53.258-6.661h-99.5v10h99.5v-10Zm-100.26.058c-5.502.847-10.204 3.428-13.956 7.597l7.433 6.69c2.247-2.497 4.878-3.916 8.043-4.403l-1.52-9.884Zm-13.956 7.597c-3.924 4.359-5.784 9.763-5.784 15.845h10c0-3.918 1.14-6.848 3.217-9.155l-7.433-6.69ZM128.162 297v42.5h10V297h-10Zm0 42.5c0 5.241-1.895 9.596-5.911 13.345l6.823 7.31c5.983-5.584 9.088-12.562 9.088-20.655h-10Zm-6.035 13.464c-3.773 3.773-8.019 5.536-12.965 5.536v10c7.72 0 14.475-2.904 20.036-8.464l-7.071-7.072Zm-12.965 5.536c-5.356 0-9.746-1.817-13.464-5.536l-7.071 7.072c5.615 5.615 12.557 8.464 20.535 8.464v-10Zm-13.464-5.536c-3.719-3.718-5.536-8.108-5.536-13.464h-10c0 7.978 2.85 14.921 8.465 20.536l7.07-7.072ZM90.162 339.5v-48h-10v48h10Zm0-48c0-7.718 1.386-14.905 4.128-21.607l-9.256-3.786c-3.258 7.965-4.872 16.445-4.872 25.393h10Zm4.085-21.506c3.11-7.154 7.107-13.114 11.951-17.958l-7.071-7.072c-5.823 5.823-10.494 12.863-14.05 21.042l9.17 3.988Zm12.056-18.067c4.834-5.137 10.568-9.065 17.252-11.799l-3.786-9.256c-7.983 3.266-14.915 8.004-20.748 14.201l7.282 6.854Zm17.428-11.875c6.635-3.016 13.923-4.552 21.931-4.552v-10c-9.325 0-18.038 1.798-26.069 5.448l4.138 9.104Zm21.931-4.552h265v-10h-265v10Zm265 0c6.232 0 11.767-2.122 16.363-6.3l-6.726-7.4c-2.737 2.489-5.868 3.7-9.637 3.7v10Zm16.379-6.314c5.012-4.595 7.621-10.424 7.621-17.186h-10c0 3.904-1.391 7.076-4.378 9.814l6.757 7.372ZM434.662 212c0-6.53-2.687-12.162-7.621-16.686l-6.757 7.372c3.065 2.81 4.378 5.844 4.378 9.314h10Zm-7.464-16.536c-4.566-4.565-10.156-6.964-16.536-6.964v10c3.62 0 6.697 1.268 9.465 4.036l7.071-7.072Zm-16.536-6.964h-301.5v10h301.5v-10Zm-301.5 0c-5.356 0-9.746-1.817-13.464-5.536l-7.071 7.072c5.615 5.615 12.557 8.464 20.535 8.464v-10Zm-13.464-5.536c-3.719-3.718-5.536-8.108-5.536-13.464h-10c0 7.978 2.85 14.921 8.465 20.536l7.07-7.072ZM90.162 169.5c0-5.356 1.817-9.746 5.536-13.464l-7.071-7.072c-5.615 5.615-8.465 12.558-8.465 20.536h10Zm5.536-13.464c3.718-3.719 8.108-5.536 13.464-5.536v-10c-7.978 0-14.92 2.849-20.535 8.464l7.07 7.072Zm13.464-5.536h299.5v-10h-299.5v10Zm299.5 0c8.659 0 16.61 1.696 23.917 5.045l4.166-9.09c-8.692-3.985-18.075-5.955-28.083-5.955v10Zm24.143 5.142c7.742 3.097 14.328 7.4 19.822 12.894l7.071-7.072c-6.506-6.506-14.254-11.536-23.179-15.106l-3.714 9.284Zm19.918 12.988c5.83 5.523 10.261 11.942 13.324 19.293l9.231-3.846c-3.604-8.649-8.84-16.23-15.677-22.707l-6.878 7.26Zm13.394 19.453c3.349 7.307 5.045 15.258 5.045 23.917h10c0-10.008-1.97-19.39-5.955-28.083l-9.09 4.166ZM471.162 212c0 8.659-1.696 16.61-5.045 23.917l9.09 4.166c3.985-8.693 5.955-18.075 5.955-28.083h-10Zm-5.115 24.077c-3.063 7.351-7.494 13.77-13.324 19.293l6.878 7.26c6.837-6.477 12.073-14.058 15.677-22.707l-9.231-3.846Zm-13.42 19.387c-5.531 5.531-12.171 10.024-19.979 13.459l4.028 9.154c8.859-3.898 16.552-9.072 23.022-15.541l-7.071-7.072Zm-19.888 13.421c-7.345 3.06-15.352 4.615-24.077 4.615v10c9.942 0 19.268-1.778 27.923-5.385l-3.846-9.23Zm-24.077 4.615h-2v10h2v-10Zm99.418-121-3.535-3.536 3.535 3.536Zm388.5 0 3.536-3.536-3.536 3.536Zm-388.5 34 3.536-3.536-3.536 3.536Zm32 172.5-2.069 4.552.087.039.089.037L540.08 359Zm-19.5-13.5-3.535 3.536 3.535-3.536Zm-14-20.5 4.545-2.083L506.58 325Zm2-90-2.451-4.358-.061.034-.06.037L508.58 235Zm377 36.5 3.536 3.536-3.536-3.536Zm-336.5 7v-5h-5v5h5Zm4 33.5-3.535 3.536.22.22.245.191 3.07-3.947Zm343.5 10.5-3.535 3.536 3.535-3.536Zm-390.5-153c0-5.356 1.817-9.746 5.536-13.464l-7.071-7.072c-5.615 5.615-8.465 12.558-8.465 20.536h10Zm5.536-13.464c3.718-3.719 8.108-5.536 13.464-5.536v-10c-7.978 0-14.92 2.849-20.535 8.464l7.071 7.072Zm13.464-5.536h354.5v-10h-354.5v10Zm354.5 0c5.356 0 9.746 1.817 13.465 5.536l7.071-7.072c-5.615-5.615-12.558-8.464-20.536-8.464v10Zm13.465 5.536c3.718 3.718 5.535 8.108 5.535 13.464h10c0-7.978-2.849-14.921-8.464-20.536l-7.071 7.072Zm5.535 13.464c0 5.356-1.817 9.746-5.535 13.464l7.071 7.072c5.615-5.615 8.464-12.558 8.464-20.536h-10Zm-5.535 13.464c-3.719 3.719-8.109 5.536-13.465 5.536v10c7.978 0 14.921-2.849 20.536-8.464l-7.071-7.072ZM879.58 188.5h-354.5v10h354.5v-10Zm-354.5 0c-5.356 0-9.746-1.817-13.464-5.536l-7.071 7.072c5.615 5.615 12.557 8.464 20.535 8.464v-10Zm-13.464-5.536c-3.719-3.718-5.536-8.108-5.536-13.464h-10c0 7.978 2.85 14.921 8.465 20.536l7.071-7.072ZM562.08 358.5c-6.633 0-13.326-1.354-20.107-4.128l-3.786 9.256c7.885 3.226 15.86 4.872 23.893 4.872v-10Zm-19.931-4.052c-6.79-3.086-12.793-7.243-18.033-12.484l-7.071 7.072c6.092 6.092 13.09 10.936 20.966 14.516l4.138-9.104Zm-18.033-12.484c-5.208-5.207-9.547-11.535-12.991-19.047l-9.09 4.166c3.89 8.488 8.883 15.826 15.01 21.953l7.071-7.072Zm-12.991-19.047c-3.328-7.263-5.045-15.538-5.045-24.917h-10c0 10.621 1.95 20.346 5.955 29.083l9.09-4.166ZM506.08 298v-45h-10v45h10Zm0-45c0-8.262 2.284-12.039 5.073-13.713l-5.145-8.574c-7.211 4.326-9.928 12.549-9.928 22.287h10Zm4.951-13.642c4.202-2.363 11.321-3.858 22.049-3.858v-10c-11.272 0-20.486 1.505-26.951 5.142l4.902 8.716Zm22.049-3.858h335.5v-10h-335.5v10Zm335.5 0c5.356 0 9.746 1.817 13.465 5.536l7.071-7.072c-5.615-5.615-12.558-8.464-20.536-8.464v10Zm13.465 5.536c3.718 3.718 5.535 8.108 5.535 13.464h10c0-7.978-2.849-14.921-8.464-20.536l-7.071 7.072Zm5.535 13.464c0 5.356-1.817 9.746-5.535 13.464l7.071 7.072c5.615-5.615 8.464-12.558 8.464-20.536h-10Zm-5.535 13.464c-3.719 3.719-8.109 5.536-13.465 5.536v10c7.978 0 14.921-2.849 20.536-8.464l-7.071-7.072ZM868.58 273.5h-319.5v10h319.5v-10Zm-324.5 5V303h10v-24.5h-10Zm0 24.5c0 4.838 1.994 9.065 5.465 12.536l7.071-7.072c-1.864-1.863-2.536-3.635-2.536-5.464h-10Zm5.93 12.947c4.063 3.16 9.051 4.553 14.57 4.553v-10c-3.815 0-6.493-.94-8.43-2.447l-6.14 7.894Zm14.57 4.553h315v-10h-315v10Zm315 0c5.356 0 9.746 1.817 13.465 5.536l7.071-7.072c-5.615-5.615-12.558-8.464-20.536-8.464v10Zm13.465 5.536c3.718 3.718 5.535 8.108 5.535 13.464h10c0-7.978-2.849-14.921-8.464-20.536l-7.071 7.072Zm5.535 13.464c0 5.356-1.817 9.746-5.535 13.464l7.071 7.072c5.615-5.615 8.464-12.558 8.464-20.536h-10Zm-5.535 13.464c-3.719 3.719-8.109 5.536-13.465 5.536v10c7.978 0 14.921-2.849 20.536-8.464l-7.071-7.072ZM879.58 358.5h-317.5v10h317.5v-10Zm91.637-4 3.947 3.07.023-.031.024-.031-3.994-3.008Zm-35.5 2 3.535-3.536-3.535 3.536Zm-2-31.5 3.535 3.536.259-.26.219-.294-4.013-2.982Zm121.503-163.5 4.01 2.982.01-.01-4.02-2.972Zm22.5-18.5 2.23 4.472.07-.031.06-.034-2.36-4.407Zm58.5-1 2.17-4.505-2.17 4.505Zm22 18-4.02 2.972v.011l.01.011 4.01-2.994Zm121.5 162.5 4.24-2.65-.11-.177-.13-.167-4 2.994Zm4.5 8-4.48 2.236.11.213.13.201 4.24-2.65Zm-40.5 23.5 4.12-2.823-.06-.089-.06-.086-4 2.998Zm-116.5-155.5 4-2.998-.12-.152-.12-.143-3.76 3.293Zm-9-8.5-3.54 3.536.18.176.19.158 3.17-3.87Zm-21.5 0 3.34 3.716.01-.008.01-.008-3.36-3.7Zm-8 8.5 3.99 3.008.01-.008-4-3ZM967.27 351.43c-3.71 4.77-8.414 7.07-14.553 7.07v10c9.194 0 16.823-3.7 22.447-10.93l-7.894-6.14Zm-14.553 7.07c-5.356 0-9.746-1.817-13.465-5.536l-7.071 7.072c5.615 5.615 12.558 8.464 20.536 8.464v-10Zm-13.465-5.536c-3.718-3.718-5.535-8.108-5.535-13.464h-10c0 7.978 2.849 14.921 8.464 20.536l7.071-7.072Zm-5.535-13.464c0-5.477 1.426-8.855 3.535-10.964l-7.071-7.072c-4.557 4.558-6.464 10.846-6.464 18.036h10Zm4.013-11.518 121.5-163.5-8.03-5.964-121.496 163.5 8.026 5.964Zm121.51-163.51c5.15-6.975 12.02-12.652 20.71-17l-4.47-8.944c-9.97 4.985-18.11 11.641-24.28 20l8.04 5.944Zm20.84-17.065c8.6-4.608 17.79-6.907 27.64-6.907v-10c-11.49 0-22.3 2.701-32.36 8.093l4.72 8.814Zm27.64-6.907c9.25 0 18.01 1.998 26.33 6.005l4.34-9.01c-9.68-4.66-19.92-6.995-30.67-6.995v10Zm26.33 6.005c8.3 3.998 14.99 9.486 20.15 16.467l8.04-5.944c-6.18-8.352-14.16-14.864-23.85-19.533l-4.34 9.01Zm20.16 16.489 121.5 162.5 8.01-5.988-121.5-162.5-8.01 5.988Zm121.27 162.156a91.131 91.131 0 0 1 4.26 7.586l8.95-4.472c-1.41-2.816-2.99-5.62-4.73-8.414l-8.48 5.3Zm4.5 8c1.14 1.824 1.74 3.895 1.74 6.35h10c0-4.212-1.07-8.14-3.26-11.65l-8.48 5.3Zm1.74 6.35c0 5.356-1.82 9.746-5.54 13.464l7.07 7.072c5.62-5.615 8.47-12.558 8.47-20.536h-10Zm-5.54 13.464c-3.72 3.719-8.11 5.536-13.46 5.536v10c7.97 0 14.92-2.849 20.53-8.464l-7.07-7.072Zm-13.46 5.536c-6.85 0-11.57-2.485-14.88-7.323l-8.25 5.646c5.36 7.828 13.31 11.677 23.13 11.677v-10Zm-15-7.498-116.5-155.5-8 5.996 116.5 155.5 8-5.996Zm-116.74-155.795c-2.57-2.931-5.78-5.956-9.6-9.077l-6.33 7.74c3.52 2.879 6.3 5.521 8.4 7.923l7.53-6.586Zm-9.23-8.743c-3.99-3.99-8.69-6.464-14.03-6.464v10c1.99 0 4.29.86 6.96 3.536l7.07-7.072ZM1107.72 180c-5.3 0-10.11 2.428-14.37 6.3l6.73 7.4c3.07-2.795 5.6-3.7 7.64-3.7v-10Zm-14.35 6.284c-3.5 3.147-6.41 6.219-8.65 9.216l8 6c1.75-2.336 4.17-4.931 7.34-7.784l-6.69-7.432Zm-8.65 9.208-117.497 156 7.988 6.016 117.499-156-7.99-6.016Zm269.2 163.008-2.01 4.577.07.034.08.031 1.86-4.642Zm-22-14.5-3.54 3.536.05.047.05.047 3.44-3.63Zm-14.5-21 4.55-2.083-4.55 2.083Zm1.5-170.5-3.54-3.536 3.54 3.536Zm33.5 0-3.54 3.536.07.06.06.059 3.41-3.655Zm13 157.5-3.54 3.536.08.076.08.074 3.38-3.686Zm330.5 12.5-3.54 3.536 3.54-3.536Zm-315.5 36c-8.72 0-16.92-1.555-24.64-4.642l-3.72 9.284c8.95 3.579 18.42 5.358 28.36 5.358v-10Zm-24.49-4.577c-7.83-3.445-14.67-7.965-20.57-13.553l-6.88 7.26c6.77 6.412 14.59 11.559 23.43 15.447l4.02-9.154Zm-20.47-13.459c-5.57-5.564-10.07-12.067-13.49-19.547l-9.1 4.166c3.91 8.52 9.08 16.017 15.51 22.453l7.08-7.072Zm-13.49-19.547c-3.35-7.307-5.05-15.258-5.05-23.917h-10c0 10.008 1.97 19.39 5.95 28.083l9.1-4.166ZM1316.92 297V169.5h-10V297h10Zm0-127.5c0-5.356 1.82-9.746 5.54-13.464l-7.08-7.072c-5.61 5.615-8.46 12.558-8.46 20.536h10Zm5.54-13.464c3.71-3.719 8.1-5.536 13.46-5.536v-10c-7.98 0-14.92 2.849-20.54 8.464l7.08 7.072Zm13.46-5.536c4.95 0 9.19 1.763 12.96 5.536l7.08-7.072c-5.56-5.56-12.32-8.464-20.04-8.464v10Zm13.09 5.655c4.01 3.749 5.91 8.104 5.91 13.345h10c0-8.093-3.11-15.071-9.09-20.655l-6.82 7.31Zm5.91 13.345V297h10V169.5h-10Zm0 127.5c0 6.38 2.4 11.97 6.96 16.536l7.08-7.072c-2.77-2.767-4.04-5.844-4.04-9.464h-10Zm7.12 16.686c4.84 4.433 10.52 6.814 16.88 6.814v-10c-3.64 0-6.96-1.286-10.12-4.186l-6.76 7.372Zm16.88 6.814h300v-10h-300v10Zm300 0c5.36 0 9.75 1.817 13.46 5.536l7.08-7.072c-5.62-5.615-12.56-8.464-20.54-8.464v10Zm13.46 5.536c3.72 3.718 5.54 8.108 5.54 13.464h10c0-7.978-2.85-14.921-8.46-20.536l-7.08 7.072Zm5.54 13.464c0 5.356-1.82 9.746-5.54 13.464l7.08 7.072c5.61-5.615 8.46-12.558 8.46-20.536h-10Zm-5.54 13.464c-3.71 3.719-8.1 5.536-13.46 5.536v10c7.98 0 14.92-2.849 20.54-8.464l-7.08-7.072Zm-13.46 5.536h-298.5v10h298.5v-10Z" fill="#29FF7F" fill-opacity=".1" mask="url(#a)"/><path d="M159.566 268v-12.78h4.41c1.116 0 2.028.342 2.736 1.026.72.684 1.08 1.518 1.08 2.502 0 1.056-.396 1.878-1.188 2.466 1.368.564 2.052 1.578 2.052 3.042 0 1.068-.39 1.962-1.17 2.682-.768.708-1.752 1.062-2.952 1.062h-4.968Zm2.106-1.926h2.808c.672 0 1.194-.168 1.566-.504.372-.336.558-.78.558-1.332 0-.54-.186-.978-.558-1.314-.372-.348-.894-.522-1.566-.522h-2.808v3.672Zm0-5.472h2.196c.564 0 1.014-.162 1.35-.486.336-.324.504-.738.504-1.242 0-.48-.168-.888-.504-1.224-.336-.336-.786-.504-1.35-.504h-2.196v3.456Zm8.963 7.398v-9h1.98v3.564h4.338V259h1.98v9h-1.98v-3.672h-4.338V268h-1.98Zm12.732 0h-1.764v-9h1.98v5.994l4.59-5.994h1.764v9h-1.98v-5.994l-4.59 5.994Zm15.216 0-3.996-3.834V268h-1.98v-9h1.98v3.852l3.546-3.852h2.412l-4.086 4.428 4.734 4.572h-2.61Zm6.89.18c-1.224 0-2.256-.456-3.096-1.368-.828-.912-1.242-2.016-1.242-3.312 0-1.296.414-2.4 1.242-3.312.84-.912 1.872-1.368 3.096-1.368a3.53 3.53 0 0 1 1.692.414c.516.264.912.588 1.188.972V259h1.98v9h-1.98v-1.206c-.276.384-.672.714-1.188.99a3.66 3.66 0 0 1-1.692.396Zm-1.566-2.628c.504.552 1.146.828 1.926.828s1.422-.276 1.926-.828c.504-.552.756-1.236.756-2.052 0-.816-.252-1.5-.756-2.052s-1.146-.828-1.926-.828-1.422.276-1.926.828c-.504.552-.756 1.236-.756 2.052 0 .816.252 1.5.756 2.052Zm13.087 2.628c-1.344 0-2.448-.438-3.312-1.314-.864-.888-1.296-2.01-1.296-3.366 0-1.356.426-2.472 1.278-3.348.852-.888 1.968-1.332 3.348-1.332 1.392 0 2.514.486 3.366 1.458.852.96 1.23 2.196 1.134 3.708h-7.164c.024.696.288 1.278.792 1.746.504.468 1.146.702 1.926.702 1.104 0 1.86-.42 2.268-1.26h2.07c-.276.876-.804 1.596-1.584 2.16-.78.564-1.722.846-2.826.846Zm-.036-7.704c-.648 0-1.206.186-1.674.558-.456.36-.75.876-.882 1.548h4.986c-.144-.696-.438-1.218-.882-1.566-.444-.36-.96-.54-1.548-.54Zm6.587-1.476h1.728l3.15 4.104 3.186-4.104h1.728v9h-1.98v-5.886l-2.916 3.78-2.916-3.78V268h-1.98v-9Zm16.699 9v-9h4.104c1.032 0 1.824.246 2.376.738.552.492.828 1.104.828 1.836 0 .636-.246 1.182-.738 1.638.876.468 1.314 1.176 1.314 2.124 0 .756-.27 1.392-.81 1.908-.54.504-1.356.756-2.448.756h-4.626Zm1.98-1.674h2.628c.396 0 .708-.096.936-.288.24-.204.36-.48.36-.828 0-.36-.12-.636-.36-.828-.228-.204-.54-.306-.936-.306h-2.628v2.25Zm0-3.69h2.196c.324 0 .594-.078.81-.234.228-.168.342-.432.342-.792 0-.672-.384-1.008-1.152-1.008h-2.196v2.034Zm15.333 4.194c-.9.9-2.016 1.35-3.348 1.35-1.332 0-2.454-.45-3.366-1.35-.9-.912-1.35-2.022-1.35-3.33 0-1.308.45-2.412 1.35-3.312.912-.912 2.034-1.368 3.366-1.368 1.332 0 2.448.456 3.348 1.368.912.9 1.368 2.004 1.368 3.312 0 1.308-.456 2.418-1.368 3.33Zm-3.348-.486c.78 0 1.422-.27 1.926-.81.516-.552.774-1.23.774-2.034 0-.804-.258-1.476-.774-2.016-.504-.552-1.146-.828-1.926-.828-.792 0-1.446.276-1.962.828-.504.54-.756 1.212-.756 2.016s.252 1.482.756 2.034c.516.54 1.17.81 1.962.81ZM265.152 268v-9h4.104c1.032 0 1.824.246 2.376.738.552.492.828 1.104.828 1.836 0 .636-.246 1.182-.738 1.638.876.468 1.314 1.176 1.314 2.124 0 .756-.27 1.392-.81 1.908-.54.504-1.356.756-2.448.756h-4.626Zm1.98-1.674h2.628c.396 0 .708-.096.936-.288.24-.204.36-.48.36-.828 0-.36-.12-.636-.36-.828-.228-.204-.54-.306-.936-.306h-2.628v2.25Zm0-3.69h2.196c.324 0 .594-.078.81-.234.228-.168.342-.432.342-.792 0-.672-.384-1.008-1.152-1.008h-2.196v2.034Zm7.917 5.364v-9h1.98v3.564h4.338V259h1.98v9h-1.98v-3.672h-4.338V268h-1.98Zm19.627-9-4.68 10.386c-.396.9-.858 1.548-1.386 1.944-.516.408-1.164.612-1.944.612-.48 0-.846-.03-1.098-.09v-1.71c.36.024.654.036.882.036.66 0 1.2-.438 1.62-1.314l.594-1.314-3.888-8.55h2.178l2.826 6.246 2.7-6.246h2.196Zm3.053 9v-7.236h-2.7V259h7.506v1.764h-2.826V268h-1.98Zm8.444 3.762h-1.98V259h1.98v1.206c.276-.384.672-.708 1.188-.972a3.636 3.636 0 0 1 1.71-.414c1.224 0 2.25.456 3.078 1.368.84.912 1.26 2.016 1.26 3.312 0 1.296-.42 2.4-1.26 3.312-.828.912-1.854 1.368-3.078 1.368a3.77 3.77 0 0 1-1.71-.396c-.516-.276-.912-.606-1.188-.99v4.968Zm2.538-5.382c.78 0 1.422-.276 1.926-.828.504-.552.756-1.236.756-2.052 0-.816-.252-1.5-.756-2.052s-1.146-.828-1.926-.828c-.792 0-1.44.276-1.944.828-.504.552-.756 1.236-.756 2.052 0 .816.252 1.5.756 2.052s1.152.828 1.944.828Zm10.693 1.8c-1.344 0-2.448-.438-3.312-1.314-.864-.888-1.296-2.01-1.296-3.366 0-1.356.426-2.472 1.278-3.348.852-.888 1.968-1.332 3.348-1.332 1.392 0 2.514.486 3.366 1.458.852.96 1.23 2.196 1.134 3.708h-7.164c.024.696.288 1.278.792 1.746.504.468 1.146.702 1.926.702 1.104 0 1.86-.42 2.268-1.26h2.07c-.276.876-.804 1.596-1.584 2.16-.78.564-1.722.846-2.826.846Zm-.036-7.704c-.648 0-1.206.186-1.674.558-.456.36-.75.876-.882 1.548h4.986c-.144-.696-.438-1.218-.882-1.566-.444-.36-.96-.54-1.548-.54Zm6.587 7.524v-9h1.98v3.564h4.338V259h1.98v9h-1.98v-3.672h-4.338V268h-1.98Zm10.969 0v-9h1.98v3.564h4.338V259h1.98v9h-1.98v-3.672h-4.338V268h-1.98Zm12.733 0h-1.764v-9h1.98v5.994l4.59-5.994h1.764v9h-1.98v-5.994l-4.59 5.994Zm13.217.18c-1.344 0-2.448-.438-3.312-1.314-.864-.888-1.296-2.01-1.296-3.366 0-1.356.426-2.472 1.278-3.348.852-.888 1.968-1.332 3.348-1.332 1.392 0 2.514.486 3.366 1.458.852.96 1.23 2.196 1.134 3.708h-7.164c.024.696.288 1.278.792 1.746.504.468 1.146.702 1.926.702 1.104 0 1.86-.42 2.268-1.26h2.07c-.276.876-.804 1.596-1.584 2.16-.78.564-1.722.846-2.826.846Zm-.036-7.704c-.648 0-1.206.186-1.674.558-.456.36-.75.876-.882 1.548h4.986c-.144-.696-.438-1.218-.882-1.566-.444-.36-.96-.54-1.548-.54ZM373.662 268v-9h8.118v9h-1.98v-7.236h-4.158V268h-1.98Zm12.755 3.762h-1.98V259h1.98v1.206c.276-.384.672-.708 1.188-.972a3.636 3.636 0 0 1 1.71-.414c1.224 0 2.25.456 3.078 1.368.84.912 1.26 2.016 1.26 3.312 0 1.296-.42 2.4-1.26 3.312-.828.912-1.854 1.368-3.078 1.368a3.77 3.77 0 0 1-1.71-.396c-.516-.276-.912-.606-1.188-.99v4.968Zm2.538-5.382c.78 0 1.422-.276 1.926-.828.504-.552.756-1.236.756-2.052 0-.816-.252-1.5-.756-2.052s-1.146-.828-1.926-.828c-.792 0-1.44.276-1.944.828-.504.552-.756 1.236-.756 2.052 0 .816.252 1.5.756 2.052s1.152.828 1.944.828Zm14.131.45c-.9.9-2.016 1.35-3.348 1.35-1.332 0-2.454-.45-3.366-1.35-.9-.912-1.35-2.022-1.35-3.33 0-1.308.45-2.412 1.35-3.312.912-.912 2.034-1.368 3.366-1.368 1.332 0 2.448.456 3.348 1.368.912.9 1.368 2.004 1.368 3.312 0 1.308-.456 2.418-1.368 3.33Zm-3.348-.486c.78 0 1.422-.27 1.926-.81.516-.552.774-1.23.774-2.034 0-.804-.258-1.476-.774-2.016-.504-.552-1.146-.828-1.926-.828-.792 0-1.446.276-1.962.828-.504.54-.756 1.212-.756 2.016s.252 1.482.756 2.034c.516.54 1.17.81 1.962.81Zm16.211-.108v4.014h-1.8V268h-7.704v-9h1.98v7.236h4.122V259h1.98v7.236h1.422Zm5.689 1.944c-1.344 0-2.448-.438-3.312-1.314-.864-.888-1.296-2.01-1.296-3.366 0-1.356.426-2.472 1.278-3.348.852-.888 1.968-1.332 3.348-1.332 1.392 0 2.514.486 3.366 1.458.852.96 1.23 2.196 1.134 3.708h-7.164c.024.696.288 1.278.792 1.746.504.468 1.146.702 1.926.702 1.104 0 1.86-.42 2.268-1.26h2.07c-.276.876-.804 1.596-1.584 2.16-.78.564-1.722.846-2.826.846Zm-.036-7.704c-.648 0-1.206.186-1.674.558-.456.36-.75.876-.882 1.548h4.986c-.144-.696-.438-1.218-.882-1.566-.444-.36-.96-.54-1.548-.54Zm10.655 7.704c-1.356 0-2.484-.45-3.384-1.35-.888-.912-1.332-2.022-1.332-3.33 0-1.308.444-2.412 1.332-3.312.9-.912 2.028-1.368 3.384-1.368 1.164 0 2.154.324 2.97.972a4.359 4.359 0 0 1 1.602 2.502h-2.088a2.391 2.391 0 0 0-.936-1.206c-.432-.312-.948-.468-1.548-.468-.792 0-1.44.27-1.944.81s-.756 1.23-.756 2.07c0 .84.252 1.53.756 2.07.504.54 1.152.81 1.944.81.6 0 1.116-.15 1.548-.45.444-.312.756-.72.936-1.224h2.088a4.359 4.359 0 0 1-1.602 2.502c-.816.648-1.806.972-2.97.972Zm10.512 0c-1.356 0-2.484-.45-3.384-1.35-.888-.912-1.332-2.022-1.332-3.33 0-1.308.444-2.412 1.332-3.312.9-.912 2.028-1.368 3.384-1.368 1.164 0 2.154.324 2.97.972a4.359 4.359 0 0 1 1.602 2.502h-2.088a2.391 2.391 0 0 0-.936-1.206c-.432-.312-.948-.468-1.548-.468-.792 0-1.44.27-1.944.81s-.756 1.23-.756 2.07c0 .84.252 1.53.756 2.07.504.54 1.152.81 1.944.81.6 0 1.116-.15 1.548-.45.444-.312.756-.72.936-1.224h2.088a4.359 4.359 0 0 1-1.602 2.502c-.816.648-1.806.972-2.97.972Zm14.94-.18v-9h1.98v9h-1.98Zm-8.496 0v-9h1.98v2.97h1.89c1.092 0 1.914.306 2.466.918.564.6.846 1.29.846 2.07 0 .792-.282 1.5-.846 2.124-.552.612-1.374.918-2.466.918h-3.87Zm1.98-4.284v2.538h1.728c.504 0 .888-.108 1.152-.324.276-.228.414-.546.414-.954 0-.84-.522-1.26-1.566-1.26h-1.728ZM472.574 268l-3.996-3.834V268h-1.98v-9h1.98v3.852l3.546-3.852h2.412l-4.086 4.428 4.734 4.572h-2.61Zm10.58-1.17c-.9.9-2.016 1.35-3.348 1.35-1.332 0-2.454-.45-3.366-1.35-.9-.912-1.35-2.022-1.35-3.33 0-1.308.45-2.412 1.35-3.312.912-.912 2.034-1.368 3.366-1.368 1.332 0 2.448.456 3.348 1.368.912.9 1.368 2.004 1.368 3.312 0 1.308-.456 2.418-1.368 3.33Zm-3.348-.486c.78 0 1.422-.27 1.926-.81.516-.552.774-1.23.774-2.034 0-.804-.258-1.476-.774-2.016-.504-.552-1.146-.828-1.926-.828-.792 0-1.446.276-1.962.828-.504.54-.756 1.212-.756 2.016s.252 1.482.756 2.034c.516.54 1.17.81 1.962.81Zm6.708-7.344h1.728l3.15 4.104 3.186-4.104h1.728v9h-1.98v-5.886l-2.916 3.78-2.916-3.78V268h-1.98v-9Zm12.463 9v-9h8.118v9h-1.98v-7.236h-4.158V268h-1.98Zm14.465.18c-1.224 0-2.256-.456-3.096-1.368-.828-.912-1.242-2.016-1.242-3.312 0-1.296.414-2.4 1.242-3.312.84-.912 1.872-1.368 3.096-1.368a3.53 3.53 0 0 1 1.692.414c.516.264.912.588 1.188.972V259h1.98v9h-1.98v-1.206c-.276.384-.672.714-1.188.99a3.66 3.66 0 0 1-1.692.396Zm-1.566-2.628c.504.552 1.146.828 1.926.828s1.422-.276 1.926-.828c.504-.552.756-1.236.756-2.052 0-.816-.252-1.5-.756-2.052s-1.146-.828-1.926-.828-1.422.276-1.926.828c-.504.552-.756 1.236-.756 2.052 0 .816.252 1.5.756 2.052Zm9.108 2.448v-9h1.98v3.564h4.338V259h1.98v9h-1.98v-3.672h-4.338V268h-1.98Zm12.733 0h-1.764v-9h1.98v5.994l4.59-5.994h1.764v9h-1.98v-5.994l-4.59 5.994Zm11.004 0h-1.764v-9h1.98v5.994l4.59-5.994h1.764v9h-1.98v-5.994l-4.59 5.994Zm9.024-4.068v-1.944h4.842v1.944h-4.842ZM566.986 268l-3.996-3.834V268h-1.98v-9h1.98v3.852l3.546-3.852h2.412l-4.086 4.428 4.734 4.572h-2.61Zm3.762.144c-.444 0-.768-.024-.972-.072v-1.71c.264.024.462.036.594.036.372 0 .648-.12.828-.36.18-.252.27-.69.27-1.314V259h7.326v9h-1.98v-7.236h-3.366v4.266c0 1.02-.258 1.794-.774 2.322-.504.528-1.146.792-1.926.792Zm12.469-.144h-1.764v-9h1.98v5.994l4.59-5.994h1.764v9h-1.98v-5.994l-4.59 5.994Zm13.218.18c-1.344 0-2.448-.438-3.312-1.314-.864-.888-1.296-2.01-1.296-3.366 0-1.356.426-2.472 1.278-3.348.852-.888 1.968-1.332 3.348-1.332 1.392 0 2.514.486 3.366 1.458.852.96 1.23 2.196 1.134 3.708h-7.164c.024.696.288 1.278.792 1.746.504.468 1.146.702 1.926.702 1.104 0 1.86-.42 2.268-1.26h2.07c-.276.876-.804 1.596-1.584 2.16-.78.564-1.722.846-2.826.846Zm-.036-7.704c-.648 0-1.206.186-1.674.558-.456.36-.75.876-.882 1.548h4.986c-.144-.696-.438-1.218-.882-1.566-.444-.36-.96-.54-1.548-.54Zm6.587 7.524v-9h1.98v3.564h4.338V259h1.98v9h-1.98v-3.672h-4.338V268h-1.98Zm12.643 0v-7.236h-2.7V259h7.506v1.764h-2.826V268h-1.98Zm9.909.18c-1.224 0-2.256-.456-3.096-1.368-.828-.912-1.242-2.016-1.242-3.312 0-1.296.414-2.4 1.242-3.312.84-.912 1.872-1.368 3.096-1.368a3.53 3.53 0 0 1 1.692.414c.516.264.912.588 1.188.972V259h1.98v9h-1.98v-1.206c-.276.384-.672.714-1.188.99a3.66 3.66 0 0 1-1.692.396Zm-1.566-2.628c.504.552 1.146.828 1.926.828s1.422-.276 1.926-.828c.504-.552.756-1.236.756-2.052 0-.816-.252-1.5-.756-2.052s-1.146-.828-1.926-.828-1.422.276-1.926.828c-.504.552-.756 1.236-.756 2.052 0 .816.252 1.5.756 2.052Z" fill="#fff"/></svg>