<svg width="1655" height="621" fill="none" xmlns="http://www.w3.org/2000/svg"><path d="M32.14 172.83v6.66h49.95c.9 0 1.68-.3 2.34-.9.72-.66 1.08-1.47 1.08-2.43 0-.9-.36-1.68-1.08-2.34-.66-.66-1.44-.99-2.34-.99H32.14Zm49.59-8.64c1.68 0 3.24.33 4.68.99 1.5.6 2.79 1.44 3.87 2.52a10.96 10.96 0 0 1 2.61 3.78c.66 1.44.99 3 .99 4.68 0 1.68-.33 3.24-.99 4.68-.6 1.44-1.47 2.7-2.61 3.78-1.08 1.08-2.37 1.95-3.87 2.61-1.44.6-3 .9-4.68.9H32.14v10.98c0 1.2-.45 2.22-1.35 3.06-.84.84-1.83 1.26-2.97 1.26-1.2 0-2.22-.42-3.06-1.26-.84-.84-1.26-1.86-1.26-3.06v-30.6c0-1.2.42-2.22 1.26-3.06.84-.84 1.86-1.26 3.06-1.26h53.91Zm40.575 21.96h25.56l-9.27-12.42c-.42-.48-.96-.99-1.62-1.53-.6-.6-1.23-.9-1.89-.9-.66 0-1.32.3-1.98.9-.6.54-1.08 1.05-1.44 1.53l-9.36 12.42Zm32.04 8.64h-38.61l-5.22 7.02c-.9 1.08-2.01 1.62-3.33 1.62-1.2 0-2.22-.42-3.06-1.26-.84-.84-1.26-1.86-1.26-3.06 0-1.08.3-1.95.9-2.61l21.87-29.43c1.02-1.38 2.37-2.49 4.05-3.33 1.68-.9 3.48-1.35 5.4-1.35 1.8 0 3.51.39 5.13 1.17 1.62.78 2.94 1.86 3.96 3.24l21.87 29.25c.36.42.66.9.9 1.44.24.48.36 1.02.36 1.62 0 1.2-.42 2.22-1.26 3.06-.84.84-1.86 1.26-3.06 1.26-1.44 0-2.58-.57-3.42-1.71l-5.22-6.93Zm32.257-10.98c0-1.2.42-2.22 1.26-3.06.84-.84 1.86-1.26 3.06-1.26h44.73c.9 0 1.68-.33 2.34-.99.66-.66.99-1.47.99-2.43 0-.9-.33-1.65-.99-2.25-.66-.66-1.44-.99-2.34-.99h-54.99c-1.2 0-2.22-.42-3.06-1.26-.84-.84-1.26-1.86-1.26-3.06s.42-2.22 1.26-3.06c.84-.84 1.86-1.26 3.06-1.26h54.54c1.68 0 3.24.3 4.68.9 1.5.6 2.79 1.44 3.87 2.52s1.92 2.34 2.52 3.78c.66 1.44.99 3 .99 4.68 0 1.5-.27 2.91-.81 4.23a10.86 10.86 0 0 1-2.07 3.51c1.92 2.28 2.88 4.86 2.88 7.74 0 1.68-.33 3.24-.99 4.68-.6 1.44-1.44 2.7-2.52 3.78-1.08 1.08-2.37 1.92-3.87 2.52-1.44.6-3 .9-4.68.9h-54.54c-1.2 0-2.22-.42-3.06-1.26-.84-.84-1.26-1.86-1.26-3.06s.42-2.22 1.26-3.06c.84-.84 1.86-1.26 3.06-1.26h54.99c.9 0 1.68-.3 2.34-.9.66-.66.99-1.44.99-2.34 0-.96-.33-1.77-.99-2.43-.66-.66-1.44-.99-2.34-.99h-44.73c-1.2 0-2.22-.42-3.06-1.26-.84-.84-1.26-1.86-1.26-3.06Zm78.272-10.98v6.66h49.95c.9 0 1.68-.3 2.34-.9.72-.66 1.08-1.47 1.08-2.43 0-.9-.36-1.68-1.08-2.34-.66-.66-1.44-.99-2.34-.99h-49.95Zm49.59-8.64c1.68 0 3.24.33 4.68.99 1.5.6 2.79 1.44 3.87 2.52a10.96 10.96 0 0 1 2.61 3.78c.66 1.44.99 3 .99 4.68 0 1.68-.33 3.24-.99 4.68-.6 1.44-1.47 2.7-2.61 3.78-1.08 1.08-2.37 1.95-3.87 2.61-1.44.6-3 .9-4.68.9h-49.59v10.98c0 1.2-.45 2.22-1.35 3.06-.84.84-1.83 1.26-2.97 1.26-1.2 0-2.22-.42-3.06-1.26-.84-.84-1.26-1.86-1.26-3.06v-30.6c0-1.2.42-2.22 1.26-3.06.84-.84 1.86-1.26 3.06-1.26h53.91Zm40.576 21.96h25.56l-9.27-12.42c-.42-.48-.96-.99-1.62-1.53-.6-.6-1.23-.9-1.89-.9-.66 0-1.32.3-1.98.9-.6.54-1.08 1.05-1.44 1.53l-9.36 12.42Zm32.04 8.64h-38.61l-5.22 7.02c-.9 1.08-2.01 1.62-3.33 1.62-1.2 0-2.22-.42-3.06-1.26-.84-.84-1.26-1.86-1.26-3.06 0-1.08.3-1.95.9-2.61l21.87-29.43c1.02-1.38 2.37-2.49 4.05-3.33 1.68-.9 3.48-1.35 5.4-1.35 1.8 0 3.51.39 5.13 1.17 1.62.78 2.94 1.86 3.96 3.24l21.87 29.25c.36.42.66.9.9 1.44.24.48.36 1.02.36 1.62 0 1.2-.42 2.22-1.26 3.06-.84.84-1.86 1.26-3.06 1.26-1.44 0-2.58-.57-3.42-1.71l-5.22-6.93Zm30.636-6.84v6.84h49.95c.9 0 1.68-.33 2.34-.99.72-.66 1.08-1.44 1.08-2.34 0-.96-.36-1.74-1.08-2.34-.66-.66-1.44-.99-2.34-.99h-47.79c-.78 0-1.5-.06-2.16-.18Zm-8.64-19.44c0-1.2.42-2.22 1.26-3.06.84-.84 1.86-1.26 3.06-1.26.3 0 .6.03.9.09h57.15c1.2 0 2.22.42 3.06 1.26.84.84 1.26 1.86 1.26 3.06s-.42 2.22-1.26 3.06c-.84.84-1.86 1.26-3.06 1.26h-53.73v3.24c0 .9.27 1.65.81 2.25.54.6 1.2.96 1.98 1.08h46.8c1.68 0 3.24.33 4.68.99 1.5.6 2.79 1.44 3.87 2.52a10.96 10.96 0 0 1 2.61 3.78c.66 1.44.99 3 .99 4.68 0 1.68-.33 3.24-.99 4.68-.6 1.44-1.47 2.7-2.61 3.78-1.08 1.08-2.37 1.95-3.87 2.61-1.44.6-3 .9-4.68.9h-53.91c-1.2 0-2.22-.42-3.06-1.26-.84-.84-1.26-1.86-1.26-3.06 0-.36.03-.69.09-.99-.06-.3-.09-.63-.09-.99v-28.62Zm134.175 26.28c2.04 0 3.72-.36 5.04-1.08 1.32-.78 2.34-1.71 3.06-2.79a8.725 8.725 0 0 0 1.53-3.51c.3-1.32.45-2.52.45-3.6s-.15-2.25-.45-3.51a8.743 8.743 0 0 0-1.53-3.6c-.72-1.08-1.74-1.98-3.06-2.7-1.32-.78-3-1.17-5.04-1.17h-36.36c-2.1 0-3.81.39-5.13 1.17-1.26.72-2.28 1.62-3.06 2.7-.72 1.08-1.23 2.28-1.53 3.6-.24 1.26-.36 2.43-.36 3.51 0 1.08.12 2.28.36 3.6.3 1.26.81 2.43 1.53 3.51.78 1.08 1.8 2.01 3.06 2.79 1.32.72 3.03 1.08 5.13 1.08h36.36Zm18.45-10.98c0 2.28-.39 4.59-1.17 6.93-.72 2.28-1.8 4.38-3.24 6.3a18.226 18.226 0 0 1-5.22 4.59c-2.04 1.2-4.35 1.8-6.93 1.8h-41.04c-2.46-.12-4.65-.78-6.57-1.98a19.32 19.32 0 0 1-4.95-4.68c-1.32-1.86-2.34-3.93-3.06-6.21-.72-2.28-1.08-4.53-1.08-6.75 0-2.28.36-4.56 1.08-6.84.78-2.34 1.89-4.44 3.33-6.3 1.44-1.92 3.18-3.48 5.22-4.68 2.04-1.2 4.35-1.8 6.93-1.8h41.04c2.46.12 4.65.81 6.57 2.07a16.87 16.87 0 0 1 4.86 4.59c1.38 1.86 2.43 3.93 3.15 6.21.72 2.28 1.08 4.53 1.08 6.75Zm75.246-19.62c1.2 0 2.22.42 3.06 1.26.84.84 1.26 1.86 1.26 3.06 0 1.14-.39 2.13-1.17 2.97-.78.78-1.71 1.23-2.79 1.35h-18.09c-1.8.12-3.3.57-4.5 1.35-1.14.72-2.04 1.62-2.7 2.7a10.41 10.41 0 0 0-1.35 3.51c-.24 1.26-.36 2.4-.36 3.42v15.3c0 1.2-.42 2.22-1.26 3.06-.84.84-1.86 1.26-3.06 1.26s-2.22-.42-3.06-1.26c-.84-.84-1.26-1.86-1.26-3.06v-15.3c0-1.86.24-3.72.72-5.58.48-1.92 1.2-3.72 2.16-5.4h-29.52c-1.2 0-2.22-.42-3.06-1.26-.84-.84-1.26-1.86-1.26-3.06s.42-2.22 1.26-3.06c.84-.84 1.86-1.26 3.06-1.26h61.92Zm21.851 15.3h20.79c3.12 0 6.18-.39 9.18-1.17 3-.84 5.91-1.92 8.73-3.24 2.88-1.32 5.61-2.82 8.19-4.5 2.64-1.68 5.16-3.39 7.56-5.13 1.02-.84 2.04-1.26 3.06-1.26 1.2 0 2.22.42 3.06 1.26.84.84 1.26 1.86 1.26 3.06 0 .84-.24 1.59-.72 2.25-.48.6-1.05 1.14-1.71 1.62-1.56 1.2-3.06 2.34-4.5 3.42a90.005 90.005 0 0 1-4.32 2.88c-1.44.9-2.94 1.77-4.5 2.61-1.5.84-3.12 1.68-4.86 2.52 1.74.84 3.36 1.68 4.86 2.52 1.56.84 3.06 1.71 4.5 2.61 1.44.9 2.88 1.89 4.32 2.97 1.44 1.02 2.94 2.13 4.5 3.33.66.48 1.23 1.05 1.71 1.71.48.6.72 1.32.72 2.16 0 1.2-.42 2.22-1.26 3.06-.84.84-1.86 1.26-3.06 1.26-1.02 0-2.04-.42-3.06-1.26-2.46-1.8-5.01-3.54-7.65-5.22a66.445 66.445 0 0 0-8.1-4.5 50.563 50.563 0 0 0-8.73-3.15c-3-.78-6.06-1.17-9.18-1.17h-20.79v10.98c0 1.2-.42 2.22-1.26 3.06-.84.84-1.83 1.26-2.97 1.26-1.2 0-2.22-.42-3.06-1.26-.84-.84-1.26-1.86-1.26-3.06v-30.6c0-1.2.42-2.22 1.26-3.06.84-.84 1.83-1.26 2.97-1.26 1.2 0 2.22.42 3.06 1.26.84.84 1.26 1.86 1.26 3.06v10.98Zm90.255 6.66h25.56l-9.27-12.42c-.42-.48-.96-.99-1.62-1.53-.6-.6-1.23-.9-1.89-.9-.66 0-1.32.3-1.98.9-.6.54-1.08 1.05-1.44 1.53l-9.36 12.42Zm32.04 8.64h-38.61l-5.22 7.02c-.9 1.08-2.01 1.62-3.33 1.62-1.2 0-2.22-.42-3.06-1.26-.84-.84-1.26-1.86-1.26-3.06 0-1.08.3-1.95.9-2.61l21.87-29.43c1.02-1.38 2.37-2.49 4.05-3.33 1.68-.9 3.48-1.35 5.4-1.35 1.8 0 3.51.39 5.13 1.17 1.62.78 2.94 1.86 3.96 3.24l21.87 29.25c.36.42.66.9.9 1.44.24.48.36 1.02.36 1.62 0 1.2-.42 2.22-1.26 3.06-.84.84-1.86 1.26-3.06 1.26-1.44 0-2.58-.57-3.42-1.71l-5.22-6.93ZM301.165 319.92c0-1.56.54-2.88 1.62-3.96s2.4-1.62 3.96-1.62 2.88.54 3.96 1.62 1.62 2.4 1.62 3.96-.54 2.88-1.62 3.96-2.4 1.62-3.96 1.62-2.88-.54-3.96-1.62-1.62-2.4-1.62-3.96Zm-13.95-3.06h2.25c1.2 0 2.22.42 3.06 1.26.84.84 1.26 1.86 1.26 3.06s-.42 2.22-1.26 3.06c-.84.84-1.86 1.26-3.06 1.26h-19.17a4.554 4.554 0 0 1-2.79-1.35c-.78-.84-1.17-1.83-1.17-2.97 0-1.2.42-2.22 1.26-3.06.84-.84 1.86-1.26 3.06-1.26h5.85l21.15-28.26c1.08-1.38 2.4-2.46 3.96-3.24 1.62-.78 3.33-1.17 5.13-1.17 1.92 0 3.69.45 5.31 1.35 1.68.84 3.06 1.95 4.14 3.33l20.79 27.99h5.4c1.2 0 2.22.42 3.06 1.26.84.84 1.26 1.86 1.26 3.06s-.42 2.22-1.26 3.06c-.84.84-1.86 1.26-3.06 1.26h-19.17a4.554 4.554 0 0 1-2.79-1.35c-.78-.84-1.17-1.83-1.17-2.97 0-1.2.42-2.22 1.26-3.06.84-.84 1.86-1.26 3.06-1.26h2.7l-16.11-21.33c-.36-.48-.87-.99-1.53-1.53-.6-.6-1.23-.9-1.89-.9-.66 0-1.32.3-1.98.9-.6.54-1.11 1.05-1.53 1.53l-16.02 21.33Zm67.105-28.35c0-1.2.42-2.22 1.26-3.06.84-.84 1.86-1.26 3.06-1.26h63.81c1.2 0 2.22.42 3.06 1.26.84.84 1.26 1.86 1.26 3.06s-.42 2.22-1.26 3.06c-.84.84-1.86 1.26-3.06 1.26h-63.81c-1.2 0-2.22-.42-3.06-1.26-.84-.84-1.26-1.86-1.26-3.06Zm10.98 34.92c-1.32 0-2.64-.27-3.96-.81-1.32-.6-2.49-1.41-3.51-2.43-1.02-1.02-1.86-2.25-2.52-3.69-.66-1.44-.99-3.06-.99-4.86v-8.1c0-1.62.45-2.7 1.35-3.24.96-.54 2.43-.81 4.41-.81h60.39c1.2 0 2.22.42 3.06 1.26.84.84 1.26 1.86 1.26 3.06s-.42 2.22-1.26 3.06c-.84.84-1.86 1.26-3.06 1.26h-57.51v4.41c0 .6.24 1.14.72 1.62.54.42 1.23.63 2.07.63h56.7c1.2 0 2.22.42 3.06 1.26.84.84 1.26 1.86 1.26 3.06s-.42 2.22-1.26 3.06c-.84.84-1.86 1.26-3.06 1.26H365.3Zm136.735-39.24c1.2 0 2.22.42 3.06 1.26.84.84 1.26 1.86 1.26 3.06 0 1.14-.39 2.13-1.17 2.97-.78.78-1.71 1.23-2.79 1.35h-18.09c-1.8.12-3.3.57-4.5 1.35-1.14.72-2.04 1.62-2.7 2.7a10.41 10.41 0 0 0-1.35 3.51c-.24 1.26-.36 2.4-.36 3.42v15.3c0 1.2-.42 2.22-1.26 3.06-.84.84-1.86 1.26-3.06 1.26s-2.22-.42-3.06-1.26c-.84-.84-1.26-1.86-1.26-3.06v-15.3c0-1.86.24-3.72.72-5.58.48-1.92 1.2-3.72 2.16-5.4h-29.52c-1.2 0-2.22-.42-3.06-1.26-.84-.84-1.26-1.86-1.26-3.06s.42-2.22 1.26-3.06c.84-.84 1.86-1.26 3.06-1.26h61.92Zm32.741 21.96h25.56l-9.27-12.42c-.42-.48-.96-.99-1.62-1.53-.6-.6-1.23-.9-1.89-.9-.66 0-1.32.3-1.98.9-.6.54-1.08 1.05-1.44 1.53l-9.36 12.42Zm32.04 8.64h-38.61l-5.22 7.02c-.9 1.08-2.01 1.62-3.33 1.62-1.2 0-2.22-.42-3.06-1.26-.84-.84-1.26-1.86-1.26-3.06 0-1.08.3-1.95.9-2.61l21.87-29.43c1.02-1.38 2.37-2.49 4.05-3.33 1.68-.9 3.48-1.35 5.4-1.35 1.8 0 3.51.39 5.13 1.17 1.62.78 2.94 1.86 3.96 3.24l21.87 29.25c.36.42.66.9.9 1.44.24.48.36 1.02.36 1.62 0 1.2-.42 2.22-1.26 3.06-.84.84-1.86 1.26-3.06 1.26-1.44 0-2.58-.57-3.42-1.71l-5.22-6.93Zm29.647 7.02c-.9 1.08-2.01 1.62-3.33 1.62-1.2 0-2.22-.42-3.06-1.26-.84-.84-1.26-1.86-1.26-3.06 0-1.08.3-1.95.9-2.61l21.87-29.43c1.02-1.38 2.37-2.49 4.05-3.33 1.68-.9 3.48-1.35 5.4-1.35 1.8 0 3.51.39 5.13 1.17 1.62.78 2.94 1.86 3.96 3.24l21.87 29.25c.36.42.66.9.9 1.44.24.48.36 1.02.36 1.62 0 1.2-.42 2.22-1.26 3.06-.84.84-1.86 1.26-3.06 1.26-1.44 0-2.58-.57-3.42-1.71l-20.97-27.99c-.42-.48-.96-.99-1.62-1.53-.6-.6-1.23-.9-1.89-.9-.66 0-1.32.3-1.98.9-.6.54-1.08 1.05-1.44 1.53l-21.15 28.08Zm74.466-15.57c0 2.16.12 3.81.36 4.95.24 1.14.81 1.71 1.71 1.71.48 0 1.08-.18 1.8-.54.78-.42 1.74-.96 2.88-1.62l41.22-25.2c.66-.42 1.38-.75 2.16-.99.84-.24 1.68-.36 2.52-.36 2.46 0 4.5.84 6.12 2.52 1.68 1.68 2.52 3.75 2.52 6.21v26.19c0 1.2-.42 2.22-1.26 3.06-.84.84-1.86 1.26-3.06 1.26s-2.22-.42-3.06-1.26c-.84-.84-1.26-1.86-1.26-3.06v-17.73c0-2.16-.12-3.81-.36-4.95-.24-1.14-.81-1.71-1.71-1.71-.48 0-1.11.21-1.89.63-.72.36-1.65.87-2.79 1.53l-41.22 25.2c-.66.42-1.41.75-2.25.99-.78.24-1.59.36-2.43.36-2.46 0-4.53-.84-6.21-2.52-1.62-1.68-2.43-3.75-2.43-6.21v-26.19c0-1.2.42-2.22 1.26-3.06.84-.84 1.86-1.26 3.06-1.26s2.22.42 3.06 1.26c.84.84 1.26 1.86 1.26 3.06v17.73Zm80.546-2.43c0-1.2.42-2.22 1.26-3.06.84-.84 1.86-1.26 3.06-1.26h44.73c.9 0 1.68-.33 2.34-.99.66-.66.99-1.47.99-2.43 0-.9-.33-1.65-.99-2.25-.66-.66-1.44-.99-2.34-.99h-54.99c-1.2 0-2.22-.42-3.06-1.26-.84-.84-1.26-1.86-1.26-3.06s.42-2.22 1.26-3.06c.84-.84 1.86-1.26 3.06-1.26h54.54c1.68 0 3.24.3 4.68.9 1.5.6 2.79 1.44 3.87 2.52s1.92 2.34 2.52 3.78c.66 1.44.99 3 .99 4.68 0 1.5-.27 2.91-.81 4.23a10.86 10.86 0 0 1-2.07 3.51c1.92 2.28 2.88 4.86 2.88 7.74 0 1.68-.33 3.24-.99 4.68-.6 1.44-1.44 2.7-2.52 3.78-1.08 1.08-2.37 1.92-3.87 2.52-1.44.6-3 .9-4.68.9h-54.54c-1.2 0-2.22-.42-3.06-1.26-.84-.84-1.26-1.86-1.26-3.06s.42-2.22 1.26-3.06c.84-.84 1.86-1.26 3.06-1.26h54.99c.9 0 1.68-.3 2.34-.9.66-.66.99-1.44.99-2.34 0-.96-.33-1.77-.99-2.43-.66-.66-1.44-.99-2.34-.99h-44.73c-1.2 0-2.22-.42-3.06-1.26-.84-.84-1.26-1.86-1.26-3.06Zm78.272 2.43c0 2.16.12 3.81.36 4.95.24 1.14.81 1.71 1.71 1.71.48 0 1.08-.18 1.8-.54.78-.42 1.74-.96 2.88-1.62l41.22-25.2c.66-.42 1.38-.75 2.16-.99.84-.24 1.68-.36 2.52-.36 2.46 0 4.5.84 6.12 2.52 1.68 1.68 2.52 3.75 2.52 6.21v26.19c0 1.2-.42 2.22-1.26 3.06-.84.84-1.86 1.26-3.06 1.26s-2.22-.42-3.06-1.26c-.84-.84-1.26-1.86-1.26-3.06v-17.73c0-2.16-.12-3.81-.36-4.95-.24-1.14-.81-1.71-1.71-1.71-.48 0-1.11.21-1.89.63-.72.36-1.65.87-2.79 1.53l-41.22 25.2c-.66.42-1.41.75-2.25.99-.78.24-1.59.36-2.43.36-2.46 0-4.53-.84-6.21-2.52-1.62-1.68-2.43-3.75-2.43-6.21v-26.19c0-1.2.42-2.22 1.26-3.06.84-.84 1.86-1.26 3.06-1.26s2.22.42 3.06 1.26c.84.84 1.26 1.86 1.26 3.06v17.73Zm78.926-13.41v6.66h49.95c.9 0 1.68-.3 2.34-.9.72-.66 1.08-1.47 1.08-2.43 0-.9-.36-1.68-1.08-2.34-.66-.66-1.44-.99-2.34-.99h-49.95Zm49.59-8.64c1.68 0 3.24.33 4.68.99 1.5.6 2.79 1.44 3.87 2.52a10.96 10.96 0 0 1 2.61 3.78c.66 1.44.99 3 .99 4.68 0 1.68-.33 3.24-.99 4.68-.6 1.44-1.47 2.7-2.61 3.78-1.08 1.08-2.37 1.95-3.87 2.61-1.44.6-3 .9-4.68.9h-49.59v10.98c0 1.2-.45 2.22-1.35 3.06-.84.84-1.83 1.26-2.97 1.26-1.2 0-2.22-.42-3.06-1.26-.84-.84-1.26-1.86-1.26-3.06v-30.6c0-1.2.42-2.22 1.26-3.06.84-.84 1.86-1.26 3.06-1.26h53.91Zm75.947 30.6c2.04 0 3.72-.36 5.04-1.08 1.32-.78 2.34-1.71 3.06-2.79a8.725 8.725 0 0 0 1.53-3.51c.3-1.32.45-2.52.45-3.6s-.15-2.25-.45-3.51a8.743 8.743 0 0 0-1.53-3.6c-.72-1.08-1.74-1.98-3.06-2.7-1.32-.78-3-1.17-5.04-1.17h-36.362c-2.1 0-3.81.39-5.13 1.17-1.26.72-2.28 1.62-3.06 2.7-.72 1.08-1.23 2.28-1.53 3.6-.24 1.26-.36 2.43-.36 3.51 0 1.08.12 2.28.36 3.6.3 1.26.81 2.43 1.53 3.51.78 1.08 1.8 2.01 3.06 2.79 1.32.72 3.03 1.08 5.13 1.08h36.362Zm18.45-10.98c0 2.28-.39 4.59-1.17 6.93-.72 2.28-1.8 4.38-3.24 6.3a18.226 18.226 0 0 1-5.22 4.59c-2.04 1.2-4.35 1.8-6.93 1.8h-41.042c-2.46-.12-4.65-.78-6.57-1.98a19.32 19.32 0 0 1-4.95-4.68c-1.32-1.86-2.34-3.93-3.06-6.21-.72-2.28-1.08-4.53-1.08-6.75 0-2.28.36-4.56 1.08-6.84.78-2.34 1.89-4.44 3.33-6.3 1.44-1.92 3.18-3.48 5.22-4.68 2.04-1.2 4.35-1.8 6.93-1.8H1037c2.46.12 4.65.81 6.57 2.07a16.87 16.87 0 0 1 4.86 4.59c1.38 1.86 2.43 3.93 3.15 6.21.72 2.28 1.08 4.53 1.08 6.75Zm17.64 10.98h49.95c.9 0 1.68-.33 2.34-.99.72-.66 1.08-1.44 1.08-2.34 0-.96-.36-1.74-1.08-2.34-.66-.66-1.44-.99-2.34-.99h-49.95v6.66Zm0-21.96v6.66h50.04c.9 0 1.68-.3 2.34-.9.66-.6.99-1.38.99-2.34 0-.9-.36-1.68-1.08-2.34-.66-.72-1.44-1.08-2.34-1.08h-49.95Zm-4.32 30.6c-1.2 0-2.22-.42-3.06-1.26-.84-.84-1.26-1.86-1.26-3.06v-30.6c0-1.2.42-2.22 1.26-3.06.84-.84 1.86-1.26 3.06-1.26h53.91c1.68 0 3.24.33 4.68.99 1.5.6 2.79 1.44 3.87 2.52 1.14 1.08 2.01 2.37 2.61 3.87.66 1.44.99 3 .99 4.68 0 1.5-.27 2.91-.81 4.23-.48 1.26-1.14 2.4-1.98 3.42.84 1.02 1.5 2.19 1.98 3.51.54 1.26.81 2.61.81 4.05 0 1.68-.33 3.24-.99 4.68-.6 1.44-1.47 2.7-2.61 3.78-1.08 1.08-2.37 1.95-3.87 2.61-1.44.6-3 .9-4.68.9h-53.91Zm94.49-17.28h25.56l-9.27-12.42c-.42-.48-.96-.99-1.62-1.53-.6-.6-1.23-.9-1.89-.9-.66 0-1.32.3-1.98.9-.6.54-1.08 1.05-1.44 1.53l-9.36 12.42Zm32.04 8.64h-38.61l-5.22 7.02c-.9 1.08-2.01 1.62-3.33 1.62-1.2 0-2.22-.42-3.06-1.26-.84-.84-1.26-1.86-1.26-3.06 0-1.08.3-1.95.9-2.61l21.87-29.43c1.02-1.38 2.37-2.49 4.05-3.33 1.68-.9 3.48-1.35 5.4-1.35 1.8 0 3.51.39 5.13 1.17 1.62.78 2.94 1.86 3.96 3.24l21.87 29.25c.36.42.66.9.9 1.44.24.48.36 1.02.36 1.62 0 1.2-.42 2.22-1.26 3.06-.84.84-1.86 1.26-3.06 1.26-1.44 0-2.58-.57-3.42-1.71l-5.22-6.93Zm92.47 4.32c0 1.2-.42 2.22-1.26 3.06-.84.84-1.86 1.26-3.06 1.26s-2.22-.42-3.06-1.26c-.84-.84-1.26-1.86-1.26-3.06v-10.98h-53.19v10.98c0 1.2-.42 2.22-1.26 3.06-.84.84-1.86 1.26-3.06 1.26s-2.22-.42-3.06-1.26c-.84-.84-1.26-1.86-1.26-3.06v-30.6c0-1.2.42-2.22 1.26-3.06.84-.84 1.86-1.26 3.06-1.26s2.22.42 3.06 1.26c.84.84 1.26 1.86 1.26 3.06v10.98h53.19v-10.98c0-1.2.42-2.22 1.26-3.06.84-.84 1.86-1.26 3.06-1.26s2.22.42 3.06 1.26c.84.84 1.26 1.86 1.26 3.06v30.6Zm79.45 0c0 1.2-.42 2.22-1.26 3.06-.84.84-1.86 1.26-3.06 1.26s-2.22-.42-3.06-1.26c-.84-.84-1.26-1.86-1.26-3.06v-10.98h-53.19v10.98c0 1.2-.42 2.22-1.26 3.06-.84.84-1.86 1.26-3.06 1.26s-2.22-.42-3.06-1.26c-.84-.84-1.26-1.86-1.26-3.06v-30.6c0-1.2.42-2.22 1.26-3.06.84-.84 1.86-1.26 3.06-1.26s2.22.42 3.06 1.26c.84.84 1.26 1.86 1.26 3.06v10.98h53.19v-10.98c0-1.2.42-2.22 1.26-3.06.84-.84 1.86-1.26 3.06-1.26s2.22.42 3.06 1.26c.84.84 1.26 1.86 1.26 3.06v30.6Zm63.79-4.32c2.04 0 3.72-.36 5.04-1.08 1.32-.78 2.34-1.71 3.06-2.79a8.725 8.725 0 0 0 1.53-3.51c.3-1.32.45-2.52.45-3.6s-.15-2.25-.45-3.51a8.743 8.743 0 0 0-1.53-3.6c-.72-1.08-1.74-1.98-3.06-2.7-1.32-.78-3-1.17-5.04-1.17h-36.36c-2.1 0-3.81.39-5.13 1.17-1.26.72-2.28 1.62-3.06 2.7-.72 1.08-1.23 2.28-1.53 3.6-.24 1.26-.36 2.43-.36 3.51 0 1.08.12 2.28.36 3.6.3 1.26.81 2.43 1.53 3.51.78 1.08 1.8 2.01 3.06 2.79 1.32.72 3.03 1.08 5.13 1.08h36.36Zm18.45-10.98c0 2.28-.39 4.59-1.17 6.93-.72 2.28-1.8 4.38-3.24 6.3a18.226 18.226 0 0 1-5.22 4.59c-2.04 1.2-4.35 1.8-6.93 1.8h-41.04c-2.46-.12-4.65-.78-6.57-1.98a19.32 19.32 0 0 1-4.95-4.68c-1.32-1.86-2.34-3.93-3.06-6.21-.72-2.28-1.08-4.53-1.08-6.75 0-2.28.36-4.56 1.08-6.84.78-2.34 1.89-4.44 3.33-6.3 1.44-1.92 3.18-3.48 5.22-4.68 2.04-1.2 4.35-1.8 6.93-1.8h41.04c2.46.12 4.65.81 6.57 2.07a16.87 16.87 0 0 1 4.86 4.59c1.38 1.86 2.43 3.93 3.15 6.21.72 2.28 1.08 4.53 1.08 6.75Zm75.07-19.62c1.2 0 2.22.42 3.06 1.26.84.84 1.26 1.86 1.26 3.06s-.42 2.22-1.26 3.06c-.84.84-1.86 1.26-3.06 1.26h-54c-.9 0-1.71.33-2.43.99-.66.66-.99 1.44-.99 2.34v22.95c0 1.2-.45 2.22-1.35 3.06-.84.84-1.83 1.26-2.97 1.26-1.2 0-2.22-.42-3.06-1.26-.84-.84-1.26-1.86-1.26-3.06v-22.95c0-1.68.33-3.24.99-4.68.66-1.44 1.53-2.7 2.61-3.78 1.14-1.08 2.46-1.92 3.96-2.52 1.5-.66 3.09-.99 4.77-.99h53.73Zm68.11 30.6c2.04 0 3.72-.36 5.04-1.08 1.32-.78 2.34-1.71 3.06-2.79a8.725 8.725 0 0 0 1.53-3.51c.3-1.32.45-2.52.45-3.6s-.15-2.25-.45-3.51a8.743 8.743 0 0 0-1.53-3.6c-.72-1.08-1.74-1.98-3.06-2.7-1.32-.78-3-1.17-5.04-1.17h-36.36c-2.1 0-3.81.39-5.13 1.17-1.26.72-2.28 1.62-3.06 2.7-.72 1.08-1.23 2.28-1.53 3.6-.24 1.26-.36 2.43-.36 3.51 0 1.08.12 2.28.36 3.6.3 1.26.81 2.43 1.53 3.51.78 1.08 1.8 2.01 3.06 2.79 1.32.72 3.03 1.08 5.13 1.08h36.36Zm18.45-10.98c0 2.28-.39 4.59-1.17 6.93-.72 2.28-1.8 4.38-3.24 6.3a18.226 18.226 0 0 1-5.22 4.59c-2.04 1.2-4.35 1.8-6.93 1.8h-41.04c-2.46-.12-4.65-.78-6.57-1.98a19.32 19.32 0 0 1-4.95-4.68c-1.32-1.86-2.34-3.93-3.06-6.21-.72-2.28-1.08-4.53-1.08-6.75 0-2.28.36-4.56 1.08-6.84.78-2.34 1.89-4.44 3.33-6.3 1.44-1.92 3.18-3.48 5.22-4.68 2.04-1.2 4.35-1.8 6.93-1.8h41.04c2.46.12 4.65.81 6.57 2.07a16.87 16.87 0 0 1 4.86 4.59c1.38 1.86 2.43 3.93 3.15 6.21.72 2.28 1.08 4.53 1.08 6.75Zm-1584.8 120c0-2.28.36-4.56 1.08-6.84.78-2.34 1.89-4.44 3.33-6.3 1.44-1.92 3.18-3.48 5.22-4.68 2.04-1.2 4.35-1.8 6.93-1.8h52.47c1.2 0 2.22.42 3.06 1.26.84.84 1.26 1.86 1.26 3.06s-.42 2.22-1.26 3.06c-.84.84-1.86 1.26-3.06 1.26H41.95c-2.1 0-3.81.39-5.13 1.17-1.26.72-2.28 1.62-3.06 2.7-.72 1.08-1.23 2.28-1.53 3.6-.24 1.26-.36 2.43-.36 3.51 0 1.08.12 2.28.36 3.6.3 1.26.81 2.43 1.53 3.51.78 1.08 1.8 2.01 3.06 2.79 1.32.72 3.03 1.08 5.13 1.08h50.58c1.2 0 2.22.42 3.06 1.26.84.84 1.26 1.86 1.26 3.06s-.42 2.22-1.26 3.06c-.84.84-1.86 1.26-3.06 1.26H39.16c-2.46 0-4.65-.6-6.57-1.8-1.92-1.2-3.57-2.73-4.95-4.59-1.32-1.92-2.34-4.05-3.06-6.39-.72-2.34-1.08-4.62-1.08-6.84Zm82.354-15.3c0-1.2.42-2.22 1.26-3.06.84-.84 1.86-1.26 3.06-1.26h63.81c1.2 0 2.22.42 3.06 1.26.84.84 1.26 1.86 1.26 3.06s-.42 2.22-1.26 3.06c-.84.84-1.86 1.26-3.06 1.26h-63.81c-1.2 0-2.22-.42-3.06-1.26-.84-.84-1.26-1.86-1.26-3.06Zm10.98 34.92c-1.32 0-2.64-.27-3.96-.81-1.32-.6-2.49-1.41-3.51-2.43-1.02-1.02-1.86-2.25-2.52-3.69-.66-1.44-.99-3.06-.99-4.86v-8.1c0-1.62.45-2.7 1.35-3.24.96-.54 2.43-.81 4.41-.81h60.39c1.2 0 2.22.42 3.06 1.26.84.84 1.26 1.86 1.26 3.06s-.42 2.22-1.26 3.06c-.84.84-1.86 1.26-3.06 1.26h-57.51v4.41c0 .6.24 1.14.72 1.62.54.42 1.23.63 2.07.63h56.7c1.2 0 2.22.42 3.06 1.26.84.84 1.26 1.86 1.26 3.06s-.42 2.22-1.26 3.06c-.84.84-1.86 1.26-3.06 1.26h-57.15Zm146.454-4.32c0 1.2-.42 2.22-1.26 3.06-.84.84-1.86 1.26-3.06 1.26s-2.22-.42-3.06-1.26c-.84-.84-1.26-1.86-1.26-3.06v-19.62c0-2.46-.15-3.69-.45-3.69-.24 0-1.08.81-2.52 2.43l-19.8 22.5a7.71 7.71 0 0 1-2.88 2.07c-1.14.42-2.37.63-3.69.63-1.32 0-2.55-.21-3.69-.63a7.71 7.71 0 0 1-2.88-2.07l-19.8-22.5c-1.38-1.62-2.22-2.43-2.52-2.43-.3 0-.45 1.23-.45 3.69v19.62c0 1.2-.42 2.22-1.26 3.06-.84.84-1.86 1.26-3.06 1.26s-2.22-.42-3.06-1.26c-.84-.84-1.26-1.86-1.26-3.06v-26.28c0-2.4.69-4.44 2.07-6.12 1.38-1.68 3.27-2.52 5.67-2.52 1.44 0 2.73.36 3.87 1.08 1.14.72 2.19 1.59 3.15 2.61l20.7 23.58c.3.3.66.63 1.08.99.48.3.96.45 1.44.45s.93-.15 1.35-.45c.48-.36.87-.69 1.17-.99l20.61-23.58h.09a9.393 9.393 0 0 1 3.06-2.7c1.2-.66 2.52-.99 3.96-.99 2.4 0 4.29.84 5.67 2.52 1.38 1.68 2.07 3.72 2.07 6.12v26.28Zm28.47-12.96h25.56l-9.27-12.42c-.42-.48-.96-.99-1.62-1.53-.6-.6-1.23-.9-1.89-.9-.66 0-1.32.3-1.98.9-.6.54-1.08 1.05-1.44 1.53l-9.36 12.42Zm32.04 8.64h-38.61l-5.22 7.02c-.9 1.08-2.01 1.62-3.33 1.62-1.2 0-2.22-.42-3.06-1.26-.84-.84-1.26-1.86-1.26-3.06 0-1.08.3-1.95.9-2.61l21.87-29.43c1.02-1.38 2.37-2.49 4.05-3.33 1.68-.9 3.48-1.35 5.4-1.35 1.8 0 3.51.39 5.13 1.17 1.62.78 2.94 1.86 3.96 3.24l21.87 29.25c.36.42.66.9.9 1.44.24.48.36 1.02.36 1.62 0 1.2-.42 2.22-1.26 3.06-.84.84-1.86 1.26-3.06 1.26-1.44 0-2.58-.57-3.42-1.71l-5.22-6.93Zm92.467 4.32c0 1.2-.42 2.22-1.26 3.06-.84.84-1.86 1.26-3.06 1.26s-2.22-.42-3.06-1.26c-.84-.84-1.26-1.86-1.26-3.06v-10.98h-53.19v10.98c0 1.2-.42 2.22-1.26 3.06-.84.84-1.86 1.26-3.06 1.26s-2.22-.42-3.06-1.26c-.84-.84-1.26-1.86-1.26-3.06v-30.6c0-1.2.42-2.22 1.26-3.06.84-.84 1.86-1.26 3.06-1.26s2.22.42 3.06 1.26c.84.84 1.26 1.86 1.26 3.06v10.98h53.19v-10.98c0-1.2.42-2.22 1.26-3.06.84-.84 1.86-1.26 3.06-1.26s2.22.42 3.06 1.26c.84.84 1.26 1.86 1.26 3.06v30.6Zm75.223-34.92c1.2 0 2.22.42 3.06 1.26.84.84 1.26 1.86 1.26 3.06 0 1.14-.39 2.13-1.17 2.97-.78.78-1.71 1.23-2.79 1.35h-18.09c-1.8.12-3.3.57-4.5 1.35-1.14.72-2.04 1.62-2.7 2.7a10.41 10.41 0 0 0-1.35 3.51c-.24 1.26-.36 2.4-.36 3.42v15.3c0 1.2-.42 2.22-1.26 3.06-.84.84-1.86 1.26-3.06 1.26s-2.22-.42-3.06-1.26c-.84-.84-1.26-1.86-1.26-3.06v-15.3c0-1.86.24-3.72.72-5.58.48-1.92 1.2-3.72 2.16-5.4h-29.52c-1.2 0-2.22-.42-3.06-1.26-.84-.84-1.26-1.86-1.26-3.06s.42-2.22 1.26-3.06c.84-.84 1.86-1.26 3.06-1.26h61.92Zm21.941 22.05c0 2.16.12 3.81.36 4.95.24 1.14.81 1.71 1.71 1.71.48 0 1.08-.18 1.8-.54.78-.42 1.74-.96 2.88-1.62l41.22-25.2c.66-.42 1.38-.75 2.16-.99.84-.24 1.68-.36 2.52-.36 2.46 0 4.5.84 6.12 2.52 1.68 1.68 2.52 3.75 2.52 6.21v26.19c0 1.2-.42 2.22-1.26 3.06-.84.84-1.86 1.26-3.06 1.26s-2.22-.42-3.06-1.26c-.84-.84-1.26-1.86-1.26-3.06v-17.73c0-2.16-.12-3.81-.36-4.95-.24-1.14-.81-1.71-1.71-1.71-.48 0-1.11.21-1.89.63-.72.36-1.65.87-2.79 1.53l-41.22 25.2c-.66.42-1.41.75-2.25.99-.78.24-1.59.36-2.43.36-2.46 0-4.53-.84-6.21-2.52-1.62-1.68-2.43-3.75-2.43-6.21v-26.19c0-1.2.42-2.22 1.26-3.06.84-.84 1.86-1.26 3.06-1.26s2.22.42 3.06 1.26c.84.84 1.26 1.86 1.26 3.06v17.73Zm78.926-6.48c0 .96.33 1.77.99 2.43.72.6 1.53.9 2.43.9h49.86v-14.58c0-1.2.42-2.22 1.26-3.06.84-.84 1.86-1.26 3.06-1.26s2.22.42 3.06 1.26c.84.84 1.26 1.86 1.26 3.06v30.6c0 1.2-.42 2.22-1.26 3.06-.84.84-1.86 1.26-3.06 1.26-1.14 0-2.16-.42-3.06-1.26-.84-.84-1.26-1.86-1.26-3.06v-7.38h-49.5c-1.68 0-3.27-.3-4.77-.9-1.5-.66-2.82-1.53-3.96-2.61a12.104 12.104 0 0 1-2.7-3.78c-.66-1.44-.99-3-.99-4.68v-11.25c0-1.2.42-2.22 1.26-3.06.84-.84 1.86-1.26 3.06-1.26s2.22.42 3.06 1.26c.84.84 1.26 1.86 1.26 3.06v11.25Zm70.901-11.25c0-1.2.42-2.22 1.26-3.06.84-.84 1.86-1.26 3.06-1.26h63.81c1.2 0 2.22.42 3.06 1.26.84.84 1.26 1.86 1.26 3.06s-.42 2.22-1.26 3.06c-.84.84-1.86 1.26-3.06 1.26h-63.81c-1.2 0-2.22-.42-3.06-1.26-.84-.84-1.26-1.86-1.26-3.06Zm10.98 34.92c-1.32 0-2.64-.27-3.96-.81-1.32-.6-2.49-1.41-3.51-2.43-1.02-1.02-1.86-2.25-2.52-3.69-.66-1.44-.99-3.06-.99-4.86v-8.1c0-1.62.45-2.7 1.35-3.24.96-.54 2.43-.81 4.41-.81h60.39c1.2 0 2.22.42 3.06 1.26.84.84 1.26 1.86 1.26 3.06s-.42 2.22-1.26 3.06c-.84.84-1.86 1.26-3.06 1.26h-57.51v4.41c0 .6.24 1.14.72 1.62.54.42 1.23.63 2.07.63h56.7c1.2 0 2.22.42 3.06 1.26.84.84 1.26 1.86 1.26 3.06s-.42 2.22-1.26 3.06c-.84.84-1.86 1.26-3.06 1.26h-57.15Zm70.494-19.62c0-2.28.36-4.56 1.08-6.84.78-2.34 1.89-4.44 3.33-6.3 1.44-1.92 3.18-3.48 5.22-4.68 2.04-1.2 4.35-1.8 6.93-1.8h52.47c1.2 0 2.22.42 3.06 1.26.84.84 1.26 1.86 1.26 3.06s-.42 2.22-1.26 3.06c-.84.84-1.86 1.26-3.06 1.26h-50.58c-2.1 0-3.81.39-5.13 1.17-1.26.72-2.28 1.62-3.06 2.7-.72 1.08-1.23 2.28-1.53 3.6-.24 1.26-.36 2.43-.36 3.51 0 1.08.12 2.28.36 3.6.3 1.26.81 2.43 1.53 3.51.78 1.08 1.8 2.01 3.06 2.79 1.32.72 3.03 1.08 5.13 1.08h50.58c1.2 0 2.22.42 3.06 1.26.84.84 1.26 1.86 1.26 3.06s-.42 2.22-1.26 3.06c-.84.84-1.86 1.26-3.06 1.26h-53.37c-2.46 0-4.65-.6-6.57-1.8-1.92-1.2-3.57-2.73-4.95-4.59-1.32-1.92-2.34-4.05-3.06-6.39-.72-2.34-1.08-4.62-1.08-6.84Zm90.904-4.32h20.79c3.12 0 6.18-.39 9.18-1.17 3-.84 5.91-1.92 8.73-3.24 2.88-1.32 5.61-2.82 8.19-4.5 2.64-1.68 5.16-3.39 7.56-5.13 1.02-.84 2.04-1.26 3.06-1.26 1.2 0 2.22.42 3.06 1.26.84.84 1.26 1.86 1.26 3.06 0 .84-.24 1.59-.72 2.25-.48.6-1.05 1.14-1.71 1.62-1.56 1.2-3.06 2.34-4.5 3.42a90.005 90.005 0 0 1-4.32 2.88c-1.44.9-2.94 1.77-4.5 2.61-1.5.84-3.12 1.68-4.86 2.52 1.74.84 3.36 1.68 4.86 2.52 1.56.84 3.06 1.71 4.5 2.61 1.44.9 2.88 1.89 4.32 2.97 1.44 1.02 2.94 2.13 4.5 3.33.66.48 1.23 1.05 1.71 1.71.48.6.72 1.32.72 2.16 0 1.2-.42 2.22-1.26 3.06-.84.84-1.86 1.26-3.06 1.26-1.02 0-2.04-.42-3.06-1.26-2.46-1.8-5.01-3.54-7.65-5.22a66.445 66.445 0 0 0-8.1-4.5 50.563 50.563 0 0 0-8.73-3.15c-3-.78-6.06-1.17-9.18-1.17h-20.79v10.98c0 1.2-.42 2.22-1.26 3.06-.84.84-1.83 1.26-2.97 1.26-1.2 0-2.22-.42-3.06-1.26-.84-.84-1.26-1.86-1.26-3.06v-30.6c0-1.2.42-2.22 1.26-3.06.84-.84 1.83-1.26 2.97-1.26 1.2 0 2.22.42 3.06 1.26.84.84 1.26 1.86 1.26 3.06v10.98Zm125.625 15.3c2.04 0 3.72-.36 5.04-1.08 1.32-.78 2.34-1.71 3.06-2.79a8.725 8.725 0 0 0 1.53-3.51c.3-1.32.45-2.52.45-3.6s-.15-2.25-.45-3.51a8.743 8.743 0 0 0-1.53-3.6c-.72-1.08-1.74-1.98-3.06-2.7-1.32-.78-3-1.17-5.04-1.17h-36.36c-2.1 0-3.81.39-5.13 1.17-1.26.72-2.28 1.62-3.06 2.7-.72 1.08-1.23 2.28-1.53 3.6-.24 1.26-.36 2.43-.36 3.51 0 1.08.12 2.28.36 3.6.3 1.26.81 2.43 1.53 3.51.78 1.08 1.8 2.01 3.06 2.79 1.32.72 3.03 1.08 5.13 1.08h36.36Zm18.45-10.98c0 2.28-.39 4.59-1.17 6.93-.72 2.28-1.8 4.38-3.24 6.3a18.226 18.226 0 0 1-5.22 4.59c-2.04 1.2-4.35 1.8-6.93 1.8h-41.04c-2.46-.12-4.65-.78-6.57-1.98a19.32 19.32 0 0 1-4.95-4.68c-1.32-1.86-2.34-3.93-3.06-6.21-.72-2.28-1.08-4.53-1.08-6.75 0-2.28.36-4.56 1.08-6.84.78-2.34 1.89-4.44 3.33-6.3 1.44-1.92 3.18-3.48 5.22-4.68 2.04-1.2 4.35-1.8 6.93-1.8h41.04c2.46.12 4.65.81 6.57 2.07a16.87 16.87 0 0 1 4.86 4.59c1.38 1.86 2.43 3.93 3.15 6.21.72 2.28 1.08 4.53 1.08 6.75Zm75.061-19.62c1.2 0 2.22.42 3.06 1.26.84.84 1.26 1.86 1.26 3.06s-.42 2.22-1.26 3.06c-.84.84-1.86 1.26-3.06 1.26h-54c-.895 0-1.705.33-2.425.99-.66.66-.99 1.44-.99 2.34v22.95c0 1.2-.45 2.22-1.35 3.06-.84.84-1.83 1.26-2.97 1.26-1.2 0-2.22-.42-3.06-1.26-.84-.84-1.26-1.86-1.26-3.06v-22.95c0-1.68.33-3.24.99-4.68.66-1.44 1.53-2.7 2.61-3.78 1.14-1.08 2.46-1.92 3.96-2.52 1.5-.66 3.09-.99 4.765-.99h53.73Zm68.12 30.6c2.04 0 3.72-.36 5.04-1.08 1.32-.78 2.34-1.71 3.06-2.79a8.725 8.725 0 0 0 1.53-3.51c.3-1.32.45-2.52.45-3.6s-.15-2.25-.45-3.51a8.743 8.743 0 0 0-1.53-3.6c-.72-1.08-1.74-1.98-3.06-2.7-1.32-.78-3-1.17-5.04-1.17h-36.36c-2.1 0-3.81.39-5.13 1.17-1.26.72-2.28 1.62-3.06 2.7-.72 1.08-1.23 2.28-1.53 3.6-.24 1.26-.36 2.43-.36 3.51 0 1.08.12 2.28.36 3.6.3 1.26.81 2.43 1.53 3.51.78 1.08 1.8 2.01 3.06 2.79 1.32.72 3.03 1.08 5.13 1.08h36.36Zm18.45-10.98c0 2.28-.39 4.59-1.17 6.93-.72 2.28-1.8 4.38-3.24 6.3a18.226 18.226 0 0 1-5.22 4.59c-2.04 1.2-4.35 1.8-6.93 1.8h-41.04c-2.46-.12-4.65-.78-6.57-1.98a19.32 19.32 0 0 1-4.95-4.68c-1.32-1.86-2.34-3.93-3.06-6.21-.72-2.28-1.08-4.53-1.08-6.75 0-2.28.36-4.56 1.08-6.84.78-2.34 1.89-4.44 3.33-6.3 1.44-1.92 3.18-3.48 5.22-4.68 2.04-1.2 4.35-1.8 6.93-1.8h41.04c2.46.12 4.65.81 6.57 2.07a16.87 16.87 0 0 1 4.86 4.59c1.38 1.86 2.43 3.93 3.15 6.21.72 2.28 1.08 4.53 1.08 6.75Zm49.52 15.3c0-.84.3-1.65.9-2.43 2.16-3.18 4.59-5.85 7.29-8.01 2.76-2.22 5.85-3.99 9.27-5.31 3.48-1.38 7.35-2.37 11.61-2.97 4.26-.6 9.03-.9 14.31-.9h18.36v-4.68c-.12-.54-.42-.99-.9-1.35-.48-.42-1.11-.63-1.89-.63h-47.16c-.84.12-1.59.48-2.25 1.08-.6.6-.9 1.35-.9 2.25 0 1.2-.42 2.22-1.26 3.06-.84.84-1.86 1.26-3.06 1.26s-2.22-.42-3.06-1.26c-.84-.84-1.26-1.86-1.26-3.06 0-1.68.33-3.24.99-4.68.66-1.44 1.56-2.7 2.7-3.78 1.14-1.08 2.46-1.92 3.96-2.52 1.5-.66 3.09-.99 4.77-.99h46.98c1.32 0 2.64.3 3.96.9 1.32.54 2.49 1.32 3.51 2.34 1.02 1.02 1.86 2.25 2.52 3.69.66 1.44.99 3.06.99 4.86v23.13c0 1.2-.42 2.22-1.26 3.06-.84.84-1.86 1.26-3.06 1.26-1.14 0-2.16-.42-3.06-1.26-.84-.84-1.26-1.86-1.26-3.06v-10.98h-18.36c-3.66 0-7.11.12-10.35.36-3.18.18-6.21.72-9.09 1.62-2.88.9-5.64 2.22-8.28 3.96-2.58 1.74-5.1 4.14-7.56 7.2-.18.24-.45.54-.81.9-.42.36-.87.66-1.35.9-.48.24-1.02.36-1.62.36-1.2 0-2.22-.42-3.06-1.26-.84-.84-1.26-1.86-1.26-3.06Zm113.93.81c0-1.56.54-2.88 1.62-3.96s2.4-1.62 3.96-1.62 2.88.54 3.96 1.62 1.62 2.4 1.62 3.96-.54 2.88-1.62 3.96-2.4 1.62-3.96 1.62-2.88-.54-3.96-1.62-1.62-2.4-1.62-3.96Zm-13.95-3.06h2.25c1.2 0 2.22.42 3.06 1.26.84.84 1.26 1.86 1.26 3.06s-.42 2.22-1.26 3.06c-.84.84-1.86 1.26-3.06 1.26h-19.17a4.554 4.554 0 0 1-2.79-1.35c-.78-.84-1.17-1.83-1.17-2.97 0-1.2.42-2.22 1.26-3.06.84-.84 1.86-1.26 3.06-1.26h5.85l21.15-28.26c1.08-1.38 2.4-2.46 3.96-3.24 1.62-.78 3.33-1.17 5.13-1.17 1.92 0 3.69.45 5.31 1.35 1.68.84 3.06 1.95 4.14 3.33l20.79 27.99h5.4c1.2 0 2.22.42 3.06 1.26.84.84 1.26 1.86 1.26 3.06s-.42 2.22-1.26 3.06c-.84.84-1.86 1.26-3.06 1.26h-19.17a4.554 4.554 0 0 1-2.79-1.35c-.78-.84-1.17-1.83-1.17-2.97 0-1.2.42-2.22 1.26-3.06.84-.84 1.86-1.26 3.06-1.26h2.7l-16.11-21.33c-.36-.48-.87-.99-1.53-1.53-.6-.6-1.23-.9-1.89-.9-.66 0-1.32.3-1.98.9-.6.54-1.11 1.05-1.53 1.53l-16.02 21.33Zm75.74-24.03v6.66h49.95c.9 0 1.68-.3 2.34-.9.72-.66 1.08-1.47 1.08-2.43 0-.9-.36-1.68-1.08-2.34-.66-.66-1.44-.99-2.34-.99h-49.95Zm49.59-8.64c1.68 0 3.24.33 4.68.99 1.5.6 2.79 1.44 3.87 2.52a10.96 10.96 0 0 1 2.61 3.78c.66 1.44.99 3 .99 4.68 0 1.68-.33 3.24-.99 4.68-.6 1.44-1.47 2.7-2.61 3.78-1.08 1.08-2.37 1.95-3.87 2.61-1.44.6-3 .9-4.68.9h-49.59v10.98c0 1.2-.45 2.22-1.35 3.06-.84.84-1.83 1.26-2.97 1.26-1.2 0-2.22-.42-3.06-1.26-.84-.84-1.26-1.86-1.26-3.06v-30.6c0-1.2.42-2.22 1.26-3.06.84-.84 1.86-1.26 3.06-1.26h53.91Zm40.58 21.96h25.56l-9.27-12.42c-.42-.48-.96-.99-1.62-1.53-.6-.6-1.23-.9-1.89-.9-.66 0-1.32.3-1.98.9-.6.54-1.08 1.05-1.44 1.53l-9.36 12.42Zm32.04 8.64h-38.61l-5.22 7.02c-.9 1.08-2.01 1.62-3.33 1.62-1.2 0-2.22-.42-3.06-1.26-.84-.84-1.26-1.86-1.26-3.06 0-1.08.3-1.95.9-2.61l21.87-29.43c1.02-1.38 2.37-2.49 4.05-3.33 1.68-.9 3.48-1.35 5.4-1.35 1.8 0 3.51.39 5.13 1.17 1.62.78 2.94 1.86 3.96 3.24l21.87 29.25c.36.42.66.9.9 1.44.24.48.36 1.02.36 1.62 0 1.2-.42 2.22-1.26 3.06-.84.84-1.86 1.26-3.06 1.26-1.44 0-2.58-.57-3.42-1.71l-5.22-6.93ZM23.5 543.81c0-2.28.36-4.56 1.08-6.84.78-2.34 1.89-4.44 3.33-6.3 1.44-1.92 3.18-3.48 5.22-4.68 2.04-1.2 4.35-1.8 6.93-1.8h52.47c1.2 0 2.22.42 3.06 1.26.84.84 1.26 1.86 1.26 3.06s-.42 2.22-1.26 3.06c-.84.84-1.86 1.26-3.06 1.26H41.95c-2.1 0-3.81.39-5.13 1.17-1.26.72-2.28 1.62-3.06 2.7-.72 1.08-1.23 2.28-1.53 3.6-.24 1.26-.36 2.43-.36 3.51 0 1.08.12 2.28.36 3.6.3 1.26.81 2.43 1.53 3.51.78 1.08 1.8 2.01 3.06 2.79 1.32.72 3.03 1.08 5.13 1.08h50.58c1.2 0 2.22.42 3.06 1.26.84.84 1.26 1.86 1.26 3.06s-.42 2.22-1.26 3.06c-.84.84-1.86 1.26-3.06 1.26H39.16c-2.46 0-4.65-.6-6.57-1.8-1.92-1.2-3.57-2.73-4.95-4.59-1.32-1.92-2.34-4.05-3.06-6.39-.72-2.34-1.08-4.62-1.08-6.84Zm184.791.63h-49.5c-1.68 0-3.27-.3-4.77-.9-1.5-.66-2.82-1.53-3.96-2.61a12.104 12.104 0 0 1-2.7-3.78c-.66-1.44-.99-3-.99-4.68v-4.23c0-1.2.42-2.22 1.26-3.06.84-.84 1.86-1.26 3.06-1.26s2.22.42 3.06 1.26c.84.84 1.26 1.86 1.26 3.06v4.23c0 .96.33 1.77.99 2.43.72.6 1.53.9 2.43.9h49.86v-7.56c0-1.2.42-2.22 1.26-3.06.84-.84 1.86-1.26 3.06-1.26s2.22.42 3.06 1.26c.84.84 1.26 1.86 1.26 3.06v16.56c0 .3-.03.6-.09.9-.18 1.68-.54 3.36-1.08 5.04-.78 2.28-1.89 4.35-3.33 6.21a18.34 18.34 0 0 1-5.4 4.68c-2.1 1.2-4.44 1.8-7.02 1.8h-40.68c-2.04 0-3.99-.42-5.85-1.26-1.8-.84-3.39-1.98-4.77-3.42a15.272 15.272 0 0 1-3.24-4.77c-.6-2.82-.45-4.65.45-5.49.84-.84 1.83-1.26 2.97-1.26 1.2 0 2.22.42 3.06 1.26.84.84 1.41 1.89 1.71 3.15.3 1.2 1.86 2.07 4.68 2.61 1.14.36 2.34.54 3.6.54h36.27c1.98 0 3.6-.33 4.86-.99 1.32-.66 2.37-1.5 3.15-2.52a9.886 9.886 0 0 0 1.53-3.33c.36-1.2.54-2.34.54-3.42v-.09Zm26.261-4.68c0 .96.33 1.77.99 2.43.72.6 1.53.9 2.43.9h49.86v-14.58c0-1.2.42-2.22 1.26-3.06.84-.84 1.86-1.26 3.06-1.26s2.22.42 3.06 1.26c.84.84 1.26 1.86 1.26 3.06v30.6c0 1.2-.42 2.22-1.26 3.06-.84.84-1.86 1.26-3.06 1.26-1.14 0-2.16-.42-3.06-1.26-.84-.84-1.26-1.86-1.26-3.06v-7.38h-49.5c-1.68 0-3.27-.3-4.77-.9-1.5-.66-2.82-1.53-3.96-2.61a12.104 12.104 0 0 1-2.7-3.78c-.66-1.44-.99-3-.99-4.68v-11.25c0-1.2.42-2.22 1.26-3.06.84-.84 1.86-1.26 3.06-1.26s2.22.42 3.06 1.26c.84.84 1.26 1.86 1.26 3.06v11.25Zm70.901-11.25c0-1.2.42-2.22 1.26-3.06.84-.84 1.86-1.26 3.06-1.26h63.81c1.2 0 2.22.42 3.06 1.26.84.84 1.26 1.86 1.26 3.06s-.42 2.22-1.26 3.06c-.84.84-1.86 1.26-3.06 1.26h-63.81c-1.2 0-2.22-.42-3.06-1.26-.84-.84-1.26-1.86-1.26-3.06Zm10.98 34.92c-1.32 0-2.64-.27-3.96-.81-1.32-.6-2.49-1.41-3.51-2.43-1.02-1.02-1.86-2.25-2.52-3.69-.66-1.44-.99-3.06-.99-4.86v-8.1c0-1.62.45-2.7 1.35-3.24.96-.54 2.43-.81 4.41-.81h60.39c1.2 0 2.22.42 3.06 1.26.84.84 1.26 1.86 1.26 3.06s-.42 2.22-1.26 3.06c-.84.84-1.86 1.26-3.06 1.26h-57.51v4.41c0 .6.24 1.14.72 1.62.54.42 1.23.63 2.07.63h56.7c1.2 0 2.22.42 3.06 1.26.84.84 1.26 1.86 1.26 3.06s-.42 2.22-1.26 3.06c-.84.84-1.86 1.26-3.06 1.26h-57.15Zm136.735-39.24c1.2 0 2.22.42 3.06 1.26.84.84 1.26 1.86 1.26 3.06 0 1.14-.39 2.13-1.17 2.97-.78.78-1.71 1.23-2.79 1.35h-18.09c-1.8.12-3.3.57-4.5 1.35-1.14.72-2.04 1.62-2.7 2.7a10.41 10.41 0 0 0-1.35 3.51c-.24 1.26-.36 2.4-.36 3.42v15.3c0 1.2-.42 2.22-1.26 3.06-.84.84-1.86 1.26-3.06 1.26s-2.22-.42-3.06-1.26c-.84-.84-1.26-1.86-1.26-3.06v-15.3c0-1.86.24-3.72.72-5.58.48-1.92 1.2-3.72 2.16-5.4h-29.52c-1.2 0-2.22-.42-3.06-1.26-.84-.84-1.26-1.86-1.26-3.06s.42-2.22 1.26-3.06c.84-.84 1.86-1.26 3.06-1.26h61.92Zm68.111 30.6c2.04 0 3.72-.36 5.04-1.08 1.32-.78 2.34-1.71 3.06-2.79a8.725 8.725 0 0 0 1.53-3.51c.3-1.32.45-2.52.45-3.6s-.15-2.25-.45-3.51a8.743 8.743 0 0 0-1.53-3.6c-.72-1.08-1.74-1.98-3.06-2.7-1.32-.78-3-1.17-5.04-1.17h-36.36c-2.1 0-3.81.39-5.13 1.17-1.26.72-2.28 1.62-3.06 2.7-.72 1.08-1.23 2.28-1.53 3.6-.24 1.26-.36 2.43-.36 3.51 0 1.08.12 2.28.36 3.6.3 1.26.81 2.43 1.53 3.51.78 1.08 1.8 2.01 3.06 2.79 1.32.72 3.03 1.08 5.13 1.08h36.36Zm18.45-10.98c0 2.28-.39 4.59-1.17 6.93-.72 2.28-1.8 4.38-3.24 6.3a18.226 18.226 0 0 1-5.22 4.59c-2.04 1.2-4.35 1.8-6.93 1.8h-41.04c-2.46-.12-4.65-.78-6.57-1.98a19.32 19.32 0 0 1-4.95-4.68c-1.32-1.86-2.34-3.93-3.06-6.21-.72-2.28-1.08-4.53-1.08-6.75 0-2.28.36-4.56 1.08-6.84.78-2.34 1.89-4.44 3.33-6.3 1.44-1.92 3.18-3.48 5.22-4.68 2.04-1.2 4.35-1.8 6.93-1.8h41.04c2.46.12 4.65.81 6.57 2.07a16.87 16.87 0 0 1 4.86 4.59c1.38 1.86 2.43 3.93 3.15 6.21.72 2.28 1.08 4.53 1.08 6.75Zm84.965 15.3c0 1.2-.42 2.22-1.26 3.06-.84.84-1.86 1.26-3.06 1.26s-2.22-.42-3.06-1.26c-.84-.84-1.26-1.86-1.26-3.06v-19.62c0-2.46-.15-3.69-.45-3.69-.24 0-1.08.81-2.52 2.43l-19.8 22.5a7.71 7.71 0 0 1-2.88 2.07c-1.14.42-2.37.63-3.69.63-1.32 0-2.55-.21-3.69-.63a7.71 7.71 0 0 1-2.88-2.07l-19.8-22.5c-1.38-1.62-2.22-2.43-2.52-2.43-.3 0-.45 1.23-.45 3.69v19.62c0 1.2-.42 2.22-1.26 3.06-.84.84-1.86 1.26-3.06 1.26s-2.22-.42-3.06-1.26c-.84-.84-1.26-1.86-1.26-3.06v-26.28c0-2.4.69-4.44 2.07-6.12 1.38-1.68 3.27-2.52 5.67-2.52 1.44 0 2.73.36 3.87 1.08 1.14.72 2.19 1.59 3.15 2.61l20.7 23.58c.3.3.66.63 1.08.99.48.3.96.45 1.44.45s.93-.15 1.35-.45c.48-.36.87-.69 1.17-.99l20.61-23.58h.09a9.393 9.393 0 0 1 3.06-2.7c1.2-.66 2.52-.99 3.96-.99 2.4 0 4.29.84 5.67 2.52 1.38 1.68 2.07 3.72 2.07 6.12v26.28Zm49.548-15.3c0-2.28.36-4.56 1.08-6.84.78-2.34 1.89-4.44 3.33-6.3 1.44-1.92 3.18-3.48 5.22-4.68 2.04-1.2 4.35-1.8 6.93-1.8h52.47c1.2 0 2.22.42 3.06 1.26.84.84 1.26 1.86 1.26 3.06s-.42 2.22-1.26 3.06c-.84.84-1.86 1.26-3.06 1.26h-50.58c-2.1 0-3.81.39-5.13 1.17-1.26.72-2.28 1.62-3.06 2.7-.72 1.08-1.23 2.28-1.53 3.6-.24 1.26-.36 2.43-.36 3.51 0 1.08.12 2.28.36 3.6.3 1.26.81 2.43 1.53 3.51.78 1.08 1.8 2.01 3.06 2.79 1.32.72 3.03 1.08 5.13 1.08h50.58c1.2 0 2.22.42 3.06 1.26.84.84 1.26 1.86 1.26 3.06s-.42 2.22-1.26 3.06c-.84.84-1.86 1.26-3.06 1.26h-53.37c-2.46 0-4.65-.6-6.57-1.8-1.92-1.2-3.57-2.73-4.95-4.59-1.32-1.92-2.34-4.05-3.06-6.39-.72-2.34-1.08-4.62-1.08-6.84Zm90.004 18c-.9 1.08-2.01 1.62-3.33 1.62-1.2 0-2.22-.42-3.06-1.26-.84-.84-1.26-1.86-1.26-3.06 0-1.08.3-1.95.9-2.61l21.87-29.43c1.02-1.38 2.37-2.49 4.05-3.33 1.68-.9 3.48-1.35 5.4-1.35 1.8 0 3.51.39 5.13 1.17 1.62.78 2.94 1.86 3.96 3.24l21.87 29.25c.36.42.66.9.9 1.44.24.48.36 1.02.36 1.62 0 1.2-.42 2.22-1.26 3.06-.84.84-1.86 1.26-3.06 1.26-1.44 0-2.58-.57-3.42-1.71l-20.97-27.99c-.42-.48-.96-.99-1.62-1.53-.6-.6-1.23-.9-1.89-.9-.66 0-1.32.3-1.98.9-.6.54-1.08 1.05-1.44 1.53l-21.15 28.08Zm120.636-7.02c2.04 0 3.72-.36 5.04-1.08 1.32-.78 2.34-1.71 3.06-2.79a8.725 8.725 0 0 0 1.53-3.51c.3-1.32.45-2.52.45-3.6s-.15-2.25-.45-3.51a8.743 8.743 0 0 0-1.53-3.6c-.72-1.08-1.74-1.98-3.06-2.7-1.32-.78-3-1.17-5.04-1.17h-36.36c-2.1 0-3.81.39-5.13 1.17-1.26.72-2.28 1.62-3.06 2.7-.72 1.08-1.23 2.28-1.53 3.6-.24 1.26-.36 2.43-.36 3.51 0 1.08.12 2.28.36 3.6.3 1.26.81 2.43 1.53 3.51.78 1.08 1.8 2.01 3.06 2.79 1.32.72 3.03 1.08 5.13 1.08h36.36Zm18.45-10.98c0 2.28-.39 4.59-1.17 6.93-.72 2.28-1.8 4.38-3.24 6.3a18.226 18.226 0 0 1-5.22 4.59c-2.04 1.2-4.35 1.8-6.93 1.8h-41.04c-2.46-.12-4.65-.78-6.57-1.98a19.32 19.32 0 0 1-4.95-4.68c-1.32-1.86-2.34-3.93-3.06-6.21-.72-2.28-1.08-4.53-1.08-6.75 0-2.28.36-4.56 1.08-6.84.78-2.34 1.89-4.44 3.33-6.3 1.44-1.92 3.18-3.48 5.22-4.68 2.04-1.2 4.35-1.8 6.93-1.8h41.04c2.46.12 4.65.81 6.57 2.07a16.87 16.87 0 0 1 4.86 4.59c1.38 1.86 2.43 3.93 3.15 6.21.72 2.28 1.08 4.53 1.08 6.75Zm17.646 10.98h49.95c.9 0 1.68-.33 2.34-.99.72-.66 1.08-1.44 1.08-2.34 0-.96-.36-1.74-1.08-2.34-.66-.66-1.44-.99-2.34-.99h-49.95v6.66Zm0-21.96v6.66h50.04c.9 0 1.68-.3 2.34-.9.66-.6.99-1.38.99-2.34 0-.9-.36-1.68-1.08-2.34-.66-.72-1.44-1.08-2.34-1.08h-49.95Zm-4.32 30.6c-1.2 0-2.22-.42-3.06-1.26-.84-.84-1.26-1.86-1.26-3.06v-30.6c0-1.2.42-2.22 1.26-3.06.84-.84 1.86-1.26 3.06-1.26h53.91c1.68 0 3.24.33 4.68.99 1.5.6 2.79 1.44 3.87 2.52 1.14 1.08 2.01 2.37 2.61 3.87.66 1.44.99 3 .99 4.68 0 1.5-.27 2.91-.81 4.23-.48 1.26-1.14 2.4-1.98 3.42.84 1.02 1.5 2.19 1.98 3.51.54 1.26.81 2.61.81 4.05 0 1.68-.33 3.24-.99 4.68-.6 1.44-1.47 2.7-2.61 3.78-1.08 1.08-2.37 1.95-3.87 2.61-1.44.6-3 .9-4.68.9h-53.91Zm129.852-8.64c2.04 0 3.72-.36 5.04-1.08 1.32-.78 2.34-1.71 3.06-2.79a8.725 8.725 0 0 0 1.53-3.51c.3-1.32.45-2.52.45-3.6s-.15-2.25-.45-3.51a8.743 8.743 0 0 0-1.53-3.6c-.72-1.08-1.74-1.98-3.06-2.7-1.32-.78-3-1.17-5.04-1.17h-36.36c-2.1 0-3.81.39-5.13 1.17-1.26.72-2.28 1.62-3.06 2.7-.72 1.08-1.23 2.28-1.53 3.6-.24 1.26-.36 2.43-.36 3.51 0 1.08.12 2.28.36 3.6.3 1.26.81 2.43 1.53 3.51.78 1.08 1.8 2.01 3.06 2.79 1.32.72 3.03 1.08 5.13 1.08h36.36Zm18.45-10.98c0 2.28-.39 4.59-1.17 6.93-.72 2.28-1.8 4.38-3.24 6.3a18.226 18.226 0 0 1-5.22 4.59c-2.04 1.2-4.35 1.8-6.93 1.8h-41.04c-2.46-.12-4.65-.78-6.57-1.98a19.356 19.356 0 0 1-4.947-4.68c-1.32-1.86-2.34-3.93-3.06-6.21-.72-2.28-1.08-4.53-1.08-6.75 0-2.28.36-4.56 1.08-6.84.78-2.34 1.89-4.44 3.33-6.3 1.44-1.92 3.18-3.48 5.217-4.68 2.04-1.2 4.35-1.8 6.93-1.8h41.04c2.46.12 4.65.81 6.57 2.07a16.87 16.87 0 0 1 4.86 4.59c1.38 1.86 2.43 3.93 3.15 6.21.72 2.28 1.08 4.53 1.08 6.75Zm50.05-19.62h16.56c2.46.12 4.65.81 6.57 2.07a16.87 16.87 0 0 1 4.86 4.59c1.38 1.86 2.43 3.93 3.15 6.21.72 2.28 1.08 4.53 1.08 6.75 0 2.28-.39 4.59-1.17 6.93-.72 2.28-1.8 4.38-3.24 6.3a18.226 18.226 0 0 1-5.22 4.59c-2.04 1.2-4.35 1.8-6.93 1.8h-15.66v3.33c0 1.2-.42 2.22-1.26 3.06-.84.84-1.86 1.26-3.06 1.26s-2.22-.42-3.06-1.26c-.84-.84-1.26-1.86-1.26-3.06v-3.33h-16.74c-2.46-.12-4.65-.78-6.57-1.98a19.32 19.32 0 0 1-4.95-4.68c-1.32-1.86-2.34-3.93-3.06-6.21-.72-2.28-1.08-4.53-1.08-6.75 0-2.28.36-4.56 1.08-6.84.78-2.34 1.89-4.44 3.33-6.3 1.44-1.92 3.18-3.48 5.22-4.68 2.04-1.2 4.35-1.8 6.93-1.8h15.84v-3.6c0-1.2.42-2.22 1.26-3.06.84-.84 1.86-1.26 3.06-1.26s2.22.42 3.06 1.26c.84.84 1.26 1.86 1.26 3.06v3.6Zm-8.64 30.6v-21.96h-13.95c-2.1 0-3.81.39-5.13 1.17-1.26.72-2.28 1.62-3.06 2.7-.72 1.08-1.23 2.28-1.53 3.6-.24 1.26-.36 2.43-.36 3.51 0 1.08.12 2.28.36 3.6.3 1.26.81 2.43 1.53 3.51.78 1.08 1.8 2.01 3.06 2.79 1.32.72 3.03 1.08 5.13 1.08h13.95Zm8.64-21.96v21.96h13.77c2.04 0 3.72-.36 5.04-1.08 1.32-.78 2.34-1.71 3.06-2.79a8.725 8.725 0 0 0 1.53-3.51c.3-1.32.45-2.52.45-3.6s-.15-2.25-.45-3.51a8.743 8.743 0 0 0-1.53-3.6c-.72-1.08-1.74-1.98-3.06-2.7-1.32-.78-3-1.17-5.04-1.17h-13.77Zm96.03 21.96c2.04 0 3.72-.36 5.04-1.08 1.32-.78 2.34-1.71 3.06-2.79a8.725 8.725 0 0 0 1.53-3.51c.3-1.32.45-2.52.45-3.6s-.15-2.25-.45-3.51a8.743 8.743 0 0 0-1.53-3.6c-.72-1.08-1.74-1.98-3.06-2.7-1.32-.78-3-1.17-5.04-1.17h-36.36c-2.1 0-3.81.39-5.13 1.17-1.26.72-2.28 1.62-3.06 2.7-.72 1.08-1.23 2.28-1.53 3.6-.24 1.26-.36 2.43-.36 3.51 0 1.08.12 2.28.36 3.6.3 1.26.81 2.43 1.53 3.51.78 1.08 1.8 2.01 3.06 2.79 1.32.72 3.03 1.08 5.13 1.08h36.36Zm18.45-10.98c0 2.28-.39 4.59-1.17 6.93-.72 2.28-1.8 4.38-3.24 6.3a18.226 18.226 0 0 1-5.22 4.59c-2.04 1.2-4.35 1.8-6.93 1.8h-41.04c-2.46-.12-4.65-.78-6.57-1.98a19.32 19.32 0 0 1-4.95-4.68c-1.32-1.86-2.34-3.93-3.06-6.21-.72-2.28-1.08-4.53-1.08-6.75 0-2.28.36-4.56 1.08-6.84.78-2.34 1.89-4.44 3.33-6.3 1.44-1.92 3.18-3.48 5.22-4.68 2.04-1.2 4.35-1.8 6.93-1.8h41.04c2.46.12 4.65.81 6.57 2.07a16.87 16.87 0 0 1 4.86 4.59c1.38 1.86 2.43 3.93 3.15 6.21.72 2.28 1.08 4.53 1.08 6.75Zm17.65-10.98v6.66h49.95c.9 0 1.68-.3 2.34-.9.72-.66 1.08-1.47 1.08-2.43 0-.9-.36-1.68-1.08-2.34-.66-.66-1.44-.99-2.34-.99h-49.95Zm49.59-8.64c1.68 0 3.24.33 4.68.99 1.5.6 2.79 1.44 3.87 2.52a10.96 10.96 0 0 1 2.61 3.78c.66 1.44.99 3 .99 4.68 0 1.68-.33 3.24-.99 4.68-.6 1.44-1.47 2.7-2.61 3.78-1.08 1.08-2.37 1.95-3.87 2.61-1.44.6-3 .9-4.68.9h-49.59v10.98c0 1.2-.45 2.22-1.35 3.06-.84.84-1.83 1.26-2.97 1.26-1.2 0-2.22-.42-3.06-1.26-.84-.84-1.26-1.86-1.26-3.06v-30.6c0-1.2.42-2.22 1.26-3.06.84-.84 1.86-1.26 3.06-1.26h53.91Zm97.1 34.92c0 1.2-.42 2.22-1.26 3.06-.84.84-1.86 1.26-3.06 1.26s-2.22-.42-3.06-1.26c-.84-.84-1.26-1.86-1.26-3.06v-19.62c0-2.46-.15-3.69-.45-3.69-.24 0-1.08.81-2.52 2.43l-19.8 22.5a7.71 7.71 0 0 1-2.88 2.07c-1.14.42-2.37.63-3.69.63-1.32 0-2.55-.21-3.69-.63a7.71 7.71 0 0 1-2.88-2.07l-19.8-22.5c-1.38-1.62-2.22-2.43-2.52-2.43-.3 0-.45 1.23-.45 3.69v19.62c0 1.2-.42 2.22-1.26 3.06-.84.84-1.86 1.26-3.06 1.26s-2.22-.42-3.06-1.26c-.84-.84-1.26-1.86-1.26-3.06v-26.28c0-2.4.69-4.44 2.07-6.12 1.38-1.68 3.27-2.52 5.67-2.52 1.44 0 2.73.36 3.87 1.08 1.14.72 2.19 1.59 3.15 2.61l20.7 23.58c.3.3.66.63 1.08.99.48.3.96.45 1.44.45s.93-.15 1.35-.45c.48-.36.87-.69 1.17-.99l20.61-23.58h.09a9.393 9.393 0 0 1 3.06-2.7c1.2-.66 2.52-.99 3.96-.99 2.4 0 4.29.84 5.67 2.52 1.38 1.68 2.07 3.72 2.07 6.12v26.28Z" fill="#fff"/><mask id="a" maskUnits="userSpaceOnUse" x="15" y="133" width="1625" height="493" fill="#000"><path fill="#fff" d="M15 133h1625v493H15z"/><path d="M597.356 252.8c7.2 4.533 14.534 9.467 22 14.8 7.467 5.067 15.067 10.667 22.8 16.8a34.226 34.226 0 0 1 7.6 7.6c2.134 2.667 3.2 5.867 3.2 9.6 0 5.333-1.866 9.867-5.6 13.6-3.733 3.733-8.266 5.6-13.6 5.6-2.133 0-4.4-.533-6.8-1.6a35.022 35.022 0 0 1-6.8-4 749.083 749.083 0 0 0-33.6-23.2 237.658 237.658 0 0 0-36-20c-12.266-5.867-25.066-10.533-38.4-14-13.333-3.467-27.2-5.2-41.6-5.2h-79.6c-3.466.533-6.4 2.133-8.8 4.8-2.4 2.667-3.6 6-3.6 10v34c0 5.333-2 9.867-6 13.6-3.733 3.733-8.133 5.6-13.2 5.6-5.333 0-9.866-1.867-13.6-5.6-3.733-3.733-5.6-8.267-5.6-13.6v-38.4c0-6.667 1.2-12.933 3.6-18.8 2.667-6.133 6.134-11.333 10.4-15.6 4.267-4.533 9.334-8 15.2-10.4 5.867-2.667 12.267-4 19.2-4h212c4 0 7.467-1.333 10.4-4 3.2-2.933 4.8-6.533 4.8-10.8 0-4-1.6-7.467-4.8-10.4-2.933-2.933-6.4-4.4-10.4-4.4h-241.2c-5.333 0-9.866-1.867-13.6-5.6-3.733-3.733-5.6-8.267-5.6-13.6s1.867-9.867 5.6-13.6c3.734-3.733 8.267-5.6 13.6-5.6h239.6c7.467 0 14.4 1.467 20.8 4.4 6.667 2.667 12.4 6.4 17.2 11.2 5.067 4.8 8.934 10.4 11.6 16.8 2.934 6.4 4.4 13.333 4.4 20.8 0 7.467-1.466 14.4-4.4 20.8-2.666 6.4-6.533 12-11.6 16.8-4.8 4.8-10.533 8.667-17.2 11.6-6.4 2.667-13.333 4-20.8 4h-1.6Zm75.535-87.2c0-5.333 1.866-9.867 5.6-13.6 3.733-3.733 8.266-5.6 13.6-5.6h283.6c5.333 0 9.866 1.867 13.6 5.6 3.733 3.733 5.6 8.267 5.6 13.6s-1.867 9.867-5.6 13.6c-3.734 3.733-8.267 5.6-13.6 5.6h-283.6c-5.334 0-9.867-1.867-13.6-5.6-3.734-3.733-5.6-8.267-5.6-13.6Zm48.8 155.2c-5.867 0-11.734-1.2-17.6-3.6a52.75 52.75 0 0 1-15.6-10.8c-4.534-4.533-8.267-10-11.2-16.4-2.934-6.4-4.4-13.6-4.4-21.6v-36c0-7.2 2-12 6-14.4 4.266-2.4 10.8-3.6 19.6-3.6h268.4c5.333 0 9.866 1.867 13.6 5.6 3.733 3.733 5.6 8.267 5.6 13.6s-1.867 9.867-5.6 13.6c-3.734 3.733-8.267 5.6-13.6 5.6h-255.6v19.6c0 2.667 1.066 5.067 3.2 7.2 2.4 1.867 5.466 2.8 9.2 2.8h252c5.333 0 9.866 1.867 13.6 5.6 3.733 3.733 5.6 8.267 5.6 13.6s-1.867 9.867-5.6 13.6c-3.734 3.733-8.267 5.6-13.6 5.6h-254ZM1049 313.6c-3.73 4.8-8.67 7.2-14.8 7.2-5.33 0-9.87-1.867-13.6-5.6-3.73-3.733-5.6-8.267-5.6-13.6 0-5.067 1.33-8.933 4-11.6l97.2-130.8c4.53-6.133 10.53-11.067 18-14.8 7.47-4 15.47-6 24-6 8 0 15.6 1.733 22.8 5.2 7.2 3.467 13.07 8.267 17.6 14.4l97.2 130a79.343 79.343 0 0 1 3.6 6.4c1.33 2.133 2 4.533 2 7.2 0 5.333-1.87 9.867-5.6 13.6-3.73 3.733-8.27 5.6-13.6 5.6-6.67 0-11.73-2.533-15.2-7.6l-93.2-124.4c-1.87-2.133-4.27-4.4-7.2-6.8-2.67-2.667-5.47-4-8.4-4-2.93 0-5.87 1.333-8.8 4-2.67 2.4-4.8 4.667-6.4 6.8l-94 124.8Zm327.36 7.2c-7.46 0-14.53-1.333-21.2-4-6.66-2.933-12.53-6.8-17.6-11.6-4.8-4.8-8.66-10.4-11.6-16.8-2.93-6.4-4.4-13.333-4.4-20.8v-102c0-5.333 1.87-9.867 5.6-13.6 3.74-3.733 8.27-5.6 13.6-5.6 5.07 0 9.47 1.867 13.2 5.6 4 3.733 6 8.267 6 13.6v102c0 4 1.47 7.467 4.4 10.4 3.2 2.933 6.8 4.4 10.8 4.4h240c5.34 0 9.87 1.867 13.6 5.6 3.74 3.733 5.6 8.267 5.6 13.6s-1.86 9.867-5.6 13.6c-3.73 3.733-8.26 5.6-13.6 5.6h-238.8ZM20 465.6c0-5.333 1.867-9.867 5.6-13.6 3.733-3.733 8.267-5.6 13.6-5.6h283.6c5.333 0 9.867 1.867 13.6 5.6 3.733 3.733 5.6 8.267 5.6 13.6s-1.867 9.867-5.6 13.6c-3.733 3.733-8.267 5.6-13.6 5.6H39.2c-5.333 0-9.867-1.867-13.6-5.6-3.733-3.733-5.6-8.267-5.6-13.6Zm0 66.8c0-7.2 2-12 6-14.4 4.267-2.4 10.8-3.6 19.6-3.6H314c5.333 0 9.867 1.867 13.6 5.6 3.733 3.733 5.6 8.267 5.6 13.6s-1.867 9.867-5.6 13.6c-3.733 3.733-8.267 5.6-13.6 5.6H58.4v48.8c0 5.333-1.867 9.867-5.6 13.6-3.733 3.733-8.267 5.6-13.6 5.6s-9.867-1.867-13.6-5.6c-3.733-3.733-5.6-8.267-5.6-13.6v-69.2Zm366.344 81.2c-3.734 4.8-8.667 7.2-14.8 7.2-5.334 0-9.867-1.867-13.6-5.6-3.734-3.733-5.6-8.267-5.6-13.6 0-5.067 1.333-8.933 4-11.6l97.2-130.8c4.533-6.133 10.533-11.067 18-14.8 7.466-4 15.466-6 24-6 8 0 15.6 1.733 22.8 5.2 7.2 3.467 13.066 8.267 17.6 14.4l97.2 130a77.555 77.555 0 0 1 3.6 6.4c1.333 2.133 2 4.533 2 7.2 0 5.333-1.867 9.867-5.6 13.6-3.734 3.733-8.267 5.6-13.6 5.6-6.667 0-11.734-2.533-15.2-7.6l-93.2-124.4c-1.867-2.133-4.267-4.4-7.2-6.8-2.667-2.667-5.467-4-8.4-4-2.934 0-5.867 1.333-8.8 4-2.667 2.4-4.8 4.667-6.4 6.8l-94 124.8Zm544.962-148c0-5.333 1.867-9.867 5.6-13.6 3.734-3.733 8.267-5.6 13.6-5.6 5.334 0 9.867 1.867 13.6 5.6 3.734 3.733 5.6 8.267 5.6 13.6V582c0 11.2-3.6 20.533-10.8 28-7.2 7.2-16.4 10.8-27.6 10.8-3.733 0-7.466-.533-11.2-1.6-3.466-1.067-6.666-2.533-9.6-4.4l-183.2-112c-5.066-2.933-9.333-5.2-12.8-6.8-3.2-1.867-5.866-2.8-8-2.8-4 0-6.533 2.533-7.6 7.6-1.066 5.067-1.6 12.4-1.6 22v78.8c0 5.333-1.866 9.867-5.6 13.6-3.733 3.733-8.266 5.6-13.6 5.6-5.333 0-9.866-1.867-13.6-5.6-3.733-3.733-5.6-8.267-5.6-13.6V485.2c0-11.2 3.6-20.4 10.8-27.6 7.2-7.467 16.4-11.2 27.6-11.2 3.734 0 7.334.533 10.8 1.6 3.734 1.067 7.067 2.533 10 4.4l183.2 112c5.067 2.933 9.2 5.333 12.4 7.2 3.467 1.6 6.267 2.4 8.4 2.4 4 0 6.534-2.533 7.6-7.6 1.067-5.067 1.6-12.4 1.6-22v-78.8Zm352.784-19.2c5.33 0 9.86 1.867 13.6 5.6 3.73 3.733 5.6 8.267 5.6 13.6s-1.87 9.867-5.6 13.6c-3.74 3.733-8.27 5.6-13.6 5.6h-118.4v116.8c0 5.333-1.87 9.867-5.6 13.6-3.74 3.733-8.27 5.6-13.6 5.6-5.34 0-9.87-1.867-13.6-5.6-3.74-3.733-5.6-8.267-5.6-13.6V484.8h-120c-4.8-.533-8.936-2.533-12.402-6-3.467-3.733-5.2-8.133-5.2-13.2 0-5.333 1.866-9.867 5.6-13.6 3.733-3.733 8.262-5.6 13.602-5.6h275.2Z"/></mask><path d="M597.356 252.8v-5h-17.325l14.661 9.231 2.664-4.231Zm22 14.8-2.906 4.069.049.035.05.033 2.807-4.137Zm22.8 16.8-3.107 3.917.082.065.084.062 2.941-4.044Zm7.6 7.6-4.043 2.941.067.093.072.089 3.904-3.123Zm-2.4 23.2-3.535-3.536 3.535 3.536Zm-20.4 4 2.031-4.569-2.031 4.569Zm-6.8-4 3-4-.023-.018-.024-.017-2.953 4.035Zm-33.6-23.2-2.795 4.145.033.023.034.022 2.728-4.19Zm-36-20-2.157 4.511.058.028.06.026 2.039-4.565Zm-38.4-14-1.258 4.839 1.258-4.839Zm-121.2-5.2v-5h-.382l-.378.058.76 4.942Zm-8.8 4.8-3.716-3.345 3.716 3.345Zm-9.6 57.6-3.411-3.655-.063.059-.061.06 3.535 3.536Zm-26.8 0 3.536-3.536-3.536 3.536Zm-2-70.8-4.585-1.994-.022.05-.02.051 4.627 1.893Zm10.4-15.6 3.536 3.536.053-.054.052-.055-3.641-3.427Zm15.2-10.4 1.893 4.628.089-.037.087-.039-2.069-4.552Zm241.6-8 3.364 3.7.007-.007.008-.007-3.379-3.686Zm0-21.2-3.535 3.536.077.076.08.074 3.378-3.686Zm-265.2-10 3.536-3.536-3.536 3.536Zm0-27.2-3.535-3.536 3.535 3.536Zm274-1.2-2.083 4.545.112.052.114.045 1.857-4.642Zm17.2 11.2-3.535 3.536.048.047.049.047 3.438-3.63Zm11.6 16.8-4.615 1.923.033.081.037.079 4.545-2.083Zm0 41.6-4.545-2.083-.037.079-.033.081 4.615 1.923Zm-11.6 16.8-3.438-3.63-.049.047-.048.047 3.535 3.536Zm-17.2 11.6 1.923 4.615.046-.019.045-.019-2.014-4.577Zm-25.064 8.231c7.112 4.478 14.364 9.356 21.758 14.638l5.812-8.138c-7.539-5.385-14.953-10.373-22.242-14.962l-5.328 8.462Zm21.857 14.706c7.355 4.991 14.855 10.517 22.5 16.58l6.214-7.834c-7.821-6.204-15.521-11.878-23.099-17.02l-5.615 8.274Zm22.666 16.707a29.235 29.235 0 0 1 6.498 6.497l8.087-5.882a39.265 39.265 0 0 0-8.703-8.703l-5.882 8.088Zm6.637 6.679c1.357 1.696 2.104 3.766 2.104 6.477h10c0-4.756-1.385-9.086-4.295-12.723l-7.809 6.246Zm2.104 6.477c0 4.022-1.35 7.279-4.135 10.064l7.071 7.072c4.681-4.682 7.064-10.492 7.064-17.136h-10Zm-4.135 10.064c-2.785 2.785-6.042 4.136-10.065 4.136v10c6.645 0 12.454-2.383 17.136-7.064l-7.071-7.072Zm-10.065 4.136c-1.291 0-2.864-.323-4.769-1.169l-4.061 9.138c2.895 1.287 5.855 2.031 8.83 2.031v-10Zm-4.769-1.169a30.032 30.032 0 0 1-5.831-3.431l-6 8a40.02 40.02 0 0 0 7.77 4.569l4.061-9.138Zm-5.878-3.466a754.924 754.924 0 0 0-33.824-23.355l-5.457 8.38a744.964 744.964 0 0 1 33.376 23.045l5.905-8.07Zm-33.757-23.31a242.67 242.67 0 0 0-36.756-20.42l-4.079 9.13a232.75 232.75 0 0 1 35.244 19.58l5.591-8.29Zm-36.638-20.366c-12.559-6.006-25.661-10.782-39.3-14.328l-2.516 9.678c13.028 3.387 25.527 7.945 37.501 13.672l4.315-9.022Zm-39.3-14.328c-13.762-3.578-28.052-5.361-42.858-5.361v10c13.995 0 27.438 1.684 40.342 5.039l2.516-9.678Zm-42.858-5.361h-79.6v10h79.6v-10Zm-80.36.058c-4.635.713-8.604 2.894-11.756 6.397l7.433 6.69c1.647-1.831 3.545-2.85 5.844-3.203l-1.521-9.884Zm-11.756 6.397c-3.323 3.693-4.884 8.263-4.884 13.345h10c0-2.918.84-5.014 2.317-6.655l-7.433-6.69Zm-4.884 13.345v34h10v-34h-10Zm0 34c0 3.907-1.395 7.129-4.411 9.945l6.823 7.31c4.983-4.651 7.588-10.496 7.588-17.255h-10Zm-4.535 10.064c-2.84 2.84-5.985 4.136-9.665 4.136v10c6.454 0 12.109-2.437 16.736-7.064l-7.071-7.072Zm-9.665 4.136c-4.022 0-7.279-1.351-10.064-4.136l-7.071 7.072c4.681 4.681 10.491 7.064 17.135 7.064v-10Zm-10.064-4.136c-2.785-2.785-4.136-6.042-4.136-10.064h-10c0 6.644 2.383 12.454 7.065 17.136l7.071-7.072Zm-4.136-10.064v-38.4h-10v38.4h10Zm0-38.4c0-6.052 1.086-11.672 3.228-16.907l-9.255-3.786c-2.659 6.498-3.973 13.411-3.973 20.693h10Zm3.186-16.806c2.443-5.621 5.572-10.281 9.35-14.058l-7.071-7.072c-4.756 4.756-8.56 10.496-11.45 17.142l9.171 3.988Zm9.455-14.167c3.768-4.003 8.235-7.065 13.452-9.199l-3.786-9.256c-6.516 2.666-12.182 6.537-16.948 11.601l7.282 6.854Zm13.628-9.275c5.169-2.35 10.857-3.552 17.131-3.552v-10c-7.592 0-14.704 1.464-21.269 4.448l4.138 9.104Zm17.131-3.552h212v-10h-212v10Zm212 0c5.232 0 9.901-1.789 13.764-5.3l-6.727-7.4c-2.004 1.822-4.268 2.7-7.037 2.7v10Zm13.779-5.314c4.213-3.862 6.421-8.79 6.421-14.486h-10c0 2.838-.991 5.109-3.178 7.114l6.757 7.372Zm6.421-14.486c0-5.53-2.286-10.296-6.421-14.086l-6.757 7.372c2.265 2.076 3.178 4.244 3.178 6.714h10Zm-6.264-13.936c-3.832-3.832-8.556-5.864-13.936-5.864v10c2.62 0 4.83.901 6.865 2.936l7.071-7.072Zm-13.936-5.864h-241.2v10h241.2v-10Zm-241.2 0c-4.022 0-7.279-1.351-10.064-4.136l-7.071 7.072c4.681 4.681 10.491 7.064 17.135 7.064v-10Zm-10.064-4.136c-2.785-2.785-4.136-6.042-4.136-10.064h-10c0 6.644 2.383 12.454 7.065 17.136l7.071-7.072Zm-4.136-10.064c0-4.022 1.351-7.279 4.136-10.064l-7.071-7.072c-4.682 4.682-7.065 10.492-7.065 17.136h10Zm4.136-10.064c2.785-2.785 6.042-4.136 10.064-4.136v-10c-6.644 0-12.454 2.383-17.135 7.064l7.071 7.072Zm10.064-4.136h239.6v-10h-239.6v10Zm239.6 0c6.792 0 13.01 1.33 18.717 3.945l4.167-9.09c-7.093-3.251-14.742-4.855-22.884-4.855v10Zm18.943 4.042c6.075 2.43 11.228 5.8 15.522 10.094l7.071-7.072c-5.306-5.306-11.62-9.403-18.879-12.306l-3.714 9.284Zm15.619 10.188c4.563 4.323 8.027 9.342 10.423 15.093l9.231-3.846c-2.938-7.049-7.207-13.23-12.777-18.507l-6.877 7.26Zm10.493 15.253c2.616 5.707 3.945 11.925 3.945 18.717h10c0-8.141-1.604-15.79-4.854-22.883l-9.091 4.166Zm3.945 18.717c0 6.792-1.329 13.01-3.945 18.717l9.091 4.166c3.25-7.093 4.854-14.742 4.854-22.883h-10Zm-4.015 18.877c-2.396 5.751-5.86 10.77-10.423 15.093l6.877 7.26c5.57-5.277 9.839-11.458 12.777-18.507l-9.231-3.846Zm-10.52 15.187c-4.331 4.331-9.537 7.857-15.678 10.559l4.027 9.154c7.192-3.165 13.452-7.372 18.722-12.641l-7.071-7.072Zm-15.588 10.521c-5.745 2.393-12.019 3.615-18.877 3.615v10c8.076 0 15.668-1.445 22.723-4.385l-3.846-9.23Zm-18.877 3.615h-1.6v10h1.6v-10Zm79.535-95.8-3.536-3.536 3.536 3.536Zm310.8 0 3.535-3.536-3.535 3.536Zm-310.8 27.2 3.535-3.536-3.535 3.536Zm25.6 138-2.069 4.552.087.039.088.037 1.894-4.628Zm-15.6-10.8-3.536 3.536 3.536-3.536Zm-11.2-16.4 4.545-2.083-4.545 2.083Zm1.6-72-2.452-4.358-.061.034-.06.037 2.573 4.287Zm301.6 2 3.535-3.536-3.535 3.536Zm0 27.2 3.535 3.536-3.535-3.536Zm-269.2 5.6v-5h-5v5h5Zm3.2 26.8-3.536 3.536.22.22.246.191 3.07-3.947Zm274.8 8.4-3.536 3.536 3.536-3.536Zm0 27.2-3.536-3.536 3.536 3.536Zm-311.4-149.6c0-4.022 1.35-7.279 4.135-10.064l-7.071-7.072c-4.682 4.682-7.064 10.492-7.064 17.136h10Zm4.135-10.064c2.785-2.785 6.042-4.136 10.065-4.136v-10c-6.645 0-12.454 2.383-17.136 7.064l7.071 7.072Zm10.065-4.136h283.6v-10h-283.6v10Zm283.6 0c4.022 0 7.279 1.351 10.064 4.136l7.071-7.072c-4.681-4.681-10.491-7.064-17.135-7.064v10Zm10.064 4.136c2.785 2.785 4.136 6.042 4.136 10.064h10c0-6.644-2.383-12.454-7.065-17.136l-7.071 7.072Zm4.136 10.064c0 4.022-1.351 7.279-4.136 10.064l7.071 7.072c4.682-4.682 7.065-10.492 7.065-17.136h-10Zm-4.136 10.064c-2.785 2.785-6.042 4.136-10.064 4.136v10c6.644 0 12.454-2.383 17.135-7.064l-7.071-7.072Zm-10.064 4.136h-283.6v10h283.6v-10Zm-283.6 0c-4.023 0-7.28-1.351-10.065-4.136l-7.071 7.072c4.682 4.681 10.491 7.064 17.136 7.064v-10Zm-10.065-4.136c-2.785-2.785-4.135-6.042-4.135-10.064h-10c0 6.644 2.382 12.454 7.064 17.136l7.071-7.072ZM721.691 315.8c-5.167 0-10.393-1.054-15.707-3.228l-3.787 9.256c6.419 2.626 12.927 3.972 19.494 3.972v-10Zm-15.531-3.152a47.732 47.732 0 0 1-14.134-9.784l-7.071 7.072a57.769 57.769 0 0 0 17.067 11.816l4.138-9.104Zm-14.134-9.784c-4.074-4.073-7.48-9.035-10.19-14.947l-9.091 4.166c3.157 6.888 7.217 12.86 12.21 17.853l7.071-7.072Zm-10.19-14.947c-2.595-5.663-3.945-12.138-3.945-19.517h-10c0 8.621 1.583 16.546 4.854 23.683l9.091-4.166Zm-3.945-19.517v-36h-10v36h10Zm0-36c0-6.462 1.783-9.039 3.572-10.113l-5.145-8.574c-6.211 3.726-8.427 10.749-8.427 18.687h10Zm3.451-10.042c3.135-1.763 8.621-2.958 17.149-2.958v-10c-9.073 0-16.653 1.205-22.052 4.242l4.903 8.716Zm17.149-2.958h268.4v-10h-268.4v10Zm268.4 0c4.022 0 7.279 1.351 10.064 4.136l7.071-7.072c-4.681-4.681-10.491-7.064-17.135-7.064v10Zm10.064 4.136c2.785 2.785 4.136 6.042 4.136 10.064h10c0-6.644-2.383-12.454-7.065-17.136l-7.071 7.072Zm4.136 10.064c0 4.022-1.351 7.279-4.136 10.064l7.071 7.072c4.682-4.682 7.065-10.492 7.065-17.136h-10Zm-4.136 10.064c-2.785 2.785-6.042 4.136-10.064 4.136v10c6.644 0 12.454-2.383 17.135-7.064l-7.071-7.072Zm-10.064 4.136h-255.6v10h255.6v-10Zm-260.6 5v19.6h10v-19.6h-10Zm0 19.6c0 4.171 1.727 7.799 4.664 10.736l7.071-7.072c-1.33-1.329-1.735-2.502-1.735-3.664h-10Zm5.13 11.147c3.463 2.693 7.684 3.853 12.27 3.853v-10c-2.882 0-4.793-.707-6.131-1.747l-6.139 7.894Zm12.27 3.853h252v-10h-252v10Zm252 0c4.022 0 7.279 1.351 10.064 4.136l7.071-7.072c-4.681-4.681-10.491-7.064-17.135-7.064v10Zm10.064 4.136c2.785 2.785 4.136 6.042 4.136 10.064h10c0-6.644-2.383-12.454-7.065-17.136l-7.071 7.072Zm4.136 10.064c0 4.022-1.351 7.279-4.136 10.064l7.071 7.072c4.682-4.682 7.065-10.492 7.065-17.136h-10Zm-4.136 10.064c-2.785 2.785-6.042 4.136-10.064 4.136v10c6.644 0 12.454-2.383 17.135-7.064l-7.071-7.072Zm-10.064 4.136h-254v10h254v-10Zm73.309-2.2 3.95 3.07.02-.031.02-.031-3.99-3.008Zm-28.4 1.6 3.54-3.536-3.54 3.536ZM1019 290l3.54 3.536.25-.26.22-.294L1019 290Zm97.2-130.8 4.01 2.982.01-.01-4.02-2.972Zm18-14.8 2.24 4.472.06-.031.06-.034-2.36-4.407Zm46.8-.8 2.17-4.505-2.17 4.505Zm17.6 14.4-4.02 2.972.01.011.01.011 4-2.994Zm97.2 130 4.24-2.65-.11-.177-.13-.167-4 2.994Zm3.6 6.4-4.47 2.236.1.213.13.201 4.24-2.65Zm-3.6 20.8-3.54-3.536 3.54 3.536Zm-28.8-2 4.13-2.823-.06-.089-.07-.086-4 2.998Zm-93.2-124.4 4-2.998-.11-.152-.13-.143-3.76 3.293Zm-7.2-6.8-3.54 3.536.18.176.19.158 3.17-3.87Zm-17.2 0 3.34 3.716.01-.008.01-.008-3.36-3.7Zm-6.4 6.8 3.99 3.008.01-.008-4-3Zm-97.95 121.73c-2.77 3.57-6.24 5.27-10.85 5.27v10c7.66 0 14.06-3.1 18.75-9.13l-7.9-6.14Zm-10.85 5.27c-4.02 0-7.28-1.351-10.06-4.136l-7.08 7.072c4.69 4.681 10.5 7.064 17.14 7.064v-10Zm-10.06-4.136c-2.79-2.785-4.14-6.042-4.14-10.064h-10c0 6.644 2.38 12.454 7.06 17.136l7.08-7.072ZM1020 301.6c0-4.21 1.09-6.622 2.54-8.064l-7.08-7.072c-3.89 3.891-5.46 9.213-5.46 15.136h10Zm3.01-8.618 97.2-130.8-8.02-5.964-97.2 130.8 8.02 5.964Zm97.21-130.81c4.02-5.441 9.39-9.885 16.22-13.3l-4.48-8.944c-8.1 4.052-14.74 9.475-19.78 16.3l8.04 5.944Zm16.34-13.365c6.74-3.608 13.92-5.407 21.64-5.407v-10c-9.35 0-18.16 2.201-26.36 6.593l4.72 8.814Zm21.64-5.407c7.25 0 14.11 1.565 20.63 4.705l4.34-9.01c-7.88-3.793-16.22-5.695-24.97-5.695v10Zm20.63 4.705c6.5 3.131 11.72 7.419 15.75 12.867l8.04-5.944c-5.04-6.819-11.55-12.131-19.45-15.933l-4.34 9.01Zm15.77 12.889 97.2 130 8-5.988-97.2-130-8 5.988Zm96.96 129.656a72.922 72.922 0 0 1 3.37 5.986l8.94-4.472a82.777 82.777 0 0 0-3.83-6.814l-8.48 5.3Zm3.6 6.4c.81 1.29 1.24 2.762 1.24 4.55h10c0-3.545-.9-6.874-2.76-9.85l-8.48 5.3Zm1.24 4.55c0 4.022-1.35 7.279-4.14 10.064l7.08 7.072c4.68-4.682 7.06-10.492 7.06-17.136h-10Zm-4.14 10.064c-2.78 2.785-6.04 4.136-10.06 4.136v10c6.64 0 12.45-2.383 17.14-7.064l-7.08-7.072Zm-10.06 4.136c-5.18 0-8.63-1.851-11.07-5.423l-8.26 5.646c4.49 6.562 11.18 9.777 19.33 9.777v-10Zm-11.2-5.598-93.2-124.4-8 5.996 93.2 124.4 8-5.996Zm-93.44-124.695c-2.1-2.398-4.71-4.856-7.79-7.377l-6.34 7.74c2.79 2.279 4.97 4.354 6.61 6.223l7.52-6.586Zm-7.42-7.043c-3.33-3.324-7.33-5.464-11.94-5.464v10c1.26 0 2.86.526 4.86 2.536l7.08-7.072ZM1158.2 173c-4.56 0-8.64 2.095-12.16 5.3l6.72 7.4c2.34-2.128 4.13-2.7 5.44-2.7v-10Zm-12.14 5.284c-2.84 2.547-5.21 5.052-7.06 7.516l8 6c1.35-1.803 3.24-3.831 5.74-6.084l-6.68-7.432Zm-7.05 7.508-94 124.8 7.98 6.016 94-124.8-7.98-6.016ZM1355.16 316.8l-2.01 4.577.08.034.08.031 1.85-4.642Zm-17.6-11.6-3.53 3.536.04.047.05.047 3.44-3.63Zm-11.6-16.8 4.55-2.083-4.55 2.083Zm1.2-136.4-3.53-3.536 3.53 3.536Zm26.8 0-3.53 3.536.06.06.06.059 3.41-3.655Zm10.4 126-3.53 3.536.07.076.08.074 3.38-3.686Zm264.4 10-3.53 3.536 3.53-3.536Zm0 27.2-3.53-3.536 3.53 3.536Zm-252.4.6c-6.85 0-13.29-1.221-19.34-3.642l-3.71 9.284c7.28 2.913 14.98 4.358 23.05 4.358v-10Zm-19.18-3.577c-6.17-2.712-11.55-6.265-16.18-10.653l-6.88 7.26c5.51 5.212 11.86 9.392 19.03 12.547l4.03-9.154Zm-16.08-10.559c-4.37-4.364-7.9-9.467-10.59-15.347l-9.09 4.166c3.17 6.92 7.37 13.017 12.61 18.253l7.07-7.072Zm-10.59-15.347c-2.62-5.707-3.95-11.925-3.95-18.717h-10c0 8.141 1.61 15.79 4.86 22.883l9.09-4.166Zm-3.95-18.717v-102h-10v102h10Zm0-102c0-4.022 1.35-7.279 4.14-10.064l-7.07-7.072c-4.68 4.682-7.07 10.492-7.07 17.136h10Zm4.14-10.064c2.78-2.785 6.04-4.136 10.06-4.136v-10c-6.64 0-12.45 2.383-17.13 7.064l7.07 7.072Zm10.06-4.136c3.68 0 6.83 1.296 9.67 4.136l7.07-7.072c-4.63-4.627-10.28-7.064-16.74-7.064v10Zm9.79 4.255c3.02 2.816 4.41 6.038 4.41 9.945h10c0-6.759-2.6-12.604-7.59-17.255l-6.82 7.31Zm4.41 9.945v102h10v-102h-10Zm0 102c0 5.38 2.03 10.103 5.87 13.936l7.07-7.072c-2.04-2.034-2.94-4.244-2.94-6.864h-10Zm6.02 14.086c4.04 3.7 8.82 5.714 14.18 5.714v-10c-2.64 0-5.06-.919-7.42-3.086l-6.76 7.372Zm14.18 5.714h240v-10h-240v10Zm240 0c4.02 0 7.28 1.351 10.07 4.136l7.07-7.072c-4.68-4.681-10.49-7.064-17.14-7.064v10Zm10.07 4.136c2.78 2.785 4.13 6.042 4.13 10.064h10c0-6.644-2.38-12.454-7.06-17.136l-7.07 7.072Zm4.13 10.064c0 4.022-1.35 7.279-4.13 10.064l7.07 7.072c4.68-4.682 7.06-10.492 7.06-17.136h-10Zm-4.13 10.064c-2.79 2.785-6.05 4.136-10.07 4.136v10c6.65 0 12.46-2.383 17.14-7.064l-7.07-7.072Zm-10.07 4.136h-238.8v10h238.8v-10ZM25.6 452l-3.536-3.536L25.6 452Zm310.8 0 3.536-3.536L336.4 452ZM25.6 479.2l3.535-3.536L25.6 479.2ZM26 518l-2.451-4.358-.061.034-.06.037L26 518Zm301.6 2 3.536-3.536L327.6 520Zm0 27.2 3.536 3.536-3.536-3.536Zm-269.2 5.6v-5h-5v5h5Zm-5.6 62.4-3.535-3.536L52.8 615.2Zm-27.2 0 3.535-3.536L25.6 615.2ZM25 465.6c0-4.022 1.35-7.279 4.136-10.064l-7.072-7.072C17.383 453.146 15 458.956 15 465.6h10Zm4.136-10.064c2.785-2.785 6.042-4.136 10.064-4.136v-10c-6.644 0-12.454 2.383-17.136 7.064l7.072 7.072ZM39.2 451.4h283.6v-10H39.2v10Zm283.6 0c4.022 0 7.279 1.351 10.064 4.136l7.072-7.072c-4.682-4.681-10.492-7.064-17.136-7.064v10Zm10.064 4.136c2.785 2.785 4.136 6.042 4.136 10.064h10c0-6.644-2.383-12.454-7.064-17.136l-7.072 7.072ZM337 465.6c0 4.022-1.351 7.279-4.136 10.064l7.072 7.072c4.681-4.682 7.064-10.492 7.064-17.136h-10Zm-4.136 10.064c-2.785 2.785-6.042 4.136-10.064 4.136v10c6.644 0 12.454-2.383 17.136-7.064l-7.072-7.072ZM322.8 479.8H39.2v10h283.6v-10Zm-283.6 0c-4.022 0-7.28-1.351-10.065-4.136l-7.07 7.072c4.681 4.681 10.49 7.064 17.135 7.064v-10Zm-10.065-4.136C26.35 472.879 25 469.622 25 465.6H15c0 6.644 2.383 12.454 7.064 17.136l7.072-7.072ZM25 532.4c0-6.462 1.784-9.039 3.573-10.113l-5.146-8.574C17.217 517.439 15 524.462 15 532.4h10Zm3.451-10.042c3.135-1.763 8.621-2.958 17.149-2.958v-10c-9.072 0-16.653 1.205-22.051 4.242l4.902 8.716ZM45.6 519.4H314v-10H45.6v10Zm268.4 0c4.022 0 7.279 1.351 10.064 4.136l7.072-7.072c-4.682-4.681-10.492-7.064-17.136-7.064v10Zm10.064 4.136c2.785 2.785 4.136 6.042 4.136 10.064h10c0-6.644-2.383-12.454-7.064-17.136l-7.072 7.072ZM328.2 533.6c0 4.022-1.351 7.279-4.136 10.064l7.072 7.072c4.681-4.682 7.064-10.492 7.064-17.136h-10Zm-4.136 10.064c-2.785 2.785-6.042 4.136-10.064 4.136v10c6.644 0 12.454-2.383 17.136-7.064l-7.072-7.072ZM314 547.8H58.4v10H314v-10Zm-260.6 5v48.8h10v-48.8h-10Zm0 48.8c0 4.022-1.35 7.279-4.136 10.064l7.072 7.072c4.681-4.682 7.064-10.492 7.064-17.136h-10Zm-4.136 10.064c-2.785 2.785-6.042 4.136-10.064 4.136v10c6.644 0 12.454-2.383 17.136-7.064l-7.072-7.072ZM39.2 615.8c-4.022 0-7.28-1.351-10.065-4.136l-7.07 7.072c4.681 4.681 10.49 7.064 17.135 7.064v-10Zm-10.065-4.136C26.35 608.879 25 605.622 25 601.6H15c0 6.644 2.383 12.454 7.064 17.136l7.072-7.072ZM25 601.6v-69.2H15v69.2h10Zm361.344 12 3.947 3.07.023-.031.024-.031-3.994-3.008Zm-28.4 1.6 3.535-3.536-3.535 3.536Zm-1.6-25.2 3.535 3.536.259-.26.219-.294-4.013-2.982Zm97.2-130.8 4.013 2.982.008-.01-4.021-2.972Zm18-14.8 2.236 4.472.063-.031.062-.034-2.361-4.407Zm46.8-.8 2.169-4.505-2.169 4.505Zm17.6 14.4-4.021 2.972.008.011.008.011 4.005-2.994Zm97.2 130 4.24-2.65-.111-.177-.125-.167-4.004 2.994Zm3.6 6.4-4.472 2.236.106.213.126.201 4.24-2.65Zm-3.6 20.8-3.536-3.536 3.536 3.536Zm-28.8-2 4.126-2.823-.06-.089-.065-.086-4.001 2.998Zm-93.2-124.4 4.001-2.998-.113-.152-.125-.143-3.763 3.293Zm-7.2-6.8-3.536 3.536.177.176.193.158 3.166-3.87Zm-17.2 0 3.345 3.716.009-.008.009-.008-3.363-3.7Zm-6.4 6.8 3.994 3.008.006-.008-4-3Zm-97.947 121.73c-2.777 3.57-6.247 5.27-10.853 5.27v10c7.66 0 14.056-3.1 18.747-9.13l-7.894-6.14Zm-10.853 5.27c-4.023 0-7.28-1.351-10.065-4.136l-7.071 7.072c4.682 4.681 10.491 7.064 17.136 7.064v-10Zm-10.065-4.136c-2.785-2.785-4.135-6.042-4.135-10.064h-10c0 6.644 2.383 12.454 7.064 17.136l7.071-7.072Zm-4.135-10.064c0-4.21 1.093-6.622 2.535-8.064l-7.071-7.072c-3.891 3.891-5.464 9.213-5.464 15.136h10Zm3.013-8.618 97.2-130.8-8.026-5.964-97.2 130.8 8.026 5.964Zm97.208-130.81c4.021-5.441 9.385-9.885 16.215-13.3l-4.472-8.944c-8.104 4.052-14.74 9.475-19.785 16.3l8.042 5.944Zm16.34-13.365c6.735-3.608 13.923-5.407 21.639-5.407v-10c-9.351 0-18.163 2.201-26.361 6.593l4.722 8.814Zm21.639-5.407c7.25 0 14.108 1.565 20.631 4.705l4.338-9.01c-7.878-3.793-16.219-5.695-24.969-5.695v10Zm20.631 4.705c6.503 3.131 11.721 7.419 15.748 12.867l8.042-5.944c-5.04-6.819-11.556-12.131-19.452-15.933l-4.338 9.01Zm15.764 12.889 97.2 130 8.009-5.988-97.2-130-8.009 5.988Zm96.965 129.656a72.596 72.596 0 0 1 3.368 5.986l8.944-4.472a82.515 82.515 0 0 0-3.832-6.814l-8.48 5.3Zm3.6 6.4c.806 1.29 1.24 2.762 1.24 4.55h10c0-3.545-.9-6.874-2.76-9.85l-8.48 5.3Zm1.24 4.55c0 4.022-1.351 7.279-4.136 10.064l7.071 7.072c4.682-4.682 7.065-10.492 7.065-17.136h-10Zm-4.136 10.064c-2.785 2.785-6.042 4.136-10.064 4.136v10c6.644 0 12.454-2.383 17.135-7.064l-7.071-7.072Zm-10.064 4.136c-5.184 0-8.63-1.851-11.074-5.423l-8.253 5.646c4.489 6.562 11.177 9.777 19.327 9.777v-10Zm-11.199-5.598-93.2-124.4-8.003 5.996 93.2 124.4 8.003-5.996Zm-93.438-124.695c-2.099-2.398-4.716-4.856-7.797-7.377l-6.332 7.74c2.785 2.279 4.968 4.354 6.603 6.223l7.526-6.586Zm-7.428-7.043c-3.324-3.324-7.326-5.464-11.935-5.464v10c1.257 0 2.855.526 4.864 2.536l7.071-7.072ZM495.544 473c-4.559 0-8.638 2.095-12.164 5.3l6.727 7.4c2.341-2.128 4.129-2.7 5.437-2.7v-10Zm-12.145 5.284c-2.831 2.547-5.207 5.052-7.055 7.516l8 6c1.352-1.803 3.242-3.831 5.745-6.084l-6.69-7.432Zm-7.049 7.508-94 124.8 7.988 6.016 94-124.8-7.988-6.016ZM936.906 452l3.536 3.536-3.536-3.536Zm27.2 0 3.536-3.536-3.536 3.536Zm-5.2 158 3.536 3.536.032-.033.031-.032-3.599-3.471Zm-38.8 9.2-1.47 4.779.048.015.049.014 1.373-4.808Zm-9.6-4.4 2.685-4.218-.038-.025-.039-.023-2.608 4.266Zm-183.2-112 2.608-4.266-.051-.031-.052-.03-2.505 4.327Zm-12.8-6.8-2.519 4.319.207.12.217.101 2.095-4.54Zm-15.6 4.8-4.893-1.03 4.893 1.03Zm-7.2 114.4-3.535-3.536 3.535 3.536Zm-27.2 0 3.536-3.536-3.536 3.536Zm5.2-157.6 3.536 3.536.032-.033.031-.032-3.599-3.471Zm38.4-9.6-1.47 4.779.048.015.049.014 1.373-4.808Zm10 4.4-2.684 4.218.038.024.038.024 2.608-4.266Zm183.2 112-2.608 4.266.051.031.052.03 2.505-4.327Zm12.4 7.2-2.519 4.319.207.12.217.101 2.095-4.54Zm16-5.2 4.893 1.03-4.893-1.03Zm6.6-100.8c0-4.022 1.351-7.279 4.136-10.064l-7.071-7.072c-4.682 4.682-7.065 10.492-7.065 17.136h10Zm4.136-10.064c2.785-2.785 6.042-4.136 10.064-4.136v-10c-6.644 0-12.454 2.383-17.135 7.064l7.071 7.072Zm10.064-4.136c4.023 0 7.28 1.351 10.065 4.136l7.071-7.072c-4.682-4.681-10.491-7.064-17.136-7.064v10Zm10.065 4.136c2.785 2.785 4.135 6.042 4.135 10.064h10c0-6.644-2.383-12.454-7.064-17.136l-7.071 7.072Zm4.135 10.064V582h10V465.6h-10Zm0 116.4c0 10.019-3.173 18.073-9.399 24.529l7.198 6.942c8.175-8.477 12.201-19.09 12.201-31.471h-10Zm-9.335 24.464c-6.164 6.165-14.045 9.336-24.065 9.336v10c12.381 0 22.9-4.029 31.136-12.264l-7.071-7.072Zm-24.065 9.336c-3.25 0-6.522-.463-9.826-1.408l-2.747 9.616c4.162 1.189 8.357 1.792 12.573 1.792v-10Zm-9.729-1.379c-3.058-.941-5.847-2.223-8.386-3.839l-5.369 8.436c3.327 2.118 6.938 3.768 10.814 4.961l2.941-9.558Zm-8.463-3.887-183.2-112-5.216 8.532 183.2 112 5.216-8.532ZM729.811 498.473c-5.137-2.975-9.55-5.324-13.209-7.013l-4.191 9.08c3.274 1.511 7.395 3.695 12.39 6.587l5.01-8.654Zm-12.785-6.792c-3.474-2.026-7.067-3.481-10.52-3.481v10c.814 0 2.554.412 5.481 2.119l5.039-8.638Zm-10.52-3.481c-3.157 0-6.118 1.047-8.435 3.364-2.194 2.195-3.409 5.125-4.058 8.206l9.786 2.06c.418-1.985 1.004-2.855 1.343-3.194.216-.216.521-.436 1.364-.436v-10Zm-12.493 11.57c-1.174 5.579-1.707 13.324-1.707 23.03h10c0-9.494.534-16.416 1.493-20.97l-9.786-2.06Zm-1.707 23.03v78.8h10v-78.8h-10Zm0 78.8c0 4.022-1.35 7.279-4.135 10.064l7.071 7.072c4.681-4.682 7.064-10.492 7.064-17.136h-10Zm-4.135 10.064c-2.785 2.785-6.042 4.136-10.065 4.136v10c6.645 0 12.454-2.383 17.136-7.064l-7.071-7.072Zm-10.065 4.136c-4.022 0-7.279-1.351-10.064-4.136l-7.071 7.072c4.681 4.681 10.491 7.064 17.135 7.064v-10Zm-10.064-4.136c-2.785-2.785-4.136-6.042-4.136-10.064h-10c0 6.644 2.383 12.454 7.065 17.136l7.071-7.072Zm-4.136-10.064V485.2h-10v116.4h10Zm0-116.4c0-10.02 3.172-17.9 9.336-24.064l-7.071-7.072c-8.236 8.236-12.265 18.756-12.265 31.136h10Zm9.399-24.129c6.178-6.406 14.039-9.671 24.001-9.671v-10c-12.437 0-22.976 4.202-31.199 12.729l7.198 6.942Zm24.001-9.671c3.25 0 6.353.463 9.33 1.379l2.941-9.558c-3.957-1.217-8.054-1.821-12.271-1.821v10Zm9.427 1.408c3.323.949 6.206 2.23 8.689 3.81l5.369-8.436c-3.384-2.154-7.168-3.806-11.311-4.99l-2.747 9.616Zm8.765 3.858 183.2 112 5.216-8.532-183.2-112-5.216 8.532Zm183.303 112.061a4484.75 4484.75 0 0 1 12.386 7.192l5.039-8.638c-3.207-1.87-7.346-4.273-12.415-7.208l-5.01 8.654Zm12.81 7.413c3.685 1.7 7.275 2.86 10.495 2.86v-10c-1.046 0-3.056-.44-6.304-1.94l-4.191 9.08Zm10.495 2.86c3.157 0 6.118-1.047 8.436-3.364 2.194-2.195 3.408-5.125 4.057-8.206l-9.785-2.06c-.418 1.985-1.004 2.855-1.343 3.194-.216.216-.522.436-1.365.436v10Zm12.493-11.57c1.175-5.579 1.707-13.324 1.707-23.03h-10c0 9.494-.534 16.416-1.492 20.97l9.785 2.06Zm1.707-23.03v-78.8h-10v78.8h10ZM1297.69 452l3.53-3.536-3.53 3.536Zm-132 32.8v-5h-5v5h5Zm-5.6 130.4-3.54-3.536 3.54 3.536Zm-32.8-130.4h5v-5h-5v5Zm-120 0-.55 4.969.27.031h.28v-5Zm-12.402-6-3.664 3.402.062.068.066.066 3.536-3.536Zm.399-26.8-3.535-3.536 3.535 3.536Zm288.803-.6c4.02 0 7.28 1.351 10.06 4.136l7.07-7.072c-4.68-4.681-10.49-7.064-17.13-7.064v10Zm10.06 4.136c2.79 2.785 4.14 6.042 4.14 10.064h10c0-6.644-2.39-12.454-7.07-17.136l-7.07 7.072Zm4.14 10.064c0 4.022-1.35 7.279-4.14 10.064l7.07 7.072c4.68-4.682 7.07-10.492 7.07-17.136h-10Zm-4.14 10.064c-2.78 2.785-6.04 4.136-10.06 4.136v10c6.64 0 12.45-2.383 17.13-7.064l-7.07-7.072Zm-10.06 4.136h-118.4v10h118.4v-10Zm-123.4 5v116.8h10V484.8h-10Zm0 116.8c0 4.022-1.35 7.279-4.14 10.064l7.07 7.072c4.68-4.682 7.07-10.492 7.07-17.136h-10Zm-4.14 10.064c-2.78 2.785-6.04 4.136-10.06 4.136v10c6.64 0 12.45-2.383 17.13-7.064l-7.07-7.072Zm-10.06 4.136c-4.02 0-7.28-1.351-10.07-4.136l-7.07 7.072c4.68 4.681 10.49 7.064 17.14 7.064v-10Zm-10.07-4.136c-2.78-2.785-4.13-6.042-4.13-10.064h-10c0 6.644 2.38 12.454 7.06 17.136l7.07-7.072Zm-4.13-10.064V484.8h-10v116.8h10Zm-5-121.8h-120v10h120v-10Zm-119.45.031c-3.65-.406-6.74-1.89-9.417-4.567l-7.071 7.072c4.256 4.256 9.438 6.773 15.388 7.433l1.1-9.938Zm-9.289-4.433c-2.613-2.814-3.863-6.001-3.863-9.798h-10c0 6.336 2.215 11.95 6.536 16.602l7.327-6.804Zm-3.863-9.798c0-4.022 1.35-7.279 4.135-10.064l-7.071-7.072c-4.682 4.682-7.064 10.492-7.064 17.136h10Zm4.135-10.064c2.787-2.785 6.047-4.136 10.067-4.136v-10c-6.65 0-12.456 2.383-17.138 7.064l7.071 7.072Zm10.067-4.136h275.2v-10h-275.2v10Z" fill="#29FF7F" fill-opacity=".1" mask="url(#a)"/><path d="m19.072 373 5.58-12.78h1.836l5.58 12.78h-2.196l-1.458-3.348H22.69L21.25 373h-2.178Zm6.48-9.936L23.5 367.78h4.104l-2.052-4.716Zm15.919.936-4.68 10.386c-.396.9-.858 1.548-1.386 1.944-.517.408-1.165.612-1.944.612-.48 0-.846-.03-1.099-.09v-1.71c.36.024.654.036.883.036.66 0 1.2-.438 1.62-1.314l.593-1.314-3.887-8.55h2.177l2.827 6.246 2.7-6.246h2.196Zm.2 7.236h.234c.852 0 1.278-.882 1.278-2.646V364H50.6v7.236h1.404v4.014h-1.8V373H43.49v2.25h-1.818v-4.014Zm3.492-5.472v3.024c0 1.092-.174 1.908-.522 2.448h3.978v-5.472h-3.456ZM55.688 373h-1.764v-9h1.98v5.994l4.59-5.994h1.764v9h-1.98v-5.994L55.688 373Zm10.914 0v-7.236h-2.7V364h7.506v1.764h-2.826V373h-1.98Zm14.33.18c-1.357 0-2.485-.45-3.385-1.35-.888-.912-1.332-2.022-1.332-3.33 0-1.308.444-2.412 1.332-3.312.9-.912 2.028-1.368 3.384-1.368 1.164 0 2.154.324 2.97.972a4.359 4.359 0 0 1 1.602 2.502h-2.088a2.391 2.391 0 0 0-.936-1.206c-.432-.312-.948-.468-1.548-.468-.792 0-1.44.27-1.944.81s-.756 1.23-.756 2.07c0 .84.252 1.53.756 2.07.504.54 1.152.81 1.944.81.6 0 1.116-.15 1.548-.45.444-.312.756-.72.936-1.224h2.088a4.359 4.359 0 0 1-1.602 2.502c-.816.648-1.806.972-2.97.972ZM95.926 364l-4.68 10.386c-.395.9-.858 1.548-1.385 1.944-.516.408-1.164.612-1.944.612-.48 0-.847-.03-1.099-.09v-1.71c.36.024.654.036.882.036.66 0 1.2-.438 1.62-1.314l.594-1.314-3.888-8.55h2.178l2.826 6.246 2.7-6.246h2.197Zm15.006 7.236v4.014h-1.818V373H97.307v-9h1.98v7.236h3.132V364h1.98v7.236h3.114V364h1.98v7.236h1.44Zm5.715 1.944c-1.344 0-2.448-.438-3.312-1.314-.864-.888-1.296-2.01-1.296-3.366 0-1.356.426-2.472 1.278-3.348.852-.888 1.968-1.332 3.348-1.332 1.392 0 2.514.486 3.366 1.458.852.96 1.23 2.196 1.134 3.708h-7.164c.024.696.288 1.278.792 1.746.504.468 1.146.702 1.926.702 1.104 0 1.86-.42 2.268-1.26h2.07c-.276.876-.804 1.596-1.584 2.16-.78.564-1.722.846-2.826.846Zm-.036-7.704c-.648 0-1.206.186-1.674.558-.456.36-.75.876-.882 1.548h4.986c-.144-.696-.438-1.218-.882-1.566-.444-.36-.96-.54-1.548-.54Zm10.655 7.704c-1.356 0-2.484-.45-3.384-1.35-.888-.912-1.332-2.022-1.332-3.33 0-1.308.444-2.412 1.332-3.312.9-.912 2.028-1.368 3.384-1.368 1.164 0 2.154.324 2.97.972a4.359 4.359 0 0 1 1.602 2.502h-2.088a2.391 2.391 0 0 0-.936-1.206c-.432-.312-.948-.468-1.548-.468-.792 0-1.44.27-1.944.81s-.756 1.23-.756 2.07c0 .84.252 1.53.756 2.07.504.54 1.152.81 1.944.81.6 0 1.116-.15 1.548-.45.444-.312.756-.72.936-1.224h2.088a4.359 4.359 0 0 1-1.602 2.502c-.816.648-1.806.972-2.97.972Zm8.03-.18v-7.236h-2.7V364h7.506v1.764h-2.826V373h-1.98Zm6.465 0v-9h4.104c1.032 0 1.824.246 2.376.738.552.492.828 1.104.828 1.836 0 .636-.246 1.182-.738 1.638.876.468 1.314 1.176 1.314 2.124 0 .756-.27 1.392-.81 1.908-.54.504-1.356.756-2.448.756h-4.626Zm1.98-1.674h2.628c.396 0 .708-.096.936-.288.24-.204.36-.48.36-.828 0-.36-.12-.636-.36-.828-.228-.204-.54-.306-.936-.306h-2.628v2.25Zm0-3.69h2.196c.324 0 .594-.078.81-.234.228-.168.342-.432.342-.792 0-.672-.384-1.008-1.152-1.008h-2.196v2.034ZM160.088 364l-4.68 10.386c-.396.9-.858 1.548-1.386 1.944-.516.408-1.164.612-1.944.612-.48 0-.846-.03-1.098-.09v-1.71c.36.024.654.036.882.036.66 0 1.2-.438 1.62-1.314l.594-1.314-3.888-8.55h2.178l2.826 6.246 2.7-6.246h2.196Zm9.425 9.18c-1.152 0-2.148-.366-2.988-1.098a4.428 4.428 0 0 1-1.512-2.754h-1.566V373h-1.98v-9h1.98v3.582h1.584c.192-1.092.702-1.992 1.53-2.7.828-.708 1.812-1.062 2.952-1.062 1.308 0 2.388.45 3.24 1.35.864.9 1.296 2.01 1.296 3.33 0 1.32-.432 2.43-1.296 3.33-.852.9-1.932 1.35-3.24 1.35Zm-1.836-2.646c.48.528 1.092.792 1.836.792s1.35-.264 1.818-.792c.48-.54.72-1.218.72-2.034 0-.816-.24-1.488-.72-2.016-.468-.54-1.074-.81-1.818-.81s-1.356.27-1.836.81c-.468.528-.702 1.2-.702 2.016 0 .816.234 1.494.702 2.034Zm22.023.702v4.014h-1.818V373h-11.808v-9h1.98v7.236h3.132V364h1.98v7.236h3.114V364h1.98v7.236h1.44Zm5.715 1.944c-1.344 0-2.448-.438-3.312-1.314-.864-.888-1.296-2.01-1.296-3.366 0-1.356.426-2.472 1.278-3.348.852-.888 1.968-1.332 3.348-1.332 1.392 0 2.514.486 3.366 1.458.852.96 1.23 2.196 1.134 3.708h-7.164c.024.696.288 1.278.792 1.746.504.468 1.146.702 1.926.702 1.104 0 1.86-.42 2.268-1.26h2.07c-.276.876-.804 1.596-1.584 2.16-.78.564-1.722.846-2.826.846Zm-.036-7.704c-.648 0-1.206.186-1.674.558-.456.36-.75.876-.882 1.548h4.986c-.144-.696-.438-1.218-.882-1.566-.444-.36-.96-.54-1.548-.54Zm6.588 7.524v-9h5.904v1.764h-3.924V373h-1.98Zm14.693-1.17c-.9.9-2.016 1.35-3.348 1.35-1.332 0-2.454-.45-3.366-1.35-.9-.912-1.35-2.022-1.35-3.33 0-1.308.45-2.412 1.35-3.312.912-.912 2.034-1.368 3.366-1.368 1.332 0 2.448.456 3.348 1.368.912.9 1.368 2.004 1.368 3.312 0 1.308-.456 2.418-1.368 3.33Zm-3.348-.486c.78 0 1.422-.27 1.926-.81.516-.552.774-1.23.774-2.034 0-.804-.258-1.476-.774-2.016-.504-.552-1.146-.828-1.926-.828-.792 0-1.446.276-1.962.828-.504.54-.756 1.212-.756 2.016s.252 1.482.756 2.034c.516.54 1.17.81 1.962.81Zm9.486 1.656 3.366-3.456c-.612-.216-1.086-.552-1.422-1.008-.336-.456-.504-.99-.504-1.602 0-.864.288-1.566.864-2.106.576-.552 1.386-.828 2.43-.828h3.636v9h-1.98v-3.078h-1.008L225.138 373h-2.34Zm4.842-4.734h1.548v-2.592h-1.548c-.996 0-1.494.444-1.494 1.332 0 .396.132.708.396.936.276.216.642.324 1.098.324Zm5.422 2.97h.234c.852 0 1.278-.882 1.278-2.646V364h7.416v7.236h1.404v4.014h-1.8V373h-6.714v2.25h-1.818v-4.014Zm3.492-5.472v3.024c0 1.092-.174 1.908-.522 2.448h3.978v-5.472h-3.456Zm10.74 10.998h-1.98V364h1.98v1.206c.276-.384.672-.708 1.188-.972a3.636 3.636 0 0 1 1.71-.414c1.224 0 2.25.456 3.078 1.368.84.912 1.26 2.016 1.26 3.312 0 1.296-.42 2.4-1.26 3.312-.828.912-1.854 1.368-3.078 1.368a3.77 3.77 0 0 1-1.71-.396c-.516-.276-.912-.606-1.188-.99v4.968Zm2.538-5.382c.78 0 1.422-.276 1.926-.828.504-.552.756-1.236.756-2.052 0-.816-.252-1.5-.756-2.052s-1.146-.828-1.926-.828c-.792 0-1.44.276-1.944.828-.504.552-.756 1.236-.756 2.052 0 .816.252 1.5.756 2.052s1.152.828 1.944.828Zm10.405 1.8c-1.224 0-2.256-.456-3.096-1.368-.828-.912-1.242-2.016-1.242-3.312 0-1.296.414-2.4 1.242-3.312.84-.912 1.872-1.368 3.096-1.368a3.53 3.53 0 0 1 1.692.414c.516.264.912.588 1.188.972V364h1.98v9h-1.98v-1.206c-.276.384-.672.714-1.188.99a3.66 3.66 0 0 1-1.692.396Zm-1.566-2.628c.504.552 1.146.828 1.926.828s1.422-.276 1.926-.828c.504-.552.756-1.236.756-2.052 0-.816-.252-1.5-.756-2.052s-1.146-.828-1.926-.828-1.422.276-1.926.828c-.504.552-.756 1.236-.756 2.052 0 .816.252 1.5.756 2.052ZM1341.84 252.664V250h-8.77v2.664h-1.92v-4.68h.23c1.09 0 1.64-1.35 1.64-4.05v-6.714h9.12v10.764h1.62v4.68h-1.92Zm-6.7-13.428v4.95c0 1.716-.25 2.982-.75 3.798h5.65v-8.748h-4.9Zm17.78 9.594c-.9.9-2.01 1.35-3.34 1.35-1.34 0-2.46-.45-3.37-1.35-.9-.912-1.35-2.022-1.35-3.33 0-1.308.45-2.412 1.35-3.312.91-.912 2.03-1.368 3.37-1.368 1.33 0 2.44.456 3.34 1.368.92.9 1.37 2.004 1.37 3.312 0 1.308-.45 2.418-1.37 3.33Zm-3.34-.486c.78 0 1.42-.27 1.92-.81.52-.552.78-1.23.78-2.034 0-.804-.26-1.476-.78-2.016-.5-.552-1.14-.828-1.92-.828-.8 0-1.45.276-1.97.828-.5.54-.75 1.212-.75 2.016s.25 1.482.75 2.034c.52.54 1.17.81 1.97.81Zm8.68 5.418h-1.98V241h1.98v1.206c.28-.384.68-.708 1.19-.972.53-.276 1.1-.414 1.71-.414 1.23 0 2.25.456 3.08 1.368.84.912 1.26 2.016 1.26 3.312 0 1.296-.42 2.4-1.26 3.312-.83.912-1.85 1.368-3.08 1.368-.61 0-1.18-.132-1.71-.396-.51-.276-.91-.606-1.19-.99v4.968Zm2.54-5.382c.78 0 1.42-.276 1.93-.828.5-.552.75-1.236.75-2.052 0-.816-.25-1.5-.75-2.052-.51-.552-1.15-.828-1.93-.828-.79 0-1.44.276-1.94.828-.51.552-.76 1.236-.76 2.052 0 .816.25 1.5.76 2.052.5.552 1.15.828 1.94.828Zm10.41 1.8c-1.23 0-2.26-.456-3.1-1.368-.83-.912-1.24-2.016-1.24-3.312 0-1.296.41-2.4 1.24-3.312.84-.912 1.87-1.368 3.1-1.368.61 0 1.17.138 1.69.414.51.264.91.588 1.19.972V241h1.98v9h-1.98v-1.206c-.28.384-.68.714-1.19.99a3.67 3.67 0 0 1-1.69.396Zm-1.57-2.628c.5.552 1.15.828 1.93.828s1.42-.276 1.92-.828c.51-.552.76-1.236.76-2.052 0-.816-.25-1.5-.76-2.052-.5-.552-1.14-.828-1.92-.828s-1.43.276-1.93.828c-.5.552-.76 1.236-.76 2.052 0 .816.26 1.5.76 2.052Zm13.46 2.628c-1.46 0-2.61-.48-3.43-1.44-.83-.96-1.25-2.244-1.25-3.852v-.72c0-2.232.42-3.894 1.26-4.986.86-1.092 2.18-1.812 3.98-2.16l3.26-.594v1.89l-2.83.504c-1.17.216-2.04.6-2.61 1.152-.55.552-.89 1.356-1.02 2.412.74-.864 1.73-1.296 2.97-1.296 1.32 0 2.38.426 3.18 1.278.81.84 1.21 1.872 1.21 3.096 0 1.32-.46 2.436-1.37 3.348-.9.912-2.01 1.368-3.35 1.368Zm-1.96-2.61c.51.516 1.15.774 1.95.774.79 0 1.44-.258 1.94-.774.52-.528.77-1.218.77-2.07 0-.756-.25-1.386-.77-1.89-.5-.504-1.15-.756-1.93-.756-.79 0-1.44.258-1.94.774a2.6 2.6 0 0 0-.76 1.872c0 .852.25 1.542.74 2.07Zm16.12 1.26c-.9.9-2.02 1.35-3.35 1.35s-2.46-.45-3.37-1.35c-.9-.912-1.35-2.022-1.35-3.33 0-1.308.45-2.412 1.35-3.312.91-.912 2.04-1.368 3.37-1.368s2.45.456 3.35 1.368c.91.9 1.36 2.004 1.36 3.312 0 1.308-.45 2.418-1.36 3.33Zm-3.35-.486c.78 0 1.42-.27 1.92-.81.52-.552.78-1.23.78-2.034 0-.804-.26-1.476-.78-2.016-.5-.552-1.14-.828-1.92-.828-.79 0-1.45.276-1.96.828-.51.54-.76 1.212-.76 2.016s.25 1.482.76 2.034c.51.54 1.17.81 1.96.81Zm8.13 1.656v-7.236h-2.7V241h7.51v1.764h-2.83V250h-1.98Zm12.44 0-3.99-3.834V250h-1.98v-9h1.98v3.852l3.54-3.852h2.42l-4.09 4.428 4.73 4.572h-2.61Zm5.46 0h-1.76v-9h1.98v5.994l4.59-5.994h1.76v9h-1.98v-5.994l-4.59 5.994Zm17.54.18c-1.35 0-2.48-.45-3.38-1.35-.89-.912-1.33-2.022-1.33-3.33 0-1.308.44-2.412 1.33-3.312.9-.912 2.03-1.368 3.38-1.368 1.17 0 2.16.324 2.97.972a4.361 4.361 0 0 1 1.61 2.502h-2.09a2.367 2.367 0 0 0-.94-1.206c-.43-.312-.95-.468-1.55-.468-.79 0-1.44.27-1.94.81s-.76 1.23-.76 2.07c0 .84.26 1.53.76 2.07.5.54 1.15.81 1.94.81.6 0 1.12-.15 1.55-.45.45-.312.76-.72.94-1.224h2.09a4.361 4.361 0 0 1-1.61 2.502c-.81.648-1.8.972-2.97.972Zm15-9.18-4.68 10.386c-.4.9-.86 1.548-1.39 1.944-.51.408-1.16.612-1.94.612-.48 0-.85-.03-1.1-.09v-1.71c.36.024.66.036.88.036.66 0 1.2-.438 1.62-1.314l.6-1.314-3.89-8.55h2.18l2.82 6.246 2.7-6.246h2.2Zm15.01 7.236v4.014h-1.82V250h-11.81v-9h1.98v7.236h3.13V241h1.98v7.236h3.12V241h1.98v7.236h1.44Zm5.71 1.944c-1.34 0-2.45-.438-3.31-1.314-.87-.888-1.3-2.01-1.3-3.366 0-1.356.43-2.472 1.28-3.348.85-.888 1.97-1.332 3.35-1.332 1.39 0 2.51.486 3.36 1.458.86.96 1.23 2.196 1.14 3.708h-7.17c.03.696.29 1.278.8 1.746.5.468 1.14.702 1.92.702 1.11 0 1.86-.42 2.27-1.26h2.07c-.28.876-.8 1.596-1.58 2.16-.78.564-1.73.846-2.83.846Zm-.04-7.704c-.64 0-1.2.186-1.67.558-.46.36-.75.876-.88 1.548h4.98c-.14-.696-.43-1.218-.88-1.566a2.38 2.38 0 0 0-1.55-.54Zm10.66 7.704c-1.36 0-2.48-.45-3.38-1.35-.89-.912-1.34-2.022-1.34-3.33 0-1.308.45-2.412 1.34-3.312.9-.912 2.02-1.368 3.38-1.368 1.16 0 2.15.324 2.97.972a4.346 4.346 0 0 1 1.6 2.502h-2.09a2.401 2.401 0 0 0-.93-1.206c-.43-.312-.95-.468-1.55-.468-.79 0-1.44.27-1.94.81-.51.54-.76 1.23-.76 2.07 0 .84.25 1.53.76 2.07.5.54 1.15.81 1.94.81.6 0 1.12-.15 1.55-.45.44-.312.75-.72.93-1.224h2.09a4.346 4.346 0 0 1-1.6 2.502c-.82.648-1.81.972-2.97.972Zm8.03-.18v-7.236h-2.7V241h7.51v1.764h-2.83V250h-1.98Zm6.46 0v-9h4.11c1.03 0 1.82.246 2.37.738.56.492.83 1.104.83 1.836 0 .636-.24 1.182-.74 1.638.88.468 1.32 1.176 1.32 2.124 0 .756-.27 1.392-.81 1.908-.54.504-1.36.756-2.45.756h-4.63Zm1.98-1.674h2.63c.4 0 .71-.096.94-.288.24-.204.36-.48.36-.828 0-.36-.12-.636-.36-.828-.23-.204-.54-.306-.94-.306h-2.63v2.25Zm0-3.69h2.2c.32 0 .59-.078.81-.234.23-.168.34-.432.34-.792 0-.672-.38-1.008-1.15-1.008h-2.2v2.034Zm16.35-3.636-4.68 10.386c-.4.9-.86 1.548-1.39 1.944-.51.408-1.16.612-1.94.612-.48 0-.85-.03-1.1-.09v-1.71c.36.024.66.036.88.036.66 0 1.2-.438 1.62-1.314l.6-1.314-3.89-8.55h2.18l2.82 6.246 2.7-6.246h2.2Zm9.43 9.18c-1.16 0-2.15-.366-2.99-1.098-.84-.732-1.35-1.65-1.51-2.754H1520V250h-1.98v-9h1.98v3.582h1.58c.2-1.092.71-1.992 1.53-2.7.83-.708 1.82-1.062 2.96-1.062 1.3 0 2.38.45 3.24 1.35.86.9 1.29 2.01 1.29 3.33 0 1.32-.43 2.43-1.29 3.33-.86.9-1.94 1.35-3.24 1.35Zm-1.84-2.646c.48.528 1.09.792 1.84.792.74 0 1.35-.264 1.81-.792.48-.54.72-1.218.72-2.034 0-.816-.24-1.488-.72-2.016-.46-.54-1.07-.81-1.81-.81-.75 0-1.36.27-1.84.81-.47.528-.7 1.2-.7 2.016 0 .816.23 1.494.7 2.034Zm22.02.702v4.014h-1.82V250h-11.8v-9h1.98v7.236h3.13V241h1.98v7.236h3.11V241h1.98v7.236h1.44Zm5.72 1.944c-1.35 0-2.45-.438-3.31-1.314-.87-.888-1.3-2.01-1.3-3.366 0-1.356.43-2.472 1.28-3.348.85-.888 1.97-1.332 3.35-1.332 1.39 0 2.51.486 3.36 1.458.85.96 1.23 2.196 1.14 3.708h-7.17c.03.696.29 1.278.79 1.746.51.468 1.15.702 1.93.702 1.1 0 1.86-.42 2.27-1.26h2.07c-.28.876-.81 1.596-1.59 2.16-.78.564-1.72.846-2.82.846Zm-.04-7.704c-.65 0-1.2.186-1.67.558-.46.36-.75.876-.88 1.548h4.98c-.14-.696-.44-1.218-.88-1.566a2.38 2.38 0 0 0-1.55-.54Zm6.59 7.524v-9h5.9v1.764h-3.92V250h-1.98Zm14.69-1.17c-.9.9-2.01 1.35-3.35 1.35-1.33 0-2.45-.45-3.36-1.35-.9-.912-1.35-2.022-1.35-3.33 0-1.308.45-2.412 1.35-3.312.91-.912 2.03-1.368 3.36-1.368 1.34 0 2.45.456 3.35 1.368.91.9 1.37 2.004 1.37 3.312 0 1.308-.46 2.418-1.37 3.33Zm-3.35-.486c.78 0 1.43-.27 1.93-.81.52-.552.77-1.23.77-2.034 0-.804-.25-1.476-.77-2.016-.5-.552-1.15-.828-1.93-.828-.79 0-1.44.276-1.96.828-.5.54-.75 1.212-.75 2.016s.25 1.482.75 2.034c.52.54 1.17.81 1.96.81Zm9.49 1.656 3.37-3.456c-.62-.216-1.09-.552-1.43-1.008-.33-.456-.5-.99-.5-1.602 0-.864.29-1.566.86-2.106.58-.552 1.39-.828 2.43-.828h3.64v9h-1.98v-3.078h-1.01l-3.04 3.078h-2.34Zm4.84-4.734h1.55v-2.592h-1.55c-.99 0-1.49.444-1.49 1.332 0 .396.13.708.39.936.28.216.65.324 1.1.324Zm5.42 2.97h.24c.85 0 1.28-.882 1.28-2.646V241h7.41v7.236h1.41v4.014h-1.8V250h-6.72v2.25h-1.82v-4.014Zm3.5-5.472v3.024c0 1.092-.18 1.908-.53 2.448h3.98v-5.472h-3.45Zm10.74 10.998h-1.98V241h1.98v1.206c.27-.384.67-.708 1.19-.972a3.59 3.59 0 0 1 1.71-.414c1.22 0 2.25.456 3.07 1.368.84.912 1.26 2.016 1.26 3.312 0 1.296-.42 2.4-1.26 3.312-.82.912-1.85 1.368-3.07 1.368-.62 0-1.19-.132-1.71-.396-.52-.276-.92-.606-1.19-.99v4.968Zm2.54-5.382c.78 0 1.42-.276 1.92-.828.51-.552.76-1.236.76-2.052 0-.816-.25-1.5-.76-2.052-.5-.552-1.14-.828-1.92-.828-.8 0-1.44.276-1.95.828-.5.552-.75 1.236-.75 2.052 0 .816.25 1.5.75 2.052.51.552 1.15.828 1.95.828Zm10.4 1.8c-1.22 0-2.26-.456-3.1-1.368-.82-.912-1.24-2.016-1.24-3.312 0-1.296.42-2.4 1.24-3.312.84-.912 1.88-1.368 3.1-1.368.61 0 1.18.138 1.69.414.52.264.91.588 1.19.972V241h1.98v9h-1.98v-1.206c-.28.384-.67.714-1.19.99a3.64 3.64 0 0 1-1.69.396Zm-1.57-2.628c.51.552 1.15.828 1.93.828s1.42-.276 1.93-.828c.5-.552.75-1.236.75-2.052 0-.816-.25-1.5-.75-2.052-.51-.552-1.15-.828-1.93-.828s-1.42.276-1.93.828c-.5.552-.75 1.236-.75 2.052 0 .816.25 1.5.75 2.052Zm-425.11 230.874c.83.792 1.24 1.782 1.24 2.97 0 1.188-.41 2.184-1.24 2.988-.83.792-1.89 1.188-3.18 1.188h-1.97V490h-2.1v-12.78h4.07c1.29 0 2.35.402 3.18 1.206Zm-1.47 4.554c.43-.42.64-.948.64-1.584 0-.636-.21-1.158-.64-1.566-.42-.42-1-.63-1.73-.63h-1.95v4.392h1.95c.73 0 1.31-.204 1.73-.612Zm7.96 7.2c-1.23 0-2.26-.456-3.1-1.368-.83-.912-1.24-2.016-1.24-3.312 0-1.296.41-2.4 1.24-3.312.84-.912 1.87-1.368 3.1-1.368.61 0 1.17.138 1.69.414.51.264.91.588 1.19.972V481h1.98v9h-1.98v-1.206c-.28.384-.68.714-1.19.99a3.67 3.67 0 0 1-1.69.396Zm-1.57-2.628c.5.552 1.15.828 1.93.828s1.42-.276 1.92-.828c.51-.552.76-1.236.76-2.052 0-.816-.25-1.5-.76-2.052-.5-.552-1.14-.828-1.92-.828s-1.43.276-1.93.828c-.5.552-.76 1.236-.76 2.052 0 .816.26 1.5.76 2.052Zm12.22 2.628c-.97 0-1.82-.234-2.55-.702-.74-.48-1.19-1.176-1.37-2.088h2.03c.27.768.9 1.152 1.89 1.152.55-.012.97-.132 1.26-.36.3-.228.45-.528.45-.9 0-.384-.14-.678-.41-.882-.28-.216-.67-.324-1.17-.324h-1.06v-1.458h1.02c.42 0 .75-.09.99-.27.24-.192.36-.468.36-.828 0-.348-.13-.618-.39-.81-.27-.204-.63-.306-1.08-.306-.9 0-1.47.366-1.7 1.098h-1.98c.18-.9.62-1.572 1.3-2.016.7-.444 1.5-.666 2.41-.666 1.07 0 1.89.252 2.47.756.57.492.86 1.092.86 1.8 0 .84-.32 1.47-.97 1.89.9.456 1.35 1.176 1.35 2.16 0 .744-.33 1.392-.99 1.944-.65.54-1.55.81-2.72.81Zm7.75 3.582h-1.98V481h1.98v1.206c.27-.384.67-.708 1.18-.972.53-.276 1.1-.414 1.71-.414 1.23 0 2.25.456 3.08 1.368.84.912 1.26 2.016 1.26 3.312 0 1.296-.42 2.4-1.26 3.312-.83.912-1.85 1.368-3.08 1.368-.61 0-1.18-.132-1.71-.396-.51-.276-.91-.606-1.18-.99v4.968Zm2.53-5.382c.78 0 1.43-.276 1.93-.828.5-.552.76-1.236.76-2.052 0-.816-.26-1.5-.76-2.052s-1.15-.828-1.93-.828c-.79 0-1.44.276-1.94.828-.5.552-.76 1.236-.76 2.052 0 .816.26 1.5.76 2.052s1.15.828 1.94.828Zm10.41 1.8c-1.23 0-2.26-.456-3.1-1.368-.83-.912-1.24-2.016-1.24-3.312 0-1.296.41-2.4 1.24-3.312.84-.912 1.87-1.368 3.1-1.368.61 0 1.17.138 1.69.414.52.264.91.588 1.19.972V481h1.98v9h-1.98v-1.206c-.28.384-.67.714-1.19.99a3.67 3.67 0 0 1-1.69.396Zm-1.57-2.628c.51.552 1.15.828 1.93.828s1.42-.276 1.92-.828c.51-.552.76-1.236.76-2.052 0-.816-.25-1.5-.76-2.052-.5-.552-1.14-.828-1.92-.828s-1.42.276-1.93.828c-.5.552-.75 1.236-.75 2.052 0 .816.25 1.5.75 2.052Zm13.47 2.628c-1.47 0-2.61-.48-3.44-1.44-.83-.96-1.24-2.244-1.24-3.852v-.72c0-2.232.42-3.894 1.26-4.986.85-1.092 2.17-1.812 3.97-2.16l3.26-.594v1.89l-2.82.504c-1.18.216-2.05.6-2.61 1.152-.56.552-.9 1.356-1.03 2.412.74-.864 1.73-1.296 2.97-1.296 1.32 0 2.38.426 3.19 1.278.8.84 1.2 1.872 1.2 3.096 0 1.32-.45 2.436-1.37 3.348-.9.912-2.01 1.368-3.34 1.368Zm-1.97-2.61c.51.516 1.16.774 1.95.774s1.44-.258 1.94-.774c.52-.528.78-1.218.78-2.07 0-.756-.26-1.386-.78-1.89-.5-.504-1.14-.756-1.92-.756-.8 0-1.44.258-1.95.774-.5.516-.75 1.14-.75 1.872 0 .852.24 1.542.73 2.07Zm16.12 1.26c-.9.9-2.02 1.35-3.35 1.35s-2.45-.45-3.37-1.35c-.9-.912-1.35-2.022-1.35-3.33 0-1.308.45-2.412 1.35-3.312.92-.912 2.04-1.368 3.37-1.368s2.45.456 3.35 1.368c.91.9 1.37 2.004 1.37 3.312 0 1.308-.46 2.418-1.37 3.33Zm-3.35-.486c.78 0 1.42-.27 1.93-.81.51-.552.77-1.23.77-2.034 0-.804-.26-1.476-.77-2.016-.51-.552-1.15-.828-1.93-.828-.79 0-1.45.276-1.96.828-.51.54-.76 1.212-.76 2.016s.25 1.482.76 2.034c.51.54 1.17.81 1.96.81Zm8.14 1.656v-7.236h-2.7V481h7.5v1.764h-2.82V490h-1.98Zm12.44 0-4-3.834V490h-1.98v-9h1.98v3.852l3.55-3.852h2.41l-4.09 4.428 4.74 4.572h-2.61Zm6.89.18c-1.23 0-2.26-.456-3.1-1.368-.83-.912-1.24-2.016-1.24-3.312 0-1.296.41-2.4 1.24-3.312.84-.912 1.87-1.368 3.1-1.368.61 0 1.17.138 1.69.414.51.264.91.588 1.19.972V481h1.98v9h-1.98v-1.206c-.28.384-.68.714-1.19.99a3.67 3.67 0 0 1-1.69.396Zm-1.57-2.628c.5.552 1.15.828 1.93.828s1.42-.276 1.92-.828c.51-.552.76-1.236.76-2.052 0-.816-.25-1.5-.76-2.052-.5-.552-1.14-.828-1.92-.828s-1.43.276-1.93.828c-.5.552-.76 1.236-.76 2.052 0 .816.26 1.5.76 2.052Zm11.89 2.448 3.36-3.456c-.61-.216-1.08-.552-1.42-1.008-.34-.456-.5-.99-.5-1.602 0-.864.28-1.566.86-2.106.58-.552 1.39-.828 2.43-.828h3.64v9h-1.98v-3.078h-1.01l-3.04 3.078h-2.34Zm4.84-4.734h1.55v-2.592h-1.55c-1 0-1.5.444-1.5 1.332 0 .396.14.708.4.936.28.216.64.324 1.1.324Zm5.42 2.97h.23c.86 0 1.28-.882 1.28-2.646V481h7.42v7.236h1.4v4.014h-1.8V490h-6.71v2.25h-1.82v-4.014Zm3.49-5.472v3.024c0 1.092-.17 1.908-.52 2.448h3.98v-5.472h-3.46Zm10.74 10.998h-1.98V481h1.98v1.206c.28-.384.68-.708 1.19-.972.53-.276 1.1-.414 1.71-.414 1.23 0 2.25.456 3.08 1.368.84.912 1.26 2.016 1.26 3.312 0 1.296-.42 2.4-1.26 3.312-.83.912-1.85 1.368-3.08 1.368-.61 0-1.18-.132-1.71-.396-.51-.276-.91-.606-1.19-.99v4.968Zm2.54-5.382c.78 0 1.42-.276 1.93-.828.5-.552.75-1.236.75-2.052 0-.816-.25-1.5-.75-2.052-.51-.552-1.15-.828-1.93-.828-.79 0-1.44.276-1.94.828-.51.552-.76 1.236-.76 2.052 0 .816.25 1.5.76 2.052.5.552 1.15.828 1.94.828Zm10.41 1.8c-1.23 0-2.26-.456-3.1-1.368-.83-.912-1.24-2.016-1.24-3.312 0-1.296.41-2.4 1.24-3.312.84-.912 1.87-1.368 3.1-1.368.61 0 1.17.138 1.69.414.51.264.91.588 1.19.972V481h1.98v9h-1.98v-1.206c-.28.384-.68.714-1.19.99a3.67 3.67 0 0 1-1.69.396Zm-1.57-2.628c.5.552 1.15.828 1.93.828s1.42-.276 1.92-.828c.51-.552.76-1.236.76-2.052 0-.816-.25-1.5-.76-2.052-.5-.552-1.14-.828-1.92-.828s-1.43.276-1.93.828c-.5.552-.76 1.236-.76 2.052 0 .816.26 1.5.76 2.052Zm17.41 2.628c-1.35 0-2.48-.45-3.38-1.35-.89-.912-1.33-2.022-1.33-3.33 0-1.308.44-2.412 1.33-3.312.9-.912 2.03-1.368 3.38-1.368 1.17 0 2.16.324 2.97.972a4.346 4.346 0 0 1 1.6 2.502h-2.08a2.42 2.42 0 0 0-.94-1.206c-.43-.312-.95-.468-1.55-.468-.79 0-1.44.27-1.94.81-.51.54-.76 1.23-.76 2.07 0 .84.25 1.53.76 2.07.5.54 1.15.81 1.94.81.6 0 1.12-.15 1.55-.45.44-.312.76-.72.94-1.224h2.08a4.346 4.346 0 0 1-1.6 2.502c-.81.648-1.8.972-2.97.972Zm10.68-.18v-9h1.98v3.564h4.34V481h1.98v9h-1.98v-3.672h-4.34V490h-1.98Zm19.63-9-4.68 10.386c-.4.9-.86 1.548-1.39 1.944-.51.408-1.16.612-1.94.612-.48 0-.85-.03-1.1-.09v-1.71c.36.024.66.036.88.036.66 0 1.2-.438 1.62-1.314l.6-1.314-3.89-8.55h2.18l2.82 6.246 2.7-6.246h2.2Zm1.03 9.144c-.45 0-.77-.024-.98-.072v-1.71c.27.024.47.036.6.036.37 0 .65-.12.83-.36.18-.252.27-.69.27-1.314V481h7.32v9h-1.98v-7.236h-3.36v4.266c0 1.02-.26 1.794-.78 2.322-.5.528-1.14.792-1.92.792Zm9.24-.144 3.37-3.456c-.61-.216-1.09-.552-1.42-1.008-.34-.456-.51-.99-.51-1.602 0-.864.29-1.566.87-2.106.57-.552 1.38-.828 2.43-.828h3.63v9h-1.98v-3.078h-1l-3.05 3.078h-2.34Zm4.85-4.734h1.54v-2.592h-1.54c-1 0-1.5.444-1.5 1.332 0 .396.13.708.4.936.27.216.64.324 1.1.324Z" fill="#fff"/></svg>