<svg width="393" height="441" fill="none" xmlns="http://www.w3.org/2000/svg"><mask id="a" maskUnits="userSpaceOnUse" x="27" y="27" width="348" height="417" fill="#000"><path fill="#fff" d="M27 27h348v417H27z"/><path d="M204.911 73.12a181.687 181.687 0 0 1 8.8 5.92 152.45 152.45 0 0 1 9.12 6.72 13.678 13.678 0 0 1 3.04 3.04c.854 1.067 1.28 2.347 1.28 3.84 0 2.133-.746 3.947-2.24 5.44-1.493 1.493-3.306 2.24-5.44 2.24-.853 0-1.76-.213-2.72-.64a14.03 14.03 0 0 1-2.72-1.6 299.321 299.321 0 0 0-13.44-9.28 95.016 95.016 0 0 0-14.4-8 85.168 85.168 0 0 0-15.36-5.6c-5.333-1.387-10.88-2.08-16.64-2.08h-31.84c-1.386.213-2.56.853-3.52 1.92s-1.44 2.4-1.44 4v13.6c0 2.133-.8 3.947-2.4 5.44-1.493 1.493-3.253 2.24-5.28 2.24-2.133 0-3.946-.747-5.44-2.24-1.493-1.493-2.24-3.307-2.24-5.44V77.28c0-2.667.48-5.173 1.44-7.52 1.067-2.453 2.454-4.533 4.16-6.24a17.185 17.185 0 0 1 6.08-4.16c2.347-1.067 4.907-1.6 7.68-1.6h84.8c1.6 0 2.987-.533 4.16-1.6 1.28-1.173 1.92-2.613 1.92-4.32 0-1.6-.64-2.987-1.92-4.16-1.173-1.173-2.56-1.76-4.16-1.76h-96.48c-2.133 0-3.946-.747-5.44-2.24-1.493-1.493-2.24-3.307-2.24-5.44 0-2.133.747-3.947 2.24-5.44 1.494-1.493 3.307-2.24 5.44-2.24h95.84c2.987 0 5.76.587 8.32 1.76 2.667 1.067 4.96 2.56 6.88 4.48a19.472 19.472 0 0 1 4.64 6.72c1.174 2.56 1.76 5.333 1.76 8.32s-.586 5.76-1.76 8.32a19.472 19.472 0 0 1-4.64 6.72c-1.92 1.92-4.213 3.467-6.88 4.64-2.56 1.067-5.333 1.6-8.32 1.6h-.64Zm38.214-34.88c0-2.133.747-3.947 2.24-5.44 1.493-1.493 3.307-2.24 5.44-2.24h113.44c2.133 0 3.947.747 5.44 2.24 1.493 1.493 2.24 3.307 2.24 5.44 0 2.133-.747 3.947-2.24 5.44-1.493 1.493-3.307 2.24-5.44 2.24h-113.44c-2.133 0-3.947-.747-5.44-2.24-1.493-1.493-2.24-3.307-2.24-5.44Zm19.52 62.08c-2.347 0-4.693-.48-7.04-1.44a21.091 21.091 0 0 1-6.24-4.32c-1.813-1.813-3.307-4-4.48-6.56-1.173-2.56-1.76-5.44-1.76-8.64v-14.4c0-2.88.8-4.8 2.4-5.76 1.707-.96 4.32-1.44 7.84-1.44h107.36c2.133 0 3.947.747 5.44 2.24 1.493 1.493 2.24 3.307 2.24 5.44 0 2.133-.747 3.947-2.24 5.44-1.493 1.493-3.307 2.24-5.44 2.24h-102.24v7.84c0 1.067.427 2.027 1.28 2.88.96.747 2.187 1.12 3.68 1.12h100.8c2.133 0 3.947.747 5.44 2.24 1.493 1.493 2.24 3.307 2.24 5.44 0 2.133-.747 3.947-2.24 5.44-1.493 1.493-3.307 2.24-5.44 2.24h-101.6ZM43.6 182.44c-1.493 1.92-3.467 2.88-5.92 2.88-2.133 0-3.947-.747-5.44-2.24-1.493-1.493-2.24-3.307-2.24-5.44 0-2.027.533-3.573 1.6-4.64l38.88-52.32c1.813-2.453 4.213-4.427 7.2-5.92 2.987-1.6 6.187-2.4 9.6-2.4 3.2 0 6.24.693 9.12 2.08 2.88 1.387 5.227 3.307 7.04 5.76l38.88 52a31.139 31.139 0 0 1 1.44 2.56c.533.853.8 1.813.8 2.88 0 2.133-.747 3.947-2.24 5.44-1.493 1.493-3.307 2.24-5.44 2.24-2.667 0-4.693-1.013-6.08-3.04l-37.28-49.76c-.747-.853-1.707-1.76-2.88-2.72-1.067-1.067-2.187-1.6-3.36-1.6s-2.347.533-3.52 1.6c-1.067.96-1.92 1.867-2.56 2.72l-37.6 49.92Zm138.945 2.88c-2.987 0-5.813-.533-8.48-1.6-2.667-1.173-5.013-2.72-7.04-4.64-1.92-1.92-3.467-4.16-4.64-6.72-1.173-2.56-1.76-5.333-1.76-8.32v-40.8c0-2.133.747-3.947 2.24-5.44 1.493-1.493 3.307-2.24 5.44-2.24 2.027 0 3.787.747 5.28 2.24 1.6 1.493 2.4 3.307 2.4 5.44v40.8c0 1.6.587 2.987 1.76 4.16 1.28 1.173 2.72 1.76 4.32 1.76h96c2.133 0 3.947.747 5.44 2.24 1.493 1.493 2.24 3.307 2.24 5.44 0 2.133-.747 3.947-2.24 5.44-1.493 1.493-3.307 2.24-5.44 2.24h-95.52ZM30 293.24c0-2.133.747-3.947 2.24-5.44 1.493-1.493 3.307-2.24 5.44-2.24h113.44c2.133 0 3.947.747 5.44 2.24 1.493 1.493 2.24 3.307 2.24 5.44 0 2.133-.747 3.947-2.24 5.44-1.493 1.493-3.307 2.24-5.44 2.24H37.68c-2.133 0-3.947-.747-5.44-2.24-1.493-1.493-2.24-3.307-2.24-5.44Zm0 26.72c0-2.88.8-4.8 2.4-5.76 1.707-.96 4.32-1.44 7.84-1.44H147.6c2.133 0 3.947.747 5.44 2.24 1.493 1.493 2.24 3.307 2.24 5.44 0 2.133-.747 3.947-2.24 5.44-1.493 1.493-3.307 2.24-5.44 2.24H45.36v19.52c0 2.133-.747 3.947-2.24 5.44-1.493 1.493-3.307 2.24-5.44 2.24-2.133 0-3.947-.747-5.44-2.24-1.493-1.493-2.24-3.307-2.24-5.44v-27.68Zm154.538 32.48c-1.494 1.92-3.467 2.88-5.92 2.88-2.134 0-3.947-.747-5.44-2.24-1.494-1.493-2.24-3.307-2.24-5.44 0-2.027.533-3.573 1.6-4.64l38.88-52.32c1.813-2.453 4.213-4.427 7.2-5.92 2.986-1.6 6.186-2.4 9.6-2.4 3.2 0 6.24.693 9.12 2.08 2.88 1.387 5.226 3.307 7.04 5.76l38.88 52a31.139 31.139 0 0 1 1.44 2.56c.533.853.8 1.813.8 2.88 0 2.133-.747 3.947-2.24 5.44-1.494 1.493-3.307 2.24-5.44 2.24-2.667 0-4.694-1.013-6.08-3.04l-37.28-49.76c-.747-.853-1.707-1.76-2.88-2.72-1.067-1.067-2.187-1.6-3.36-1.6-1.174 0-2.347.533-3.52 1.6-1.067.96-1.92 1.867-2.56 2.72l-37.6 49.92Zm26.453 25.8c0-2.133.747-3.947 2.24-5.44 1.494-1.493 3.307-2.24 5.44-2.24 2.134 0 3.947.747 5.44 2.24 1.494 1.493 2.24 3.307 2.24 5.44v46.56c0 4.48-1.44 8.213-4.32 11.2-2.88 2.88-6.56 4.32-11.04 4.32-1.493 0-2.986-.213-4.48-.64a15.753 15.753 0 0 1-3.84-1.76l-73.28-44.8c-2.026-1.173-3.733-2.08-5.12-2.72-1.28-.747-2.346-1.12-3.2-1.12-1.6 0-2.613 1.013-3.04 3.04-.426 2.027-.64 4.96-.64 8.8v31.52c0 2.133-.746 3.947-2.24 5.44-1.493 1.493-3.306 2.24-5.44 2.24-2.133 0-3.946-.747-5.44-2.24-1.493-1.493-2.24-3.307-2.24-5.44v-46.56c0-4.48 1.44-8.16 4.32-11.04 2.88-2.987 6.56-4.48 11.04-4.48 1.494 0 2.934.213 4.32.64 1.494.427 2.827 1.013 4 1.76l73.28 44.8c2.027 1.173 3.68 2.133 4.96 2.88 1.387.64 2.507.96 3.36.96 1.6 0 2.614-1.013 3.04-3.04.427-2.027.64-4.96.64-8.8v-31.52Zm149.113-7.68c2.133 0 3.946.747 5.44 2.24 1.493 1.493 2.24 3.307 2.24 5.44 0 2.133-.747 3.947-2.24 5.44-1.494 1.493-3.307 2.24-5.44 2.24h-47.36v46.72c0 2.133-.747 3.947-2.24 5.44-1.494 1.493-3.307 2.24-5.44 2.24-2.134 0-3.947-.747-5.44-2.24-1.494-1.493-2.24-3.307-2.24-5.44v-46.72h-48c-1.92-.213-3.574-1.013-4.96-2.4-1.387-1.493-2.08-3.253-2.08-5.28 0-2.133.746-3.947 2.24-5.44 1.493-1.493 3.306-2.24 5.44-2.24h110.08Z"/></mask><path d="M204.911 73.12v-3h-10.395l8.797 5.539 1.598-2.539Zm8.8 5.92-1.743 2.441.029.021.03.02 1.684-2.482Zm9.12 6.72-1.864 2.35.049.04.051.036 1.764-2.426Zm3.04 3.04-2.426 1.764.041.056.043.054 2.342-1.874Zm-9.12 10.88 1.219-2.741-1.219 2.741Zm-2.72-1.6 1.8-2.4-.014-.01-.014-.011-1.772 2.421Zm-13.44-9.28-1.677 2.487.02.014.02.013 1.637-2.514Zm-14.4-8-1.294 2.706.035.017.035.016 1.224-2.739Zm-15.36-5.6-.755 2.903.755-2.903Zm-48.48-2.08v-3h-.229l-.227.035.456 2.965Zm-3.52 1.92-2.23-2.007 2.23 2.007Zm-3.84 23.04-2.047-2.193-.038.035-.036.037 2.121 2.121Zm-10.72 0 2.122-2.121-2.122 2.121Zm-.8-28.32-2.751-1.196-.013.03-.012.03 2.776 1.136Zm4.16-6.24 2.122 2.121.032-.032.031-.033-2.185-2.056Zm6.08-4.16 1.136 2.777.053-.022.053-.024-1.242-2.731Zm96.64-3.2 2.018 2.22.009-.009-2.027-2.211Zm0-8.48-2.121 2.121.046.046.048.044 2.027-2.211Zm-106.08-4 2.122-2.121-2.122 2.121Zm0-10.88-2.121-2.121 2.121 2.121Zm109.6-.48-1.25 2.727.067.031.069.027 1.114-2.785Zm6.88 4.48-2.121 2.121.029.029.029.028 2.063-2.178Zm4.64 6.72-2.769 1.154.02.048.022.048 2.727-1.25Zm0 16.64-2.727-1.25-.022.048-.02.048 2.769 1.154Zm-4.64 6.72-2.063-2.178-.029.028-.029.029 2.121 2.121Zm-6.88 4.64 1.154 2.77.027-.012.027-.012-1.208-2.746Zm-10.558 4.139a179.13 179.13 0 0 1 8.655 5.822l3.487-4.882a185.283 185.283 0 0 0-8.945-6.018l-3.197 5.078Zm8.714 5.863c2.92 1.982 5.9 4.177 8.94 6.588l3.728-4.7a155.696 155.696 0 0 0-9.299-6.852l-3.369 4.964Zm9.04 6.664a10.714 10.714 0 0 1 2.378 2.378l4.852-3.528a16.678 16.678 0 0 0-3.701-3.702l-3.529 4.852Zm2.462 2.488c.387.484.622 1.086.622 1.966h6c0-2.107-.618-4.065-1.937-5.714l-4.685 3.748Zm.622 1.966c0 1.347-.437 2.394-1.361 3.319l4.243 4.242c2.062-2.062 3.118-4.641 3.118-7.561h-6Zm-1.361 3.319c-.924.924-1.972 1.361-3.319 1.361v6c2.92 0 5.499-1.056 7.562-3.119l-4.243-4.242Zm-3.319 1.361c-.348 0-.839-.087-1.501-.381l-2.437 5.482c1.257.559 2.58.899 3.938.899v-6Zm-1.501-.381a11 11 0 0 1-2.139-1.259l-3.6 4.8a16.981 16.981 0 0 0 3.302 1.941l2.437-5.482Zm-2.167-1.28a302.76 302.76 0 0 0-13.575-9.373l-3.274 5.028a296.486 296.486 0 0 1 13.306 9.187l3.543-4.842Zm-13.534-9.346a98.102 98.102 0 0 0-14.854-8.252l-2.448 5.478a92.076 92.076 0 0 1 13.947 7.748l3.355-4.974Zm-14.783-8.22a88.193 88.193 0 0 0-15.9-5.797l-1.51 5.807a82.202 82.202 0 0 1 14.821 5.403l2.589-5.412Zm-15.9-5.797c-5.591-1.453-11.392-2.176-17.395-2.176v6c5.517 0 10.809.664 15.885 1.983l1.51-5.806Zm-17.395-2.176h-31.84v6h31.84v-6Zm-32.296.035c-2.087.321-3.882 1.31-5.294 2.878l4.46 4.014c.509-.565 1.061-.856 1.746-.962l-.912-5.93Zm-5.294 2.878c-1.514 1.682-2.21 3.758-2.21 6.007h6c0-.95.264-1.542.67-1.993l-4.46-4.014Zm-2.21 6.007v13.6h6v-13.6h-6Zm0 13.6c0 1.278-.437 2.304-1.447 3.247l4.094 4.386c2.19-2.044 3.353-4.644 3.353-7.633h-6Zm-1.521 3.319c-.957.957-1.964 1.361-3.159 1.361v6c2.859 0 5.372-1.089 7.402-3.119l-4.243-4.242Zm-3.159 1.361c-1.347 0-2.394-.437-3.318-1.361l-4.243 4.242c2.062 2.063 4.641 3.119 7.561 3.119v-6Zm-3.318-1.361c-.925-.925-1.362-1.972-1.362-3.319h-6c0 2.92 1.057 5.499 3.119 7.561l4.243-4.242Zm-1.362-3.319V77.28h-6v15.36h6Zm0-15.36c0-2.298.412-4.416 1.217-6.384l-5.553-2.272c-1.115 2.726-1.664 5.62-1.664 8.656h6Zm1.191-6.324c.933-2.145 2.117-3.901 3.531-5.315L105.51 61.4c-2 2-3.589 4.404-4.79 7.165l5.502 2.392Zm3.594-5.38a14.174 14.174 0 0 1 5.031-3.44l-2.272-5.553a20.174 20.174 0 0 0-7.128 4.88l4.369 4.113Zm5.137-3.485c1.927-.876 4.06-1.331 6.438-1.331v-6c-3.168 0-6.156.612-8.921 1.869l2.483 5.462Zm6.438-1.331h84.8v-6h-84.8v6Zm84.8 0c2.339 0 4.447-.806 6.178-2.38l-4.036-4.44c-.615.56-1.281.82-2.142.82v6Zm6.187-2.389c1.888-1.73 2.893-3.967 2.893-6.531h-6c0 .85-.275 1.492-.947 2.108l4.054 4.423Zm2.893-6.531c0-2.518-1.052-4.684-2.893-6.372l-4.054 4.423c.719.66.947 1.267.947 1.949h6Zm-2.798-6.281c-1.713-1.713-3.854-2.639-6.282-2.639v6c.772 0 1.405.247 2.039.881l4.243-4.242Zm-6.282-2.639h-96.48v6h96.48v-6Zm-96.48 0c-1.347 0-2.394-.437-3.318-1.361L102.15 45.8c2.062 2.063 4.641 3.119 7.561 3.119v-6Zm-3.318-1.361c-.925-.925-1.362-1.972-1.362-3.319h-6c0 2.92 1.057 5.499 3.119 7.561l4.243-4.242Zm-1.362-3.319c0-1.347.437-2.394 1.362-3.319l-4.243-4.242c-2.062 2.062-3.119 4.641-3.119 7.561h6Zm1.362-3.319c.924-.924 1.971-1.361 3.318-1.361v-6c-2.92 0-5.499 1.056-7.561 3.119l4.243 4.242Zm3.318-1.361h95.84v-6h-95.84v6Zm95.84 0c2.582 0 4.926.504 7.07 1.487l2.5-5.454c-2.976-1.364-6.178-2.033-9.57-2.033v6Zm7.206 1.545c2.312.925 4.257 2.2 5.873 3.816l4.243-4.242c-2.224-2.224-4.866-3.936-7.888-5.144l-2.228 5.57Zm5.931 3.873a16.487 16.487 0 0 1 3.934 5.696l5.538-2.308a22.47 22.47 0 0 0-5.346-7.744l-4.126 4.356Zm3.976 5.792c.983 2.144 1.487 4.488 1.487 7.07h6c0-3.391-.669-6.594-2.033-9.57l-5.454 2.5Zm1.487 7.07c0 2.582-.504 4.926-1.487 7.07l5.454 2.5c1.364-2.976 2.033-6.179 2.033-9.57h-6Zm-1.529 7.166a16.487 16.487 0 0 1-3.934 5.696l4.126 4.356a22.47 22.47 0 0 0 5.346-7.744l-5.538-2.308Zm-3.992 5.753c-1.638 1.638-3.616 2.98-5.967 4.015l2.416 5.492c2.983-1.312 5.592-3.063 7.794-5.265l-4.243-4.242Zm-5.913 3.992c-2.167.903-4.544 1.369-7.166 1.369v6c3.352 0 6.521-.6 9.474-1.83l-2.308-5.54Zm-7.166 1.369h-.64v6h.64v-6Zm39.814-37.32-2.121-2.121 2.121 2.121Zm124.32 0 2.121-2.121-2.121 2.121Zm-124.32 10.88 2.121-2.121-2.121 2.121Zm10.24 55.2-1.241 2.731.052.024.053.022 1.136-2.777Zm-6.24-4.32-2.121 2.121 2.121-2.121Zm-4.48-6.56 2.727-1.25-2.727 1.25Zm.64-28.8-1.471-2.615-.036.02-.036.023 1.543 2.572Zm120.64 11.68 2.121 2.121-2.121-2.121Zm-107.68 2.24v-3h-3v3h3Zm1.28 10.72-2.121 2.121.132.132.147.115 1.842-2.368Zm109.92 3.36-2.121 2.121 2.121-2.121Zm-123.56-48.96c0-1.347.437-2.394 1.361-3.319l-4.242-4.242c-2.063 2.062-3.119 4.641-3.119 7.561h6Zm1.361-3.319c.925-.924 1.972-1.361 3.319-1.361v-6c-2.92 0-5.499 1.056-7.561 3.119l4.242 4.242Zm3.319-1.361h113.44v-6h-113.44v6Zm113.44 0c1.347 0 2.394.437 3.319 1.361l4.242-4.242c-2.062-2.063-4.641-3.119-7.561-3.119v6Zm3.319 1.361c.924.925 1.361 1.972 1.361 3.319h6c0-2.92-1.056-5.499-3.119-7.561l-4.242 4.242Zm1.361 3.319c0 1.347-.437 2.394-1.361 3.319l4.242 4.242c2.063-2.062 3.119-4.641 3.119-7.561h-6Zm-1.361 3.319c-.925.924-1.972 1.361-3.319 1.361v6c2.92 0 5.499-1.056 7.561-3.119l-4.242-4.242Zm-3.319 1.361h-113.44v6h113.44v-6Zm-113.44 0c-1.347 0-2.394-.437-3.319-1.361l-4.242 4.242c2.062 2.063 4.641 3.119 7.561 3.119v-6Zm-3.319-1.361c-.924-.925-1.361-1.972-1.361-3.319h-6c0 2.92 1.056 5.499 3.119 7.561l4.242-4.242Zm15.159 55.761c-1.927 0-3.889-.392-5.904-1.217l-2.272 5.554c2.678 1.095 5.409 1.663 8.176 1.663v-6Zm-5.799-1.171a18.116 18.116 0 0 1-5.36-3.71l-4.242 4.242a24.095 24.095 0 0 0 7.12 4.93l2.482-5.462Zm-5.36-3.71c-1.537-1.538-2.834-3.421-3.874-5.689l-5.454 2.5c1.307 2.852 2.997 5.342 5.086 7.431l4.242-4.242Zm-3.874-5.689c-.97-2.118-1.487-4.563-1.487-7.39h-6c0 3.573.657 6.888 2.033 9.89l5.454-2.5Zm-1.487-7.39v-14.4h-6v14.4h6Zm0-14.4c0-2.437.67-3.023.943-3.187l-3.086-5.146c-2.927 1.756-3.857 5.01-3.857 8.333h6Zm.871-3.145c1.027-.578 3.012-1.055 6.369-1.055v-6c-3.683 0-6.925.483-9.311 1.825l2.942 5.23Zm6.369-1.055h107.36v-6h-107.36v6Zm107.36 0c1.347 0 2.394.437 3.319 1.361l4.242-4.242c-2.062-2.063-4.641-3.119-7.561-3.119v6Zm3.319 1.361c.924.925 1.361 1.972 1.361 3.319h6c0-2.92-1.056-5.499-3.119-7.561l-4.242 4.242Zm1.361 3.319c0 1.347-.437 2.394-1.361 3.319L368.286 73c2.063-2.062 3.119-4.641 3.119-7.561h-6Zm-1.361 3.319c-.925.924-1.972 1.361-3.319 1.361v6c2.92 0 5.499-1.056 7.561-3.119l-4.242-4.242Zm-3.319 1.361h-102.24v6h102.24v-6Zm-105.24 3v7.84h6v-7.84h-6Zm0 7.84c0 1.97.823 3.666 2.159 5.001l4.242-4.242c-.371-.372-.401-.595-.401-.759h-6Zm2.438 5.248c1.598 1.243 3.517 1.752 5.522 1.752v-6c-.982 0-1.516-.237-1.838-.488l-3.684 4.736Zm5.522 1.752h100.8v-6h-100.8v6Zm100.8 0c1.347 0 2.394.437 3.319 1.361l4.242-4.242c-2.062-2.063-4.641-3.119-7.561-3.119v6Zm3.319 1.361c.924.925 1.361 1.972 1.361 3.319h6c0-2.92-1.056-5.499-3.119-7.561l-4.242 4.242Zm1.361 3.319c0 1.347-.437 2.394-1.361 3.319l4.242 4.242c2.063-2.062 3.119-4.641 3.119-7.561h-6Zm-1.361 3.319c-.925.924-1.972 1.361-3.319 1.361v6c2.92 0 5.499-1.056 7.561-3.119l-4.242-4.242Zm-3.319 1.361h-101.6v6h101.6v-6ZM43.6 182.44l2.368 1.842.014-.019.014-.018-2.396-1.805Zm-11.36.64 2.121-2.121-2.121 2.121ZM31.6 173l2.121 2.121.156-.155.13-.177L31.6 173Zm38.88-52.32 2.408 1.789.004-.006-2.412-1.783Zm7.2-5.92 1.342 2.683.037-.019.038-.02-1.417-2.644Zm18.72-.32 1.301-2.703-1.301 2.703Zm7.04 5.76-2.413 1.783.005.007.005.006 2.403-1.796Zm38.88 52 2.544-1.59-.066-.106-.075-.1-2.403 1.796Zm1.44 2.56-2.683 1.342.063.127.076.121 2.544-1.59Zm-12.96 7.52 2.476-1.694-.036-.053-.039-.052-2.401 1.799Zm-37.28-49.76 2.4-1.799-.067-.091-.075-.086-2.258 1.976Zm-2.88-2.72-2.121 2.121.105.106.116.095 1.9-2.322Zm-6.88 0 2.007 2.23.005-.005.006-.005-2.018-2.22Zm-2.56 2.72 2.396 1.805.004-.005-2.4-1.8Zm-39.968 48.078c-.92 1.182-2.015 1.722-3.552 1.722v6c3.37 0 6.22-1.38 8.288-4.038l-4.736-3.684Zm-3.552 1.722c-1.347 0-2.394-.437-3.319-1.361l-4.242 4.242c2.062 2.063 4.641 3.119 7.561 3.119v-6Zm-3.319-1.361c-.924-.925-1.361-1.972-1.361-3.319h-6c0 2.92 1.056 5.499 3.119 7.561l4.242-4.242ZM33 177.64c0-1.513.39-2.187.721-2.519l-4.242-4.242C27.677 172.68 27 175.099 27 177.64h6Zm1.008-2.851 38.88-52.32-4.816-3.578-38.88 52.32 4.816 3.578Zm38.884-52.326c1.507-2.038 3.525-3.717 6.13-5.02l-2.684-5.366c-3.368 1.684-6.15 3.951-8.27 6.82l4.825 3.566Zm6.205-5.059c2.547-1.364 5.26-2.044 8.183-2.044v-6c-3.904 0-7.59.92-11.017 2.756l2.834 5.288Zm8.183-2.044c2.75 0 5.345.592 7.819 1.783l2.602-5.406a23.767 23.767 0 0 0-10.421-2.377v6Zm7.819 1.783c2.462 1.185 4.42 2.798 5.928 4.84l4.826-3.566c-2.118-2.865-4.854-5.092-8.151-6.68l-2.603 5.406Zm5.938 4.853 38.88 52 4.806-3.592-38.88-52-4.806 3.592Zm38.739 51.794a27.85 27.85 0 0 1 1.301 2.312l5.366-2.684a34.01 34.01 0 0 0-1.579-2.808l-5.088 3.18Zm1.44 2.56c.217.347.344.75.344 1.29h6c0-1.594-.407-3.111-1.256-4.47l-5.088 3.18Zm.344 1.29c0 1.347-.437 2.394-1.361 3.319l4.242 4.242c2.063-2.062 3.119-4.641 3.119-7.561h-6Zm-1.361 3.319c-.925.924-1.972 1.361-3.319 1.361v6c2.92 0 5.499-1.056 7.561-3.119l-4.242-4.242Zm-3.319 1.361c-1.777 0-2.831-.604-3.604-1.734l-4.952 3.388c2 2.923 4.999 4.346 8.556 4.346v-6Zm-3.679-1.839-37.28-49.76-4.802 3.598 37.28 49.76 4.802-3.598Zm-37.423-49.937c-.886-1.012-1.976-2.033-3.238-3.066l-3.8 4.644c1.085.887 1.915 1.679 2.522 2.374l4.516-3.952Zm-3.017-2.865c-1.46-1.461-3.302-2.479-5.481-2.479v6c.168 0 .567.049 1.239.721l4.242-4.242ZM87.28 125.2c-2.148 0-4.01.99-5.538 2.38l4.036 4.44c.818-.744 1.304-.82 1.502-.82v-6Zm-5.527 2.37c-1.165 1.049-2.164 2.098-2.953 3.15l4.8 3.6c.491-.655 1.199-1.419 2.167-2.29l-4.014-4.46Zm-2.95 3.145-37.6 49.92 4.793 3.61 37.6-49.92-4.792-3.61Zm95.262 53.005-1.208 2.746.046.02.048.019 1.114-2.785Zm-7.04-4.64-2.121 2.121.028.029.03.028 2.063-2.178Zm-4.64-6.72 2.727-1.25-2.727 1.25Zm.48-54.56-2.121-2.121 2.121 2.121Zm10.72 0-2.121 2.121.036.037.038.035 2.047-2.193Zm4.16 50.4-2.121 2.121.046.046.048.044 2.027-2.211Zm105.76 4-2.121 2.121 2.121-2.121Zm-100.96 10.12c-2.621 0-5.068-.466-7.366-1.385l-2.228 5.57c3.035 1.214 6.241 1.815 9.594 1.815v-6Zm-7.272-1.346c-2.365-1.041-4.419-2.399-6.185-4.072l-4.126 4.356c2.287 2.167 4.927 3.902 7.895 5.208l2.416-5.492Zm-6.127-4.015c-1.658-1.659-3.003-3.601-4.034-5.849l-5.454 2.5c1.316 2.872 3.064 5.41 5.246 7.591l4.242-4.242Zm-4.034-5.849c-.983-2.144-1.487-4.488-1.487-7.07h-6c0 3.391.669 6.594 2.033 9.57l5.454-2.5Zm-1.487-7.07v-40.8h-6v40.8h6Zm0-40.8c0-1.347.437-2.394 1.361-3.319l-4.242-4.242c-2.063 2.062-3.119 4.641-3.119 7.561h6Zm1.361-3.319c.925-.924 1.972-1.361 3.319-1.361v-6c-2.92 0-5.499 1.056-7.561 3.119l4.242 4.242Zm3.319-1.361c1.194 0 2.202.404 3.159 1.361l4.242-4.242c-2.029-2.03-4.542-3.119-7.401-3.119v6Zm3.233 1.433c1.01.943 1.447 1.969 1.447 3.247h6c0-2.989-1.163-5.589-3.353-7.633l-4.094 4.386Zm1.447 3.247v40.8h6v-40.8h-6Zm0 40.8c0 2.428.926 4.569 2.639 6.281l4.242-4.242c-.634-.634-.881-1.267-.881-2.039h-6Zm2.733 6.371c1.782 1.634 3.93 2.549 6.347 2.549v-6c-.783 0-1.515-.258-2.293-.971l-4.054 4.422Zm6.347 2.549h96v-6h-96v6Zm96 0c1.347 0 2.394.437 3.319 1.361l4.242-4.242c-2.062-2.063-4.641-3.119-7.561-3.119v6Zm3.319 1.361c.924.925 1.361 1.972 1.361 3.319h6c0-2.92-1.056-5.499-3.119-7.561l-4.242 4.242Zm1.361 3.319c0 1.347-.437 2.394-1.361 3.319l4.242 4.242c2.063-2.062 3.119-4.641 3.119-7.561h-6Zm-1.361 3.319c-.925.924-1.972 1.361-3.319 1.361v6c2.92 0 5.499-1.056 7.561-3.119l-4.242-4.242Zm-3.319 1.361h-95.52v6h95.52v-6ZM32.24 287.8l-2.121-2.121 2.121 2.121Zm124.32 0 2.121-2.121-2.121 2.121ZM32.24 298.68l2.121-2.121-2.121 2.121Zm.16 15.52-1.47-2.615-.037.021-.037.022L32.4 314.2Zm120.64 11.68 2.121 2.121-2.121-2.121Zm-107.68 2.24v-3h-3v3h3Zm-2.24 24.96-2.121-2.121 2.121 2.121Zm-10.88 0 2.121-2.121-2.121 2.121Zm.76-59.84c0-1.347.437-2.394 1.361-3.319l-4.242-4.242C28.056 287.741 27 290.32 27 293.24h6Zm1.361-3.319c.925-.924 1.972-1.361 3.319-1.361v-6c-2.92 0-5.499 1.056-7.561 3.119l4.242 4.242Zm3.319-1.361h113.44v-6H37.68v6Zm113.44 0c1.347 0 2.394.437 3.319 1.361l4.242-4.242c-2.062-2.063-4.641-3.119-7.561-3.119v6Zm3.319 1.361c.924.925 1.361 1.972 1.361 3.319h6c0-2.92-1.056-5.499-3.119-7.561l-4.242 4.242Zm1.361 3.319c0 1.347-.437 2.394-1.361 3.319l4.242 4.242c2.063-2.062 3.119-4.641 3.119-7.561h-6Zm-1.361 3.319c-.925.924-1.972 1.361-3.319 1.361v6c2.92 0 5.499-1.056 7.561-3.119l-4.242-4.242Zm-3.319 1.361H37.68v6h113.44v-6Zm-113.44 0c-1.347 0-2.394-.437-3.319-1.361l-4.242 4.242c2.062 2.063 4.641 3.119 7.561 3.119v-6Zm-3.319-1.361c-.924-.925-1.361-1.972-1.361-3.319h-6c0 2.92 1.056 5.499 3.119 7.561l4.242-4.242ZM33 319.96c0-2.437.67-3.024.944-3.188l-3.088-5.144C27.93 313.383 27 316.637 27 319.96h6Zm.87-3.145c1.028-.578 3.013-1.055 6.37-1.055v-6c-3.683 0-6.925.483-9.31 1.825l2.94 5.23Zm6.37-1.055H147.6v-6H40.24v6Zm107.36 0c1.347 0 2.394.437 3.319 1.361l4.242-4.242c-2.062-2.063-4.641-3.119-7.561-3.119v6Zm3.319 1.361c.924.925 1.361 1.972 1.361 3.319h6c0-2.92-1.056-5.499-3.119-7.561l-4.242 4.242Zm1.361 3.319c0 1.347-.437 2.394-1.361 3.319l4.242 4.242c2.063-2.062 3.119-4.641 3.119-7.561h-6Zm-1.361 3.319c-.925.924-1.972 1.361-3.319 1.361v6c2.92 0 5.499-1.056 7.561-3.119l-4.242-4.242Zm-3.319 1.361H45.36v6H147.6v-6Zm-105.24 3v19.52h6v-19.52h-6Zm0 19.52c0 1.347-.437 2.394-1.361 3.319l4.242 4.242c2.063-2.062 3.119-4.641 3.119-7.561h-6Zm-1.361 3.319c-.925.924-1.972 1.361-3.319 1.361v6c2.92 0 5.499-1.056 7.561-3.119L41 350.959Zm-3.319 1.361c-1.347 0-2.394-.437-3.319-1.361l-4.242 4.242c2.062 2.063 4.641 3.119 7.561 3.119v-6Zm-3.319-1.361c-.924-.925-1.361-1.972-1.361-3.319h-6c0 2.92 1.056 5.499 3.119 7.561l4.242-4.242ZM33 347.64v-27.68h-6v27.68h6Zm151.538 4.8 2.368 1.842.014-.019.014-.018-2.396-1.805Zm-11.36.64 2.121-2.121-2.121 2.121Zm-.64-10.08 2.121 2.121.155-.155.131-.177-2.407-1.789Zm38.879-52.32 2.408 1.789.005-.006-2.413-1.783Zm7.201-5.92 1.341 2.683.038-.019.037-.02-1.416-2.644Zm18.72-.32 1.301-2.703-1.301 2.703Zm7.04 5.76-2.413 1.783.005.007.005.006 2.403-1.796Zm38.88 52 2.544-1.59-.067-.106-.075-.1-2.402 1.796Zm1.44 2.56-2.684 1.342.064.127.076.121 2.544-1.59Zm-12.96 7.52 2.475-1.694-.036-.053-.039-.052-2.4 1.799Zm-37.28-49.76 2.4-1.799-.068-.091-.075-.086-2.257 1.976Zm-2.881-2.72-2.121 2.121.106.106.116.095 1.899-2.322Zm-6.88 0 2.007 2.23.006-.005.006-.005-2.019-2.22Zm-2.56 2.72 2.397 1.805.003-.005-2.4-1.8Zm-39.968 48.078c-.919 1.182-2.015 1.722-3.551 1.722v6c3.369 0 6.22-1.38 8.288-4.038l-4.737-3.684Zm-3.551 1.722c-1.347 0-2.395-.437-3.319-1.361l-4.243 4.242c2.063 2.063 4.642 3.119 7.562 3.119v-6Zm-3.319-1.361c-.925-.925-1.361-1.972-1.361-3.319h-6c0 2.92 1.056 5.499 3.118 7.561l4.243-4.242Zm-1.361-3.319c0-1.513.389-2.187.721-2.519l-4.243-4.242c-1.801 1.801-2.478 4.22-2.478 6.761h6Zm1.007-2.851 38.88-52.32-4.815-3.578-38.88 52.32 4.815 3.578Zm38.885-52.326c1.506-2.038 3.525-3.717 6.129-5.02l-2.683-5.366c-3.369 1.684-6.151 3.951-8.271 6.82l4.825 3.566Zm6.204-5.059c2.548-1.364 5.261-2.044 8.183-2.044v-6c-3.903 0-7.59.92-11.016 2.756l2.833 5.288Zm8.183-2.044c2.75 0 5.346.592 7.819 1.783l2.603-5.406a23.768 23.768 0 0 0-10.422-2.377v6Zm7.819 1.783c2.462 1.185 4.42 2.798 5.929 4.84l4.825-3.566c-2.117-2.865-4.853-5.092-8.151-6.68l-2.603 5.406Zm5.939 4.853 38.88 52 4.805-3.592-38.88-52-4.805 3.592Zm38.739 51.794c.485.777.918 1.548 1.3 2.312l5.367-2.684a34.602 34.602 0 0 0-1.579-2.808l-5.088 3.18Zm1.44 2.56c.217.347.343.75.343 1.29h6c0-1.594-.406-3.111-1.255-4.47l-5.088 3.18Zm.343 1.29c0 1.347-.436 2.394-1.361 3.319l4.243 4.242c2.062-2.062 3.118-4.641 3.118-7.561h-6Zm-1.361 3.319c-.924.924-1.972 1.361-3.318 1.361v6c2.919 0 5.498-1.056 7.561-3.119l-4.243-4.242Zm-3.318 1.361c-1.777 0-2.831-.604-3.605-1.734l-4.951 3.388c2 2.923 4.999 4.346 8.556 4.346v-6Zm-3.68-1.839-37.28-49.76-4.801 3.598 37.28 49.76 4.801-3.598Zm-37.423-49.937c-.885-1.012-1.976-2.033-3.238-3.066l-3.799 4.644c1.084.887 1.914 1.679 2.522 2.374l4.515-3.952Zm-3.016-2.865c-1.461-1.461-3.303-2.479-5.482-2.479v6c.168 0 .567.049 1.239.721l4.243-4.242Zm-5.482-2.479c-2.148 0-4.009.99-5.538 2.38l4.037 4.44c.817-.744 1.303-.82 1.501-.82v-6Zm-5.526 2.37c-1.166 1.049-2.165 2.098-2.953 3.15l4.799 3.6c.492-.655 1.199-1.419 2.167-2.29l-4.013-4.46Zm-2.95 3.145-37.6 49.92 4.793 3.61 37.6-49.92-4.793-3.61Zm-6.51 72.085 2.122 2.121-2.122-2.121Zm10.88 0 2.122-2.121-2.122 2.121Zm-2.08 63.2 2.122 2.121.019-.019.019-.02-2.16-2.082Zm-15.52 3.68-.882 2.867.029.009.029.009.824-2.885Zm-3.84-1.76 1.611-2.531-.023-.014-.023-.015-1.565 2.56Zm-73.28-44.8 1.565-2.56-.031-.018-.031-.018-1.503 2.596Zm-5.12-2.72-1.511 2.591.124.073.13.06 1.257-2.724Zm-6.24 1.92-2.935-.618 2.935.618Zm-2.88 45.76-2.121-2.121 2.121 2.121Zm-10.88 0 2.122-2.121-2.122 2.121Zm2.08-63.04 2.122 2.121.019-.019.019-.02-2.16-2.082Zm15.36-3.84-.882 2.867.029.009.029.009.824-2.885Zm4 1.76-1.61 2.531.022.014.023.015 1.565-2.56Zm73.28 44.8-1.565 2.56.031.018.031.018 1.503-2.596Zm4.96 2.88-1.511 2.591.124.073.13.06 1.257-2.724Zm6.4-2.08 2.936.618-2.936-.618Zm3.64-40.32c0-1.347.437-2.394 1.362-3.319l-4.243-4.242c-2.062 2.062-3.119 4.641-3.119 7.561h6Zm1.362-3.319c.924-.924 1.971-1.361 3.318-1.361v-6c-2.92 0-5.499 1.056-7.561 3.119l4.243 4.242Zm3.318-1.361c1.347 0 2.395.437 3.319 1.361l4.243-4.242c-2.063-2.063-4.642-3.119-7.562-3.119v6Zm3.319 1.361c.924.925 1.361 1.972 1.361 3.319h6c0-2.92-1.056-5.499-3.118-7.561l-4.243 4.242Zm1.361 3.319v46.56h6v-46.56h-6Zm0 46.56c0 3.771-1.184 6.737-3.479 9.118l4.319 4.164c3.464-3.593 5.16-8.093 5.16-13.282h-6Zm-3.441 9.079c-2.259 2.258-5.147 3.441-8.919 3.441v6c5.189 0 9.66-1.697 13.162-5.199l-4.243-4.242Zm-8.919 3.441a13.22 13.22 0 0 1-3.656-.525l-1.648 5.77c1.751.5 3.521.755 5.304.755v-6Zm-3.597-.507a12.726 12.726 0 0 1-3.112-1.424l-3.221 5.062a18.712 18.712 0 0 0 4.568 2.096l1.765-5.734Zm-3.158-1.453-73.28-44.8-3.13 5.12 73.28 44.8 3.13-5.12Zm-73.342-44.836c-2.069-1.198-3.863-2.155-5.366-2.848l-2.514 5.448c1.271.587 2.89 1.444 4.874 2.592l3.006-5.192Zm-5.111-2.715c-1.444-.843-3.067-1.529-4.712-1.529v6s.137.002.449.112c.307.107.717.295 1.24.599l3.023-5.182Zm-4.712-1.529c-1.494 0-2.944.502-4.081 1.639-1.063 1.063-1.612 2.441-1.894 3.783l5.871 1.236c.069-.327.146-.538.205-.664.058-.122.089-.141.061-.113a.5.5 0 0 1-.167.106c-.065.025-.076.013.005.013v-6Zm-5.975 5.422c-.492 2.334-.705 5.514-.705 9.418h6c0-3.776.214-6.463.576-8.182l-5.871-1.236Zm-.705 9.418v31.52h6v-31.52h-6Zm0 31.52c0 1.347-.437 2.394-1.361 3.319l4.243 4.242c2.062-2.062 3.118-4.641 3.118-7.561h-6Zm-1.361 3.319c-.924.924-1.972 1.361-3.319 1.361v6c2.92 0 5.499-1.056 7.562-3.119l-4.243-4.242Zm-3.319 1.361c-1.347 0-2.394-.437-3.318-1.361l-4.243 4.242c2.062 2.063 4.641 3.119 7.561 3.119v-6Zm-3.318-1.361c-.925-.925-1.362-1.972-1.362-3.319h-6c0 2.92 1.057 5.499 3.119 7.561l4.243-4.242Zm-1.362-3.319v-46.56h-6v46.56h6Zm0-46.56c0-3.772 1.183-6.66 3.442-8.919l-4.243-4.242c-3.502 3.501-5.199 7.973-5.199 13.161h6Zm3.48-8.958c2.266-2.35 5.143-3.562 8.88-3.562v-6c-5.222 0-9.706 1.775-13.199 5.398l4.319 4.164Zm8.88-3.562c1.203 0 2.345.171 3.438.507l1.765-5.734a17.582 17.582 0 0 0-5.203-.773v6Zm3.496.525c1.248.356 2.311.831 3.214 1.406l3.221-5.062c-1.444-.919-3.047-1.617-4.787-2.114l-1.648 5.77Zm3.259 1.435 73.28 44.8 3.13-5.12-73.28-44.8-3.13 5.12Zm73.342 44.836c2.025 1.173 3.676 2.131 4.952 2.875l3.023-5.182c-1.284-.749-2.941-1.711-4.969-2.885l-3.006 5.192Zm5.206 3.008c1.518.7 3.112 1.236 4.617 1.236v-6c-.201 0-.847-.104-2.103-.684l-2.514 5.448Zm4.617 1.236c1.495 0 2.944-.502 4.082-1.639 1.063-1.063 1.611-2.441 1.894-3.783l-5.871-1.236a3.09 3.09 0 0 1-.206.664c-.058.122-.088.141-.06.113a.5.5 0 0 1 .167-.106c.064-.025.075-.013-.006-.013v6Zm5.976-5.422c.491-2.334.704-5.514.704-9.418h-6c0 3.776-.213 6.463-.575 8.182l5.871 1.236Zm.704-9.418v-31.52h-6v31.52h6Zm151.553-36.96 2.121-2.121-2.121 2.121Zm-52.8 13.12v-3h-3v3h3Zm-15.36 0h3v-3h-3v3Zm-48 0-.332 2.982.166.018h.166v-3Zm-4.96-2.4-2.199 2.041.038.041.039.039 2.122-2.121Zm.16-10.72-2.122-2.121 2.122 2.121Zm115.52.76c1.347 0 2.394.437 3.318 1.361l4.243-4.242c-2.062-2.063-4.641-3.119-7.561-3.119v6Zm3.318 1.361c.925.925 1.362 1.972 1.362 3.319h6c0-2.92-1.057-5.499-3.119-7.561l-4.243 4.242Zm1.362 3.319c0 1.347-.437 2.394-1.362 3.319l4.243 4.242c2.062-2.062 3.119-4.641 3.119-7.561h-6Zm-1.362 3.319c-.924.924-1.971 1.361-3.318 1.361v6c2.92 0 5.499-1.056 7.561-3.119l-4.243-4.242Zm-3.318 1.361h-47.36v6h47.36v-6Zm-50.36 3v46.72h6v-46.72h-6Zm0 46.72c0 1.347-.437 2.394-1.362 3.319l4.243 4.242c2.062-2.062 3.119-4.641 3.119-7.561h-6Zm-1.362 3.319c-.924.924-1.971 1.361-3.318 1.361v6c2.92 0 5.499-1.056 7.561-3.119l-4.243-4.242Zm-3.318 1.361c-1.347 0-2.395-.437-3.319-1.361l-4.243 4.242c2.063 2.063 4.642 3.119 7.562 3.119v-6Zm-3.319-1.361c-.924-.925-1.361-1.972-1.361-3.319h-6c0 2.92 1.056 5.499 3.118 7.561l4.243-4.242Zm-1.361-3.319v-46.72h-6v46.72h6Zm-3-49.72h-48v6h48v-6Zm-47.669.018c-1.232-.137-2.257-.626-3.17-1.539l-4.243 4.242c1.861 1.861 4.142 2.971 6.75 3.261l.663-5.964Zm-3.093-1.459c-.874-.942-1.278-1.974-1.278-3.239h-6c0 2.789.983 5.277 2.881 7.321l4.397-4.082Zm-1.278-3.239c0-1.347.437-2.394 1.361-3.319l-4.243-4.242c-2.062 2.062-3.118 4.641-3.118 7.561h6Zm1.361-3.319c.924-.924 1.972-1.361 3.319-1.361v-6c-2.92 0-5.499 1.056-7.562 3.119l4.243 4.242Zm3.319-1.361h110.08v-6h-110.08v6Z" fill="#29FF7F" fill-opacity=".1" mask="url(#a)"/><path d="M297.76 102.121h6.871l-2.492-3.339a3.62 3.62 0 0 0-.436-.411c-.161-.162-.33-.242-.508-.242-.177 0-.355.08-.532.242-.161.145-.29.282-.387.411l-2.516 3.339Zm8.613 2.323h-10.38l-1.403 1.887c-.242.29-.54.435-.895.435-.323 0-.597-.113-.823-.338a1.12 1.12 0 0 1-.339-.823c0-.29.081-.524.242-.702l5.88-7.912c.274-.37.637-.669 1.089-.895a3.024 3.024 0 0 1 1.451-.363c.484 0 .944.105 1.379.315.436.21.791.5 1.065.871l5.879 7.863c.097.113.178.242.242.387a.957.957 0 0 1 .097.436c0 .323-.113.597-.339.823a1.12 1.12 0 0 1-.822.338c-.387 0-.694-.153-.92-.459l-1.403-1.863Zm-32.877-4.113h5.589c.839 0 1.661-.105 2.468-.315a15.16 15.16 0 0 0 2.347-.87 17.08 17.08 0 0 0 2.202-1.21 40.742 40.742 0 0 0 2.032-1.38c.274-.225.548-.338.823-.338.322 0 .596.113.822.338.226.226.339.5.339.823 0 .226-.065.428-.194.605a2.373 2.373 0 0 1-.459.436c-.42.322-.823.629-1.21.919a22.193 22.193 0 0 1-2.371 1.476c-.403.226-.839.451-1.307.677.468.226.904.452 1.307.678.419.226.822.459 1.21.701.387.242.774.508 1.161.799.387.274.79.572 1.21.895.177.129.33.282.459.46a.9.9 0 0 1 .194.58c0 .323-.113.597-.339.823a1.12 1.12 0 0 1-.822.339c-.275 0-.549-.113-.823-.339a37.67 37.67 0 0 0-2.057-1.403 17.792 17.792 0 0 0-2.177-1.21 13.62 13.62 0 0 0-2.347-.847 9.755 9.755 0 0 0-2.468-.314h-5.589v2.951c0 .323-.113.597-.339.823a1.092 1.092 0 0 1-.798.339 1.12 1.12 0 0 1-.823-.339 1.12 1.12 0 0 1-.338-.823v-8.226c0-.323.112-.597.338-.823.226-.225.492-.338.799-.338.322 0 .596.113.822.338.226.226.339.5.339.823v2.952Zm-5.874-4.113c.322 0 .597.113.822.338.226.226.339.5.339.823 0 .307-.105.573-.314.799-.21.21-.46.33-.75.362h-4.864c-.484.033-.887.154-1.209.363a2.22 2.22 0 0 0-.726.726c-.178.29-.299.605-.363.944a4.918 4.918 0 0 0-.097.919v4.113c0 .323-.113.597-.339.823a1.12 1.12 0 0 1-.822.339 1.12 1.12 0 0 1-.823-.339 1.12 1.12 0 0 1-.339-.823v-4.113c0-.5.065-1 .194-1.5.129-.516.322-1 .581-1.452h-7.936a1.12 1.12 0 0 1-.823-.338 1.12 1.12 0 0 1-.339-.823c0-.323.113-.597.339-.823.226-.225.5-.338.823-.338h16.646Zm-25.189 8.226c.549 0 1-.097 1.355-.29.355-.21.629-.46.823-.75.209-.291.347-.605.411-.944.081-.355.121-.677.121-.968 0-.29-.04-.605-.121-.943a2.352 2.352 0 0 0-.411-.968 2.272 2.272 0 0 0-.823-.726c-.355-.21-.806-.315-1.355-.315h-9.775c-.564 0-1.024.105-1.379.315a2.566 2.566 0 0 0-.822.726c-.194.29-.331.613-.412.968a5.094 5.094 0 0 0-.096.943c0 .291.032.613.096.968.081.339.218.653.412.944.209.29.484.54.822.75.355.193.815.29 1.379.29h9.775Zm4.96-2.952c0 .613-.105 1.234-.314 1.863a5.64 5.64 0 0 1-.871 1.694 4.9 4.9 0 0 1-1.404 1.234c-.548.322-1.169.484-1.863.484h-11.033a3.598 3.598 0 0 1-1.766-.533 5.185 5.185 0 0 1-1.331-1.258 5.972 5.972 0 0 1-.822-1.669 5.992 5.992 0 0 1-.291-1.815c0-.613.097-1.226.291-1.839a5.68 5.68 0 0 1 .895-1.693 4.753 4.753 0 0 1 1.403-1.258c.549-.323 1.17-.484 1.863-.484h11.033c.662.032 1.25.218 1.767.556.516.323.951.734 1.306 1.234.371.5.653 1.057.847 1.67.193.613.29 1.217.29 1.814Zm-38.708 1.113v1.839h13.428a.865.865 0 0 0 .63-.266.829.829 0 0 0 .29-.629.781.781 0 0 0-.29-.629.86.86 0 0 0-.63-.266h-12.847c-.21 0-.403-.016-.581-.049Zm-2.322-5.226c0-.323.112-.597.338-.823.226-.225.5-.338.823-.338.081 0 .161.008.242.024h15.364c.322 0 .596.113.822.339.226.225.339.5.339.822 0 .323-.113.597-.339.823a1.12 1.12 0 0 1-.822.339h-14.445v.87a.877.877 0 0 0 .75.895h12.582c.451.001.871.09 1.258.267.403.161.75.387 1.04.678.307.29.541.629.702 1.016.177.387.266.806.266 1.258 0 .451-.089.871-.266 1.258a2.933 2.933 0 0 1-.702 1.016c-.29.291-.637.524-1.04.702a3.245 3.245 0 0 1-1.258.242h-14.493a1.12 1.12 0 0 1-.823-.339 1.12 1.12 0 0 1-.338-.823c0-.096.008-.185.024-.266a1.362 1.362 0 0 1-.024-.266v-7.694Zm-14.527 4.742h6.871l-2.492-3.339a3.68 3.68 0 0 0-.435-.411c-.162-.162-.331-.242-.509-.242-.177 0-.354.08-.532.242-.161.145-.29.282-.387.411l-2.516 3.339Zm8.613 2.323H190.07l-1.404 1.887c-.242.29-.54.435-.895.435-.323 0-.597-.113-.823-.338a1.123 1.123 0 0 1-.338-.823c0-.29.08-.524.242-.702l5.879-7.912c.274-.37.637-.669 1.089-.895a3.024 3.024 0 0 1 1.451-.363c.484 0 .944.105 1.38.315.435.21.79.5 1.064.871l5.88 7.863c.096.113.177.242.241.387a.957.957 0 0 1 .097.436c0 .323-.113.597-.338.823a1.125 1.125 0 0 1-.823.338c-.387 0-.694-.153-.92-.459l-1.403-1.863Zm-32.853-5.904v1.791h13.429a.906.906 0 0 0 .629-.242.854.854 0 0 0 .29-.653.828.828 0 0 0-.29-.63.86.86 0 0 0-.629-.266h-13.429Zm13.332-2.322c.451 0 .871.088 1.258.266.403.161.75.387 1.04.677.307.29.541.63.702 1.017.177.387.266.806.266 1.258 0 .451-.089.871-.266 1.258a2.933 2.933 0 0 1-.702 1.016c-.29.29-.637.524-1.04.702a3.245 3.245 0 0 1-1.258.242h-13.332v2.951c0 .323-.121.597-.363.823a1.089 1.089 0 0 1-.798.339 1.12 1.12 0 0 1-.823-.339 1.123 1.123 0 0 1-.338-.823v-8.226c0-.323.113-.597.338-.823.226-.225.5-.338.823-.338h14.493Zm-34.374 5.274c0-.322.113-.597.339-.822.225-.226.5-.339.822-.339h12.025a.86.86 0 0 0 .629-.266.887.887 0 0 0 .266-.653.782.782 0 0 0-.266-.605.86.86 0 0 0-.629-.267h-14.783a1.12 1.12 0 0 1-.823-.338 1.123 1.123 0 0 1-.338-.823c0-.323.113-.597.338-.823.226-.225.5-.338.823-.338h14.662c.452 0 .871.08 1.258.242a3.059 3.059 0 0 1 1.718 1.693c.178.387.266.807.266 1.258 0 .404-.072.783-.217 1.138a2.913 2.913 0 0 1-.557.943c.516.613.774 1.307.774 2.081 0 .452-.088.871-.266 1.258a3.047 3.047 0 0 1-1.718 1.694 3.241 3.241 0 0 1-1.258.242h-14.662a1.12 1.12 0 0 1-.823-.339 1.123 1.123 0 0 1-.338-.823c0-.322.113-.596.338-.822.226-.226.5-.339.823-.339h14.783a.905.905 0 0 0 .629-.242.857.857 0 0 0 .266-.629.885.885 0 0 0-.266-.653.857.857 0 0 0-.629-.266h-12.025c-.322 0-.597-.113-.822-.339a1.12 1.12 0 0 1-.339-.823Zm-17.285.629h6.871l-2.492-3.339a3.68 3.68 0 0 0-.435-.411c-.162-.162-.331-.242-.508-.242-.178 0-.355.08-.533.242-.161.145-.29.282-.387.411l-2.516 3.339Zm8.613 2.323h-10.379l-1.404 1.887c-.242.29-.54.435-.895.435-.323 0-.597-.113-.823-.338a1.123 1.123 0 0 1-.338-.823c0-.29.08-.524.242-.702l5.879-7.912c.274-.37.637-.669 1.089-.895a3.025 3.025 0 0 1 1.452-.363c.483 0 .943.105 1.379.315.435.21.79.5 1.064.871l5.88 7.863c.096.113.177.242.242.387a.97.97 0 0 1 .096.436c0 .323-.113.597-.338.823-.226.225-.5.338-.823.338-.387 0-.694-.153-.919-.459l-1.404-1.863ZM105.03 98.54v1.791h13.428a.906.906 0 0 0 .629-.242.854.854 0 0 0 .29-.653.828.828 0 0 0-.29-.63.86.86 0 0 0-.629-.266H105.03Zm13.331-2.322c.452 0 .871.088 1.258.266.403.161.75.387 1.04.677.307.29.541.63.702 1.017.178.387.266.806.266 1.258 0 .451-.088.871-.266 1.258a2.933 2.933 0 0 1-.702 1.016c-.29.29-.637.524-1.04.702a3.241 3.241 0 0 1-1.258.242H105.03v2.951c0 .323-.121.597-.363.823a1.092 1.092 0 0 1-.799.339c-.322 0-.597-.113-.822-.339a1.12 1.12 0 0 1-.339-.823v-8.226c0-.323.113-.597.339-.823.225-.225.5-.338.822-.338h14.493Zm257.435 191.179c0 .323-.113.597-.338.823a1.12 1.12 0 0 1-.823.339 1.12 1.12 0 0 1-.823-.339 1.12 1.12 0 0 1-.338-.823v-5.274c0-.661-.041-.992-.121-.992-.065 0-.291.218-.678.653l-5.323 6.049a2.068 2.068 0 0 1-.774.556c-.306.113-.637.17-.992.17s-.686-.057-.992-.17a2.068 2.068 0 0 1-.774-.556l-5.323-6.049c-.371-.435-.597-.653-.678-.653-.08 0-.121.331-.121.992v5.274c0 .323-.112.597-.338.823a1.12 1.12 0 0 1-.823.339 1.12 1.12 0 0 1-.823-.339 1.123 1.123 0 0 1-.338-.823v-7.065c0-.645.185-1.193.556-1.645.371-.451.879-.677 1.524-.677.388 0 .734.097 1.041.29.306.194.589.428.847.702l5.565 6.339c.08.08.177.169.29.266a.722.722 0 0 0 .387.121c.129 0 .25-.04.363-.121.129-.097.234-.186.314-.266l5.541-6.339h.024c.226-.307.5-.549.823-.726a2.166 2.166 0 0 1 1.065-.266c.645 0 1.153.226 1.524.677.371.452.556 1 .556 1.645v7.065Zm-39.434-7.065v1.791h13.429a.906.906 0 0 0 .629-.242.852.852 0 0 0 .29-.653.827.827 0 0 0-.29-.629.86.86 0 0 0-.629-.267h-13.429Zm13.332-2.322c.452 0 .871.088 1.258.266.403.161.75.387 1.04.677.307.291.541.629.702 1.017.178.387.266.806.266 1.258 0 .451-.088.871-.266 1.258a2.933 2.933 0 0 1-.702 1.016c-.29.29-.637.524-1.04.702a3.241 3.241 0 0 1-1.258.242h-13.332v2.951c0 .323-.12.597-.362.823a1.092 1.092 0 0 1-.799.339c-.322 0-.597-.113-.822-.339a1.12 1.12 0 0 1-.339-.823v-8.226c0-.322.113-.597.339-.823.225-.225.5-.338.822-.338h14.493Zm-23.035 8.226c.548 0 1-.097 1.355-.29.355-.21.629-.46.822-.75.21-.291.347-.605.412-.944a4.44 4.44 0 0 0 .121-.968c0-.29-.041-.605-.121-.943a2.352 2.352 0 0 0-.412-.968 2.268 2.268 0 0 0-.822-.726c-.355-.21-.807-.315-1.355-.315h-9.775c-.565 0-1.024.105-1.379.315a2.58 2.58 0 0 0-.823.726c-.193.29-.33.613-.411.968a5.016 5.016 0 0 0-.097.943c0 .291.032.613.097.968.081.339.218.653.411.944.21.29.484.54.823.75.355.193.814.29 1.379.29h9.775Zm4.96-2.952c0 .613-.105 1.234-.315 1.863a5.617 5.617 0 0 1-.871 1.694 4.91 4.91 0 0 1-1.403 1.234c-.549.322-1.17.484-1.863.484h-11.033a3.598 3.598 0 0 1-1.766-.533 5.185 5.185 0 0 1-1.331-1.258 5.974 5.974 0 0 1-.823-1.669 6.021 6.021 0 0 1-.29-1.815c0-.613.097-1.226.29-1.839.21-.629.509-1.193.896-1.693a4.746 4.746 0 0 1 1.403-1.258c.548-.323 1.169-.484 1.863-.484h11.033c.661.032 1.25.218 1.766.556.516.323.952.734 1.307 1.234.371.5.653 1.057.846 1.67.194.613.291 1.217.291 1.814Zm-30.778-5.274h4.452c.661.032 1.25.218 1.766.556.517.323.952.734 1.307 1.234.371.5.653 1.057.847 1.67.193.613.29 1.218.29 1.815 0 .612-.105 1.233-.314 1.863a5.626 5.626 0 0 1-.872 1.693 4.88 4.88 0 0 1-1.403 1.234c-.548.323-1.169.484-1.863.484h-4.21v.895c0 .323-.113.597-.338.823a1.122 1.122 0 0 1-.823.339 1.12 1.12 0 0 1-.823-.339 1.12 1.12 0 0 1-.338-.823v-.895h-4.501a3.607 3.607 0 0 1-1.766-.532 5.202 5.202 0 0 1-1.331-1.258 5.95 5.95 0 0 1-.822-1.67 5.99 5.99 0 0 1-.291-1.814c0-.613.097-1.226.291-1.839a5.662 5.662 0 0 1 .895-1.694 4.76 4.76 0 0 1 1.403-1.258c.549-.323 1.17-.484 1.863-.484h4.259v-.968c0-.322.112-.597.338-.822.226-.226.5-.339.823-.339.322 0 .597.113.823.339.225.225.338.5.338.822v.968Zm-2.322 8.226v-5.903h-3.751c-.564 0-1.024.105-1.379.314a2.566 2.566 0 0 0-.822.726c-.194.29-.331.613-.412.968a5.11 5.11 0 0 0-.097.944c0 .29.033.612.097.967.081.339.218.654.412.944.209.29.483.54.822.75.355.194.815.29 1.379.29h3.751Zm2.322-5.903v5.903h3.702c.549 0 1-.096 1.355-.29.355-.21.629-.46.823-.75a2.36 2.36 0 0 0 .411-.944c.081-.355.121-.677.121-.967 0-.291-.04-.605-.121-.944a2.364 2.364 0 0 0-.411-.968 2.28 2.28 0 0 0-.823-.726c-.355-.209-.806-.314-1.355-.314h-3.702Zm-18.414 5.903c.549 0 1-.097 1.355-.29.355-.21.629-.46.823-.75.21-.291.347-.605.411-.944.081-.355.121-.677.121-.968 0-.29-.04-.605-.121-.943a2.337 2.337 0 0 0-.411-.968 2.28 2.28 0 0 0-.823-.726c-.355-.21-.806-.315-1.355-.315h-9.774c-.565 0-1.025.105-1.38.315a2.587 2.587 0 0 0-.822.726c-.194.29-.331.613-.411.968a5.016 5.016 0 0 0-.097.943c0 .291.032.613.097.968.08.339.217.653.411.944.21.29.484.54.822.75.355.193.815.29 1.38.29h9.774Zm4.96-2.952c0 .613-.104 1.234-.314 1.863a5.64 5.64 0 0 1-.871 1.694 4.9 4.9 0 0 1-1.404 1.234c-.548.322-1.169.484-1.863.484h-11.032a3.598 3.598 0 0 1-1.767-.533 5.181 5.181 0 0 1-1.33-1.258 5.974 5.974 0 0 1-.823-1.669 5.99 5.99 0 0 1-.29-1.815c0-.613.096-1.226.29-1.839a5.68 5.68 0 0 1 .895-1.693 4.746 4.746 0 0 1 1.403-1.258c.549-.323 1.17-.484 1.864-.484h11.032a3.469 3.469 0 0 1 1.767.556c.516.323.951.734 1.306 1.234.371.5.653 1.057.847 1.67.194.613.29 1.217.29 1.814Zm-38.708 2.952h13.429a.862.862 0 0 0 .629-.266.829.829 0 0 0 .29-.629.781.781 0 0 0-.29-.629.858.858 0 0 0-.629-.266h-13.429v1.79Zm0-5.904v1.791h13.453a.906.906 0 0 0 .629-.242.812.812 0 0 0 .266-.629.827.827 0 0 0-.29-.629.827.827 0 0 0-.629-.291h-13.429Zm-1.161 8.227a1.12 1.12 0 0 1-.823-.339 1.123 1.123 0 0 1-.338-.823v-8.226c0-.322.113-.597.338-.823.226-.225.5-.338.823-.338h14.493c.451 0 .871.088 1.258.266.403.161.75.387 1.04.677.307.291.541.638.702 1.041.177.387.266.806.266 1.258 0 .403-.072.782-.218 1.137a3.248 3.248 0 0 1-.532.919c.226.275.403.589.532.944.146.339.218.702.218 1.089 0 .451-.089.871-.266 1.258a2.933 2.933 0 0 1-.702 1.016c-.29.291-.637.524-1.04.702a3.245 3.245 0 0 1-1.258.242h-14.493Zm-8.542-2.323c.548 0 1-.097 1.355-.29.354-.21.629-.46.822-.75.21-.291.347-.605.412-.944a4.44 4.44 0 0 0 .121-.968c0-.29-.041-.605-.121-.943a2.352 2.352 0 0 0-.412-.968 2.276 2.276 0 0 0-.822-.726c-.355-.21-.807-.315-1.355-.315h-9.775c-.565 0-1.024.105-1.379.315a2.58 2.58 0 0 0-.823.726c-.193.29-.33.613-.411.968a5.016 5.016 0 0 0-.097.943c0 .291.032.613.097.968.081.339.218.653.411.944.21.29.484.54.823.75.355.193.814.29 1.379.29h9.775Zm4.96-2.952c0 .613-.105 1.234-.315 1.863a5.617 5.617 0 0 1-.871 1.694 4.91 4.91 0 0 1-1.403 1.234c-.549.322-1.17.484-1.863.484h-11.033a3.598 3.598 0 0 1-1.766-.533 5.169 5.169 0 0 1-1.331-1.258 5.974 5.974 0 0 1-.823-1.669 6.021 6.021 0 0 1-.29-1.815c0-.613.097-1.226.29-1.839.21-.629.508-1.193.896-1.693a4.733 4.733 0 0 1 1.403-1.258c.548-.323 1.169-.484 1.863-.484h11.033c.661.032 1.25.218 1.766.556.516.323.952.734 1.307 1.234.371.5.653 1.057.846 1.67.194.613.291 1.217.291 1.814Zm-37.391 4.839c-.242.29-.541.435-.896.435-.322 0-.596-.113-.822-.338a1.12 1.12 0 0 1-.339-.823c0-.29.081-.524.242-.702l5.879-7.911c.275-.371.638-.67 1.089-.896a3.137 3.137 0 0 1 2.831-.048c.435.21.79.5 1.065.871l5.879 7.863c.097.113.177.242.242.387a.97.97 0 0 1 .097.436c0 .323-.113.597-.339.823-.226.225-.5.338-.823.338-.387 0-.693-.153-.919-.459l-5.638-7.525a3.604 3.604 0 0 0-.435-.411c-.161-.162-.331-.242-.508-.242-.178 0-.355.08-.532.242a2.926 2.926 0 0 0-.388.411l-5.685 7.549Zm-24.196-4.839c0-.613.096-1.226.29-1.839a5.68 5.68 0 0 1 .895-1.693 4.737 4.737 0 0 1 1.404-1.258c.548-.323 1.169-.484 1.863-.484h14.105c.323 0 .597.113.823.338.226.226.339.501.339.823 0 .323-.113.597-.339.823a1.12 1.12 0 0 1-.823.338h-13.597c-.565 0-1.025.105-1.38.315a2.587 2.587 0 0 0-.822.726c-.194.29-.331.613-.411.968a5.016 5.016 0 0 0-.097.943c0 .291.032.613.097.968.08.339.217.653.411.944.21.29.484.54.822.75.355.193.815.29 1.38.29h13.597c.323 0 .597.113.823.339.226.226.339.5.339.822 0 .323-.113.597-.339.823a1.12 1.12 0 0 1-.823.339h-14.347c-.662 0-1.251-.162-1.767-.484a4.847 4.847 0 0 1-1.33-1.234 6.27 6.27 0 0 1-.823-1.718 6.221 6.221 0 0 1-.29-1.839Zm188.691-88.415c.548 0 1-.097 1.355-.29.355-.21.629-.46.822-.751.21-.29.347-.604.412-.943.08-.355.121-.678.121-.968 0-.29-.041-.605-.121-.944a2.353 2.353 0 0 0-.412-.967 2.25 2.25 0 0 0-.822-.726c-.355-.21-.807-.315-1.355-.315h-9.775c-.564 0-1.024.105-1.379.315a2.556 2.556 0 0 0-.823.726c-.193.29-.33.613-.411.967a5.119 5.119 0 0 0-.097.944c0 .29.033.613.097.968.081.339.218.653.411.943.21.291.484.541.823.751.355.193.815.29 1.379.29h9.775Zm4.96-2.952c0 .613-.105 1.234-.315 1.863a5.617 5.617 0 0 1-.871 1.694 4.91 4.91 0 0 1-1.403 1.234c-.548.322-1.169.484-1.863.484h-11.033a3.608 3.608 0 0 1-1.766-.533 5.185 5.185 0 0 1-1.331-1.258 5.945 5.945 0 0 1-.822-1.669 5.992 5.992 0 0 1-.291-1.815c0-.613.097-1.226.291-1.839a5.656 5.656 0 0 1 .895-1.693 4.75 4.75 0 0 1 1.403-1.259c.548-.322 1.169-.483 1.863-.483h11.033c.661.032 1.25.217 1.766.556.516.323.952.734 1.307 1.234.371.5.653 1.057.847 1.669.193.613.29 1.218.29 1.815Zm-23.272-5.274c.323 0 .597.112.823.338.226.226.339.5.339.823 0 .323-.113.597-.339.823-.226.225-.5.338-.823.338h-14.517a.944.944 0 0 0-.653.266.865.865 0 0 0-.266.63v6.169c0 .323-.121.597-.363.823a1.092 1.092 0 0 1-.798.339 1.12 1.12 0 0 1-.823-.339 1.12 1.12 0 0 1-.339-.823v-6.169c0-.452.089-.872.266-1.259.178-.387.412-.725.702-1.016.306-.29.661-.516 1.065-.677.403-.178.83-.266 1.282-.266h14.444Zm-25.14 8.226c.549 0 1-.097 1.355-.29.355-.21.629-.46.823-.751.209-.29.347-.604.411-.943.081-.355.121-.678.121-.968 0-.29-.04-.605-.121-.944a2.352 2.352 0 0 0-.411-.967 2.261 2.261 0 0 0-.823-.726c-.355-.21-.806-.315-1.355-.315h-9.775c-.564 0-1.024.105-1.379.315a2.553 2.553 0 0 0-.822.726c-.194.29-.331.613-.412.967a5.113 5.113 0 0 0-.096.944c0 .29.032.613.096.968.081.339.218.653.412.943.209.291.484.541.822.751.355.193.815.29 1.379.29h9.775Zm4.96-2.952c0 .613-.105 1.234-.314 1.863a5.64 5.64 0 0 1-.871 1.694 4.9 4.9 0 0 1-1.404 1.234c-.548.322-1.169.484-1.863.484h-11.033a3.608 3.608 0 0 1-1.766-.533 5.185 5.185 0 0 1-1.331-1.258 5.972 5.972 0 0 1-.822-1.669 5.99 5.99 0 0 1-.29-1.815c0-.613.096-1.226.29-1.839a5.68 5.68 0 0 1 .895-1.693 4.75 4.75 0 0 1 1.403-1.259c.549-.322 1.17-.483 1.863-.483h11.033c.662.032 1.25.217 1.767.556.516.323.951.734 1.306 1.234.371.5.653 1.057.847 1.669.193.613.29 1.218.29 1.815Zm-38.732-1.161h5.589a9.75 9.75 0 0 0 2.468-.315 15.165 15.165 0 0 0 2.347-.871 17.056 17.056 0 0 0 2.202-1.21 40.203 40.203 0 0 0 2.032-1.379c.274-.226.548-.338.823-.338.322 0 .597.112.822.338.226.226.339.5.339.823a.998.998 0 0 1-.194.605 2.38 2.38 0 0 1-.459.435c-.42.323-.823.629-1.21.92a21.82 21.82 0 0 1-2.371 1.476 24.88 24.88 0 0 1-1.307.677c.468.226.904.452 1.307.678a21.2 21.2 0 0 1 1.21.701c.387.242.774.508 1.161.799.387.274.79.572 1.21.895.177.129.33.282.459.46.13.161.194.354.194.58 0 .323-.113.597-.339.823-.225.226-.5.339-.822.339-.275 0-.549-.113-.823-.339a38.032 38.032 0 0 0-2.056-1.403 17.88 17.88 0 0 0-2.178-1.21 13.59 13.59 0 0 0-2.347-.847 9.75 9.75 0 0 0-2.468-.315h-5.589v2.952c0 .323-.113.597-.339.823a1.09 1.09 0 0 1-.798.339 1.12 1.12 0 0 1-.823-.339 1.12 1.12 0 0 1-.338-.823v-8.226c0-.323.112-.597.338-.823.226-.226.492-.338.799-.338.322 0 .597.112.822.338.226.226.339.5.339.823v2.952Zm-24.438 1.161c0-.613.097-1.226.291-1.839a5.656 5.656 0 0 1 .895-1.693 4.75 4.75 0 0 1 1.403-1.259c.548-.322 1.169-.483 1.863-.483h14.106c.322 0 .597.112.822.338.226.226.339.5.339.823 0 .323-.113.597-.339.823a1.12 1.12 0 0 1-.822.338h-13.598c-.564 0-1.024.105-1.379.315a2.556 2.556 0 0 0-.823.726c-.193.29-.33.613-.411.967a5.119 5.119 0 0 0-.097.944c0 .29.033.613.097.968.081.339.218.653.411.943.21.291.484.541.823.751.355.193.815.29 1.379.29h13.598c.322 0 .597.113.822.339.226.225.339.5.339.822 0 .323-.113.597-.339.823-.225.226-.5.339-.822.339h-14.348c-.661 0-1.25-.162-1.766-.484a4.85 4.85 0 0 1-1.331-1.234 6.239 6.239 0 0 1-.822-1.718 6.223 6.223 0 0 1-.291-1.839Zm-21.903-4.113c0-.323.113-.597.339-.823.226-.226.5-.338.822-.338h17.155c.322 0 .597.112.822.338.226.226.339.5.339.823 0 .323-.113.597-.339.823a1.12 1.12 0 0 1-.822.338h-17.155c-.322 0-.596-.113-.822-.338a1.12 1.12 0 0 1-.339-.823Zm2.952 9.388c-.355 0-.71-.073-1.065-.218a3.18 3.18 0 0 1-.943-.653 3.384 3.384 0 0 1-.678-.992 3.112 3.112 0 0 1-.266-1.307v-2.178c0-.435.121-.725.363-.871.258-.145.653-.217 1.186-.217h16.234c.323 0 .597.113.823.338.226.226.339.5.339.823 0 .323-.113.597-.339.823a1.12 1.12 0 0 1-.823.338h-15.46v1.186c0 .161.064.306.193.436a.888.888 0 0 0 .557.169h15.243c.322 0 .597.113.822.339.226.225.339.5.339.822 0 .323-.113.597-.339.823-.225.226-.5.339-.822.339h-15.364Zm-22.012-6.364c0 .258.088.476.266.654a.994.994 0 0 0 .653.242h13.404v-3.92c0-.323.113-.597.339-.823.226-.226.5-.338.822-.338.323 0 .597.112.823.338.226.226.339.5.339.823v8.226c0 .323-.113.597-.339.823a1.12 1.12 0 0 1-.823.339c-.306 0-.58-.113-.822-.339a1.12 1.12 0 0 1-.339-.823v-1.984h-13.307c-.452 0-.879-.08-1.283-.242a3.69 3.69 0 0 1-1.064-.701 3.24 3.24 0 0 1-.726-1.017 2.987 2.987 0 0 1-.266-1.258v-3.024c0-.323.113-.597.339-.823.225-.226.5-.338.822-.338.323 0 .597.112.823.338.226.226.339.5.339.823v3.024Zm-21.218 1.742c0 .581.032 1.025.097 1.331.064.307.217.46.459.46.129 0 .291-.049.484-.145.21-.113.468-.258.774-.436l11.082-6.774c.177-.113.371-.202.58-.267.226-.064.452-.096.678-.096.661 0 1.21.225 1.645.677.452.452.678 1.008.678 1.669v7.041c0 .323-.113.597-.339.823a1.12 1.12 0 0 1-.823.339c-.322 0-.597-.113-.822-.339a1.12 1.12 0 0 1-.339-.823v-4.766c0-.581-.032-1.024-.097-1.331-.064-.306-.218-.46-.46-.46-.129 0-.298.057-.508.17a15.63 15.63 0 0 0-.75.411l-11.081 6.775a2.312 2.312 0 0 1-.605.266c-.21.064-.427.097-.653.097-.662 0-1.218-.226-1.67-.678-.435-.452-.653-1.008-.653-1.669v-7.041c0-.323.113-.597.339-.823.226-.226.5-.338.822-.338.323 0 .597.112.823.338.226.226.339.5.339.823v4.766Zm-5.899-5.927c.323 0 .597.112.823.338.226.226.339.5.339.823 0 .306-.105.573-.315.798-.21.21-.46.331-.75.363h-4.863c-.484.033-.887.154-1.21.363a2.248 2.248 0 0 0-.726.726c-.177.29-.298.605-.363.944a4.987 4.987 0 0 0-.096.919v4.113c0 .323-.113.597-.339.823a1.12 1.12 0 0 1-.823.339c-.322 0-.597-.113-.822-.339a1.12 1.12 0 0 1-.339-.823v-4.113c0-.5.064-1 .193-1.5.129-.516.323-1 .581-1.452h-7.936c-.323 0-.597-.113-.823-.338a1.123 1.123 0 0 1-.338-.823c0-.323.113-.597.338-.823.226-.226.5-.338.823-.338h16.646Zm-20.222 9.387c0 .323-.113.597-.339.823a1.12 1.12 0 0 1-.823.339 1.12 1.12 0 0 1-.822-.339 1.12 1.12 0 0 1-.339-.823v-2.952h-14.299v2.952c0 .323-.113.597-.339.823a1.12 1.12 0 0 1-.823.339 1.12 1.12 0 0 1-.822-.339 1.12 1.12 0 0 1-.339-.823v-8.226c0-.323.113-.597.339-.823.226-.226.5-.338.822-.338.323 0 .597.112.823.338.226.226.339.5.339.823v2.952h14.299v-2.952c0-.323.113-.597.339-.823.226-.226.5-.338.822-.338.323 0 .597.112.823.338.226.226.339.5.339.823v8.226Zm-33.472-3.484h6.872l-2.492-3.339a3.701 3.701 0 0 0-.436-.412c-.161-.161-.331-.241-.508-.241s-.355.08-.532.241a2.91 2.91 0 0 0-.387.412l-2.517 3.339Zm8.614 2.322h-10.38l-1.403 1.888c-.242.29-.541.435-.895.435a1.12 1.12 0 0 1-.823-.339 1.118 1.118 0 0 1-.339-.822c0-.291.081-.524.242-.702l5.88-7.912a2.988 2.988 0 0 1 1.088-.895 3.03 3.03 0 0 1 1.452-.363c.484 0 .944.105 1.379.315.436.209.79.5 1.065.871l5.879 7.863c.097.113.177.242.242.387a.954.954 0 0 1 .097.436c0 .322-.113.597-.339.822a1.12 1.12 0 0 1-.823.339 1.08 1.08 0 0 1-.919-.46l-1.403-1.863Zm-16.267 1.162c0 .323-.113.597-.339.823a1.12 1.12 0 0 1-.823.339c-.322 0-.597-.113-.822-.339a1.12 1.12 0 0 1-.339-.823v-5.274c0-.662-.04-.992-.121-.992-.065 0-.29.217-.678.653l-5.322 6.049c-.21.242-.468.427-.775.556-.306.113-.637.17-.992.17s-.685-.057-.992-.17a2.076 2.076 0 0 1-.774-.556l-5.323-6.049c-.371-.436-.597-.653-.677-.653-.081 0-.121.33-.121.992v5.274c0 .323-.113.597-.339.823a1.12 1.12 0 0 1-.823.339 1.12 1.12 0 0 1-.822-.339 1.12 1.12 0 0 1-.339-.823v-7.065c0-.645.186-1.193.557-1.645.371-.452.879-.677 1.524-.677.387 0 .734.096 1.04.29.307.193.589.427.847.702l5.565 6.339c.081.08.177.169.29.266a.73.73 0 0 0 .387.121c.129 0 .25-.041.363-.121.129-.097.234-.186.315-.266l5.54-6.339h.025c.225-.307.5-.549.822-.726a2.17 2.17 0 0 1 1.065-.266c.645 0 1.153.225 1.524.677.371.452.557 1 .557 1.645v7.065Zm-42.324-8.226c0-.323.113-.597.339-.823.226-.226.5-.338.822-.338h17.155c.322 0 .596.112.822.338.226.226.339.5.339.823 0 .323-.113.597-.339.823-.226.225-.5.338-.822.338H98.788c-.322 0-.596-.113-.822-.338a1.12 1.12 0 0 1-.339-.823Zm2.952 9.388c-.355 0-.71-.073-1.065-.218a3.187 3.187 0 0 1-.943-.653 3.384 3.384 0 0 1-.678-.992 3.106 3.106 0 0 1-.266-1.307v-2.178c0-.435.12-.725.363-.871.258-.145.653-.217 1.185-.217h16.235c.323 0 .597.113.823.338.226.226.339.5.339.823 0 .323-.113.597-.339.823a1.12 1.12 0 0 1-.823.338H99.95v1.186c0 .161.064.306.193.436a.886.886 0 0 0 .557.169h15.243c.322 0 .596.113.822.339.226.225.339.5.339.822 0 .323-.113.597-.339.823a1.12 1.12 0 0 1-.822.339h-15.364Zm-25.092-5.275c0-.613.097-1.226.29-1.839a5.67 5.67 0 0 1 .896-1.693 4.746 4.746 0 0 1 1.403-1.259c.549-.322 1.17-.483 1.863-.483h14.106c.323 0 .597.112.823.338.226.226.339.5.339.823 0 .323-.113.597-.34.823a1.12 1.12 0 0 1-.822.338H80.448c-.565 0-1.025.105-1.38.315a2.555 2.555 0 0 0-.822.726c-.194.29-.33.613-.411.967a5.066 5.066 0 0 0-.097.944c0 .29.032.613.097.968.08.339.217.653.41.943.21.291.485.541.823.751.355.193.815.29 1.38.29h13.597c.323 0 .597.113.823.339.226.225.339.5.339.822 0 .323-.113.597-.34.823a1.12 1.12 0 0 1-.822.339H79.698c-.662 0-1.25-.162-1.767-.484a4.848 4.848 0 0 1-1.33-1.234 6.26 6.26 0 0 1-.823-1.718 6.235 6.235 0 0 1-.29-1.839Zm198.032 48.471c0 .322-.113.596-.339.822-.225.226-.5.339-.822.339a1.12 1.12 0 0 1-.823-.339 1.12 1.12 0 0 1-.339-.822v-5.275c0-.661-.04-.992-.12-.992-.065 0-.291.218-.678.653l-5.323 6.049c-.21.242-.468.428-.774.557a2.847 2.847 0 0 1-.992.169c-.355 0-.686-.056-.992-.169a2.063 2.063 0 0 1-.774-.557l-5.323-6.049c-.371-.435-.597-.653-.678-.653-.08 0-.121.331-.121.992v5.275c0 .322-.113.596-.338.822a1.12 1.12 0 0 1-.823.339 1.12 1.12 0 0 1-.823-.339 1.122 1.122 0 0 1-.338-.822v-7.065c0-.645.185-1.194.556-1.646.371-.451.879-.677 1.524-.677.388 0 .734.097 1.041.29.306.194.589.428.847.702l5.564 6.339c.081.081.178.169.291.266a.722.722 0 0 0 .387.121c.129 0 .25-.04.363-.121.129-.097.234-.185.314-.266l5.541-6.339h.024c.226-.306.5-.548.823-.726a2.173 2.173 0 0 1 1.064-.266c.646 0 1.154.226 1.525.677.371.452.556 1.001.556 1.646v7.065Zm-27.802-1.162c.549 0 1-.096 1.355-.29.355-.21.629-.46.823-.75.21-.29.347-.605.411-.944.081-.355.121-.677.121-.967 0-.291-.04-.605-.121-.944a2.337 2.337 0 0 0-.411-.968 2.28 2.28 0 0 0-.823-.726c-.355-.209-.806-.314-1.355-.314h-9.774c-.565 0-1.025.105-1.379.314a2.58 2.58 0 0 0-.823.726c-.194.29-.331.613-.411.968a5.026 5.026 0 0 0-.097.944c0 .29.032.612.097.967.08.339.217.654.411.944.21.29.484.54.823.75.354.194.814.29 1.379.29h9.774Zm4.96-2.951c0 .612-.104 1.233-.314 1.863a5.646 5.646 0 0 1-.871 1.693c-.387.5-.855.912-1.403 1.234-.549.323-1.17.484-1.863.484h-11.033a3.611 3.611 0 0 1-1.767-.532 5.198 5.198 0 0 1-1.33-1.258 5.98 5.98 0 0 1-.823-1.67 5.989 5.989 0 0 1-.29-1.814c0-.613.096-1.226.29-1.839.21-.629.508-1.194.895-1.694a4.737 4.737 0 0 1 1.404-1.258c.548-.323 1.169-.484 1.863-.484h11.032a3.469 3.469 0 0 1 1.767.556c.516.323.951.734 1.306 1.234.371.5.653 1.057.847 1.67a5.99 5.99 0 0 1 .29 1.815ZM227.407 231c.323 0 .597.113.823.339.226.226.338.5.338.822 0 .307-.104.573-.314.799-.21.209-.46.33-.75.363h-4.863c-.484.032-.887.153-1.21.363a2.225 2.225 0 0 0-.726.725 2.823 2.823 0 0 0-.363.944 5.005 5.005 0 0 0-.097.92v4.113c0 .322-.113.596-.338.822a1.12 1.12 0 0 1-.823.339 1.12 1.12 0 0 1-.823-.339 1.122 1.122 0 0 1-.338-.822v-4.113c0-.501.064-1.001.193-1.501.129-.516.323-1 .581-1.451h-7.936a1.12 1.12 0 0 1-.823-.339 1.123 1.123 0 0 1-.338-.823c0-.322.113-.596.338-.822.226-.226.5-.339.823-.339h16.646Zm-39.711 1.161c0-.322.113-.596.339-.822.226-.226.5-.339.823-.339h17.154c.322 0 .597.113.823.339.225.226.338.5.338.822 0 .323-.113.597-.338.823a1.122 1.122 0 0 1-.823.339h-17.154a1.12 1.12 0 0 1-.823-.339 1.12 1.12 0 0 1-.339-.823Zm2.952 9.388a2.79 2.79 0 0 1-1.064-.218 3.185 3.185 0 0 1-.944-.653 3.39 3.39 0 0 1-.678-.992 3.109 3.109 0 0 1-.266-1.307v-2.177c0-.436.121-.726.363-.871.258-.145.653-.218 1.186-.218h16.235c.322 0 .596.113.822.339.226.226.339.5.339.823 0 .322-.113.596-.339.822a1.12 1.12 0 0 1-.822.339h-15.461v1.185c0 .162.065.307.194.436.145.113.33.169.556.169h15.243c.322 0 .597.113.823.339.225.226.338.5.338.823 0 .322-.113.596-.338.822a1.122 1.122 0 0 1-.823.339h-15.364Zm-22.012-6.363c0 .258.088.476.266.653a.994.994 0 0 0 .653.242h13.404v-3.92c0-.322.113-.596.339-.822.226-.226.5-.339.822-.339.323 0 .597.113.823.339.226.226.339.5.339.822v8.227c0 .322-.113.596-.339.822a1.12 1.12 0 0 1-.823.339c-.306 0-.58-.113-.822-.339a1.12 1.12 0 0 1-.339-.822v-1.984h-13.307c-.452 0-.879-.081-1.282-.242a3.705 3.705 0 0 1-1.065-.702 3.268 3.268 0 0 1-.726-1.016 2.99 2.99 0 0 1-.266-1.258v-3.025c0-.322.113-.596.339-.822.226-.226.5-.339.822-.339.323 0 .597.113.823.339.226.226.339.5.339.822v3.025Zm-7.06 1.258h-13.307c-.452 0-.879-.08-1.282-.242a3.696 3.696 0 0 1-1.065-.701 3.272 3.272 0 0 1-.726-1.017 2.987 2.987 0 0 1-.266-1.258v-1.137c0-.323.113-.597.339-.823.226-.225.5-.338.822-.338.323 0 .597.113.823.338.226.226.339.5.339.823v1.137c0 .258.088.476.266.654a.993.993 0 0 0 .653.241h13.404v-2.032c0-.323.113-.597.339-.823.226-.225.5-.338.823-.338.322 0 .596.113.822.338.226.226.339.5.339.823v4.452c0 .081-.008.161-.024.242a6.768 6.768 0 0 1-.291 1.355 5.725 5.725 0 0 1-.895 1.669 4.916 4.916 0 0 1-1.452 1.258 3.729 3.729 0 0 1-1.887.484h-10.936a3.794 3.794 0 0 1-1.573-.338 4.27 4.27 0 0 1-1.282-.92 4.108 4.108 0 0 1-.871-1.282c-.161-.758-.121-1.25.121-1.476.226-.226.492-.339.798-.339.323 0 .597.113.823.339.226.226.379.508.46.847.08.322.5.556 1.258.701.306.097.629.146.968.146h9.75c.533 0 .968-.089 1.307-.267.355-.177.637-.403.847-.677.193-.274.33-.573.411-.895.097-.323.145-.629.145-.92v-.024Zm-49.678-.169c0-.613.097-1.226.29-1.839.21-.629.508-1.194.896-1.694a4.733 4.733 0 0 1 1.403-1.258c.548-.323 1.169-.484 1.863-.484h14.106c.322 0 .596.113.822.339.226.226.339.5.339.822 0 .323-.113.597-.339.823a1.12 1.12 0 0 1-.822.339h-13.598c-.565 0-1.024.105-1.379.314a2.58 2.58 0 0 0-.823.726c-.193.29-.33.613-.411.968a5.026 5.026 0 0 0-.097.944c0 .29.032.612.097.967.081.339.218.654.411.944.21.29.484.54.823.75.355.194.814.29 1.379.29h13.598c.322 0 .596.113.822.339.226.226.339.5.339.823 0 .322-.113.596-.339.822a1.12 1.12 0 0 1-.822.339h-14.348c-.661 0-1.25-.161-1.766-.484a4.822 4.822 0 0 1-1.331-1.234 6.27 6.27 0 0 1-.823-1.718 6.253 6.253 0 0 1-.29-1.838Zm-25.419.628h6.871l-2.492-3.339a3.65 3.65 0 0 0-.435-.411c-.162-.161-.331-.242-.508-.242-.178 0-.355.081-.533.242-.161.145-.29.282-.387.411l-2.516 3.339Zm8.613 2.323h-10.38l-1.403 1.887c-.242.29-.54.436-.895.436a1.12 1.12 0 0 1-.823-.339 1.12 1.12 0 0 1-.338-.823c0-.29.08-.524.242-.701l5.879-7.912c.274-.371.637-.67 1.089-.895a3.027 3.027 0 0 1 1.452-.363c.483 0 .943.104 1.379.314.435.21.79.5 1.064.871l5.88 7.864c.096.112.177.241.242.387a.96.96 0 0 1 .096.435c0 .323-.113.597-.338.823a1.12 1.12 0 0 1-.823.339c-.387 0-.694-.154-.92-.46l-1.403-1.863Zm-32.852-5.903v1.79h13.427a.906.906 0 0 0 .63-.242.85.85 0 0 0 .29-.653.826.826 0 0 0-.29-.629.858.858 0 0 0-.63-.266H62.24ZM75.57 231c.452 0 .872.089 1.259.266.403.161.75.387 1.04.678.307.29.54.629.702 1.016.177.387.266.806.266 1.258 0 .452-.089.871-.266 1.258a2.943 2.943 0 0 1-.702 1.016c-.29.291-.637.524-1.04.702a3.244 3.244 0 0 1-1.258.242H62.239v2.952c0 .322-.12.596-.363.822a1.092 1.092 0 0 1-.798.339 1.12 1.12 0 0 1-.823-.339 1.12 1.12 0 0 1-.339-.822v-8.227c0-.322.113-.596.34-.822.225-.226.5-.339.822-.339H75.57Zm-29.943 9.605c0-.419.145-.774.435-1.064.29-.291.646-.436 1.065-.436.42 0 .774.145 1.065.436.29.29.435.645.435 1.064 0 .42-.145.775-.435 1.065a1.45 1.45 0 0 1-1.065.435 1.45 1.45 0 0 1-1.065-.435 1.448 1.448 0 0 1-.435-1.065Zm-3.75-.822h.604c.323 0 .597.113.823.339.226.225.339.5.339.822 0 .323-.113.597-.339.823a1.12 1.12 0 0 1-.823.338h-5.153a1.225 1.225 0 0 1-.75-.362 1.136 1.136 0 0 1-.315-.799c0-.322.113-.597.34-.822.225-.226.5-.339.822-.339h1.573l5.685-7.597c.29-.371.645-.662 1.065-.871.435-.21.895-.315 1.379-.315.516 0 .992.121 1.427.363.452.226.823.524 1.113.895l5.59 7.525h1.451c.323 0 .597.113.823.339.226.225.339.5.339.822 0 .323-.113.597-.34.823-.225.226-.5.338-.822.338h-5.153a1.225 1.225 0 0 1-.75-.362 1.135 1.135 0 0 1-.315-.799c0-.322.113-.597.339-.822.226-.226.5-.339.822-.339h.726l-4.33-5.734a2.46 2.46 0 0 0-.412-.412c-.161-.161-.33-.242-.508-.242s-.355.081-.532.242a4.91 4.91 0 0 0-.412.412l-4.306 5.734ZM15 240.388c0-.226.08-.444.242-.654a9.732 9.732 0 0 1 1.96-2.153 9.248 9.248 0 0 1 2.492-1.427c.935-.371 1.976-.638 3.121-.799 1.145-.161 2.427-.242 3.847-.242h4.936v-1.258a.612.612 0 0 0-.242-.363.743.743 0 0 0-.508-.169H18.17a1.118 1.118 0 0 0-.605.29.82.82 0 0 0-.242.605c0 .323-.113.597-.339.823-.226.225-.5.338-.823.338a1.12 1.12 0 0 1-.822-.338 1.12 1.12 0 0 1-.339-.823c0-.452.089-.871.266-1.258.178-.387.42-.726.726-1.016a3.315 3.315 0 0 1 1.065-.678c.403-.177.83-.266 1.282-.266h12.63c.354 0 .71.081 1.064.242.355.145.67.355.944.629.274.274.5.605.677.992.178.387.266.823.266 1.307v6.218c0 .322-.112.596-.338.822a1.12 1.12 0 0 1-.823.339c-.306 0-.58-.113-.823-.339a1.12 1.12 0 0 1-.338-.822v-2.952h-4.936c-.984 0-1.911.032-2.782.097-.855.048-1.67.193-2.444.435a8.8 8.8 0 0 0-2.226 1.065c-.694.468-1.371 1.113-2.033 1.935a2.27 2.27 0 0 1-.217.242 1.75 1.75 0 0 1-.363.242.954.954 0 0 1-.436.097 1.12 1.12 0 0 1-.822-.339 1.12 1.12 0 0 1-.339-.822Zm355.805-90.884c.549 0 1-.097 1.355-.291.355-.209.629-.459.823-.75.21-.29.347-.605.411-.943.081-.355.121-.678.121-.968 0-.29-.04-.605-.121-.944a2.343 2.343 0 0 0-.411-.968 2.268 2.268 0 0 0-.823-.725c-.355-.21-.806-.315-1.355-.315h-9.774c-.565 0-1.025.105-1.38.315a2.562 2.562 0 0 0-.822.725 2.883 2.883 0 0 0-.412.968 5.113 5.113 0 0 0-.096.944c0 .29.032.613.096.968.081.338.218.653.412.943.209.291.484.541.822.75.355.194.815.291 1.38.291h9.774Zm4.96-2.952c0 .613-.105 1.234-.314 1.863a5.652 5.652 0 0 1-.871 1.694c-.387.5-.855.911-1.404 1.233-.548.323-1.169.484-1.863.484H360.28a3.597 3.597 0 0 1-1.766-.532 5.202 5.202 0 0 1-1.331-1.258 5.978 5.978 0 0 1-.822-1.67 5.979 5.979 0 0 1-.29-1.814c0-.613.096-1.226.29-1.839.21-.629.508-1.194.895-1.694a4.76 4.76 0 0 1 1.403-1.258c.549-.322 1.17-.484 1.863-.484h11.033c.662.033 1.25.218 1.767.557a4.53 4.53 0 0 1 1.306 1.234c.371.5.653 1.056.847 1.669.193.613.29 1.218.29 1.815Zm-23.271-5.275c.322 0 .597.113.822.339.226.226.339.5.339.823 0 .322-.113.597-.339.822-.225.226-.5.339-.822.339h-14.517a.946.946 0 0 0-.654.266.862.862 0 0 0-.266.629v6.17c0 .323-.121.597-.363.823a1.093 1.093 0 0 1-.798.338c-.323 0-.597-.113-.823-.338a1.123 1.123 0 0 1-.338-.823v-6.17c0-.451.088-.871.266-1.258.177-.387.411-.726.701-1.016a3.36 3.36 0 0 1 1.065-.678 3.156 3.156 0 0 1 1.282-.266h14.445Zm-25.14 8.227c.548 0 1-.097 1.355-.291.354-.209.629-.459.822-.75.21-.29.347-.605.411-.943.081-.355.121-.678.121-.968 0-.29-.04-.605-.121-.944a2.343 2.343 0 0 0-.411-.968 2.264 2.264 0 0 0-.822-.725c-.355-.21-.807-.315-1.355-.315h-9.775c-.565 0-1.024.105-1.379.315a2.565 2.565 0 0 0-.823.725 2.881 2.881 0 0 0-.411.968 5.034 5.034 0 0 0-.097.944c0 .29.032.613.097.968.08.338.218.653.411.943.21.291.484.541.823.75.355.194.814.291 1.379.291h9.775Zm4.96-2.952c0 .613-.105 1.234-.315 1.863a5.629 5.629 0 0 1-.871 1.694 4.89 4.89 0 0 1-1.403 1.233c-.549.323-1.17.484-1.863.484h-11.033a3.594 3.594 0 0 1-1.766-.532 5.186 5.186 0 0 1-1.331-1.258 5.98 5.98 0 0 1-.823-1.67 6.01 6.01 0 0 1-.29-1.814c0-.613.097-1.226.29-1.839.21-.629.508-1.194.895-1.694a4.763 4.763 0 0 1 1.404-1.258c.548-.322 1.169-.484 1.863-.484h11.033a3.47 3.47 0 0 1 1.766.557c.516.322.952.734 1.306 1.234.371.5.654 1.056.847 1.669.194.613.291 1.218.291 1.815Zm-22.11 4.113c0 .323-.113.597-.339.823-.226.225-.5.338-.822.338-.323 0-.597-.113-.823-.338a1.12 1.12 0 0 1-.339-.823v-2.952h-14.299v2.952c0 .323-.113.597-.339.823-.226.225-.5.338-.822.338-.323 0-.597-.113-.823-.338a1.12 1.12 0 0 1-.339-.823v-8.226c0-.323.113-.597.339-.823.226-.226.5-.339.823-.339.322 0 .596.113.822.339.226.226.339.5.339.823v2.951h14.299v-2.951c0-.323.113-.597.339-.823.226-.226.5-.339.823-.339.322 0 .596.113.822.339.226.226.339.5.339.823v8.226Zm-21.36 0c0 .323-.113.597-.338.823-.226.225-.5.338-.823.338-.323 0-.597-.113-.823-.338a1.123 1.123 0 0 1-.338-.823v-2.952h-14.3v2.952c0 .323-.113.597-.338.823-.226.225-.5.338-.823.338-.323 0-.597-.113-.823-.338a1.123 1.123 0 0 1-.338-.823v-8.226c0-.323.113-.597.338-.823.226-.226.5-.339.823-.339.323 0 .597.113.823.339.225.226.338.5.338.823v2.951h14.3v-2.951c0-.323.113-.597.338-.823.226-.226.5-.339.823-.339.323 0 .597.113.823.339.225.226.338.5.338.823v8.226Zm-33.471-3.485h6.871l-2.492-3.338a3.6 3.6 0 0 0-.435-.412c-.162-.161-.331-.242-.508-.242-.178 0-.355.081-.533.242a2.92 2.92 0 0 0-.387.412l-2.516 3.338Zm8.613 2.323h-10.379l-1.404 1.887c-.242.291-.54.436-.895.436a1.12 1.12 0 0 1-.823-.339 1.122 1.122 0 0 1-.338-.822c0-.291.08-.525.242-.702l5.879-7.912a2.984 2.984 0 0 1 1.089-.895 3.14 3.14 0 0 1 2.831-.048c.435.209.79.5 1.064.871l5.88 7.863c.096.113.177.242.242.387a.967.967 0 0 1 .096.436c0 .322-.113.596-.338.822a1.12 1.12 0 0 1-.823.339 1.08 1.08 0 0 1-.919-.46l-1.404-1.863Zm-32.852.001h13.428a.86.86 0 0 0 .629-.267.827.827 0 0 0 .29-.629.783.783 0 0 0-.29-.629.862.862 0 0 0-.629-.266h-13.428v1.791Zm0-5.904v1.79h13.452c.242 0 .452-.08.629-.241a.814.814 0 0 0 .266-.63.83.83 0 0 0-.29-.629.829.829 0 0 0-.629-.29h-13.428Zm-1.162 8.226a1.12 1.12 0 0 1-.822-.338 1.12 1.12 0 0 1-.339-.823v-8.226c0-.323.113-.597.339-.823.225-.226.5-.339.822-.339h14.493c.452 0 .871.089 1.258.266.403.162.75.388 1.04.678.307.29.541.637.702 1.04.178.387.266.807.266 1.258 0 .404-.072.783-.217 1.138-.13.338-.307.645-.533.919.226.274.403.589.533.944.145.338.217.701.217 1.088 0 .452-.088.871-.266 1.259a2.943 2.943 0 0 1-.702 1.016c-.29.29-.637.524-1.04.701a3.223 3.223 0 0 1-1.258.242h-14.493Zm-8.542-2.322c.548 0 1-.097 1.354-.291.355-.209.63-.459.823-.75.21-.29.347-.605.411-.943.081-.355.121-.678.121-.968 0-.29-.04-.605-.121-.944a2.343 2.343 0 0 0-.411-.968 2.26 2.26 0 0 0-.823-.725c-.354-.21-.806-.315-1.354-.315h-9.775c-.565 0-1.024.105-1.379.315a2.565 2.565 0 0 0-.823.725 2.881 2.881 0 0 0-.411.968 5.034 5.034 0 0 0-.097.944c0 .29.032.613.097.968.08.338.218.653.411.943.21.291.484.541.823.75.355.194.814.291 1.379.291h9.775Zm4.96-2.952c0 .613-.105 1.234-.315 1.863a5.652 5.652 0 0 1-.871 1.694 4.89 4.89 0 0 1-1.403 1.233c-.549.323-1.17.484-1.863.484h-11.033a3.594 3.594 0 0 1-1.766-.532 5.186 5.186 0 0 1-1.331-1.258 5.98 5.98 0 0 1-.823-1.67 6.01 6.01 0 0 1-.29-1.814c0-.613.097-1.226.29-1.839.21-.629.508-1.194.895-1.694a4.763 4.763 0 0 1 1.404-1.258c.548-.322 1.169-.484 1.863-.484h11.033a3.47 3.47 0 0 1 1.766.557c.516.322.952.734 1.306 1.234.371.5.654 1.056.847 1.669.194.613.291 1.218.291 1.815Zm-38.708-2.952v1.79h13.428c.242 0 .452-.08.629-.241a.853.853 0 0 0 .29-.654.825.825 0 0 0-.29-.629.86.86 0 0 0-.629-.266h-13.428Zm13.331-2.323c.452 0 .871.089 1.258.266.404.162.75.388 1.041.678.306.29.54.629.701 1.016.178.387.267.807.267 1.258 0 .452-.089.871-.267 1.258a2.948 2.948 0 0 1-.701 1.017c-.291.29-.637.524-1.041.701a3.223 3.223 0 0 1-1.258.242h-13.331v2.952c0 .323-.121.597-.363.823a1.095 1.095 0 0 1-.799.338c-.322 0-.596-.113-.822-.338a1.12 1.12 0 0 1-.339-.823v-8.226c0-.323.113-.597.339-.823.226-.226.5-.339.822-.339h14.493Zm-34.549 5.928c0 .581.032 1.024.097 1.331.064.306.217.46.459.46.129 0 .291-.049.484-.146.21-.113.468-.258.774-.435l11.082-6.775c.177-.113.371-.201.58-.266a2.48 2.48 0 0 1 .678-.097c.661 0 1.21.226 1.645.678.452.451.678 1.008.678 1.669v7.041c0 .323-.113.597-.339.823-.226.225-.5.338-.823.338a1.12 1.12 0 0 1-.822-.338 1.12 1.12 0 0 1-.339-.823v-4.766c0-.581-.032-1.025-.097-1.331-.064-.307-.218-.46-.46-.46-.129 0-.298.057-.508.17-.193.096-.443.233-.75.411l-11.081 6.774a2.299 2.299 0 0 1-.605.267c-.21.064-.427.096-.653.096-.661 0-1.218-.225-1.67-.677-.435-.452-.653-1.008-.653-1.67v-7.04c0-.323.113-.597.339-.823.226-.226.5-.339.822-.339.323 0 .597.113.823.339.226.226.339.5.339.823v4.766Zm-21.042-.653c0-.323.113-.597.339-.823.225-.226.5-.339.822-.339h12.025a.857.857 0 0 0 .629-.266.885.885 0 0 0 .266-.653.783.783 0 0 0-.266-.605.86.86 0 0 0-.629-.266h-14.783a1.12 1.12 0 0 1-.823-.339 1.117 1.117 0 0 1-.338-.822c0-.323.112-.597.338-.823.226-.226.5-.339.823-.339h14.662c.452 0 .871.081 1.258.242.403.162.75.387 1.041.678.29.29.516.629.677 1.016.178.387.266.806.266 1.258 0 .403-.072.782-.218 1.137-.129.355-.314.67-.556.944.516.613.774 1.306.774 2.081 0 .451-.088.871-.266 1.258a3.114 3.114 0 0 1-.677 1.016c-.291.29-.638.516-1.041.677a3.223 3.223 0 0 1-1.258.242h-14.662c-.323 0-.597-.113-.823-.338a1.12 1.12 0 0 1-.338-.823c0-.323.112-.597.338-.823.226-.225.5-.338.823-.338h14.783a.905.905 0 0 0 .629-.242.858.858 0 0 0 .266-.629.889.889 0 0 0-.266-.654.86.86 0 0 0-.629-.266h-12.025c-.322 0-.597-.113-.822-.339a1.118 1.118 0 0 1-.339-.822Zm-21.654.653c0 .581.033 1.024.097 1.331.065.306.218.46.46.46.129 0 .29-.049.484-.146.209-.113.467-.258.774-.435l11.081-6.775a2.4 2.4 0 0 1 .581-.266c.226-.064.452-.097.677-.097.662 0 1.21.226 1.646.678.451.451.677 1.008.677 1.669v7.041c0 .323-.113.597-.339.823a1.12 1.12 0 0 1-.822.338c-.323 0-.597-.113-.823-.338a1.12 1.12 0 0 1-.339-.823v-4.766c0-.581-.032-1.025-.096-1.331-.065-.307-.218-.46-.46-.46-.129 0-.299.057-.508.17-.194.096-.444.233-.75.411l-11.082 6.774a2.306 2.306 0 0 1-.604.267 2.23 2.23 0 0 1-.654.096c-.661 0-1.218-.225-1.669-.677-.436-.452-.653-1.008-.653-1.67v-7.04c0-.323.112-.597.338-.823.226-.226.5-.339.823-.339.323 0 .597.113.823.339.225.226.338.5.338.823v4.766Zm-20.019 4.185c-.242.291-.54.436-.895.436a1.12 1.12 0 0 1-.823-.339 1.12 1.12 0 0 1-.339-.822c0-.291.081-.525.242-.702l5.88-7.912a2.988 2.988 0 0 1 1.088-.895 3.03 3.03 0 0 1 1.452-.363c.484 0 .944.105 1.379.315.436.209.791.5 1.065.871l5.879 7.863c.097.113.178.242.242.387a.954.954 0 0 1 .097.436c0 .322-.113.596-.339.822a1.12 1.12 0 0 1-.822.339c-.387 0-.694-.153-.92-.46l-5.637-7.524a3.543 3.543 0 0 0-.436-.412c-.161-.161-.33-.242-.508-.242-.177 0-.355.081-.532.242a2.92 2.92 0 0 0-.387.412l-5.686 7.548Zm-16.583-4.21h6.871l-2.492-3.338a3.572 3.572 0 0 0-.435-.412c-.162-.161-.331-.242-.508-.242-.178 0-.355.081-.533.242a2.92 2.92 0 0 0-.387.412l-2.516 3.338Zm8.613 2.323H85.4l-1.403 1.887c-.242.291-.54.436-.895.436a1.12 1.12 0 0 1-.823-.339 1.12 1.12 0 0 1-.338-.822c0-.291.08-.525.242-.702l5.879-7.912a2.988 2.988 0 0 1 1.089-.895 3.027 3.027 0 0 1 1.451-.363c.484 0 .944.105 1.38.315.435.209.79.5 1.064.871l5.88 7.863c.096.113.177.242.242.387a.96.96 0 0 1 .096.436c0 .322-.113.596-.338.822a1.12 1.12 0 0 1-.823.339c-.387 0-.694-.153-.92-.46l-1.403-1.863Zm-17.415-8.226c.322 0 .596.113.822.339.226.226.339.5.339.823 0 .306-.105.572-.315.798-.21.21-.46.331-.75.363h-4.863c-.484.032-.887.153-1.21.363a2.228 2.228 0 0 0-.725.726c-.178.29-.299.605-.363.943a4.969 4.969 0 0 0-.097.92v4.113c0 .323-.113.597-.339.823-.226.225-.5.338-.822.338-.323 0-.597-.113-.823-.338a1.12 1.12 0 0 1-.339-.823v-4.113c0-.5.065-1 .194-1.5.129-.516.322-1 .58-1.452h-7.936a1.12 1.12 0 0 1-.822-.339 1.118 1.118 0 0 1-.339-.822c0-.323.113-.597.339-.823.226-.226.5-.339.822-.339h16.647Zm-39.711 1.162c0-.323.113-.597.339-.823.226-.226.5-.339.823-.339h17.154c.322 0 .597.113.823.339.225.226.338.5.338.823 0 .322-.113.597-.338.822a1.12 1.12 0 0 1-.823.339H39.815a1.12 1.12 0 0 1-.823-.339 1.118 1.118 0 0 1-.339-.822Zm2.952 9.387c-.355 0-.71-.072-1.064-.217a3.192 3.192 0 0 1-.944-.654 3.373 3.373 0 0 1-.678-.992 3.096 3.096 0 0 1-.266-1.306v-2.178c0-.435.121-.726.363-.871.258-.145.654-.218 1.186-.218h16.235c.322 0 .596.113.822.339.226.226.339.5.339.823 0 .322-.113.597-.339.822a1.12 1.12 0 0 1-.822.339H40.976v1.186c0 .161.065.306.194.435a.88.88 0 0 0 .556.17H56.97c.322 0 .597.113.823.338.225.226.338.5.338.823 0 .323-.113.597-.338.823-.226.225-.5.338-.823.338H41.605Zm-17.242-.943c0-.42.146-.774.436-1.065.29-.29.645-.435 1.064-.435.42 0 .775.145 1.065.435.29.291.436.645.436 1.065 0 .419-.146.774-.436 1.064-.29.291-.645.436-1.065.436-.419 0-.774-.145-1.064-.436a1.447 1.447 0 0 1-.436-1.064Zm-3.75-.823h.605c.323 0 .597.113.823.339.226.226.338.5.338.822 0 .323-.112.597-.338.823a1.12 1.12 0 0 1-.823.339h-5.153a1.221 1.221 0 0 1-.75-.363 1.135 1.135 0 0 1-.315-.799c0-.322.113-.596.339-.822.226-.226.5-.339.822-.339h1.573l5.686-7.597c.29-.371.645-.661 1.064-.871a3.14 3.14 0 0 1 1.38-.315c.516 0 .991.121 1.427.363.452.226.823.524 1.113.895l5.59 7.525h1.45c.323 0 .598.113.823.339.226.226.34.5.34.822 0 .323-.114.597-.34.823a1.12 1.12 0 0 1-.822.339H30.29a1.221 1.221 0 0 1-.75-.363 1.135 1.135 0 0 1-.314-.799c0-.322.113-.596.338-.822.226-.226.5-.339.823-.339h.726l-4.331-5.734a2.455 2.455 0 0 0-.411-.411c-.162-.162-.331-.242-.509-.242-.177 0-.354.08-.532.242a4.928 4.928 0 0 0-.411.411l-4.307 5.734Zm2.291 256.012V404h-7.238v2.072h-1.204v-3.304h.182a.872.872 0 0 0 .644-.252c.177-.168.327-.518.448-1.05.13-.532.196-1.251.196-2.156v-5.25h6.944v8.708h1.232v3.304h-1.204Zm-5.67-10.78v4.228c0 1.493-.21 2.576-.63 3.248h4.97v-7.476h-4.34Zm11.467 8.848c-1.055 0-1.932-.35-2.632-1.05-.69-.709-1.036-1.573-1.036-2.59s.345-1.876 1.036-2.576c.7-.709 1.577-1.064 2.632-1.064 1.045 0 1.913.355 2.604 1.064.7.7 1.05 1.559 1.05 2.576 0 1.017-.35 1.881-1.05 2.59-.69.7-1.559 1.05-2.604 1.05Zm-1.764-1.848c.457.485 1.045.728 1.764.728.719 0 1.302-.243 1.75-.728.448-.485.672-1.083.672-1.792 0-.709-.224-1.307-.672-1.792-.448-.485-1.031-.728-1.75-.728-.719 0-1.307.243-1.764.728-.448.485-.672 1.083-.672 1.792 0 .709.224 1.307.672 1.792Zm8.35 4.634h-1.204V397h1.204v1.078c.243-.355.584-.644 1.022-.868a3.08 3.08 0 0 1 1.442-.35c.97 0 1.783.355 2.436 1.064.663.709.994 1.568.994 2.576s-.331 1.867-.994 2.576c-.653.709-1.465 1.064-2.436 1.064a3.18 3.18 0 0 1-1.442-.336c-.438-.233-.78-.527-1.022-.882v4.004Zm.574-4.62c.448.485 1.018.728 1.708.728s1.26-.243 1.708-.728c.448-.485.672-1.087.672-1.806 0-.719-.224-1.321-.672-1.806-.448-.485-1.017-.728-1.708-.728-.69 0-1.26.243-1.708.728-.448.485-.672 1.087-.672 1.806 0 .719.224 1.321.672 1.806Zm9.938 1.834c-.97 0-1.787-.355-2.45-1.064-.653-.709-.98-1.568-.98-2.576s.327-1.867.98-2.576a3.221 3.221 0 0 1 2.45-1.064c.514 0 .99.117 1.428.35.448.224.794.513 1.036.868V397h1.204v7h-1.204v-1.078c-.242.355-.588.649-1.036.882a3.095 3.095 0 0 1-1.428.336Zm.182-1.106c.69 0 1.26-.243 1.708-.728.448-.485.672-1.087.672-1.806 0-.719-.224-1.321-.672-1.806-.448-.485-1.017-.728-1.708-.728-.7 0-1.274.243-1.722.728-.448.485-.672 1.087-.672 1.806 0 .719.224 1.321.672 1.806.448.485 1.022.728 1.722.728Zm9.113 1.106c-1.102 0-1.984-.364-2.646-1.092-.654-.728-.98-1.685-.98-2.87v-.714c0-1.717.308-3.001.924-3.85.616-.859 1.624-1.423 3.024-1.694l2.604-.476v1.148l-2.338.434c-1 .177-1.722.513-2.17 1.008-.44.495-.714 1.223-.826 2.184.606-.812 1.465-1.218 2.576-1.218 1.054 0 1.899.336 2.534 1.008.644.672.966 1.493.966 2.464 0 1.027-.35 1.895-1.05 2.604-.691.709-1.564 1.064-2.618 1.064Zm-1.736-1.834c.448.476 1.026.714 1.736.714.709 0 1.292-.238 1.75-.714.457-.476.686-1.087.686-1.834 0-.7-.23-1.269-.686-1.708-.448-.448-1.022-.672-1.722-.672-.72 0-1.307.229-1.764.686-.448.448-.672 1.013-.672 1.694 0 .747.224 1.358.672 1.834Zm10.234 1.834c-1.055 0-1.932-.35-2.632-1.05-.691-.709-1.036-1.573-1.036-2.59s.345-1.876 1.036-2.576c.7-.709 1.577-1.064 2.632-1.064 1.045 0 1.913.355 2.604 1.064.7.7 1.05 1.559 1.05 2.576 0 1.017-.35 1.881-1.05 2.59-.691.7-1.56 1.05-2.604 1.05Zm-1.764-1.848c.457.485 1.045.728 1.764.728.718 0 1.302-.243 1.75-.728.448-.485.672-1.083.672-1.792 0-.709-.224-1.307-.672-1.792-.448-.485-1.032-.728-1.75-.728-.72 0-1.307.243-1.764.728-.448.485-.672 1.083-.672 1.792 0 .709.224 1.307.672 1.792ZM70.112 404v-5.894h-2.226V397h5.754v1.106h-2.324V404h-1.204Zm9.609 0-3.5-3.122V404h-1.204v-7h1.204v3.108L79.329 397h1.526l-3.43 3.43 3.948 3.57H79.72Zm3.716 0h-1.078v-7h1.204v5.138L87.51 397h1.064v7h-1.19v-5.138L83.437 404Zm13.91.14c-1.054 0-1.927-.35-2.617-1.05-.691-.709-1.037-1.573-1.037-2.59s.346-1.876 1.037-2.576c.69-.709 1.563-1.064 2.617-1.064.869 0 1.62.243 2.255.728a3.419 3.419 0 0 1 1.273 1.876h-1.287a2.229 2.229 0 0 0-.84-1.092c-.392-.271-.86-.406-1.4-.406-.72 0-1.307.243-1.764.728-.449.485-.672 1.087-.672 1.806 0 .719.223 1.321.671 1.806.458.485 1.046.728 1.764.728.542 0 1.009-.135 1.4-.406.392-.271.672-.635.84-1.092h1.288a3.415 3.415 0 0 1-1.26 1.89c-.634.476-1.39.714-2.267.714Zm11.536-7.14-3.794 8.246c-.289.644-.616 1.106-.98 1.386-.355.289-.803.434-1.344.434-.345 0-.607-.023-.784-.07v-1.064c.14.028.369.042.686.042.523 0 .943-.355 1.26-1.064l.574-1.232-3.094-6.678h1.33l2.422 5.278 2.38-5.278h1.344Zm11.478 5.894v2.87h-1.134V404h-9.128v-7h1.204v5.894h2.786V397h1.204v5.894h2.786V397h1.204v5.894h1.078Zm4.464 1.246c-1.017 0-1.862-.345-2.534-1.036-.663-.691-.994-1.559-.994-2.604 0-1.055.322-1.923.966-2.604.653-.691 1.517-1.036 2.59-1.036 1.083 0 1.932.383 2.548 1.148.616.765.887 1.703.812 2.814h-5.698c.019.635.252 1.167.7 1.596.448.42.989.63 1.624.63.952 0 1.629-.392 2.03-1.176h1.232c-.177.653-.555 1.195-1.134 1.624-.579.429-1.293.644-2.142.644Zm1.372-5.712c-.383-.336-.845-.504-1.386-.504a2.34 2.34 0 0 0-1.456.49c-.42.327-.681.812-.784 1.456h4.368c-.112-.635-.359-1.115-.742-1.442Zm6.861 5.712c-1.054 0-1.927-.35-2.618-1.05-.69-.709-1.036-1.573-1.036-2.59s.346-1.876 1.036-2.576c.691-.709 1.564-1.064 2.618-1.064.868 0 1.62.243 2.254.728a3.417 3.417 0 0 1 1.274 1.876h-1.288a2.229 2.229 0 0 0-.84-1.092c-.392-.271-.858-.406-1.4-.406-.718 0-1.306.243-1.764.728-.448.485-.672 1.087-.672 1.806 0 .719.224 1.321.672 1.806.458.485 1.046.728 1.764.728.542 0 1.008-.135 1.4-.406.392-.271.672-.635.84-1.092h1.288a3.413 3.413 0 0 1-1.26 1.89c-.634.476-1.39.714-2.268.714Zm6.426-.14v-5.894h-2.226V397h5.754v1.106h-2.324V404h-1.204Zm4.904 0v-7h3.052c.775 0 1.367.173 1.778.518.411.345.616.807.616 1.386 0 .551-.229 1.003-.686 1.358.765.373 1.148.943 1.148 1.708 0 .588-.21 1.073-.63 1.456-.42.383-1.05.574-1.89.574h-3.388Zm1.204-1.05h2.254c.373 0 .667-.093.882-.28.224-.187.336-.443.336-.77s-.112-.579-.336-.756c-.215-.187-.509-.28-.882-.28h-2.254v2.086Zm0-3.052h1.946c.719 0 1.078-.313 1.078-.938 0-.327-.103-.56-.308-.7-.205-.149-.462-.224-.77-.224h-1.946v1.862ZM158.348 397l-3.794 8.246c-.29.644-.616 1.106-.98 1.386-.355.289-.803.434-1.344.434-.346 0-.607-.023-.784-.07v-1.064c.14.028.368.042.686.042.522 0 .942-.355 1.26-1.064l.574-1.232-3.094-6.678h1.33l2.422 5.278 2.38-5.278h1.344Zm7.236 7.14c-.924 0-1.708-.299-2.352-.896-.635-.597-1.008-1.353-1.12-2.268h-1.344V404h-1.204v-7h1.204v2.898h1.358c.14-.887.522-1.615 1.148-2.184.634-.569 1.404-.854 2.31-.854 1.017 0 1.857.35 2.52 1.05.662.7.994 1.563.994 2.59s-.332 1.89-.994 2.59c-.663.7-1.503 1.05-2.52 1.05Zm-1.638-1.848c.429.476.975.714 1.638.714.662 0 1.208-.238 1.638-.714.429-.485.644-1.083.644-1.792 0-.709-.215-1.302-.644-1.778-.43-.485-.976-.728-1.638-.728-.663 0-1.209.238-1.638.714-.42.476-.63 1.073-.63 1.792 0 .709.21 1.307.63 1.792Zm17.132.602v2.87h-1.134V404h-9.128v-7h1.204v5.894h2.786V397h1.204v5.894h2.786V397H180v5.894h1.078Zm4.464 1.246c-1.018 0-1.862-.345-2.534-1.036-.663-.691-.994-1.559-.994-2.604 0-1.055.322-1.923.966-2.604.653-.691 1.516-1.036 2.59-1.036 1.082 0 1.932.383 2.548 1.148.616.765.886 1.703.812 2.814h-5.698c.018.635.252 1.167.7 1.596.448.42.989.63 1.624.63.952 0 1.628-.392 2.03-1.176h1.232c-.178.653-.556 1.195-1.134 1.624-.579.429-1.293.644-2.142.644Zm1.372-5.712c-.383-.336-.845-.504-1.386-.504-.542 0-1.027.163-1.456.49-.42.327-.682.812-.784 1.456h4.368c-.112-.635-.36-1.115-.742-1.442Zm3.753 5.572v-7h4.382v1.106h-3.178V404h-1.204Zm8.645.14c-1.054 0-1.932-.35-2.632-1.05-.69-.709-1.036-1.573-1.036-2.59s.346-1.876 1.036-2.576c.7-.709 1.578-1.064 2.632-1.064 1.046 0 1.914.355 2.604 1.064.7.7 1.05 1.559 1.05 2.576 0 1.017-.35 1.881-1.05 2.59-.69.7-1.558 1.05-2.604 1.05Zm-1.764-1.848c.458.485 1.046.728 1.764.728.719 0 1.302-.243 1.75-.728.448-.485.672-1.083.672-1.792 0-.709-.224-1.307-.672-1.792-.448-.485-1.031-.728-1.75-.728-.718 0-1.306.243-1.764.728-.448.485-.672 1.083-.672 1.792 0 .709.224 1.307.672 1.792Zm9.333 1.708 2.829-2.744c-.551-.131-.976-.373-1.274-.728a1.986 1.986 0 0 1-.448-1.302c0-.644.219-1.176.658-1.596.448-.42 1.078-.63 1.889-.63h2.591v7h-1.204v-2.548h-.896L208.394 404h-1.513Zm3.725-3.626h1.316v-2.296h-1.316c-.943 0-1.414.387-1.414 1.162 0 .364.121.644.364.84.252.196.602.294 1.05.294Zm4.135 2.52h.168c.672 0 1.008-.756 1.008-2.268V397h5.558v5.894h1.05v2.87h-1.134V404h-5.516v1.764h-1.134v-2.87Zm2.38-4.788v2.716c0 .877-.144 1.568-.434 2.072h3.584v-4.788h-3.15Zm8.246 8.82h-1.204V397h1.204v1.078c.243-.355.584-.644 1.022-.868.448-.233.929-.35 1.442-.35.971 0 1.783.355 2.436 1.064.663.709.994 1.568.994 2.576s-.331 1.867-.994 2.576c-.653.709-1.465 1.064-2.436 1.064-.513 0-.994-.112-1.442-.336-.438-.233-.779-.527-1.022-.882v4.004Zm.574-4.62c.448.485 1.018.728 1.708.728.691 0 1.26-.243 1.708-.728.448-.485.672-1.087.672-1.806 0-.719-.224-1.321-.672-1.806-.448-.485-1.017-.728-1.708-.728-.69 0-1.26.243-1.708.728-.448.485-.672 1.087-.672 1.806 0 .719.224 1.321.672 1.806Zm9.938 1.834c-.97 0-1.787-.355-2.45-1.064-.653-.709-.98-1.568-.98-2.576s.327-1.867.98-2.576c.663-.709 1.48-1.064 2.45-1.064.514 0 .99.117 1.428.35.448.224.794.513 1.036.868V397h1.204v7h-1.204v-1.078c-.242.355-.588.649-1.036.882a3.09 3.09 0 0 1-1.428.336Zm.182-1.106c.691 0 1.26-.243 1.708-.728.448-.485.672-1.087.672-1.806 0-.719-.224-1.321-.672-1.806-.448-.485-1.017-.728-1.708-.728-.7 0-1.274.243-1.722.728-.448.485-.672 1.087-.672 1.806 0 .719.224 1.321.672 1.806.448.485 1.022.728 1.722.728ZM14.084 328l4.396-9.94h1.078l4.41 9.94H22.61l-1.288-2.898h-4.634L15.428 328h-1.344Zm4.914-8.176-1.792 4.102h3.598l-1.806-4.102ZM31.186 321l-3.794 8.246c-.29.644-.616 1.106-.98 1.386-.355.289-.803.434-1.344.434-.346 0-.607-.023-.784-.07v-1.064c.14.028.368.042.686.042.522 0 .942-.355 1.26-1.064l.574-1.232L23.71 321h1.33l2.422 5.278 2.38-5.278h1.344Zm.297 5.894h.168c.673 0 1.009-.756 1.009-2.268V321h5.558v5.894h1.05v2.87h-1.135V328h-5.516v1.764h-1.133v-2.87Zm2.38-4.788v2.716c0 .877-.144 1.568-.434 2.072h3.584v-4.788h-3.15Zm8.12 5.894h-1.077v-7h1.203v5.138L46.057 321h1.064v7h-1.19v-5.138L41.984 328Zm8.756 0v-5.894h-2.226V321h5.754v1.106h-2.324V328H50.74Zm11.034.14c-1.054 0-1.927-.35-2.618-1.05-.69-.709-1.036-1.573-1.036-2.59s.346-1.876 1.036-2.576c.69-.709 1.564-1.064 2.618-1.064.868 0 1.62.243 2.254.728a3.423 3.423 0 0 1 1.274 1.876h-1.288a2.229 2.229 0 0 0-.84-1.092c-.392-.271-.858-.406-1.4-.406-.718 0-1.306.243-1.764.728-.448.485-.672 1.087-.672 1.806 0 .719.224 1.321.672 1.806.458.485 1.046.728 1.764.728.542 0 1.008-.135 1.4-.406.392-.271.672-.635.84-1.092h1.288a3.418 3.418 0 0 1-1.26 1.89c-.634.476-1.39.714-2.268.714ZM73.31 321l-3.794 8.246c-.29.644-.616 1.106-.98 1.386-.355.289-.803.434-1.344.434-.346 0-.607-.023-.784-.07v-1.064c.14.028.368.042.686.042.522 0 .942-.355 1.26-1.064l.574-1.232L65.833 321h1.33l2.422 5.278 2.38-5.278h1.344Zm11.478 5.894v2.87h-1.134V328h-9.128v-7h1.204v5.894h2.786V321h1.204v5.894h2.786V321h1.204v5.894h1.078Zm4.464 1.246c-1.018 0-1.862-.345-2.534-1.036-.663-.691-.994-1.559-.994-2.604 0-1.055.322-1.923.966-2.604.653-.691 1.516-1.036 2.59-1.036 1.082 0 1.932.383 2.548 1.148.616.765.886 1.703.812 2.814h-5.7c.018.635.252 1.167.7 1.596.448.42.99.63 1.624.63.952 0 1.628-.392 2.03-1.176h1.232c-.178.653-.556 1.195-1.134 1.624-.579.429-1.293.644-2.142.644Zm1.372-5.712c-.383-.336-.845-.504-1.386-.504a2.34 2.34 0 0 0-1.456.49c-.42.327-.682.812-.784 1.456h4.368c-.112-.635-.36-1.115-.742-1.442Zm6.861 5.712c-1.054 0-1.927-.35-2.618-1.05-.69-.709-1.036-1.573-1.036-2.59s.346-1.876 1.036-2.576c.69-.709 1.564-1.064 2.618-1.064.868 0 1.62.243 2.254.728a3.418 3.418 0 0 1 1.274 1.876h-1.288a2.229 2.229 0 0 0-.84-1.092c-.392-.271-.859-.406-1.4-.406-.718 0-1.306.243-1.764.728-.448.485-.672 1.087-.672 1.806 0 .719.224 1.321.672 1.806.457.485 1.046.728 1.764.728.541 0 1.008-.135 1.4-.406.392-.271.672-.635.84-1.092h1.288a3.414 3.414 0 0 1-1.26 1.89c-.634.476-1.39.714-2.268.714Zm6.425-.14v-5.894h-2.226V321h5.754v1.106h-2.324V328h-1.204Zm4.905 0v-7h3.052c.774 0 1.367.173 1.778.518.41.345.616.807.616 1.386 0 .551-.229 1.003-.686 1.358.765.373 1.148.943 1.148 1.708 0 .588-.21 1.073-.63 1.456-.42.383-1.05.574-1.89.574h-3.388Zm1.204-1.05h2.254c.373 0 .667-.093.882-.28.224-.187.336-.443.336-.77s-.112-.579-.336-.756c-.215-.187-.509-.28-.882-.28h-2.254v2.086Zm0-3.052h1.946c.718 0 1.078-.313 1.078-.938 0-.327-.103-.56-.308-.7-.206-.149-.462-.224-.77-.224h-1.946v1.862ZM122.774 321l-3.794 8.246c-.29.644-.616 1.106-.98 1.386-.355.289-.803.434-1.344.434-.346 0-.607-.023-.784-.07v-1.064c.14.028.368.042.686.042.522 0 .942-.355 1.26-1.064l.574-1.232-3.094-6.678h1.33l2.422 5.278 2.38-5.278h1.344Zm7.235 7.14c-.924 0-1.708-.299-2.352-.896-.634-.597-1.008-1.353-1.12-2.268h-1.344V328h-1.204v-7h1.204v2.898h1.358c.14-.887.523-1.615 1.148-2.184.635-.569 1.405-.854 2.31-.854 1.018 0 1.858.35 2.52 1.05.663.7.994 1.563.994 2.59s-.331 1.89-.994 2.59c-.662.7-1.502 1.05-2.52 1.05Zm-1.638-1.848c.43.476.976.714 1.638.714.663 0 1.209-.238 1.638-.714.43-.485.644-1.083.644-1.792 0-.709-.214-1.302-.644-1.778-.429-.485-.975-.728-1.638-.728-.662 0-1.208.238-1.638.714-.42.476-.63 1.073-.63 1.792 0 .709.21 1.307.63 1.792Zm17.132.602v2.87h-1.134V328h-9.128v-7h1.204v5.894h2.786V321h1.204v5.894h2.786V321h1.204v5.894h1.078Zm4.465 1.246c-1.018 0-1.862-.345-2.534-1.036-.663-.691-.994-1.559-.994-2.604 0-1.055.322-1.923.966-2.604.653-.691 1.516-1.036 2.59-1.036 1.082 0 1.932.383 2.548 1.148.616.765.886 1.703.812 2.814h-5.698c.018.635.252 1.167.7 1.596.448.42.989.63 1.624.63.952 0 1.628-.392 2.03-1.176h1.232c-.178.653-.556 1.195-1.134 1.624-.579.429-1.293.644-2.142.644Zm1.372-5.712c-.383-.336-.845-.504-1.386-.504-.542 0-1.027.163-1.456.49-.42.327-.682.812-.784 1.456h4.368c-.112-.635-.36-1.115-.742-1.442Zm3.753 5.572v-7h4.382v1.106h-3.178V328h-1.204Zm8.645.14c-1.055 0-1.932-.35-2.632-1.05-.691-.709-1.036-1.573-1.036-2.59s.345-1.876 1.036-2.576c.7-.709 1.577-1.064 2.632-1.064 1.045 0 1.913.355 2.604 1.064.7.7 1.05 1.559 1.05 2.576 0 1.017-.35 1.881-1.05 2.59-.691.7-1.559 1.05-2.604 1.05Zm-1.764-1.848c.457.485 1.045.728 1.764.728.719 0 1.302-.243 1.75-.728.448-.485.672-1.083.672-1.792 0-.709-.224-1.307-.672-1.792-.448-.485-1.031-.728-1.75-.728-.719 0-1.307.243-1.764.728-.448.485-.672 1.083-.672 1.792 0 .709.224 1.307.672 1.792Zm9.333 1.708 2.828-2.744c-.55-.131-.975-.373-1.274-.728a1.991 1.991 0 0 1-.448-1.302c0-.644.22-1.176.658-1.596.448-.42 1.078-.63 1.89-.63h2.59v7h-1.204v-2.548h-.896L172.819 328h-1.512Zm3.724-3.626h1.316v-2.296h-1.316c-.942 0-1.414.387-1.414 1.162 0 .364.122.644.364.84.252.196.602.294 1.05.294Zm4.136 2.52h.168c.672 0 1.008-.756 1.008-2.268V321h5.558v5.894h1.05v2.87h-1.134V328h-5.516v1.764h-1.134v-2.87Zm2.38-4.788v2.716c0 .877-.145 1.568-.434 2.072h3.584v-4.788h-3.15Zm8.246 8.82h-1.204V321h1.204v1.078c.243-.355.583-.644 1.022-.868.448-.233.929-.35 1.442-.35.971 0 1.783.355 2.436 1.064.663.709.994 1.568.994 2.576s-.331 1.867-.994 2.576c-.653.709-1.465 1.064-2.436 1.064-.513 0-.994-.112-1.442-.336-.439-.233-.779-.527-1.022-.882v4.004Zm.574-4.62c.448.485 1.017.728 1.708.728.691 0 1.26-.243 1.708-.728.448-.485.672-1.087.672-1.806 0-.719-.224-1.321-.672-1.806-.448-.485-1.017-.728-1.708-.728-.691 0-1.26.243-1.708.728-.448.485-.672 1.087-.672 1.806 0 .719.224 1.321.672 1.806Zm9.938 1.834c-.971 0-1.787-.355-2.45-1.064-.653-.709-.98-1.568-.98-2.576s.327-1.867.98-2.576c.663-.709 1.479-1.064 2.45-1.064a3 3 0 0 1 1.428.35c.448.224.793.513 1.036.868V321h1.204v7h-1.204v-1.078c-.243.355-.588.649-1.036.882a3.096 3.096 0 0 1-1.428.336Zm.182-1.106c.691 0 1.26-.243 1.708-.728.448-.485.672-1.087.672-1.806 0-.719-.224-1.321-.672-1.806-.448-.485-1.017-.728-1.708-.728-.7 0-1.274.243-1.722.728-.448.485-.672 1.087-.672 1.806 0 .719.224 1.321.672 1.806.448.485 1.022.728 1.722.728ZM20.818 356.956c.635.597.952 1.353.952 2.268 0 .915-.317 1.671-.952 2.268-.625.588-1.447.882-2.464.882h-1.736V366h-1.302v-9.94h3.038c1.017 0 1.839.299 2.464.896Zm-.91 3.668c.383-.364.574-.831.574-1.4s-.191-1.036-.574-1.4c-.373-.364-.891-.546-1.554-.546h-1.736v3.892h1.736c.663 0 1.18-.182 1.554-.546Zm6.108 5.516c-.97 0-1.787-.355-2.45-1.064-.653-.709-.98-1.568-.98-2.576s.327-1.867.98-2.576a3.222 3.222 0 0 1 2.45-1.064c.513 0 .99.117 1.428.35.448.224.793.513 1.036.868V359h1.204v7H28.48v-1.078c-.243.355-.588.649-1.036.882a3.094 3.094 0 0 1-1.428.336Zm.182-1.106c.69 0 1.26-.243 1.708-.728.448-.485.672-1.087.672-1.806 0-.719-.224-1.321-.672-1.806-.448-.485-1.017-.728-1.708-.728-.7 0-1.274.243-1.722.728-.448.485-.672 1.087-.672 1.806 0 .719.224 1.321.672 1.806.448.485 1.022.728 1.722.728Zm7.978 1.106c-.718 0-1.348-.177-1.89-.532a2.273 2.273 0 0 1-.994-1.498h1.218c.234.672.79 1.008 1.666 1.008.514 0 .901-.107 1.162-.322.262-.215.392-.495.392-.84s-.13-.616-.392-.812c-.252-.196-.616-.294-1.092-.294h-.812v-.98h.812c.383 0 .686-.084.91-.252.234-.168.35-.415.35-.742a.867.867 0 0 0-.364-.742c-.242-.177-.569-.266-.98-.266-.812 0-1.32.327-1.526.98h-1.19c.131-.644.448-1.134.952-1.47.504-.345 1.097-.518 1.778-.518.784 0 1.396.187 1.834.56.44.364.658.826.658 1.386 0 .681-.289 1.19-.868 1.526.766.345 1.148.919 1.148 1.722 0 .588-.242 1.083-.728 1.484-.485.401-1.166.602-2.044.602Zm5.76 2.786h-1.204V359h1.204v1.078c.242-.355.583-.644 1.022-.868a3.08 3.08 0 0 1 1.442-.35c.97 0 1.782.355 2.436 1.064.662.709.994 1.568.994 2.576s-.332 1.867-.994 2.576c-.654.709-1.466 1.064-2.436 1.064a3.18 3.18 0 0 1-1.442-.336c-.439-.233-.78-.527-1.022-.882v4.004Zm.574-4.62c.448.485 1.017.728 1.708.728.69 0 1.26-.243 1.708-.728.448-.485.672-1.087.672-1.806 0-.719-.224-1.321-.672-1.806-.448-.485-1.018-.728-1.708-.728-.691 0-1.26.243-1.708.728-.448.485-.672 1.087-.672 1.806 0 .719.224 1.321.672 1.806Zm9.938 1.834a3.22 3.22 0 0 1-2.45-1.064c-.654-.709-.98-1.568-.98-2.576s.326-1.867.98-2.576a3.221 3.221 0 0 1 2.45-1.064 3 3 0 0 1 1.428.35c.448.224.793.513 1.036.868V359h1.204v7h-1.204v-1.078c-.243.355-.588.649-1.036.882a3.095 3.095 0 0 1-1.428.336Zm.182-1.106c.69 0 1.26-.243 1.708-.728.448-.485.672-1.087.672-1.806 0-.719-.224-1.321-.672-1.806-.448-.485-1.018-.728-1.708-.728-.7 0-1.274.243-1.722.728-.448.485-.672 1.087-.672 1.806 0 .719.224 1.321.672 1.806.448.485 1.022.728 1.722.728Zm9.112 1.106c-1.101 0-1.983-.364-2.646-1.092-.653-.728-.98-1.685-.98-2.87v-.714c0-1.717.308-3.001.924-3.85.616-.859 1.624-1.423 3.024-1.694l2.604-.476v1.148l-2.338.434c-.999.177-1.722.513-2.17 1.008-.439.495-.714 1.223-.826 2.184.607-.812 1.465-1.218 2.576-1.218 1.055 0 1.9.336 2.534 1.008.644.672.966 1.493.966 2.464 0 1.027-.35 1.895-1.05 2.604-.69.709-1.563 1.064-2.618 1.064Zm-1.736-1.834c.448.476 1.027.714 1.736.714.71 0 1.293-.238 1.75-.714.457-.476.686-1.087.686-1.834 0-.7-.229-1.269-.686-1.708-.448-.448-1.022-.672-1.722-.672-.719 0-1.307.229-1.764.686-.448.448-.672 1.013-.672 1.694 0 .747.224 1.358.672 1.834Zm10.234 1.834c-1.055 0-1.932-.35-2.632-1.05-.69-.709-1.036-1.573-1.036-2.59s.345-1.876 1.036-2.576c.7-.709 1.577-1.064 2.632-1.064 1.045 0 1.913.355 2.604 1.064.7.7 1.05 1.559 1.05 2.576 0 1.017-.35 1.881-1.05 2.59-.69.7-1.559 1.05-2.604 1.05Zm-1.764-1.848c.457.485 1.045.728 1.764.728.719 0 1.302-.243 1.75-.728.448-.485.672-1.083.672-1.792 0-.709-.224-1.307-.672-1.792-.448-.485-1.031-.728-1.75-.728-.719 0-1.307.243-1.764.728-.448.485-.672 1.083-.672 1.792 0 .709.224 1.307.672 1.792ZM74.761 366v-5.894h-2.226V359h5.754v1.106h-2.324V366H74.76Zm9.608 0-3.5-3.122V366h-1.204v-7h1.204v3.108L83.977 359h1.526l-3.43 3.43 3.948 3.57H84.37Zm5.14.14a3.22 3.22 0 0 1-2.45-1.064c-.654-.709-.98-1.568-.98-2.576s.326-1.867.98-2.576a3.222 3.222 0 0 1 2.45-1.064c.513 0 .989.117 1.427.35.448.224.794.513 1.036.868V359h1.204v7h-1.204v-1.078c-.242.355-.588.649-1.036.882a3.094 3.094 0 0 1-1.428.336Zm.181-1.106c.69 0 1.26-.243 1.708-.728.448-.485.672-1.087.672-1.806 0-.719-.224-1.321-.672-1.806-.448-.485-1.017-.728-1.708-.728-.7 0-1.274.243-1.722.728-.448.485-.672 1.087-.672 1.806 0 .719.224 1.321.672 1.806.448.485 1.022.728 1.722.728Zm7.94.966 2.828-2.744c-.551-.131-.976-.373-1.275-.728a1.988 1.988 0 0 1-.448-1.302c0-.644.22-1.176.659-1.596.447-.42 1.078-.63 1.89-.63h2.59v7h-1.204v-2.548h-.896L99.141 366H97.63Zm3.724-3.626h1.316v-2.296h-1.316c-.943 0-1.415.387-1.415 1.162 0 .364.122.644.365.84.252.196.602.294 1.05.294Zm4.135 2.52h.168c.672 0 1.008-.756 1.008-2.268V359h5.558v5.894h1.05v2.87h-1.134V366h-5.516v1.764h-1.134v-2.87Zm2.38-4.788v2.716c0 .877-.144 1.568-.434 2.072h3.584v-4.788h-3.15Zm8.246 8.82h-1.204V359h1.204v1.078c.243-.355.584-.644 1.022-.868.448-.233.929-.35 1.442-.35.971 0 1.783.355 2.436 1.064.663.709.994 1.568.994 2.576s-.331 1.867-.994 2.576c-.653.709-1.465 1.064-2.436 1.064-.513 0-.994-.112-1.442-.336-.438-.233-.779-.527-1.022-.882v4.004Zm.574-4.62c.448.485 1.018.728 1.708.728.691 0 1.26-.243 1.708-.728.448-.485.672-1.087.672-1.806 0-.719-.224-1.321-.672-1.806-.448-.485-1.017-.728-1.708-.728-.69 0-1.26.243-1.708.728-.448.485-.672 1.087-.672 1.806 0 .719.224 1.321.672 1.806Zm9.938 1.834c-.97 0-1.787-.355-2.45-1.064-.653-.709-.98-1.568-.98-2.576s.327-1.867.98-2.576c.663-.709 1.48-1.064 2.45-1.064.514 0 .99.117 1.428.35.448.224.794.513 1.036.868V359h1.204v7h-1.204v-1.078c-.242.355-.588.649-1.036.882a3.09 3.09 0 0 1-1.428.336Zm.182-1.106c.691 0 1.26-.243 1.708-.728.448-.485.672-1.087.672-1.806 0-.719-.224-1.321-.672-1.806-.448-.485-1.017-.728-1.708-.728-.7 0-1.274.243-1.722.728-.448.485-.672 1.087-.672 1.806 0 .719.224 1.321.672 1.806.448.485 1.022.728 1.722.728Zm12.238 1.106c-1.055 0-1.928-.35-2.618-1.05-.691-.709-1.036-1.573-1.036-2.59s.345-1.876 1.036-2.576c.69-.709 1.563-1.064 2.618-1.064.868 0 1.619.243 2.254.728a3.427 3.427 0 0 1 1.274 1.876h-1.288a2.229 2.229 0 0 0-.84-1.092c-.392-.271-.859-.406-1.4-.406-.719 0-1.307.243-1.764.728-.448.485-.672 1.087-.672 1.806 0 .719.224 1.321.672 1.806.457.485 1.045.728 1.764.728.541 0 1.008-.135 1.4-.406.392-.271.672-.635.84-1.092h1.288a3.424 3.424 0 0 1-1.26 1.89c-.635.476-1.391.714-2.268.714Zm8.499-.14v-7h1.204v2.884h3.822V359h1.204v7h-1.204v-3.024h-3.822V366h-1.204Zm14.958-7-3.794 8.246c-.289.644-.616 1.106-.98 1.386-.355.289-.803.434-1.344.434-.345 0-.607-.023-.784-.07v-1.064c.14.028.369.042.686.042.523 0 .943-.355 1.26-1.064l.574-1.232-3.094-6.678h1.33l2.422 5.278 2.38-5.278h1.344Zm.801 7.098c-.317 0-.527-.014-.63-.042v-1.078c.065.019.215.028.448.028.289 0 .504-.098.644-.294.14-.205.21-.565.21-1.078V359h5.404v7h-1.204v-5.894h-2.996v3.78c0 .719-.173 1.269-.518 1.652-.345.373-.798.56-1.358.56Zm7.168-.098 2.828-2.744c-.55-.131-.975-.373-1.274-.728a1.991 1.991 0 0 1-.448-1.302c0-.644.22-1.176.658-1.596.448-.42 1.078-.63 1.89-.63h2.59v7h-1.204v-2.548h-.896L171.985 366h-1.512Zm3.724-3.626h1.316v-2.296h-1.316c-.942 0-1.414.387-1.414 1.162 0 .364.122.644.364.84.252.196.602.294 1.05.294Z" fill="#fff"/></svg>