<svg width="375" height="232" fill="none" xmlns="http://www.w3.org/2000/svg"><path fill-rule="evenodd" clip-rule="evenodd" d="m292.39 48.372-.05-.05c-2.394-2.394-5.107-3.522-8.279-3.522h-244.4c-6.12 0-11.42-2.176-15.721-6.478-4.303-4.303-6.48-9.602-6.48-15.722 0-6.12 2.177-11.419 6.48-15.72C28.242 2.576 33.54.4 39.66.4h242.401c7.824 0 15.146 1.398 21.934 4.223 7.013 2.808 13.088 6.757 18.187 11.856 5.071 5.071 9.015 10.986 11.828 17.72 3.109 6.802 4.651 14.148 4.651 22.001 0 7.015-1.261 13.652-3.801 19.882-1.957 5.364-4.661 10.22-8.113 14.552 7.916 10.174 11.914 21.658 11.914 34.366 0 7.853-1.542 15.2-4.651 22.002-2.813 6.734-6.757 12.649-11.828 17.72-5.099 5.099-11.174 9.048-18.187 11.856-6.788 2.825-14.11 4.222-21.934 4.222h-242.4c-6.12 0-11.42-2.176-15.721-6.478-4.303-4.303-6.48-9.602-6.48-15.722 0-6.12 2.177-11.419 6.48-15.721 4.302-4.302 9.601-6.479 15.72-6.479h244.401c3.237 0 5.966-1.044 8.329-3.172 2.359-2.381 3.471-5.078 3.471-8.228 0-3.496-1.168-6.325-3.521-8.678-2.394-2.394-5.107-3.522-8.279-3.522h-198.8c-6.12 0-11.42-2.176-15.721-6.478-4.303-4.303-6.48-9.602-6.48-15.722 0-6.12 2.177-11.419 6.48-15.72 4.302-4.303 9.601-6.48 15.72-6.48h198.801c3.172 0 5.885-1.127 8.279-3.52 2.353-2.354 3.521-5.183 3.521-8.68 0-3.163-1.117-5.688-3.418-7.78l-.053-.048Zm2.071 87.028c-2.933 2.667-6.4 4-10.4 4h-244.4c-5.333 0-9.867 1.867-13.6 5.6-3.733 3.734-5.6 8.267-5.6 13.6 0 5.334 1.867 9.867 5.6 13.6 3.733 3.734 8.267 5.6 13.6 5.6h242.4c7.467 0 14.4-1.333 20.8-4 6.667-2.666 12.4-6.4 17.2-11.2 4.8-4.8 8.533-10.4 11.2-16.8 2.933-6.4 4.4-13.333 4.4-20.8 0-12.8-4.267-24.266-12.8-34.4 4-4.533 7.067-9.733 9.2-15.6 2.4-5.866 3.6-12.133 3.6-18.8 0-7.466-1.467-14.4-4.4-20.8-2.667-6.4-6.4-12-11.2-16.8-4.8-4.8-10.533-8.533-17.2-11.2-6.4-2.666-13.333-4-20.8-4h-242.4c-5.333 0-9.867 1.867-13.6 5.6-3.733 3.734-5.6 8.267-5.6 13.6 0 5.334 1.867 9.867 5.6 13.6 3.733 3.734 8.267 5.6 13.6 5.6h244.4c4 0 7.467 1.467 10.4 4.4 2.933 2.667 4.4 6 4.4 10 0 4.267-1.467 7.867-4.4 10.8-2.933 2.934-6.4 4.4-10.4 4.4h-198.8c-5.333 0-9.867 1.867-13.6 5.6-3.733 3.734-5.6 8.267-5.6 13.6 0 5.334 1.867 9.867 5.6 13.6 3.733 3.734 8.267 5.6 13.6 5.6h198.8c4 0 7.467 1.467 10.4 4.4 2.933 2.934 4.4 6.534 4.4 10.8 0 4-1.467 7.467-4.4 10.4Z" fill="#29FF7F" fill-opacity=".1"/><path d="M139.805 29.218c0-.215.076-.422.23-.621a9.249 9.249 0 0 1 1.863-2.047 8.817 8.817 0 0 1 2.369-1.357 12.919 12.919 0 0 1 2.967-.76 26.578 26.578 0 0 1 3.657-.23h4.692v-1.195a.585.585 0 0 0-.23-.345.708.708 0 0 0-.483-.161h-12.052a1.06 1.06 0 0 0-.575.276.778.778 0 0 0-.23.575c0 .307-.108.567-.322.782a1.066 1.066 0 0 1-.782.322c-.307 0-.568-.107-.782-.322a1.063 1.063 0 0 1-.322-.782c0-.43.084-.828.253-1.196.168-.368.398-.69.69-.966.291-.276.628-.49 1.012-.644a2.991 2.991 0 0 1 1.219-.253h12.006c.337 0 .674.077 1.012.23.337.138.636.337.897.598.26.26.475.575.644.943.168.368.253.782.253 1.242v5.91c0 .308-.108.568-.322.783a1.066 1.066 0 0 1-.782.322c-.292 0-.552-.107-.782-.322a1.063 1.063 0 0 1-.322-.782v-2.806h-4.692c-.936 0-1.817.03-2.645.092a9.569 9.569 0 0 0-2.323.414 8.363 8.363 0 0 0-2.116 1.012c-.66.445-1.304 1.058-1.932 1.84a2.29 2.29 0 0 1-.207.23 1.727 1.727 0 0 1-.345.23.914.914 0 0 1-.414.092c-.307 0-.568-.107-.782-.322a1.063 1.063 0 0 1-.322-.782Zm-13.814-3.312h6.532l-2.369-3.174a3.425 3.425 0 0 0-.414-.391c-.153-.153-.314-.23-.483-.23-.168 0-.337.077-.506.23a2.823 2.823 0 0 0-.368.391l-2.392 3.174Zm8.188 2.208h-9.867l-1.334 1.794c-.23.276-.513.414-.851.414-.306 0-.567-.107-.782-.322a1.067 1.067 0 0 1-.322-.782c0-.276.077-.498.23-.667l5.589-7.521a2.844 2.844 0 0 1 1.035-.851 2.985 2.985 0 0 1 2.691-.046c.414.2.752.475 1.012.828l5.589 7.475c.092.107.169.23.23.368.062.123.092.26.092.414 0 .307-.107.567-.322.782a1.063 1.063 0 0 1-.782.322 1.03 1.03 0 0 1-.874-.437l-1.334-1.771Zm-15.451 1.104c0 .307-.108.567-.322.782a1.066 1.066 0 0 1-.782.322c-.307 0-.568-.107-.782-.322a1.063 1.063 0 0 1-.322-.782v-2.806h-13.593v2.806c0 .307-.108.567-.322.782a1.066 1.066 0 0 1-.782.322c-.307 0-.568-.107-.782-.322a1.063 1.063 0 0 1-.322-.782v-7.82c0-.307.107-.567.322-.782.214-.215.475-.322.782-.322.306 0 .567.107.782.322.214.215.322.475.322.782v2.806h13.593v-2.806c0-.307.107-.567.322-.782.214-.215.475-.322.782-.322.306 0 .567.107.782.322.214.215.322.475.322.782v7.82Zm-36.083-1.104h12.766c.23 0 .429-.084.597-.253a.786.786 0 0 0 .276-.598.742.742 0 0 0-.276-.598.818.818 0 0 0-.597-.253H82.644v1.702Zm0-5.612v1.702h12.788a.86.86 0 0 0 .598-.23.77.77 0 0 0 .253-.598c0-.23-.092-.43-.276-.598a.786.786 0 0 0-.597-.276H82.644Zm-1.103 7.82c-.307 0-.568-.107-.782-.322a1.064 1.064 0 0 1-.323-.782v-7.82c0-.307.108-.567.323-.782.214-.215.475-.322.781-.322H95.32c.429 0 .828.084 1.195.253a2.9 2.9 0 0 1 .99.644c.29.276.513.606.666.989.17.368.254.767.254 1.196 0 .383-.07.744-.208 1.08a3.1 3.1 0 0 1-.505.875c.214.26.383.56.505.897a2.6 2.6 0 0 1 .208 1.035c0 .43-.085.828-.254 1.196-.153.368-.375.69-.666.966a3.21 3.21 0 0 1-.99.667c-.367.153-.766.23-1.195.23H81.54Zm-19.065-4.393c0 .552.031.974.093 1.265.06.291.206.437.437.437.122 0 .276-.046.46-.138.199-.107.444-.245.736-.414l10.534-6.44c.168-.107.352-.192.552-.253.214-.061.429-.092.644-.092.628 0 1.15.215 1.563.644.43.43.645.958.645 1.587v6.693c0 .307-.108.567-.323.782a1.064 1.064 0 0 1-.781.322c-.307 0-.568-.107-.783-.322a1.065 1.065 0 0 1-.322-.782v-4.531c0-.552-.03-.974-.091-1.265-.062-.291-.207-.437-.438-.437-.122 0-.283.054-.483.16-.183.093-.421.223-.713.392l-10.533 6.44c-.17.107-.36.192-.575.253-.2.061-.407.092-.621.092-.63 0-1.158-.215-1.587-.644-.414-.43-.621-.958-.621-1.587v-6.693c0-.307.107-.567.322-.782.214-.215.475-.322.782-.322.306 0 .567.107.782.322.214.215.322.475.322.782v4.53Zm-5.607-5.635c.306 0 .567.107.781.322.215.215.322.475.322.782 0 .291-.1.544-.299.759-.199.2-.437.314-.713.345h-4.623c-.46.03-.843.146-1.15.345a2.12 2.12 0 0 0-.69.69 2.659 2.659 0 0 0-.345.897 4.715 4.715 0 0 0-.092.874v3.91c0 .307-.107.567-.322.782a1.065 1.065 0 0 1-.782.322c-.306 0-.567-.107-.782-.322a1.064 1.064 0 0 1-.322-.782v-3.91c0-.475.062-.95.184-1.426.123-.49.307-.95.552-1.38h-7.544c-.306 0-.567-.107-.782-.322a1.064 1.064 0 0 1-.322-.782c0-.307.108-.567.322-.782.215-.215.476-.322.782-.322H56.87Zm-30.738 5.612h6.532l-2.369-3.174a3.486 3.486 0 0 0-.414-.391c-.153-.153-.314-.23-.483-.23-.169 0-.337.077-.506.23a2.799 2.799 0 0 0-.368.391l-2.392 3.174Zm8.188 2.208h-9.867l-1.334 1.794c-.23.276-.514.414-.85.414-.308 0-.568-.107-.783-.322a1.065 1.065 0 0 1-.322-.782c0-.276.077-.498.23-.667l5.59-7.521c.26-.353.605-.636 1.034-.851a2.985 2.985 0 0 1 2.691-.046c.414.2.751.475 1.012.828l5.59 7.475c.091.107.168.23.23.368a.93.93 0 0 1 .091.414c0 .307-.107.567-.322.782a1.065 1.065 0 0 1-.782.322c-.368 0-.66-.146-.874-.437l-1.334-1.771Zm-15.452 1.104c0 .307-.107.567-.322.782a1.065 1.065 0 0 1-.782.322c-.306 0-.567-.107-.782-.322a1.064 1.064 0 0 1-.322-.782v-2.806H3.067v2.806c0 .307-.107.567-.322.782a1.065 1.065 0 0 1-.782.322c-.306 0-.567-.107-.782-.322a1.064 1.064 0 0 1-.322-.782v-7.82c0-.307.108-.567.322-.782.215-.215.476-.322.782-.322.307 0 .568.107.782.322.215.215.322.475.322.782v2.806H16.66v-2.806c0-.307.108-.567.322-.782.215-.215.476-.322.782-.322.307 0 .568.107.782.322.215.215.322.475.322.782v7.82Zm274.553 33.175h6.532l-2.369-3.174a3.425 3.425 0 0 0-.414-.39c-.153-.154-.314-.23-.483-.23-.169 0-.337.076-.506.23a2.823 2.823 0 0 0-.368.39l-2.392 3.174Zm8.188 2.208h-9.867l-1.334 1.794c-.23.276-.514.414-.851.414-.307 0-.567-.107-.782-.322a1.063 1.063 0 0 1-.322-.782c0-.276.077-.498.23-.667l5.589-7.52a2.844 2.844 0 0 1 1.035-.852 2.985 2.985 0 0 1 2.691-.046c.414.2.751.476 1.012.828l5.589 7.475c.092.108.169.23.23.368a.92.92 0 0 1 .092.414c0 .307-.107.568-.322.782a1.065 1.065 0 0 1-.782.322 1.03 1.03 0 0 1-.874-.437l-1.334-1.77Zm-31.256-3.91h5.313c.797 0 1.579-.1 2.346-.299a14.43 14.43 0 0 0 2.231-.828c.736-.337 1.434-.72 2.093-1.15a39.16 39.16 0 0 0 1.932-1.31c.261-.215.521-.323.782-.323.307 0 .567.108.782.322.215.215.322.476.322.782a.951.951 0 0 1-.184.575 2.253 2.253 0 0 1-.437.414c-.399.307-.782.598-1.15.874-.368.26-.736.506-1.104.736-.368.23-.751.453-1.15.667-.383.215-.797.43-1.242.644.445.215.859.43 1.242.644.399.215.782.437 1.15.667.368.23.736.483 1.104.76.368.26.751.544 1.15.85.169.123.314.269.437.437a.854.854 0 0 1 .184.552c0 .307-.107.568-.322.782a1.065 1.065 0 0 1-.782.322c-.261 0-.521-.107-.782-.322a36.83 36.83 0 0 0-1.955-1.334 16.918 16.918 0 0 0-2.07-1.15 12.922 12.922 0 0 0-2.231-.805 9.29 9.29 0 0 0-2.346-.299h-5.313v2.806c0 .307-.107.568-.322.782a1.04 1.04 0 0 1-.759.322c-.307 0-.567-.107-.782-.322a1.064 1.064 0 0 1-.322-.782v-7.82c0-.306.107-.567.322-.782a1.04 1.04 0 0 1 .759-.322c.307 0 .567.108.782.322.215.215.322.476.322.782v2.806Zm-5.581-3.91c.306 0 .567.108.782.322.214.215.322.476.322.782 0 .292-.1.545-.299.76-.2.199-.437.314-.713.344h-4.623c-.46.03-.844.146-1.15.345a2.106 2.106 0 0 0-.69.69 2.646 2.646 0 0 0-.345.897 4.656 4.656 0 0 0-.092.874v3.91c0 .307-.108.568-.322.782a1.066 1.066 0 0 1-.782.322c-.307 0-.568-.107-.782-.322a1.064 1.064 0 0 1-.322-.782v-3.91c0-.475.061-.95.184-1.426.122-.49.306-.95.552-1.38h-7.544c-.307 0-.568-.107-.782-.322a1.064 1.064 0 0 1-.322-.782c0-.306.107-.567.322-.782.214-.214.475-.322.782-.322h15.824Zm-23.945 7.82c.522 0 .951-.092 1.288-.276.338-.2.598-.437.782-.713.2-.276.33-.575.391-.897.077-.337.115-.644.115-.92a3.87 3.87 0 0 0-.115-.897 2.221 2.221 0 0 0-.391-.92 2.15 2.15 0 0 0-.782-.69c-.337-.2-.766-.299-1.288-.299h-9.292c-.536 0-.973.1-1.311.3a2.448 2.448 0 0 0-.782.69 2.743 2.743 0 0 0-.391.92 4.842 4.842 0 0 0-.092.896c0 .276.031.583.092.92.077.322.207.621.391.897.2.276.46.514.782.713.338.184.775.276 1.311.276h9.292Zm4.715-2.806c0 .583-.099 1.173-.299 1.771a5.351 5.351 0 0 1-.828 1.61 4.65 4.65 0 0 1-1.334 1.173c-.521.307-1.111.46-1.771.46h-10.488a3.43 3.43 0 0 1-1.679-.506 4.954 4.954 0 0 1-1.265-1.196 5.684 5.684 0 0 1-.782-1.587 5.706 5.706 0 0 1-.276-1.725c0-.582.092-1.165.276-1.748.2-.598.483-1.134.851-1.61a4.52 4.52 0 0 1 1.334-1.196 3.436 3.436 0 0 1 1.771-.46h10.488a3.29 3.29 0 0 1 1.679.53c.491.306.905.697 1.242 1.172a5.35 5.35 0 0 1 .805 1.587 5.71 5.71 0 0 1 .276 1.725Zm-36.799 1.058v1.748h12.765c.23 0 .429-.084.598-.253a.786.786 0 0 0 .276-.598.742.742 0 0 0-.276-.598.818.818 0 0 0-.598-.253h-12.213c-.199 0-.383-.015-.552-.046Zm-2.208-4.968c0-.306.107-.567.322-.782.215-.214.475-.322.782-.322.077 0 .153.008.23.023h14.605c.307 0 .567.108.782.322.215.215.322.476.322.782 0 .307-.107.568-.322.782a1.065 1.065 0 0 1-.782.322h-13.731v.828a.835.835 0 0 0 .713.851h11.96c.429 0 .828.085 1.196.253.383.154.713.368.989.644.291.276.514.598.667.966.169.368.253.767.253 1.196 0 .43-.084.828-.253 1.196-.153.368-.376.69-.667.966a3.215 3.215 0 0 1-.989.667 3.08 3.08 0 0 1-1.196.23h-13.777c-.307 0-.567-.107-.782-.322a1.064 1.064 0 0 1-.322-.782c0-.092.008-.176.023-.253a1.318 1.318 0 0 1-.023-.253v-7.314Zm-13.809 4.508h6.532l-2.369-3.174a3.582 3.582 0 0 0-.414-.39c-.154-.154-.315-.23-.483-.23-.169 0-.338.076-.506.23a2.764 2.764 0 0 0-.368.39l-2.392 3.174Zm8.188 2.208h-9.867l-1.334 1.794c-.23.276-.514.414-.851.414-.307 0-.568-.107-.782-.322a1.063 1.063 0 0 1-.322-.782c0-.276.076-.498.23-.667l5.589-7.52a2.83 2.83 0 0 1 1.035-.852 2.985 2.985 0 0 1 2.691-.046c.414.2.751.476 1.012.828l5.589 7.475c.092.108.168.23.23.368a.92.92 0 0 1 .092.414c0 .307-.108.568-.322.782a1.066 1.066 0 0 1-.782.322c-.368 0-.66-.145-.874-.437l-1.334-1.77Zm-31.229-5.611v1.701h12.765a.86.86 0 0 0 .598-.23.81.81 0 0 0 .276-.62c0-.23-.092-.43-.276-.599a.818.818 0 0 0-.598-.253h-12.765Zm12.673-2.209c.429 0 .828.085 1.196.253.383.154.713.368.989.644.291.276.513.598.667.966.168.368.253.767.253 1.196 0 .43-.085.828-.253 1.196-.154.368-.376.69-.667.966a3.215 3.215 0 0 1-.989.667 3.08 3.08 0 0 1-1.196.23h-12.673v2.806c0 .307-.115.568-.345.782a1.04 1.04 0 0 1-.759.322c-.307 0-.568-.107-.782-.322a1.064 1.064 0 0 1-.322-.782v-7.82c0-.306.107-.567.322-.782.214-.214.475-.322.782-.322h13.777Zm-32.677 5.014c0-.306.107-.567.322-.782.214-.214.475-.322.782-.322h11.431c.23 0 .429-.084.598-.253a.847.847 0 0 0 .253-.62.747.747 0 0 0-.253-.576.818.818 0 0 0-.598-.253h-14.053c-.307 0-.568-.107-.782-.322a1.064 1.064 0 0 1-.322-.782c0-.306.107-.567.322-.782.214-.214.475-.322.782-.322h13.938c.429 0 .828.077 1.196.23a2.91 2.91 0 0 1 1.633 1.61c.168.368.253.767.253 1.196 0 .384-.069.744-.207 1.081a2.78 2.78 0 0 1-.529.897c.49.583.736 1.242.736 1.978 0 .43-.085.828-.253 1.196a2.911 2.911 0 0 1-1.633 1.61 3.08 3.08 0 0 1-1.196.23h-13.938c-.307 0-.568-.107-.782-.322a1.064 1.064 0 0 1-.322-.782c0-.306.107-.567.322-.782.214-.214.475-.322.782-.322h14.053a.86.86 0 0 0 .598-.23.82.82 0 0 0 .253-.598.847.847 0 0 0-.253-.62.818.818 0 0 0-.598-.254h-11.431c-.307 0-.568-.107-.782-.322a1.063 1.063 0 0 1-.322-.782Zm-16.432.598h6.532l-2.369-3.174a3.425 3.425 0 0 0-.414-.39c-.153-.154-.314-.23-.483-.23-.168 0-.337.076-.506.23a2.823 2.823 0 0 0-.368.39l-2.392 3.174Zm8.188 2.208h-9.867l-1.334 1.794c-.23.276-.513.414-.851.414-.306 0-.567-.107-.782-.322a1.067 1.067 0 0 1-.322-.782c0-.276.077-.498.23-.667l5.589-7.52a2.844 2.844 0 0 1 1.035-.852 2.985 2.985 0 0 1 2.691-.046c.414.2.752.476 1.012.828l5.589 7.475c.092.108.169.23.23.368a.906.906 0 0 1 .092.414c0 .307-.107.568-.322.782a1.063 1.063 0 0 1-.782.322 1.03 1.03 0 0 1-.874-.437l-1.334-1.77Zm-31.229-5.611v1.701h12.765a.86.86 0 0 0 .598-.23.81.81 0 0 0 .276-.62c0-.23-.092-.43-.276-.599a.818.818 0 0 0-.598-.253h-12.765Zm12.673-2.209c.429 0 .828.085 1.196.253.383.154.713.368.989.644a2.8 2.8 0 0 1 .667.966c.169.368.253.767.253 1.196 0 .43-.084.828-.253 1.196-.153.368-.376.69-.667.966a3.215 3.215 0 0 1-.989.667 3.08 3.08 0 0 1-1.196.23h-12.673v2.806c0 .307-.115.568-.345.782a1.04 1.04 0 0 1-.759.322c-.307 0-.567-.107-.782-.322a1.064 1.064 0 0 1-.322-.782v-7.82c0-.306.107-.567.322-.782.215-.214.475-.322.782-.322h13.777Zm239.758 45.413c0 .306-.108.567-.322.782a1.069 1.069 0 0 1-.782.322c-.307 0-.568-.108-.782-.322a1.065 1.065 0 0 1-.322-.782V97.18c0-.63-.039-.944-.115-.944-.062 0-.276.207-.644.621l-5.06 5.751c-.2.23-.445.406-.736.529a2.719 2.719 0 0 1-.943.161 2.71 2.71 0 0 1-.943-.161 1.966 1.966 0 0 1-.736-.529l-5.06-5.75c-.353-.415-.568-.621-.644-.621-.077 0-.115.314-.115.943v5.014c0 .306-.108.567-.322.782a1.069 1.069 0 0 1-.782.322c-.307 0-.568-.108-.782-.322a1.065 1.065 0 0 1-.322-.782v-6.716c0-.614.176-1.135.529-1.564.352-.43.835-.645 1.449-.645.368 0 .697.093.989.276.291.184.559.407.805.668l5.29 6.026c.076.076.168.161.276.253a.693.693 0 0 0 .368.115.59.59 0 0 0 .345-.115c.122-.092.222-.177.299-.253l5.267-6.026h.023c.214-.292.475-.522.782-.69a2.064 2.064 0 0 1 1.012-.254c.613 0 1.096.215 1.449.644.352.43.529.951.529 1.565v6.716Zm-27.688-1.104a.82.82 0 0 0 .598-.253.786.786 0 0 0 .276-.598.742.742 0 0 0-.276-.599.817.817 0 0 0-.598-.252h-9.798v1.702h9.798Zm-10.902 2.208c-.306 0-.567-.108-.782-.322a1.069 1.069 0 0 1-.322-.782v-7.82c0-.307.108-.568.322-.782.215-.215.476-.323.782-.323.292 0 .545.108.759.322.23.215.345.476.345.783v2.806h9.706c.43 0 .828.084 1.196.252.384.154.713.368.989.644a2.8 2.8 0 0 1 .667.967c.169.367.253.766.253 1.196 0 .429-.084.828-.253 1.196-.153.368-.375.69-.667.966a3.208 3.208 0 0 1-.989.667c-.368.153-.766.23-1.196.23h-10.81Zm16.882-8.924c0-.307-.107-.568-.322-.782a1.063 1.063 0 0 0-.782-.323c-.306 0-.567.108-.782.322a1.067 1.067 0 0 0-.322.783v7.866c0 .306.108.567.322.782.215.214.476.322.782.322.307 0 .568-.108.782-.322.215-.215.322-.476.322-.782v-7.866Zm-20.281 7.82c0 .306-.108.567-.322.782a1.069 1.069 0 0 1-.782.322c-.307 0-.568-.108-.782-.322a1.065 1.065 0 0 1-.322-.782v-2.806h-13.593v2.806c0 .306-.108.567-.322.782a1.069 1.069 0 0 1-.782.322c-.307 0-.568-.108-.782-.322a1.065 1.065 0 0 1-.322-.782v-7.82c0-.307.107-.568.322-.782.214-.215.475-.323.782-.323.306 0 .567.108.782.322.214.215.322.476.322.783v2.806h13.593v-2.806c0-.307.107-.568.322-.782.214-.215.475-.323.782-.323.306 0 .567.108.782.322.214.215.322.476.322.783v7.82Zm-23.318-1.104a.82.82 0 0 0 .598-.253.786.786 0 0 0 .276-.598.742.742 0 0 0-.276-.599.817.817 0 0 0-.598-.252h-12.765v1.702h12.765Zm-13.869 2.208c-.306 0-.567-.108-.782-.322a1.069 1.069 0 0 1-.322-.782v-7.82c0-.307.108-.568.322-.782.215-.215.476-.323.782-.323.292 0 .545.108.759.322.23.215.345.476.345.783v2.806h12.673c.43 0 .828.084 1.196.252.384.154.713.368.989.644a2.8 2.8 0 0 1 .667.967c.169.367.253.766.253 1.196 0 .429-.084.828-.253 1.196-.153.368-.375.69-.667.966a3.208 3.208 0 0 1-.989.667c-.368.153-.766.23-1.196.23h-13.777Zm-17.926-.414c-.23.276-.514.414-.851.414-.307 0-.567-.108-.782-.322a1.065 1.065 0 0 1-.322-.782c0-.276.077-.499.23-.667l5.589-7.521a2.843 2.843 0 0 1 1.035-.851 2.984 2.984 0 0 1 2.691-.046c.414.199.751.475 1.012.828l5.589 7.475c.092.107.169.23.23.368.061.122.092.26.092.414 0 .306-.107.567-.322.782a1.067 1.067 0 0 1-.782.322 1.03 1.03 0 0 1-.874-.437l-5.359-7.153a3.425 3.425 0 0 0-.414-.391c-.153-.154-.314-.23-.483-.23-.169 0-.337.076-.506.23a2.823 2.823 0 0 0-.368.39l-5.405 7.177Zm-15.764-4.002h6.532l-2.369-3.174a3.582 3.582 0 0 0-.414-.391c-.154-.154-.315-.23-.483-.23-.169 0-.338.076-.506.23a2.764 2.764 0 0 0-.368.39l-2.392 3.175Zm8.188 2.208h-9.867l-1.334 1.794c-.23.276-.514.414-.851.414-.307 0-.568-.108-.782-.322a1.065 1.065 0 0 1-.322-.782c0-.276.076-.499.23-.667l5.589-7.521c.26-.353.605-.637 1.035-.851a2.984 2.984 0 0 1 2.691-.046c.414.199.751.475 1.012.828l5.589 7.475c.092.107.168.23.23.368.061.122.092.26.092.414 0 .306-.108.567-.322.782a1.069 1.069 0 0 1-.782.322c-.368 0-.66-.146-.874-.437l-1.334-1.771Zm-17.659-2.646h-12.65c-.429 0-.835-.076-1.219-.23a3.532 3.532 0 0 1-1.012-.667 3.104 3.104 0 0 1-.69-.966 2.846 2.846 0 0 1-.253-1.196v-1.08c0-.308.108-.568.322-.783.215-.215.476-.322.782-.322.307 0 .568.108.782.322.215.215.322.475.322.782v1.081c0 .245.085.453.253.621.184.153.391.23.621.23h12.742v-1.932c0-.306.108-.567.322-.782.215-.215.476-.322.782-.322.307 0 .568.108.782.322.215.215.322.475.322.782v4.232c0 .077-.007.153-.023.23a6.44 6.44 0 0 1-.276 1.288 5.443 5.443 0 0 1-.851 1.587c-.383.491-.843.89-1.38 1.196a3.544 3.544 0 0 1-1.794.46H227.79a3.59 3.59 0 0 1-1.495-.322 4.035 4.035 0 0 1-1.219-.874 3.918 3.918 0 0 1-.828-1.219c-.153-.72-.115-1.188.115-1.403a1.04 1.04 0 0 1 .759-.322c.307 0 .568.108.782.322.215.215.361.483.437.805.077.307.476.529 1.196.667.292.092.598.138.92.138h9.269c.506 0 .92-.084 1.242-.253.338-.168.606-.383.805-.644a2.51 2.51 0 0 0 .391-.85c.092-.308.138-.599.138-.875v-.023Zm-29.409 3.957c0-.399.138-.736.414-1.012a1.378 1.378 0 0 1 1.012-.414c.399 0 .736.138 1.012.414.276.276.414.613.414 1.012 0 .398-.138.736-.414 1.012a1.376 1.376 0 0 1-1.012.414c-.398 0-.736-.138-1.012-.414a1.378 1.378 0 0 1-.414-1.012Zm-3.565-.782h.575c.307 0 .568.107.782.322.215.214.322.475.322.782 0 .306-.107.567-.322.782a1.066 1.066 0 0 1-.782.322h-4.899a1.17 1.17 0 0 1-.713-.345 1.081 1.081 0 0 1-.299-.759c0-.307.108-.568.322-.782.215-.215.476-.322.782-.322h1.495l5.405-7.222a2.947 2.947 0 0 1 1.012-.829 2.99 2.99 0 0 1 1.311-.299c.491 0 .943.115 1.357.346.43.214.782.498 1.058.85l5.313 7.154h1.38c.307 0 .568.107.782.322.215.214.322.475.322.782 0 .306-.107.567-.322.782a1.066 1.066 0 0 1-.782.322h-4.899a1.17 1.17 0 0 1-.713-.345 1.081 1.081 0 0 1-.299-.759c0-.307.108-.568.322-.782.215-.215.476-.322.782-.322h.69l-4.117-5.451a2.33 2.33 0 0 0-.391-.392c-.153-.153-.314-.23-.483-.23-.168 0-.337.077-.506.23a4.857 4.857 0 0 0-.391.392l-4.094 5.451Zm-23.229-2.715c0 .553.03.974.092 1.266.061.291.207.437.437.437.122 0 .276-.046.46-.138.199-.108.444-.246.736-.414l10.534-6.44c.168-.108.352-.192.552-.253a2.33 2.33 0 0 1 .644-.093c.628 0 1.15.215 1.564.644.429.43.644.959.644 1.588v6.693c0 .306-.108.567-.322.782a1.069 1.069 0 0 1-.782.322c-.307 0-.568-.108-.782-.322a1.065 1.065 0 0 1-.322-.782v-4.532c0-.552-.031-.973-.092-1.265-.062-.29-.207-.437-.437-.437-.123 0-.284.054-.483.162a13.39 13.39 0 0 0-.713.39l-10.534 6.441a2.227 2.227 0 0 1-.575.253c-.2.061-.407.092-.621.092-.629 0-1.158-.215-1.587-.644-.414-.43-.621-.959-.621-1.587v-6.693c0-.307.107-.568.322-.782.214-.215.475-.323.782-.323.306 0 .567.108.782.322.214.215.322.476.322.783v4.53Zm-20.282 2.186h12.765a.82.82 0 0 0 .598-.253.786.786 0 0 0 .276-.598.742.742 0 0 0-.276-.599.817.817 0 0 0-.598-.252h-12.765v1.702Zm0-5.612v1.702h12.788a.86.86 0 0 0 .598-.23.77.77 0 0 0 .253-.599.783.783 0 0 0-.276-.597.785.785 0 0 0-.598-.276h-12.765Zm-1.104 7.82c-.306 0-.567-.108-.782-.322a1.069 1.069 0 0 1-.322-.782v-7.82c0-.307.108-.568.322-.782.215-.215.476-.323.782-.323h13.777c.43 0 .828.085 1.196.253.384.154.713.368.989.644.292.276.514.606.667.99.169.367.253.766.253 1.195 0 .384-.069.744-.207 1.082a3.077 3.077 0 0 1-.506.873c.215.261.384.56.506.898a2.6 2.6 0 0 1 .207 1.035c0 .429-.084.828-.253 1.196-.153.368-.375.69-.667.966a3.208 3.208 0 0 1-.989.667c-.368.153-.766.23-1.196.23h-13.777Zm-19.067-4.394c0 .553.03.974.091 1.266.062.291.207.437.437.437.123 0 .276-.046.46-.138.2-.108.445-.246.736-.414l10.535-6.44c.168-.108.352-.192.552-.253a2.33 2.33 0 0 1 .644-.093c.628 0 1.149.215 1.563.644.43.43.644.959.644 1.588v6.693c0 .306-.107.567-.321.782a1.069 1.069 0 0 1-.782.322 1.07 1.07 0 0 1-.783-.322 1.068 1.068 0 0 1-.321-.782v-4.532c0-.552-.031-.973-.092-1.265-.062-.29-.208-.437-.438-.437-.122 0-.283.054-.483.162-.184.091-.421.222-.713.39l-10.534 6.441c-.168.107-.36.191-.574.253-.2.061-.407.092-.621.092-.629 0-1.158-.215-1.587-.644-.414-.43-.621-.959-.621-1.587v-6.693c0-.307.107-.568.321-.782.215-.215.476-.323.782-.323.307 0 .568.108.783.322.214.215.322.476.322.783v4.53Zm-15.792 3.497c0-.399.138-.736.414-1.012a1.376 1.376 0 0 1 1.012-.414c.399 0 .736.138 1.012.414.276.276.414.613.414 1.012 0 .398-.138.736-.414 1.012a1.376 1.376 0 0 1-1.012.414c-.399 0-.736-.138-1.012-.414a1.378 1.378 0 0 1-.414-1.012Zm-3.565-.782h.575c.307 0 .567.107.782.322.215.214.322.475.322.782 0 .306-.107.567-.322.782a1.067 1.067 0 0 1-.782.322h-4.899a1.167 1.167 0 0 1-.713-.345 1.081 1.081 0 0 1-.299-.759c0-.307.107-.568.322-.782.215-.215.475-.322.782-.322h1.495l5.405-7.222a2.938 2.938 0 0 1 1.012-.829 2.99 2.99 0 0 1 1.311-.299c.491 0 .943.115 1.357.346a3.06 3.06 0 0 1 1.058.85l5.313 7.154h1.38c.307 0 .567.107.782.322.215.214.322.475.322.782 0 .306-.107.567-.322.782a1.067 1.067 0 0 1-.782.322h-4.899a1.167 1.167 0 0 1-.713-.345 1.081 1.081 0 0 1-.299-.759c0-.307.107-.568.322-.782.215-.215.475-.322.782-.322h.69l-4.117-5.451a2.33 2.33 0 0 0-.391-.392c-.153-.153-.314-.23-.483-.23-.169 0-.337.077-.506.23a4.698 4.698 0 0 0-.391.392l-4.094 5.451Zm-7.561.575c0 .306-.108.567-.322.782a1.069 1.069 0 0 1-.782.322c-.307 0-.568-.108-.782-.322a1.065 1.065 0 0 1-.322-.782v-2.806h-13.593v2.806c0 .306-.108.567-.322.782a1.069 1.069 0 0 1-.782.322c-.307 0-.568-.108-.782-.322a1.066 1.066 0 0 1-.322-.782v-7.82c0-.307.107-.568.322-.782.214-.215.475-.323.782-.323.306 0 .567.108.782.322.214.215.322.476.322.783v2.806h13.593v-2.806c0-.307.107-.568.322-.782.214-.215.475-.323.782-.323.306 0 .567.108.782.322.214.215.322.476.322.783v7.82Zm-35.973-3.29c0 .553.03.974.092 1.266.061.291.207.437.437.437.122 0 .276-.046.46-.138.2-.108.445-.246.736-.414l10.534-6.44c.169-.108.353-.192.552-.253.215-.062.43-.093.644-.093.629 0 1.15.215 1.564.644.43.43.644.959.644 1.588v6.693c0 .306-.108.567-.322.782a1.067 1.067 0 0 1-.782.322c-.307 0-.567-.108-.782-.322a1.066 1.066 0 0 1-.322-.782v-4.532c0-.552-.03-.973-.092-1.265-.061-.29-.207-.437-.437-.437-.123 0-.284.054-.483.162a13.39 13.39 0 0 0-.713.39l-10.534 6.441c-.169.107-.36.191-.575.253-.2.061-.407.092-.621.092-.629 0-1.158-.215-1.587-.644-.414-.43-.621-.959-.621-1.587v-6.693c0-.307.107-.568.322-.782.215-.215.475-.323.782-.323.306 0 .567.108.782.322.214.215.322.476.322.783v4.53Zm-19.576 2.186c.521 0 .95-.092 1.288-.276.337-.2.598-.437.782-.713.2-.276.33-.576.39-.897.078-.338.116-.644.116-.92 0-.277-.038-.576-.115-.898a2.236 2.236 0 0 0-.391-.92 2.156 2.156 0 0 0-.782-.69c-.337-.199-.767-.298-1.288-.298h-9.292c-.537 0-.974.1-1.311.299a2.441 2.441 0 0 0-.782.69 2.735 2.735 0 0 0-.391.92 4.808 4.808 0 0 0-.092.897c0 .275.03.582.092.92.077.322.207.62.39.897.2.276.46.513.783.713.337.184.774.276 1.31.276h9.293Zm4.715-2.806c0 .582-.1 1.172-.3 1.771a5.362 5.362 0 0 1-.827 1.61 4.668 4.668 0 0 1-1.334 1.173 3.434 3.434 0 0 1-1.771.46H51.174a3.436 3.436 0 0 1-1.68-.506 4.941 4.941 0 0 1-1.264-1.196 5.69 5.69 0 0 1-.782-1.587 5.711 5.711 0 0 1-.276-1.725c0-.583.092-1.166.276-1.749.2-.597.483-1.134.85-1.61a4.52 4.52 0 0 1 1.335-1.195c.521-.307 1.111-.46 1.77-.46h10.489a3.29 3.29 0 0 1 1.679.529c.49.306.904.697 1.242 1.172.352.476.62 1.005.805 1.587a5.71 5.71 0 0 1 .276 1.725Zm-23.231 0c0-.277-.038-.576-.115-.898a2.234 2.234 0 0 0-.391-.92 2.156 2.156 0 0 0-.782-.69c-.337-.199-.767-.298-1.288-.298h-8.303c-.537 0-.974.1-1.311.299a2.441 2.441 0 0 0-.782.69 2.737 2.737 0 0 0-.391.92 4.817 4.817 0 0 0-.092.897v3.91c0 .306-.107.567-.322.782a1.067 1.067 0 0 1-.782.322c-.307 0-.567-.108-.782-.322a1.066 1.066 0 0 1-.322-.782v-3.91c0-.583.092-1.166.276-1.749.2-.597.483-1.134.851-1.61.368-.49.813-.889 1.334-1.195.521-.307 1.112-.46 1.771-.46h9.637c.629.03 1.188.207 1.679.529.49.306.905.697 1.242 1.172a5.35 5.35 0 0 1 .805 1.587 5.71 5.71 0 0 1 .276 1.725v3.911c0 .306-.107.567-.322.782a1.067 1.067 0 0 1-.782.322c-.307 0-.567-.108-.782-.322a1.066 1.066 0 0 1-.322-.782v-3.91Zm257.304 40.926c0 .307-.108.567-.322.782a1.065 1.065 0 0 1-.782.322c-.307 0-.568-.107-.782-.322a1.063 1.063 0 0 1-.322-.782v-5.014c0-.629-.039-.943-.115-.943-.062 0-.276.207-.644.621l-5.06 5.75c-.2.23-.445.406-.736.529a2.719 2.719 0 0 1-.943.161 2.71 2.71 0 0 1-.943-.161 1.966 1.966 0 0 1-.736-.529l-5.06-5.75c-.353-.414-.568-.621-.644-.621-.077 0-.115.314-.115.943v5.014c0 .307-.108.567-.322.782a1.065 1.065 0 0 1-.782.322c-.307 0-.568-.107-.782-.322a1.063 1.063 0 0 1-.322-.782v-6.716c0-.613.176-1.135.529-1.564.352-.429.835-.644 1.449-.644.368 0 .697.092.989.276.291.184.559.406.805.667l5.29 6.026c.076.077.168.161.276.253a.684.684 0 0 0 .368.115.583.583 0 0 0 .345-.115c.122-.092.222-.176.299-.253l5.267-6.026h.023c.214-.291.475-.521.782-.69a2.06 2.06 0 0 1 1.012-.253c.613 0 1.096.215 1.449.644.352.429.529.951.529 1.564v6.716Zm-39.697 0c0-.215.076-.422.23-.621a9.24 9.24 0 0 1 1.863-2.047 8.814 8.814 0 0 1 2.369-1.357 12.878 12.878 0 0 1 2.967-.759 26.421 26.421 0 0 1 3.657-.23h4.692V133a.585.585 0 0 0-.23-.345.71.71 0 0 0-.483-.161h-12.052a1.065 1.065 0 0 0-.575.276.777.777 0 0 0-.23.575c0 .307-.108.567-.322.782a1.065 1.065 0 0 1-.782.322c-.307 0-.568-.107-.782-.322a1.063 1.063 0 0 1-.322-.782c0-.429.084-.828.253-1.196.168-.368.398-.69.69-.966a3.15 3.15 0 0 1 1.012-.644 2.985 2.985 0 0 1 1.219-.253h12.006c.337 0 .674.077 1.012.23.337.138.636.337.897.598.26.261.475.575.644.943.168.368.253.782.253 1.242v5.911c0 .307-.108.567-.322.782a1.065 1.065 0 0 1-.782.322c-.292 0-.552-.107-.782-.322a1.063 1.063 0 0 1-.322-.782v-2.806h-4.692c-.936 0-1.817.031-2.645.092a9.569 9.569 0 0 0-2.323.414 8.35 8.35 0 0 0-2.116 1.012c-.66.445-1.304 1.058-1.932 1.84a2.335 2.335 0 0 1-.207.23 1.714 1.714 0 0 1-.345.23.92.92 0 0 1-.414.092c-.307 0-.568-.107-.782-.322a1.063 1.063 0 0 1-.322-.782Zm-17.96-3.289c0 .552.03.974.092 1.265.061.291.207.437.437.437.122 0 .276-.046.46-.138.199-.107.444-.245.736-.414l10.534-6.44c.168-.107.352-.192.552-.253.214-.061.429-.092.644-.092.628 0 1.15.215 1.564.644.429.429.644.958.644 1.587v6.693c0 .307-.108.567-.322.782a1.065 1.065 0 0 1-.782.322c-.307 0-.568-.107-.782-.322a1.063 1.063 0 0 1-.322-.782v-4.531c0-.552-.031-.974-.092-1.265-.062-.291-.207-.437-.437-.437-.123 0-.284.054-.483.161-.184.092-.422.222-.713.391l-10.534 6.44a2.194 2.194 0 0 1-.575.253c-.2.061-.407.092-.621.092-.629 0-1.158-.215-1.587-.644-.414-.429-.621-.958-.621-1.587v-6.693c0-.307.107-.567.322-.782.214-.215.475-.322.782-.322.306 0 .567.107.782.322.214.215.322.475.322.782v4.531Zm-4.504 3.289c0 .307-.107.567-.322.782a1.063 1.063 0 0 1-.782.322c-.307 0-.567-.107-.782-.322a1.063 1.063 0 0 1-.322-.782v-2.806h-13.593v2.806c0 .307-.107.567-.322.782a1.063 1.063 0 0 1-.782.322c-.307 0-.567-.107-.782-.322a1.063 1.063 0 0 1-.322-.782v-7.82c0-.307.107-.567.322-.782.215-.215.475-.322.782-.322.307 0 .567.107.782.322.215.215.322.475.322.782v2.806h13.593v-2.806c0-.307.107-.567.322-.782.215-.215.475-.322.782-.322.307 0 .567.107.782.322.215.215.322.475.322.782v7.82Zm-31.818-3.312h6.532l-2.369-3.174a3.643 3.643 0 0 0-.414-.391c-.154-.153-.315-.23-.483-.23-.169 0-.338.077-.506.23a2.802 2.802 0 0 0-.368.391l-2.392 3.174Zm8.188 2.208h-9.867l-1.334 1.794c-.23.276-.514.414-.851.414-.307 0-.568-.107-.782-.322a1.062 1.062 0 0 1-.322-.782c0-.276.076-.498.23-.667l5.589-7.521c.26-.352.605-.636 1.035-.851.429-.23.889-.345 1.38-.345.46 0 .897.1 1.311.299.414.2.751.476 1.012.828l5.589 7.475c.092.108.168.23.23.368a.92.92 0 0 1 .092.414c0 .307-.108.568-.322.782a1.065 1.065 0 0 1-.782.322c-.368 0-.66-.145-.874-.437l-1.334-1.771Zm-31.234 0h12.765c.23 0 .43-.084.598-.253a.786.786 0 0 0 .276-.598.742.742 0 0 0-.276-.598.815.815 0 0 0-.598-.253h-12.765v1.702Zm0-5.612v1.702h12.788a.86.86 0 0 0 .598-.23.77.77 0 0 0 .253-.598.786.786 0 0 0-.276-.598.785.785 0 0 0-.598-.276h-12.765Zm-1.104 7.82c-.306 0-.567-.107-.782-.322a1.067 1.067 0 0 1-.322-.782v-7.82c0-.307.108-.567.322-.782.215-.215.476-.322.782-.322h13.777c.43 0 .828.084 1.196.253.384.153.713.368.989.644.292.276.514.606.667.989.169.368.253.767.253 1.196 0 .383-.069.744-.207 1.081a3.082 3.082 0 0 1-.506.874c.215.261.384.56.506.897a2.6 2.6 0 0 1 .207 1.035c0 .429-.084.828-.253 1.196-.153.368-.375.69-.667.966a3.208 3.208 0 0 1-.989.667c-.368.153-.766.23-1.196.23h-13.777Zm-8.12-2.208c.521 0 .951-.092 1.288-.276a2.36 2.36 0 0 0 .782-.713 2.23 2.23 0 0 0 .391-.897c.077-.337.115-.644.115-.92a3.87 3.87 0 0 0-.115-.897 2.236 2.236 0 0 0-.391-.92 2.159 2.159 0 0 0-.782-.69c-.337-.199-.767-.299-1.288-.299h-9.292c-.537 0-.974.1-1.311.299a2.438 2.438 0 0 0-.782.69 2.745 2.745 0 0 0-.391.92 4.842 4.842 0 0 0-.092.897c0 .276.031.583.092.92.077.322.207.621.391.897.199.276.46.514.782.713.337.184.774.276 1.311.276h9.292Zm4.715-2.806c0 .583-.1 1.173-.299 1.771a5.35 5.35 0 0 1-.828 1.61 4.672 4.672 0 0 1-1.334 1.173c-.521.307-1.112.46-1.771.46h-10.488a3.426 3.426 0 0 1-1.679-.506 4.943 4.943 0 0 1-1.265-1.196 5.674 5.674 0 0 1-.782-1.587 5.71 5.71 0 0 1-.276-1.725c0-.583.092-1.165.276-1.748a5.381 5.381 0 0 1 .851-1.61 4.52 4.52 0 0 1 1.334-1.196c.521-.307 1.112-.46 1.771-.46h10.488a3.297 3.297 0 0 1 1.679.529c.491.307.905.698 1.242 1.173.353.475.621 1.004.805 1.587a5.71 5.71 0 0 1 .276 1.725Zm-36.795 1.058v1.748h12.765c.23 0 .429-.084.598-.253a.786.786 0 0 0 .276-.598.742.742 0 0 0-.276-.598.817.817 0 0 0-.598-.253H142.19c-.2 0-.384-.015-.552-.046Zm-2.208-4.968c0-.307.107-.567.322-.782.214-.215.475-.322.782-.322.076 0 .153.008.23.023h14.605c.306 0 .567.107.782.322.214.215.322.475.322.782 0 .307-.108.567-.322.782a1.065 1.065 0 0 1-.782.322h-13.731v.828a.835.835 0 0 0 .713.851h11.96c.429 0 .828.084 1.196.253.383.153.713.368.989.644.291.276.513.598.667.966.168.368.253.767.253 1.196 0 .429-.085.828-.253 1.196-.154.368-.376.69-.667.966a3.22 3.22 0 0 1-.989.667c-.368.153-.767.23-1.196.23h-13.777c-.307 0-.568-.107-.782-.322a1.063 1.063 0 0 1-.322-.782c0-.092.007-.176.023-.253a1.245 1.245 0 0 1-.023-.253v-7.314Zm-20.821 0c0-.307.108-.567.322-.782.215-.215.476-.322.782-.322h16.307c.307 0 .568.107.782.322.215.215.322.475.322.782 0 .307-.107.567-.322.782a1.062 1.062 0 0 1-.782.322h-16.307c-.306 0-.567-.107-.782-.322a1.067 1.067 0 0 1-.322-.782Zm2.806 8.924c-.337 0-.674-.069-1.012-.207a3.03 3.03 0 0 1-.897-.621 3.232 3.232 0 0 1-.644-.943 2.958 2.958 0 0 1-.253-1.242v-2.07c0-.414.115-.69.345-.828.246-.138.621-.207 1.127-.207h15.433c.307 0 .568.107.782.322.215.215.322.475.322.782 0 .307-.107.567-.322.782a1.062 1.062 0 0 1-.782.322h-14.697v1.127c0 .153.062.291.184.414a.84.84 0 0 0 .529.161h14.49c.307 0 .568.107.782.322.215.215.322.475.322.782 0 .307-.107.567-.322.782a1.062 1.062 0 0 1-.782.322h-14.605Zm-20.879-7.82v1.702h12.765c.23 0 .429-.077.598-.23a.81.81 0 0 0 0-1.219.817.817 0 0 0-.598-.253h-12.765Zm12.673-2.208c.429 0 .828.084 1.196.253.383.153.713.368.989.644.291.276.514.598.667.966.169.368.253.767.253 1.196 0 .429-.084.828-.253 1.196-.153.368-.376.69-.667.966a3.22 3.22 0 0 1-.989.667c-.368.153-.767.23-1.196.23h-12.673v2.806c0 .307-.115.567-.345.782a1.036 1.036 0 0 1-.759.322c-.306 0-.567-.107-.782-.322a1.065 1.065 0 0 1-.322-.782v-7.82c0-.307.108-.567.322-.782.215-.215.475-.322.782-.322h13.777Zm-18.281 0c.307 0 .567.107.782.322.215.215.322.475.322.782 0 .291-.1.544-.299.759a1.17 1.17 0 0 1-.713.345h-4.623c-.46.031-.843.146-1.15.345a2.12 2.12 0 0 0-.69.69 2.659 2.659 0 0 0-.345.897 4.712 4.712 0 0 0-.092.874v3.91c0 .307-.107.567-.322.782a1.063 1.063 0 0 1-.782.322c-.307 0-.567-.107-.782-.322a1.065 1.065 0 0 1-.322-.782v-3.91c0-.475.061-.951.184-1.426.123-.491.307-.951.552-1.38h-7.544c-.307 0-.567-.107-.782-.322a1.065 1.065 0 0 1-.322-.782c0-.307.107-.567.322-.782.215-.215.475-.322.782-.322h15.824ZM7.796 174.168c-1.465 0-2.693-.49-3.682-1.47-.98-.989-1.47-2.212-1.47-3.668s.49-2.674 1.47-3.654c.99-.989 2.217-1.484 3.682-1.484 1.195 0 2.226.336 3.094 1.008.877.672 1.433 1.484 1.666 2.436h-1.372c-.233-.644-.658-1.171-1.274-1.582-.607-.42-1.311-.63-2.114-.63-1.101 0-2.02.378-2.758 1.134-.728.747-1.092 1.671-1.092 2.772 0 1.101.364 2.03 1.092 2.786.737.747 1.657 1.12 2.758 1.12.803 0 1.507-.205 2.114-.616.616-.42 1.04-.952 1.274-1.596h1.372c-.233.952-.789 1.764-1.666 2.436-.868.672-1.9 1.008-3.094 1.008Zm9.48-.028c-1.055 0-1.933-.35-2.633-1.05-.69-.709-1.036-1.573-1.036-2.59s.346-1.876 1.036-2.576c.7-.709 1.578-1.064 2.632-1.064 1.046 0 1.914.355 2.604 1.064.7.7 1.05 1.559 1.05 2.576 0 1.017-.35 1.881-1.05 2.59-.69.7-1.559 1.05-2.604 1.05Zm-1.765-1.848c.458.485 1.046.728 1.764.728.719 0 1.302-.243 1.75-.728.448-.485.672-1.083.672-1.792 0-.709-.224-1.307-.672-1.792-.448-.485-1.031-.728-1.75-.728-.718 0-1.306.243-1.764.728-.448.485-.672 1.083-.672 1.792 0 .709.224 1.307.672 1.792Zm9.372 1.848c-.718 0-1.348-.177-1.89-.532A2.273 2.273 0 0 1 22 172.11h1.218c.234.672.79 1.008 1.666 1.008.514 0 .901-.107 1.162-.322.262-.215.392-.495.392-.84s-.13-.616-.392-.812c-.252-.196-.616-.294-1.092-.294h-.812v-.98h.812c.383 0 .686-.084.91-.252.234-.168.35-.415.35-.742a.867.867 0 0 0-.364-.742c-.242-.177-.569-.266-.98-.266-.812 0-1.32.327-1.526.98h-1.19c.131-.644.448-1.134.952-1.47.504-.345 1.097-.518 1.778-.518.784 0 1.396.187 1.834.56.44.364.658.826.658 1.386 0 .681-.289 1.19-.868 1.526.766.345 1.148.919 1.148 1.722 0 .588-.242 1.083-.728 1.484-.485.401-1.166.602-2.044.602Zm3.884-1.246h.168c.672 0 1.008-.756 1.008-2.268V167H35.5v5.894h1.05v2.87h-1.134V174H29.9v1.764h-1.134v-2.87Zm2.38-4.788v2.716c0 .877-.145 1.568-.434 2.072h3.584v-4.788h-3.15Zm9.803 6.034a3.22 3.22 0 0 1-2.45-1.064c-.654-.709-.98-1.568-.98-2.576s.326-1.867.98-2.576a3.222 3.222 0 0 1 2.45-1.064 3 3 0 0 1 1.428.35c.448.224.793.513 1.036.868V167h1.204v7h-1.204v-1.078c-.243.355-.588.649-1.036.882a3.094 3.094 0 0 1-1.428.336Zm.182-1.106c.69 0 1.26-.243 1.708-.728.448-.485.672-1.087.672-1.806 0-.719-.224-1.321-.672-1.806-.448-.485-1.018-.728-1.708-.728-.7 0-1.274.243-1.722.728-.448.485-.672 1.087-.672 1.806 0 .719.224 1.321.672 1.806.448.485 1.022.728 1.722.728Zm8.734 1.106c-1.017 0-1.862-.345-2.534-1.036-.663-.691-.994-1.559-.994-2.604 0-1.055.322-1.923.966-2.604.653-.691 1.517-1.036 2.59-1.036 1.083 0 1.932.383 2.548 1.148.616.765.887 1.703.812 2.814h-5.698c.019.635.252 1.167.7 1.596.448.42.99.63 1.624.63.952 0 1.629-.392 2.03-1.176h1.232c-.177.653-.555 1.195-1.134 1.624-.579.429-1.293.644-2.142.644Zm1.372-5.712c-.383-.336-.845-.504-1.386-.504a2.34 2.34 0 0 0-1.456.49c-.42.327-.681.812-.784 1.456h4.368c-.112-.635-.36-1.115-.742-1.442ZM54.991 167h1.106l2.59 3.444L61.291 167h1.106v7h-1.204v-5.054l-2.506 3.304-2.492-3.304V174h-1.204v-7Zm14.135 7h-1.078v-7h1.204v5.138L73.2 167h1.064v7h-1.19v-5.138L69.126 174Zm7.426 0v-7h1.204v2.884h3.822V167h1.204v7h-1.204v-3.024h-3.822V174h-1.204Zm7.832-1.106h.168c.672 0 1.008-.756 1.008-2.268V167h5.558v5.894h1.05v2.87h-1.134V174h-5.516v1.764h-1.134v-2.87Zm2.38-4.788v2.716c0 .877-.145 1.568-.434 2.072h3.584v-4.788h-3.15Zm8.12 5.894h-1.078v-7h1.204v5.138L98.958 167h1.064v7h-1.19v-5.138L94.884 174Zm7.426 0v-7h3.052c.774 0 1.367.173 1.778.518.41.345.616.807.616 1.386 0 .551-.229 1.003-.686 1.358.765.373 1.148.943 1.148 1.708 0 .588-.21 1.073-.63 1.456-.42.383-1.05.574-1.89.574h-3.388Zm1.204-1.05h2.254c.373 0 .667-.093.882-.28.224-.187.336-.443.336-.77s-.112-.579-.336-.756c-.215-.187-.509-.28-.882-.28h-2.254v2.086Zm0-3.052h1.946c.718 0 1.078-.313 1.078-.938 0-.327-.103-.56-.308-.7-.206-.149-.462-.224-.77-.224h-1.946v1.862Zm7.503 4.102h-1.078v-7h1.204v5.138l3.948-5.138h1.064v7h-1.19v-5.138L111.017 174Zm6.754-1.106h.168c.672 0 1.008-.756 1.008-2.268V167h5.558v5.894h1.05v2.87h-1.134V174h-5.516v1.764h-1.134v-2.87Zm2.38-4.788v2.716c0 .877-.145 1.568-.434 2.072h3.584v-4.788h-3.15ZM133.442 167l-3.794 8.246c-.29.644-.616 1.106-.98 1.386-.355.289-.803.434-1.344.434-.346 0-.607-.023-.784-.07v-1.064c.14.028.368.042.686.042.522 0 .942-.355 1.26-1.064l.574-1.232-3.094-6.678h1.33l2.422 5.278 2.38-5.278h1.344Zm3.963 7.14a3.22 3.22 0 0 1-2.45-1.064c-.654-.709-.98-1.568-.98-2.576s.326-1.867.98-2.576a3.22 3.22 0 0 1 2.45-1.064 3 3 0 0 1 1.428.35c.448.224.793.513 1.036.868V167h1.204v7h-1.204v-1.078c-.243.355-.588.649-1.036.882a3.096 3.096 0 0 1-1.428.336Zm.182-1.106c.69 0 1.26-.243 1.708-.728.448-.485.672-1.087.672-1.806 0-.719-.224-1.321-.672-1.806-.448-.485-1.018-.728-1.708-.728-.7 0-1.274.243-1.722.728-.448.485-.672 1.087-.672 1.806 0 .719.224 1.321.672 1.806.448.485 1.022.728 1.722.728Zm5.542 1.064c-.317 0-.527-.014-.63-.042v-1.078c.065.019.215.028.448.028.289 0 .504-.098.644-.294.14-.205.21-.565.21-1.078V167h5.404v7h-1.204v-5.894h-2.996v3.78c0 .719-.173 1.269-.518 1.652-.345.373-.798.56-1.358.56Zm8.359-.098v-7h1.204v2.52h1.624c.84 0 1.474.219 1.904.658.438.439.658.961.658 1.568 0 .616-.22 1.148-.658 1.596-.439.439-1.078.658-1.918.658h-2.814Zm1.204-3.388v2.296h1.568c.448 0 .793-.103 1.036-.308.252-.205.378-.49.378-.854s-.122-.644-.364-.84c-.243-.196-.588-.294-1.036-.294h-1.582Zm5.741 3.388v-7h1.204v2.884h3.822V167h1.204v7h-1.204v-3.024h-3.822V174h-1.204Zm14.972 0v-7h1.204v7h-1.204Zm-6.468 0v-7h1.204v2.52h1.624c.84 0 1.474.219 1.904.658.438.439.658.961.658 1.568 0 .616-.22 1.148-.658 1.596-.439.439-1.078.658-1.918.658h-2.814Zm1.204-3.388v2.296h1.568c.448 0 .793-.103 1.036-.308.252-.205.378-.49.378-.854s-.122-.644-.364-.84c-.243-.196-.588-.294-1.036-.294h-1.582Zm11.731 3.528c-1.017 0-1.862-.345-2.534-1.036-.663-.691-.994-1.559-.994-2.604 0-1.055.322-1.923.966-2.604.653-.691 1.517-1.036 2.59-1.036 1.083 0 1.932.383 2.548 1.148.616.765.887 1.703.812 2.814h-5.698c.019.635.252 1.167.7 1.596.448.42.989.63 1.624.63.952 0 1.629-.392 2.03-1.176h1.232c-.177.653-.555 1.195-1.134 1.624-.579.429-1.293.644-2.142.644Zm1.372-5.712c-.383-.336-.845-.504-1.386-.504a2.34 2.34 0 0 0-1.456.49c-.42.327-.681.812-.784 1.456h4.368c-.112-.635-.359-1.115-.742-1.442Zm7.13 5.572v-7h6.076v7h-1.204v-5.894h-3.668V174h-1.204Zm9.544 2.926h-1.204V167h1.204v1.078c.243-.355.583-.644 1.022-.868.448-.233.929-.35 1.442-.35.971 0 1.783.355 2.436 1.064.663.709.994 1.568.994 2.576s-.331 1.867-.994 2.576c-.653.709-1.465 1.064-2.436 1.064-.513 0-.994-.112-1.442-.336-.439-.233-.779-.527-1.022-.882v4.004Zm.574-4.62c.448.485 1.017.728 1.708.728.691 0 1.26-.243 1.708-.728.448-.485.672-1.087.672-1.806 0-.719-.224-1.321-.672-1.806-.448-.485-1.017-.728-1.708-.728-.691 0-1.26.243-1.708.728-.448.485-.672 1.087-.672 1.806 0 .719.224 1.321.672 1.806Zm10.162 1.834c-1.055 0-1.932-.35-2.632-1.05-.691-.709-1.036-1.573-1.036-2.59s.345-1.876 1.036-2.576c.7-.709 1.577-1.064 2.632-1.064 1.045 0 1.913.355 2.604 1.064.7.7 1.05 1.559 1.05 2.576 0 1.017-.35 1.881-1.05 2.59-.691.7-1.559 1.05-2.604 1.05Zm-1.764-1.848c.457.485 1.045.728 1.764.728.719 0 1.302-.243 1.75-.728.448-.485.672-1.083.672-1.792 0-.709-.224-1.307-.672-1.792-.448-.485-1.031-.728-1.75-.728-.719 0-1.307.243-1.764.728-.448.485-.672 1.083-.672 1.792 0 .709.224 1.307.672 1.792Zm7.146 1.708v-7h4.382v1.106h-3.178V174h-1.204Zm6.96 2.926h-1.204V167h1.204v1.078c.243-.355.584-.644 1.022-.868.448-.233.929-.35 1.442-.35.971 0 1.783.355 2.436 1.064.663.709.994 1.568.994 2.576s-.331 1.867-.994 2.576c-.653.709-1.465 1.064-2.436 1.064-.513 0-.994-.112-1.442-.336-.438-.233-.779-.527-1.022-.882v4.004Zm.574-4.62c.448.485 1.018.728 1.708.728.691 0 1.26-.243 1.708-.728.448-.485.672-1.087.672-1.806 0-.719-.224-1.321-.672-1.806-.448-.485-1.017-.728-1.708-.728-.69 0-1.26.243-1.708.728-.448.485-.672 1.087-.672 1.806 0 .719.224 1.321.672 1.806Zm9.938 1.834c-.97 0-1.787-.355-2.45-1.064-.653-.709-.98-1.568-.98-2.576s.327-1.867.98-2.576c.663-.709 1.48-1.064 2.45-1.064.514 0 .99.117 1.428.35.448.224.794.513 1.036.868V167h1.204v7h-1.204v-1.078c-.242.355-.588.649-1.036.882a3.09 3.09 0 0 1-1.428.336Zm.182-1.106c.691 0 1.26-.243 1.708-.728.448-.485.672-1.087.672-1.806 0-.719-.224-1.321-.672-1.806-.448-.485-1.017-.728-1.708-.728-.7 0-1.274.243-1.722.728-.448.485-.672 1.087-.672 1.806 0 .719.224 1.321.672 1.806.448.485 1.022.728 1.722.728Zm5.753-6.034h1.106l2.59 3.444 2.604-3.444h1.106v7h-1.204v-5.054l-2.506 3.304-2.492-3.304V174h-1.204v-7Zm9.679 0h1.106l2.59 3.444 2.604-3.444h1.106v7h-1.204v-5.054l-2.506 3.304-2.492-3.304V174h-1.204v-7Zm9.68 7v-7h1.204v2.884h3.822V167h1.204v7h-1.204v-3.024h-3.822V174h-1.204Zm14.972 0v-7h1.204v7h-1.204Zm-6.468 0v-7h1.204v2.52h1.624c.84 0 1.475.219 1.904.658.439.439.658.961.658 1.568 0 .616-.219 1.148-.658 1.596-.439.439-1.078.658-1.918.658h-2.814Zm1.204-3.388v2.296h1.568c.448 0 .793-.103 1.036-.308.252-.205.378-.49.378-.854s-.121-.644-.364-.84c-.243-.196-.588-.294-1.036-.294h-1.582Zm11.731 3.528c-1.017 0-1.862-.345-2.534-1.036-.663-.691-.994-1.559-.994-2.604 0-1.055.322-1.923.966-2.604.653-.691 1.517-1.036 2.59-1.036 1.083 0 1.932.383 2.548 1.148.616.765.887 1.703.812 2.814h-5.698c.019.635.252 1.167.7 1.596.448.42.989.63 1.624.63.952 0 1.629-.392 2.03-1.176h1.232c-.177.653-.555 1.195-1.134 1.624-.579.429-1.293.644-2.142.644Zm1.372-5.712c-.383-.336-.845-.504-1.386-.504a2.34 2.34 0 0 0-1.456.49c-.42.327-.681.812-.784 1.456h4.368c-.112-.635-.359-1.115-.742-1.442Zm8.334 8.498h-1.204V167h1.204v1.078c.243-.355.584-.644 1.022-.868.448-.233.929-.35 1.442-.35.971 0 1.783.355 2.436 1.064.663.709.994 1.568.994 2.576s-.331 1.867-.994 2.576c-.653.709-1.465 1.064-2.436 1.064-.513 0-.994-.112-1.442-.336-.438-.233-.779-.527-1.022-.882v4.004Zm.574-4.62c.448.485 1.018.728 1.708.728.691 0 1.26-.243 1.708-.728.448-.485.672-1.087.672-1.806 0-.719-.224-1.321-.672-1.806-.448-.485-1.017-.728-1.708-.728-.69 0-1.26.243-1.708.728-.448.485-.672 1.087-.672 1.806 0 .719.224 1.321.672 1.806Zm10.036 1.834c-1.017 0-1.862-.345-2.534-1.036-.662-.691-.994-1.559-.994-2.604 0-1.055.322-1.923.966-2.604.654-.691 1.517-1.036 2.59-1.036 1.083 0 1.932.383 2.548 1.148.616.765.887 1.703.812 2.814h-5.698c.019.635.252 1.167.7 1.596.448.42.99.63 1.624.63.952 0 1.629-.392 2.03-1.176h1.232c-.177.653-.555 1.195-1.134 1.624-.578.429-1.292.644-2.142.644Zm1.372-5.712c-.382-.336-.844-.504-1.386-.504-.541 0-1.026.163-1.456.49-.42.327-.681.812-.784 1.456h4.368c-.112-.635-.359-1.115-.742-1.442Zm3.754 5.572v-7h1.204v5.894h2.786V167h1.204v5.894h2.786V167h1.204v7h-9.184Zm14.453.14c-1.018 0-1.862-.345-2.534-1.036-.663-.691-.994-1.559-.994-2.604 0-1.055.322-1.923.966-2.604.653-.691 1.516-1.036 2.59-1.036 1.082 0 1.932.383 2.548 1.148.616.765.886 1.703.812 2.814h-5.698c.018.635.252 1.167.7 1.596.448.42.989.63 1.624.63.952 0 1.628-.392 2.03-1.176h1.232c-.178.653-.556 1.195-1.134 1.624-.579.429-1.293.644-2.142.644Zm1.372-5.712c-.383-.336-.845-.504-1.386-.504-.542 0-1.027.163-1.456.49-.42.327-.682.812-.784 1.456h4.368c-.112-.635-.36-1.115-.742-1.442Zm3.753 5.572v-7h1.204v2.884h3.822V167h1.204v7h-1.204v-3.024h-3.822V174h-1.204Zm9.582 0h-1.078v-7h1.204v5.138l3.948-5.138h1.064v7h-1.19v-5.138L332.843 174Zm6.236 0 2.828-2.744c-.551-.131-.976-.373-1.274-.728a1.986 1.986 0 0 1-.448-1.302c0-.644.219-1.176.658-1.596.448-.42 1.078-.63 1.89-.63h2.59v7h-1.204v-2.548h-.896L340.591 174h-1.512Zm3.724-3.626h1.316v-2.296h-1.316c-.943 0-1.414.387-1.414 1.162 0 .364.121.644.364.84.252.196.602.294 1.05.294ZM8.818 200.956c.635.597.952 1.353.952 2.268 0 .915-.317 1.671-.952 2.268-.625.588-1.447.882-2.464.882H4.618V210H3.316v-9.94h3.038c1.017 0 1.839.299 2.464.896Zm-.91 3.668c.383-.364.574-.831.574-1.4s-.191-1.036-.574-1.4c-.373-.364-.891-.546-1.554-.546H4.618v3.892h1.736c.663 0 1.18-.182 1.554-.546Zm6.108 5.516c-.97 0-1.787-.355-2.45-1.064-.653-.709-.98-1.568-.98-2.576s.327-1.867.98-2.576a3.222 3.222 0 0 1 2.45-1.064c.513 0 .99.117 1.428.35.448.224.793.513 1.036.868V203h1.204v7H16.48v-1.078c-.243.355-.588.649-1.036.882a3.094 3.094 0 0 1-1.428.336Zm.182-1.106c.69 0 1.26-.243 1.708-.728.448-.485.672-1.087.672-1.806 0-.719-.224-1.321-.672-1.806-.448-.485-1.017-.728-1.708-.728-.7 0-1.274.243-1.722.728-.448.485-.672 1.087-.672 1.806 0 .719.224 1.321.672 1.806.448.485 1.022.728 1.722.728Zm7.978 1.106c-.718 0-1.348-.177-1.89-.532a2.273 2.273 0 0 1-.994-1.498h1.218c.234.672.79 1.008 1.666 1.008.514 0 .901-.107 1.162-.322.262-.215.392-.495.392-.84s-.13-.616-.392-.812c-.252-.196-.616-.294-1.092-.294h-.812v-.98h.812c.383 0 .686-.084.91-.252.234-.168.35-.415.35-.742a.867.867 0 0 0-.364-.742c-.242-.177-.569-.266-.98-.266-.812 0-1.32.327-1.526.98h-1.19c.131-.644.448-1.134.952-1.47.504-.345 1.097-.518 1.778-.518.784 0 1.396.187 1.834.56.44.364.658.826.658 1.386 0 .681-.289 1.19-.868 1.526.766.345 1.148.919 1.148 1.722 0 .588-.242 1.083-.728 1.484-.485.401-1.166.602-2.044.602Zm5.76 2.786h-1.204V203h1.204v1.078c.242-.355.583-.644 1.022-.868a3.08 3.08 0 0 1 1.442-.35c.97 0 1.782.355 2.436 1.064.662.709.994 1.568.994 2.576s-.332 1.867-.994 2.576c-.654.709-1.466 1.064-2.436 1.064a3.18 3.18 0 0 1-1.442-.336c-.439-.233-.78-.527-1.022-.882v4.004Zm.574-4.62c.448.485 1.017.728 1.708.728.69 0 1.26-.243 1.708-.728.448-.485.672-1.087.672-1.806 0-.719-.224-1.321-.672-1.806-.448-.485-1.018-.728-1.708-.728-.691 0-1.26.243-1.708.728-.448.485-.672 1.087-.672 1.806 0 .719.224 1.321.672 1.806Zm9.938 1.834a3.22 3.22 0 0 1-2.45-1.064c-.654-.709-.98-1.568-.98-2.576s.326-1.867.98-2.576a3.221 3.221 0 0 1 2.45-1.064 3 3 0 0 1 1.428.35c.448.224.793.513 1.036.868V203h1.204v7h-1.204v-1.078c-.243.355-.588.649-1.036.882a3.095 3.095 0 0 1-1.428.336Zm.182-1.106c.69 0 1.26-.243 1.708-.728.448-.485.672-1.087.672-1.806 0-.719-.224-1.321-.672-1.806-.448-.485-1.018-.728-1.708-.728-.7 0-1.274.243-1.722.728-.448.485-.672 1.087-.672 1.806 0 .719.224 1.321.672 1.806.448.485 1.022.728 1.722.728Zm9.112 1.106c-1.101 0-1.983-.364-2.646-1.092-.653-.728-.98-1.685-.98-2.87v-.714c0-1.717.308-3.001.924-3.85.616-.859 1.624-1.423 3.024-1.694l2.604-.476v1.148l-2.338.434c-.999.177-1.722.513-2.17 1.008-.439.495-.714 1.223-.826 2.184.607-.812 1.465-1.218 2.576-1.218 1.055 0 1.9.336 2.534 1.008.644.672.966 1.493.966 2.464 0 1.027-.35 1.895-1.05 2.604-.69.709-1.563 1.064-2.618 1.064Zm-1.736-1.834c.448.476 1.027.714 1.736.714.71 0 1.293-.238 1.75-.714.457-.476.686-1.087.686-1.834 0-.7-.229-1.269-.686-1.708-.448-.448-1.022-.672-1.722-.672-.719 0-1.307.229-1.764.686-.448.448-.672 1.013-.672 1.694 0 .747.224 1.358.672 1.834Zm10.01 1.834c-.97 0-1.787-.355-2.45-1.064-.653-.709-.98-1.568-.98-2.576s.327-1.867.98-2.576a3.222 3.222 0 0 1 2.45-1.064c.513 0 .99.117 1.428.35.448.224.793.513 1.036.868V203h1.204v7H58.48v-1.078c-.243.355-.588.649-1.036.882a3.094 3.094 0 0 1-1.428.336Zm.182-1.106c.69 0 1.26-.243 1.708-.728.448-.485.672-1.087.672-1.806 0-.719-.224-1.321-.672-1.806-.448-.485-1.017-.728-1.708-.728-.7 0-1.274.243-1.722.728-.448.485-.672 1.087-.672 1.806 0 .719.224 1.321.672 1.806.448.485 1.022.728 1.722.728Zm7.082.966v-5.894h-2.226V203h5.754v1.106h-2.324V210H63.28Zm11.373 0v-7h1.204v7h-1.204Zm-6.468 0v-7h1.204v2.52h1.624c.84 0 1.474.219 1.904.658.438.439.658.961.658 1.568 0 .616-.22 1.148-.658 1.596-.439.439-1.078.658-1.918.658h-2.814Zm1.204-3.388v2.296h1.568c.448 0 .793-.103 1.036-.308.252-.205.378-.49.378-.854s-.122-.644-.364-.84c-.243-.196-.588-.294-1.036-.294h-1.582ZM78.138 210v-7h3.052c.775 0 1.367.173 1.778.518.41.345.616.807.616 1.386 0 .551-.229 1.003-.686 1.358.765.373 1.148.943 1.148 1.708 0 .588-.21 1.073-.63 1.456-.42.383-1.05.574-1.89.574h-3.388Zm1.204-1.05h2.254c.373 0 .667-.093.882-.28.224-.187.336-.443.336-.77s-.112-.579-.336-.756c-.215-.187-.509-.28-.882-.28h-2.254v2.086Zm0-3.052h1.946c.719 0 1.078-.313 1.078-.938 0-.327-.103-.56-.308-.7-.205-.149-.462-.224-.77-.224h-1.946v1.862Zm9.309 4.242c-.97 0-1.787-.355-2.45-1.064-.653-.709-.98-1.568-.98-2.576s.326-1.867.98-2.576a3.221 3.221 0 0 1 2.45-1.064c.513 0 .99.117 1.428.35.448.224.793.513 1.036.868V203h1.204v7h-1.204v-1.078c-.243.355-.588.649-1.036.882a3.095 3.095 0 0 1-1.428.336Zm.182-1.106c.69 0 1.26-.243 1.708-.728.448-.485.672-1.087.672-1.806 0-.719-.224-1.321-.672-1.806-.448-.485-1.017-.728-1.708-.728-.7 0-1.274.243-1.722.728-.448.485-.672 1.087-.672 1.806 0 .719.224 1.321.672 1.806.448.485 1.022.728 1.722.728Zm8.734 1.106c-1.017 0-1.862-.345-2.534-1.036-.662-.691-.994-1.559-.994-2.604 0-1.055.322-1.923.966-2.604.654-.691 1.517-1.036 2.59-1.036 1.083 0 1.932.383 2.548 1.148.616.765.887 1.703.812 2.814h-5.698c.019.635.252 1.167.7 1.596.448.42.99.63 1.624.63.952 0 1.629-.392 2.03-1.176h1.232c-.177.653-.555 1.195-1.134 1.624-.579.429-1.293.644-2.142.644Zm1.372-5.712c-.382-.336-.844-.504-1.386-.504a2.34 2.34 0 0 0-1.456.49c-.42.327-.681.812-.784 1.456h4.368c-.112-.635-.36-1.115-.742-1.442Zm3.754-1.428h1.106l2.59 3.444 2.604-3.444h1.106v7h-1.204v-5.054l-2.506 3.304-2.492-3.304V210h-1.204v-7Zm13.056 7v-7h6.076v7h-1.204v-5.894h-3.668V210h-1.204Zm9.544 2.926h-1.204V203h1.204v1.078c.243-.355.583-.644 1.022-.868.448-.233.929-.35 1.442-.35.971 0 1.783.355 2.436 1.064.663.709.994 1.568.994 2.576s-.331 1.867-.994 2.576c-.653.709-1.465 1.064-2.436 1.064-.513 0-.994-.112-1.442-.336-.439-.233-.779-.527-1.022-.882v4.004Zm.574-4.62c.448.485 1.017.728 1.708.728.691 0 1.26-.243 1.708-.728.448-.485.672-1.087.672-1.806 0-.719-.224-1.321-.672-1.806-.448-.485-1.017-.728-1.708-.728-.691 0-1.26.243-1.708.728-.448.485-.672 1.087-.672 1.806 0 .719.224 1.321.672 1.806Zm8.132 1.694h-1.078v-7h1.204v5.138l3.948-5.138h1.064v7h-1.19v-5.138L133.999 210Zm7.216.098c-.317 0-.527-.014-.63-.042v-1.078c.065.019.215.028.448.028.289 0 .504-.098.644-.294.14-.205.21-.565.21-1.078V203h5.404v7h-1.204v-5.894h-2.996v3.78c0 .719-.173 1.269-.518 1.652-.345.373-.798.56-1.358.56Zm11.466.042c-1.054 0-1.932-.35-2.632-1.05-.69-.709-1.036-1.573-1.036-2.59s.346-1.876 1.036-2.576c.7-.709 1.578-1.064 2.632-1.064 1.046 0 1.914.355 2.604 1.064.7.7 1.05 1.559 1.05 2.576 0 1.017-.35 1.881-1.05 2.59-.69.7-1.558 1.05-2.604 1.05Zm-1.764-1.848c.458.485 1.046.728 1.764.728.719 0 1.302-.243 1.75-.728.448-.485.672-1.083.672-1.792 0-.709-.224-1.307-.672-1.792-.448-.485-1.031-.728-1.75-.728-.718 0-1.306.243-1.764.728-.448.485-.672 1.083-.672 1.792 0 .709.224 1.307.672 1.792ZM165.886 210l-3.318-3.108V210h-1.204v-3.108L158.046 210h-1.582l3.752-3.57-3.262-3.43h1.498l2.912 3.108V203h1.204v3.108l2.926-3.108h1.484l-3.262 3.444 3.752 3.556h-1.582Zm5.236.14c-1.017 0-1.862-.345-2.534-1.036-.663-.691-.994-1.559-.994-2.604 0-1.055.322-1.923.966-2.604.653-.691 1.517-1.036 2.59-1.036 1.083 0 1.932.383 2.548 1.148.616.765.887 1.703.812 2.814h-5.698c.019.635.252 1.167.7 1.596.448.42.989.63 1.624.63.952 0 1.629-.392 2.03-1.176h1.232c-.177.653-.555 1.195-1.134 1.624-.579.429-1.293.644-2.142.644Zm1.372-5.712c-.383-.336-.845-.504-1.386-.504a2.34 2.34 0 0 0-1.456.49c-.42.327-.681.812-.784 1.456h4.368c-.112-.635-.359-1.115-.742-1.442Zm3.753 5.572v-7h1.204v2.884h3.822V203h1.204v7h-1.204v-3.024h-3.822V210h-1.204Zm9.582 0h-1.078v-7h1.204v5.138l3.948-5.138h1.064v7h-1.19v-5.138L185.829 210Zm6.236 0 2.828-2.744c-.551-.131-.975-.373-1.274-.728a1.986 1.986 0 0 1-.448-1.302c0-.644.219-1.176.658-1.596.448-.42 1.078-.63 1.89-.63h2.59v7h-1.204v-2.548h-.896L193.577 210h-1.512Zm3.724-3.626h1.316v-2.296h-1.316c-.943 0-1.414.387-1.414 1.162 0 .364.121.644.364.84.252.196.602.294 1.05.294Zm7.975 3.724c-.317 0-.527-.014-.63-.042v-1.078c.065.019.215.028.448.028.289 0 .504-.098.644-.294.14-.205.21-.565.21-1.078V203h5.404v7h-1.204v-5.894h-2.996v3.78c0 .719-.173 1.269-.518 1.652-.345.373-.798.56-1.358.56Zm14.378.042c-.924 0-1.708-.299-2.352-.896-.634-.597-1.008-1.353-1.12-2.268h-1.344V210h-1.204v-7h1.204v2.898h1.358c.14-.887.523-1.615 1.148-2.184.635-.569 1.405-.854 2.31-.854 1.018 0 1.858.35 2.52 1.05.663.7.994 1.563.994 2.59s-.331 1.89-.994 2.59c-.662.7-1.502 1.05-2.52 1.05Zm-1.638-1.848c.43.476.976.714 1.638.714.663 0 1.209-.238 1.638-.714.43-.485.644-1.083.644-1.792 0-.709-.214-1.302-.644-1.778-.429-.485-.975-.728-1.638-.728-.662 0-1.208.238-1.638.714-.42.476-.63 1.073-.63 1.792 0 .709.21 1.307.63 1.792Zm10.23 1.848c-1.101 0-1.983-.364-2.646-1.092-.653-.728-.98-1.685-.98-2.87v-.714c0-1.717.308-3.001.924-3.85.616-.859 1.624-1.423 3.024-1.694l2.604-.476v1.148l-2.338.434c-.998.177-1.722.513-2.17 1.008-.438.495-.714 1.223-.826 2.184.607-.812 1.466-1.218 2.576-1.218 1.055 0 1.9.336 2.534 1.008.644.672.966 1.493.966 2.464 0 1.027-.35 1.895-1.05 2.604-.69.709-1.563 1.064-2.618 1.064Zm-1.736-1.834c.448.476 1.027.714 1.736.714.71 0 1.293-.238 1.75-.714.458-.476.686-1.087.686-1.834 0-.7-.228-1.269-.686-1.708-.448-.448-1.022-.672-1.722-.672-.718 0-1.306.229-1.764.686-.448.448-.672 1.013-.672 1.694 0 .747.224 1.358.672 1.834Zm10.234 1.834c-1.054 0-1.932-.35-2.632-1.05-.69-.709-1.036-1.573-1.036-2.59s.346-1.876 1.036-2.576c.7-.709 1.578-1.064 2.632-1.064 1.046 0 1.914.355 2.604 1.064.7.7 1.05 1.559 1.05 2.576 0 1.017-.35 1.881-1.05 2.59-.69.7-1.558 1.05-2.604 1.05Zm-1.764-1.848c.458.485 1.046.728 1.764.728.719 0 1.302-.243 1.75-.728.448-.485.672-1.083.672-1.792 0-.709-.224-1.307-.672-1.792-.448-.485-1.031-.728-1.75-.728-.718 0-1.306.243-1.764.728-.448.485-.672 1.083-.672 1.792 0 .709.224 1.307.672 1.792Zm8.224 1.708h-1.078v-7h1.204v5.138l3.948-5.138h1.064v7h-1.19v-5.138L241.692 210Zm3.724-8.708c-.42.411-.947.616-1.582.616-.634 0-1.166-.205-1.596-.616-.42-.411-.63-.947-.63-1.61v-.182h.952v.182c0 .448.117.798.35 1.05.243.243.551.364.924.364.374 0 .677-.121.91-.364.243-.252.364-.602.364-1.05v-.182h.952v.182c0 .663-.214 1.199-.644 1.61Zm10.187 8.848c-1.054 0-1.927-.35-2.618-1.05-.69-.709-1.036-1.573-1.036-2.59s.346-1.876 1.036-2.576c.691-.709 1.564-1.064 2.618-1.064.868 0 1.62.243 2.254.728a3.417 3.417 0 0 1 1.274 1.876h-1.288a2.229 2.229 0 0 0-.84-1.092c-.392-.271-.858-.406-1.4-.406-.718 0-1.306.243-1.764.728-.448.485-.672 1.087-.672 1.806 0 .719.224 1.321.672 1.806.458.485 1.046.728 1.764.728.542 0 1.008-.135 1.4-.406.392-.271.672-.635.84-1.092h1.288a3.413 3.413 0 0 1-1.26 1.89c-.634.476-1.39.714-2.268.714Zm4.885-.042c-.317 0-.527-.014-.63-.042v-1.078c.066.019.215.028.448.028.29 0 .504-.098.644-.294.14-.205.21-.565.21-1.078V203h5.404v7h-1.204v-5.894h-2.996v3.78c0 .719-.172 1.269-.518 1.652-.345.373-.798.56-1.358.56Zm11.467.042c-1.055 0-1.932-.35-2.632-1.05-.691-.709-1.036-1.573-1.036-2.59s.345-1.876 1.036-2.576c.7-.709 1.577-1.064 2.632-1.064 1.045 0 1.913.355 2.604 1.064.7.7 1.05 1.559 1.05 2.576 0 1.017-.35 1.881-1.05 2.59-.691.7-1.559 1.05-2.604 1.05Zm-1.764-1.848c.457.485 1.045.728 1.764.728.719 0 1.302-.243 1.75-.728.448-.485.672-1.083.672-1.792 0-.709-.224-1.307-.672-1.792-.448-.485-1.031-.728-1.75-.728-.719 0-1.307.243-1.764.728-.448.485-.672 1.083-.672 1.792 0 .709.224 1.307.672 1.792ZM285.159 210l-3.318-3.108V210h-1.204v-3.108L277.319 210h-1.582l3.752-3.57-3.262-3.43h1.498l2.912 3.108V203h1.204v3.108l2.926-3.108h1.484l-3.262 3.444 3.752 3.556h-1.582Zm2.664 0v-7h1.204v2.884h3.822V203h1.204v7h-1.204v-3.024h-3.822V210h-1.204Zm11.612.14c-1.054 0-1.932-.35-2.632-1.05-.69-.709-1.036-1.573-1.036-2.59s.346-1.876 1.036-2.576c.7-.709 1.578-1.064 2.632-1.064 1.046 0 1.914.355 2.604 1.064.7.7 1.05 1.559 1.05 2.576 0 1.017-.35 1.881-1.05 2.59-.69.7-1.558 1.05-2.604 1.05Zm-1.764-1.848c.458.485 1.046.728 1.764.728.719 0 1.302-.243 1.75-.728.448-.485.672-1.083.672-1.792 0-.709-.224-1.307-.672-1.792-.448-.485-1.031-.728-1.75-.728-.718 0-1.306.243-1.764.728-.448.485-.672 1.083-.672 1.792 0 .709.224 1.307.672 1.792Zm10.255 1.848c-1.055 0-1.928-.35-2.618-1.05-.691-.709-1.036-1.573-1.036-2.59s.345-1.876 1.036-2.576c.69-.709 1.563-1.064 2.618-1.064.868 0 1.619.243 2.254.728a3.427 3.427 0 0 1 1.274 1.876h-1.288a2.229 2.229 0 0 0-.84-1.092c-.392-.271-.859-.406-1.4-.406-.719 0-1.307.243-1.764.728-.448.485-.672 1.087-.672 1.806 0 .719.224 1.321.672 1.806.457.485 1.045.728 1.764.728.541 0 1.008-.135 1.4-.406.392-.271.672-.635.84-1.092h1.288a3.424 3.424 0 0 1-1.26 1.89c-.635.476-1.391.714-2.268.714Zm6.425-.14v-5.894h-2.226V203h5.754v1.106h-2.324V210h-1.204Zm5.982 0h-1.078v-7h1.204v5.138l3.948-5.138h1.064v7h-1.19v-5.138L320.333 210ZM6.242 228.14c-1.055 0-1.927-.35-2.618-1.05-.69-.709-1.036-1.573-1.036-2.59s.345-1.876 1.036-2.576c.69-.709 1.563-1.064 2.618-1.064.868 0 1.62.243 2.254.728a3.422 3.422 0 0 1 1.274 1.876H8.482a2.229 2.229 0 0 0-.84-1.092c-.392-.271-.859-.406-1.4-.406-.719 0-1.307.243-1.764.728-.448.485-.672 1.087-.672 1.806 0 .719.224 1.321.672 1.806.457.485 1.045.728 1.764.728.541 0 1.008-.135 1.4-.406.392-.271.672-.635.84-1.092H9.77a3.417 3.417 0 0 1-1.26 1.89c-.635.476-1.39.714-2.268.714ZM20.867 221l-3.794 8.246c-.289.644-.616 1.106-.98 1.386-.354.289-.802.434-1.344.434-.345 0-.606-.023-.784-.07v-1.064c.14.028.369.042.686.042.523 0 .943-.355 1.26-1.064l.574-1.232L13.391 221h1.33l2.422 5.278 2.38-5.278h1.344Zm6.55 7h-1.204v-3.262c-.186.289-.471.518-.854.686a3.171 3.171 0 0 1-1.288.252c-.784 0-1.41-.224-1.876-.672-.457-.448-.686-1.078-.686-1.89V221h1.204v1.988c0 1.064.546 1.596 1.638 1.596a1.93 1.93 0 0 0 1.288-.49c.383-.336.574-.807.574-1.414V221h1.204v7Zm5.25.14c-1.018 0-1.862-.345-2.534-1.036-.663-.691-.994-1.559-.994-2.604 0-1.055.322-1.923.966-2.604.653-.691 1.516-1.036 2.59-1.036 1.082 0 1.932.383 2.548 1.148.616.765.886 1.703.812 2.814h-5.698c.018.635.252 1.167.7 1.596.448.42.99.63 1.624.63.952 0 1.628-.392 2.03-1.176h1.232c-.178.653-.556 1.195-1.134 1.624-.579.429-1.293.644-2.142.644Zm1.372-5.712c-.383-.336-.845-.504-1.386-.504a2.34 2.34 0 0 0-1.456.49c-.42.327-.682.812-.784 1.456h4.368c-.112-.635-.36-1.115-.742-1.442ZM38.972 228v-5.894h-2.226V221H42.5v1.106h-2.324V228h-1.204Zm7.807.14c-1.055 0-1.932-.35-2.632-1.05-.69-.709-1.036-1.573-1.036-2.59s.345-1.876 1.036-2.576c.7-.709 1.577-1.064 2.632-1.064 1.045 0 1.913.355 2.604 1.064.7.7 1.05 1.559 1.05 2.576 0 1.017-.35 1.881-1.05 2.59-.69.7-1.559 1.05-2.604 1.05Zm-1.764-1.848c.457.485 1.045.728 1.764.728.719 0 1.302-.243 1.75-.728.448-.485.672-1.083.672-1.792 0-.709-.224-1.307-.672-1.792-.448-.485-1.031-.728-1.75-.728-.719 0-1.307.243-1.764.728-.448.485-.672 1.083-.672 1.792 0 .709.224 1.307.672 1.792ZM52.161 221h1.106l2.59 3.444L58.461 221h1.106v7h-1.204v-5.054l-2.506 3.304-2.492-3.304V228h-1.204v-7Zm13.057 7v-7h6.076v7H70.09v-5.894h-3.668V228h-1.204Zm11.448.14c-1.055 0-1.932-.35-2.632-1.05-.69-.709-1.036-1.573-1.036-2.59s.345-1.876 1.036-2.576c.7-.709 1.577-1.064 2.632-1.064 1.045 0 1.913.355 2.604 1.064.7.7 1.05 1.559 1.05 2.576 0 1.017-.35 1.881-1.05 2.59-.69.7-1.559 1.05-2.604 1.05Zm-1.764-1.848c.457.485 1.045.728 1.764.728.719 0 1.302-.243 1.75-.728.448-.485.672-1.083.672-1.792 0-.709-.224-1.307-.672-1.792-.448-.485-1.031-.728-1.75-.728-.719 0-1.307.243-1.764.728-.448.485-.672 1.083-.672 1.792 0 .709.224 1.307.672 1.792ZM83.187 228v-5.894H80.96V221h5.754v1.106H84.39V228h-1.204Zm6.108 2.926h-1.204V221h1.204v1.078c.243-.355.583-.644 1.022-.868a3.08 3.08 0 0 1 1.442-.35c.97 0 1.783.355 2.436 1.064.663.709.994 1.568.994 2.576s-.331 1.867-.994 2.576c-.653.709-1.465 1.064-2.436 1.064a3.18 3.18 0 0 1-1.442-.336c-.439-.233-.78-.527-1.022-.882v4.004Zm.574-4.62c.448.485 1.017.728 1.708.728.69 0 1.26-.243 1.708-.728.448-.485.672-1.087.672-1.806 0-.719-.224-1.321-.672-1.806-.448-.485-1.017-.728-1.708-.728-.69 0-1.26.243-1.708.728-.448.485-.672 1.087-.672 1.806 0 .719.224 1.321.672 1.806Zm10.036 1.834c-1.017 0-1.862-.345-2.534-1.036-.663-.691-.994-1.559-.994-2.604 0-1.055.322-1.923.966-2.604.653-.691 1.517-1.036 2.59-1.036 1.083 0 1.932.383 2.548 1.148.616.765.887 1.703.812 2.814h-5.698c.019.635.252 1.167.7 1.596.448.42.99.63 1.624.63.952 0 1.629-.392 2.03-1.176h1.232c-.177.653-.555 1.195-1.134 1.624-.579.429-1.293.644-2.142.644Zm1.372-5.712c-.383-.336-.845-.504-1.386-.504a2.34 2.34 0 0 0-1.456.49c-.42.327-.681.812-.784 1.456h4.368c-.112-.635-.359-1.115-.742-1.442Zm7.113 5.712c-1.101 0-1.983-.364-2.646-1.092-.653-.728-.98-1.685-.98-2.87v-.714c0-1.717.308-3.001.924-3.85.616-.859 1.624-1.423 3.024-1.694l2.604-.476v1.148l-2.338.434c-.998.177-1.722.513-2.17 1.008-.438.495-.714 1.223-.826 2.184.607-.812 1.466-1.218 2.576-1.218 1.055 0 1.9.336 2.534 1.008.644.672.966 1.493.966 2.464 0 1.027-.35 1.895-1.05 2.604-.69.709-1.563 1.064-2.618 1.064Zm-1.736-1.834c.448.476 1.027.714 1.736.714.71 0 1.293-.238 1.75-.714.458-.476.686-1.087.686-1.834 0-.7-.228-1.269-.686-1.708-.448-.448-1.022-.672-1.722-.672-.718 0-1.306.229-1.764.686-.448.448-.672 1.013-.672 1.694 0 .747.224 1.358.672 1.834ZM113.78 228v-7h1.204v2.884h3.822V221h1.204v7h-1.204v-3.024h-3.822V228h-1.204Zm11.612.14c-1.054 0-1.932-.35-2.632-1.05-.69-.709-1.036-1.573-1.036-2.59s.346-1.876 1.036-2.576c.7-.709 1.578-1.064 2.632-1.064 1.046 0 1.914.355 2.604 1.064.7.7 1.05 1.559 1.05 2.576 0 1.017-.35 1.881-1.05 2.59-.69.7-1.558 1.05-2.604 1.05Zm-1.764-1.848c.458.485 1.046.728 1.764.728.719 0 1.302-.243 1.75-.728.448-.485.672-1.083.672-1.792 0-.709-.224-1.307-.672-1.792-.448-.485-1.031-.728-1.75-.728-.718 0-1.306.243-1.764.728-.448.485-.672 1.083-.672 1.792 0 .709.224 1.307.672 1.792Zm10.255 1.848c-1.055 0-1.928-.35-2.618-1.05-.691-.709-1.036-1.573-1.036-2.59s.345-1.876 1.036-2.576c.69-.709 1.563-1.064 2.618-1.064.868 0 1.619.243 2.254.728a3.427 3.427 0 0 1 1.274 1.876h-1.288a2.229 2.229 0 0 0-.84-1.092c-.392-.271-.859-.406-1.4-.406-.719 0-1.307.243-1.764.728-.448.485-.672 1.087-.672 1.806 0 .719.224 1.321.672 1.806.457.485 1.045.728 1.764.728.541 0 1.008-.135 1.4-.406.392-.271.672-.635.84-1.092h1.288a3.424 3.424 0 0 1-1.26 1.89c-.635.476-1.391.714-2.268.714Zm6.425-.14v-5.894h-2.226V221h5.754v1.106h-2.324V228h-1.204Zm7.681.14c-1.017 0-1.862-.345-2.534-1.036-.663-.691-.994-1.559-.994-2.604 0-1.055.322-1.923.966-2.604.653-.691 1.517-1.036 2.59-1.036 1.083 0 1.932.383 2.548 1.148.616.765.887 1.703.812 2.814h-5.698c.019.635.252 1.167.7 1.596.448.42.989.63 1.624.63.952 0 1.629-.392 2.03-1.176h1.232c-.177.653-.555 1.195-1.134 1.624-.579.429-1.293.644-2.142.644Zm1.372-5.712c-.383-.336-.845-.504-1.386-.504a2.34 2.34 0 0 0-1.456.49c-.42.327-.681.812-.784 1.456h4.368c-.112-.635-.359-1.115-.742-1.442Zm4.831 5.572h-1.078v-7h1.204v5.138l3.948-5.138h1.064v7h-1.19v-5.138L154.192 228Zm3.724-8.708c-.42.411-.947.616-1.582.616-.634 0-1.166-.205-1.596-.616-.42-.411-.63-.947-.63-1.61v-.182h.952v.182c0 .448.117.798.35 1.05.243.243.551.364.924.364.374 0 .677-.121.91-.364.243-.252.364-.602.364-1.05v-.182h.952v.182c0 .663-.214 1.199-.644 1.61Zm7.079 8.708v-7h3.052c.775 0 1.368.173 1.778.518.411.345.616.807.616 1.386 0 .551-.228 1.003-.686 1.358.766.373 1.148.943 1.148 1.708 0 .588-.21 1.073-.63 1.456-.42.383-1.05.574-1.89.574h-3.388Zm1.204-1.05h2.254c.374 0 .668-.093.882-.28.224-.187.336-.443.336-.77s-.112-.579-.336-.756c-.214-.187-.508-.28-.882-.28h-2.254v2.086Zm0-3.052h1.946c.719 0 1.078-.313 1.078-.938 0-.327-.102-.56-.308-.7-.205-.149-.462-.224-.77-.224h-1.946v1.862Zm9.309 4.242c-.97 0-1.787-.355-2.45-1.064-.653-.709-.98-1.568-.98-2.576s.327-1.867.98-2.576c.663-.709 1.48-1.064 2.45-1.064.514 0 .99.117 1.428.35.448.224.794.513 1.036.868V221h1.204v7h-1.204v-1.078c-.242.355-.588.649-1.036.882a3.09 3.09 0 0 1-1.428.336Zm.182-1.106c.691 0 1.26-.243 1.708-.728.448-.485.672-1.087.672-1.806 0-.719-.224-1.321-.672-1.806-.448-.485-1.017-.728-1.708-.728-.7 0-1.274.243-1.722.728-.448.485-.672 1.087-.672 1.806 0 .719.224 1.321.672 1.806.448.485 1.022.728 1.722.728Zm5.753.966v-7h1.204v5.894h2.786V221h1.204v5.894h2.786V221h1.204v7h-9.184Zm14.452.14c-1.017 0-1.862-.345-2.534-1.036-.662-.691-.994-1.559-.994-2.604 0-1.055.322-1.923.966-2.604.654-.691 1.517-1.036 2.59-1.036 1.083 0 1.932.383 2.548 1.148.616.765.887 1.703.812 2.814h-5.698c.019.635.252 1.167.7 1.596.448.42.99.63 1.624.63.952 0 1.629-.392 2.03-1.176h1.232c-.177.653-.555 1.195-1.134 1.624-.578.429-1.292.644-2.142.644Zm1.372-5.712c-.382-.336-.844-.504-1.386-.504-.541 0-1.026.163-1.456.49-.42.327-.681.812-.784 1.456h4.368c-.112-.635-.359-1.115-.742-1.442Zm3.754 5.572v-7h4.382v1.106h-3.178V228h-1.204Zm8.645.14c-1.055 0-1.932-.35-2.632-1.05-.691-.709-1.036-1.573-1.036-2.59s.345-1.876 1.036-2.576c.7-.709 1.577-1.064 2.632-1.064 1.045 0 1.913.355 2.604 1.064.7.7 1.05 1.559 1.05 2.576 0 1.017-.35 1.881-1.05 2.59-.691.7-1.559 1.05-2.604 1.05Zm-1.764-1.848c.457.485 1.045.728 1.764.728.718 0 1.302-.243 1.75-.728.448-.485.672-1.083.672-1.792 0-.709-.224-1.307-.672-1.792-.448-.485-1.032-.728-1.75-.728-.719 0-1.307.243-1.764.728-.448.485-.672 1.083-.672 1.792 0 .709.224 1.307.672 1.792Zm13.883 1.848c-1.101 0-1.983-.364-2.646-1.092-.653-.728-.98-1.685-.98-2.87v-.714c0-1.717.308-3.001.924-3.85.616-.859 1.624-1.423 3.024-1.694l2.604-.476v1.148l-2.338.434c-.999.177-1.722.513-2.17 1.008-.439.495-.714 1.223-.826 2.184.607-.812 1.465-1.218 2.576-1.218 1.055 0 1.899.336 2.534 1.008.644.672.966 1.493.966 2.464 0 1.027-.35 1.895-1.05 2.604-.691.709-1.563 1.064-2.618 1.064Zm-1.736-1.834c.448.476 1.027.714 1.736.714.709 0 1.293-.238 1.75-.714.457-.476.686-1.087.686-1.834 0-.7-.229-1.269-.686-1.708-.448-.448-1.022-.672-1.722-.672-.719 0-1.307.229-1.764.686-.448.448-.672 1.013-.672 1.694 0 .747.224 1.358.672 1.834Zm8.204 1.694h-1.078v-7h1.204v5.138l3.948-5.138h1.064v7h-1.19v-5.138L228.253 228Zm9.652.14c-.719 0-1.349-.177-1.89-.532-.532-.355-.863-.854-.994-1.498h1.218c.233.672.789 1.008 1.666 1.008.513 0 .901-.107 1.162-.322.261-.215.392-.495.392-.84s-.131-.616-.392-.812c-.252-.196-.616-.294-1.092-.294h-.812v-.98h.812c.383 0 .686-.084.91-.252.233-.168.35-.415.35-.742 0-.317-.121-.565-.364-.742-.243-.177-.569-.266-.98-.266-.812 0-1.321.327-1.526.98h-1.19c.131-.644.448-1.134.952-1.47.504-.345 1.097-.518 1.778-.518.784 0 1.395.187 1.834.56.439.364.658.826.658 1.386 0 .681-.289 1.19-.868 1.526.765.345 1.148.919 1.148 1.722 0 .588-.243 1.083-.728 1.484s-1.167.602-2.044.602Zm4.555-.14v-7h1.204v2.884h3.822V221h1.204v7h-1.204v-3.024h-3.822V228h-1.204Zm11.486.14c-1.017 0-1.862-.345-2.534-1.036-.663-.691-.994-1.559-.994-2.604 0-1.055.322-1.923.966-2.604.653-.691 1.517-1.036 2.59-1.036 1.083 0 1.932.383 2.548 1.148.616.765.887 1.703.812 2.814h-5.698c.019.635.252 1.167.7 1.596.448.42.989.63 1.624.63.952 0 1.629-.392 2.03-1.176h1.232c-.177.653-.555 1.195-1.134 1.624-.579.429-1.293.644-2.142.644Zm1.372-5.712c-.383-.336-.845-.504-1.386-.504a2.34 2.34 0 0 0-1.456.49c-.42.327-.681.812-.784 1.456h4.368c-.112-.635-.359-1.115-.742-1.442Zm6.862 5.712c-1.055 0-1.928-.35-2.618-1.05-.691-.709-1.036-1.573-1.036-2.59s.345-1.876 1.036-2.576c.69-.709 1.563-1.064 2.618-1.064.868 0 1.619.243 2.254.728a3.427 3.427 0 0 1 1.274 1.876h-1.288a2.229 2.229 0 0 0-.84-1.092c-.392-.271-.859-.406-1.4-.406-.719 0-1.307.243-1.764.728-.448.485-.672 1.087-.672 1.806 0 .719.224 1.321.672 1.806.457.485 1.045.728 1.764.728.541 0 1.008-.135 1.4-.406.392-.271.672-.635.84-1.092h1.288a3.424 3.424 0 0 1-1.26 1.89c-.635.476-1.391.714-2.268.714Zm8.006 0c-.971 0-1.787-.355-2.45-1.064-.653-.709-.98-1.568-.98-2.576s.327-1.867.98-2.576c.663-.709 1.479-1.064 2.45-1.064a3 3 0 0 1 1.428.35c.448.224.793.513 1.036.868V221h1.204v7h-1.204v-1.078c-.243.355-.588.649-1.036.882a3.096 3.096 0 0 1-1.428.336Zm.182-1.106c.691 0 1.26-.243 1.708-.728.448-.485.672-1.087.672-1.806 0-.719-.224-1.321-.672-1.806-.448-.485-1.017-.728-1.708-.728-.7 0-1.274.243-1.722.728-.448.485-.672 1.087-.672 1.806 0 .719.224 1.321.672 1.806.448.485 1.022.728 1.722.728Z" fill="#fff"/></svg>