<svg width="1670" height="700" fill="none" xmlns="http://www.w3.org/2000/svg"><mask id="a" maskUnits="userSpaceOnUse" x="552" y="338" width="562" height="316" fill="#000"><path fill="#fff" d="M552 338h562v316H552z"/><path d="M637.107 496.3c0-9.333 3.266-17.267 9.8-23.8 6.533-6.533 14.466-9.8 23.8-9.8h347.903c7 0 13.06-2.567 18.2-7.7 5.13-5.133 7.7-11.433 7.7-18.9 0-7-2.57-12.833-7.7-17.5-5.14-5.133-11.2-7.7-18.2-7.7H590.907c-9.334 0-17.267-3.267-23.8-9.8-6.534-6.533-9.8-14.467-9.8-23.8s3.266-17.267 9.8-23.8c6.533-6.533 14.466-9.8 23.8-9.8h424.203c13.06 0 25.2 2.333 36.4 7 11.66 4.667 21.7 11.2 30.1 19.6 8.4 8.4 14.93 18.2 19.6 29.4 5.13 11.2 7.7 23.333 7.7 36.4 0 11.667-2.1 22.633-6.3 32.9-3.74 10.267-9.1 19.367-16.1 27.3 14.93 17.733 22.4 37.8 22.4 60.2 0 13.067-2.57 25.2-7.7 36.4-4.67 11.2-11.2 21-19.6 29.4-8.4 8.4-18.44 14.933-30.1 19.6-11.2 4.667-23.34 7-36.4 7H590.907c-9.334 0-17.267-3.267-23.8-9.8-6.534-6.533-9.8-14.467-9.8-23.8s3.266-17.267 9.8-23.8c6.533-6.533 14.466-9.8 23.8-9.8h427.703c7 0 13.06-2.333 18.2-7 5.13-5.133 7.7-11.2 7.7-18.2 0-7.467-2.57-13.767-7.7-18.9-5.14-5.133-11.2-7.7-18.2-7.7H670.707c-9.334 0-17.267-3.267-23.8-9.8-6.534-6.533-9.8-14.467-9.8-23.8Z"/></mask><path d="m1036.81 455-3.54-3.536 3.54 3.536Zm0-36.4-3.54 3.536.09.084.08.08 3.37-3.7Zm-469.703-17.5 3.535-3.536-3.535 3.536Zm0-47.6-3.536-3.536 3.536 3.536Zm484.403-2.8-1.93 4.615.04.014.03.013 1.86-4.642Zm49.7 49-4.62 1.923.03.081.04.079 4.55-2.083Zm1.4 69.3-4.63-1.893-.04.091-.03.093 4.7 1.709Zm-16.1 27.3-3.75-3.308-2.85 3.232 2.77 3.297 3.83-3.221Zm14.7 96.6-4.55-2.083-.04.079-.03.081 4.62 1.923Zm-19.6 29.4-3.54-3.536 3.54 3.536Zm-30.1 19.6-1.86-4.642-.03.013-.04.014 1.93 4.615Zm-484.403-2.8 3.535-3.536-3.535 3.536Zm0-47.6 3.535 3.536-3.535-3.536Zm469.703-16.8 3.36 3.7.09-.08.08-.084-3.53-3.536Zm0-37.1-3.54 3.535v.001l3.54-3.536Zm-389.903-17.5-3.536 3.536 3.536-3.536Zm-4.8-23.8c0-8.022 2.75-14.679 8.335-20.264l-7.071-7.072c-7.482 7.482-11.264 16.692-11.264 27.336h10Zm8.335-20.264c5.585-5.585 12.242-8.336 20.265-8.336v-10c-10.645 0-19.854 3.783-27.336 11.264l7.071 7.072Zm20.265-8.336h347.903v-10H670.707v10Zm347.903 0c8.38 0 15.7-3.132 21.73-9.164l-7.07-7.072c-4.23 4.235-9.04 6.236-14.66 6.236v10Zm21.73-9.164c6.1-6.101 9.17-13.686 9.17-22.436h-10c0 6.183-2.07 11.198-6.24 15.364l7.07 7.072Zm9.17-22.436c0-8.394-3.15-15.576-9.34-21.2l-6.73 7.4c4.08 3.709 6.07 8.194 6.07 13.8h10Zm-9.17-21.036c-6.03-6.032-13.35-9.164-21.73-9.164v10c5.62 0 10.43 2.001 14.66 6.236l7.07-7.072Zm-21.73-9.164H590.907v10h427.703v-10Zm-427.703 0c-8.023 0-14.68-2.751-20.265-8.336l-7.071 7.072c7.482 7.481 16.691 11.264 27.336 11.264v-10Zm-20.265-8.336c-5.585-5.585-8.335-12.242-8.335-20.264h-10c0 10.644 3.782 19.854 11.264 27.336l7.071-7.072Zm-8.335-20.264c0-8.022 2.75-14.679 8.335-20.264l-7.071-7.072c-7.482 7.482-11.264 16.692-11.264 27.336h10Zm8.335-20.264c5.585-5.585 12.242-8.336 20.265-8.336v-10c-10.645 0-19.854 3.783-27.336 11.264l7.071 7.072Zm20.265-8.336h424.203v-10H590.907v10Zm424.203 0c12.45 0 23.93 2.222 34.47 6.615l3.85-9.23c-11.86-4.94-24.65-7.385-38.32-7.385v10Zm34.54 6.642c11.07 4.43 20.53 10.6 28.42 18.494l7.07-7.072c-8.9-8.906-19.52-15.803-31.78-20.706l-3.71 9.284Zm28.42 18.494c7.93 7.928 14.1 17.177 18.52 27.787l9.23-3.846c-4.91-11.79-11.81-22.141-20.68-31.013l-7.07 7.072Zm18.59 27.947c4.82 10.507 7.25 21.925 7.25 34.317h10c0-13.741-2.71-26.59-8.16-38.483l-9.09 4.166Zm7.25 34.317c0 11.052-1.99 21.372-5.93 31.007l9.25 3.786c4.46-10.898 6.68-22.511 6.68-34.793h-10Zm-6 31.191c-3.53 9.699-8.58 18.252-15.15 25.701l7.5 6.616c7.42-8.418 13.11-18.064 17.05-28.899l-9.4-3.418Zm-15.23 32.23c14.21 16.866 21.23 35.802 21.23 56.979h10c0-23.623-7.92-44.82-23.58-63.421l-7.65 6.442Zm21.23 56.979c0 12.392-2.43 23.81-7.25 34.317l9.09 4.166c5.45-11.893 8.16-24.742 8.16-38.483h-10Zm-7.32 34.477c-4.42 10.61-10.59 19.859-18.52 27.787l7.07 7.072c8.87-8.872 15.77-19.223 20.68-31.013l-9.23-3.846Zm-18.52 27.787c-7.89 7.894-17.35 14.064-28.42 18.494l3.71 9.284c12.26-4.903 22.88-11.8 31.78-20.706l-7.07-7.072Zm-28.49 18.521c-10.54 4.393-22.02 6.615-34.47 6.615v10c13.67 0 26.46-2.445 38.32-7.385l-3.85-9.23Zm-34.47 6.615H590.907v10h424.203v-10Zm-424.203 0c-8.023 0-14.68-2.751-20.265-8.336l-7.071 7.072c7.482 7.481 16.691 11.264 27.336 11.264v-10Zm-20.265-8.336c-5.585-5.585-8.335-12.242-8.335-20.264h-10c0 10.644 3.782 19.854 11.264 27.336l7.071-7.072Zm-8.335-20.264c0-8.022 2.75-14.679 8.335-20.264l-7.071-7.072c-7.482 7.482-11.264 16.692-11.264 27.336h10Zm8.335-20.264c5.585-5.585 12.242-8.336 20.265-8.336v-10c-10.645 0-19.854 3.783-27.336 11.264l7.071 7.072Zm20.265-8.336h427.703v-10H590.907v10Zm427.703 0c8.23 0 15.5-2.789 21.56-8.3l-6.73-7.4c-4.2 3.822-9.06 5.7-14.83 5.7v10Zm21.73-8.464c6.03-6.033 9.17-13.356 9.17-21.736h-10c0 5.62-2 10.43-6.24 14.664l7.07 7.072Zm9.17-21.736c0-8.75-3.07-16.335-9.17-22.436l-7.07 7.072c4.17 4.166 6.24 9.181 6.24 15.364h10Zm-9.17-22.436c-6.03-6.032-13.35-9.164-21.73-9.164v10c5.62 0 10.43 2.001 14.66 6.235l7.07-7.071Zm-21.73-9.164H670.707v10h347.903v-10Zm-347.903 0c-8.023 0-14.68-2.751-20.265-8.336l-7.071 7.072c7.482 7.481 16.691 11.264 27.336 11.264v-10Zm-20.265-8.336c-5.585-5.585-8.335-12.242-8.335-20.264h-10c0 10.644 3.782 19.854 11.264 27.336l7.071-7.072Z" fill="#29FF7F" fill-opacity=".1" mask="url(#a)"/><path d="M111.697 432.44h-49.5c-1.68 0-3.27-.3-4.77-.9-1.5-.66-2.82-1.53-3.96-2.61a12.104 12.104 0 0 1-2.7-3.78c-.66-1.44-.99-3-.99-4.68v-4.23c0-1.2.42-2.22 1.26-3.06.84-.84 1.86-1.26 3.06-1.26s2.22.42 3.06 1.26c.84.84 1.26 1.86 1.26 3.06v4.23c0 .96.33 1.77.99 2.43.72.6 1.53.9 2.43.9h49.86v-7.56c0-1.2.42-2.22 1.26-3.06.84-.84 1.86-1.26 3.06-1.26s2.22.42 3.06 1.26c.84.84 1.26 1.86 1.26 3.06v16.56c0 .3-.03.6-.09.9-.18 1.68-.54 3.36-1.08 5.04-.78 2.28-1.89 4.35-3.33 6.21a18.34 18.34 0 0 1-5.4 4.68c-2.1 1.2-4.44 1.8-7.02 1.8h-40.68c-2.04 0-3.99-.42-5.85-1.26-1.8-.84-3.39-1.98-4.77-3.42a15.272 15.272 0 0 1-3.24-4.77c-.6-2.82-.45-4.65.45-5.49.84-.84 1.83-1.26 2.97-1.26 1.2 0 2.22.42 3.06 1.26.84.84 1.41 1.89 1.71 3.15.3 1.2 1.86 2.07 4.68 2.61 1.14.36 2.34.54 3.6.54h36.27c1.98 0 3.6-.33 4.86-.99 1.32-.66 2.37-1.5 3.15-2.52a9.886 9.886 0 0 0 1.53-3.33c.36-1.2.54-2.34.54-3.42v-.09Zm88.091 14.67c0 1.2-.42 2.22-1.26 3.06-.84.84-1.86 1.26-3.06 1.26s-2.22-.42-3.06-1.26c-.84-.84-1.26-1.86-1.26-3.06v-10.98h-53.19v10.98c0 1.2-.42 2.22-1.26 3.06-.84.84-1.86 1.26-3.06 1.26s-2.22-.42-3.06-1.26c-.84-.84-1.26-1.86-1.26-3.06v-30.6c0-1.2.42-2.22 1.26-3.06.84-.84 1.86-1.26 3.06-1.26s2.22.42 3.06 1.26c.84.84 1.26 1.86 1.26 3.06v10.98h53.19v-10.98c0-1.2.42-2.22 1.26-3.06.84-.84 1.86-1.26 3.06-1.26s2.22.42 3.06 1.26c.84.84 1.26 1.86 1.26 3.06v30.6Zm17.623-12.87c0 2.16.12 3.81.36 4.95.24 1.14.81 1.71 1.71 1.71.48 0 1.08-.18 1.8-.54.78-.42 1.74-.96 2.88-1.62l41.22-25.2c.66-.42 1.38-.75 2.16-.99.84-.24 1.68-.36 2.52-.36 2.46 0 4.5.84 6.12 2.52 1.68 1.68 2.52 3.75 2.52 6.21v26.19c0 1.2-.42 2.22-1.26 3.06-.84.84-1.86 1.26-3.06 1.26s-2.22-.42-3.06-1.26c-.84-.84-1.26-1.86-1.26-3.06v-17.73c0-2.16-.12-3.81-.36-4.95-.24-1.14-.81-1.71-1.71-1.71-.48 0-1.11.21-1.89.63-.72.36-1.65.87-2.79 1.53l-41.22 25.2c-.66.42-1.41.75-2.25.99-.78.24-1.59.36-2.43.36-2.46 0-4.53-.84-6.21-2.52-1.62-1.68-2.43-3.75-2.43-6.21v-26.19c0-1.2.42-2.22 1.26-3.06.84-.84 1.86-1.26 3.06-1.26s2.22.42 3.06 1.26c.84.84 1.26 1.86 1.26 3.06v17.73Zm78.836-6.75h20.79c3.12 0 6.18-.39 9.18-1.17 3-.84 5.91-1.92 8.73-3.24 2.88-1.32 5.61-2.82 8.19-4.5 2.64-1.68 5.16-3.39 7.56-5.13 1.02-.84 2.04-1.26 3.06-1.26 1.2 0 2.22.42 3.06 1.26.84.84 1.26 1.86 1.26 3.06 0 .84-.24 1.59-.72 2.25-.48.6-1.05 1.14-1.71 1.62-1.56 1.2-3.06 2.34-4.5 3.42a90.005 90.005 0 0 1-4.32 2.88c-1.44.9-2.94 1.77-4.5 2.61-1.5.84-3.12 1.68-4.86 2.52 1.74.84 3.36 1.68 4.86 2.52 1.56.84 3.06 1.71 4.5 2.61 1.44.9 2.88 1.89 4.32 2.97 1.44 1.02 2.94 2.13 4.5 3.33.66.48 1.23 1.05 1.71 1.71.48.6.72 1.32.72 2.16 0 1.2-.42 2.22-1.26 3.06-.84.84-1.86 1.26-3.06 1.26-1.02 0-2.04-.42-3.06-1.26-2.46-1.8-5.01-3.54-7.65-5.22a66.445 66.445 0 0 0-8.1-4.5 50.563 50.563 0 0 0-8.73-3.15c-3-.78-6.06-1.17-9.18-1.17h-20.79v10.98c0 1.2-.42 2.22-1.26 3.06-.84.84-1.83 1.26-2.97 1.26-1.2 0-2.22-.42-3.06-1.26-.84-.84-1.26-1.86-1.26-3.06v-30.6c0-1.2.42-2.22 1.26-3.06.84-.84 1.83-1.26 2.97-1.26 1.2 0 2.22.42 3.06 1.26.84.84 1.26 1.86 1.26 3.06v10.98Zm90.256 6.66h25.56l-9.27-12.42c-.42-.48-.96-.99-1.62-1.53-.6-.6-1.23-.9-1.89-.9-.66 0-1.32.3-1.98.9-.6.54-1.08 1.05-1.44 1.53l-9.36 12.42Zm32.04 8.64h-38.61l-5.22 7.02c-.9 1.08-2.01 1.62-3.33 1.62-1.2 0-2.22-.42-3.06-1.26-.84-.84-1.26-1.86-1.26-3.06 0-1.08.3-1.95.9-2.61l21.87-29.43c1.02-1.38 2.37-2.49 4.05-3.33 1.68-.9 3.48-1.35 5.4-1.35 1.8 0 3.51.39 5.13 1.17 1.62.78 2.94 1.86 3.96 3.24l21.87 29.25c.36.42.66.9.9 1.44.24.48.36 1.02.36 1.62 0 1.2-.42 2.22-1.26 3.06-.84.84-1.86 1.26-3.06 1.26-1.44 0-2.58-.57-3.42-1.71l-5.22-6.93Zm29.646 7.02c-.9 1.08-2.01 1.62-3.33 1.62-1.2 0-2.22-.42-3.06-1.26-.84-.84-1.26-1.86-1.26-3.06 0-1.08.3-1.95.9-2.61l21.87-29.43c1.02-1.38 2.37-2.49 4.05-3.33 1.68-.9 3.48-1.35 5.4-1.35 1.8 0 3.51.39 5.13 1.17 1.62.78 2.94 1.86 3.96 3.24l21.87 29.25c.36.42.66.9.9 1.44.24.48.36 1.02.36 1.62 0 1.2-.42 2.22-1.26 3.06-.84.84-1.86 1.26-3.06 1.26-1.44 0-2.58-.57-3.42-1.71l-20.97-27.99c-.42-.48-.96-.99-1.62-1.53-.6-.6-1.23-.9-1.89-.9-.66 0-1.32.3-1.98.9-.6.54-1.08 1.05-1.44 1.53l-21.15 28.08Zm124.417-7.02c.9 0 1.68-.33 2.34-.99.72-.66 1.08-1.44 1.08-2.34 0-.96-.36-1.74-1.08-2.34-.66-.66-1.44-.99-2.34-.99h-49.95v6.66h49.95Zm-54.27 8.64c-1.2 0-2.22-.42-3.06-1.26-.84-.84-1.26-1.86-1.26-3.06v-30.6c0-1.2.42-2.22 1.26-3.06.84-.84 1.86-1.26 3.06-1.26 1.14 0 2.13.42 2.97 1.26.9.84 1.35 1.86 1.35 3.06v10.98h49.59c1.68 0 3.24.33 4.68.99 1.5.6 2.79 1.44 3.87 2.52a10.96 10.96 0 0 1 2.61 3.78c.66 1.44.99 3 .99 4.68 0 1.68-.33 3.24-.99 4.68-.6 1.44-1.47 2.7-2.61 3.78-1.08 1.08-2.37 1.95-3.87 2.61-1.44.6-3 .9-4.68.9h-53.91Zm145.515-4.32c0 1.2-.42 2.22-1.26 3.06-.84.84-1.86 1.26-3.06 1.26s-2.22-.42-3.06-1.26c-.84-.84-1.26-1.86-1.26-3.06v-10.98h-53.19v10.98c0 1.2-.42 2.22-1.26 3.06-.84.84-1.86 1.26-3.06 1.26s-2.22-.42-3.06-1.26c-.84-.84-1.26-1.86-1.26-3.06v-30.6c0-1.2.42-2.22 1.26-3.06.84-.84 1.86-1.26 3.06-1.26s2.22.42 3.06 1.26c.84.84 1.26 1.86 1.26 3.06v10.98h53.19v-10.98c0-1.2.42-2.22 1.26-3.06.84-.84 1.86-1.26 3.06-1.26s2.22.42 3.06 1.26c.84.84 1.26 1.86 1.26 3.06v30.6Zm28.423-12.96h25.56l-9.27-12.42c-.42-.48-.96-.99-1.62-1.53-.6-.6-1.23-.9-1.89-.9-.66 0-1.32.3-1.98.9-.6.54-1.08 1.05-1.44 1.53l-9.36 12.42Zm32.04 8.64h-38.61l-5.22 7.02c-.9 1.08-2.01 1.62-3.33 1.62-1.2 0-2.22-.42-3.06-1.26-.84-.84-1.26-1.86-1.26-3.06 0-1.08.3-1.95.9-2.61l21.87-29.43c1.02-1.38 2.37-2.49 4.05-3.33 1.68-.9 3.48-1.35 5.4-1.35 1.8 0 3.51.39 5.13 1.17 1.62.78 2.94 1.86 3.96 3.24l21.87 29.25c.36.42.66.9.9 1.44.24.48.36 1.02.36 1.62 0 1.2-.42 2.22-1.26 3.06-.84.84-1.86 1.26-3.06 1.26-1.44 0-2.58-.57-3.42-1.71l-5.22-6.93Zm21.997 4.32c0-.84.3-1.65.9-2.43 2.16-3.18 4.59-5.85 7.29-8.01 2.76-2.22 5.85-3.99 9.27-5.31 3.48-1.38 7.35-2.37 11.61-2.97 4.26-.6 9.03-.9 14.31-.9h18.36v-4.68c-.12-.54-.42-.99-.9-1.35-.48-.42-1.11-.63-1.89-.63h-47.16c-.84.12-1.59.48-2.25 1.08-.6.6-.9 1.35-.9 2.25 0 1.2-.42 2.22-1.26 3.06-.84.84-1.86 1.26-3.06 1.26s-2.22-.42-3.06-1.26c-.84-.84-1.26-1.86-1.26-3.06 0-1.68.33-3.24.99-4.68.66-1.44 1.56-2.7 2.7-3.78 1.14-1.08 2.46-1.92 3.96-2.52 1.5-.66 3.09-.99 4.77-.99h46.98c1.32 0 2.64.3 3.96.9 1.32.54 2.49 1.32 3.51 2.34 1.02 1.02 1.86 2.25 2.52 3.69.66 1.44.99 3.06.99 4.86v23.13c0 1.2-.42 2.22-1.26 3.06-.84.84-1.86 1.26-3.06 1.26-1.14 0-2.16-.42-3.06-1.26-.84-.84-1.26-1.86-1.26-3.06v-10.98h-18.36c-3.66 0-7.11.12-10.35.36-3.18.18-6.21.72-9.09 1.62-2.88.9-5.64 2.22-8.28 3.96-2.58 1.74-5.1 4.14-7.56 7.2-.18.24-.45.54-.81.9-.42.36-.87.66-1.35.9-.48.24-1.02.36-1.62.36-1.2 0-2.22-.42-3.06-1.26-.84-.84-1.26-1.86-1.26-3.06Zm195.842 0c0 1.2-.42 2.22-1.26 3.06-.84.84-1.86 1.26-3.06 1.26s-2.22-.42-3.06-1.26c-.84-.84-1.26-1.86-1.26-3.06v-19.62c0-2.46-.15-3.69-.45-3.69-.24 0-1.08.81-2.52 2.43l-19.8 22.5a7.71 7.71 0 0 1-2.88 2.07c-1.14.42-2.37.63-3.69.63-1.32 0-2.55-.21-3.69-.63a7.71 7.71 0 0 1-2.88-2.07l-19.8-22.5c-1.38-1.62-2.22-2.43-2.52-2.43-.3 0-.45 1.23-.45 3.69v19.62c0 1.2-.42 2.22-1.26 3.06-.84.84-1.86 1.26-3.06 1.26s-2.22-.42-3.06-1.26c-.84-.84-1.26-1.86-1.26-3.06v-26.28c0-2.4.69-4.44 2.07-6.12 1.38-1.68 3.27-2.52 5.67-2.52 1.44 0 2.73.36 3.87 1.08 1.14.72 2.19 1.59 3.15 2.61l20.7 23.58c.3.3.66.63 1.08.99.48.3.96.45 1.44.45s.93-.15 1.35-.45c.48-.36.87-.69 1.17-.99l20.61-23.58h.09a9.393 9.393 0 0 1 3.06-2.7c1.2-.66 2.52-.99 3.96-.99 2.4 0 4.29.84 5.67 2.52 1.38 1.68 2.07 3.72 2.07 6.12v26.28Zm9.031-30.6c0-1.2.42-2.22 1.26-3.06.84-.84 1.86-1.26 3.06-1.26h63.806c1.2 0 2.22.42 3.06 1.26.84.84 1.26 1.86 1.26 3.06s-.42 2.22-1.26 3.06c-.84.84-1.86 1.26-3.06 1.26h-63.806c-1.2 0-2.22-.42-3.06-1.26-.84-.84-1.26-1.86-1.26-3.06Zm10.98 34.92c-1.32 0-2.64-.27-3.96-.81-1.32-.6-2.49-1.41-3.51-2.43-1.02-1.02-1.86-2.25-2.52-3.69-.66-1.44-.99-3.06-.99-4.86v-8.1c0-1.62.45-2.7 1.35-3.24.96-.54 2.43-.81 4.41-.81h60.386c1.2 0 2.22.42 3.06 1.26.84.84 1.26 1.86 1.26 3.06s-.42 2.22-1.26 3.06c-.84.84-1.86 1.26-3.06 1.26h-57.506v4.41c0 .6.24 1.14.72 1.62.54.42 1.23.63 2.07.63h56.696c1.2 0 2.22.42 3.06 1.26.84.84 1.26 1.86 1.26 3.06s-.42 2.22-1.26 3.06c-.84.84-1.86 1.26-3.06 1.26h-57.146Zm136.736-39.24c1.2 0 2.22.42 3.06 1.26.84.84 1.26 1.86 1.26 3.06 0 1.14-.39 2.13-1.17 2.97-.78.78-1.71 1.23-2.79 1.35h-18.09c-1.8.12-3.3.57-4.5 1.35-1.14.72-2.04 1.62-2.7 2.7a10.41 10.41 0 0 0-1.35 3.51c-.24 1.26-.36 2.4-.36 3.42v15.3c0 1.2-.42 2.22-1.26 3.06-.84.84-1.86 1.26-3.06 1.26s-2.22-.42-3.06-1.26c-.84-.84-1.26-1.86-1.26-3.06v-15.3c0-1.86.24-3.72.72-5.58.48-1.92 1.2-3.72 2.16-5.4h-29.52c-1.2 0-2.22-.42-3.06-1.26-.84-.84-1.26-1.86-1.26-3.06s.42-2.22 1.26-3.06c.84-.84 1.86-1.26 3.06-1.26h61.92Zm68.11 30.6c2.04 0 3.72-.36 5.04-1.08 1.32-.78 2.34-1.71 3.06-2.79a8.725 8.725 0 0 0 1.53-3.51c.3-1.32.45-2.52.45-3.6s-.15-2.25-.45-3.51a8.743 8.743 0 0 0-1.53-3.6c-.72-1.08-1.74-1.98-3.06-2.7-1.32-.78-3-1.17-5.04-1.17h-36.36c-2.1 0-3.81.39-5.13 1.17-1.26.72-2.28 1.62-3.06 2.7-.72 1.08-1.23 2.28-1.53 3.6-.24 1.26-.36 2.43-.36 3.51 0 1.08.12 2.28.36 3.6.3 1.26.81 2.43 1.53 3.51.78 1.08 1.8 2.01 3.06 2.79 1.32.72 3.03 1.08 5.13 1.08h36.36Zm18.45-10.98c0 2.28-.39 4.59-1.17 6.93-.72 2.28-1.8 4.38-3.24 6.3a18.226 18.226 0 0 1-5.22 4.59c-2.04 1.2-4.35 1.8-6.93 1.8h-41.04c-2.46-.12-4.65-.78-6.57-1.98a19.32 19.32 0 0 1-4.95-4.68c-1.32-1.86-2.34-3.93-3.06-6.21-.72-2.28-1.08-4.53-1.08-6.75 0-2.28.36-4.56 1.08-6.84.78-2.34 1.89-4.44 3.33-6.3 1.44-1.92 3.18-3.48 5.22-4.68 2.04-1.2 4.35-1.8 6.93-1.8h41.04c2.46.12 4.65.81 6.57 2.07a16.87 16.87 0 0 1 4.86 4.59c1.38 1.86 2.43 3.93 3.15 6.21.72 2.28 1.08 4.53 1.08 6.75Zm43.56 16.11c0-1.56.54-2.88 1.62-3.96s2.4-1.62 3.96-1.62 2.88.54 3.96 1.62 1.62 2.4 1.62 3.96-.54 2.88-1.62 3.96-2.4 1.62-3.96 1.62-2.88-.54-3.96-1.62-1.62-2.4-1.62-3.96Zm-13.95-3.06h2.25c1.2 0 2.22.42 3.06 1.26.84.84 1.26 1.86 1.26 3.06s-.42 2.22-1.26 3.06c-.84.84-1.86 1.26-3.06 1.26h-19.17a4.554 4.554 0 0 1-2.79-1.35c-.78-.84-1.17-1.83-1.17-2.97 0-1.2.42-2.22 1.26-3.06.84-.84 1.86-1.26 3.06-1.26h5.85l21.15-28.26c1.08-1.38 2.4-2.46 3.96-3.24 1.62-.78 3.33-1.17 5.13-1.17 1.92 0 3.69.45 5.31 1.35 1.68.84 3.06 1.95 4.14 3.33l20.79 27.99h5.4c1.2 0 2.22.42 3.06 1.26.84.84 1.26 1.86 1.26 3.06s-.42 2.22-1.26 3.06c-.84.84-1.86 1.26-3.06 1.26h-19.17a4.554 4.554 0 0 1-2.79-1.35c-.78-.84-1.17-1.83-1.17-2.97 0-1.2.42-2.22 1.26-3.06.84-.84 1.86-1.26 3.06-1.26h2.7l-16.11-21.33c-.36-.48-.87-.99-1.53-1.53-.6-.6-1.23-.9-1.89-.9-.66 0-1.32.3-1.98.9-.6.54-1.11 1.05-1.53 1.53l-16.02 21.33Zm75.75-10.62c0 2.16.12 3.81.36 4.95.24 1.14.81 1.71 1.71 1.71.48 0 1.08-.18 1.8-.54.78-.42 1.74-.96 2.88-1.62l41.22-25.2c.66-.42 1.38-.75 2.16-.99.84-.24 1.68-.36 2.52-.36 2.46 0 4.5.84 6.12 2.52 1.68 1.68 2.52 3.75 2.52 6.21v26.19c0 1.2-.42 2.22-1.26 3.06-.84.84-1.86 1.26-3.06 1.26s-2.22-.42-3.06-1.26c-.84-.84-1.26-1.86-1.26-3.06v-17.73c0-2.16-.12-3.81-.36-4.95-.24-1.14-.81-1.71-1.71-1.71-.48 0-1.11.21-1.89.63-.72.36-1.65.87-2.79 1.53l-41.22 25.2c-.66.42-1.41.75-2.25.99-.78.24-1.59.36-2.43.36-2.46 0-4.53-.84-6.21-2.52-1.62-1.68-2.43-3.75-2.43-6.21v-26.19c0-1.2.42-2.22 1.26-3.06.84-.84 1.86-1.26 3.06-1.26s2.22.42 3.06 1.26c.84.84 1.26 1.86 1.26 3.06v17.73Zm78.84-6.75h20.79c3.12 0 6.18-.39 9.18-1.17 3-.84 5.91-1.92 8.73-3.24 2.88-1.32 5.61-2.82 8.19-4.5 2.64-1.68 5.16-3.39 7.56-5.13 1.02-.84 2.04-1.26 3.06-1.26 1.2 0 2.22.42 3.06 1.26.84.84 1.26 1.86 1.26 3.06 0 .84-.24 1.59-.72 2.25-.48.6-1.05 1.14-1.71 1.62-1.56 1.2-3.06 2.34-4.5 3.42a90.005 90.005 0 0 1-4.32 2.88c-1.44.9-2.94 1.77-4.5 2.61-1.5.84-3.12 1.68-4.86 2.52 1.74.84 3.36 1.68 4.86 2.52 1.56.84 3.06 1.71 4.5 2.61 1.44.9 2.88 1.89 4.32 2.97 1.44 1.02 2.94 2.13 4.5 3.33.66.48 1.23 1.05 1.71 1.71.48.6.72 1.32.72 2.16 0 1.2-.42 2.22-1.26 3.06-.84.84-1.86 1.26-3.06 1.26-1.02 0-2.04-.42-3.06-1.26-2.46-1.8-5.01-3.54-7.65-5.22a66.445 66.445 0 0 0-8.1-4.5 50.563 50.563 0 0 0-8.73-3.15c-3-.78-6.06-1.17-9.18-1.17h-20.79v10.98c0 1.2-.42 2.22-1.26 3.06-.84.84-1.83 1.26-2.97 1.26-1.2 0-2.22-.42-3.06-1.26-.84-.84-1.26-1.86-1.26-3.06v-30.6c0-1.2.42-2.22 1.26-3.06.84-.84 1.83-1.26 2.97-1.26 1.2 0 2.22.42 3.06 1.26.84.84 1.26 1.86 1.26 3.06v10.98Zm90.25 6.66h25.56l-9.27-12.42c-.42-.48-.96-.99-1.62-1.53-.6-.6-1.23-.9-1.89-.9-.66 0-1.32.3-1.98.9-.6.54-1.08 1.05-1.44 1.53l-9.36 12.42Zm32.04 8.64h-38.61l-5.22 7.02c-.9 1.08-2.01 1.62-3.33 1.62-1.2 0-2.22-.42-3.06-1.26-.84-.84-1.26-1.86-1.26-3.06 0-1.08.3-1.95.9-2.61l21.87-29.43c1.02-1.38 2.37-2.49 4.05-3.33 1.68-.9 3.48-1.35 5.4-1.35 1.8 0 3.51.39 5.13 1.17 1.62.78 2.94 1.86 3.96 3.24l21.87 29.25c.36.42.66.9.9 1.44.24.48.36 1.02.36 1.62 0 1.2-.42 2.22-1.26 3.06-.84.84-1.86 1.26-3.06 1.26-1.44 0-2.58-.57-3.42-1.71l-5.22-6.93ZM794.622 564.81c0-1.08-.15-2.25-.45-3.51a8.743 8.743 0 0 0-1.53-3.6c-.72-1.08-1.74-1.98-3.06-2.7-1.32-.78-3-1.17-5.04-1.17h-32.49c-2.1 0-3.81.39-5.13 1.17-1.26.72-2.28 1.62-3.06 2.7-.72 1.08-1.23 2.28-1.53 3.6-.24 1.26-.36 2.43-.36 3.51v15.3c0 1.2-.42 2.22-1.26 3.06-.84.84-1.86 1.26-3.06 1.26s-2.22-.42-3.06-1.26c-.84-.84-1.26-1.86-1.26-3.06v-15.3c0-2.28.36-4.56 1.08-6.84.78-2.34 1.89-4.44 3.33-6.3 1.44-1.92 3.18-3.48 5.22-4.68 2.04-1.2 4.35-1.8 6.93-1.8h37.71c2.46.12 4.65.81 6.57 2.07a16.87 16.87 0 0 1 4.86 4.59c1.38 1.86 2.43 3.93 3.15 6.21.72 2.28 1.08 4.53 1.08 6.75v15.3c0 1.2-.42 2.22-1.26 3.06-.84.84-1.86 1.26-3.06 1.26s-2.22-.42-3.06-1.26c-.84-.84-1.26-1.86-1.26-3.06v-15.3Zm26.276-10.98v6.66h49.95c.9 0 1.68-.3 2.34-.9.72-.66 1.08-1.47 1.08-2.43 0-.9-.36-1.68-1.08-2.34-.66-.66-1.44-.99-2.34-.99h-49.95Zm49.59-8.64c1.68 0 3.24.33 4.68.99 1.5.6 2.79 1.44 3.87 2.52a10.96 10.96 0 0 1 2.61 3.78c.66 1.44.99 3 .99 4.68 0 1.68-.33 3.24-.99 4.68-.6 1.44-1.47 2.7-2.61 3.78-1.08 1.08-2.37 1.95-3.87 2.61-1.44.6-3 .9-4.68.9h-49.59v10.98c0 1.2-.45 2.22-1.35 3.06-.84.84-1.83 1.26-2.97 1.26-1.2 0-2.22-.42-3.06-1.26-.84-.84-1.26-1.86-1.26-3.06v-30.6c0-1.2.42-2.22 1.26-3.06.84-.84 1.86-1.26 3.06-1.26h53.91Zm75.945 30.6c2.04 0 3.72-.36 5.04-1.08 1.32-.78 2.34-1.71 3.06-2.79a8.725 8.725 0 0 0 1.53-3.51c.3-1.32.45-2.52.45-3.6s-.15-2.25-.45-3.51a8.743 8.743 0 0 0-1.53-3.6c-.72-1.08-1.74-1.98-3.06-2.7-1.32-.78-3-1.17-5.04-1.17h-36.36c-2.1 0-3.81.39-5.13 1.17-1.26.72-2.28 1.62-3.06 2.7-.72 1.08-1.23 2.28-1.53 3.6-.24 1.26-.36 2.43-.36 3.51 0 1.08.12 2.28.36 3.6.3 1.26.81 2.43 1.53 3.51.78 1.08 1.8 2.01 3.06 2.79 1.32.72 3.03 1.08 5.13 1.08h36.36Zm18.45-10.98c0 2.28-.39 4.59-1.17 6.93-.72 2.28-1.8 4.38-3.24 6.3a18.226 18.226 0 0 1-5.22 4.59c-2.04 1.2-4.35 1.8-6.93 1.8h-41.04c-2.46-.12-4.65-.78-6.57-1.98a19.32 19.32 0 0 1-4.95-4.68c-1.32-1.86-2.34-3.93-3.06-6.21-.72-2.28-1.08-4.53-1.08-6.75 0-2.28.36-4.56 1.08-6.84.78-2.34 1.89-4.44 3.33-6.3 1.44-1.92 3.18-3.48 5.22-4.68 2.04-1.2 4.35-1.8 6.93-1.8h41.04c2.46.12 4.65.81 6.57 2.07a16.87 16.87 0 0 1 4.86 4.59c1.38 1.86 2.43 3.93 3.15 6.21.72 2.28 1.08 4.53 1.08 6.75Zm43.567 16.11c0-1.56.54-2.88 1.62-3.96s2.4-1.62 3.96-1.62 2.88.54 3.96 1.62 1.62 2.4 1.62 3.96-.54 2.88-1.62 3.96-2.4 1.62-3.96 1.62-2.88-.54-3.96-1.62-1.62-2.4-1.62-3.96Zm-13.951-3.06h2.25c1.2 0 2.22.42 3.06 1.26.841.84 1.261 1.86 1.261 3.06s-.42 2.22-1.261 3.06c-.84.84-1.86 1.26-3.06 1.26h-19.17a4.554 4.554 0 0 1-2.79-1.35c-.78-.84-1.17-1.83-1.17-2.97 0-1.2.42-2.22 1.26-3.06.84-.84 1.86-1.26 3.06-1.26h5.85l21.151-28.26c1.08-1.38 2.4-2.46 3.96-3.24 1.62-.78 3.33-1.17 5.13-1.17 1.92 0 3.69.45 5.31 1.35 1.68.84 3.06 1.95 4.14 3.33l20.79 27.99h5.4c1.2 0 2.22.42 3.06 1.26.84.84 1.26 1.86 1.26 3.06s-.42 2.22-1.26 3.06c-.84.84-1.86 1.26-3.06 1.26h-19.17a4.554 4.554 0 0 1-2.79-1.35c-.78-.84-1.17-1.83-1.17-2.97 0-1.2.42-2.22 1.26-3.06.84-.84 1.86-1.26 3.06-1.26h2.7l-16.11-21.33c-.36-.48-.87-.99-1.53-1.53-.6-.6-1.23-.9-1.89-.9-.66 0-1.32.3-1.98.9-.6.54-1.11 1.05-1.53 1.53l-16.021 21.33Zm75.741-2.07h49.95c.9 0 1.68-.33 2.34-.99.72-.66 1.08-1.44 1.08-2.34 0-.96-.36-1.74-1.08-2.34-.66-.66-1.44-.99-2.34-.99h-49.95v6.66Zm0-21.96v6.66h50.04c.9 0 1.68-.3 2.34-.9.66-.6.99-1.38.99-2.34 0-.9-.36-1.68-1.08-2.34-.66-.72-1.44-1.08-2.34-1.08h-49.95Zm-4.32 30.6c-1.2 0-2.22-.42-3.06-1.26-.84-.84-1.26-1.86-1.26-3.06v-30.6c0-1.2.42-2.22 1.26-3.06.84-.84 1.86-1.26 3.06-1.26h53.91c1.68 0 3.24.33 4.68.99 1.5.6 2.79 1.44 3.87 2.52 1.14 1.08 2.01 2.37 2.61 3.87.66 1.44.99 3 .99 4.68 0 1.5-.27 2.91-.81 4.23-.48 1.26-1.14 2.4-1.98 3.42.84 1.02 1.5 2.19 1.98 3.51.54 1.26.81 2.61.81 4.05 0 1.68-.33 3.24-.99 4.68-.6 1.44-1.47 2.7-2.61 3.78-1.08 1.08-2.37 1.95-3.87 2.61-1.44.6-3 .9-4.68.9h-53.91Zm83.69-17.19c0 2.16.12 3.81.36 4.95.24 1.14.81 1.71 1.71 1.71.48 0 1.08-.18 1.8-.54.78-.42 1.74-.96 2.88-1.62l41.22-25.2c.66-.42 1.38-.75 2.16-.99.84-.24 1.68-.36 2.52-.36 2.46 0 4.5.84 6.12 2.52 1.68 1.68 2.52 3.75 2.52 6.21v26.19c0 1.2-.42 2.22-1.26 3.06-.84.84-1.86 1.26-3.06 1.26s-2.22-.42-3.06-1.26c-.84-.84-1.26-1.86-1.26-3.06v-17.73c0-2.16-.12-3.81-.36-4.95-.24-1.14-.81-1.71-1.71-1.71-.48 0-1.11.21-1.89.63-.72.36-1.65.87-2.79 1.53l-41.22 25.2c-.66.42-1.41.75-2.25.99-.78.24-1.59.36-2.43.36-2.46 0-4.53-.84-6.21-2.52-1.62-1.68-2.43-3.75-2.43-6.21v-26.19c0-1.2.42-2.22 1.26-3.06.84-.84 1.86-1.26 3.06-1.26s2.22.42 3.06 1.26c.84.84 1.26 1.86 1.26 3.06v17.73Zm138.32 17.19h-.63c-.18-.06-.39-.12-.63-.18-2.64-.54-5.22-1.44-7.74-2.7-2.52-1.26-4.77-2.76-6.75-4.5-1.98-1.74-3.57-3.66-4.77-5.76-1.2-2.16-1.8-4.32-1.8-6.48s.6-4.29 1.8-6.39c1.2-2.1 2.79-4.02 4.77-5.76 1.98-1.8 4.23-3.33 6.75-4.59 2.52-1.26 5.1-2.16 7.74-2.7.24-.06.45-.09.63-.09.18-.06.39-.09.63-.09 1.2 0 2.22.42 3.06 1.26.84.84 1.26 1.86 1.26 3.06 0 1.14-.39 2.1-1.17 2.88-.78.72-1.74 1.2-2.88 1.44-1.86.42-3.63 1.02-5.31 1.8-1.68.78-3.18 1.68-4.5 2.7-1.26.96-2.28 2.01-3.06 3.15-.72 1.08-1.08 2.19-1.08 3.33 0 1.14.36 2.28 1.08 3.42.78 1.14 1.8 2.22 3.06 3.24 1.32.96 2.82 1.83 4.5 2.61 1.68.78 3.45 1.35 5.31 1.71 1.14.24 2.1.75 2.88 1.53.78.72 1.17 1.65 1.17 2.79 0 1.2-.42 2.22-1.26 3.06-.84.84-1.86 1.26-3.06 1.26Zm-37.44-4.86v-31.23c0-1.38.51-2.61 1.53-3.69s2.28-1.62 3.78-1.62c1.44 0 2.67.54 3.69 1.62s1.56 2.31 1.62 3.69l-.09 31.68c0 1.26-.51 2.43-1.53 3.51-1.02 1.08-2.25 1.62-3.69 1.62-1.5 0-2.76-.54-3.78-1.62s-1.53-2.4-1.53-3.96Zm-26.28 4.86c-1.2 0-2.22-.42-3.06-1.26-.84-.84-1.26-1.86-1.26-3.06 0-1.14.39-2.07 1.17-2.79.78-.78 1.74-1.29 2.88-1.53 1.86-.36 3.63-.93 5.31-1.71 1.68-.78 3.15-1.65 4.41-2.61 1.32-1.02 2.34-2.1 3.06-3.24.78-1.14 1.17-2.28 1.17-3.42 0-1.14-.39-2.25-1.17-3.33-.72-1.14-1.74-2.19-3.06-3.15-1.26-1.02-2.73-1.92-4.41-2.7-1.68-.78-3.45-1.38-5.31-1.8-1.14-.24-2.1-.72-2.88-1.44-.78-.78-1.17-1.74-1.17-2.88 0-1.2.42-2.22 1.26-3.06.84-.84 1.86-1.26 3.06-1.26.24 0 .45.03.63.09.18 0 .39.03.63.09 2.64.54 5.22 1.44 7.74 2.7 2.52 1.26 4.77 2.79 6.75 4.59 1.98 1.74 3.57 3.66 4.77 5.76 1.2 2.1 1.8 4.23 1.8 6.39 0 2.16-.6 4.32-1.8 6.48-1.2 2.1-2.79 4.02-4.77 5.76-1.98 1.74-4.23 3.24-6.75 4.5-2.52 1.26-5.1 2.16-7.74 2.7-.24.06-.45.12-.63.18h-.63Zm77.07-34.92c0-1.2.42-2.22 1.26-3.06.84-.84 1.86-1.26 3.06-1.26h63.81c1.2 0 2.22.42 3.06 1.26.84.84 1.26 1.86 1.26 3.06s-.42 2.22-1.26 3.06c-.84.84-1.86 1.26-3.06 1.26h-63.81c-1.2 0-2.22-.42-3.06-1.26-.84-.84-1.26-1.86-1.26-3.06Zm10.98 34.92c-1.32 0-2.64-.27-3.96-.81-1.32-.6-2.49-1.41-3.51-2.43-1.02-1.02-1.86-2.25-2.52-3.69-.66-1.44-.99-3.06-.99-4.86v-8.1c0-1.62.45-2.7 1.35-3.24.96-.54 2.43-.81 4.41-.81h60.39c1.2 0 2.22.42 3.06 1.26.84.84 1.26 1.86 1.26 3.06s-.42 2.22-1.26 3.06c-.84.84-1.86 1.26-3.06 1.26h-57.51v4.41c0 .6.24 1.14.72 1.62.54.42 1.23.63 2.07.63h56.7c1.2 0 2.22.42 3.06 1.26.84.84 1.26 1.86 1.26 3.06s-.42 2.22-1.26 3.06c-.84.84-1.86 1.26-3.06 1.26h-57.15Zm140.97-4.32c0 1.2-.42 2.22-1.26 3.06-.84.84-1.86 1.26-3.06 1.26s-2.22-.42-3.06-1.26c-.84-.84-1.26-1.86-1.26-3.06v-10.98h-53.19v10.98c0 1.2-.42 2.22-1.26 3.06-.84.84-1.86 1.26-3.06 1.26s-2.22-.42-3.06-1.26c-.84-.84-1.26-1.86-1.26-3.06v-30.6c0-1.2.42-2.22 1.26-3.06.84-.84 1.86-1.26 3.06-1.26s2.22.42 3.06 1.26c.84.84 1.26 1.86 1.26 3.06v10.98h53.19v-10.98c0-1.2.42-2.22 1.26-3.06.84-.84 1.86-1.26 3.06-1.26s2.22.42 3.06 1.26c.84.84 1.26 1.86 1.26 3.06v30.6Zm17.62-12.87c0 2.16.12 3.81.36 4.95.24 1.14.81 1.71 1.71 1.71.48 0 1.08-.18 1.8-.54.78-.42 1.74-.96 2.88-1.62l41.22-25.2c.66-.42 1.38-.75 2.16-.99.84-.24 1.68-.36 2.52-.36 2.46 0 4.5.84 6.12 2.52 1.68 1.68 2.52 3.75 2.52 6.21v26.19c0 1.2-.42 2.22-1.26 3.06-.84.84-1.86 1.26-3.06 1.26s-2.22-.42-3.06-1.26c-.84-.84-1.26-1.86-1.26-3.06v-17.73c0-2.16-.12-3.81-.36-4.95-.24-1.14-.81-1.71-1.71-1.71-.48 0-1.11.21-1.89.63-.72.36-1.65.87-2.79 1.53l-41.22 25.2c-.66.42-1.41.75-2.25.99-.78.24-1.59.36-2.43.36-2.46 0-4.53-.84-6.21-2.52-1.62-1.68-2.43-3.75-2.43-6.21v-26.19c0-1.2.42-2.22 1.26-3.06.84-.84 1.86-1.26 3.06-1.26s2.22.42 3.06 1.26c.84.84 1.26 1.86 1.26 3.06v17.73Zm70.28 12.87c0-.84.3-1.65.9-2.43 2.16-3.18 4.59-5.85 7.29-8.01 2.76-2.22 5.85-3.99 9.27-5.31 3.48-1.38 7.35-2.37 11.61-2.97 4.26-.6 9.03-.9 14.31-.9h18.36v-4.68c-.12-.54-.42-.99-.9-1.35-.48-.42-1.11-.63-1.89-.63h-47.16c-.84.12-1.59.48-2.25 1.08-.6.6-.9 1.35-.9 2.25 0 1.2-.42 2.22-1.26 3.06-.84.84-1.86 1.26-3.06 1.26s-2.22-.42-3.06-1.26c-.84-.84-1.26-1.86-1.26-3.06 0-1.68.33-3.24.99-4.68.66-1.44 1.56-2.7 2.7-3.78 1.14-1.08 2.46-1.92 3.96-2.52 1.5-.66 3.09-.99 4.77-.99h46.98c1.32 0 2.64.3 3.96.9 1.32.54 2.49 1.32 3.51 2.34 1.02 1.02 1.86 2.25 2.52 3.69.66 1.44.99 3.06.99 4.86v23.13c0 1.2-.42 2.22-1.26 3.06-.84.84-1.86 1.26-3.06 1.26-1.14 0-2.16-.42-3.06-1.26-.84-.84-1.26-1.86-1.26-3.06v-10.98h-18.36c-3.66 0-7.11.12-10.35.36-3.18.18-6.21.72-9.09 1.62-2.88.9-5.64 2.22-8.28 3.96-2.58 1.74-5.1 4.14-7.56 7.2-.18.24-.45.54-.81.9-.42.36-.87.66-1.35.9-.48.24-1.02.36-1.62.36-1.2 0-2.22-.42-3.06-1.26-.84-.84-1.26-1.86-1.26-3.06ZM51.566 372v-12.78h4.41c1.116 0 2.028.342 2.736 1.026.72.684 1.08 1.518 1.08 2.502 0 1.056-.396 1.878-1.188 2.466 1.368.564 2.052 1.578 2.052 3.042 0 1.068-.39 1.962-1.17 2.682-.768.708-1.752 1.062-2.952 1.062h-4.968Zm2.106-1.926h2.808c.672 0 1.194-.168 1.566-.504.372-.336.558-.78.558-1.332 0-.54-.186-.978-.558-1.314-.372-.348-.894-.522-1.566-.522h-2.808v3.672Zm0-5.472h2.196c.564 0 1.014-.162 1.35-.486.336-.324.504-.738.504-1.242 0-.48-.168-.888-.504-1.224-.336-.336-.786-.504-1.35-.504h-2.196v3.456ZM71.131 372v-9h1.98v9h-1.98Zm-8.496 0v-9h1.98v2.97h1.89c1.092 0 1.914.306 2.466.918.564.6.846 1.29.846 2.07 0 .792-.282 1.5-.846 2.124-.552.612-1.374.918-2.466.918h-3.87Zm1.98-4.284v2.538h1.728c.504 0 .888-.108 1.152-.324.276-.228.414-.546.414-.954 0-.84-.522-1.26-1.566-1.26h-1.728ZM75.783 372v-9h4.104c1.032 0 1.824.246 2.376.738.552.492.828 1.104.828 1.836 0 .636-.246 1.182-.738 1.638.876.468 1.314 1.176 1.314 2.124 0 .756-.27 1.392-.81 1.908-.54.504-1.356.756-2.448.756h-4.626Zm1.98-1.674h2.628c.396 0 .708-.096.936-.288.24-.204.36-.48.36-.828 0-.36-.12-.636-.36-.828-.228-.204-.54-.306-.936-.306h-2.628v2.25Zm0-3.69h2.196c.324 0 .594-.078.81-.234.228-.168.342-.432.342-.792 0-.672-.384-1.008-1.152-1.008h-2.196v2.034Zm11.895 5.544c-1.344 0-2.448-.438-3.312-1.314-.864-.888-1.296-2.01-1.296-3.366 0-1.356.426-2.472 1.278-3.348.852-.888 1.968-1.332 3.348-1.332 1.392 0 2.514.486 3.366 1.458.852.96 1.23 2.196 1.134 3.708h-7.164c.024.696.288 1.278.792 1.746.504.468 1.146.702 1.926.702 1.104 0 1.86-.42 2.268-1.26h2.07c-.276.876-.804 1.596-1.584 2.16-.78.564-1.722.846-2.826.846Zm-.036-7.704c-.648 0-1.206.186-1.674.558-.456.36-.75.876-.882 1.548h4.986c-.144-.696-.438-1.218-.882-1.566-.444-.36-.96-.54-1.548-.54Zm5.69 5.76h.234c.852 0 1.278-.882 1.278-2.646V363h7.416v7.236h1.404v4.014h-1.8V372H97.13v2.25h-1.818v-4.014Zm3.492-5.472v3.024c0 1.092-.174 1.908-.522 2.448h3.978v-5.472h-3.456Zm12.563 7.416c-1.344 0-2.448-.438-3.312-1.314-.864-.888-1.296-2.01-1.296-3.366 0-1.356.426-2.472 1.278-3.348.852-.888 1.968-1.332 3.348-1.332 1.392 0 2.514.486 3.366 1.458.852.96 1.23 2.196 1.134 3.708h-7.164c.024.696.288 1.278.792 1.746.504.468 1.146.702 1.926.702 1.104 0 1.86-.42 2.268-1.26h2.07c-.276.876-.804 1.596-1.584 2.16-.78.564-1.722.846-2.826.846Zm-.036-7.704c-.648 0-1.206.186-1.674.558-.456.36-.75.876-.882 1.548h4.986c-.144-.696-.438-1.218-.882-1.566-.444-.36-.96-.54-1.548-.54Zm6.587-1.476h1.728l3.15 4.104 3.186-4.104h1.728v9h-1.98v-5.886l-2.916 3.78-2.916-3.78V372h-1.98v-9Zm16.699 9v-9h4.104c1.032 0 1.824.246 2.376.738.552.492.828 1.104.828 1.836 0 .636-.246 1.182-.738 1.638.876.468 1.314 1.176 1.314 2.124 0 .756-.27 1.392-.81 1.908-.54.504-1.356.756-2.448.756h-4.626Zm1.98-1.674h2.628c.396 0 .708-.096.936-.288.24-.204.36-.48.36-.828 0-.36-.12-.636-.36-.828-.228-.204-.54-.306-.936-.306h-2.628v2.25Zm0-3.69h2.196c.324 0 .594-.078.81-.234.228-.168.342-.432.342-.792 0-.672-.384-1.008-1.152-1.008h-2.196v2.034Zm11.607 5.544c-1.224 0-2.256-.456-3.096-1.368-.828-.912-1.242-2.016-1.242-3.312 0-1.296.414-2.4 1.242-3.312.84-.912 1.872-1.368 3.096-1.368a3.53 3.53 0 0 1 1.692.414c.516.264.912.588 1.188.972V363h1.98v9h-1.98v-1.206c-.276.384-.672.714-1.188.99a3.66 3.66 0 0 1-1.692.396Zm-1.566-2.628c.504.552 1.146.828 1.926.828s1.422-.276 1.926-.828c.504-.552.756-1.236.756-2.052 0-.816-.252-1.5-.756-2.052s-1.146-.828-1.926-.828-1.422.276-1.926.828c-.504.552-.756 1.236-.756 2.052 0 .816.252 1.5.756 2.052Zm9.108 2.448v-9h1.98v7.236h3.132V363h1.98v7.236h3.114V363h1.98v9h-12.186Zm23.158.18c-1.356 0-2.484-.45-3.384-1.35-.888-.912-1.332-2.022-1.332-3.33 0-1.308.444-2.412 1.332-3.312.9-.912 2.028-1.368 3.384-1.368 1.164 0 2.154.324 2.97.972a4.359 4.359 0 0 1 1.602 2.502h-2.088a2.391 2.391 0 0 0-.936-1.206c-.432-.312-.948-.468-1.548-.468-.792 0-1.44.27-1.944.81s-.756 1.23-.756 2.07c0 .84.252 1.53.756 2.07.504.54 1.152.81 1.944.81.6 0 1.116-.15 1.548-.45.444-.312.756-.72.936-1.224h2.088a4.359 4.359 0 0 1-1.602 2.502c-.816.648-1.806.972-2.97.972Zm10.134 0c-1.224 0-2.256-.456-3.096-1.368-.828-.912-1.242-2.016-1.242-3.312 0-1.296.414-2.4 1.242-3.312.84-.912 1.872-1.368 3.096-1.368a3.53 3.53 0 0 1 1.692.414c.516.264.912.588 1.188.972V363h1.98v9h-1.98v-1.206c-.276.384-.672.714-1.188.99a3.66 3.66 0 0 1-1.692.396Zm-1.566-2.628c.504.552 1.146.828 1.926.828s1.422-.276 1.926-.828c.504-.552.756-1.236.756-2.052 0-.816-.252-1.5-.756-2.052s-1.146-.828-1.926-.828-1.422.276-1.926.828c-.504.552-.756 1.236-.756 2.052 0 .816.252 1.5.756 2.052ZM198.344 372h-1.764v-9h1.98v5.994l4.59-5.994h1.764v9h-1.98v-5.994l-4.59 5.994Zm4.662-11.052c-.564.54-1.272.81-2.124.81-.852 0-1.566-.27-2.142-.81-.564-.552-.846-1.278-.846-2.178v-.27h1.404v.27c0 .552.15.99.45 1.314.3.312.678.468 1.134.468.456 0 .834-.156 1.134-.468.3-.324.45-.762.45-1.314v-.27h1.404v.27c0 .9-.288 1.626-.864 2.178ZM209.258 372v-7.236h-2.7V363h7.506v1.764h-2.826V372h-1.98Zm10.262 0v-9h4.104c1.032 0 1.824.246 2.376.738.552.492.828 1.104.828 1.836 0 .636-.246 1.182-.738 1.638.876.468 1.314 1.176 1.314 2.124 0 .756-.27 1.392-.81 1.908-.54.504-1.356.756-2.448.756h-4.626Zm1.98-1.674h2.628c.396 0 .708-.096.936-.288.24-.204.36-.48.36-.828 0-.36-.12-.636-.36-.828-.228-.204-.54-.306-.936-.306H221.5v2.25Zm0-3.69h2.196c.324 0 .594-.078.81-.234.228-.168.342-.432.342-.792 0-.672-.384-1.008-1.152-1.008H221.5v2.034ZM235.79 372v-10.764h-3.708v-2.016h9.54v2.016h-3.726V372h-2.106Zm12.927-1.818c1.248 0 2.304-.444 3.168-1.332.864-.888 1.296-1.968 1.296-3.24 0-1.272-.432-2.352-1.296-3.24-.864-.888-1.92-1.332-3.168-1.332-1.26 0-2.322.444-3.186 1.332-.864.888-1.296 1.968-1.296 3.24 0 1.272.432 2.352 1.296 3.24.864.888 1.926 1.332 3.186 1.332Zm4.68.108c-1.284 1.284-2.844 1.926-4.68 1.926-1.836 0-3.396-.636-4.68-1.908-1.284-1.284-1.926-2.85-1.926-4.698 0-1.848.642-3.408 1.926-4.68 1.284-1.284 2.844-1.926 4.68-1.926 1.836 0 3.396.642 4.68 1.926 1.284 1.284 1.926 2.844 1.926 4.68 0 1.836-.642 3.396-1.926 4.68ZM265.86 372v-10.764h-6.138V372h-2.088v-12.78h10.314V372h-2.088Zm4.772-4.068v-1.944h4.842v1.944h-4.842Zm11.296 4.248c-1.284 0-2.376-.384-3.276-1.152-.888-.768-1.344-1.782-1.368-3.042h1.98c.048.684.318 1.23.81 1.638.504.408 1.122.612 1.854.612.66 0 1.2-.174 1.62-.522.432-.348.654-.828.666-1.44 0-.672-.222-1.176-.666-1.512-.432-.348-1.032-.522-1.8-.522h-1.008v-1.692h1.008c.636 0 1.14-.168 1.512-.504.384-.336.582-.774.594-1.314 0-.528-.192-.954-.576-1.278-.384-.336-.858-.504-1.422-.504-.672 0-1.23.198-1.674.594-.444.384-.666.912-.666 1.584h-1.998c0-1.248.42-2.244 1.26-2.988.852-.756 1.878-1.134 3.078-1.134 1.188 0 2.148.336 2.88 1.008.744.672 1.116 1.536 1.116 2.592 0 .588-.15 1.134-.45 1.638-.3.492-.672.87-1.116 1.134a3.113 3.113 0 0 1 1.404 1.17c.348.528.522 1.146.522 1.854 0 1.116-.402 2.028-1.206 2.736-.792.696-1.818 1.044-3.078 1.044Zm10.717-.18v-9h4.104c1.032 0 1.824.246 2.376.738.552.492.828 1.104.828 1.836 0 .636-.246 1.182-.738 1.638.876.468 1.314 1.176 1.314 2.124 0 .756-.27 1.392-.81 1.908-.54.504-1.356.756-2.448.756h-4.626Zm1.98-1.674h2.628c.396 0 .708-.096.936-.288.24-.204.36-.48.36-.828 0-.36-.12-.636-.36-.828-.228-.204-.54-.306-.936-.306h-2.628v2.25Zm0-3.69h2.196c.324 0 .594-.078.81-.234.228-.168.342-.432.342-.792 0-.672-.384-1.008-1.152-1.008h-2.196v2.034ZM312.958 372v-4.842h-1.278L307.468 372h-2.574l4.464-5.166c-.828-.264-1.488-.72-1.98-1.368-.492-.66-.738-1.422-.738-2.286 0-1.164.39-2.112 1.17-2.844.792-.744 1.848-1.116 3.168-1.116h4.086V372h-2.106Zm-4.23-8.82c0 .624.204 1.122.612 1.494.408.372.966.558 1.674.558h1.944v-4.068h-1.944c-.708 0-1.266.186-1.674.558-.408.36-.612.846-.612 1.458Zm9.124 8.82v-9h1.98v3.564h4.338V363h1.98v9h-1.98v-3.672h-4.338V372h-1.98Zm10.194-1.764h.234c.852 0 1.278-.882 1.278-2.646V363h7.416v7.236h1.404v4.014h-1.8V372h-6.714v2.25h-1.818v-4.014Zm3.492-5.472v3.024c0 1.092-.174 1.908-.522 2.448h3.978v-5.472h-3.456Zm12.563 7.416c-1.344 0-2.448-.438-3.312-1.314-.864-.888-1.296-2.01-1.296-3.366 0-1.356.426-2.472 1.278-3.348.852-.888 1.968-1.332 3.348-1.332 1.392 0 2.514.486 3.366 1.458.852.96 1.23 2.196 1.134 3.708h-7.164c.024.696.288 1.278.792 1.746.504.468 1.146.702 1.926.702 1.104 0 1.86-.42 2.268-1.26h2.07c-.276.876-.804 1.596-1.584 2.16-.78.564-1.722.846-2.826.846Zm-.036-7.704c-.648 0-1.206.186-1.674.558-.456.36-.75.876-.882 1.548h4.986c-.144-.696-.438-1.218-.882-1.566-.444-.36-.96-.54-1.548-.54ZM356.628 372l-3.996-3.834V372h-1.98v-9h1.98v3.852l3.546-3.852h2.412l-4.086 4.428 4.734 4.572h-2.61Zm7.233.18c-1.356 0-2.484-.45-3.384-1.35-.888-.912-1.332-2.022-1.332-3.33 0-1.308.444-2.412 1.332-3.312.9-.912 2.028-1.368 3.384-1.368 1.164 0 2.154.324 2.97.972a4.359 4.359 0 0 1 1.602 2.502h-2.088a2.391 2.391 0 0 0-.936-1.206c-.432-.312-.948-.468-1.548-.468-.792 0-1.44.27-1.944.81s-.756 1.23-.756 2.07c0 .84.252 1.53.756 2.07.504.54 1.152.81 1.944.81.6 0 1.116-.15 1.548-.45.444-.312.756-.72.936-1.224h2.088a4.359 4.359 0 0 1-1.602 2.502c-.816.648-1.806.972-2.97.972Zm10.422 0c-1.344 0-2.448-.438-3.312-1.314-.864-.888-1.296-2.01-1.296-3.366 0-1.356.426-2.472 1.278-3.348.852-.888 1.968-1.332 3.348-1.332 1.392 0 2.514.486 3.366 1.458.852.96 1.23 2.196 1.134 3.708h-7.164c.024.696.288 1.278.792 1.746.504.468 1.146.702 1.926.702 1.104 0 1.86-.42 2.268-1.26h2.07c-.276.876-.804 1.596-1.584 2.16-.78.564-1.722.846-2.826.846Zm-.036-7.704c-.648 0-1.206.186-1.674.558-.456.36-.75.876-.882 1.548h4.986c-.144-.696-.438-1.218-.882-1.566-.444-.36-.96-.54-1.548-.54ZM385.07 372v-9h4.104c1.032 0 1.824.246 2.376.738.552.492.828 1.104.828 1.836 0 .636-.246 1.182-.738 1.638.876.468 1.314 1.176 1.314 2.124 0 .756-.27 1.392-.81 1.908-.54.504-1.356.756-2.448.756h-4.626Zm1.98-1.674h2.628c.396 0 .708-.096.936-.288.24-.204.36-.48.36-.828 0-.36-.12-.636-.36-.828-.228-.204-.54-.306-.936-.306h-2.628v2.25Zm0-3.69h2.196c.324 0 .594-.078.81-.234.228-.168.342-.432.342-.792 0-.672-.384-1.008-1.152-1.008h-2.196v2.034Zm11.985 5.544c-1.356 0-2.484-.45-3.384-1.35-.888-.912-1.332-2.022-1.332-3.33 0-1.308.444-2.412 1.332-3.312.9-.912 2.028-1.368 3.384-1.368 1.164 0 2.154.324 2.97.972a4.359 4.359 0 0 1 1.602 2.502h-2.088a2.391 2.391 0 0 0-.936-1.206c-.432-.312-.948-.468-1.548-.468-.792 0-1.44.27-1.944.81s-.756 1.23-.756 2.07c0 .84.252 1.53.756 2.07.504.54 1.152.81 1.944.81.6 0 1.116-.15 1.548-.45.444-.312.756-.72.936-1.224h2.088a4.359 4.359 0 0 1-1.602 2.502c-.816.648-1.806.972-2.97.972Zm10.421 0c-1.344 0-2.448-.438-3.312-1.314-.864-.888-1.296-2.01-1.296-3.366 0-1.356.426-2.472 1.278-3.348.852-.888 1.968-1.332 3.348-1.332 1.392 0 2.514.486 3.366 1.458.852.96 1.23 2.196 1.134 3.708h-7.164c.024.696.288 1.278.792 1.746.504.468 1.146.702 1.926.702 1.104 0 1.86-.42 2.268-1.26h2.07c-.276.876-.804 1.596-1.584 2.16-.78.564-1.722.846-2.826.846Zm-.036-7.704c-.648 0-1.206.186-1.674.558-.456.36-.75.876-.882 1.548h4.986c-.144-.696-.438-1.218-.882-1.566-.444-.36-.96-.54-1.548-.54Zm6.588 7.524v-9h5.904v1.764h-3.924V372h-1.98Zm14.693-1.17c-.9.9-2.016 1.35-3.348 1.35-1.332 0-2.454-.45-3.366-1.35-.9-.912-1.35-2.022-1.35-3.33 0-1.308.45-2.412 1.35-3.312.912-.912 2.034-1.368 3.366-1.368 1.332 0 2.448.456 3.348 1.368.912.9 1.368 2.004 1.368 3.312 0 1.308-.456 2.418-1.368 3.33Zm-3.348-.486c.78 0 1.422-.27 1.926-.81.516-.552.774-1.23.774-2.034 0-.804-.258-1.476-.774-2.016-.504-.552-1.146-.828-1.926-.828-.792 0-1.446.276-1.962.828-.504.54-.756 1.212-.756 2.016s.252 1.482.756 2.034c.516.54 1.17.81 1.962.81Zm14.058 1.836c-.972 0-1.824-.234-2.556-.702-.732-.48-1.188-1.176-1.368-2.088h2.034c.264.768.894 1.152 1.89 1.152.552-.012.972-.132 1.26-.36.3-.228.45-.528.45-.9 0-.384-.138-.678-.414-.882-.276-.216-.666-.324-1.17-.324h-1.062v-1.458h1.026c.42 0 .75-.09.99-.27.24-.192.36-.468.36-.828 0-.348-.132-.618-.396-.81-.264-.204-.624-.306-1.08-.306-.9 0-1.464.366-1.692 1.098h-1.98c.18-.9.612-1.572 1.296-2.016.696-.444 1.5-.666 2.412-.666 1.068 0 1.89.252 2.466.756.576.492.864 1.092.864 1.8 0 .84-.324 1.47-.972 1.89.9.456 1.35 1.176 1.35 2.16 0 .744-.33 1.392-.99 1.944-.648.54-1.554.81-2.718.81Zm9.453 0c-1.224 0-2.256-.456-3.096-1.368-.828-.912-1.242-2.016-1.242-3.312 0-1.296.414-2.4 1.242-3.312.84-.912 1.872-1.368 3.096-1.368a3.53 3.53 0 0 1 1.692.414c.516.264.912.588 1.188.972V363h1.98v9h-1.98v-1.206c-.276.384-.672.714-1.188.99a3.66 3.66 0 0 1-1.692.396Zm-1.566-2.628c.504.552 1.146.828 1.926.828s1.422-.276 1.926-.828c.504-.552.756-1.236.756-2.052 0-.816-.252-1.5-.756-2.052s-1.146-.828-1.926-.828-1.422.276-1.926.828c-.504.552-.756 1.236-.756 2.052 0 .816.252 1.5.756 2.052Zm17.377 2.628c-1.284 0-2.376-.384-3.276-1.152-.888-.768-1.344-1.782-1.368-3.042h1.98c.048.684.318 1.23.81 1.638.504.408 1.122.612 1.854.612.66 0 1.2-.174 1.62-.522.432-.348.654-.828.666-1.44 0-.672-.222-1.176-.666-1.512-.432-.348-1.032-.522-1.8-.522h-1.008v-1.692h1.008c.636 0 1.14-.168 1.512-.504.384-.336.582-.774.594-1.314 0-.528-.192-.954-.576-1.278-.384-.336-.858-.504-1.422-.504-.672 0-1.23.198-1.674.594-.444.384-.666.912-.666 1.584h-1.998c0-1.248.42-2.244 1.26-2.988.852-.756 1.878-1.134 3.078-1.134 1.188 0 2.148.336 2.88 1.008.744.672 1.116 1.536 1.116 2.592 0 .588-.15 1.134-.45 1.638-.3.492-.672.87-1.116 1.134a3.113 3.113 0 0 1 1.404 1.17c.348.528.522 1.146.522 1.854 0 1.116-.402 2.028-1.206 2.736-.792.696-1.818 1.044-3.078 1.044Zm10.716-9.18h1.728l3.15 4.104 3.186-4.104h1.728v9h-1.98v-5.886l-2.916 3.78-2.916-3.78V372h-1.98v-9Zm16.44 9.18c-1.344 0-2.448-.438-3.312-1.314-.864-.888-1.296-2.01-1.296-3.366 0-1.356.426-2.472 1.278-3.348.852-.888 1.968-1.332 3.348-1.332 1.392 0 2.514.486 3.366 1.458.852.96 1.23 2.196 1.134 3.708h-7.164c.024.696.288 1.278.792 1.746.504.468 1.146.702 1.926.702 1.104 0 1.86-.42 2.268-1.26h2.07c-.276.876-.804 1.596-1.584 2.16-.78.564-1.722.846-2.826.846Zm-.036-7.704c-.648 0-1.206.186-1.674.558-.456.36-.75.876-.882 1.548h4.986c-.144-.696-.438-1.218-.882-1.566-.444-.36-.96-.54-1.548-.54Zm10.656 7.704c-1.356 0-2.484-.45-3.384-1.35-.888-.912-1.332-2.022-1.332-3.33 0-1.308.444-2.412 1.332-3.312.9-.912 2.028-1.368 3.384-1.368 1.164 0 2.154.324 2.97.972a4.359 4.359 0 0 1 1.602 2.502h-2.088a2.391 2.391 0 0 0-.936-1.206c-.432-.312-.948-.468-1.548-.468-.792 0-1.44.27-1.944.81s-.756 1.23-.756 2.07c0 .84.252 1.53.756 2.07.504.54 1.152.81 1.944.81.6 0 1.116-.15 1.548-.45.444-.312.756-.72.936-1.224h2.088a4.359 4.359 0 0 1-1.602 2.502c-.816.648-1.806.972-2.97.972Zm4.898-.18 3.366-3.456c-.612-.216-1.086-.552-1.422-1.008-.336-.456-.504-.99-.504-1.602 0-.864.288-1.566.864-2.106.576-.552 1.386-.828 2.43-.828h3.636v9h-1.98v-3.078h-1.008L511.689 372h-2.34Zm4.842-4.734h1.548v-2.592h-1.548c-.996 0-1.494.444-1.494 1.332 0 .396.132.708.396.936.276.216.642.324 1.098.324Zm15.7 2.97v4.014h-1.8V372h-7.704v-9h1.98v7.236h4.122V363h1.98v7.236h1.422Zm5.418 1.944c-1.224 0-2.256-.456-3.096-1.368-.828-.912-1.242-2.016-1.242-3.312 0-1.296.414-2.4 1.242-3.312.84-.912 1.872-1.368 3.096-1.368a3.53 3.53 0 0 1 1.692.414c.516.264.912.588 1.188.972V363h1.98v9h-1.98v-1.206c-.276.384-.672.714-1.188.99a3.66 3.66 0 0 1-1.692.396Zm-1.566-2.628c.504.552 1.146.828 1.926.828s1.422-.276 1.926-.828c.504-.552.756-1.236.756-2.052 0-.816-.252-1.5-.756-2.052s-1.146-.828-1.926-.828-1.422.276-1.926.828c-.504.552-.756 1.236-.756 2.052 0 .816.252 1.5.756 2.052Zm9.667-1.836-.378-3.528v-4.968h1.998v4.968l-.396 3.528h-1.224Zm.612 4.428a1.533 1.533 0 0 1-1.548-1.566c0-.42.15-.786.45-1.098a1.503 1.503 0 0 1 1.098-.468c.432 0 .798.156 1.098.468.312.312.468.678.468 1.098 0 .432-.156.804-.468 1.116-.3.3-.666.45-1.098.45ZM738.69 495.278h2.754c1.272 0 2.31.354 3.114 1.062.816.696 1.224 1.632 1.224 2.808 0 1.164-.408 2.1-1.224 2.808-.816.696-1.854 1.044-3.114 1.044h-4.878v-12.78h8.064v2.016h-5.94v3.042Zm5.004 3.87c0-.624-.198-1.098-.594-1.422-.396-.336-.954-.504-1.674-.504h-2.736v3.816h2.736c.72 0 1.278-.162 1.674-.486.396-.324.594-.792.594-1.404Zm7.954 4.032c-1.344 0-2.448-.438-3.312-1.314-.864-.888-1.296-2.01-1.296-3.366 0-1.356.426-2.472 1.278-3.348.852-.888 1.968-1.332 3.348-1.332 1.392 0 2.514.486 3.366 1.458.852.96 1.23 2.196 1.134 3.708h-7.164c.024.696.288 1.278.792 1.746.504.468 1.146.702 1.926.702 1.104 0 1.86-.42 2.268-1.26h2.07c-.276.876-.804 1.596-1.584 2.16-.78.564-1.722.846-2.826.846Zm-.036-7.704c-.648 0-1.206.186-1.674.558-.456.36-.75.876-.882 1.548h4.986c-.144-.696-.438-1.218-.882-1.566-.444-.36-.96-.54-1.548-.54Zm10.655 7.704c-1.356 0-2.484-.45-3.384-1.35-.888-.912-1.332-2.022-1.332-3.33 0-1.308.444-2.412 1.332-3.312.9-.912 2.028-1.368 3.384-1.368 1.164 0 2.154.324 2.97.972a4.359 4.359 0 0 1 1.602 2.502h-2.088a2.391 2.391 0 0 0-.936-1.206c-.432-.312-.948-.468-1.548-.468-.792 0-1.44.27-1.944.81s-.756 1.23-.756 2.07c0 .84.252 1.53.756 2.07.504.54 1.152.81 1.944.81.6 0 1.116-.15 1.548-.45.444-.312.756-.72.936-1.224h2.088a4.359 4.359 0 0 1-1.602 2.502c-.816.648-1.806.972-2.97.972Zm6.444-.18v-9h8.118v9h-1.98v-7.236h-4.158V503h-1.98Zm10.775.144c-.444 0-.768-.024-.972-.072v-1.71c.264.024.462.036.594.036.372 0 .648-.12.828-.36.18-.252.27-.69.27-1.314V494h7.326v9h-1.98v-7.236h-3.366v4.266c0 1.02-.258 1.794-.774 2.322-.504.528-1.146.792-1.926.792Zm14.395.036c-1.224 0-2.256-.456-3.096-1.368-.828-.912-1.242-2.016-1.242-3.312 0-1.296.414-2.4 1.242-3.312.84-.912 1.872-1.368 3.096-1.368a3.53 3.53 0 0 1 1.692.414c.516.264.912.588 1.188.972V494h1.98v9h-1.98v-1.206c-.276.384-.672.714-1.188.99a3.66 3.66 0 0 1-1.692.396Zm-1.566-2.628c.504.552 1.146.828 1.926.828s1.422-.276 1.926-.828c.504-.552.756-1.236.756-2.052 0-.816-.252-1.5-.756-2.052s-1.146-.828-1.926-.828-1.422.276-1.926.828c-.504.552-.756 1.236-.756 2.052 0 .816.252 1.5.756 2.052ZM803.098 503v-7.236h-2.7V494h7.506v1.764h-2.826V503h-1.98Zm6.464 0v-9h1.98v3.564h4.338V494h1.98v9h-1.98v-3.672h-4.338V503h-1.98Zm18.385-1.17c-.9.9-2.016 1.35-3.348 1.35-1.332 0-2.454-.45-3.366-1.35-.9-.912-1.35-2.022-1.35-3.33 0-1.308.45-2.412 1.35-3.312.912-.912 2.034-1.368 3.366-1.368 1.332 0 2.448.456 3.348 1.368.912.9 1.368 2.004 1.368 3.312 0 1.308-.456 2.418-1.368 3.33Zm-3.348-.486c.78 0 1.422-.27 1.926-.81.516-.552.774-1.23.774-2.034 0-.804-.258-1.476-.774-2.016-.504-.552-1.146-.828-1.926-.828-.792 0-1.446.276-1.962.828-.504.54-.756 1.212-.756 2.016s.252 1.482.756 2.034c.516.54 1.17.81 1.962.81ZM837.307 503h-1.764v-9h1.98v5.994l4.59-5.994h1.764v9h-1.98v-5.994l-4.59 5.994Zm12.354.18c-.972 0-1.824-.234-2.556-.702-.732-.48-1.188-1.176-1.368-2.088h2.034c.264.768.894 1.152 1.89 1.152.552-.012.972-.132 1.26-.36.3-.228.45-.528.45-.9 0-.384-.138-.678-.414-.882-.276-.216-.666-.324-1.17-.324h-1.062v-1.458h1.026c.42 0 .75-.09.99-.27.24-.192.36-.468.36-.828 0-.348-.132-.618-.396-.81-.264-.204-.624-.306-1.08-.306-.9 0-1.464.366-1.692 1.098h-1.98c.18-.9.612-1.572 1.296-2.016.696-.444 1.5-.666 2.412-.666 1.068 0 1.89.252 2.466.756.576.492.864 1.092.864 1.8 0 .84-.324 1.47-.972 1.89.9.456 1.35 1.176 1.35 2.16 0 .744-.33 1.392-.99 1.944-.648.54-1.554.81-2.718.81Zm14.28-9.18-4.68 10.386c-.396.9-.858 1.548-1.386 1.944-.516.408-1.164.612-1.944.612-.48 0-.846-.03-1.098-.09v-1.71c.36.024.654.036.882.036.66 0 1.2-.438 1.62-1.314l.594-1.314-3.888-8.55h2.178l2.826 6.246 2.7-6.246h2.196Zm8.669 9h-1.98v-3.924c-.228.324-.576.582-1.044.774-.468.192-1.002.288-1.602.288-.984 0-1.782-.294-2.394-.882-.612-.588-.918-1.428-.918-2.52V494h1.98v2.52c0 1.236.618 1.854 1.854 1.854.552 0 1.044-.186 1.476-.558.432-.372.648-.924.648-1.656V494h1.98v9Zm4.424 0h-1.764v-9h1.98v5.994l4.59-5.994h1.764v9h-1.98v-5.994l-4.59 5.994Zm9.239-9h1.728l3.15 4.104 3.186-4.104h1.728v9h-1.98v-5.886l-2.916 3.78-2.916-3.78V503h-1.98v-9Zm18.464 9h-1.764v-9h1.98v5.994l4.59-5.994h1.764v9h-1.98v-5.994l-4.59 5.994Zm13.476 0v-9h8.118v9h-1.98v-7.236h-4.158V503h-1.98Zm12.755 3.762h-1.98V494h1.98v1.206c.276-.384.672-.708 1.188-.972a3.636 3.636 0 0 1 1.71-.414c1.224 0 2.25.456 3.078 1.368.84.912 1.26 2.016 1.26 3.312 0 1.296-.42 2.4-1.26 3.312-.828.912-1.854 1.368-3.078 1.368a3.77 3.77 0 0 1-1.71-.396c-.516-.276-.912-.606-1.188-.99v4.968Zm2.538-5.382c.78 0 1.422-.276 1.926-.828.504-.552.756-1.236.756-2.052 0-.816-.252-1.5-.756-2.052s-1.146-.828-1.926-.828c-.792 0-1.44.276-1.944.828-.504.552-.756 1.236-.756 2.052 0 .816.252 1.5.756 2.052s1.152.828 1.944.828Zm10.693 1.8c-1.344 0-2.448-.438-3.312-1.314-.864-.888-1.296-2.01-1.296-3.366 0-1.356.426-2.472 1.278-3.348.852-.888 1.968-1.332 3.348-1.332 1.392 0 2.514.486 3.366 1.458.852.96 1.23 2.196 1.134 3.708h-7.164c.024.696.288 1.278.792 1.746.504.468 1.146.702 1.926.702 1.104 0 1.86-.42 2.268-1.26h2.07c-.276.876-.804 1.596-1.584 2.16-.78.564-1.722.846-2.826.846Zm-.036-7.704c-.648 0-1.206.186-1.674.558-.456.36-.75.876-.882 1.548h4.986c-.144-.696-.438-1.218-.882-1.566-.444-.36-.96-.54-1.548-.54Zm5.69 5.76h.234c.852 0 1.278-.882 1.278-2.646V494h7.416v7.236h1.404v4.014h-1.8V503h-6.714v2.25h-1.818v-4.014Zm3.492-5.472v3.024c0 1.092-.174 1.908-.522 2.448h3.978v-5.472h-3.456Zm8.76 7.38c-.444 0-.768-.024-.972-.072v-1.71c.264.024.462.036.594.036.372 0 .648-.12.828-.36.18-.252.27-.69.27-1.314V494h7.326v9h-1.98v-7.236h-3.366v4.266c0 1.02-.258 1.794-.774 2.322-.504.528-1.146.792-1.926.792Zm18.122-1.314c-.9.9-2.016 1.35-3.348 1.35-1.332 0-2.454-.45-3.366-1.35-.9-.912-1.35-2.022-1.35-3.33 0-1.308.45-2.412 1.35-3.312.912-.912 2.034-1.368 3.366-1.368 1.332 0 2.448.456 3.348 1.368.912.9 1.368 2.004 1.368 3.312 0 1.308-.456 2.418-1.368 3.33Zm-3.348-.486c.78 0 1.422-.27 1.926-.81.516-.552.774-1.23.774-2.034 0-.804-.258-1.476-.774-2.016-.504-.552-1.146-.828-1.926-.828-.792 0-1.446.276-1.962.828-.504.54-.756 1.212-.756 2.016s.252 1.482.756 2.034c.516.54 1.17.81 1.962.81ZM993.697 503l-3.816-3.834V503h-1.98v-3.852L984.085 503h-2.52l4.518-4.572-3.906-4.428h2.358l3.366 3.852V494h1.98v3.834l3.348-3.834h2.358l-3.906 4.428 4.536 4.572h-2.52Zm5.487 0h-1.764v-9h1.98v5.994l4.59-5.994h1.76v9h-1.98v-5.994L999.184 503Zm9.236-9h1.73l3.15 4.104 3.19-4.104h1.73v9h-1.98v-5.886l-2.92 3.78-2.92-3.78V503h-1.98v-9Zm18.68 12.762h-1.98V494h1.98v1.206c.28-.384.68-.708 1.19-.972.53-.276 1.1-.414 1.71-.414 1.23 0 2.25.456 3.08 1.368.84.912 1.26 2.016 1.26 3.312 0 1.296-.42 2.4-1.26 3.312-.83.912-1.85 1.368-3.08 1.368-.61 0-1.18-.132-1.71-.396-.51-.276-.91-.606-1.19-.99v4.968Zm2.54-5.382c.78 0 1.42-.276 1.93-.828.5-.552.75-1.236.75-2.052 0-.816-.25-1.5-.75-2.052-.51-.552-1.15-.828-1.93-.828-.79 0-1.44.276-1.94.828-.51.552-.76 1.236-.76 2.052 0 .816.25 1.5.76 2.052.5.552 1.15.828 1.94.828Zm10.69 1.8c-1.34 0-2.44-.438-3.31-1.314-.86-.888-1.29-2.01-1.29-3.366 0-1.356.42-2.472 1.27-3.348.86-.888 1.97-1.332 3.35-1.332 1.39 0 2.52.486 3.37 1.458.85.96 1.23 2.196 1.13 3.708h-7.16c.02.696.29 1.278.79 1.746.5.468 1.15.702 1.93.702 1.1 0 1.86-.42 2.26-1.26h2.07c-.27.876-.8 1.596-1.58 2.16-.78.564-1.72.846-2.83.846Zm-.03-7.704c-.65 0-1.21.186-1.68.558-.45.36-.75.876-.88 1.548h4.99c-.15-.696-.44-1.218-.88-1.566-.45-.36-.96-.54-1.55-.54Zm6.58 7.524v-9h1.98v7.236h3.14V494h1.98v7.236h3.11V494h1.98v9h-12.19Zm18.84.18c-1.35 0-2.45-.438-3.32-1.314-.86-.888-1.29-2.01-1.29-3.366 0-1.356.42-2.472 1.28-3.348.85-.888 1.96-1.332 3.34-1.332 1.4 0 2.52.486 3.37 1.458.85.96 1.23 2.196 1.13 3.708h-7.16c.02.696.29 1.278.79 1.746.51.468 1.15.702 1.93.702 1.1 0 1.86-.42 2.27-1.26h2.07c-.28.876-.81 1.596-1.59 2.16-.78.564-1.72.846-2.82.846Zm-.04-7.704c-.65 0-1.21.186-1.67.558-.46.36-.75.876-.89 1.548h4.99c-.14-.696-.44-1.218-.88-1.566-.45-.36-.96-.54-1.55-.54Zm6.59 7.524v-9h1.98v3.564h4.34V494h1.98v9h-1.98v-3.672h-4.34V503h-1.98Zm12.73 0h-1.76v-9h1.98v5.994l4.59-5.994h1.76v9h-1.98v-5.994L1085 503Zm7.78 0 3.37-3.456c-.61-.216-1.09-.552-1.42-1.008-.34-.456-.51-.99-.51-1.602 0-.864.29-1.566.87-2.106.57-.552 1.38-.828 2.43-.828h3.63v9h-1.98v-3.078h-1.01l-3.04 3.078h-2.34Zm4.84-4.734h1.55v-2.592h-1.55c-.99 0-1.49.444-1.49 1.332 0 .396.13.708.4.936.27.216.64.324 1.09.324Zm10.44 4.734v-9h8.11v9h-1.98v-7.236h-4.15V503h-1.98Zm18.19-1.17c-.9.9-2.02 1.35-3.35 1.35s-2.45-.45-3.37-1.35c-.9-.912-1.35-2.022-1.35-3.33 0-1.308.45-2.412 1.35-3.312.92-.912 2.04-1.368 3.37-1.368s2.45.456 3.35 1.368c.91.9 1.37 2.004 1.37 3.312 0 1.308-.46 2.418-1.37 3.33Zm-3.35-.486c.78 0 1.42-.27 1.93-.81.51-.552.77-1.23.77-2.034 0-.804-.26-1.476-.77-2.016-.51-.552-1.15-.828-1.93-.828-.79 0-1.45.276-1.96.828-.51.54-.76 1.212-.76 2.016s.25 1.482.76 2.034c.51.54 1.17.81 1.96.81Zm10.94 1.656v-9h8.12v9h-1.98v-7.236h-4.16V503h-1.98Zm12.76 3.762h-1.98V494h1.98v1.206c.28-.384.67-.708 1.19-.972.53-.276 1.1-.414 1.71-.414 1.22 0 2.25.456 3.08 1.368.84.912 1.26 2.016 1.26 3.312 0 1.296-.42 2.4-1.26 3.312-.83.912-1.86 1.368-3.08 1.368-.61 0-1.18-.132-1.71-.396-.52-.276-.91-.606-1.19-.99v4.968Zm2.54-5.382c.78 0 1.42-.276 1.92-.828.51-.552.76-1.236.76-2.052 0-.816-.25-1.5-.76-2.052-.5-.552-1.14-.828-1.92-.828-.79 0-1.44.276-1.95.828-.5.552-.75 1.236-.75 2.052 0 .816.25 1.5.75 2.052.51.552 1.16.828 1.95.828Zm14.13.45c-.9.9-2.02 1.35-3.35 1.35s-2.45-.45-3.37-1.35c-.9-.912-1.35-2.022-1.35-3.33 0-1.308.45-2.412 1.35-3.312.92-.912 2.04-1.368 3.37-1.368s2.45.456 3.35 1.368c.91.9 1.37 2.004 1.37 3.312 0 1.308-.46 2.418-1.37 3.33Zm-3.35-.486c.78 0 1.42-.27 1.93-.81.51-.552.77-1.23.77-2.034 0-.804-.26-1.476-.77-2.016-.51-.552-1.15-.828-1.93-.828-.79 0-1.45.276-1.96.828-.51.54-.76 1.212-.76 2.016s.25 1.482.76 2.034c.51.54 1.17.81 1.96.81Zm5.76-.108h.23c.85 0 1.28-.882 1.28-2.646V494h7.42v7.236h1.4v4.014h-1.8V503h-6.71v2.25h-1.82v-4.014Zm3.49-5.472v3.024c0 1.092-.17 1.908-.52 2.448h3.98v-5.472h-3.46Zm8.76 7.236v-9h4.1c1.04 0 1.83.246 2.38.738.55.492.83 1.104.83 1.836 0 .636-.25 1.182-.74 1.638.88.468 1.31 1.176 1.31 2.124 0 .756-.27 1.392-.81 1.908-.54.504-1.35.756-2.44.756h-4.63Zm1.98-1.674h2.63c.39 0 .71-.096.93-.288.24-.204.36-.48.36-.828 0-.36-.12-.636-.36-.828-.22-.204-.54-.306-.93-.306h-2.63v2.25Zm0-3.69h2.2c.32 0 .59-.078.81-.234.22-.168.34-.432.34-.792 0-.672-.39-1.008-1.15-1.008h-2.2v2.034Zm9.68 5.364h-1.76v-9h1.98v5.994l4.59-5.994h1.76v9h-1.98v-5.994l-4.59 5.994Zm19.91 0-3.81-3.834V503h-1.98v-3.852l-3.82 3.852h-2.52l4.52-4.572-3.91-4.428h2.36l3.37 3.852V494h1.98v3.834l3.35-3.834h2.35l-3.9 4.428 4.53 4.572h-2.52Zm7.14.18c-1.34 0-2.45-.438-3.31-1.314-.86-.888-1.3-2.01-1.3-3.366 0-1.356.43-2.472 1.28-3.348.85-.888 1.97-1.332 3.35-1.332 1.39 0 2.51.486 3.37 1.458.85.96 1.23 2.196 1.13 3.708H1214c.02.696.28 1.278.79 1.746.5.468 1.14.702 1.92.702 1.11 0 1.86-.42 2.27-1.26h2.07c-.27.876-.8 1.596-1.58 2.16-.78.564-1.72.846-2.83.846Zm-.03-7.704c-.65 0-1.21.186-1.68.558-.45.36-.75.876-.88 1.548h4.99c-.15-.696-.44-1.218-.89-1.566-.44-.36-.96-.54-1.54-.54Zm6.58 7.524v-9h1.98v3.564h4.34V494h1.98v9h-1.98v-3.672h-4.34V503h-1.98Zm12.74 0h-1.77v-9h1.98v5.994l4.59-5.994h1.77v9h-1.98v-5.994l-4.59 5.994Zm17.28.18c-1.15 0-2.15-.366-2.99-1.098a4.435 4.435 0 0 1-1.51-2.754h-1.56V503h-1.98v-9h1.98v3.582h1.58c.19-1.092.7-1.992 1.53-2.7.83-.708 1.81-1.062 2.95-1.062 1.31 0 2.39.45 3.24 1.35.87.9 1.3 2.01 1.3 3.33 0 1.32-.43 2.43-1.3 3.33-.85.9-1.93 1.35-3.24 1.35Zm-1.83-2.646c.48.528 1.09.792 1.83.792.75 0 1.35-.264 1.82-.792.48-.54.72-1.218.72-2.034 0-.816-.24-1.488-.72-2.016-.47-.54-1.07-.81-1.82-.81-.74 0-1.35.27-1.83.81-.47.528-.71 1.2-.71 2.016 0 .816.24 1.494.71 2.034Z" fill="#fff"/></svg>