<svg width="24" height="24" viewBox="0 0 24 24" fill="none" xmlns="http://www.w3.org/2000/svg">
<path d="M11.4568 8.07005L3.49181 16.4296C3.35884 16.569 3.28467 16.7543 3.28467 16.9471C3.28467 17.1398 3.35884 17.3251 3.49181 17.4646L3.50081 17.4736C3.56527 17.5414 3.64286 17.5954 3.72886 17.6324C3.81486 17.6693 3.90747 17.6883 4.00106 17.6883C4.09465 17.6883 4.18726 17.6693 4.27326 17.6324C4.35926 17.5954 4.43685 17.5414 4.50131 17.4736L12.0013 9.60155L19.4983 17.4736C19.5628 17.5414 19.6404 17.5954 19.7264 17.6324C19.8124 17.6693 19.905 17.6883 19.9986 17.6883C20.0921 17.6883 20.1848 17.6693 20.2708 17.6324C20.3568 17.5954 20.4343 17.5414 20.4988 17.4736L20.5078 17.4646C20.6408 17.3251 20.715 17.1398 20.715 16.9471C20.715 16.7543 20.6408 16.569 20.5078 16.4296L12.5428 8.07005C12.4728 7.99653 12.3885 7.93801 12.2952 7.89801C12.2018 7.85802 12.1014 7.8374 11.9998 7.8374C11.8983 7.8374 11.7978 7.85802 11.7044 7.89801C11.6111 7.93801 11.5269 7.99653 11.4568 8.07005Z" fill="white"/>
</svg>
