<svg width="178" height="57" viewBox="0 0 178 57" fill="none" xmlns="http://www.w3.org/2000/svg">
<path d="M73.05 22.992V26.808H79.296C80.574 26.808 81.006 26.25 81.006 24.9C81.006 23.586 80.628 22.992 79.296 22.992H73.05ZM84.21 33H81.222V31.056C81.222 29.832 80.574 29.292 78.846 29.292H73.05V33H70.062V20.508H79.548C82.14 20.508 83.994 21.354 83.994 24.9C83.994 26.808 83.094 27.618 82.176 28.158C83.418 28.572 84.21 29.058 84.21 30.408V33ZM94.1761 27.546C94.1761 26.682 93.7801 25.926 92.5021 25.926H89.7481C88.5781 25.926 88.2361 26.682 88.2361 27.546H94.1761ZM97.0381 29.202H88.2361V29.544C88.2361 30.318 88.4341 31.146 89.6581 31.146H93.1141C93.8341 31.146 94.1761 30.786 94.1761 30.084H97.0381C97.0381 31.65 96.3001 33 93.2941 33H88.9201C86.4181 33 85.2481 31.542 85.2481 29.598V27.348C85.2481 25.782 86.3101 24.072 88.9741 24.072H93.2221C96.1561 24.072 97.0381 25.908 97.0381 27.69V29.202ZM101.488 26.682H98.6445C98.6445 25.224 99.4365 24.108 102.244 24.108H106.654C109.462 24.108 110.434 25.512 110.434 27.24V33H107.446V31.992C106.942 32.658 106.636 33 105.556 33H101.56C99.7425 33 98.5725 32.28 98.5725 30.732V29.652C98.5725 28.176 99.3825 27.294 102.172 27.294H105.79C106.672 27.294 107.122 27.582 107.446 28.158V27.042C107.446 26.142 106.942 25.962 105.808 25.962H102.64C101.686 25.962 101.488 26.052 101.488 26.394V26.682ZM102.91 29.148C101.866 29.148 101.488 29.382 101.488 30.156C101.488 30.876 101.83 31.146 102.91 31.146H105.988C107.086 31.146 107.446 30.894 107.446 30.156C107.446 29.436 107.086 29.148 105.988 29.148H102.91ZM115.627 20.508V33H112.639V20.508H115.627ZM124.045 20.508H136.807V22.992H127.033V25.296H136.519V27.78H127.033V33H124.045V20.508ZM141.531 26.682H138.687C138.687 25.224 139.479 24.108 142.287 24.108H146.697C149.505 24.108 150.477 25.512 150.477 27.24V33H147.489V31.992C146.985 32.658 146.679 33 145.599 33H141.603C139.785 33 138.615 32.28 138.615 30.732V29.652C138.615 28.176 139.425 27.294 142.215 27.294H145.833C146.715 27.294 147.165 27.582 147.489 28.158V27.042C147.489 26.142 146.985 25.962 145.851 25.962H142.683C141.729 25.962 141.531 26.052 141.531 26.394V26.682ZM142.953 29.148C141.909 29.148 141.531 29.382 141.531 30.156C141.531 30.876 141.873 31.146 142.953 31.146H146.031C147.129 31.146 147.489 30.894 147.489 30.156C147.489 29.436 147.129 29.148 146.031 29.148H142.953ZM155.418 24.108V25.368C155.472 25.224 155.94 24.108 157.992 24.108H160.404C163.032 24.108 164.364 25.458 164.364 27.762V33H161.376V28.356C161.376 26.808 160.8 26.16 159.27 26.16H157.794C156.282 26.16 155.418 27.006 155.418 28.59V33H152.43V24.108H155.418ZM166.91 22.398H169.898V24.108H175.478V26.16H169.898V29.364C169.898 30.48 170.456 30.948 171.32 30.948H172.562C173.426 30.948 173.732 30.264 173.732 29.364H176.72C176.72 31.236 176.216 33 172.4 33H170.51C168.206 33 166.91 31.74 166.91 29.688V26.16H165.83V24.108H166.91V22.398Z" fill="white"/>
<g opacity="0.9">
<circle cx="28.5" cy="28.5" r="28.5" transform="matrix(1 0 0 -1 0 57)" fill="url(#paint0_radial_2201_2356)"/>
<circle cx="28.5" cy="28.5" r="28.1686" transform="matrix(1 0 0 -1 0 57)" stroke="white" stroke-opacity="0.7" stroke-width="0.662791"/>
<circle cx="28.5" cy="28.5" r="28.5" fill="url(#paint1_radial_2201_2356)"/>
<circle cx="28.5" cy="28.5" r="28.1686" stroke="white" stroke-opacity="0.7" stroke-width="0.662791"/>
<circle cx="28.5" cy="35.128" r="21.8721" fill="url(#paint2_radial_2201_2356)"/>
<circle cx="28.5" cy="35.128" r="21.5407" stroke="white" stroke-opacity="0.7" stroke-width="0.662791"/>
<circle cx="21.8721" cy="21.8721" r="21.8721" transform="matrix(1 0 0 -1 6.62793 43.7441)" fill="url(#paint3_radial_2201_2356)"/>
<circle cx="21.8721" cy="21.8721" r="21.5407" transform="matrix(1 0 0 -1 6.62793 43.7441)" stroke="white" stroke-opacity="0.7" stroke-width="0.662791"/>
<circle cx="28.5003" cy="42.4188" r="14.5814" fill="url(#paint4_radial_2201_2356)"/>
<circle cx="28.5003" cy="42.4188" r="14.25" stroke="white" stroke-opacity="0.7" stroke-width="0.662791"/>
<circle cx="14.5814" cy="14.5814" r="14.5814" transform="matrix(1 0 0 -1 13.9189 29.1626)" fill="url(#paint5_radial_2201_2356)"/>
<circle cx="14.5814" cy="14.5814" r="14.25" transform="matrix(1 0 0 -1 13.9189 29.1626)" stroke="white" stroke-opacity="0.7" stroke-width="0.662791"/>
<circle cx="28.5001" cy="48.3839" r="8.61628" fill="url(#paint6_radial_2201_2356)"/>
<circle cx="28.5001" cy="48.3839" r="8.28488" stroke="white" stroke-opacity="0.7" stroke-width="0.662791"/>
<circle cx="8.61628" cy="8.61628" r="8.61628" transform="matrix(1 0 0 -1 19.8838 17.2324)" fill="url(#paint7_radial_2201_2356)"/>
<circle cx="8.61628" cy="8.61628" r="8.28488" transform="matrix(1 0 0 -1 19.8838 17.2324)" stroke="white" stroke-opacity="0.7" stroke-width="0.662791"/>
<circle cx="28.4999" cy="52.3602" r="4.63953" fill="url(#paint8_radial_2201_2356)"/>
<circle cx="28.4999" cy="52.3602" r="4.30814" stroke="white" stroke-opacity="0.7" stroke-width="0.662791"/>
<circle cx="4.63953" cy="4.63953" r="4.63953" transform="matrix(1 0 0 -1 23.8604 9.2793)" fill="url(#paint9_radial_2201_2356)"/>
<circle cx="4.63953" cy="4.63953" r="4.30814" transform="matrix(1 0 0 -1 23.8604 9.2793)" stroke="white" stroke-opacity="0.7" stroke-width="0.662791"/>
</g>
<defs>
<radialGradient id="paint0_radial_2201_2356" cx="0" cy="0" r="1" gradientUnits="userSpaceOnUse" gradientTransform="translate(29 3) rotate(91.6366) scale(52.5214)">
<stop offset="0.764517" stop-color="white" stop-opacity="0"/>
<stop offset="1" stop-color="white" stop-opacity="0.66"/>
</radialGradient>
<radialGradient id="paint1_radial_2201_2356" cx="0" cy="0" r="1" gradientUnits="userSpaceOnUse" gradientTransform="translate(29 3) rotate(91.6366) scale(52.5214)">
<stop offset="0.764517" stop-color="white" stop-opacity="0"/>
<stop offset="1" stop-color="white" stop-opacity="0.66"/>
</radialGradient>
<radialGradient id="paint2_radial_2201_2356" cx="0" cy="0" r="1" gradientUnits="userSpaceOnUse" gradientTransform="translate(27 57) rotate(-90) scale(44)">
<stop offset="0.674276" stop-color="white" stop-opacity="0"/>
<stop offset="1" stop-color="white" stop-opacity="0.66"/>
</radialGradient>
<radialGradient id="paint3_radial_2201_2356" cx="0" cy="0" r="1" gradientUnits="userSpaceOnUse" gradientTransform="translate(20.3721 43.7442) rotate(-90) scale(44)">
<stop offset="0.674276" stop-color="white" stop-opacity="0"/>
<stop offset="1" stop-color="white" stop-opacity="0.66"/>
</radialGradient>
<radialGradient id="paint4_radial_2201_2356" cx="0" cy="0" r="1" gradientUnits="userSpaceOnUse" gradientTransform="translate(29 57.0002) rotate(-90) scale(29)">
<stop offset="0.753498" stop-color="white" stop-opacity="0"/>
<stop offset="1" stop-color="white" stop-opacity="0.66"/>
</radialGradient>
<radialGradient id="paint5_radial_2201_2356" cx="0" cy="0" r="1" gradientUnits="userSpaceOnUse" gradientTransform="translate(15.0811 29.1628) rotate(-90) scale(29)">
<stop offset="0.753498" stop-color="white" stop-opacity="0"/>
<stop offset="1" stop-color="white" stop-opacity="0.66"/>
</radialGradient>
<radialGradient id="paint6_radial_2201_2356" cx="0" cy="0" r="1" gradientUnits="userSpaceOnUse" gradientTransform="translate(28.5001 48.3839) rotate(90) scale(8.61628)">
<stop offset="0.755" stop-color="white" stop-opacity="0"/>
<stop offset="1" stop-color="white" stop-opacity="0.66"/>
</radialGradient>
<radialGradient id="paint7_radial_2201_2356" cx="0" cy="0" r="1" gradientUnits="userSpaceOnUse" gradientTransform="translate(8.61628 8.61628) rotate(90) scale(8.61628)">
<stop offset="0.755" stop-color="white" stop-opacity="0"/>
<stop offset="1" stop-color="white" stop-opacity="0.66"/>
</radialGradient>
<radialGradient id="paint8_radial_2201_2356" cx="0" cy="0" r="1" gradientUnits="userSpaceOnUse" gradientTransform="translate(28.4999 52.3602) rotate(90) scale(4.63953)">
<stop offset="0.755" stop-color="white" stop-opacity="0"/>
<stop offset="1" stop-color="white" stop-opacity="0.66"/>
</radialGradient>
<radialGradient id="paint9_radial_2201_2356" cx="0" cy="0" r="1" gradientUnits="userSpaceOnUse" gradientTransform="translate(4.63953 4.63953) rotate(90) scale(4.63953)">
<stop offset="0.755" stop-color="white" stop-opacity="0"/>
<stop offset="1" stop-color="white" stop-opacity="0.66"/>
</radialGradient>
</defs>
</svg>
