<svg width="73" height="75" viewBox="0 0 73 75" fill="none" xmlns="http://www.w3.org/2000/svg">
<g opacity="0.9">
<ellipse cx="36.2468" cy="37.3758" rx="36.2468" ry="37.3758" transform="matrix(1 0 0 -1 0 74.7529)" fill="url(#paint0_radial_134_3378)"/>
<path d="M43.22 52.253C43.22 40.0466 33.6269 30.1736 21.8203 30.1736C10.0136 30.1736 0.420605 40.0466 0.420605 52.253C0.420605 64.4593 10.0136 74.3323 21.8203 74.3323C33.6269 74.3323 43.22 64.4593 43.22 52.253Z" stroke="white" stroke-opacity="0.7" stroke-width="0.841209"/>
<ellipse cx="36.2468" cy="37.3768" rx="36.2468" ry="37.3758" fill="url(#paint1_radial_134_3378)"/>
<path d="M43.22 22.5009C43.22 34.7073 33.6269 44.5803 21.8203 44.5803C10.0136 44.5803 0.420605 34.7073 0.420605 22.5009C0.420605 10.2946 10.0136 0.421581 21.8203 0.421581C33.6269 0.421581 43.22 10.2946 43.22 22.5009Z" stroke="white" stroke-opacity="0.7" stroke-width="0.841209"/>
<ellipse cx="35.8173" cy="46.0675" rx="27.8173" ry="28.6838" fill="url(#paint2_radial_134_3378)"/>
<path d="M41.071 34.6512C41.071 43.9677 33.7499 51.498 24.7458 51.498C15.7417 51.498 8.4206 43.9677 8.4206 34.6512C8.4206 25.3347 15.7417 17.8044 24.7458 17.8044C33.7499 17.8044 41.071 25.3347 41.071 34.6512Z" stroke="white" stroke-opacity="0.7" stroke-width="0.841209"/>
<ellipse cx="27.8173" cy="28.6838" rx="27.8173" ry="28.6838" transform="matrix(1 0 0 -1 8 57.3701)" fill="url(#paint3_radial_134_3378)"/>
<path d="M41.071 40.1027C41.071 30.7862 33.7499 23.2559 24.7458 23.2559C15.7417 23.2559 8.4206 30.7862 8.4206 40.1027C8.4206 49.4192 15.7417 56.9495 24.7458 56.9495C33.7499 56.9495 41.071 49.4192 41.071 40.1027Z" stroke="white" stroke-opacity="0.7" stroke-width="0.841209"/>
<ellipse cx="35.5449" cy="55.6303" rx="18.5449" ry="19.1225" fill="url(#paint4_radial_134_3378)"/>
<path d="M38.9071 48.0194C38.9071 54.1571 34.0851 59.1104 28.1639 59.1104C22.2426 59.1104 17.4206 54.1571 17.4206 48.0194C17.4206 41.8818 22.2426 36.9284 28.1639 36.9284C34.0851 36.9284 38.9071 41.8818 38.9071 48.0194Z" stroke="white" stroke-opacity="0.7" stroke-width="0.841209"/>
<ellipse cx="18.5449" cy="19.1225" rx="18.5449" ry="19.1225" transform="matrix(1 0 0 -1 17 38.2461)" fill="url(#paint5_radial_134_3378)"/>
<path d="M38.9071 26.7345C38.9071 20.5968 34.0851 15.6435 28.1639 15.6435C22.2426 15.6435 17.4206 20.5968 17.4206 26.7345C17.4206 32.8721 22.2426 37.8255 28.1639 37.8255C34.0851 37.8255 38.9071 32.8721 38.9071 26.7345Z" stroke="white" stroke-opacity="0.7" stroke-width="0.841209"/>
<ellipse cx="35.9583" cy="63.454" rx="10.9583" ry="11.2997" fill="url(#paint6_radial_134_3378)"/>
<path d="M37.7731 58.9566C37.7731 62.4934 34.9958 65.3383 31.5968 65.3383C28.1979 65.3383 25.4206 62.4934 25.4206 58.9566C25.4206 55.4198 28.1979 52.5749 31.5968 52.5749C34.9958 52.5749 37.7731 55.4198 37.7731 58.9566Z" stroke="white" stroke-opacity="0.7" stroke-width="0.841209"/>
<ellipse cx="10.9583" cy="11.2997" rx="10.9583" ry="11.2997" transform="matrix(1 0 0 -1 25 22.5996)" fill="url(#paint7_radial_134_3378)"/>
<path d="M37.7731 15.7973C37.7731 12.2605 34.9958 9.41559 31.5968 9.41559C28.1979 9.41559 25.4206 12.2605 25.4206 15.7973C25.4206 19.3341 28.1979 22.179 31.5968 22.179C34.9958 22.179 37.7731 19.3341 37.7731 15.7973Z" stroke="white" stroke-opacity="0.7" stroke-width="0.841209"/>
<ellipse cx="35.9006" cy="68.6694" rx="5.90064" ry="6.08443" fill="url(#paint8_radial_134_3378)"/>
<path d="M36.6837 66.2477C36.6837 68.0506 35.2696 69.4899 33.5521 69.4899C31.8347 69.4899 30.4206 68.0506 30.4206 66.2477C30.4206 64.4449 31.8347 63.0056 33.5521 63.0056C35.2696 63.0056 36.6837 64.4449 36.6837 66.2477Z" stroke="white" stroke-opacity="0.7" stroke-width="0.841209"/>
<ellipse cx="5.90064" cy="6.08443" rx="5.90064" ry="6.08443" transform="matrix(1 0 0 -1 30 12.1689)" fill="url(#paint9_radial_134_3378)"/>
<path d="M36.6837 8.50616C36.6837 6.7033 35.2696 5.26398 33.5521 5.26398C31.8347 5.26398 30.4206 6.7033 30.4206 8.50616C30.4206 10.309 31.8347 11.7483 33.5521 11.7483C35.2696 11.7483 36.6837 10.309 36.6837 8.50616Z" stroke="white" stroke-opacity="0.7" stroke-width="0.841209"/>
</g>
<defs>
<radialGradient id="paint0_radial_134_3378" cx="0" cy="0" r="1" gradientUnits="userSpaceOnUse" gradientTransform="translate(36.8827 3.9343) rotate(91.5872) scale(68.8766 66.7992)">
<stop offset="0.764517" stop-color="white" stop-opacity="0"/>
<stop offset="1" stop-color="white" stop-opacity="0.66"/>
</radialGradient>
<radialGradient id="paint1_radial_134_3378" cx="0" cy="0" r="1" gradientUnits="userSpaceOnUse" gradientTransform="translate(36.8827 3.93527) rotate(91.5872) scale(68.8766 66.7992)">
<stop offset="0.764517" stop-color="white" stop-opacity="0"/>
<stop offset="1" stop-color="white" stop-opacity="0.66"/>
</radialGradient>
<radialGradient id="paint2_radial_134_3378" cx="0" cy="0" r="1" gradientUnits="userSpaceOnUse" gradientTransform="translate(33.9095 74.7513) rotate(-90) scale(57.703 55.9599)">
<stop offset="0.674276" stop-color="white" stop-opacity="0"/>
<stop offset="1" stop-color="white" stop-opacity="0.66"/>
</radialGradient>
<radialGradient id="paint3_radial_134_3378" cx="0" cy="0" r="1" gradientUnits="userSpaceOnUse" gradientTransform="translate(25.9095 57.3675) rotate(-90) scale(57.703 55.9599)">
<stop offset="0.674276" stop-color="white" stop-opacity="0"/>
<stop offset="1" stop-color="white" stop-opacity="0.66"/>
</radialGradient>
<radialGradient id="paint4_radial_134_3378" cx="0" cy="0" r="1" gradientUnits="userSpaceOnUse" gradientTransform="translate(36.1803 74.7528) rotate(-90) scale(38.0315 36.8827)">
<stop offset="0.753498" stop-color="white" stop-opacity="0"/>
<stop offset="1" stop-color="white" stop-opacity="0.66"/>
</radialGradient>
<radialGradient id="paint5_radial_134_3378" cx="0" cy="0" r="1" gradientUnits="userSpaceOnUse" gradientTransform="translate(19.1803 38.245) rotate(-90) scale(38.0315 36.8827)">
<stop offset="0.753498" stop-color="white" stop-opacity="0"/>
<stop offset="1" stop-color="white" stop-opacity="0.66"/>
</radialGradient>
<radialGradient id="paint6_radial_134_3378" cx="0" cy="0" r="1" gradientUnits="userSpaceOnUse" gradientTransform="translate(35.9583 63.454) rotate(90) scale(11.2997 10.9583)">
<stop offset="0.755" stop-color="white" stop-opacity="0"/>
<stop offset="1" stop-color="white" stop-opacity="0.66"/>
</radialGradient>
<radialGradient id="paint7_radial_134_3378" cx="0" cy="0" r="1" gradientUnits="userSpaceOnUse" gradientTransform="translate(10.9583 11.2997) rotate(90) scale(11.2997 10.9583)">
<stop offset="0.755" stop-color="white" stop-opacity="0"/>
<stop offset="1" stop-color="white" stop-opacity="0.66"/>
</radialGradient>
<radialGradient id="paint8_radial_134_3378" cx="0" cy="0" r="1" gradientUnits="userSpaceOnUse" gradientTransform="translate(35.9006 68.6694) rotate(90) scale(6.08443 5.90064)">
<stop offset="0.755" stop-color="white" stop-opacity="0"/>
<stop offset="1" stop-color="white" stop-opacity="0.66"/>
</radialGradient>
<radialGradient id="paint9_radial_134_3378" cx="0" cy="0" r="1" gradientUnits="userSpaceOnUse" gradientTransform="translate(5.90064 6.08443) rotate(90) scale(6.08443 5.90064)">
<stop offset="0.755" stop-color="white" stop-opacity="0"/>
<stop offset="1" stop-color="white" stop-opacity="0.66"/>
</radialGradient>
</defs>
</svg>
