<svg width="31" height="27" viewBox="0 0 31 27" fill="none" xmlns="http://www.w3.org/2000/svg">
<path id="Vector" d="M27.0996 0.5H3.90035C2.86591 0.5 1.87384 0.931518 1.14239 1.69963C0.410929 2.46773 0 3.50951 0 4.59578V22.4042C0 23.4905 0.410929 24.5323 1.14239 25.3004C1.87384 26.0685 2.86591 26.5 3.90035 26.5H27.0996C28.1341 26.5 29.1262 26.0685 29.8576 25.3004C30.5891 24.5323 31 23.4905 31 22.4042V4.59578C31 3.50951 30.5891 2.46773 29.8576 1.69963C29.1262 0.931518 28.1341 0.5 27.0996 0.5ZM3.90035 2.13831H27.0996C27.6902 2.13652 28.2592 2.37097 28.691 2.79398C29.1228 3.21699 29.385 3.79681 29.4243 4.41556C25.5707 6.57814 21.7016 8.72432 17.8324 10.8869C17.309 11.2314 16.7552 11.5221 16.1787 11.7552C15.7261 11.849 15.2597 11.8405 14.8104 11.7304C14.3612 11.6202 13.9394 11.4108 13.5732 11.1163C11.3578 9.88752 9.14243 8.64241 6.94263 7.41367C5.16407 6.43069 3.3543 5.43132 1.57574 4.43195C1.61192 3.81056 1.87267 3.22713 2.30472 2.80084C2.73677 2.37455 3.30751 2.13757 3.90035 2.13831ZM29.4399 22.4042C29.4399 23.056 29.1933 23.6811 28.7544 24.1419C28.3156 24.6028 27.7203 24.8617 27.0996 24.8617H3.90035C3.27969 24.8617 2.68445 24.6028 2.24557 24.1419C1.8067 23.6811 1.56014 23.056 1.56014 22.4042V6.29143C5.24207 8.32294 8.9084 10.3872 12.5903 12.4351C13.2482 12.8586 13.9563 13.1891 14.6965 13.4181C15.7799 13.603 16.8902 13.364 17.8168 12.7464C20.079 11.5013 22.3256 10.2398 24.5878 8.99464C26.2104 8.07719 27.8173 7.1925 29.4399 6.29143V22.4042Z" fill="white"/>
</svg>
