<svg width="1670" height="700" viewBox="0 0 1670 700" fill="none" xmlns="http://www.w3.org/2000/svg">
<mask id="path-1-outside-1_134_1447" maskUnits="userSpaceOnUse" x="552" y="338" width="562" height="316" fill="black">
<rect fill="white" x="552" y="338" width="562" height="316"/>
<path d="M637.107 496.3C637.107 486.967 640.373 479.033 646.907 472.5C653.44 465.967 661.373 462.7 670.707 462.7H1018.61C1025.61 462.7 1031.67 460.133 1036.81 455C1041.94 449.867 1044.51 443.567 1044.51 436.1C1044.51 429.1 1041.94 423.267 1036.81 418.6C1031.67 413.467 1025.61 410.9 1018.61 410.9H590.907C581.573 410.9 573.64 407.633 567.107 401.1C560.573 394.567 557.307 386.633 557.307 377.3C557.307 367.967 560.573 360.033 567.107 353.5C573.64 346.967 581.573 343.7 590.907 343.7H1015.11C1028.17 343.7 1040.31 346.033 1051.51 350.7C1063.17 355.367 1073.21 361.9 1081.61 370.3C1090.01 378.7 1096.54 388.5 1101.21 399.7C1106.34 410.9 1108.91 423.033 1108.91 436.1C1108.91 447.767 1106.81 458.733 1102.61 469C1098.87 479.267 1093.51 488.367 1086.51 496.3C1101.44 514.033 1108.91 534.1 1108.91 556.5C1108.91 569.567 1106.34 581.7 1101.21 592.9C1096.54 604.1 1090.01 613.9 1081.61 622.3C1073.21 630.7 1063.17 637.233 1051.51 641.9C1040.31 646.567 1028.17 648.9 1015.11 648.9H590.907C581.573 648.9 573.64 645.633 567.107 639.1C560.573 632.567 557.307 624.633 557.307 615.3C557.307 605.967 560.573 598.033 567.107 591.5C573.64 584.967 581.573 581.7 590.907 581.7H1018.61C1025.61 581.7 1031.67 579.367 1036.81 574.7C1041.94 569.567 1044.51 563.5 1044.51 556.5C1044.51 549.033 1041.94 542.733 1036.81 537.6C1031.67 532.467 1025.61 529.9 1018.61 529.9H670.707C661.373 529.9 653.44 526.633 646.907 520.1C640.373 513.567 637.107 505.633 637.107 496.3Z"/>
</mask>
<path d="M1036.81 455L1033.27 451.464L1036.81 455ZM1036.81 418.6L1033.27 422.136L1033.36 422.22L1033.44 422.3L1036.81 418.6ZM567.107 401.1L570.642 397.564L567.107 401.1ZM567.107 353.5L563.571 349.964H563.571L567.107 353.5ZM1051.51 350.7L1049.58 355.315L1049.62 355.329L1049.65 355.342L1051.51 350.7ZM1101.21 399.7L1096.59 401.623L1096.62 401.704L1096.66 401.783L1101.21 399.7ZM1102.61 469L1097.98 467.107L1097.94 467.198L1097.91 467.291L1102.61 469ZM1086.51 496.3L1082.76 492.992L1079.91 496.224L1082.68 499.521L1086.51 496.3ZM1101.21 592.9L1096.66 590.817L1096.62 590.896L1096.59 590.977L1101.21 592.9ZM1081.61 622.3L1078.07 618.764L1081.61 622.3ZM1051.51 641.9L1049.65 637.258L1049.62 637.271L1049.58 637.285L1051.51 641.9ZM567.107 639.1L570.642 635.564L567.107 639.1ZM567.107 591.5L570.642 595.036L567.107 591.5ZM1036.81 574.7L1040.17 578.4L1040.26 578.32L1040.34 578.236L1036.81 574.7ZM1036.81 537.6L1033.27 541.135V541.136L1036.81 537.6ZM646.907 520.1L643.371 523.636H643.371L646.907 520.1ZM642.107 496.3C642.107 488.278 644.857 481.621 650.442 476.036L643.371 468.964C635.889 476.446 632.107 485.656 632.107 496.3H642.107ZM650.442 476.036C656.027 470.451 662.684 467.7 670.707 467.7V457.7C660.062 457.7 650.853 461.483 643.371 468.964L650.442 476.036ZM670.707 467.7H1018.61V457.7H670.707V467.7ZM1018.61 467.7C1026.99 467.7 1034.31 464.568 1040.34 458.536L1033.27 451.464C1029.04 455.699 1024.23 457.7 1018.61 457.7V467.7ZM1040.34 458.536C1046.44 452.435 1049.51 444.85 1049.51 436.1H1039.51C1039.51 442.283 1037.44 447.298 1033.27 451.464L1040.34 458.536ZM1049.51 436.1C1049.51 427.706 1046.36 420.524 1040.17 414.9L1033.44 422.3C1037.52 426.009 1039.51 430.494 1039.51 436.1H1049.51ZM1040.34 415.064C1034.31 409.032 1026.99 405.9 1018.61 405.9V415.9C1024.23 415.9 1029.04 417.901 1033.27 422.136L1040.34 415.064ZM1018.61 405.9H590.907V415.9H1018.61V405.9ZM590.907 405.9C582.884 405.9 576.227 403.149 570.642 397.564L563.571 404.636C571.053 412.117 580.262 415.9 590.907 415.9V405.9ZM570.642 397.564C565.057 391.979 562.307 385.322 562.307 377.3H552.307C552.307 387.944 556.089 397.154 563.571 404.636L570.642 397.564ZM562.307 377.3C562.307 369.278 565.057 362.621 570.642 357.036L563.571 349.964C556.089 357.446 552.307 366.656 552.307 377.3H562.307ZM570.642 357.036C576.227 351.451 582.884 348.7 590.907 348.7V338.7C580.262 338.7 571.053 342.483 563.571 349.964L570.642 357.036ZM590.907 348.7H1015.11V338.7H590.907V348.7ZM1015.11 348.7C1027.56 348.7 1039.04 350.922 1049.58 355.315L1053.43 346.085C1041.57 341.145 1028.78 338.7 1015.11 338.7V348.7ZM1049.65 355.342C1060.72 359.772 1070.18 365.942 1078.07 373.836L1085.14 366.764C1076.24 357.858 1065.62 350.961 1053.36 346.058L1049.65 355.342ZM1078.07 373.836C1086 381.764 1092.17 391.013 1096.59 401.623L1105.82 397.777C1100.91 385.987 1094.01 375.636 1085.14 366.764L1078.07 373.836ZM1096.66 401.783C1101.48 412.29 1103.91 423.708 1103.91 436.1H1113.91C1113.91 422.359 1111.2 409.51 1105.75 397.617L1096.66 401.783ZM1103.91 436.1C1103.91 447.152 1101.92 457.472 1097.98 467.107L1107.23 470.893C1111.69 459.995 1113.91 448.382 1113.91 436.1H1103.91ZM1097.91 467.291C1094.38 476.99 1089.33 485.543 1082.76 492.992L1090.26 499.608C1097.68 491.19 1103.37 481.544 1107.31 470.709L1097.91 467.291ZM1082.68 499.521C1096.89 516.387 1103.91 535.323 1103.91 556.5H1113.91C1113.91 532.877 1105.99 511.68 1090.33 493.079L1082.68 499.521ZM1103.91 556.5C1103.91 568.892 1101.48 580.31 1096.66 590.817L1105.75 594.983C1111.2 583.09 1113.91 570.241 1113.91 556.5H1103.91ZM1096.59 590.977C1092.17 601.587 1086 610.836 1078.07 618.764L1085.14 625.836C1094.01 616.964 1100.91 606.613 1105.82 594.823L1096.59 590.977ZM1078.07 618.764C1070.18 626.658 1060.72 632.828 1049.65 637.258L1053.36 646.542C1065.62 641.639 1076.24 634.742 1085.14 625.836L1078.07 618.764ZM1049.58 637.285C1039.04 641.678 1027.56 643.9 1015.11 643.9V653.9C1028.78 653.9 1041.57 651.455 1053.43 646.515L1049.58 637.285ZM1015.11 643.9H590.907V653.9H1015.11V643.9ZM590.907 643.9C582.884 643.9 576.227 641.149 570.642 635.564L563.571 642.636C571.053 650.117 580.262 653.9 590.907 653.9V643.9ZM570.642 635.564C565.057 629.979 562.307 623.322 562.307 615.3H552.307C552.307 625.944 556.089 635.154 563.571 642.636L570.642 635.564ZM562.307 615.3C562.307 607.278 565.057 600.621 570.642 595.036L563.571 587.964C556.089 595.446 552.307 604.656 552.307 615.3H562.307ZM570.642 595.036C576.227 589.451 582.884 586.7 590.907 586.7V576.7C580.262 576.7 571.053 580.483 563.571 587.964L570.642 595.036ZM590.907 586.7H1018.61V576.7H590.907V586.7ZM1018.61 586.7C1026.84 586.7 1034.11 583.911 1040.17 578.4L1033.44 571C1029.24 574.822 1024.38 576.7 1018.61 576.7V586.7ZM1040.34 578.236C1046.37 572.203 1049.51 564.88 1049.51 556.5H1039.51C1039.51 562.12 1037.51 566.93 1033.27 571.164L1040.34 578.236ZM1049.51 556.5C1049.51 547.75 1046.44 540.165 1040.34 534.064L1033.27 541.136C1037.44 545.302 1039.51 550.317 1039.51 556.5H1049.51ZM1040.34 534.064C1034.31 528.032 1026.99 524.9 1018.61 524.9V534.9C1024.23 534.9 1029.04 536.901 1033.27 541.135L1040.34 534.064ZM1018.61 524.9H670.707V534.9H1018.61V524.9ZM670.707 524.9C662.684 524.9 656.027 522.149 650.442 516.564L643.371 523.636C650.853 531.117 660.062 534.9 670.707 534.9V524.9ZM650.442 516.564C644.857 510.979 642.107 504.322 642.107 496.3H632.107C632.107 506.944 635.889 516.154 643.371 523.636L650.442 516.564Z" fill="#29FF7F" fill-opacity="0.1" mask="url(#path-1-outside-1_134_1447)"/>
<path d="M111.697 432.44H62.1973C60.5173 432.44 58.9273 432.14 57.4273 431.54C55.9273 430.88 54.6073 430.01 53.4673 428.93C52.3273 427.85 51.4273 426.59 50.7673 425.15C50.1073 423.71 49.7773 422.15 49.7773 420.47V416.24C49.7773 415.04 50.1973 414.02 51.0373 413.18C51.8773 412.34 52.8973 411.92 54.0973 411.92C55.2973 411.92 56.3173 412.34 57.1573 413.18C57.9973 414.02 58.4173 415.04 58.4173 416.24V420.47C58.4173 421.43 58.7473 422.24 59.4073 422.9C60.1273 423.5 60.9373 423.8 61.8373 423.8H111.697V416.24C111.697 415.04 112.117 414.02 112.957 413.18C113.797 412.34 114.817 411.92 116.017 411.92C117.217 411.92 118.237 412.34 119.077 413.18C119.917 414.02 120.337 415.04 120.337 416.24V432.8C120.337 433.1 120.307 433.4 120.247 433.7C120.067 435.38 119.707 437.06 119.167 438.74C118.387 441.02 117.277 443.09 115.837 444.95C114.337 446.87 112.537 448.43 110.437 449.63C108.337 450.83 105.997 451.43 103.417 451.43H62.7373C60.6973 451.43 58.7473 451.01 56.8873 450.17C55.0873 449.33 53.4973 448.19 52.1173 446.75C50.7373 445.37 49.6573 443.78 48.8773 441.98C48.2773 439.16 48.4273 437.33 49.3273 436.49C50.1673 435.65 51.1573 435.23 52.2973 435.23C53.4973 435.23 54.5173 435.65 55.3573 436.49C56.1973 437.33 56.7673 438.38 57.0673 439.64C57.3673 440.84 58.9273 441.71 61.7473 442.25C62.8873 442.61 64.0873 442.79 65.3473 442.79H101.617C103.597 442.79 105.217 442.46 106.477 441.8C107.797 441.14 108.847 440.3 109.627 439.28C110.347 438.26 110.857 437.15 111.157 435.95C111.517 434.75 111.697 433.61 111.697 432.53V432.44ZM199.788 447.11C199.788 448.31 199.368 449.33 198.528 450.17C197.688 451.01 196.668 451.43 195.468 451.43C194.268 451.43 193.248 451.01 192.408 450.17C191.568 449.33 191.148 448.31 191.148 447.11V436.13H137.958V447.11C137.958 448.31 137.538 449.33 136.698 450.17C135.858 451.01 134.838 451.43 133.638 451.43C132.438 451.43 131.418 451.01 130.578 450.17C129.738 449.33 129.318 448.31 129.318 447.11V416.51C129.318 415.31 129.738 414.29 130.578 413.45C131.418 412.61 132.438 412.19 133.638 412.19C134.838 412.19 135.858 412.61 136.698 413.45C137.538 414.29 137.958 415.31 137.958 416.51V427.49H191.148V416.51C191.148 415.31 191.568 414.29 192.408 413.45C193.248 412.61 194.268 412.19 195.468 412.19C196.668 412.19 197.688 412.61 198.528 413.45C199.368 414.29 199.788 415.31 199.788 416.51V447.11ZM217.411 434.24C217.411 436.4 217.531 438.05 217.771 439.19C218.011 440.33 218.581 440.9 219.481 440.9C219.961 440.9 220.561 440.72 221.281 440.36C222.061 439.94 223.021 439.4 224.161 438.74L265.381 413.54C266.041 413.12 266.761 412.79 267.541 412.55C268.381 412.31 269.221 412.19 270.061 412.19C272.521 412.19 274.561 413.03 276.181 414.71C277.861 416.39 278.701 418.46 278.701 420.92V447.11C278.701 448.31 278.281 449.33 277.441 450.17C276.601 451.01 275.581 451.43 274.381 451.43C273.181 451.43 272.161 451.01 271.321 450.17C270.481 449.33 270.061 448.31 270.061 447.11V429.38C270.061 427.22 269.941 425.57 269.701 424.43C269.461 423.29 268.891 422.72 267.991 422.72C267.511 422.72 266.881 422.93 266.101 423.35C265.381 423.71 264.451 424.22 263.311 424.88L222.091 450.08C221.431 450.5 220.681 450.83 219.841 451.07C219.061 451.31 218.251 451.43 217.411 451.43C214.951 451.43 212.881 450.59 211.201 448.91C209.581 447.23 208.771 445.16 208.771 442.7V416.51C208.771 415.31 209.191 414.29 210.031 413.45C210.871 412.61 211.891 412.19 213.091 412.19C214.291 412.19 215.311 412.61 216.151 413.45C216.991 414.29 217.411 415.31 217.411 416.51V434.24ZM296.247 427.49H317.037C320.157 427.49 323.217 427.1 326.217 426.32C329.217 425.48 332.127 424.4 334.947 423.08C337.827 421.76 340.557 420.26 343.137 418.58C345.777 416.9 348.297 415.19 350.697 413.45C351.717 412.61 352.737 412.19 353.757 412.19C354.957 412.19 355.977 412.61 356.817 413.45C357.657 414.29 358.077 415.31 358.077 416.51C358.077 417.35 357.837 418.1 357.357 418.76C356.877 419.36 356.307 419.9 355.647 420.38C354.087 421.58 352.587 422.72 351.147 423.8C349.707 424.82 348.267 425.78 346.827 426.68C345.387 427.58 343.887 428.45 342.327 429.29C340.827 430.13 339.207 430.97 337.467 431.81C339.207 432.65 340.827 433.49 342.327 434.33C343.887 435.17 345.387 436.04 346.827 436.94C348.267 437.84 349.707 438.83 351.147 439.91C352.587 440.93 354.087 442.04 355.647 443.24C356.307 443.72 356.877 444.29 357.357 444.95C357.837 445.55 358.077 446.27 358.077 447.11C358.077 448.31 357.657 449.33 356.817 450.17C355.977 451.01 354.957 451.43 353.757 451.43C352.737 451.43 351.717 451.01 350.697 450.17C348.237 448.37 345.687 446.63 343.047 444.95C340.467 443.27 337.767 441.77 334.947 440.45C332.127 439.13 329.217 438.08 326.217 437.3C323.217 436.52 320.157 436.13 317.037 436.13H296.247V447.11C296.247 448.31 295.827 449.33 294.987 450.17C294.147 451.01 293.157 451.43 292.017 451.43C290.817 451.43 289.797 451.01 288.957 450.17C288.117 449.33 287.697 448.31 287.697 447.11V416.51C287.697 415.31 288.117 414.29 288.957 413.45C289.797 412.61 290.787 412.19 291.927 412.19C293.127 412.19 294.147 412.61 294.987 413.45C295.827 414.29 296.247 415.31 296.247 416.51V427.49ZM386.503 434.15H412.063L402.793 421.73C402.373 421.25 401.833 420.74 401.173 420.2C400.573 419.6 399.943 419.3 399.283 419.3C398.623 419.3 397.963 419.6 397.303 420.2C396.703 420.74 396.223 421.25 395.863 421.73L386.503 434.15ZM418.543 442.79H379.933L374.713 449.81C373.813 450.89 372.703 451.43 371.383 451.43C370.183 451.43 369.163 451.01 368.323 450.17C367.483 449.33 367.063 448.31 367.063 447.11C367.063 446.03 367.363 445.16 367.963 444.5L389.833 415.07C390.853 413.69 392.203 412.58 393.883 411.74C395.563 410.84 397.363 410.39 399.283 410.39C401.083 410.39 402.793 410.78 404.413 411.56C406.033 412.34 407.353 413.42 408.373 414.8L430.243 444.05C430.603 444.47 430.903 444.95 431.143 445.49C431.383 445.97 431.503 446.51 431.503 447.11C431.503 448.31 431.083 449.33 430.243 450.17C429.403 451.01 428.383 451.43 427.183 451.43C425.743 451.43 424.603 450.86 423.763 449.72L418.543 442.79ZM448.189 449.81C447.289 450.89 446.179 451.43 444.859 451.43C443.659 451.43 442.639 451.01 441.799 450.17C440.959 449.33 440.539 448.31 440.539 447.11C440.539 446.03 440.839 445.16 441.439 444.5L463.309 415.07C464.329 413.69 465.679 412.58 467.359 411.74C469.039 410.84 470.839 410.39 472.759 410.39C474.559 410.39 476.269 410.78 477.889 411.56C479.509 412.34 480.829 413.42 481.849 414.8L503.719 444.05C504.079 444.47 504.379 444.95 504.619 445.49C504.859 445.97 504.979 446.51 504.979 447.11C504.979 448.31 504.559 449.33 503.719 450.17C502.879 451.01 501.859 451.43 500.659 451.43C499.219 451.43 498.079 450.86 497.239 449.72L476.269 421.73C475.849 421.25 475.309 420.74 474.649 420.2C474.049 419.6 473.419 419.3 472.759 419.3C472.099 419.3 471.439 419.6 470.779 420.2C470.179 420.74 469.699 421.25 469.339 421.73L448.189 449.81ZM572.606 442.79C573.506 442.79 574.286 442.46 574.946 441.8C575.666 441.14 576.026 440.36 576.026 439.46C576.026 438.5 575.666 437.72 574.946 437.12C574.286 436.46 573.506 436.13 572.606 436.13H522.656V442.79H572.606ZM518.336 451.43C517.136 451.43 516.116 451.01 515.276 450.17C514.436 449.33 514.016 448.31 514.016 447.11V416.51C514.016 415.31 514.436 414.29 515.276 413.45C516.116 412.61 517.136 412.19 518.336 412.19C519.476 412.19 520.466 412.61 521.306 413.45C522.206 414.29 522.656 415.31 522.656 416.51V427.49H572.246C573.926 427.49 575.486 427.82 576.926 428.48C578.426 429.08 579.716 429.92 580.796 431C581.936 432.08 582.806 433.34 583.406 434.78C584.066 436.22 584.396 437.78 584.396 439.46C584.396 441.14 584.066 442.7 583.406 444.14C582.806 445.58 581.936 446.84 580.796 447.92C579.716 449 578.426 449.87 576.926 450.53C575.486 451.13 573.926 451.43 572.246 451.43H518.336ZM663.851 447.11C663.851 448.31 663.431 449.33 662.591 450.17C661.751 451.01 660.731 451.43 659.531 451.43C658.331 451.43 657.311 451.01 656.471 450.17C655.631 449.33 655.211 448.31 655.211 447.11V436.13H602.021V447.11C602.021 448.31 601.601 449.33 600.761 450.17C599.921 451.01 598.901 451.43 597.701 451.43C596.501 451.43 595.481 451.01 594.641 450.17C593.801 449.33 593.381 448.31 593.381 447.11V416.51C593.381 415.31 593.801 414.29 594.641 413.45C595.481 412.61 596.501 412.19 597.701 412.19C598.901 412.19 599.921 412.61 600.761 413.45C601.601 414.29 602.021 415.31 602.021 416.51V427.49H655.211V416.51C655.211 415.31 655.631 414.29 656.471 413.45C657.311 412.61 658.331 412.19 659.531 412.19C660.731 412.19 661.751 412.61 662.591 413.45C663.431 414.29 663.851 415.31 663.851 416.51V447.11ZM692.274 434.15H717.834L708.564 421.73C708.144 421.25 707.604 420.74 706.944 420.2C706.344 419.6 705.714 419.3 705.054 419.3C704.394 419.3 703.734 419.6 703.074 420.2C702.474 420.74 701.994 421.25 701.634 421.73L692.274 434.15ZM724.314 442.79H685.704L680.484 449.81C679.584 450.89 678.474 451.43 677.154 451.43C675.954 451.43 674.934 451.01 674.094 450.17C673.254 449.33 672.834 448.31 672.834 447.11C672.834 446.03 673.134 445.16 673.734 444.5L695.604 415.07C696.624 413.69 697.974 412.58 699.654 411.74C701.334 410.84 703.134 410.39 705.054 410.39C706.854 410.39 708.564 410.78 710.184 411.56C711.804 412.34 713.124 413.42 714.144 414.8L736.014 444.05C736.374 444.47 736.674 444.95 736.914 445.49C737.154 445.97 737.274 446.51 737.274 447.11C737.274 448.31 736.854 449.33 736.014 450.17C735.174 451.01 734.154 451.43 732.954 451.43C731.514 451.43 730.374 450.86 729.534 449.72L724.314 442.79ZM746.311 447.11C746.311 446.27 746.611 445.46 747.211 444.68C749.371 441.5 751.801 438.83 754.501 436.67C757.261 434.45 760.351 432.68 763.771 431.36C767.251 429.98 771.121 428.99 775.381 428.39C779.641 427.79 784.411 427.49 789.691 427.49H808.051V422.81C807.931 422.27 807.631 421.82 807.151 421.46C806.671 421.04 806.041 420.83 805.261 420.83H758.101C757.261 420.95 756.511 421.31 755.851 421.91C755.251 422.51 754.951 423.26 754.951 424.16C754.951 425.36 754.531 426.38 753.691 427.22C752.851 428.06 751.831 428.48 750.631 428.48C749.431 428.48 748.411 428.06 747.571 427.22C746.731 426.38 746.311 425.36 746.311 424.16C746.311 422.48 746.641 420.92 747.301 419.48C747.961 418.04 748.861 416.78 750.001 415.7C751.141 414.62 752.461 413.78 753.961 413.18C755.461 412.52 757.051 412.19 758.731 412.19H805.711C807.031 412.19 808.351 412.49 809.671 413.09C810.991 413.63 812.161 414.41 813.181 415.43C814.201 416.45 815.041 417.68 815.701 419.12C816.361 420.56 816.691 422.18 816.691 423.98V447.11C816.691 448.31 816.271 449.33 815.431 450.17C814.591 451.01 813.571 451.43 812.371 451.43C811.231 451.43 810.211 451.01 809.311 450.17C808.471 449.33 808.051 448.31 808.051 447.11V436.13H789.691C786.031 436.13 782.581 436.25 779.341 436.49C776.161 436.67 773.131 437.21 770.251 438.11C767.371 439.01 764.611 440.33 761.971 442.07C759.391 443.81 756.871 446.21 754.411 449.27C754.231 449.51 753.961 449.81 753.601 450.17C753.181 450.53 752.731 450.83 752.251 451.07C751.771 451.31 751.231 451.43 750.631 451.43C749.431 451.43 748.411 451.01 747.571 450.17C746.731 449.33 746.311 448.31 746.311 447.11ZM942.153 447.11C942.153 448.31 941.733 449.33 940.893 450.17C940.053 451.01 939.033 451.43 937.833 451.43C936.633 451.43 935.613 451.01 934.773 450.17C933.933 449.33 933.513 448.31 933.513 447.11V427.49C933.513 425.03 933.363 423.8 933.063 423.8C932.823 423.8 931.983 424.61 930.543 426.23L910.743 448.73C909.963 449.63 909.003 450.32 907.863 450.8C906.723 451.22 905.493 451.43 904.173 451.43C902.853 451.43 901.623 451.22 900.483 450.8C899.343 450.32 898.383 449.63 897.603 448.73L877.803 426.23C876.423 424.61 875.583 423.8 875.283 423.8C874.983 423.8 874.833 425.03 874.833 427.49V447.11C874.833 448.31 874.413 449.33 873.573 450.17C872.733 451.01 871.713 451.43 870.513 451.43C869.313 451.43 868.293 451.01 867.453 450.17C866.613 449.33 866.193 448.31 866.193 447.11V420.83C866.193 418.43 866.883 416.39 868.263 414.71C869.643 413.03 871.533 412.19 873.933 412.19C875.373 412.19 876.663 412.55 877.803 413.27C878.943 413.99 879.993 414.86 880.953 415.88L901.653 439.46C901.953 439.76 902.313 440.09 902.733 440.45C903.213 440.75 903.693 440.9 904.173 440.9C904.653 440.9 905.103 440.75 905.523 440.45C906.003 440.09 906.393 439.76 906.693 439.46L927.303 415.88H927.393C928.233 414.74 929.253 413.84 930.453 413.18C931.653 412.52 932.973 412.19 934.413 412.19C936.813 412.19 938.703 413.03 940.083 414.71C941.463 416.39 942.153 418.43 942.153 420.83V447.11ZM951.184 416.51C951.184 415.31 951.604 414.29 952.444 413.45C953.284 412.61 954.304 412.19 955.504 412.19H1019.31C1020.51 412.19 1021.53 412.61 1022.37 413.45C1023.21 414.29 1023.63 415.31 1023.63 416.51C1023.63 417.71 1023.21 418.73 1022.37 419.57C1021.53 420.41 1020.51 420.83 1019.31 420.83H955.504C954.304 420.83 953.284 420.41 952.444 419.57C951.604 418.73 951.184 417.71 951.184 416.51ZM962.164 451.43C960.844 451.43 959.524 451.16 958.204 450.62C956.884 450.02 955.714 449.21 954.694 448.19C953.674 447.17 952.834 445.94 952.174 444.5C951.514 443.06 951.184 441.44 951.184 439.64V431.54C951.184 429.92 951.634 428.84 952.534 428.3C953.494 427.76 954.964 427.49 956.944 427.49H1017.33C1018.53 427.49 1019.55 427.91 1020.39 428.75C1021.23 429.59 1021.65 430.61 1021.65 431.81C1021.65 433.01 1021.23 434.03 1020.39 434.87C1019.55 435.71 1018.53 436.13 1017.33 436.13H959.824V440.54C959.824 441.14 960.064 441.68 960.544 442.16C961.084 442.58 961.774 442.79 962.614 442.79H1019.31C1020.51 442.79 1021.53 443.21 1022.37 444.05C1023.21 444.89 1023.63 445.91 1023.63 447.11C1023.63 448.31 1023.21 449.33 1022.37 450.17C1021.53 451.01 1020.51 451.43 1019.31 451.43H962.164ZM1098.9 412.19C1100.1 412.19 1101.12 412.61 1101.96 413.45C1102.8 414.29 1103.22 415.31 1103.22 416.51C1103.22 417.65 1102.83 418.64 1102.05 419.48C1101.27 420.26 1100.34 420.71 1099.26 420.83H1081.17C1079.37 420.95 1077.87 421.4 1076.67 422.18C1075.53 422.9 1074.63 423.8 1073.97 424.88C1073.31 425.96 1072.86 427.13 1072.62 428.39C1072.38 429.65 1072.26 430.79 1072.26 431.81V447.11C1072.26 448.31 1071.84 449.33 1071 450.17C1070.16 451.01 1069.14 451.43 1067.94 451.43C1066.74 451.43 1065.72 451.01 1064.88 450.17C1064.04 449.33 1063.62 448.31 1063.62 447.11V431.81C1063.62 429.95 1063.86 428.09 1064.34 426.23C1064.82 424.31 1065.54 422.51 1066.5 420.83H1036.98C1035.78 420.83 1034.76 420.41 1033.92 419.57C1033.08 418.73 1032.66 417.71 1032.66 416.51C1032.66 415.31 1033.08 414.29 1033.92 413.45C1034.76 412.61 1035.78 412.19 1036.98 412.19H1098.9ZM1167.01 442.79C1169.05 442.79 1170.73 442.43 1172.05 441.71C1173.37 440.93 1174.39 440 1175.11 438.92C1175.89 437.84 1176.4 436.67 1176.64 435.41C1176.94 434.09 1177.09 432.89 1177.09 431.81C1177.09 430.73 1176.94 429.56 1176.64 428.3C1176.4 426.98 1175.89 425.78 1175.11 424.7C1174.39 423.62 1173.37 422.72 1172.05 422C1170.73 421.22 1169.05 420.83 1167.01 420.83H1130.65C1128.55 420.83 1126.84 421.22 1125.52 422C1124.26 422.72 1123.24 423.62 1122.46 424.7C1121.74 425.78 1121.23 426.98 1120.93 428.3C1120.69 429.56 1120.57 430.73 1120.57 431.81C1120.57 432.89 1120.69 434.09 1120.93 435.41C1121.23 436.67 1121.74 437.84 1122.46 438.92C1123.24 440 1124.26 440.93 1125.52 441.71C1126.84 442.43 1128.55 442.79 1130.65 442.79H1167.01ZM1185.46 431.81C1185.46 434.09 1185.07 436.4 1184.29 438.74C1183.57 441.02 1182.49 443.12 1181.05 445.04C1179.61 446.9 1177.87 448.43 1175.83 449.63C1173.79 450.83 1171.48 451.43 1168.9 451.43H1127.86C1125.4 451.31 1123.21 450.65 1121.29 449.45C1119.37 448.19 1117.72 446.63 1116.34 444.77C1115.02 442.91 1114 440.84 1113.28 438.56C1112.56 436.28 1112.2 434.03 1112.2 431.81C1112.2 429.53 1112.56 427.25 1113.28 424.97C1114.06 422.63 1115.17 420.53 1116.61 418.67C1118.05 416.75 1119.79 415.19 1121.83 413.99C1123.87 412.79 1126.18 412.19 1128.76 412.19H1169.8C1172.26 412.31 1174.45 413 1176.37 414.26C1178.29 415.46 1179.91 416.99 1181.23 418.85C1182.61 420.71 1183.66 422.78 1184.38 425.06C1185.1 427.34 1185.46 429.59 1185.46 431.81ZM1229.02 447.92C1229.02 446.36 1229.56 445.04 1230.64 443.96C1231.72 442.88 1233.04 442.34 1234.6 442.34C1236.16 442.34 1237.48 442.88 1238.56 443.96C1239.64 445.04 1240.18 446.36 1240.18 447.92C1240.18 449.48 1239.64 450.8 1238.56 451.88C1237.48 452.96 1236.16 453.5 1234.6 453.5C1233.04 453.5 1231.72 452.96 1230.64 451.88C1229.56 450.8 1229.02 449.48 1229.02 447.92ZM1215.07 444.86H1217.32C1218.52 444.86 1219.54 445.28 1220.38 446.12C1221.22 446.96 1221.64 447.98 1221.64 449.18C1221.64 450.38 1221.22 451.4 1220.38 452.24C1219.54 453.08 1218.52 453.5 1217.32 453.5H1198.15C1197.07 453.38 1196.14 452.93 1195.36 452.15C1194.58 451.31 1194.19 450.32 1194.19 449.18C1194.19 447.98 1194.61 446.96 1195.45 446.12C1196.29 445.28 1197.31 444.86 1198.51 444.86H1204.36L1225.51 416.6C1226.59 415.22 1227.91 414.14 1229.47 413.36C1231.09 412.58 1232.8 412.19 1234.6 412.19C1236.52 412.19 1238.29 412.64 1239.91 413.54C1241.59 414.38 1242.97 415.49 1244.05 416.87L1264.84 444.86H1270.24C1271.44 444.86 1272.46 445.28 1273.3 446.12C1274.14 446.96 1274.56 447.98 1274.56 449.18C1274.56 450.38 1274.14 451.4 1273.3 452.24C1272.46 453.08 1271.44 453.5 1270.24 453.5H1251.07C1249.99 453.38 1249.06 452.93 1248.28 452.15C1247.5 451.31 1247.11 450.32 1247.11 449.18C1247.11 447.98 1247.53 446.96 1248.37 446.12C1249.21 445.28 1250.23 444.86 1251.43 444.86H1254.13L1238.02 423.53C1237.66 423.05 1237.15 422.54 1236.49 422C1235.89 421.4 1235.26 421.1 1234.6 421.1C1233.94 421.1 1233.28 421.4 1232.62 422C1232.02 422.54 1231.51 423.05 1231.09 423.53L1215.07 444.86ZM1290.82 434.24C1290.82 436.4 1290.94 438.05 1291.18 439.19C1291.42 440.33 1291.99 440.9 1292.89 440.9C1293.37 440.9 1293.97 440.72 1294.69 440.36C1295.47 439.94 1296.43 439.4 1297.57 438.74L1338.79 413.54C1339.45 413.12 1340.17 412.79 1340.95 412.55C1341.79 412.31 1342.63 412.19 1343.47 412.19C1345.93 412.19 1347.97 413.03 1349.59 414.71C1351.27 416.39 1352.11 418.46 1352.11 420.92V447.11C1352.11 448.31 1351.69 449.33 1350.85 450.17C1350.01 451.01 1348.99 451.43 1347.79 451.43C1346.59 451.43 1345.57 451.01 1344.73 450.17C1343.89 449.33 1343.47 448.31 1343.47 447.11V429.38C1343.47 427.22 1343.35 425.57 1343.11 424.43C1342.87 423.29 1342.3 422.72 1341.4 422.72C1340.92 422.72 1340.29 422.93 1339.51 423.35C1338.79 423.71 1337.86 424.22 1336.72 424.88L1295.5 450.08C1294.84 450.5 1294.09 450.83 1293.25 451.07C1292.47 451.31 1291.66 451.43 1290.82 451.43C1288.36 451.43 1286.29 450.59 1284.61 448.91C1282.99 447.23 1282.18 445.16 1282.18 442.7V416.51C1282.18 415.31 1282.6 414.29 1283.44 413.45C1284.28 412.61 1285.3 412.19 1286.5 412.19C1287.7 412.19 1288.72 412.61 1289.56 413.45C1290.4 414.29 1290.82 415.31 1290.82 416.51V434.24ZM1369.66 427.49H1390.45C1393.57 427.49 1396.63 427.1 1399.63 426.32C1402.63 425.48 1405.54 424.4 1408.36 423.08C1411.24 421.76 1413.97 420.26 1416.55 418.58C1419.19 416.9 1421.71 415.19 1424.11 413.45C1425.13 412.61 1426.15 412.19 1427.17 412.19C1428.37 412.19 1429.39 412.61 1430.23 413.45C1431.07 414.29 1431.49 415.31 1431.49 416.51C1431.49 417.35 1431.25 418.1 1430.77 418.76C1430.29 419.36 1429.72 419.9 1429.06 420.38C1427.5 421.58 1426 422.72 1424.56 423.8C1423.12 424.82 1421.68 425.78 1420.24 426.68C1418.8 427.58 1417.3 428.45 1415.74 429.29C1414.24 430.13 1412.62 430.97 1410.88 431.81C1412.62 432.65 1414.24 433.49 1415.74 434.33C1417.3 435.17 1418.8 436.04 1420.24 436.94C1421.68 437.84 1423.12 438.83 1424.56 439.91C1426 440.93 1427.5 442.04 1429.06 443.24C1429.72 443.72 1430.29 444.29 1430.77 444.95C1431.25 445.55 1431.49 446.27 1431.49 447.11C1431.49 448.31 1431.07 449.33 1430.23 450.17C1429.39 451.01 1428.37 451.43 1427.17 451.43C1426.15 451.43 1425.13 451.01 1424.11 450.17C1421.65 448.37 1419.1 446.63 1416.46 444.95C1413.88 443.27 1411.18 441.77 1408.36 440.45C1405.54 439.13 1402.63 438.08 1399.63 437.3C1396.63 436.52 1393.57 436.13 1390.45 436.13H1369.66V447.11C1369.66 448.31 1369.24 449.33 1368.4 450.17C1367.56 451.01 1366.57 451.43 1365.43 451.43C1364.23 451.43 1363.21 451.01 1362.37 450.17C1361.53 449.33 1361.11 448.31 1361.11 447.11V416.51C1361.11 415.31 1361.53 414.29 1362.37 413.45C1363.21 412.61 1364.2 412.19 1365.34 412.19C1366.54 412.19 1367.56 412.61 1368.4 413.45C1369.24 414.29 1369.66 415.31 1369.66 416.51V427.49ZM1459.91 434.15H1485.47L1476.2 421.73C1475.78 421.25 1475.24 420.74 1474.58 420.2C1473.98 419.6 1473.35 419.3 1472.69 419.3C1472.03 419.3 1471.37 419.6 1470.71 420.2C1470.11 420.74 1469.63 421.25 1469.27 421.73L1459.91 434.15ZM1491.95 442.79H1453.34L1448.12 449.81C1447.22 450.89 1446.11 451.43 1444.79 451.43C1443.59 451.43 1442.57 451.01 1441.73 450.17C1440.89 449.33 1440.47 448.31 1440.47 447.11C1440.47 446.03 1440.77 445.16 1441.37 444.5L1463.24 415.07C1464.26 413.69 1465.61 412.58 1467.29 411.74C1468.97 410.84 1470.77 410.39 1472.69 410.39C1474.49 410.39 1476.2 410.78 1477.82 411.56C1479.44 412.34 1480.76 413.42 1481.78 414.8L1503.65 444.05C1504.01 444.47 1504.31 444.95 1504.55 445.49C1504.79 445.97 1504.91 446.51 1504.91 447.11C1504.91 448.31 1504.49 449.33 1503.65 450.17C1502.81 451.01 1501.79 451.43 1500.59 451.43C1499.15 451.43 1498.01 450.86 1497.17 449.72L1491.95 442.79Z" fill="white"/>
<path d="M794.622 564.81C794.622 563.73 794.472 562.56 794.172 561.3C793.932 559.98 793.422 558.78 792.642 557.7C791.922 556.62 790.902 555.72 789.582 555C788.262 554.22 786.582 553.83 784.542 553.83H752.052C749.952 553.83 748.242 554.22 746.922 555C745.662 555.72 744.642 556.62 743.862 557.7C743.142 558.78 742.632 559.98 742.332 561.3C742.092 562.56 741.972 563.73 741.972 564.81V580.11C741.972 581.31 741.552 582.33 740.712 583.17C739.872 584.01 738.852 584.43 737.652 584.43C736.452 584.43 735.432 584.01 734.592 583.17C733.752 582.33 733.332 581.31 733.332 580.11V564.81C733.332 562.53 733.692 560.25 734.412 557.97C735.192 555.63 736.302 553.53 737.742 551.67C739.182 549.75 740.922 548.19 742.962 546.99C745.002 545.79 747.312 545.19 749.892 545.19H787.602C790.062 545.31 792.252 546 794.172 547.26C796.092 548.46 797.712 549.99 799.032 551.85C800.412 553.71 801.462 555.78 802.182 558.06C802.902 560.34 803.262 562.59 803.262 564.81V580.11C803.262 581.31 802.842 582.33 802.002 583.17C801.162 584.01 800.142 584.43 798.942 584.43C797.742 584.43 796.722 584.01 795.882 583.17C795.042 582.33 794.622 581.31 794.622 580.11V564.81ZM820.898 553.83V560.49H870.848C871.748 560.49 872.528 560.19 873.188 559.59C873.908 558.93 874.268 558.12 874.268 557.16C874.268 556.26 873.908 555.48 873.188 554.82C872.528 554.16 871.748 553.83 870.848 553.83H820.898ZM870.488 545.19C872.168 545.19 873.728 545.52 875.168 546.18C876.668 546.78 877.958 547.62 879.038 548.7C880.178 549.78 881.048 551.04 881.648 552.48C882.308 553.92 882.638 555.48 882.638 557.16C882.638 558.84 882.308 560.4 881.648 561.84C881.048 563.28 880.178 564.54 879.038 565.62C877.958 566.7 876.668 567.57 875.168 568.23C873.728 568.83 872.168 569.13 870.488 569.13H820.898V580.11C820.898 581.31 820.448 582.33 819.548 583.17C818.708 584.01 817.718 584.43 816.578 584.43C815.378 584.43 814.358 584.01 813.518 583.17C812.678 582.33 812.258 581.31 812.258 580.11V549.51C812.258 548.31 812.678 547.29 813.518 546.45C814.358 545.61 815.378 545.19 816.578 545.19H870.488ZM946.433 575.79C948.473 575.79 950.153 575.43 951.473 574.71C952.793 573.93 953.813 573 954.533 571.92C955.313 570.84 955.823 569.67 956.063 568.41C956.363 567.09 956.513 565.89 956.513 564.81C956.513 563.73 956.363 562.56 956.063 561.3C955.823 559.98 955.313 558.78 954.533 557.7C953.813 556.62 952.793 555.72 951.473 555C950.153 554.22 948.473 553.83 946.433 553.83H910.073C907.973 553.83 906.263 554.22 904.943 555C903.683 555.72 902.663 556.62 901.883 557.7C901.163 558.78 900.653 559.98 900.353 561.3C900.113 562.56 899.993 563.73 899.993 564.81C899.993 565.89 900.113 567.09 900.353 568.41C900.653 569.67 901.163 570.84 901.883 571.92C902.663 573 903.683 573.93 904.943 574.71C906.263 575.43 907.973 575.79 910.073 575.79H946.433ZM964.883 564.81C964.883 567.09 964.493 569.4 963.713 571.74C962.993 574.02 961.913 576.12 960.473 578.04C959.033 579.9 957.293 581.43 955.253 582.63C953.213 583.83 950.903 584.43 948.323 584.43H907.283C904.823 584.31 902.633 583.65 900.713 582.45C898.793 581.19 897.143 579.63 895.763 577.77C894.443 575.91 893.423 573.84 892.703 571.56C891.983 569.28 891.623 567.03 891.623 564.81C891.623 562.53 891.983 560.25 892.703 557.97C893.483 555.63 894.593 553.53 896.033 551.67C897.473 549.75 899.213 548.19 901.253 546.99C903.293 545.79 905.603 545.19 908.183 545.19H949.223C951.683 545.31 953.873 546 955.793 547.26C957.713 548.46 959.333 549.99 960.653 551.85C962.033 553.71 963.083 555.78 963.803 558.06C964.523 560.34 964.883 562.59 964.883 564.81ZM1008.45 580.92C1008.45 579.36 1008.99 578.04 1010.07 576.96C1011.15 575.88 1012.47 575.34 1014.03 575.34C1015.59 575.34 1016.91 575.88 1017.99 576.96C1019.07 578.04 1019.61 579.36 1019.61 580.92C1019.61 582.48 1019.07 583.8 1017.99 584.88C1016.91 585.96 1015.59 586.5 1014.03 586.5C1012.47 586.5 1011.15 585.96 1010.07 584.88C1008.99 583.8 1008.45 582.48 1008.45 580.92ZM994.499 577.86H996.749C997.949 577.86 998.969 578.28 999.809 579.12C1000.65 579.96 1001.07 580.98 1001.07 582.18C1001.07 583.38 1000.65 584.4 999.809 585.24C998.969 586.08 997.949 586.5 996.749 586.5H977.579C976.499 586.38 975.569 585.93 974.789 585.15C974.009 584.31 973.619 583.32 973.619 582.18C973.619 580.98 974.039 579.96 974.879 579.12C975.719 578.28 976.739 577.86 977.939 577.86H983.789L1004.94 549.6C1006.02 548.22 1007.34 547.14 1008.9 546.36C1010.52 545.58 1012.23 545.19 1014.03 545.19C1015.95 545.19 1017.72 545.64 1019.34 546.54C1021.02 547.38 1022.4 548.49 1023.48 549.87L1044.27 577.86H1049.67C1050.87 577.86 1051.89 578.28 1052.73 579.12C1053.57 579.96 1053.99 580.98 1053.99 582.18C1053.99 583.38 1053.57 584.4 1052.73 585.24C1051.89 586.08 1050.87 586.5 1049.67 586.5H1030.5C1029.42 586.38 1028.49 585.93 1027.71 585.15C1026.93 584.31 1026.54 583.32 1026.54 582.18C1026.54 580.98 1026.96 579.96 1027.8 579.12C1028.64 578.28 1029.66 577.86 1030.86 577.86H1033.56L1017.45 556.53C1017.09 556.05 1016.58 555.54 1015.92 555C1015.32 554.4 1014.69 554.1 1014.03 554.1C1013.37 554.1 1012.71 554.4 1012.05 555C1011.45 555.54 1010.94 556.05 1010.52 556.53L994.499 577.86ZM1070.24 575.79H1120.19C1121.09 575.79 1121.87 575.46 1122.53 574.8C1123.25 574.14 1123.61 573.36 1123.61 572.46C1123.61 571.5 1123.25 570.72 1122.53 570.12C1121.87 569.46 1121.09 569.13 1120.19 569.13H1070.24V575.79ZM1070.24 553.83V560.49H1120.28C1121.18 560.49 1121.96 560.19 1122.62 559.59C1123.28 558.99 1123.61 558.21 1123.61 557.25C1123.61 556.35 1123.25 555.57 1122.53 554.91C1121.87 554.19 1121.09 553.83 1120.19 553.83H1070.24ZM1065.92 584.43C1064.72 584.43 1063.7 584.01 1062.86 583.17C1062.02 582.33 1061.6 581.31 1061.6 580.11V549.51C1061.6 548.31 1062.02 547.29 1062.86 546.45C1063.7 545.61 1064.72 545.19 1065.92 545.19H1119.83C1121.51 545.19 1123.07 545.52 1124.51 546.18C1126.01 546.78 1127.3 547.62 1128.38 548.7C1129.52 549.78 1130.39 551.07 1130.99 552.57C1131.65 554.01 1131.98 555.57 1131.98 557.25C1131.98 558.75 1131.71 560.16 1131.17 561.48C1130.69 562.74 1130.03 563.88 1129.19 564.9C1130.03 565.92 1130.69 567.09 1131.17 568.41C1131.71 569.67 1131.98 571.02 1131.98 572.46C1131.98 574.14 1131.65 575.7 1130.99 577.14C1130.39 578.58 1129.52 579.84 1128.38 580.92C1127.3 582 1126.01 582.87 1124.51 583.53C1123.07 584.13 1121.51 584.43 1119.83 584.43H1065.92ZM1149.61 567.24C1149.61 569.4 1149.73 571.05 1149.97 572.19C1150.21 573.33 1150.78 573.9 1151.68 573.9C1152.16 573.9 1152.76 573.72 1153.48 573.36C1154.26 572.94 1155.22 572.4 1156.36 571.74L1197.58 546.54C1198.24 546.12 1198.96 545.79 1199.74 545.55C1200.58 545.31 1201.42 545.19 1202.26 545.19C1204.72 545.19 1206.76 546.03 1208.38 547.71C1210.06 549.39 1210.9 551.46 1210.9 553.92V580.11C1210.9 581.31 1210.48 582.33 1209.64 583.17C1208.8 584.01 1207.78 584.43 1206.58 584.43C1205.38 584.43 1204.36 584.01 1203.52 583.17C1202.68 582.33 1202.26 581.31 1202.26 580.11V562.38C1202.26 560.22 1202.14 558.57 1201.9 557.43C1201.66 556.29 1201.09 555.72 1200.19 555.72C1199.71 555.72 1199.08 555.93 1198.3 556.35C1197.58 556.71 1196.65 557.22 1195.51 557.88L1154.29 583.08C1153.63 583.5 1152.88 583.83 1152.04 584.07C1151.26 584.31 1150.45 584.43 1149.61 584.43C1147.15 584.43 1145.08 583.59 1143.4 581.91C1141.78 580.23 1140.97 578.16 1140.97 575.7V549.51C1140.97 548.31 1141.39 547.29 1142.23 546.45C1143.07 545.61 1144.09 545.19 1145.29 545.19C1146.49 545.19 1147.51 545.61 1148.35 546.45C1149.19 547.29 1149.61 548.31 1149.61 549.51V567.24ZM1287.93 584.43C1287.69 584.43 1287.48 584.43 1287.3 584.43C1287.12 584.37 1286.91 584.31 1286.67 584.25C1284.03 583.71 1281.45 582.81 1278.93 581.55C1276.41 580.29 1274.16 578.79 1272.18 577.05C1270.2 575.31 1268.61 573.39 1267.41 571.29C1266.21 569.13 1265.61 566.97 1265.61 564.81C1265.61 562.65 1266.21 560.52 1267.41 558.42C1268.61 556.32 1270.2 554.4 1272.18 552.66C1274.16 550.86 1276.41 549.33 1278.93 548.07C1281.45 546.81 1284.03 545.91 1286.67 545.37C1286.91 545.31 1287.12 545.28 1287.3 545.28C1287.48 545.22 1287.69 545.19 1287.93 545.19C1289.13 545.19 1290.15 545.61 1290.99 546.45C1291.83 547.29 1292.25 548.31 1292.25 549.51C1292.25 550.65 1291.86 551.61 1291.08 552.39C1290.3 553.11 1289.34 553.59 1288.2 553.83C1286.34 554.25 1284.57 554.85 1282.89 555.63C1281.21 556.41 1279.71 557.31 1278.39 558.33C1277.13 559.29 1276.11 560.34 1275.33 561.48C1274.61 562.56 1274.25 563.67 1274.25 564.81C1274.25 565.95 1274.61 567.09 1275.33 568.23C1276.11 569.37 1277.13 570.45 1278.39 571.47C1279.71 572.43 1281.21 573.3 1282.89 574.08C1284.57 574.86 1286.34 575.43 1288.2 575.79C1289.34 576.03 1290.3 576.54 1291.08 577.32C1291.86 578.04 1292.25 578.97 1292.25 580.11C1292.25 581.31 1291.83 582.33 1290.99 583.17C1290.15 584.01 1289.13 584.43 1287.93 584.43ZM1250.49 579.57V548.34C1250.49 546.96 1251 545.73 1252.02 544.65C1253.04 543.57 1254.3 543.03 1255.8 543.03C1257.24 543.03 1258.47 543.57 1259.49 544.65C1260.51 545.73 1261.05 546.96 1261.11 548.34L1261.02 580.02C1261.02 581.28 1260.51 582.45 1259.49 583.53C1258.47 584.61 1257.24 585.15 1255.8 585.15C1254.3 585.15 1253.04 584.61 1252.02 583.53C1251 582.45 1250.49 581.13 1250.49 579.57ZM1224.21 584.43C1223.01 584.43 1221.99 584.01 1221.15 583.17C1220.31 582.33 1219.89 581.31 1219.89 580.11C1219.89 578.97 1220.28 578.04 1221.06 577.32C1221.84 576.54 1222.8 576.03 1223.94 575.79C1225.8 575.43 1227.57 574.86 1229.25 574.08C1230.93 573.3 1232.4 572.43 1233.66 571.47C1234.98 570.45 1236 569.37 1236.72 568.23C1237.5 567.09 1237.89 565.95 1237.89 564.81C1237.89 563.67 1237.5 562.56 1236.72 561.48C1236 560.34 1234.98 559.29 1233.66 558.33C1232.4 557.31 1230.93 556.41 1229.25 555.63C1227.57 554.85 1225.8 554.25 1223.94 553.83C1222.8 553.59 1221.84 553.11 1221.06 552.39C1220.28 551.61 1219.89 550.65 1219.89 549.51C1219.89 548.31 1220.31 547.29 1221.15 546.45C1221.99 545.61 1223.01 545.19 1224.21 545.19C1224.45 545.19 1224.66 545.22 1224.84 545.28C1225.02 545.28 1225.23 545.31 1225.47 545.37C1228.11 545.91 1230.69 546.81 1233.21 548.07C1235.73 549.33 1237.98 550.86 1239.96 552.66C1241.94 554.4 1243.53 556.32 1244.73 558.42C1245.93 560.52 1246.53 562.65 1246.53 564.81C1246.53 566.97 1245.93 569.13 1244.73 571.29C1243.53 573.39 1241.94 575.31 1239.96 577.05C1237.98 578.79 1235.73 580.29 1233.21 581.55C1230.69 582.81 1228.11 583.71 1225.47 584.25C1225.23 584.31 1225.02 584.37 1224.84 584.43C1224.66 584.43 1224.45 584.43 1224.21 584.43ZM1301.28 549.51C1301.28 548.31 1301.7 547.29 1302.54 546.45C1303.38 545.61 1304.4 545.19 1305.6 545.19H1369.41C1370.61 545.19 1371.63 545.61 1372.47 546.45C1373.31 547.29 1373.73 548.31 1373.73 549.51C1373.73 550.71 1373.31 551.73 1372.47 552.57C1371.63 553.41 1370.61 553.83 1369.41 553.83H1305.6C1304.4 553.83 1303.38 553.41 1302.54 552.57C1301.7 551.73 1301.28 550.71 1301.28 549.51ZM1312.26 584.43C1310.94 584.43 1309.62 584.16 1308.3 583.62C1306.98 583.02 1305.81 582.21 1304.79 581.19C1303.77 580.17 1302.93 578.94 1302.27 577.5C1301.61 576.06 1301.28 574.44 1301.28 572.64V564.54C1301.28 562.92 1301.73 561.84 1302.63 561.3C1303.59 560.76 1305.06 560.49 1307.04 560.49H1367.43C1368.63 560.49 1369.65 560.91 1370.49 561.75C1371.33 562.59 1371.75 563.61 1371.75 564.81C1371.75 566.01 1371.33 567.03 1370.49 567.87C1369.65 568.71 1368.63 569.13 1367.43 569.13H1309.92V573.54C1309.92 574.14 1310.16 574.68 1310.64 575.16C1311.18 575.58 1311.87 575.79 1312.71 575.79H1369.41C1370.61 575.79 1371.63 576.21 1372.47 577.05C1373.31 577.89 1373.73 578.91 1373.73 580.11C1373.73 581.31 1373.31 582.33 1372.47 583.17C1371.63 584.01 1370.61 584.43 1369.41 584.43H1312.26ZM1453.23 580.11C1453.23 581.31 1452.81 582.33 1451.97 583.17C1451.13 584.01 1450.11 584.43 1448.91 584.43C1447.71 584.43 1446.69 584.01 1445.85 583.17C1445.01 582.33 1444.59 581.31 1444.59 580.11V569.13H1391.4V580.11C1391.4 581.31 1390.98 582.33 1390.14 583.17C1389.3 584.01 1388.28 584.43 1387.08 584.43C1385.88 584.43 1384.86 584.01 1384.02 583.17C1383.18 582.33 1382.76 581.31 1382.76 580.11V549.51C1382.76 548.31 1383.18 547.29 1384.02 546.45C1384.86 545.61 1385.88 545.19 1387.08 545.19C1388.28 545.19 1389.3 545.61 1390.14 546.45C1390.98 547.29 1391.4 548.31 1391.4 549.51V560.49H1444.59V549.51C1444.59 548.31 1445.01 547.29 1445.85 546.45C1446.69 545.61 1447.71 545.19 1448.91 545.19C1450.11 545.19 1451.13 545.61 1451.97 546.45C1452.81 547.29 1453.23 548.31 1453.23 549.51V580.11ZM1470.85 567.24C1470.85 569.4 1470.97 571.05 1471.21 572.19C1471.45 573.33 1472.02 573.9 1472.92 573.9C1473.4 573.9 1474 573.72 1474.72 573.36C1475.5 572.94 1476.46 572.4 1477.6 571.74L1518.82 546.54C1519.48 546.12 1520.2 545.79 1520.98 545.55C1521.82 545.31 1522.66 545.19 1523.5 545.19C1525.96 545.19 1528 546.03 1529.62 547.71C1531.3 549.39 1532.14 551.46 1532.14 553.92V580.11C1532.14 581.31 1531.72 582.33 1530.88 583.17C1530.04 584.01 1529.02 584.43 1527.82 584.43C1526.62 584.43 1525.6 584.01 1524.76 583.17C1523.92 582.33 1523.5 581.31 1523.5 580.11V562.38C1523.5 560.22 1523.38 558.57 1523.14 557.43C1522.9 556.29 1522.33 555.72 1521.43 555.72C1520.95 555.72 1520.32 555.93 1519.54 556.35C1518.82 556.71 1517.89 557.22 1516.75 557.88L1475.53 583.08C1474.87 583.5 1474.12 583.83 1473.28 584.07C1472.5 584.31 1471.69 584.43 1470.85 584.43C1468.39 584.43 1466.32 583.59 1464.64 581.91C1463.02 580.23 1462.21 578.16 1462.21 575.7V549.51C1462.21 548.31 1462.63 547.29 1463.47 546.45C1464.31 545.61 1465.33 545.19 1466.53 545.19C1467.73 545.19 1468.75 545.61 1469.59 546.45C1470.43 547.29 1470.85 548.31 1470.85 549.51V567.24ZM1541.13 580.11C1541.13 579.27 1541.43 578.46 1542.03 577.68C1544.19 574.5 1546.62 571.83 1549.32 569.67C1552.08 567.45 1555.17 565.68 1558.59 564.36C1562.07 562.98 1565.94 561.99 1570.2 561.39C1574.46 560.79 1579.23 560.49 1584.51 560.49H1602.87V555.81C1602.75 555.27 1602.45 554.82 1601.97 554.46C1601.49 554.04 1600.86 553.83 1600.08 553.83H1552.92C1552.08 553.95 1551.33 554.31 1550.67 554.91C1550.07 555.51 1549.77 556.26 1549.77 557.16C1549.77 558.36 1549.35 559.38 1548.51 560.22C1547.67 561.06 1546.65 561.48 1545.45 561.48C1544.25 561.48 1543.23 561.06 1542.39 560.22C1541.55 559.38 1541.13 558.36 1541.13 557.16C1541.13 555.48 1541.46 553.92 1542.12 552.48C1542.78 551.04 1543.68 549.78 1544.82 548.7C1545.96 547.62 1547.28 546.78 1548.78 546.18C1550.28 545.52 1551.87 545.19 1553.55 545.19H1600.53C1601.85 545.19 1603.17 545.49 1604.49 546.09C1605.81 546.63 1606.98 547.41 1608 548.43C1609.02 549.45 1609.86 550.68 1610.52 552.12C1611.18 553.56 1611.51 555.18 1611.51 556.98V580.11C1611.51 581.31 1611.09 582.33 1610.25 583.17C1609.41 584.01 1608.39 584.43 1607.19 584.43C1606.05 584.43 1605.03 584.01 1604.13 583.17C1603.29 582.33 1602.87 581.31 1602.87 580.11V569.13H1584.51C1580.85 569.13 1577.4 569.25 1574.16 569.49C1570.98 569.67 1567.95 570.21 1565.07 571.11C1562.19 572.01 1559.43 573.33 1556.79 575.07C1554.21 576.81 1551.69 579.21 1549.23 582.27C1549.05 582.51 1548.78 582.81 1548.42 583.17C1548 583.53 1547.55 583.83 1547.07 584.07C1546.59 584.31 1546.05 584.43 1545.45 584.43C1544.25 584.43 1543.23 584.01 1542.39 583.17C1541.55 582.33 1541.13 581.31 1541.13 580.11Z" fill="white"/>
<path d="M51.566 372V359.22H55.976C57.092 359.22 58.004 359.562 58.712 360.246C59.432 360.93 59.792 361.764 59.792 362.748C59.792 363.804 59.396 364.626 58.604 365.214C59.972 365.778 60.656 366.792 60.656 368.256C60.656 369.324 60.266 370.218 59.486 370.938C58.718 371.646 57.734 372 56.534 372H51.566ZM53.672 370.074H56.48C57.152 370.074 57.674 369.906 58.046 369.57C58.418 369.234 58.604 368.79 58.604 368.238C58.604 367.698 58.418 367.26 58.046 366.924C57.674 366.576 57.152 366.402 56.48 366.402H53.672V370.074ZM53.672 364.602H55.868C56.432 364.602 56.882 364.44 57.218 364.116C57.554 363.792 57.722 363.378 57.722 362.874C57.722 362.394 57.554 361.986 57.218 361.65C56.882 361.314 56.432 361.146 55.868 361.146H53.672V364.602ZM71.1307 372V363H73.1107V372H71.1307ZM62.6347 372V363H64.6147V365.97H66.5047C67.5967 365.97 68.4187 366.276 68.9707 366.888C69.5347 367.488 69.8167 368.178 69.8167 368.958C69.8167 369.75 69.5347 370.458 68.9707 371.082C68.4187 371.694 67.5967 372 66.5047 372H62.6347ZM64.6147 367.716V370.254H66.3427C66.8467 370.254 67.2307 370.146 67.4947 369.93C67.7707 369.702 67.9087 369.384 67.9087 368.976C67.9087 368.136 67.3867 367.716 66.3427 367.716H64.6147ZM75.7832 372V363H79.8872C80.9192 363 81.7112 363.246 82.2632 363.738C82.8152 364.23 83.0912 364.842 83.0912 365.574C83.0912 366.21 82.8452 366.756 82.3532 367.212C83.2292 367.68 83.6672 368.388 83.6672 369.336C83.6672 370.092 83.3972 370.728 82.8572 371.244C82.3172 371.748 81.5012 372 80.4092 372H75.7832ZM77.7632 370.326H80.3912C80.7872 370.326 81.0992 370.23 81.3272 370.038C81.5672 369.834 81.6872 369.558 81.6872 369.21C81.6872 368.85 81.5672 368.574 81.3272 368.382C81.0992 368.178 80.7872 368.076 80.3912 368.076H77.7632V370.326ZM77.7632 366.636H79.9592C80.2832 366.636 80.5532 366.558 80.7692 366.402C80.9972 366.234 81.1112 365.97 81.1112 365.61C81.1112 364.938 80.7272 364.602 79.9592 364.602H77.7632V366.636ZM89.6577 372.18C88.3137 372.18 87.2097 371.742 86.3457 370.866C85.4817 369.978 85.0497 368.856 85.0497 367.5C85.0497 366.144 85.4757 365.028 86.3277 364.152C87.1797 363.264 88.2957 362.82 89.6757 362.82C91.0677 362.82 92.1897 363.306 93.0417 364.278C93.8937 365.238 94.2717 366.474 94.1757 367.986H87.0117C87.0357 368.682 87.2997 369.264 87.8037 369.732C88.3077 370.2 88.9497 370.434 89.7297 370.434C90.8337 370.434 91.5897 370.014 91.9977 369.174H94.0677C93.7917 370.05 93.2637 370.77 92.4837 371.334C91.7037 371.898 90.7617 372.18 89.6577 372.18ZM89.6217 364.476C88.9737 364.476 88.4157 364.662 87.9477 365.034C87.4917 365.394 87.1977 365.91 87.0657 366.582H92.0517C91.9077 365.886 91.6137 365.364 91.1697 365.016C90.7257 364.656 90.2097 364.476 89.6217 364.476ZM95.3119 370.236H95.5459C96.3979 370.236 96.8239 369.354 96.8239 367.59V363H104.24V370.236H105.644V374.25H103.844V372H97.1299V374.25H95.3119V370.236ZM98.8039 364.764V367.788C98.8039 368.88 98.6299 369.696 98.2819 370.236H102.26V364.764H98.8039ZM111.367 372.18C110.023 372.18 108.919 371.742 108.055 370.866C107.191 369.978 106.759 368.856 106.759 367.5C106.759 366.144 107.185 365.028 108.037 364.152C108.889 363.264 110.005 362.82 111.385 362.82C112.777 362.82 113.899 363.306 114.751 364.278C115.603 365.238 115.981 366.474 115.885 367.986H108.721C108.745 368.682 109.009 369.264 109.513 369.732C110.017 370.2 110.659 370.434 111.439 370.434C112.543 370.434 113.299 370.014 113.707 369.174H115.777C115.501 370.05 114.973 370.77 114.193 371.334C113.413 371.898 112.471 372.18 111.367 372.18ZM111.331 364.476C110.683 364.476 110.125 364.662 109.657 365.034C109.201 365.394 108.907 365.91 108.775 366.582H113.761C113.617 365.886 113.323 365.364 112.879 365.016C112.435 364.656 111.919 364.476 111.331 364.476ZM117.918 363H119.646L122.796 367.104L125.982 363H127.71V372H125.73V366.114L122.814 369.894L119.898 366.114V372H117.918V363ZM134.617 372V363H138.721C139.753 363 140.545 363.246 141.097 363.738C141.649 364.23 141.925 364.842 141.925 365.574C141.925 366.21 141.679 366.756 141.187 367.212C142.063 367.68 142.501 368.388 142.501 369.336C142.501 370.092 142.231 370.728 141.691 371.244C141.151 371.748 140.335 372 139.243 372H134.617ZM136.597 370.326H139.225C139.621 370.326 139.933 370.23 140.161 370.038C140.401 369.834 140.521 369.558 140.521 369.21C140.521 368.85 140.401 368.574 140.161 368.382C139.933 368.178 139.621 368.076 139.225 368.076H136.597V370.326ZM136.597 366.636H138.793C139.117 366.636 139.387 366.558 139.603 366.402C139.831 366.234 139.945 365.97 139.945 365.61C139.945 364.938 139.561 364.602 138.793 364.602H136.597V366.636ZM148.204 372.18C146.98 372.18 145.948 371.724 145.108 370.812C144.28 369.9 143.866 368.796 143.866 367.5C143.866 366.204 144.28 365.1 145.108 364.188C145.948 363.276 146.98 362.82 148.204 362.82C148.816 362.82 149.38 362.958 149.896 363.234C150.412 363.498 150.808 363.822 151.084 364.206V363H153.064V372H151.084V370.794C150.808 371.178 150.412 371.508 149.896 371.784C149.38 372.048 148.816 372.18 148.204 372.18ZM146.638 369.552C147.142 370.104 147.784 370.38 148.564 370.38C149.344 370.38 149.986 370.104 150.49 369.552C150.994 369 151.246 368.316 151.246 367.5C151.246 366.684 150.994 366 150.49 365.448C149.986 364.896 149.344 364.62 148.564 364.62C147.784 364.62 147.142 364.896 146.638 365.448C146.134 366 145.882 366.684 145.882 367.5C145.882 368.316 146.134 369 146.638 369.552ZM155.746 372V363H157.726V370.236H160.858V363H162.838V370.236H165.952V363H167.932V372H155.746ZM178.904 372.18C177.548 372.18 176.42 371.73 175.52 370.83C174.632 369.918 174.188 368.808 174.188 367.5C174.188 366.192 174.632 365.088 175.52 364.188C176.42 363.276 177.548 362.82 178.904 362.82C180.068 362.82 181.058 363.144 181.874 363.792C182.702 364.44 183.236 365.274 183.476 366.294H181.388C181.208 365.79 180.896 365.388 180.452 365.088C180.02 364.776 179.504 364.62 178.904 364.62C178.112 364.62 177.464 364.89 176.96 365.43C176.456 365.97 176.204 366.66 176.204 367.5C176.204 368.34 176.456 369.03 176.96 369.57C177.464 370.11 178.112 370.38 178.904 370.38C179.504 370.38 180.02 370.23 180.452 369.93C180.896 369.618 181.208 369.21 181.388 368.706H183.476C183.236 369.726 182.702 370.56 181.874 371.208C181.058 371.856 180.068 372.18 178.904 372.18ZM189.038 372.18C187.814 372.18 186.782 371.724 185.942 370.812C185.114 369.9 184.7 368.796 184.7 367.5C184.7 366.204 185.114 365.1 185.942 364.188C186.782 363.276 187.814 362.82 189.038 362.82C189.65 362.82 190.214 362.958 190.73 363.234C191.246 363.498 191.642 363.822 191.918 364.206V363H193.898V372H191.918V370.794C191.642 371.178 191.246 371.508 190.73 371.784C190.214 372.048 189.65 372.18 189.038 372.18ZM187.472 369.552C187.976 370.104 188.618 370.38 189.398 370.38C190.178 370.38 190.82 370.104 191.324 369.552C191.828 369 192.08 368.316 192.08 367.5C192.08 366.684 191.828 366 191.324 365.448C190.82 364.896 190.178 364.62 189.398 364.62C188.618 364.62 187.976 364.896 187.472 365.448C186.968 366 186.716 366.684 186.716 367.5C186.716 368.316 186.968 369 187.472 369.552ZM198.344 372H196.58V363H198.56V368.994L203.15 363H204.914V372H202.934V366.006L198.344 372ZM203.006 360.948C202.442 361.488 201.734 361.758 200.882 361.758C200.03 361.758 199.316 361.488 198.74 360.948C198.176 360.396 197.894 359.67 197.894 358.77V358.5H199.298V358.77C199.298 359.322 199.448 359.76 199.748 360.084C200.048 360.396 200.426 360.552 200.882 360.552C201.338 360.552 201.716 360.396 202.016 360.084C202.316 359.76 202.466 359.322 202.466 358.77V358.5H203.87V358.77C203.87 359.67 203.582 360.396 203.006 360.948ZM209.258 372V364.764H206.558V363H214.064V364.764H211.238V372H209.258ZM219.52 372V363H223.624C224.656 363 225.448 363.246 226 363.738C226.552 364.23 226.828 364.842 226.828 365.574C226.828 366.21 226.582 366.756 226.09 367.212C226.966 367.68 227.404 368.388 227.404 369.336C227.404 370.092 227.134 370.728 226.594 371.244C226.054 371.748 225.238 372 224.146 372H219.52ZM221.5 370.326H224.128C224.524 370.326 224.836 370.23 225.064 370.038C225.304 369.834 225.424 369.558 225.424 369.21C225.424 368.85 225.304 368.574 225.064 368.382C224.836 368.178 224.524 368.076 224.128 368.076H221.5V370.326ZM221.5 366.636H223.696C224.02 366.636 224.29 366.558 224.506 366.402C224.734 366.234 224.848 365.97 224.848 365.61C224.848 364.938 224.464 364.602 223.696 364.602H221.5V366.636ZM235.79 372V361.236H232.082V359.22H241.622V361.236H237.896V372H235.79ZM248.717 370.182C249.965 370.182 251.021 369.738 251.885 368.85C252.749 367.962 253.181 366.882 253.181 365.61C253.181 364.338 252.749 363.258 251.885 362.37C251.021 361.482 249.965 361.038 248.717 361.038C247.457 361.038 246.395 361.482 245.531 362.37C244.667 363.258 244.235 364.338 244.235 365.61C244.235 366.882 244.667 367.962 245.531 368.85C246.395 369.738 247.457 370.182 248.717 370.182ZM253.397 370.29C252.113 371.574 250.553 372.216 248.717 372.216C246.881 372.216 245.321 371.58 244.037 370.308C242.753 369.024 242.111 367.458 242.111 365.61C242.111 363.762 242.753 362.202 244.037 360.93C245.321 359.646 246.881 359.004 248.717 359.004C250.553 359.004 252.113 359.646 253.397 360.93C254.681 362.214 255.323 363.774 255.323 365.61C255.323 367.446 254.681 369.006 253.397 370.29ZM265.86 372V361.236H259.722V372H257.634V359.22H267.948V372H265.86ZM270.632 367.932V365.988H275.474V367.932H270.632ZM281.928 372.18C280.644 372.18 279.552 371.796 278.652 371.028C277.764 370.26 277.308 369.246 277.284 367.986H279.264C279.312 368.67 279.582 369.216 280.074 369.624C280.578 370.032 281.196 370.236 281.928 370.236C282.588 370.236 283.128 370.062 283.548 369.714C283.98 369.366 284.202 368.886 284.214 368.274C284.214 367.602 283.992 367.098 283.548 366.762C283.116 366.414 282.516 366.24 281.748 366.24H280.74V364.548H281.748C282.384 364.548 282.888 364.38 283.26 364.044C283.644 363.708 283.842 363.27 283.854 362.73C283.854 362.202 283.662 361.776 283.278 361.452C282.894 361.116 282.42 360.948 281.856 360.948C281.184 360.948 280.626 361.146 280.182 361.542C279.738 361.926 279.516 362.454 279.516 363.126H277.518C277.518 361.878 277.938 360.882 278.778 360.138C279.63 359.382 280.656 359.004 281.856 359.004C283.044 359.004 284.004 359.34 284.736 360.012C285.48 360.684 285.852 361.548 285.852 362.604C285.852 363.192 285.702 363.738 285.402 364.242C285.102 364.734 284.73 365.112 284.286 365.376C284.874 365.628 285.342 366.018 285.69 366.546C286.038 367.074 286.212 367.692 286.212 368.4C286.212 369.516 285.81 370.428 285.006 371.136C284.214 371.832 283.188 372.18 281.928 372.18ZM292.645 372V363H296.749C297.781 363 298.573 363.246 299.125 363.738C299.677 364.23 299.953 364.842 299.953 365.574C299.953 366.21 299.707 366.756 299.215 367.212C300.091 367.68 300.529 368.388 300.529 369.336C300.529 370.092 300.259 370.728 299.719 371.244C299.179 371.748 298.363 372 297.271 372H292.645ZM294.625 370.326H297.253C297.649 370.326 297.961 370.23 298.189 370.038C298.429 369.834 298.549 369.558 298.549 369.21C298.549 368.85 298.429 368.574 298.189 368.382C297.961 368.178 297.649 368.076 297.253 368.076H294.625V370.326ZM294.625 366.636H296.821C297.145 366.636 297.415 366.558 297.631 366.402C297.859 366.234 297.973 365.97 297.973 365.61C297.973 364.938 297.589 364.602 296.821 364.602H294.625V366.636ZM312.958 372V367.158H311.68L307.468 372H304.894L309.358 366.834C308.53 366.57 307.87 366.114 307.378 365.466C306.886 364.806 306.64 364.044 306.64 363.18C306.64 362.016 307.03 361.068 307.81 360.336C308.602 359.592 309.658 359.22 310.978 359.22H315.064V372H312.958ZM308.728 363.18C308.728 363.804 308.932 364.302 309.34 364.674C309.748 365.046 310.306 365.232 311.014 365.232H312.958V361.164H311.014C310.306 361.164 309.748 361.35 309.34 361.722C308.932 362.082 308.728 362.568 308.728 363.18ZM317.852 372V363H319.832V366.564H324.17V363H326.15V372H324.17V368.328H319.832V372H317.852ZM328.046 370.236H328.28C329.132 370.236 329.558 369.354 329.558 367.59V363H336.974V370.236H338.378V374.25H336.578V372H329.864V374.25H328.046V370.236ZM331.538 364.764V367.788C331.538 368.88 331.364 369.696 331.016 370.236H334.994V364.764H331.538ZM344.101 372.18C342.757 372.18 341.653 371.742 340.789 370.866C339.925 369.978 339.493 368.856 339.493 367.5C339.493 366.144 339.919 365.028 340.771 364.152C341.623 363.264 342.739 362.82 344.119 362.82C345.511 362.82 346.633 363.306 347.485 364.278C348.337 365.238 348.715 366.474 348.619 367.986H341.455C341.479 368.682 341.743 369.264 342.247 369.732C342.751 370.2 343.393 370.434 344.173 370.434C345.277 370.434 346.033 370.014 346.441 369.174H348.511C348.235 370.05 347.707 370.77 346.927 371.334C346.147 371.898 345.205 372.18 344.101 372.18ZM344.065 364.476C343.417 364.476 342.859 364.662 342.391 365.034C341.935 365.394 341.641 365.91 341.509 366.582H346.495C346.351 365.886 346.057 365.364 345.613 365.016C345.169 364.656 344.653 364.476 344.065 364.476ZM356.628 372L352.632 368.166V372H350.652V363H352.632V366.852L356.178 363H358.59L354.504 367.428L359.238 372H356.628ZM363.861 372.18C362.505 372.18 361.377 371.73 360.477 370.83C359.589 369.918 359.145 368.808 359.145 367.5C359.145 366.192 359.589 365.088 360.477 364.188C361.377 363.276 362.505 362.82 363.861 362.82C365.025 362.82 366.015 363.144 366.831 363.792C367.659 364.44 368.193 365.274 368.433 366.294H366.345C366.165 365.79 365.853 365.388 365.409 365.088C364.977 364.776 364.461 364.62 363.861 364.62C363.069 364.62 362.421 364.89 361.917 365.43C361.413 365.97 361.161 366.66 361.161 367.5C361.161 368.34 361.413 369.03 361.917 369.57C362.421 370.11 363.069 370.38 363.861 370.38C364.461 370.38 364.977 370.23 365.409 369.93C365.853 369.618 366.165 369.21 366.345 368.706H368.433C368.193 369.726 367.659 370.56 366.831 371.208C366.015 371.856 365.025 372.18 363.861 372.18ZM374.283 372.18C372.939 372.18 371.835 371.742 370.971 370.866C370.107 369.978 369.675 368.856 369.675 367.5C369.675 366.144 370.101 365.028 370.953 364.152C371.805 363.264 372.921 362.82 374.301 362.82C375.693 362.82 376.815 363.306 377.667 364.278C378.519 365.238 378.897 366.474 378.801 367.986H371.637C371.661 368.682 371.925 369.264 372.429 369.732C372.933 370.2 373.575 370.434 374.355 370.434C375.459 370.434 376.215 370.014 376.623 369.174H378.693C378.417 370.05 377.889 370.77 377.109 371.334C376.329 371.898 375.387 372.18 374.283 372.18ZM374.247 364.476C373.599 364.476 373.041 364.662 372.573 365.034C372.117 365.394 371.823 365.91 371.691 366.582H376.677C376.533 365.886 376.239 365.364 375.795 365.016C375.351 364.656 374.835 364.476 374.247 364.476ZM385.07 372V363H389.174C390.206 363 390.998 363.246 391.55 363.738C392.102 364.23 392.378 364.842 392.378 365.574C392.378 366.21 392.132 366.756 391.64 367.212C392.516 367.68 392.954 368.388 392.954 369.336C392.954 370.092 392.684 370.728 392.144 371.244C391.604 371.748 390.788 372 389.696 372H385.07ZM387.05 370.326H389.678C390.074 370.326 390.386 370.23 390.614 370.038C390.854 369.834 390.974 369.558 390.974 369.21C390.974 368.85 390.854 368.574 390.614 368.382C390.386 368.178 390.074 368.076 389.678 368.076H387.05V370.326ZM387.05 366.636H389.246C389.57 366.636 389.84 366.558 390.056 366.402C390.284 366.234 390.398 365.97 390.398 365.61C390.398 364.938 390.014 364.602 389.246 364.602H387.05V366.636ZM399.035 372.18C397.679 372.18 396.551 371.73 395.651 370.83C394.763 369.918 394.319 368.808 394.319 367.5C394.319 366.192 394.763 365.088 395.651 364.188C396.551 363.276 397.679 362.82 399.035 362.82C400.199 362.82 401.189 363.144 402.005 363.792C402.833 364.44 403.367 365.274 403.607 366.294H401.519C401.339 365.79 401.027 365.388 400.583 365.088C400.151 364.776 399.635 364.62 399.035 364.62C398.243 364.62 397.595 364.89 397.091 365.43C396.587 365.97 396.335 366.66 396.335 367.5C396.335 368.34 396.587 369.03 397.091 369.57C397.595 370.11 398.243 370.38 399.035 370.38C399.635 370.38 400.151 370.23 400.583 369.93C401.027 369.618 401.339 369.21 401.519 368.706H403.607C403.367 369.726 402.833 370.56 402.005 371.208C401.189 371.856 400.199 372.18 399.035 372.18ZM409.456 372.18C408.112 372.18 407.008 371.742 406.144 370.866C405.28 369.978 404.848 368.856 404.848 367.5C404.848 366.144 405.274 365.028 406.126 364.152C406.978 363.264 408.094 362.82 409.474 362.82C410.866 362.82 411.988 363.306 412.84 364.278C413.692 365.238 414.07 366.474 413.974 367.986H406.81C406.834 368.682 407.098 369.264 407.602 369.732C408.106 370.2 408.748 370.434 409.528 370.434C410.632 370.434 411.388 370.014 411.796 369.174H413.866C413.59 370.05 413.062 370.77 412.282 371.334C411.502 371.898 410.56 372.18 409.456 372.18ZM409.42 364.476C408.772 364.476 408.214 364.662 407.746 365.034C407.29 365.394 406.996 365.91 406.864 366.582H411.85C411.706 365.886 411.412 365.364 410.968 365.016C410.524 364.656 410.008 364.476 409.42 364.476ZM416.008 372V363H421.912V364.764H417.988V372H416.008ZM430.701 370.83C429.801 371.73 428.685 372.18 427.353 372.18C426.021 372.18 424.899 371.73 423.987 370.83C423.087 369.918 422.637 368.808 422.637 367.5C422.637 366.192 423.087 365.088 423.987 364.188C424.899 363.276 426.021 362.82 427.353 362.82C428.685 362.82 429.801 363.276 430.701 364.188C431.613 365.088 432.069 366.192 432.069 367.5C432.069 368.808 431.613 369.918 430.701 370.83ZM427.353 370.344C428.133 370.344 428.775 370.074 429.279 369.534C429.795 368.982 430.053 368.304 430.053 367.5C430.053 366.696 429.795 366.024 429.279 365.484C428.775 364.932 428.133 364.656 427.353 364.656C426.561 364.656 425.907 364.932 425.391 365.484C424.887 366.024 424.635 366.696 424.635 367.5C424.635 368.304 424.887 368.982 425.391 369.534C425.907 370.074 426.561 370.344 427.353 370.344ZM441.411 372.18C440.439 372.18 439.587 371.946 438.855 371.478C438.123 370.998 437.667 370.302 437.487 369.39H439.521C439.785 370.158 440.415 370.542 441.411 370.542C441.963 370.53 442.383 370.41 442.671 370.182C442.971 369.954 443.121 369.654 443.121 369.282C443.121 368.898 442.983 368.604 442.707 368.4C442.431 368.184 442.041 368.076 441.537 368.076H440.475V366.618H441.501C441.921 366.618 442.251 366.528 442.491 366.348C442.731 366.156 442.851 365.88 442.851 365.52C442.851 365.172 442.719 364.902 442.455 364.71C442.191 364.506 441.831 364.404 441.375 364.404C440.475 364.404 439.911 364.77 439.683 365.502H437.703C437.883 364.602 438.315 363.93 438.999 363.486C439.695 363.042 440.499 362.82 441.411 362.82C442.479 362.82 443.301 363.072 443.877 363.576C444.453 364.068 444.741 364.668 444.741 365.376C444.741 366.216 444.417 366.846 443.769 367.266C444.669 367.722 445.119 368.442 445.119 369.426C445.119 370.17 444.789 370.818 444.129 371.37C443.481 371.91 442.575 372.18 441.411 372.18ZM450.864 372.18C449.64 372.18 448.608 371.724 447.768 370.812C446.94 369.9 446.526 368.796 446.526 367.5C446.526 366.204 446.94 365.1 447.768 364.188C448.608 363.276 449.64 362.82 450.864 362.82C451.476 362.82 452.04 362.958 452.556 363.234C453.072 363.498 453.468 363.822 453.744 364.206V363H455.724V372H453.744V370.794C453.468 371.178 453.072 371.508 452.556 371.784C452.04 372.048 451.476 372.18 450.864 372.18ZM449.298 369.552C449.802 370.104 450.444 370.38 451.224 370.38C452.004 370.38 452.646 370.104 453.15 369.552C453.654 369 453.906 368.316 453.906 367.5C453.906 366.684 453.654 366 453.15 365.448C452.646 364.896 452.004 364.62 451.224 364.62C450.444 364.62 449.802 364.896 449.298 365.448C448.794 366 448.542 366.684 448.542 367.5C448.542 368.316 448.794 369 449.298 369.552ZM466.675 372.18C465.391 372.18 464.299 371.796 463.399 371.028C462.511 370.26 462.055 369.246 462.031 367.986H464.011C464.059 368.67 464.329 369.216 464.821 369.624C465.325 370.032 465.943 370.236 466.675 370.236C467.335 370.236 467.875 370.062 468.295 369.714C468.727 369.366 468.949 368.886 468.961 368.274C468.961 367.602 468.739 367.098 468.295 366.762C467.863 366.414 467.263 366.24 466.495 366.24H465.487V364.548H466.495C467.131 364.548 467.635 364.38 468.007 364.044C468.391 363.708 468.589 363.27 468.601 362.73C468.601 362.202 468.409 361.776 468.025 361.452C467.641 361.116 467.167 360.948 466.603 360.948C465.931 360.948 465.373 361.146 464.929 361.542C464.485 361.926 464.263 362.454 464.263 363.126H462.265C462.265 361.878 462.685 360.882 463.525 360.138C464.377 359.382 465.403 359.004 466.603 359.004C467.791 359.004 468.751 359.34 469.483 360.012C470.227 360.684 470.599 361.548 470.599 362.604C470.599 363.192 470.449 363.738 470.149 364.242C469.849 364.734 469.477 365.112 469.033 365.376C469.621 365.628 470.089 366.018 470.437 366.546C470.785 367.074 470.959 367.692 470.959 368.4C470.959 369.516 470.557 370.428 469.753 371.136C468.961 371.832 467.935 372.18 466.675 372.18ZM477.391 363H479.119L482.269 367.104L485.455 363H487.183V372H485.203V366.114L482.287 369.894L479.371 366.114V372H477.391V363ZM493.831 372.18C492.487 372.18 491.383 371.742 490.519 370.866C489.655 369.978 489.223 368.856 489.223 367.5C489.223 366.144 489.649 365.028 490.501 364.152C491.353 363.264 492.469 362.82 493.849 362.82C495.241 362.82 496.363 363.306 497.215 364.278C498.067 365.238 498.445 366.474 498.349 367.986H491.185C491.209 368.682 491.473 369.264 491.977 369.732C492.481 370.2 493.123 370.434 493.903 370.434C495.007 370.434 495.763 370.014 496.171 369.174H498.241C497.965 370.05 497.437 370.77 496.657 371.334C495.877 371.898 494.935 372.18 493.831 372.18ZM493.795 364.476C493.147 364.476 492.589 364.662 492.121 365.034C491.665 365.394 491.371 365.91 491.239 366.582H496.225C496.081 365.886 495.787 365.364 495.343 365.016C494.899 364.656 494.383 364.476 493.795 364.476ZM504.451 372.18C503.095 372.18 501.967 371.73 501.067 370.83C500.179 369.918 499.735 368.808 499.735 367.5C499.735 366.192 500.179 365.088 501.067 364.188C501.967 363.276 503.095 362.82 504.451 362.82C505.615 362.82 506.605 363.144 507.421 363.792C508.249 364.44 508.783 365.274 509.023 366.294H506.935C506.755 365.79 506.443 365.388 505.999 365.088C505.567 364.776 505.051 364.62 504.451 364.62C503.659 364.62 503.011 364.89 502.507 365.43C502.003 365.97 501.751 366.66 501.751 367.5C501.751 368.34 502.003 369.03 502.507 369.57C503.011 370.11 503.659 370.38 504.451 370.38C505.051 370.38 505.567 370.23 505.999 369.93C506.443 369.618 506.755 369.21 506.935 368.706H509.023C508.783 369.726 508.249 370.56 507.421 371.208C506.605 371.856 505.615 372.18 504.451 372.18ZM509.349 372L512.715 368.544C512.103 368.328 511.629 367.992 511.293 367.536C510.957 367.08 510.789 366.546 510.789 365.934C510.789 365.07 511.077 364.368 511.653 363.828C512.229 363.276 513.039 363 514.083 363H517.719V372H515.739V368.922H514.731L511.689 372H509.349ZM514.191 367.266H515.739V364.674H514.191C513.195 364.674 512.697 365.118 512.697 366.006C512.697 366.402 512.829 366.714 513.093 366.942C513.369 367.158 513.735 367.266 514.191 367.266ZM529.891 370.236V374.25H528.091V372H520.387V363H522.367V370.236H526.489V363H528.469V370.236H529.891ZM535.309 372.18C534.085 372.18 533.053 371.724 532.213 370.812C531.385 369.9 530.971 368.796 530.971 367.5C530.971 366.204 531.385 365.1 532.213 364.188C533.053 363.276 534.085 362.82 535.309 362.82C535.921 362.82 536.485 362.958 537.001 363.234C537.517 363.498 537.913 363.822 538.189 364.206V363H540.169V372H538.189V370.794C537.913 371.178 537.517 371.508 537.001 371.784C536.485 372.048 535.921 372.18 535.309 372.18ZM533.743 369.552C534.247 370.104 534.889 370.38 535.669 370.38C536.449 370.38 537.091 370.104 537.595 369.552C538.099 369 538.351 368.316 538.351 367.5C538.351 366.684 538.099 366 537.595 365.448C537.091 364.896 536.449 364.62 535.669 364.62C534.889 364.62 534.247 364.896 533.743 365.448C533.239 366 532.987 366.684 532.987 367.5C532.987 368.316 533.239 369 533.743 369.552ZM543.41 367.716L543.032 364.188V359.22H545.03V364.188L544.634 367.716H543.41ZM544.022 372.144C543.602 372.144 543.236 371.994 542.924 371.694C542.624 371.382 542.474 371.01 542.474 370.578C542.474 370.158 542.624 369.792 542.924 369.48C543.236 369.168 543.602 369.012 544.022 369.012C544.454 369.012 544.82 369.168 545.12 369.48C545.432 369.792 545.588 370.158 545.588 370.578C545.588 371.01 545.432 371.382 545.12 371.694C544.82 371.994 544.454 372.144 544.022 372.144Z" fill="white"/>
<path d="M738.69 495.278H741.444C742.716 495.278 743.754 495.632 744.558 496.34C745.374 497.036 745.782 497.972 745.782 499.148C745.782 500.312 745.374 501.248 744.558 501.956C743.742 502.652 742.704 503 741.444 503H736.566V490.22H744.63V492.236H738.69V495.278ZM743.694 499.148C743.694 498.524 743.496 498.05 743.1 497.726C742.704 497.39 742.146 497.222 741.426 497.222H738.69V501.038H741.426C742.146 501.038 742.704 500.876 743.1 500.552C743.496 500.228 743.694 499.76 743.694 499.148ZM751.648 503.18C750.304 503.18 749.2 502.742 748.336 501.866C747.472 500.978 747.04 499.856 747.04 498.5C747.04 497.144 747.466 496.028 748.318 495.152C749.17 494.264 750.286 493.82 751.666 493.82C753.058 493.82 754.18 494.306 755.032 495.278C755.884 496.238 756.262 497.474 756.166 498.986H749.002C749.026 499.682 749.29 500.264 749.794 500.732C750.298 501.2 750.94 501.434 751.72 501.434C752.824 501.434 753.58 501.014 753.988 500.174H756.058C755.782 501.05 755.254 501.77 754.474 502.334C753.694 502.898 752.752 503.18 751.648 503.18ZM751.612 495.476C750.964 495.476 750.406 495.662 749.938 496.034C749.482 496.394 749.188 496.91 749.056 497.582H754.042C753.898 496.886 753.604 496.364 753.16 496.016C752.716 495.656 752.2 495.476 751.612 495.476ZM762.267 503.18C760.911 503.18 759.783 502.73 758.883 501.83C757.995 500.918 757.551 499.808 757.551 498.5C757.551 497.192 757.995 496.088 758.883 495.188C759.783 494.276 760.911 493.82 762.267 493.82C763.431 493.82 764.421 494.144 765.237 494.792C766.065 495.44 766.599 496.274 766.839 497.294H764.751C764.571 496.79 764.259 496.388 763.815 496.088C763.383 495.776 762.867 495.62 762.267 495.62C761.475 495.62 760.827 495.89 760.323 496.43C759.819 496.97 759.567 497.66 759.567 498.5C759.567 499.34 759.819 500.03 760.323 500.57C760.827 501.11 761.475 501.38 762.267 501.38C762.867 501.38 763.383 501.23 763.815 500.93C764.259 500.618 764.571 500.21 764.751 499.706H766.839C766.599 500.726 766.065 501.56 765.237 502.208C764.421 502.856 763.431 503.18 762.267 503.18ZM768.711 503V494H776.829V503H774.849V495.764H770.691V503H768.711ZM779.486 503.144C779.042 503.144 778.718 503.12 778.514 503.072V501.362C778.778 501.386 778.976 501.398 779.108 501.398C779.48 501.398 779.756 501.278 779.936 501.038C780.116 500.786 780.206 500.348 780.206 499.724V494H787.532V503H785.552V495.764H782.186V500.03C782.186 501.05 781.928 501.824 781.412 502.352C780.908 502.88 780.266 503.144 779.486 503.144ZM793.881 503.18C792.657 503.18 791.625 502.724 790.785 501.812C789.957 500.9 789.543 499.796 789.543 498.5C789.543 497.204 789.957 496.1 790.785 495.188C791.625 494.276 792.657 493.82 793.881 493.82C794.493 493.82 795.057 493.958 795.573 494.234C796.089 494.498 796.485 494.822 796.761 495.206V494H798.741V503H796.761V501.794C796.485 502.178 796.089 502.508 795.573 502.784C795.057 503.048 794.493 503.18 793.881 503.18ZM792.315 500.552C792.819 501.104 793.461 501.38 794.241 501.38C795.021 501.38 795.663 501.104 796.167 500.552C796.671 500 796.923 499.316 796.923 498.5C796.923 497.684 796.671 497 796.167 496.448C795.663 495.896 795.021 495.62 794.241 495.62C793.461 495.62 792.819 495.896 792.315 496.448C791.811 497 791.559 497.684 791.559 498.5C791.559 499.316 791.811 500 792.315 500.552ZM803.098 503V495.764H800.398V494H807.904V495.764H805.078V503H803.098ZM809.562 503V494H811.542V497.564H815.88V494H817.86V503H815.88V499.328H811.542V503H809.562ZM827.947 501.83C827.047 502.73 825.931 503.18 824.599 503.18C823.267 503.18 822.145 502.73 821.233 501.83C820.333 500.918 819.883 499.808 819.883 498.5C819.883 497.192 820.333 496.088 821.233 495.188C822.145 494.276 823.267 493.82 824.599 493.82C825.931 493.82 827.047 494.276 827.947 495.188C828.859 496.088 829.315 497.192 829.315 498.5C829.315 499.808 828.859 500.918 827.947 501.83ZM824.599 501.344C825.379 501.344 826.021 501.074 826.525 500.534C827.041 499.982 827.299 499.304 827.299 498.5C827.299 497.696 827.041 497.024 826.525 496.484C826.021 495.932 825.379 495.656 824.599 495.656C823.807 495.656 823.153 495.932 822.637 496.484C822.133 497.024 821.881 497.696 821.881 498.5C821.881 499.304 822.133 499.982 822.637 500.534C823.153 501.074 823.807 501.344 824.599 501.344ZM837.307 503H835.543V494H837.523V499.994L842.113 494H843.877V503H841.897V497.006L837.307 503ZM849.661 503.18C848.689 503.18 847.837 502.946 847.105 502.478C846.373 501.998 845.917 501.302 845.737 500.39H847.771C848.035 501.158 848.665 501.542 849.661 501.542C850.213 501.53 850.633 501.41 850.921 501.182C851.221 500.954 851.371 500.654 851.371 500.282C851.371 499.898 851.233 499.604 850.957 499.4C850.681 499.184 850.291 499.076 849.787 499.076H848.725V497.618H849.751C850.171 497.618 850.501 497.528 850.741 497.348C850.981 497.156 851.101 496.88 851.101 496.52C851.101 496.172 850.969 495.902 850.705 495.71C850.441 495.506 850.081 495.404 849.625 495.404C848.725 495.404 848.161 495.77 847.933 496.502H845.953C846.133 495.602 846.565 494.93 847.249 494.486C847.945 494.042 848.749 493.82 849.661 493.82C850.729 493.82 851.551 494.072 852.127 494.576C852.703 495.068 852.991 495.668 852.991 496.376C852.991 497.216 852.667 497.846 852.019 498.266C852.919 498.722 853.369 499.442 853.369 500.426C853.369 501.17 853.039 501.818 852.379 502.37C851.731 502.91 850.825 503.18 849.661 503.18ZM863.941 494L859.261 504.386C858.865 505.286 858.403 505.934 857.875 506.33C857.359 506.738 856.711 506.942 855.931 506.942C855.451 506.942 855.085 506.912 854.833 506.852V505.142C855.193 505.166 855.487 505.178 855.715 505.178C856.375 505.178 856.915 504.74 857.335 503.864L857.929 502.55L854.041 494H856.219L859.045 500.246L861.745 494H863.941ZM872.61 503H870.63V499.076C870.402 499.4 870.054 499.658 869.586 499.85C869.118 500.042 868.584 500.138 867.984 500.138C867 500.138 866.202 499.844 865.59 499.256C864.978 498.668 864.672 497.828 864.672 496.736V494H866.652V496.52C866.652 497.756 867.27 498.374 868.506 498.374C869.058 498.374 869.55 498.188 869.982 497.816C870.414 497.444 870.63 496.892 870.63 496.16V494H872.61V503ZM877.034 503H875.27V494H877.25V499.994L881.84 494H883.604V503H881.624V497.006L877.034 503ZM886.273 494H888.001L891.151 498.104L894.337 494H896.065V503H894.085V497.114L891.169 500.894L888.253 497.114V503H886.273V494ZM904.737 503H902.973V494H904.953V499.994L909.543 494H911.307V503H909.327V497.006L904.737 503ZM918.213 503V494H926.331V503H924.351V495.764H920.193V503H918.213ZM930.968 506.762H928.988V494H930.968V495.206C931.244 494.822 931.64 494.498 932.156 494.234C932.684 493.958 933.254 493.82 933.866 493.82C935.09 493.82 936.116 494.276 936.944 495.188C937.784 496.1 938.204 497.204 938.204 498.5C938.204 499.796 937.784 500.9 936.944 501.812C936.116 502.724 935.09 503.18 933.866 503.18C933.254 503.18 932.684 503.048 932.156 502.784C931.64 502.508 931.244 502.178 930.968 501.794V506.762ZM933.506 501.38C934.286 501.38 934.928 501.104 935.432 500.552C935.936 500 936.188 499.316 936.188 498.5C936.188 497.684 935.936 497 935.432 496.448C934.928 495.896 934.286 495.62 933.506 495.62C932.714 495.62 932.066 495.896 931.562 496.448C931.058 497 930.806 497.684 930.806 498.5C930.806 499.316 931.058 500 931.562 500.552C932.066 501.104 932.714 501.38 933.506 501.38ZM944.199 503.18C942.855 503.18 941.751 502.742 940.887 501.866C940.023 500.978 939.591 499.856 939.591 498.5C939.591 497.144 940.017 496.028 940.869 495.152C941.721 494.264 942.837 493.82 944.217 493.82C945.609 493.82 946.731 494.306 947.583 495.278C948.435 496.238 948.813 497.474 948.717 498.986H941.553C941.577 499.682 941.841 500.264 942.345 500.732C942.849 501.2 943.491 501.434 944.271 501.434C945.375 501.434 946.131 501.014 946.539 500.174H948.609C948.333 501.05 947.805 501.77 947.025 502.334C946.245 502.898 945.303 503.18 944.199 503.18ZM944.163 495.476C943.515 495.476 942.957 495.662 942.489 496.034C942.033 496.394 941.739 496.91 941.607 497.582H946.593C946.449 496.886 946.155 496.364 945.711 496.016C945.267 495.656 944.751 495.476 944.163 495.476ZM949.853 501.236H950.087C950.939 501.236 951.365 500.354 951.365 498.59V494H958.781V501.236H960.185V505.25H958.385V503H951.671V505.25H949.853V501.236ZM953.345 495.764V498.788C953.345 499.88 953.171 500.696 952.823 501.236H956.801V495.764H953.345ZM962.105 503.144C961.661 503.144 961.337 503.12 961.133 503.072V501.362C961.397 501.386 961.595 501.398 961.727 501.398C962.099 501.398 962.375 501.278 962.555 501.038C962.735 500.786 962.825 500.348 962.825 499.724V494H970.151V503H968.171V495.764H964.805V500.03C964.805 501.05 964.547 501.824 964.031 502.352C963.527 502.88 962.885 503.144 962.105 503.144ZM980.227 501.83C979.327 502.73 978.211 503.18 976.879 503.18C975.547 503.18 974.425 502.73 973.513 501.83C972.613 500.918 972.163 499.808 972.163 498.5C972.163 497.192 972.613 496.088 973.513 495.188C974.425 494.276 975.547 493.82 976.879 493.82C978.211 493.82 979.327 494.276 980.227 495.188C981.139 496.088 981.595 497.192 981.595 498.5C981.595 499.808 981.139 500.918 980.227 501.83ZM976.879 501.344C977.659 501.344 978.301 501.074 978.805 500.534C979.321 499.982 979.579 499.304 979.579 498.5C979.579 497.696 979.321 497.024 978.805 496.484C978.301 495.932 977.659 495.656 976.879 495.656C976.087 495.656 975.433 495.932 974.917 496.484C974.413 497.024 974.161 497.696 974.161 498.5C974.161 499.304 974.413 499.982 974.917 500.534C975.433 501.074 976.087 501.344 976.879 501.344ZM993.697 503L989.881 499.166V503H987.901V499.148L984.085 503H981.565L986.083 498.428L982.177 494H984.535L987.901 497.852V494H989.881V497.834L993.229 494H995.587L991.681 498.428L996.217 503H993.697ZM999.184 503H997.42V494H999.4V499.994L1003.99 494H1005.75V503H1003.77V497.006L999.184 503ZM1008.42 494H1010.15L1013.3 498.104L1016.49 494H1018.22V503H1016.24V497.114L1013.32 500.894L1010.4 497.114V503H1008.42V494ZM1027.1 506.762H1025.12V494H1027.1V495.206C1027.38 494.822 1027.78 494.498 1028.29 494.234C1028.82 493.958 1029.39 493.82 1030 493.82C1031.23 493.82 1032.25 494.276 1033.08 495.188C1033.92 496.1 1034.34 497.204 1034.34 498.5C1034.34 499.796 1033.92 500.9 1033.08 501.812C1032.25 502.724 1031.23 503.18 1030 503.18C1029.39 503.18 1028.82 503.048 1028.29 502.784C1027.78 502.508 1027.38 502.178 1027.1 501.794V506.762ZM1029.64 501.38C1030.42 501.38 1031.06 501.104 1031.57 500.552C1032.07 500 1032.32 499.316 1032.32 498.5C1032.32 497.684 1032.07 497 1031.57 496.448C1031.06 495.896 1030.42 495.62 1029.64 495.62C1028.85 495.62 1028.2 495.896 1027.7 496.448C1027.19 497 1026.94 497.684 1026.94 498.5C1026.94 499.316 1027.19 500 1027.7 500.552C1028.2 501.104 1028.85 501.38 1029.64 501.38ZM1040.33 503.18C1038.99 503.18 1037.89 502.742 1037.02 501.866C1036.16 500.978 1035.73 499.856 1035.73 498.5C1035.73 497.144 1036.15 496.028 1037 495.152C1037.86 494.264 1038.97 493.82 1040.35 493.82C1041.74 493.82 1042.87 494.306 1043.72 495.278C1044.57 496.238 1044.95 497.474 1044.85 498.986H1037.69C1037.71 499.682 1037.98 500.264 1038.48 500.732C1038.98 501.2 1039.63 501.434 1040.41 501.434C1041.51 501.434 1042.27 501.014 1042.67 500.174H1044.74C1044.47 501.05 1043.94 501.77 1043.16 502.334C1042.38 502.898 1041.44 503.18 1040.33 503.18ZM1040.3 495.476C1039.65 495.476 1039.09 495.662 1038.62 496.034C1038.17 496.394 1037.87 496.91 1037.74 497.582H1042.73C1042.58 496.886 1042.29 496.364 1041.85 496.016C1041.4 495.656 1040.89 495.476 1040.3 495.476ZM1046.88 503V494H1048.86V501.236H1052V494H1053.98V501.236H1057.09V494H1059.07V503H1046.88ZM1065.72 503.18C1064.37 503.18 1063.27 502.742 1062.4 501.866C1061.54 500.978 1061.11 499.856 1061.11 498.5C1061.11 497.144 1061.53 496.028 1062.39 495.152C1063.24 494.264 1064.35 493.82 1065.73 493.82C1067.13 493.82 1068.25 494.306 1069.1 495.278C1069.95 496.238 1070.33 497.474 1070.23 498.986H1063.07C1063.09 499.682 1063.36 500.264 1063.86 500.732C1064.37 501.2 1065.01 501.434 1065.79 501.434C1066.89 501.434 1067.65 501.014 1068.06 500.174H1070.13C1069.85 501.05 1069.32 501.77 1068.54 502.334C1067.76 502.898 1066.82 503.18 1065.72 503.18ZM1065.68 495.476C1065.03 495.476 1064.47 495.662 1064.01 496.034C1063.55 496.394 1063.26 496.91 1063.12 497.582H1068.11C1067.97 496.886 1067.67 496.364 1067.23 496.016C1066.78 495.656 1066.27 495.476 1065.68 495.476ZM1072.27 503V494H1074.25V497.564H1078.59V494H1080.57V503H1078.59V499.328H1074.25V503H1072.27ZM1085 503H1083.24V494H1085.22V499.994L1089.81 494H1091.57V503H1089.59V497.006L1085 503ZM1092.78 503L1096.15 499.544C1095.54 499.328 1095.06 498.992 1094.73 498.536C1094.39 498.08 1094.22 497.546 1094.22 496.934C1094.22 496.07 1094.51 495.368 1095.09 494.828C1095.66 494.276 1096.47 494 1097.52 494H1101.15V503H1099.17V499.922H1098.16L1095.12 503H1092.78ZM1097.62 498.266H1099.17V495.674H1097.62C1096.63 495.674 1096.13 496.118 1096.13 497.006C1096.13 497.402 1096.26 497.714 1096.53 497.942C1096.8 498.158 1097.17 498.266 1097.62 498.266ZM1108.06 503V494H1116.17V503H1114.19V495.764H1110.04V503H1108.06ZM1126.25 501.83C1125.35 502.73 1124.23 503.18 1122.9 503.18C1121.57 503.18 1120.45 502.73 1119.53 501.83C1118.63 500.918 1118.18 499.808 1118.18 498.5C1118.18 497.192 1118.63 496.088 1119.53 495.188C1120.45 494.276 1121.57 493.82 1122.9 493.82C1124.23 493.82 1125.35 494.276 1126.25 495.188C1127.16 496.088 1127.62 497.192 1127.62 498.5C1127.62 499.808 1127.16 500.918 1126.25 501.83ZM1122.9 501.344C1123.68 501.344 1124.32 501.074 1124.83 500.534C1125.34 499.982 1125.6 499.304 1125.6 498.5C1125.6 497.696 1125.34 497.024 1124.83 496.484C1124.32 495.932 1123.68 495.656 1122.9 495.656C1122.11 495.656 1121.45 495.932 1120.94 496.484C1120.43 497.024 1120.18 497.696 1120.18 498.5C1120.18 499.304 1120.43 499.982 1120.94 500.534C1121.45 501.074 1122.11 501.344 1122.9 501.344ZM1133.84 503V494H1141.96V503H1139.98V495.764H1135.82V503H1133.84ZM1146.6 506.762H1144.62V494H1146.6V495.206C1146.88 494.822 1147.27 494.498 1147.79 494.234C1148.32 493.958 1148.89 493.82 1149.5 493.82C1150.72 493.82 1151.75 494.276 1152.58 495.188C1153.42 496.1 1153.84 497.204 1153.84 498.5C1153.84 499.796 1153.42 500.9 1152.58 501.812C1151.75 502.724 1150.72 503.18 1149.5 503.18C1148.89 503.18 1148.32 503.048 1147.79 502.784C1147.27 502.508 1146.88 502.178 1146.6 501.794V506.762ZM1149.14 501.38C1149.92 501.38 1150.56 501.104 1151.06 500.552C1151.57 500 1151.82 499.316 1151.82 498.5C1151.82 497.684 1151.57 497 1151.06 496.448C1150.56 495.896 1149.92 495.62 1149.14 495.62C1148.35 495.62 1147.7 495.896 1147.19 496.448C1146.69 497 1146.44 497.684 1146.44 498.5C1146.44 499.316 1146.69 500 1147.19 500.552C1147.7 501.104 1148.35 501.38 1149.14 501.38ZM1163.27 501.83C1162.37 502.73 1161.25 503.18 1159.92 503.18C1158.59 503.18 1157.47 502.73 1156.55 501.83C1155.65 500.918 1155.2 499.808 1155.2 498.5C1155.2 497.192 1155.65 496.088 1156.55 495.188C1157.47 494.276 1158.59 493.82 1159.92 493.82C1161.25 493.82 1162.37 494.276 1163.27 495.188C1164.18 496.088 1164.64 497.192 1164.64 498.5C1164.64 499.808 1164.18 500.918 1163.27 501.83ZM1159.92 501.344C1160.7 501.344 1161.34 501.074 1161.85 500.534C1162.36 499.982 1162.62 499.304 1162.62 498.5C1162.62 497.696 1162.36 497.024 1161.85 496.484C1161.34 495.932 1160.7 495.656 1159.92 495.656C1159.13 495.656 1158.47 495.932 1157.96 496.484C1157.45 497.024 1157.2 497.696 1157.2 498.5C1157.2 499.304 1157.45 499.982 1157.96 500.534C1158.47 501.074 1159.13 501.344 1159.92 501.344ZM1165.68 501.236H1165.91C1166.76 501.236 1167.19 500.354 1167.19 498.59V494H1174.61V501.236H1176.01V505.25H1174.21V503H1167.5V505.25H1165.68V501.236ZM1169.17 495.764V498.788C1169.17 499.88 1169 500.696 1168.65 501.236H1172.63V495.764H1169.17ZM1177.93 503V494H1182.03C1183.07 494 1183.86 494.246 1184.41 494.738C1184.96 495.23 1185.24 495.842 1185.24 496.574C1185.24 497.21 1184.99 497.756 1184.5 498.212C1185.38 498.68 1185.81 499.388 1185.81 500.336C1185.81 501.092 1185.54 501.728 1185 502.244C1184.46 502.748 1183.65 503 1182.56 503H1177.93ZM1179.91 501.326H1182.54C1182.93 501.326 1183.25 501.23 1183.47 501.038C1183.71 500.834 1183.83 500.558 1183.83 500.21C1183.83 499.85 1183.71 499.574 1183.47 499.382C1183.25 499.178 1182.93 499.076 1182.54 499.076H1179.91V501.326ZM1179.91 497.636H1182.11C1182.43 497.636 1182.7 497.558 1182.92 497.402C1183.14 497.234 1183.26 496.97 1183.26 496.61C1183.26 495.938 1182.87 495.602 1182.11 495.602H1179.91V497.636ZM1189.59 503H1187.83V494H1189.81V499.994L1194.4 494H1196.16V503H1194.18V497.006L1189.59 503ZM1209.5 503L1205.69 499.166V503H1203.71V499.148L1199.89 503H1197.37L1201.89 498.428L1197.98 494H1200.34L1203.71 497.852V494H1205.69V497.834L1209.04 494H1211.39L1207.49 498.428L1212.02 503H1209.5ZM1216.64 503.18C1215.3 503.18 1214.19 502.742 1213.33 501.866C1212.47 500.978 1212.03 499.856 1212.03 498.5C1212.03 497.144 1212.46 496.028 1213.31 495.152C1214.16 494.264 1215.28 493.82 1216.66 493.82C1218.05 493.82 1219.17 494.306 1220.03 495.278C1220.88 496.238 1221.26 497.474 1221.16 498.986H1214C1214.02 499.682 1214.28 500.264 1214.79 500.732C1215.29 501.2 1215.93 501.434 1216.71 501.434C1217.82 501.434 1218.57 501.014 1218.98 500.174H1221.05C1220.78 501.05 1220.25 501.77 1219.47 502.334C1218.69 502.898 1217.75 503.18 1216.64 503.18ZM1216.61 495.476C1215.96 495.476 1215.4 495.662 1214.93 496.034C1214.48 496.394 1214.18 496.91 1214.05 497.582H1219.04C1218.89 496.886 1218.6 496.364 1218.15 496.016C1217.71 495.656 1217.19 495.476 1216.61 495.476ZM1223.19 503V494H1225.17V497.564H1229.51V494H1231.49V503H1229.51V499.328H1225.17V503H1223.19ZM1235.93 503H1234.16V494H1236.14V499.994L1240.73 494H1242.5V503H1240.52V497.006L1235.93 503ZM1253.21 503.18C1252.06 503.18 1251.06 502.814 1250.22 502.082C1249.38 501.35 1248.88 500.432 1248.71 499.328H1247.15V503H1245.17V494H1247.15V497.582H1248.73C1248.92 496.49 1249.43 495.59 1250.26 494.882C1251.09 494.174 1252.07 493.82 1253.21 493.82C1254.52 493.82 1255.6 494.27 1256.45 495.17C1257.32 496.07 1257.75 497.18 1257.75 498.5C1257.75 499.82 1257.32 500.93 1256.45 501.83C1255.6 502.73 1254.52 503.18 1253.21 503.18ZM1251.38 500.534C1251.86 501.062 1252.47 501.326 1253.21 501.326C1253.96 501.326 1254.56 501.062 1255.03 500.534C1255.51 499.994 1255.75 499.316 1255.75 498.5C1255.75 497.684 1255.51 497.012 1255.03 496.484C1254.56 495.944 1253.96 495.674 1253.21 495.674C1252.47 495.674 1251.86 495.944 1251.38 496.484C1250.91 497.012 1250.67 497.684 1250.67 498.5C1250.67 499.316 1250.91 499.994 1251.38 500.534Z" fill="white"/>
</svg>
