<svg width="1728" height="400" viewBox="0 0 1728 400" fill="none" xmlns="http://www.w3.org/2000/svg">
<path d="M628.966 81.81C628.966 80.73 628.816 79.56 628.516 78.3C628.276 76.98 627.766 75.78 626.986 74.7C626.266 73.62 625.246 72.72 623.926 72C622.606 71.22 620.926 70.83 618.886 70.83H586.396C584.296 70.83 582.586 71.22 581.266 72C580.006 72.72 578.986 73.62 578.206 74.7C577.486 75.78 576.976 76.98 576.676 78.3C576.436 79.56 576.316 80.73 576.316 81.81V97.11C576.316 98.31 575.896 99.33 575.056 100.17C574.216 101.01 573.196 101.43 571.996 101.43C570.796 101.43 569.776 101.01 568.936 100.17C568.096 99.33 567.676 98.31 567.676 97.11V81.81C567.676 79.53 568.036 77.25 568.756 74.97C569.536 72.63 570.646 70.53 572.086 68.67C573.526 66.75 575.266 65.19 577.306 63.99C579.346 62.79 581.656 62.19 584.236 62.19H621.946C624.406 62.31 626.596 63 628.516 64.26C630.436 65.46 632.056 66.99 633.376 68.85C634.756 70.71 635.806 72.78 636.526 75.06C637.246 77.34 637.606 79.59 637.606 81.81V97.11C637.606 98.31 637.186 99.33 636.346 100.17C635.506 101.01 634.486 101.43 633.286 101.43C632.086 101.43 631.066 101.01 630.226 100.17C629.386 99.33 628.966 98.31 628.966 97.11V81.81ZM655.242 70.83V77.49H705.192C706.092 77.49 706.872 77.19 707.532 76.59C708.252 75.93 708.612 75.12 708.612 74.16C708.612 73.26 708.252 72.48 707.532 71.82C706.872 71.16 706.092 70.83 705.192 70.83H655.242ZM704.832 62.19C706.512 62.19 708.072 62.52 709.512 63.18C711.012 63.78 712.302 64.62 713.382 65.7C714.522 66.78 715.392 68.04 715.992 69.48C716.652 70.92 716.982 72.48 716.982 74.16C716.982 75.84 716.652 77.4 715.992 78.84C715.392 80.28 714.522 81.54 713.382 82.62C712.302 83.7 711.012 84.57 709.512 85.23C708.072 85.83 706.512 86.13 704.832 86.13H655.242V97.11C655.242 98.31 654.792 99.33 653.892 100.17C653.052 101.01 652.062 101.43 650.922 101.43C649.722 101.43 648.702 101.01 647.862 100.17C647.022 99.33 646.602 98.31 646.602 97.11V66.51C646.602 65.31 647.022 64.29 647.862 63.45C648.702 62.61 649.722 62.19 650.922 62.19H704.832ZM780.777 92.79C782.817 92.79 784.497 92.43 785.817 91.71C787.137 90.93 788.157 90 788.877 88.92C789.657 87.84 790.167 86.67 790.407 85.41C790.707 84.09 790.857 82.89 790.857 81.81C790.857 80.73 790.707 79.56 790.407 78.3C790.167 76.98 789.657 75.78 788.877 74.7C788.157 73.62 787.137 72.72 785.817 72C784.497 71.22 782.817 70.83 780.777 70.83H744.417C742.317 70.83 740.607 71.22 739.287 72C738.027 72.72 737.007 73.62 736.227 74.7C735.507 75.78 734.997 76.98 734.697 78.3C734.457 79.56 734.337 80.73 734.337 81.81C734.337 82.89 734.457 84.09 734.697 85.41C734.997 86.67 735.507 87.84 736.227 88.92C737.007 90 738.027 90.93 739.287 91.71C740.607 92.43 742.317 92.79 744.417 92.79H780.777ZM799.227 81.81C799.227 84.09 798.837 86.4 798.057 88.74C797.337 91.02 796.257 93.12 794.817 95.04C793.377 96.9 791.637 98.43 789.597 99.63C787.557 100.83 785.247 101.43 782.667 101.43H741.627C739.167 101.31 736.977 100.65 735.057 99.45C733.137 98.19 731.487 96.63 730.107 94.77C728.787 92.91 727.767 90.84 727.047 88.56C726.327 86.28 725.967 84.03 725.967 81.81C725.967 79.53 726.327 77.25 727.047 74.97C727.827 72.63 728.937 70.53 730.377 68.67C731.817 66.75 733.557 65.19 735.597 63.99C737.637 62.79 739.947 62.19 742.527 62.19H783.567C786.027 62.31 788.217 63 790.137 64.26C792.057 65.46 793.677 66.99 794.997 68.85C796.377 70.71 797.427 72.78 798.147 75.06C798.867 77.34 799.227 79.59 799.227 81.81ZM816.872 92.79H866.822C867.722 92.79 868.502 92.46 869.162 91.8C869.882 91.14 870.242 90.36 870.242 89.46C870.242 88.5 869.882 87.72 869.162 87.12C868.502 86.46 867.722 86.13 866.822 86.13H816.872V92.79ZM816.872 70.83V77.49H866.912C867.812 77.49 868.592 77.19 869.252 76.59C869.912 75.99 870.242 75.21 870.242 74.25C870.242 73.35 869.882 72.57 869.162 71.91C868.502 71.19 867.722 70.83 866.822 70.83H816.872ZM812.552 101.43C811.352 101.43 810.332 101.01 809.492 100.17C808.652 99.33 808.232 98.31 808.232 97.11V66.51C808.232 65.31 808.652 64.29 809.492 63.45C810.332 62.61 811.352 62.19 812.552 62.19H866.462C868.142 62.19 869.702 62.52 871.142 63.18C872.642 63.78 873.932 64.62 875.012 65.7C876.152 66.78 877.022 68.07 877.622 69.57C878.282 71.01 878.612 72.57 878.612 74.25C878.612 75.75 878.342 77.16 877.802 78.48C877.322 79.74 876.662 80.88 875.822 81.9C876.662 82.92 877.322 84.09 877.802 85.41C878.342 86.67 878.612 88.02 878.612 89.46C878.612 91.14 878.282 92.7 877.622 94.14C877.022 95.58 876.152 96.84 875.012 97.92C873.932 99 872.642 99.87 871.142 100.53C869.702 101.13 868.142 101.43 866.462 101.43H812.552ZM942.408 92.79C944.448 92.79 946.128 92.43 947.448 91.71C948.768 90.93 949.788 90 950.508 88.92C951.288 87.84 951.798 86.67 952.038 85.41C952.338 84.09 952.488 82.89 952.488 81.81C952.488 80.73 952.338 79.56 952.038 78.3C951.798 76.98 951.288 75.78 950.508 74.7C949.788 73.62 948.768 72.72 947.448 72C946.128 71.22 944.448 70.83 942.408 70.83H906.048C903.948 70.83 902.238 71.22 900.918 72C899.658 72.72 898.638 73.62 897.858 74.7C897.138 75.78 896.628 76.98 896.328 78.3C896.088 79.56 895.968 80.73 895.968 81.81C895.968 82.89 896.088 84.09 896.328 85.41C896.628 86.67 897.138 87.84 897.858 88.92C898.638 90 899.658 90.93 900.918 91.71C902.238 92.43 903.948 92.79 906.048 92.79H942.408ZM960.858 81.81C960.858 84.09 960.468 86.4 959.688 88.74C958.968 91.02 957.888 93.12 956.448 95.04C955.008 96.9 953.268 98.43 951.228 99.63C949.188 100.83 946.878 101.43 944.298 101.43H903.258C900.798 101.31 898.608 100.65 896.688 99.45C894.768 98.19 893.118 96.63 891.738 94.77C890.418 92.91 889.398 90.84 888.678 88.56C887.958 86.28 887.598 84.03 887.598 81.81C887.598 79.53 887.958 77.25 888.678 74.97C889.458 72.63 890.568 70.53 892.008 68.67C893.448 66.75 895.188 65.19 897.228 63.99C899.268 62.79 901.578 62.19 904.158 62.19H945.198C947.658 62.31 949.848 63 951.768 64.26C953.688 65.46 955.308 66.99 956.628 68.85C958.008 70.71 959.058 72.78 959.778 75.06C960.498 77.34 960.858 79.59 960.858 81.81ZM1004.42 97.92C1004.42 96.36 1004.96 95.04 1006.04 93.96C1007.12 92.88 1008.44 92.34 1010 92.34C1011.56 92.34 1012.88 92.88 1013.96 93.96C1015.04 95.04 1015.58 96.36 1015.58 97.92C1015.58 99.48 1015.04 100.8 1013.96 101.88C1012.88 102.96 1011.56 103.5 1010 103.5C1008.44 103.5 1007.12 102.96 1006.04 101.88C1004.96 100.8 1004.42 99.48 1004.42 97.92ZM990.473 94.86H992.723C993.923 94.86 994.943 95.28 995.783 96.12C996.623 96.96 997.043 97.98 997.043 99.18C997.043 100.38 996.623 101.4 995.783 102.24C994.943 103.08 993.923 103.5 992.723 103.5H973.553C972.473 103.38 971.543 102.93 970.763 102.15C969.983 101.31 969.593 100.32 969.593 99.18C969.593 97.98 970.013 96.96 970.853 96.12C971.693 95.28 972.713 94.86 973.913 94.86H979.763L1000.91 66.6C1001.99 65.22 1003.31 64.14 1004.87 63.36C1006.49 62.58 1008.2 62.19 1010 62.19C1011.92 62.19 1013.69 62.64 1015.31 63.54C1016.99 64.38 1018.37 65.49 1019.45 66.87L1040.24 94.86H1045.64C1046.84 94.86 1047.86 95.28 1048.7 96.12C1049.54 96.96 1049.96 97.98 1049.96 99.18C1049.96 100.38 1049.54 101.4 1048.7 102.24C1047.86 103.08 1046.84 103.5 1045.64 103.5H1026.47C1025.39 103.38 1024.46 102.93 1023.68 102.15C1022.9 101.31 1022.51 100.32 1022.51 99.18C1022.51 97.98 1022.93 96.96 1023.77 96.12C1024.61 95.28 1025.63 94.86 1026.83 94.86H1029.53L1013.42 73.53C1013.06 73.05 1012.55 72.54 1011.89 72C1011.29 71.4 1010.66 71.1 1010 71.1C1009.34 71.1 1008.68 71.4 1008.02 72C1007.42 72.54 1006.91 73.05 1006.49 73.53L990.473 94.86ZM1066.22 84.24C1066.22 86.4 1066.34 88.05 1066.58 89.19C1066.82 90.33 1067.39 90.9 1068.29 90.9C1068.77 90.9 1069.37 90.72 1070.09 90.36C1070.87 89.94 1071.83 89.4 1072.97 88.74L1114.19 63.54C1114.85 63.12 1115.57 62.79 1116.35 62.55C1117.19 62.31 1118.03 62.19 1118.87 62.19C1121.33 62.19 1123.37 63.03 1124.99 64.71C1126.67 66.39 1127.51 68.46 1127.51 70.92V97.11C1127.51 98.31 1127.09 99.33 1126.25 100.17C1125.41 101.01 1124.39 101.43 1123.19 101.43C1121.99 101.43 1120.97 101.01 1120.13 100.17C1119.29 99.33 1118.87 98.31 1118.87 97.11V79.38C1118.87 77.22 1118.75 75.57 1118.51 74.43C1118.27 73.29 1117.7 72.72 1116.8 72.72C1116.32 72.72 1115.69 72.93 1114.91 73.35C1114.19 73.71 1113.26 74.22 1112.12 74.88L1070.9 100.08C1070.24 100.5 1069.49 100.83 1068.65 101.07C1067.87 101.31 1067.06 101.43 1066.22 101.43C1063.76 101.43 1061.69 100.59 1060.01 98.91C1058.39 97.23 1057.58 95.16 1057.58 92.7V66.51C1057.58 65.31 1058 64.29 1058.84 63.45C1059.68 62.61 1060.7 62.19 1061.9 62.19C1063.1 62.19 1064.12 62.61 1064.96 63.45C1065.8 64.29 1066.22 65.31 1066.22 66.51V84.24ZM1212.46 97.11C1212.46 98.31 1212.04 99.33 1211.2 100.17C1210.36 101.01 1209.34 101.43 1208.14 101.43C1206.94 101.43 1205.92 101.01 1205.08 100.17C1204.24 99.33 1203.82 98.31 1203.82 97.11V77.49C1203.82 75.03 1203.67 73.8 1203.37 73.8C1203.13 73.8 1202.29 74.61 1200.85 76.23L1181.05 98.73C1180.27 99.63 1179.31 100.32 1178.17 100.8C1177.03 101.22 1175.8 101.43 1174.48 101.43C1173.16 101.43 1171.93 101.22 1170.79 100.8C1169.65 100.32 1168.69 99.63 1167.91 98.73L1148.11 76.23C1146.73 74.61 1145.89 73.8 1145.59 73.8C1145.29 73.8 1145.14 75.03 1145.14 77.49V97.11C1145.14 98.31 1144.72 99.33 1143.88 100.17C1143.04 101.01 1142.02 101.43 1140.82 101.43C1139.62 101.43 1138.6 101.01 1137.76 100.17C1136.92 99.33 1136.5 98.31 1136.5 97.11V70.83C1136.5 68.43 1137.19 66.39 1138.57 64.71C1139.95 63.03 1141.84 62.19 1144.24 62.19C1145.68 62.19 1146.97 62.55 1148.11 63.27C1149.25 63.99 1150.3 64.86 1151.26 65.88L1171.96 89.46C1172.26 89.76 1172.62 90.09 1173.04 90.45C1173.52 90.75 1174 90.9 1174.48 90.9C1174.96 90.9 1175.41 90.75 1175.83 90.45C1176.31 90.09 1176.7 89.76 1177 89.46L1197.61 65.88H1197.7C1198.54 64.74 1199.56 63.84 1200.76 63.18C1201.96 62.52 1203.28 62.19 1204.72 62.19C1207.12 62.19 1209.01 63.03 1210.39 64.71C1211.77 66.39 1212.46 68.43 1212.46 70.83V97.11ZM171.14 204.24C171.14 206.4 171.26 208.05 171.5 209.19C171.74 210.33 172.31 210.9 173.21 210.9C173.69 210.9 174.29 210.72 175.01 210.36C175.79 209.94 176.75 209.4 177.89 208.74L219.11 183.54C219.77 183.12 220.49 182.79 221.27 182.55C222.11 182.31 222.95 182.19 223.79 182.19C226.25 182.19 228.29 183.03 229.91 184.71C231.59 186.39 232.43 188.46 232.43 190.92V217.11C232.43 218.31 232.01 219.33 231.17 220.17C230.33 221.01 229.31 221.43 228.11 221.43C226.91 221.43 225.89 221.01 225.05 220.17C224.21 219.33 223.79 218.31 223.79 217.11V199.38C223.79 197.22 223.67 195.57 223.43 194.43C223.19 193.29 222.62 192.72 221.72 192.72C221.24 192.72 220.61 192.93 219.83 193.35C219.11 193.71 218.18 194.22 217.04 194.88L175.82 220.08C175.16 220.5 174.41 220.83 173.57 221.07C172.79 221.31 171.98 221.43 171.14 221.43C168.68 221.43 166.61 220.59 164.93 218.91C163.31 217.23 162.5 215.16 162.5 212.7V186.51C162.5 185.31 162.92 184.29 163.76 183.45C164.6 182.61 165.62 182.19 166.82 182.19C168.02 182.19 169.04 182.61 169.88 183.45C170.72 184.29 171.14 185.31 171.14 186.51V204.24ZM241.426 201.81C241.426 199.53 241.786 197.25 242.506 194.97C243.286 192.63 244.396 190.53 245.836 188.67C247.276 186.75 249.016 185.19 251.056 183.99C253.096 182.79 255.406 182.19 257.986 182.19H310.456C311.656 182.19 312.676 182.61 313.516 183.45C314.356 184.29 314.776 185.31 314.776 186.51C314.776 187.71 314.356 188.73 313.516 189.57C312.676 190.41 311.656 190.83 310.456 190.83H259.876C257.776 190.83 256.066 191.22 254.746 192C253.486 192.72 252.466 193.62 251.686 194.7C250.966 195.78 250.456 196.98 250.156 198.3C249.916 199.56 249.796 200.73 249.796 201.81C249.796 202.89 249.916 204.09 250.156 205.41C250.456 206.67 250.966 207.84 251.686 208.92C252.466 210 253.486 210.93 254.746 211.71C256.066 212.43 257.776 212.79 259.876 212.79H310.456C311.656 212.79 312.676 213.21 313.516 214.05C314.356 214.89 314.776 215.91 314.776 217.11C314.776 218.31 314.356 219.33 313.516 220.17C312.676 221.01 311.656 221.43 310.456 221.43H257.086C254.626 221.43 252.436 220.83 250.516 219.63C248.596 218.43 246.946 216.9 245.566 215.04C244.246 213.12 243.226 210.99 242.506 208.65C241.786 206.31 241.426 204.03 241.426 201.81ZM323.779 201.81C323.779 199.53 324.139 197.25 324.859 194.97C325.639 192.63 326.749 190.53 328.189 188.67C329.629 186.75 331.369 185.19 333.409 183.99C335.449 182.79 337.759 182.19 340.339 182.19H392.809C394.009 182.19 395.029 182.61 395.869 183.45C396.709 184.29 397.129 185.31 397.129 186.51C397.129 187.71 396.709 188.73 395.869 189.57C395.029 190.41 394.009 190.83 392.809 190.83H342.229C340.129 190.83 338.419 191.22 337.099 192C335.839 192.72 334.819 193.62 334.039 194.7C333.319 195.78 332.809 196.98 332.509 198.3C332.269 199.56 332.149 200.73 332.149 201.81C332.149 202.89 332.269 204.09 332.509 205.41C332.809 206.67 333.319 207.84 334.039 208.92C334.819 210 335.839 210.93 337.099 211.71C338.419 212.43 340.129 212.79 342.229 212.79H392.809C394.009 212.79 395.029 213.21 395.869 214.05C396.709 214.89 397.129 215.91 397.129 217.11C397.129 218.31 396.709 219.33 395.869 220.17C395.029 221.01 394.009 221.43 392.809 221.43H339.439C336.979 221.43 334.789 220.83 332.869 219.63C330.949 218.43 329.299 216.9 327.919 215.04C326.599 213.12 325.579 210.99 324.859 208.65C324.139 206.31 323.779 204.03 323.779 201.81ZM413.783 219.81C412.883 220.89 411.773 221.43 410.453 221.43C409.253 221.43 408.233 221.01 407.393 220.17C406.553 219.33 406.133 218.31 406.133 217.11C406.133 216.03 406.433 215.16 407.033 214.5L428.903 185.07C429.923 183.69 431.273 182.58 432.953 181.74C434.633 180.84 436.433 180.39 438.353 180.39C440.153 180.39 441.863 180.78 443.483 181.56C445.103 182.34 446.423 183.42 447.443 184.8L469.313 214.05C469.673 214.47 469.973 214.95 470.213 215.49C470.453 215.97 470.573 216.51 470.573 217.11C470.573 218.31 470.153 219.33 469.313 220.17C468.473 221.01 467.453 221.43 466.253 221.43C464.813 221.43 463.673 220.86 462.833 219.72L441.863 191.73C441.443 191.25 440.903 190.74 440.243 190.2C439.643 189.6 439.013 189.3 438.353 189.3C437.693 189.3 437.033 189.6 436.373 190.2C435.773 190.74 435.293 191.25 434.933 191.73L413.783 219.81ZM479.609 186.51C479.609 185.31 480.029 184.29 480.869 183.45C481.709 182.61 482.729 182.19 483.929 182.19H547.739C548.939 182.19 549.959 182.61 550.799 183.45C551.639 184.29 552.059 185.31 552.059 186.51C552.059 187.71 551.639 188.73 550.799 189.57C549.959 190.41 548.939 190.83 547.739 190.83H483.929C482.729 190.83 481.709 190.41 480.869 189.57C480.029 188.73 479.609 187.71 479.609 186.51ZM490.589 221.43C489.269 221.43 487.949 221.16 486.629 220.62C485.309 220.02 484.139 219.21 483.119 218.19C482.099 217.17 481.259 215.94 480.599 214.5C479.939 213.06 479.609 211.44 479.609 209.64V201.54C479.609 199.92 480.059 198.84 480.959 198.3C481.919 197.76 483.389 197.49 485.369 197.49H545.759C546.959 197.49 547.979 197.91 548.819 198.75C549.659 199.59 550.079 200.61 550.079 201.81C550.079 203.01 549.659 204.03 548.819 204.87C547.979 205.71 546.959 206.13 545.759 206.13H488.249V210.54C488.249 211.14 488.489 211.68 488.969 212.16C489.509 212.58 490.199 212.79 491.039 212.79H547.739C548.939 212.79 549.959 213.21 550.799 214.05C551.639 214.89 552.059 215.91 552.059 217.11C552.059 218.31 551.639 219.33 550.799 220.17C549.959 221.01 548.939 221.43 547.739 221.43H490.589ZM595.644 217.92C595.644 216.36 596.184 215.04 597.264 213.96C598.344 212.88 599.664 212.34 601.224 212.34C602.784 212.34 604.104 212.88 605.184 213.96C606.264 215.04 606.804 216.36 606.804 217.92C606.804 219.48 606.264 220.8 605.184 221.88C604.104 222.96 602.784 223.5 601.224 223.5C599.664 223.5 598.344 222.96 597.264 221.88C596.184 220.8 595.644 219.48 595.644 217.92ZM581.694 214.86H583.944C585.144 214.86 586.164 215.28 587.004 216.12C587.844 216.96 588.264 217.98 588.264 219.18C588.264 220.38 587.844 221.4 587.004 222.24C586.164 223.08 585.144 223.5 583.944 223.5H564.774C563.694 223.38 562.764 222.93 561.984 222.15C561.204 221.31 560.814 220.32 560.814 219.18C560.814 217.98 561.234 216.96 562.074 216.12C562.914 215.28 563.934 214.86 565.134 214.86H570.984L592.134 186.6C593.214 185.22 594.534 184.14 596.094 183.36C597.714 182.58 599.424 182.19 601.224 182.19C603.144 182.19 604.914 182.64 606.534 183.54C608.214 184.38 609.594 185.49 610.674 186.87L631.464 214.86H636.864C638.064 214.86 639.084 215.28 639.924 216.12C640.764 216.96 641.184 217.98 641.184 219.18C641.184 220.38 640.764 221.4 639.924 222.24C639.084 223.08 638.064 223.5 636.864 223.5H617.694C616.614 223.38 615.684 222.93 614.904 222.15C614.124 221.31 613.734 220.32 613.734 219.18C613.734 217.98 614.154 216.96 614.994 216.12C615.834 215.28 616.854 214.86 618.054 214.86H620.754L604.644 193.53C604.284 193.05 603.774 192.54 603.114 192C602.514 191.4 601.884 191.1 601.224 191.1C600.564 191.1 599.904 191.4 599.244 192C598.644 192.54 598.134 193.05 597.714 193.53L581.694 214.86ZM703.609 212.79C705.649 212.79 707.329 212.43 708.649 211.71C709.969 210.93 710.989 210 711.709 208.92C712.489 207.84 712.999 206.67 713.239 205.41C713.539 204.09 713.689 202.89 713.689 201.81C713.689 200.73 713.539 199.56 713.239 198.3C712.999 196.98 712.489 195.78 711.709 194.7C710.989 193.62 709.969 192.72 708.649 192C707.329 191.22 705.649 190.83 703.609 190.83H667.249C665.149 190.83 663.439 191.22 662.119 192C660.859 192.72 659.839 193.62 659.059 194.7C658.339 195.78 657.829 196.98 657.529 198.3C657.289 199.56 657.169 200.73 657.169 201.81C657.169 202.89 657.289 204.09 657.529 205.41C657.829 206.67 658.339 207.84 659.059 208.92C659.839 210 660.859 210.93 662.119 211.71C663.439 212.43 665.149 212.79 667.249 212.79H703.609ZM722.059 201.81C722.059 204.09 721.669 206.4 720.889 208.74C720.169 211.02 719.089 213.12 717.649 215.04C716.209 216.9 714.469 218.43 712.429 219.63C710.389 220.83 708.079 221.43 705.499 221.43H664.459C661.999 221.31 659.809 220.65 657.889 219.45C655.969 218.19 654.319 216.63 652.939 214.77C651.619 212.91 650.599 210.84 649.879 208.56C649.159 206.28 648.799 204.03 648.799 201.81C648.799 199.53 649.159 197.25 649.879 194.97C650.659 192.63 651.769 190.53 653.209 188.67C654.649 186.75 656.389 185.19 658.429 183.99C660.469 182.79 662.779 182.19 665.359 182.19H706.399C708.859 182.31 711.049 183 712.969 184.26C714.889 185.46 716.509 186.99 717.829 188.85C719.209 190.71 720.259 192.78 720.979 195.06C721.699 197.34 722.059 199.59 722.059 201.81ZM739.704 212.79H789.654C790.554 212.79 791.334 212.46 791.994 211.8C792.714 211.14 793.074 210.36 793.074 209.46C793.074 208.5 792.714 207.72 791.994 207.12C791.334 206.46 790.554 206.13 789.654 206.13H739.704V212.79ZM739.704 190.83V197.49H789.744C790.644 197.49 791.424 197.19 792.084 196.59C792.744 195.99 793.074 195.21 793.074 194.25C793.074 193.35 792.714 192.57 791.994 191.91C791.334 191.19 790.554 190.83 789.654 190.83H739.704ZM735.384 221.43C734.184 221.43 733.164 221.01 732.324 220.17C731.484 219.33 731.064 218.31 731.064 217.11V186.51C731.064 185.31 731.484 184.29 732.324 183.45C733.164 182.61 734.184 182.19 735.384 182.19H789.294C790.974 182.19 792.534 182.52 793.974 183.18C795.474 183.78 796.764 184.62 797.844 185.7C798.984 186.78 799.854 188.07 800.454 189.57C801.114 191.01 801.444 192.57 801.444 194.25C801.444 195.75 801.174 197.16 800.634 198.48C800.154 199.74 799.494 200.88 798.654 201.9C799.494 202.92 800.154 204.09 800.634 205.41C801.174 206.67 801.444 208.02 801.444 209.46C801.444 211.14 801.114 212.7 800.454 214.14C799.854 215.58 798.984 216.84 797.844 217.92C796.764 219 795.474 219.87 793.974 220.53C792.534 221.13 790.974 221.43 789.294 221.43H735.384ZM829.87 204.15H855.43L846.16 191.73C845.74 191.25 845.2 190.74 844.54 190.2C843.94 189.6 843.31 189.3 842.65 189.3C841.99 189.3 841.33 189.6 840.67 190.2C840.07 190.74 839.59 191.25 839.23 191.73L829.87 204.15ZM861.91 212.79H823.3L818.08 219.81C817.18 220.89 816.07 221.43 814.75 221.43C813.55 221.43 812.53 221.01 811.69 220.17C810.85 219.33 810.43 218.31 810.43 217.11C810.43 216.03 810.73 215.16 811.33 214.5L833.2 185.07C834.22 183.69 835.57 182.58 837.25 181.74C838.93 180.84 840.73 180.39 842.65 180.39C844.45 180.39 846.16 180.78 847.78 181.56C849.4 182.34 850.72 183.42 851.74 184.8L873.61 214.05C873.97 214.47 874.27 214.95 874.51 215.49C874.75 215.97 874.87 216.51 874.87 217.11C874.87 218.31 874.45 219.33 873.61 220.17C872.77 221.01 871.75 221.43 870.55 221.43C869.11 221.43 867.97 220.86 867.13 219.72L861.91 212.79ZM954.376 217.11C954.376 218.31 953.956 219.33 953.116 220.17C952.276 221.01 951.256 221.43 950.056 221.43C948.856 221.43 947.836 221.01 946.996 220.17C946.156 219.33 945.736 218.31 945.736 217.11V206.13H892.546V217.11C892.546 218.31 892.126 219.33 891.286 220.17C890.446 221.01 889.426 221.43 888.226 221.43C887.026 221.43 886.006 221.01 885.166 220.17C884.326 219.33 883.906 218.31 883.906 217.11V186.51C883.906 185.31 884.326 184.29 885.166 183.45C886.006 182.61 887.026 182.19 888.226 182.19C889.426 182.19 890.446 182.61 891.286 183.45C892.126 184.29 892.546 185.31 892.546 186.51V197.49H945.736V186.51C945.736 185.31 946.156 184.29 946.996 183.45C947.836 182.61 948.856 182.19 950.056 182.19C951.256 182.19 952.276 182.61 953.116 183.45C953.956 184.29 954.376 185.31 954.376 186.51V217.11ZM971.999 204.24C971.999 206.4 972.119 208.05 972.359 209.19C972.599 210.33 973.169 210.9 974.069 210.9C974.549 210.9 975.149 210.72 975.869 210.36C976.649 209.94 977.609 209.4 978.749 208.74L1019.97 183.54C1020.63 183.12 1021.35 182.79 1022.13 182.55C1022.97 182.31 1023.81 182.19 1024.65 182.19C1027.11 182.19 1029.15 183.03 1030.77 184.71C1032.45 186.39 1033.29 188.46 1033.29 190.92V217.11C1033.29 218.31 1032.87 219.33 1032.03 220.17C1031.19 221.01 1030.17 221.43 1028.97 221.43C1027.77 221.43 1026.75 221.01 1025.91 220.17C1025.07 219.33 1024.65 218.31 1024.65 217.11V199.38C1024.65 197.22 1024.53 195.57 1024.29 194.43C1024.05 193.29 1023.48 192.72 1022.58 192.72C1022.1 192.72 1021.47 192.93 1020.69 193.35C1019.97 193.71 1019.04 194.22 1017.9 194.88L976.679 220.08C976.019 220.5 975.269 220.83 974.429 221.07C973.649 221.31 972.839 221.43 971.999 221.43C969.539 221.43 967.469 220.59 965.789 218.91C964.169 217.23 963.359 215.16 963.359 212.7V186.51C963.359 185.31 963.779 184.29 964.619 183.45C965.459 182.61 966.479 182.19 967.679 182.19C968.879 182.19 969.899 182.61 970.739 183.45C971.579 184.29 971.999 185.31 971.999 186.51V204.24ZM1042.29 217.11C1042.29 216.27 1042.59 215.46 1043.19 214.68C1045.35 211.5 1047.78 208.83 1050.48 206.67C1053.24 204.45 1056.33 202.68 1059.75 201.36C1063.23 199.98 1067.1 198.99 1071.36 198.39C1075.62 197.79 1080.39 197.49 1085.67 197.49H1104.03V192.81C1103.91 192.27 1103.61 191.82 1103.13 191.46C1102.65 191.04 1102.02 190.83 1101.24 190.83H1054.08C1053.24 190.95 1052.49 191.31 1051.83 191.91C1051.23 192.51 1050.93 193.26 1050.93 194.16C1050.93 195.36 1050.51 196.38 1049.67 197.22C1048.83 198.06 1047.81 198.48 1046.61 198.48C1045.41 198.48 1044.39 198.06 1043.55 197.22C1042.71 196.38 1042.29 195.36 1042.29 194.16C1042.29 192.48 1042.62 190.92 1043.28 189.48C1043.94 188.04 1044.84 186.78 1045.98 185.7C1047.12 184.62 1048.44 183.78 1049.94 183.18C1051.44 182.52 1053.03 182.19 1054.71 182.19H1101.69C1103.01 182.19 1104.33 182.49 1105.65 183.09C1106.97 183.63 1108.14 184.41 1109.16 185.43C1110.18 186.45 1111.02 187.68 1111.68 189.12C1112.34 190.56 1112.67 192.18 1112.67 193.98V217.11C1112.67 218.31 1112.25 219.33 1111.41 220.17C1110.57 221.01 1109.55 221.43 1108.35 221.43C1107.21 221.43 1106.19 221.01 1105.29 220.17C1104.45 219.33 1104.03 218.31 1104.03 217.11V206.13H1085.67C1082.01 206.13 1078.56 206.25 1075.32 206.49C1072.14 206.67 1069.11 207.21 1066.23 208.11C1063.35 209.01 1060.59 210.33 1057.95 212.07C1055.37 213.81 1052.85 216.21 1050.39 219.27C1050.21 219.51 1049.94 219.81 1049.58 220.17C1049.16 220.53 1048.71 220.83 1048.23 221.07C1047.75 221.31 1047.21 221.43 1046.61 221.43C1045.41 221.43 1044.39 221.01 1043.55 220.17C1042.71 219.33 1042.29 218.31 1042.29 217.11Z" fill="white"/>
<path d="M587.167 333.79H637.117C638.017 333.79 638.797 333.46 639.457 332.8C640.177 332.14 640.537 331.36 640.537 330.46C640.537 329.5 640.177 328.72 639.457 328.12C638.797 327.46 638.017 327.13 637.117 327.13H587.167V333.79ZM587.167 311.83V318.49H637.207C638.107 318.49 638.887 318.19 639.547 317.59C640.207 316.99 640.537 316.21 640.537 315.25C640.537 314.35 640.177 313.57 639.457 312.91C638.797 312.19 638.017 311.83 637.117 311.83H587.167ZM582.847 342.43C581.647 342.43 580.627 342.01 579.787 341.17C578.947 340.33 578.527 339.31 578.527 338.11V307.51C578.527 306.31 578.947 305.29 579.787 304.45C580.627 303.61 581.647 303.19 582.847 303.19H636.757C638.437 303.19 639.997 303.52 641.437 304.18C642.937 304.78 644.227 305.62 645.307 306.7C646.447 307.78 647.317 309.07 647.917 310.57C648.577 312.01 648.907 313.57 648.907 315.25C648.907 316.75 648.637 318.16 648.097 319.48C647.617 320.74 646.957 321.88 646.117 322.9C646.957 323.92 647.617 325.09 648.097 326.41C648.637 327.67 648.907 329.02 648.907 330.46C648.907 332.14 648.577 333.7 647.917 335.14C647.317 336.58 646.447 337.84 645.307 338.92C644.227 340 642.937 340.87 641.437 341.53C639.997 342.13 638.437 342.43 636.757 342.43H582.847ZM707.05 333.79H757C757.9 333.79 758.68 333.46 759.34 332.8C760.06 332.14 760.42 331.36 760.42 330.46C760.42 329.5 760.06 328.72 759.34 328.12C758.68 327.46 757.9 327.13 757 327.13H707.05V333.79ZM707.05 311.83V318.49H757.09C757.99 318.49 758.77 318.19 759.43 317.59C760.09 316.99 760.42 316.21 760.42 315.25C760.42 314.35 760.06 313.57 759.34 312.91C758.68 312.19 757.9 311.83 757 311.83H707.05ZM702.73 342.43C701.53 342.43 700.51 342.01 699.67 341.17C698.83 340.33 698.41 339.31 698.41 338.11V307.51C698.41 306.31 698.83 305.29 699.67 304.45C700.51 303.61 701.53 303.19 702.73 303.19H756.64C758.32 303.19 759.88 303.52 761.32 304.18C762.82 304.78 764.11 305.62 765.19 306.7C766.33 307.78 767.2 309.07 767.8 310.57C768.46 312.01 768.79 313.57 768.79 315.25C768.79 316.75 768.52 318.16 767.98 319.48C767.5 320.74 766.84 321.88 766 322.9C766.84 323.92 767.5 325.09 767.98 326.41C768.52 327.67 768.79 329.02 768.79 330.46C768.79 332.14 768.46 333.7 767.8 335.14C767.2 336.58 766.33 337.84 765.19 338.92C764.11 340 762.82 340.87 761.32 341.53C759.88 342.13 758.32 342.43 756.64 342.43H702.73ZM797.215 325.15H822.775L813.505 312.73C813.085 312.25 812.545 311.74 811.885 311.2C811.285 310.6 810.655 310.3 809.995 310.3C809.335 310.3 808.675 310.6 808.015 311.2C807.415 311.74 806.935 312.25 806.575 312.73L797.215 325.15ZM829.255 333.79H790.645L785.425 340.81C784.525 341.89 783.415 342.43 782.095 342.43C780.895 342.43 779.875 342.01 779.035 341.17C778.195 340.33 777.775 339.31 777.775 338.11C777.775 337.03 778.075 336.16 778.675 335.5L800.545 306.07C801.565 304.69 802.915 303.58 804.595 302.74C806.275 301.84 808.075 301.39 809.995 301.39C811.795 301.39 813.505 301.78 815.125 302.56C816.745 303.34 818.065 304.42 819.085 305.8L840.955 335.05C841.315 335.47 841.615 335.95 841.855 336.49C842.095 336.97 842.215 337.51 842.215 338.11C842.215 339.31 841.795 340.33 840.955 341.17C840.115 342.01 839.095 342.43 837.895 342.43C836.455 342.43 835.315 341.86 834.475 340.72L829.255 333.79ZM891.482 333.79H902.462C904.502 333.79 906.182 333.43 907.502 332.71C908.822 331.93 909.842 331 910.562 329.92C911.342 328.84 911.852 327.67 912.092 326.41C912.392 325.09 912.542 323.89 912.542 322.81V307.51C912.542 306.31 912.962 305.29 913.802 304.45C914.642 303.61 915.662 303.19 916.862 303.19C918.062 303.19 919.082 303.61 919.922 304.45C920.762 305.29 921.182 306.31 921.182 307.51V322.81C921.182 325.03 920.822 327.28 920.102 329.56C919.382 331.84 918.332 333.91 916.952 335.77C915.632 337.63 914.012 339.19 912.092 340.45C910.172 341.65 907.982 342.31 905.522 342.43H867.812C865.232 342.43 862.922 341.83 860.882 340.63C858.842 339.43 857.102 337.9 855.662 336.04C854.222 334.12 853.112 332.02 852.332 329.74C851.612 327.4 851.252 325.09 851.252 322.81V307.51C851.252 306.31 851.672 305.29 852.512 304.45C853.352 303.61 854.372 303.19 855.572 303.19C856.772 303.19 857.792 303.61 858.632 304.45C859.472 305.29 859.892 306.31 859.892 307.51V322.81C859.892 323.89 860.012 325.09 860.252 326.41C860.552 327.67 861.062 328.84 861.782 329.92C862.562 331 863.582 331.93 864.842 332.71C866.162 333.43 867.872 333.79 869.972 333.79H882.842V307.51C882.842 306.31 883.262 305.29 884.102 304.45C884.942 303.61 885.962 303.19 887.162 303.19C888.362 303.19 889.382 303.61 890.222 304.45C891.062 305.29 891.482 306.31 891.482 307.51V333.79ZM930.178 307.51C930.178 306.31 930.598 305.29 931.438 304.45C932.278 303.61 933.298 303.19 934.498 303.19H998.308C999.508 303.19 1000.53 303.61 1001.37 304.45C1002.21 305.29 1002.63 306.31 1002.63 307.51C1002.63 308.71 1002.21 309.73 1001.37 310.57C1000.53 311.41 999.508 311.83 998.308 311.83H934.498C933.298 311.83 932.278 311.41 931.438 310.57C930.598 309.73 930.178 308.71 930.178 307.51ZM941.158 342.43C939.838 342.43 938.518 342.16 937.198 341.62C935.878 341.02 934.708 340.21 933.688 339.19C932.668 338.17 931.828 336.94 931.168 335.5C930.508 334.06 930.178 332.44 930.178 330.64V322.54C930.178 320.92 930.628 319.84 931.528 319.3C932.488 318.76 933.958 318.49 935.938 318.49H996.328C997.528 318.49 998.548 318.91 999.388 319.75C1000.23 320.59 1000.65 321.61 1000.65 322.81C1000.65 324.01 1000.23 325.03 999.388 325.87C998.548 326.71 997.528 327.13 996.328 327.13H938.818V331.54C938.818 332.14 939.058 332.68 939.538 333.16C940.078 333.58 940.768 333.79 941.608 333.79H998.308C999.508 333.79 1000.53 334.21 1001.37 335.05C1002.21 335.89 1002.63 336.91 1002.63 338.11C1002.63 339.31 1002.21 340.33 1001.37 341.17C1000.53 342.01 999.508 342.43 998.308 342.43H941.158ZM1020.29 325.24C1020.29 327.4 1020.41 329.05 1020.65 330.19C1020.89 331.33 1021.46 331.9 1022.36 331.9C1022.84 331.9 1023.44 331.72 1024.16 331.36C1024.94 330.94 1025.9 330.4 1027.04 329.74L1068.26 304.54C1068.92 304.12 1069.64 303.79 1070.42 303.55C1071.26 303.31 1072.1 303.19 1072.94 303.19C1075.4 303.19 1077.44 304.03 1079.06 305.71C1080.74 307.39 1081.58 309.46 1081.58 311.92V338.11C1081.58 339.31 1081.16 340.33 1080.32 341.17C1079.48 342.01 1078.46 342.43 1077.26 342.43C1076.06 342.43 1075.04 342.01 1074.2 341.17C1073.36 340.33 1072.94 339.31 1072.94 338.11V320.38C1072.94 318.22 1072.82 316.57 1072.58 315.43C1072.34 314.29 1071.77 313.72 1070.87 313.72C1070.39 313.72 1069.76 313.93 1068.98 314.35C1068.26 314.71 1067.33 315.22 1066.19 315.88L1024.97 341.08C1024.31 341.5 1023.56 341.83 1022.72 342.07C1021.94 342.31 1021.13 342.43 1020.29 342.43C1017.83 342.43 1015.76 341.59 1014.08 339.91C1012.46 338.23 1011.65 336.16 1011.65 333.7V307.51C1011.65 306.31 1012.07 305.29 1012.91 304.45C1013.75 303.61 1014.77 303.19 1015.97 303.19C1017.17 303.19 1018.19 303.61 1019.03 304.45C1019.87 305.29 1020.29 306.31 1020.29 307.51V325.24ZM1034.24 287.89C1034.24 286.69 1034.66 285.67 1035.5 284.83C1036.4 283.93 1037.45 283.48 1038.65 283.48C1039.85 283.48 1040.84 283.93 1041.62 284.83L1047.47 290.59L1053.32 284.83C1054.1 283.93 1055.09 283.48 1056.29 283.48C1057.49 283.48 1058.51 283.93 1059.35 284.83C1060.25 285.67 1060.7 286.69 1060.7 287.89C1060.7 289.09 1060.25 290.14 1059.35 291.04L1050.8 299.68L1050.53 299.86C1049.81 300.7 1048.79 301.12 1047.47 301.12C1046.15 301.12 1045.13 300.7 1044.41 299.86L1044.14 299.68L1035.59 291.04C1034.69 290.14 1034.24 289.09 1034.24 287.89ZM1185.91 333.79C1187.95 333.79 1189.63 333.43 1190.95 332.71C1192.27 331.93 1193.29 331 1194.01 329.92C1194.79 328.84 1195.3 327.67 1195.54 326.41C1195.84 325.09 1195.99 323.89 1195.99 322.81C1195.99 321.73 1195.84 320.56 1195.54 319.3C1195.3 317.98 1194.79 316.78 1194.01 315.7C1193.29 314.62 1192.27 313.72 1190.95 313C1189.63 312.22 1187.95 311.83 1185.91 311.83H1149.55C1147.45 311.83 1145.74 312.22 1144.42 313C1143.16 313.72 1142.14 314.62 1141.36 315.7C1140.64 316.78 1140.13 317.98 1139.83 319.3C1139.59 320.56 1139.47 321.73 1139.47 322.81C1139.47 323.89 1139.59 325.09 1139.83 326.41C1140.13 327.67 1140.64 328.84 1141.36 329.92C1142.14 331 1143.16 331.93 1144.42 332.71C1145.74 333.43 1147.45 333.79 1149.55 333.79H1185.91ZM1204.36 322.81C1204.36 325.09 1203.97 327.4 1203.19 329.74C1202.47 332.02 1201.39 334.12 1199.95 336.04C1198.51 337.9 1196.77 339.43 1194.73 340.63C1192.69 341.83 1190.38 342.43 1187.8 342.43H1146.76C1144.3 342.31 1142.11 341.65 1140.19 340.45C1138.27 339.19 1136.62 337.63 1135.24 335.77C1133.92 333.91 1132.9 331.84 1132.18 329.56C1131.46 327.28 1131.1 325.03 1131.1 322.81C1131.1 320.53 1131.46 318.25 1132.18 315.97C1132.96 313.63 1134.07 311.53 1135.51 309.67C1136.95 307.75 1138.69 306.19 1140.73 304.99C1142.77 303.79 1145.08 303.19 1147.66 303.19H1188.7C1191.16 303.31 1193.35 304 1195.27 305.26C1197.19 306.46 1198.81 307.99 1200.13 309.85C1201.51 311.71 1202.56 313.78 1203.28 316.06C1204 318.34 1204.36 320.59 1204.36 322.81ZM1222 326.95V333.79H1271.95C1272.85 333.79 1273.63 333.46 1274.29 332.8C1275.01 332.14 1275.37 331.36 1275.37 330.46C1275.37 329.5 1275.01 328.72 1274.29 328.12C1273.63 327.46 1272.85 327.13 1271.95 327.13H1224.16C1223.38 327.13 1222.66 327.07 1222 326.95ZM1213.36 307.51C1213.36 306.31 1213.78 305.29 1214.62 304.45C1215.46 303.61 1216.48 303.19 1217.68 303.19C1217.98 303.19 1218.28 303.22 1218.58 303.28H1275.73C1276.93 303.28 1277.95 303.7 1278.79 304.54C1279.63 305.38 1280.05 306.4 1280.05 307.6C1280.05 308.8 1279.63 309.82 1278.79 310.66C1277.95 311.5 1276.93 311.92 1275.73 311.92H1222V315.16C1222 316.06 1222.27 316.81 1222.81 317.41C1223.35 318.01 1224.01 318.37 1224.79 318.49H1271.59C1273.27 318.49 1274.83 318.82 1276.27 319.48C1277.77 320.08 1279.06 320.92 1280.14 322C1281.28 323.08 1282.15 324.34 1282.75 325.78C1283.41 327.22 1283.74 328.78 1283.74 330.46C1283.74 332.14 1283.41 333.7 1282.75 335.14C1282.15 336.58 1281.28 337.84 1280.14 338.92C1279.06 340 1277.77 340.87 1276.27 341.53C1274.83 342.13 1273.27 342.43 1271.59 342.43H1217.68C1216.48 342.43 1215.46 342.01 1214.62 341.17C1213.78 340.33 1213.36 339.31 1213.36 338.11C1213.36 337.75 1213.39 337.42 1213.45 337.12C1213.39 336.82 1213.36 336.49 1213.36 336.13V307.51ZM1300.38 340.81C1299.48 341.89 1298.37 342.43 1297.05 342.43C1295.85 342.43 1294.83 342.01 1293.99 341.17C1293.15 340.33 1292.73 339.31 1292.73 338.11C1292.73 337.03 1293.03 336.16 1293.63 335.5L1315.5 306.07C1316.52 304.69 1317.87 303.58 1319.55 302.74C1321.23 301.84 1323.03 301.39 1324.95 301.39C1326.75 301.39 1328.46 301.78 1330.08 302.56C1331.7 303.34 1333.02 304.42 1334.04 305.8L1355.91 335.05C1356.27 335.47 1356.57 335.95 1356.81 336.49C1357.05 336.97 1357.17 337.51 1357.17 338.11C1357.17 339.31 1356.75 340.33 1355.91 341.17C1355.07 342.01 1354.05 342.43 1352.85 342.43C1351.41 342.43 1350.27 341.86 1349.43 340.72L1328.46 312.73C1328.04 312.25 1327.5 311.74 1326.84 311.2C1326.24 310.6 1325.61 310.3 1324.95 310.3C1324.29 310.3 1323.63 310.6 1322.97 311.2C1322.37 311.74 1321.89 312.25 1321.53 312.73L1300.38 340.81ZM1385.64 325.15H1411.2L1401.93 312.73C1401.51 312.25 1400.97 311.74 1400.31 311.2C1399.71 310.6 1399.08 310.3 1398.42 310.3C1397.76 310.3 1397.1 310.6 1396.44 311.2C1395.84 311.74 1395.36 312.25 1395 312.73L1385.64 325.15ZM1417.68 333.79H1379.07L1373.85 340.81C1372.95 341.89 1371.84 342.43 1370.52 342.43C1369.32 342.43 1368.3 342.01 1367.46 341.17C1366.62 340.33 1366.2 339.31 1366.2 338.11C1366.2 337.03 1366.5 336.16 1367.1 335.5L1388.97 306.07C1389.99 304.69 1391.34 303.58 1393.02 302.74C1394.7 301.84 1396.5 301.39 1398.42 301.39C1400.22 301.39 1401.93 301.78 1403.55 302.56C1405.17 303.34 1406.49 304.42 1407.51 305.8L1429.38 335.05C1429.74 335.47 1430.04 335.95 1430.28 336.49C1430.52 336.97 1430.64 337.51 1430.64 338.11C1430.64 339.31 1430.22 340.33 1429.38 341.17C1428.54 342.01 1427.52 342.43 1426.32 342.43C1424.88 342.43 1423.74 341.86 1422.9 340.72L1417.68 333.79ZM1439.68 322.81C1439.68 320.53 1440.04 318.25 1440.76 315.97C1441.54 313.63 1442.65 311.53 1444.09 309.67C1445.53 307.75 1447.27 306.19 1449.31 304.99C1451.35 303.79 1453.66 303.19 1456.24 303.19H1508.71C1509.91 303.19 1510.93 303.61 1511.77 304.45C1512.61 305.29 1513.03 306.31 1513.03 307.51C1513.03 308.71 1512.61 309.73 1511.77 310.57C1510.93 311.41 1509.91 311.83 1508.71 311.83H1458.13C1456.03 311.83 1454.32 312.22 1453 313C1451.74 313.72 1450.72 314.62 1449.94 315.7C1449.22 316.78 1448.71 317.98 1448.41 319.3C1448.17 320.56 1448.05 321.73 1448.05 322.81C1448.05 323.89 1448.17 325.09 1448.41 326.41C1448.71 327.67 1449.22 328.84 1449.94 329.92C1450.72 331 1451.74 331.93 1453 332.71C1454.32 333.43 1456.03 333.79 1458.13 333.79H1508.71C1509.91 333.79 1510.93 334.21 1511.77 335.05C1512.61 335.89 1513.03 336.91 1513.03 338.11C1513.03 339.31 1512.61 340.33 1511.77 341.17C1510.93 342.01 1509.91 342.43 1508.71 342.43H1455.34C1452.88 342.43 1450.69 341.83 1448.77 340.63C1446.85 339.43 1445.2 337.9 1443.82 336.04C1442.5 334.12 1441.48 331.99 1440.76 329.65C1440.04 327.31 1439.68 325.03 1439.68 322.81ZM1588.27 303.19C1589.47 303.19 1590.49 303.61 1591.33 304.45C1592.17 305.29 1592.59 306.31 1592.59 307.51C1592.59 308.65 1592.2 309.64 1591.42 310.48C1590.64 311.26 1589.71 311.71 1588.63 311.83H1570.54C1568.74 311.95 1567.24 312.4 1566.04 313.18C1564.9 313.9 1564 314.8 1563.34 315.88C1562.68 316.96 1562.23 318.13 1561.99 319.39C1561.75 320.65 1561.63 321.79 1561.63 322.81V338.11C1561.63 339.31 1561.21 340.33 1560.37 341.17C1559.53 342.01 1558.51 342.43 1557.31 342.43C1556.11 342.43 1555.09 342.01 1554.25 341.17C1553.41 340.33 1552.99 339.31 1552.99 338.11V322.81C1552.99 320.95 1553.23 319.09 1553.71 317.23C1554.19 315.31 1554.91 313.51 1555.87 311.83H1526.35C1525.15 311.83 1524.13 311.41 1523.29 310.57C1522.45 309.73 1522.03 308.71 1522.03 307.51C1522.03 306.31 1522.45 305.29 1523.29 304.45C1524.13 303.61 1525.15 303.19 1526.35 303.19H1588.27ZM1610.21 325.24C1610.21 327.4 1610.33 329.05 1610.57 330.19C1610.81 331.33 1611.38 331.9 1612.28 331.9C1612.76 331.9 1613.36 331.72 1614.08 331.36C1614.86 330.94 1615.82 330.4 1616.96 329.74L1658.18 304.54C1658.84 304.12 1659.56 303.79 1660.34 303.55C1661.18 303.31 1662.02 303.19 1662.86 303.19C1665.32 303.19 1667.36 304.03 1668.98 305.71C1670.66 307.39 1671.5 309.46 1671.5 311.92V338.11C1671.5 339.31 1671.08 340.33 1670.24 341.17C1669.4 342.01 1668.38 342.43 1667.18 342.43C1665.98 342.43 1664.96 342.01 1664.12 341.17C1663.28 340.33 1662.86 339.31 1662.86 338.11V320.38C1662.86 318.22 1662.74 316.57 1662.5 315.43C1662.26 314.29 1661.69 313.72 1660.79 313.72C1660.31 313.72 1659.68 313.93 1658.9 314.35C1658.18 314.71 1657.25 315.22 1656.11 315.88L1614.89 341.08C1614.23 341.5 1613.48 341.83 1612.64 342.07C1611.86 342.31 1611.05 342.43 1610.21 342.43C1607.75 342.43 1605.68 341.59 1604 339.91C1602.38 338.23 1601.57 336.16 1601.57 333.7V307.51C1601.57 306.31 1601.99 305.29 1602.83 304.45C1603.67 303.61 1604.69 303.19 1605.89 303.19C1607.09 303.19 1608.11 303.61 1608.95 304.45C1609.79 305.29 1610.21 306.31 1610.21 307.51V325.24Z" fill="white"/>
<mask id="path-3-outside-1_134_2593" maskUnits="userSpaceOnUse" x="80" y="130" width="1628" height="239" fill="black">
<rect fill="white" x="80" y="130" width="1628" height="239"/>
<path d="M406.662 278.5C415.662 284.167 424.829 290.333 434.162 297C443.495 303.333 452.995 310.333 462.662 318C466.329 320.667 469.495 323.833 472.162 327.5C474.829 330.833 476.162 334.833 476.162 339.5C476.162 346.167 473.829 351.833 469.162 356.5C464.495 361.167 458.829 363.5 452.162 363.5C449.495 363.5 446.662 362.833 443.662 361.5C440.662 360.167 437.829 358.5 435.162 356.5C421.495 346.5 407.495 336.833 393.162 327.5C378.829 317.833 363.829 309.5 348.162 302.5C332.829 295.167 316.829 289.333 300.162 285C283.495 280.667 266.162 278.5 248.162 278.5H148.662C144.329 279.167 140.662 281.167 137.662 284.5C134.662 287.833 133.162 292 133.162 297V339.5C133.162 346.167 130.662 351.833 125.662 356.5C120.995 361.167 115.495 363.5 109.162 363.5C102.495 363.5 96.8288 361.167 92.1621 356.5C87.4954 351.833 85.1621 346.167 85.1621 339.5V291.5C85.1621 283.167 86.6621 275.333 89.6621 268C92.9954 260.333 97.3288 253.833 102.662 248.5C107.995 242.833 114.329 238.5 121.662 235.5C128.995 232.167 136.995 230.5 145.662 230.5H410.662C415.662 230.5 419.995 228.833 423.662 225.5C427.662 221.833 429.662 217.333 429.662 212C429.662 207 427.662 202.667 423.662 199C419.995 195.333 415.662 193.5 410.662 193.5H109.162C102.495 193.5 96.8288 191.167 92.1621 186.5C87.4954 181.833 85.1621 176.167 85.1621 169.5C85.1621 162.833 87.4954 157.167 92.1621 152.5C96.8288 147.833 102.495 145.5 109.162 145.5H408.662C417.995 145.5 426.662 147.333 434.662 151C442.995 154.333 450.162 159 456.162 165C462.495 171 467.329 178 470.662 186C474.329 194 476.162 202.667 476.162 212C476.162 221.333 474.329 230 470.662 238C467.329 246 462.495 253 456.162 259C450.162 265 442.995 269.833 434.662 273.5C426.662 276.833 417.995 278.5 408.662 278.5H406.662ZM501.08 169.5C501.08 162.833 503.413 157.167 508.08 152.5C512.747 147.833 518.413 145.5 525.08 145.5H879.58C886.247 145.5 891.913 147.833 896.58 152.5C901.247 157.167 903.58 162.833 903.58 169.5C903.58 176.167 901.247 181.833 896.58 186.5C891.913 191.167 886.247 193.5 879.58 193.5H525.08C518.413 193.5 512.747 191.167 508.08 186.5C503.413 181.833 501.08 176.167 501.08 169.5ZM562.08 363.5C554.747 363.5 547.413 362 540.08 359C532.747 355.667 526.247 351.167 520.58 345.5C514.913 339.833 510.247 333 506.58 325C502.913 317 501.08 308 501.08 298V253C501.08 244 503.58 238 508.58 235C513.913 232 522.08 230.5 533.08 230.5H868.58C875.247 230.5 880.913 232.833 885.58 237.5C890.247 242.167 892.58 247.833 892.58 254.5C892.58 261.167 890.247 266.833 885.58 271.5C880.913 276.167 875.247 278.5 868.58 278.5H549.08V303C549.08 306.333 550.413 309.333 553.08 312C556.08 314.333 559.913 315.5 564.58 315.5H879.58C886.247 315.5 891.913 317.833 896.58 322.5C901.247 327.167 903.58 332.833 903.58 339.5C903.58 346.167 901.247 351.833 896.58 356.5C891.913 361.167 886.247 363.5 879.58 363.5H562.08ZM971.217 354.5C966.55 360.5 960.383 363.5 952.717 363.5C946.05 363.5 940.383 361.167 935.717 356.5C931.05 351.833 928.717 346.167 928.717 339.5C928.717 333.167 930.383 328.333 933.717 325L1055.22 161.5C1060.88 153.833 1068.38 147.667 1077.72 143C1087.05 138 1097.05 135.5 1107.72 135.5C1117.72 135.5 1127.22 137.667 1136.22 142C1145.22 146.333 1152.55 152.333 1158.22 160L1279.72 322.5C1281.38 325.167 1282.88 327.833 1284.22 330.5C1285.88 333.167 1286.72 336.167 1286.72 339.5C1286.72 346.167 1284.38 351.833 1279.72 356.5C1275.05 361.167 1269.38 363.5 1262.72 363.5C1254.38 363.5 1248.05 360.333 1243.72 354L1127.22 198.5C1124.88 195.833 1121.88 193 1118.22 190C1114.88 186.667 1111.38 185 1107.72 185C1104.05 185 1100.38 186.667 1096.72 190C1093.38 193 1090.72 195.833 1088.72 198.5L971.217 354.5ZM1380.42 363.5C1371.09 363.5 1362.25 361.833 1353.92 358.5C1345.59 354.833 1338.25 350 1331.92 344C1325.92 338 1321.09 331 1317.42 323C1313.75 315 1311.92 306.333 1311.92 297V169.5C1311.92 162.833 1314.25 157.167 1318.92 152.5C1323.59 147.833 1329.25 145.5 1335.92 145.5C1342.25 145.5 1347.75 147.833 1352.42 152.5C1357.42 157.167 1359.92 162.833 1359.92 169.5V297C1359.92 302 1361.75 306.333 1365.42 310C1369.42 313.667 1373.92 315.5 1378.92 315.5H1678.92C1685.59 315.5 1691.25 317.833 1695.92 322.5C1700.59 327.167 1702.92 332.833 1702.92 339.5C1702.92 346.167 1700.59 351.833 1695.92 356.5C1691.25 361.167 1685.59 363.5 1678.92 363.5H1380.42Z"/>
</mask>
<path d="M406.662 278.5V273.5H389.337L403.998 282.731L406.662 278.5ZM434.162 297L431.256 301.069L431.305 301.104L431.355 301.137L434.162 297ZM462.662 318L459.555 321.917L459.637 321.982L459.721 322.044L462.662 318ZM472.162 327.5L468.118 330.441L468.186 330.534L468.258 330.623L472.162 327.5ZM443.662 361.5L445.693 356.931L443.662 361.5ZM435.162 356.5L438.162 352.5L438.139 352.482L438.115 352.465L435.162 356.5ZM393.162 327.5L390.366 331.645L390.4 331.668L390.434 331.69L393.162 327.5ZM348.162 302.5L346.005 307.011L346.063 307.039L346.122 307.065L348.162 302.5ZM300.162 285L298.904 289.839L300.162 285ZM148.662 278.5V273.5H148.28L147.902 273.558L148.662 278.5ZM137.662 284.5L133.946 281.155L137.662 284.5ZM125.662 356.5L122.251 352.845L122.188 352.904L122.127 352.964L125.662 356.5ZM92.1621 356.5L95.6976 352.964L92.1621 356.5ZM89.6621 268L85.0768 266.006L85.055 266.056L85.0344 266.107L89.6621 268ZM102.662 248.5L106.198 252.036L106.251 251.982L106.303 251.927L102.662 248.5ZM121.662 235.5L123.555 240.128L123.644 240.091L123.731 240.052L121.662 235.5ZM423.662 225.5L427.025 229.2L427.033 229.193L427.041 229.186L423.662 225.5ZM423.662 199L420.127 202.536L420.203 202.612L420.284 202.686L423.662 199ZM92.1621 186.5L95.6976 182.964L92.1621 186.5ZM92.1621 152.5L88.6266 148.964H88.6266L92.1621 152.5ZM434.662 151L432.579 155.545L432.691 155.597L432.805 155.642L434.662 151ZM456.162 165L452.627 168.536L452.674 168.583L452.723 168.63L456.162 165ZM470.662 186L466.047 187.923L466.08 188.004L466.117 188.083L470.662 186ZM470.662 238L466.117 235.917L466.08 235.996L466.047 236.077L470.662 238ZM456.162 259L452.723 255.37L452.674 255.417L452.627 255.464L456.162 259ZM434.662 273.5L436.585 278.115L436.631 278.096L436.676 278.077L434.662 273.5ZM403.998 282.731C412.91 288.342 421.996 294.454 431.256 301.069L437.068 292.931C427.662 286.212 418.415 279.991 409.326 274.269L403.998 282.731ZM431.355 301.137C440.576 307.395 449.977 314.321 459.555 321.917L465.769 314.083C456.014 306.346 446.414 299.272 436.97 292.863L431.355 301.137ZM459.721 322.044C462.965 324.403 465.759 327.197 468.118 330.441L476.206 324.559C473.231 320.469 469.693 316.931 465.603 313.956L459.721 322.044ZM468.258 330.623C470.148 332.986 471.162 335.856 471.162 339.5H481.162C481.162 333.811 479.51 328.681 476.066 324.377L468.258 330.623ZM471.162 339.5C471.162 344.856 469.345 349.246 465.627 352.964L472.698 360.036C478.313 354.421 481.162 347.478 481.162 339.5H471.162ZM465.627 352.964C461.908 356.683 457.518 358.5 452.162 358.5V368.5C460.14 368.5 467.083 365.651 472.698 360.036L465.627 352.964ZM452.162 358.5C450.337 358.5 448.197 358.044 445.693 356.931L441.631 366.069C445.127 367.623 448.654 368.5 452.162 368.5V358.5ZM445.693 356.931C443.042 355.753 440.533 354.278 438.162 352.5L432.162 360.5C435.125 362.722 438.283 364.581 441.631 366.069L445.693 356.931ZM438.115 352.465C424.374 342.411 410.299 332.692 395.89 323.31L390.434 331.69C404.692 340.974 418.617 350.589 432.21 360.535L438.115 352.465ZM395.958 323.355C381.387 313.528 366.134 305.054 350.202 297.935L346.122 307.065C361.523 313.946 376.271 322.139 390.366 331.645L395.958 323.355ZM350.319 297.989C334.694 290.516 318.392 284.574 301.42 280.161L298.904 289.839C315.265 294.093 330.964 299.817 346.005 307.011L350.319 297.989ZM301.42 280.161C284.325 275.716 266.567 273.5 248.162 273.5V283.5C265.757 283.5 282.666 285.617 298.904 289.839L301.42 280.161ZM248.162 273.5H148.662V283.5H248.162V273.5ZM147.902 273.558C142.4 274.405 137.698 276.986 133.946 281.155L141.379 287.845C143.626 285.348 146.257 283.929 149.422 283.442L147.902 273.558ZM133.946 281.155C130.022 285.514 128.162 290.918 128.162 297H138.162C138.162 293.082 139.302 290.152 141.379 287.845L133.946 281.155ZM128.162 297V339.5H138.162V297H128.162ZM128.162 339.5C128.162 344.741 126.267 349.096 122.251 352.845L129.074 360.155C135.057 354.571 138.162 347.593 138.162 339.5H128.162ZM122.127 352.964C118.354 356.737 114.108 358.5 109.162 358.5V368.5C116.882 368.5 123.637 365.596 129.198 360.036L122.127 352.964ZM109.162 358.5C103.806 358.5 99.416 356.683 95.6976 352.964L88.6266 360.036C94.2416 365.651 101.184 368.5 109.162 368.5V358.5ZM95.6976 352.964C91.9793 349.246 90.1621 344.856 90.1621 339.5H80.1621C80.1621 347.478 83.0116 354.421 88.6266 360.036L95.6976 352.964ZM90.1621 339.5V291.5H80.1621V339.5H90.1621ZM90.1621 291.5C90.1621 283.782 91.5483 276.595 94.2898 269.893L85.0344 266.107C81.776 274.072 80.1621 282.552 80.1621 291.5H90.1621ZM94.2475 269.994C97.3578 262.84 101.354 256.88 106.198 252.036L99.1266 244.964C93.3041 250.787 88.6331 257.827 85.0768 266.006L94.2475 269.994ZM106.303 251.927C111.137 246.79 116.871 242.862 123.555 240.128L119.769 230.872C111.786 234.138 104.854 238.876 99.0211 245.073L106.303 251.927ZM123.731 240.052C130.366 237.036 137.654 235.5 145.662 235.5V225.5C136.337 225.5 127.624 227.298 119.593 230.948L123.731 240.052ZM145.662 235.5H410.662V225.5H145.662V235.5ZM410.662 235.5C416.894 235.5 422.429 233.378 427.025 229.2L420.299 221.8C417.562 224.289 414.431 225.5 410.662 225.5V235.5ZM427.041 229.186C432.053 224.591 434.662 218.762 434.662 212H424.662C424.662 215.904 423.271 219.076 420.284 221.814L427.041 229.186ZM434.662 212C434.662 205.47 431.975 199.838 427.041 195.314L420.284 202.686C423.349 205.496 424.662 208.53 424.662 212H434.662ZM427.198 195.464C422.632 190.899 417.042 188.5 410.662 188.5V198.5C414.282 198.5 417.359 199.768 420.127 202.536L427.198 195.464ZM410.662 188.5H109.162V198.5H410.662V188.5ZM109.162 188.5C103.806 188.5 99.416 186.683 95.6976 182.964L88.6266 190.036C94.2416 195.651 101.184 198.5 109.162 198.5V188.5ZM95.6976 182.964C91.9793 179.246 90.1621 174.856 90.1621 169.5H80.1621C80.1621 177.478 83.0116 184.421 88.6266 190.036L95.6976 182.964ZM90.1621 169.5C90.1621 164.144 91.9793 159.754 95.6976 156.036L88.6266 148.964C83.0116 154.579 80.1621 161.522 80.1621 169.5H90.1621ZM95.6976 156.036C99.416 152.317 103.806 150.5 109.162 150.5V140.5C101.184 140.5 94.2416 143.349 88.6266 148.964L95.6976 156.036ZM109.162 150.5H408.662V140.5H109.162V150.5ZM408.662 150.5C417.321 150.5 425.272 152.196 432.579 155.545L436.745 146.455C428.053 142.47 418.67 140.5 408.662 140.5V150.5ZM432.805 155.642C440.547 158.739 447.133 163.042 452.627 168.536L459.698 161.464C453.192 154.958 445.444 149.928 436.519 146.358L432.805 155.642ZM452.723 168.63C458.553 174.153 462.984 180.572 466.047 187.923L475.278 184.077C471.674 175.428 466.438 167.847 459.601 161.37L452.723 168.63ZM466.117 188.083C469.466 195.39 471.162 203.341 471.162 212H481.162C481.162 201.992 479.192 192.61 475.207 183.917L466.117 188.083ZM471.162 212C471.162 220.659 469.466 228.61 466.117 235.917L475.207 240.083C479.192 231.39 481.162 222.008 481.162 212H471.162ZM466.047 236.077C462.984 243.428 458.553 249.847 452.723 255.37L459.601 262.63C466.438 256.153 471.674 248.572 475.278 239.923L466.047 236.077ZM452.627 255.464C447.096 260.995 440.456 265.488 432.648 268.923L436.676 278.077C445.535 274.179 453.228 269.005 459.698 262.536L452.627 255.464ZM432.739 268.885C425.394 271.945 417.387 273.5 408.662 273.5V283.5C418.604 283.5 427.93 281.722 436.585 278.115L432.739 268.885ZM408.662 273.5H406.662V283.5H408.662V273.5ZM508.08 152.5L504.545 148.964L508.08 152.5ZM896.58 152.5L900.116 148.964L896.58 152.5ZM508.08 186.5L511.616 182.964L508.08 186.5ZM540.08 359L538.011 363.552L538.098 363.591L538.187 363.628L540.08 359ZM520.58 345.5L517.045 349.036L520.58 345.5ZM506.58 325L511.125 322.917L506.58 325ZM508.58 235L506.129 230.642L506.068 230.676L506.008 230.713L508.58 235ZM885.58 271.5L889.116 275.036L885.58 271.5ZM549.08 278.5V273.5H544.08V278.5H549.08ZM553.08 312L549.545 315.536L549.765 315.756L550.01 315.947L553.08 312ZM896.58 322.5L893.045 326.036L896.58 322.5ZM506.08 169.5C506.08 164.144 507.897 159.754 511.616 156.036L504.545 148.964C498.93 154.579 496.08 161.522 496.08 169.5H506.08ZM511.616 156.036C515.334 152.317 519.724 150.5 525.08 150.5V140.5C517.102 140.5 510.16 143.349 504.545 148.964L511.616 156.036ZM525.08 150.5H879.58V140.5H525.08V150.5ZM879.58 150.5C884.936 150.5 889.326 152.317 893.045 156.036L900.116 148.964C894.501 143.349 887.558 140.5 879.58 140.5V150.5ZM893.045 156.036C896.763 159.754 898.58 164.144 898.58 169.5H908.58C908.58 161.522 905.731 154.579 900.116 148.964L893.045 156.036ZM898.58 169.5C898.58 174.856 896.763 179.246 893.045 182.964L900.116 190.036C905.731 184.421 908.58 177.478 908.58 169.5H898.58ZM893.045 182.964C889.326 186.683 884.936 188.5 879.58 188.5V198.5C887.558 198.5 894.501 195.651 900.116 190.036L893.045 182.964ZM879.58 188.5H525.08V198.5H879.58V188.5ZM525.08 188.5C519.724 188.5 515.334 186.683 511.616 182.964L504.545 190.036C510.16 195.651 517.102 198.5 525.08 198.5V188.5ZM511.616 182.964C507.897 179.246 506.08 174.856 506.08 169.5H496.08C496.08 177.478 498.93 184.421 504.545 190.036L511.616 182.964ZM562.08 358.5C555.447 358.5 548.754 357.146 541.973 354.372L538.187 363.628C546.072 366.854 554.047 368.5 562.08 368.5V358.5ZM542.149 354.448C535.359 351.362 529.356 347.205 524.116 341.964L517.045 349.036C523.137 355.128 530.135 359.972 538.011 363.552L542.149 354.448ZM524.116 341.964C518.908 336.757 514.569 330.429 511.125 322.917L502.035 327.083C505.925 335.571 510.918 342.909 517.045 349.036L524.116 341.964ZM511.125 322.917C507.797 315.654 506.08 307.379 506.08 298H496.08C496.08 308.621 498.03 318.346 502.035 327.083L511.125 322.917ZM506.08 298V253H496.08V298H506.08ZM506.08 253C506.08 244.738 508.364 240.961 511.153 239.287L506.008 230.713C498.797 235.039 496.08 243.262 496.08 253H506.08ZM511.031 239.358C515.233 236.995 522.352 235.5 533.08 235.5V225.5C521.808 225.5 512.594 227.005 506.129 230.642L511.031 239.358ZM533.08 235.5H868.58V225.5H533.08V235.5ZM868.58 235.5C873.936 235.5 878.326 237.317 882.045 241.036L889.116 233.964C883.501 228.349 876.558 225.5 868.58 225.5V235.5ZM882.045 241.036C885.763 244.754 887.58 249.144 887.58 254.5H897.58C897.58 246.522 894.731 239.579 889.116 233.964L882.045 241.036ZM887.58 254.5C887.58 259.856 885.763 264.246 882.045 267.964L889.116 275.036C894.731 269.421 897.58 262.478 897.58 254.5H887.58ZM882.045 267.964C878.326 271.683 873.936 273.5 868.58 273.5V283.5C876.558 283.5 883.501 280.651 889.116 275.036L882.045 267.964ZM868.58 273.5H549.08V283.5H868.58V273.5ZM544.08 278.5V303H554.08V278.5H544.08ZM544.08 303C544.08 307.838 546.074 312.065 549.545 315.536L556.616 308.464C554.752 306.601 554.08 304.829 554.08 303H544.08ZM550.01 315.947C554.073 319.107 559.061 320.5 564.58 320.5V310.5C560.765 310.5 558.087 309.56 556.15 308.053L550.01 315.947ZM564.58 320.5H879.58V310.5H564.58V320.5ZM879.58 320.5C884.936 320.5 889.326 322.317 893.045 326.036L900.116 318.964C894.501 313.349 887.558 310.5 879.58 310.5V320.5ZM893.045 326.036C896.763 329.754 898.58 334.144 898.58 339.5H908.58C908.58 331.522 905.731 324.579 900.116 318.964L893.045 326.036ZM898.58 339.5C898.58 344.856 896.763 349.246 893.045 352.964L900.116 360.036C905.731 354.421 908.58 347.478 908.58 339.5H898.58ZM893.045 352.964C889.326 356.683 884.936 358.5 879.58 358.5V368.5C887.558 368.5 894.501 365.651 900.116 360.036L893.045 352.964ZM879.58 358.5H562.08V368.5H879.58V358.5ZM971.217 354.5L975.164 357.57L975.187 357.539L975.211 357.508L971.217 354.5ZM935.717 356.5L939.252 352.964L935.717 356.5ZM933.717 325L937.252 328.536L937.511 328.276L937.73 327.982L933.717 325ZM1055.22 161.5L1059.23 164.482L1059.24 164.472L1055.22 161.5ZM1077.72 143L1079.95 147.472L1080.02 147.441L1080.08 147.407L1077.72 143ZM1136.22 142L1138.39 137.495L1136.22 142ZM1158.22 160L1154.2 162.972L1154.2 162.983L1154.21 162.994L1158.22 160ZM1279.72 322.5L1283.96 319.85L1283.85 319.673L1283.72 319.506L1279.72 322.5ZM1284.22 330.5L1279.74 332.736L1279.85 332.949L1279.98 333.15L1284.22 330.5ZM1243.72 354L1247.84 351.177L1247.78 351.088L1247.72 351.002L1243.72 354ZM1127.22 198.5L1131.22 195.502L1131.1 195.35L1130.98 195.207L1127.22 198.5ZM1118.22 190L1114.68 193.536L1114.86 193.712L1115.05 193.87L1118.22 190ZM1096.72 190L1100.06 193.716L1100.07 193.708L1100.08 193.7L1096.72 190ZM1088.72 198.5L1092.71 201.508L1092.72 201.5L1088.72 198.5ZM967.27 351.43C963.56 356.2 958.856 358.5 952.717 358.5V368.5C961.911 368.5 969.54 364.8 975.164 357.57L967.27 351.43ZM952.717 358.5C947.361 358.5 942.971 356.683 939.252 352.964L932.181 360.036C937.796 365.651 944.739 368.5 952.717 368.5V358.5ZM939.252 352.964C935.534 349.246 933.717 344.856 933.717 339.5H923.717C923.717 347.478 926.566 354.421 932.181 360.036L939.252 352.964ZM933.717 339.5C933.717 334.023 935.143 330.645 937.252 328.536L930.181 321.464C925.624 326.022 923.717 332.31 923.717 339.5H933.717ZM937.73 327.982L1059.23 164.482L1051.2 158.518L929.704 322.018L937.73 327.982ZM1059.24 164.472C1064.39 157.497 1071.26 151.82 1079.95 147.472L1075.48 138.528C1065.51 143.513 1057.37 150.169 1051.2 158.528L1059.24 164.472ZM1080.08 147.407C1088.68 142.799 1097.87 140.5 1107.72 140.5V130.5C1096.23 130.5 1085.42 133.201 1075.36 138.593L1080.08 147.407ZM1107.72 140.5C1116.97 140.5 1125.73 142.498 1134.05 146.505L1138.39 137.495C1128.71 132.835 1118.47 130.5 1107.72 130.5V140.5ZM1134.05 146.505C1142.35 150.503 1149.04 155.991 1154.2 162.972L1162.24 157.028C1156.06 148.676 1148.08 142.164 1138.39 137.495L1134.05 146.505ZM1154.21 162.994L1275.71 325.494L1283.72 319.506L1162.22 157.006L1154.21 162.994ZM1275.48 325.15C1277.06 327.69 1278.49 330.218 1279.74 332.736L1288.69 328.264C1287.28 325.448 1285.7 322.644 1283.96 319.85L1275.48 325.15ZM1279.98 333.15C1281.12 334.974 1281.72 337.045 1281.72 339.5H1291.72C1291.72 335.288 1290.65 331.36 1288.46 327.85L1279.98 333.15ZM1281.72 339.5C1281.72 344.856 1279.9 349.246 1276.18 352.964L1283.25 360.036C1288.87 354.421 1291.72 347.478 1291.72 339.5H1281.72ZM1276.18 352.964C1272.46 356.683 1268.07 358.5 1262.72 358.5V368.5C1270.69 368.5 1277.64 365.651 1283.25 360.036L1276.18 352.964ZM1262.72 358.5C1255.87 358.5 1251.15 356.015 1247.84 351.177L1239.59 356.823C1244.95 364.651 1252.9 368.5 1262.72 368.5V358.5ZM1247.72 351.002L1131.22 195.502L1123.22 201.498L1239.72 356.998L1247.72 351.002ZM1130.98 195.207C1128.41 192.276 1125.2 189.251 1121.38 186.13L1115.05 193.87C1118.57 196.749 1121.35 199.391 1123.45 201.793L1130.98 195.207ZM1121.75 186.464C1117.76 182.474 1113.06 180 1107.72 180V190C1109.71 190 1112.01 190.86 1114.68 193.536L1121.75 186.464ZM1107.72 180C1102.42 180 1097.61 182.428 1093.35 186.3L1100.08 193.7C1103.15 190.905 1105.68 190 1107.72 190V180ZM1093.37 186.284C1089.87 189.431 1086.96 192.503 1084.72 195.5L1092.72 201.5C1094.47 199.164 1096.89 196.569 1100.06 193.716L1093.37 186.284ZM1084.72 195.492L967.223 351.492L975.211 357.508L1092.71 201.508L1084.72 195.492ZM1353.92 358.5L1351.91 363.077L1351.98 363.111L1352.06 363.142L1353.92 358.5ZM1331.92 344L1328.38 347.536L1328.43 347.583L1328.48 347.63L1331.92 344ZM1317.42 323L1321.97 320.917L1317.42 323ZM1318.92 152.5L1315.38 148.964L1318.92 152.5ZM1352.42 152.5L1348.88 156.036L1348.95 156.096L1349.01 156.155L1352.42 152.5ZM1365.42 310L1361.88 313.536L1361.96 313.612L1362.04 313.686L1365.42 310ZM1695.92 322.5L1692.38 326.036L1695.92 322.5ZM1380.42 358.5C1371.7 358.5 1363.5 356.945 1355.78 353.858L1352.06 363.142C1361.01 366.721 1370.48 368.5 1380.42 368.5V358.5ZM1355.93 353.923C1348.1 350.478 1341.26 345.958 1335.36 340.37L1328.48 347.63C1335.25 354.042 1343.07 359.189 1351.91 363.077L1355.93 353.923ZM1335.46 340.464C1329.89 334.9 1325.39 328.397 1321.97 320.917L1312.87 325.083C1316.78 333.603 1321.95 341.1 1328.38 347.536L1335.46 340.464ZM1321.97 320.917C1318.62 313.61 1316.92 305.659 1316.92 297H1306.92C1306.92 307.008 1308.89 316.39 1312.87 325.083L1321.97 320.917ZM1316.92 297V169.5H1306.92V297H1316.92ZM1316.92 169.5C1316.92 164.144 1318.74 159.754 1322.46 156.036L1315.38 148.964C1309.77 154.579 1306.92 161.522 1306.92 169.5H1316.92ZM1322.46 156.036C1326.17 152.317 1330.56 150.5 1335.92 150.5V140.5C1327.94 140.5 1321 143.349 1315.38 148.964L1322.46 156.036ZM1335.92 150.5C1340.87 150.5 1345.11 152.263 1348.88 156.036L1355.96 148.964C1350.4 143.404 1343.64 140.5 1335.92 140.5V150.5ZM1349.01 156.155C1353.02 159.904 1354.92 164.259 1354.92 169.5H1364.92C1364.92 161.407 1361.81 154.429 1355.83 148.845L1349.01 156.155ZM1354.92 169.5V297H1364.92V169.5H1354.92ZM1354.92 297C1354.92 303.38 1357.32 308.97 1361.88 313.536L1368.96 306.464C1366.19 303.697 1364.92 300.62 1364.92 297H1354.92ZM1362.04 313.686C1366.88 318.119 1372.56 320.5 1378.92 320.5V310.5C1375.28 310.5 1371.96 309.214 1368.8 306.314L1362.04 313.686ZM1378.92 320.5H1678.92V310.5H1378.92V320.5ZM1678.92 320.5C1684.28 320.5 1688.67 322.317 1692.38 326.036L1699.46 318.964C1693.84 313.349 1686.9 310.5 1678.92 310.5V320.5ZM1692.38 326.036C1696.1 329.754 1697.92 334.144 1697.92 339.5H1707.92C1707.92 331.522 1705.07 324.579 1699.46 318.964L1692.38 326.036ZM1697.92 339.5C1697.92 344.856 1696.1 349.246 1692.38 352.964L1699.46 360.036C1705.07 354.421 1707.92 347.478 1707.92 339.5H1697.92ZM1692.38 352.964C1688.67 356.683 1684.28 358.5 1678.92 358.5V368.5C1686.9 368.5 1693.84 365.651 1699.46 360.036L1692.38 352.964ZM1678.92 358.5H1380.42V368.5H1678.92V358.5Z" fill="#29FF7F" fill-opacity="0.1" mask="url(#path-3-outside-1_134_2593)"/>
<path d="M159.566 268V255.22H163.976C165.092 255.22 166.004 255.562 166.712 256.246C167.432 256.93 167.792 257.764 167.792 258.748C167.792 259.804 167.396 260.626 166.604 261.214C167.972 261.778 168.656 262.792 168.656 264.256C168.656 265.324 168.266 266.218 167.486 266.938C166.718 267.646 165.734 268 164.534 268H159.566ZM161.672 266.074H164.48C165.152 266.074 165.674 265.906 166.046 265.57C166.418 265.234 166.604 264.79 166.604 264.238C166.604 263.698 166.418 263.26 166.046 262.924C165.674 262.576 165.152 262.402 164.48 262.402H161.672V266.074ZM161.672 260.602H163.868C164.432 260.602 164.882 260.44 165.218 260.116C165.554 259.792 165.722 259.378 165.722 258.874C165.722 258.394 165.554 257.986 165.218 257.65C164.882 257.314 164.432 257.146 163.868 257.146H161.672V260.602ZM170.635 268V259H172.615V262.564H176.953V259H178.933V268H176.953V264.328H172.615V268H170.635ZM183.367 268H181.603V259H183.583V264.994L188.173 259H189.937V268H187.957V262.006L183.367 268ZM198.583 268L194.587 264.166V268H192.607V259H194.587V262.852L198.133 259H200.545L196.459 263.428L201.193 268H198.583ZM205.473 268.18C204.249 268.18 203.217 267.724 202.377 266.812C201.549 265.9 201.135 264.796 201.135 263.5C201.135 262.204 201.549 261.1 202.377 260.188C203.217 259.276 204.249 258.82 205.473 258.82C206.085 258.82 206.649 258.958 207.165 259.234C207.681 259.498 208.077 259.822 208.353 260.206V259H210.333V268H208.353V266.794C208.077 267.178 207.681 267.508 207.165 267.784C206.649 268.048 206.085 268.18 205.473 268.18ZM203.907 265.552C204.411 266.104 205.053 266.38 205.833 266.38C206.613 266.38 207.255 266.104 207.759 265.552C208.263 265 208.515 264.316 208.515 263.5C208.515 262.684 208.263 262 207.759 261.448C207.255 260.896 206.613 260.62 205.833 260.62C205.053 260.62 204.411 260.896 203.907 261.448C203.403 262 203.151 262.684 203.151 263.5C203.151 264.316 203.403 265 203.907 265.552ZM216.994 268.18C215.65 268.18 214.546 267.742 213.682 266.866C212.818 265.978 212.386 264.856 212.386 263.5C212.386 262.144 212.812 261.028 213.664 260.152C214.516 259.264 215.632 258.82 217.012 258.82C218.404 258.82 219.526 259.306 220.378 260.278C221.23 261.238 221.608 262.474 221.512 263.986H214.348C214.372 264.682 214.636 265.264 215.14 265.732C215.644 266.2 216.286 266.434 217.066 266.434C218.17 266.434 218.926 266.014 219.334 265.174H221.404C221.128 266.05 220.6 266.77 219.82 267.334C219.04 267.898 218.098 268.18 216.994 268.18ZM216.958 260.476C216.31 260.476 215.752 260.662 215.284 261.034C214.828 261.394 214.534 261.91 214.402 262.582H219.388C219.244 261.886 218.95 261.364 218.506 261.016C218.062 260.656 217.546 260.476 216.958 260.476ZM223.545 259H225.273L228.423 263.104L231.609 259H233.337V268H231.357V262.114L228.441 265.894L225.525 262.114V268H223.545V259ZM240.244 268V259H244.348C245.38 259 246.172 259.246 246.724 259.738C247.276 260.23 247.552 260.842 247.552 261.574C247.552 262.21 247.306 262.756 246.814 263.212C247.69 263.68 248.128 264.388 248.128 265.336C248.128 266.092 247.858 266.728 247.318 267.244C246.778 267.748 245.962 268 244.87 268H240.244ZM242.224 266.326H244.852C245.248 266.326 245.56 266.23 245.788 266.038C246.028 265.834 246.148 265.558 246.148 265.21C246.148 264.85 246.028 264.574 245.788 264.382C245.56 264.178 245.248 264.076 244.852 264.076H242.224V266.326ZM242.224 262.636H244.42C244.744 262.636 245.014 262.558 245.23 262.402C245.458 262.234 245.572 261.97 245.572 261.61C245.572 260.938 245.188 260.602 244.42 260.602H242.224V262.636ZM257.557 266.83C256.657 267.73 255.541 268.18 254.209 268.18C252.877 268.18 251.755 267.73 250.843 266.83C249.943 265.918 249.493 264.808 249.493 263.5C249.493 262.192 249.943 261.088 250.843 260.188C251.755 259.276 252.877 258.82 254.209 258.82C255.541 258.82 256.657 259.276 257.557 260.188C258.469 261.088 258.925 262.192 258.925 263.5C258.925 264.808 258.469 265.918 257.557 266.83ZM254.209 266.344C254.989 266.344 255.631 266.074 256.135 265.534C256.651 264.982 256.909 264.304 256.909 263.5C256.909 262.696 256.651 262.024 256.135 261.484C255.631 260.932 254.989 260.656 254.209 260.656C253.417 260.656 252.763 260.932 252.247 261.484C251.743 262.024 251.491 262.696 251.491 263.5C251.491 264.304 251.743 264.982 252.247 265.534C252.763 266.074 253.417 266.344 254.209 266.344ZM265.152 268V259H269.256C270.288 259 271.08 259.246 271.632 259.738C272.184 260.23 272.46 260.842 272.46 261.574C272.46 262.21 272.214 262.756 271.722 263.212C272.598 263.68 273.036 264.388 273.036 265.336C273.036 266.092 272.766 266.728 272.226 267.244C271.686 267.748 270.87 268 269.778 268H265.152ZM267.132 266.326H269.76C270.156 266.326 270.468 266.23 270.696 266.038C270.936 265.834 271.056 265.558 271.056 265.21C271.056 264.85 270.936 264.574 270.696 264.382C270.468 264.178 270.156 264.076 269.76 264.076H267.132V266.326ZM267.132 262.636H269.328C269.652 262.636 269.922 262.558 270.138 262.402C270.366 262.234 270.48 261.97 270.48 261.61C270.48 260.938 270.096 260.602 269.328 260.602H267.132V262.636ZM275.049 268V259H277.029V262.564H281.367V259H283.347V268H281.367V264.328H277.029V268H275.049ZM294.676 259L289.996 269.386C289.6 270.286 289.138 270.934 288.61 271.33C288.094 271.738 287.446 271.942 286.666 271.942C286.186 271.942 285.82 271.912 285.568 271.852V270.142C285.928 270.166 286.222 270.178 286.45 270.178C287.11 270.178 287.65 269.74 288.07 268.864L288.664 267.55L284.776 259H286.954L289.78 265.246L292.48 259H294.676ZM297.729 268V260.764H295.029V259H302.535V260.764H299.709V268H297.729ZM306.173 271.762H304.193V259H306.173V260.206C306.449 259.822 306.845 259.498 307.361 259.234C307.889 258.958 308.459 258.82 309.071 258.82C310.295 258.82 311.321 259.276 312.149 260.188C312.989 261.1 313.409 262.204 313.409 263.5C313.409 264.796 312.989 265.9 312.149 266.812C311.321 267.724 310.295 268.18 309.071 268.18C308.459 268.18 307.889 268.048 307.361 267.784C306.845 267.508 306.449 267.178 306.173 266.794V271.762ZM308.711 266.38C309.491 266.38 310.133 266.104 310.637 265.552C311.141 265 311.393 264.316 311.393 263.5C311.393 262.684 311.141 262 310.637 261.448C310.133 260.896 309.491 260.62 308.711 260.62C307.919 260.62 307.271 260.896 306.767 261.448C306.263 262 306.011 262.684 306.011 263.5C306.011 264.316 306.263 265 306.767 265.552C307.271 266.104 307.919 266.38 308.711 266.38ZM319.404 268.18C318.06 268.18 316.956 267.742 316.092 266.866C315.228 265.978 314.796 264.856 314.796 263.5C314.796 262.144 315.222 261.028 316.074 260.152C316.926 259.264 318.042 258.82 319.422 258.82C320.814 258.82 321.936 259.306 322.788 260.278C323.64 261.238 324.018 262.474 323.922 263.986H316.758C316.782 264.682 317.046 265.264 317.55 265.732C318.054 266.2 318.696 266.434 319.476 266.434C320.58 266.434 321.336 266.014 321.744 265.174H323.814C323.538 266.05 323.01 266.77 322.23 267.334C321.45 267.898 320.508 268.18 319.404 268.18ZM319.368 260.476C318.72 260.476 318.162 260.662 317.694 261.034C317.238 261.394 316.944 261.91 316.812 262.582H321.798C321.654 261.886 321.36 261.364 320.916 261.016C320.472 260.656 319.956 260.476 319.368 260.476ZM325.955 268V259H327.935V262.564H332.273V259H334.253V268H332.273V264.328H327.935V268H325.955ZM336.924 268V259H338.904V262.564H343.242V259H345.222V268H343.242V264.328H338.904V268H336.924ZM349.657 268H347.893V259H349.873V264.994L354.463 259H356.227V268H354.247V262.006L349.657 268ZM362.874 268.18C361.53 268.18 360.426 267.742 359.562 266.866C358.698 265.978 358.266 264.856 358.266 263.5C358.266 262.144 358.692 261.028 359.544 260.152C360.396 259.264 361.512 258.82 362.892 258.82C364.284 258.82 365.406 259.306 366.258 260.278C367.11 261.238 367.488 262.474 367.392 263.986H360.228C360.252 264.682 360.516 265.264 361.02 265.732C361.524 266.2 362.166 266.434 362.946 266.434C364.05 266.434 364.806 266.014 365.214 265.174H367.284C367.008 266.05 366.48 266.77 365.7 267.334C364.92 267.898 363.978 268.18 362.874 268.18ZM362.838 260.476C362.19 260.476 361.632 260.662 361.164 261.034C360.708 261.394 360.414 261.91 360.282 262.582H365.268C365.124 261.886 364.83 261.364 364.386 261.016C363.942 260.656 363.426 260.476 362.838 260.476ZM373.662 268V259H381.78V268H379.8V260.764H375.642V268H373.662ZM386.417 271.762H384.437V259H386.417V260.206C386.693 259.822 387.089 259.498 387.605 259.234C388.133 258.958 388.703 258.82 389.315 258.82C390.539 258.82 391.565 259.276 392.393 260.188C393.233 261.1 393.653 262.204 393.653 263.5C393.653 264.796 393.233 265.9 392.393 266.812C391.565 267.724 390.539 268.18 389.315 268.18C388.703 268.18 388.133 268.048 387.605 267.784C387.089 267.508 386.693 267.178 386.417 266.794V271.762ZM388.955 266.38C389.735 266.38 390.377 266.104 390.881 265.552C391.385 265 391.637 264.316 391.637 263.5C391.637 262.684 391.385 262 390.881 261.448C390.377 260.896 389.735 260.62 388.955 260.62C388.163 260.62 387.515 260.896 387.011 261.448C386.507 262 386.255 262.684 386.255 263.5C386.255 264.316 386.507 265 387.011 265.552C387.515 266.104 388.163 266.38 388.955 266.38ZM403.086 266.83C402.186 267.73 401.07 268.18 399.738 268.18C398.406 268.18 397.284 267.73 396.372 266.83C395.472 265.918 395.022 264.808 395.022 263.5C395.022 262.192 395.472 261.088 396.372 260.188C397.284 259.276 398.406 258.82 399.738 258.82C401.07 258.82 402.186 259.276 403.086 260.188C403.998 261.088 404.454 262.192 404.454 263.5C404.454 264.808 403.998 265.918 403.086 266.83ZM399.738 266.344C400.518 266.344 401.16 266.074 401.664 265.534C402.18 264.982 402.438 264.304 402.438 263.5C402.438 262.696 402.18 262.024 401.664 261.484C401.16 260.932 400.518 260.656 399.738 260.656C398.946 260.656 398.292 260.932 397.776 261.484C397.272 262.024 397.02 262.696 397.02 263.5C397.02 264.304 397.272 264.982 397.776 265.534C398.292 266.074 398.946 266.344 399.738 266.344ZM415.949 266.236V270.25H414.149V268H406.445V259H408.425V266.236H412.547V259H414.527V266.236H415.949ZM421.638 268.18C420.294 268.18 419.19 267.742 418.326 266.866C417.462 265.978 417.03 264.856 417.03 263.5C417.03 262.144 417.456 261.028 418.308 260.152C419.16 259.264 420.276 258.82 421.656 258.82C423.048 258.82 424.17 259.306 425.022 260.278C425.874 261.238 426.252 262.474 426.156 263.986H418.992C419.016 264.682 419.28 265.264 419.784 265.732C420.288 266.2 420.93 266.434 421.71 266.434C422.814 266.434 423.57 266.014 423.978 265.174H426.048C425.772 266.05 425.244 266.77 424.464 267.334C423.684 267.898 422.742 268.18 421.638 268.18ZM421.602 260.476C420.954 260.476 420.396 260.662 419.928 261.034C419.472 261.394 419.178 261.91 419.046 262.582H424.032C423.888 261.886 423.594 261.364 423.15 261.016C422.706 260.656 422.19 260.476 421.602 260.476ZM432.257 268.18C430.901 268.18 429.773 267.73 428.873 266.83C427.985 265.918 427.541 264.808 427.541 263.5C427.541 262.192 427.985 261.088 428.873 260.188C429.773 259.276 430.901 258.82 432.257 258.82C433.421 258.82 434.411 259.144 435.227 259.792C436.055 260.44 436.589 261.274 436.829 262.294H434.741C434.561 261.79 434.249 261.388 433.805 261.088C433.373 260.776 432.857 260.62 432.257 260.62C431.465 260.62 430.817 260.89 430.313 261.43C429.809 261.97 429.557 262.66 429.557 263.5C429.557 264.34 429.809 265.03 430.313 265.57C430.817 266.11 431.465 266.38 432.257 266.38C432.857 266.38 433.373 266.23 433.805 265.93C434.249 265.618 434.561 265.21 434.741 264.706H436.829C436.589 265.726 436.055 266.56 435.227 267.208C434.411 267.856 433.421 268.18 432.257 268.18ZM442.769 268.18C441.413 268.18 440.285 267.73 439.385 266.83C438.497 265.918 438.053 264.808 438.053 263.5C438.053 262.192 438.497 261.088 439.385 260.188C440.285 259.276 441.413 258.82 442.769 258.82C443.933 258.82 444.923 259.144 445.739 259.792C446.567 260.44 447.101 261.274 447.341 262.294H445.253C445.073 261.79 444.761 261.388 444.317 261.088C443.885 260.776 443.369 260.62 442.769 260.62C441.977 260.62 441.329 260.89 440.825 261.43C440.321 261.97 440.069 262.66 440.069 263.5C440.069 264.34 440.321 265.03 440.825 265.57C441.329 266.11 441.977 266.38 442.769 266.38C443.369 266.38 443.885 266.23 444.317 265.93C444.761 265.618 445.073 265.21 445.253 264.706H447.341C447.101 265.726 446.567 266.56 445.739 267.208C444.923 267.856 443.933 268.18 442.769 268.18ZM457.709 268V259H459.689V268H457.709ZM449.213 268V259H451.193V261.97H453.083C454.175 261.97 454.997 262.276 455.549 262.888C456.113 263.488 456.395 264.178 456.395 264.958C456.395 265.75 456.113 266.458 455.549 267.082C454.997 267.694 454.175 268 453.083 268H449.213ZM451.193 263.716V266.254H452.921C453.425 266.254 453.809 266.146 454.073 265.93C454.349 265.702 454.487 265.384 454.487 264.976C454.487 264.136 453.965 263.716 452.921 263.716H451.193ZM472.574 268L468.578 264.166V268H466.598V259H468.578V262.852L472.124 259H474.536L470.45 263.428L475.184 268H472.574ZM483.154 266.83C482.254 267.73 481.138 268.18 479.806 268.18C478.474 268.18 477.352 267.73 476.44 266.83C475.54 265.918 475.09 264.808 475.09 263.5C475.09 262.192 475.54 261.088 476.44 260.188C477.352 259.276 478.474 258.82 479.806 258.82C481.138 258.82 482.254 259.276 483.154 260.188C484.066 261.088 484.522 262.192 484.522 263.5C484.522 264.808 484.066 265.918 483.154 266.83ZM479.806 266.344C480.586 266.344 481.228 266.074 481.732 265.534C482.248 264.982 482.506 264.304 482.506 263.5C482.506 262.696 482.248 262.024 481.732 261.484C481.228 260.932 480.586 260.656 479.806 260.656C479.014 260.656 478.36 260.932 477.844 261.484C477.34 262.024 477.088 262.696 477.088 263.5C477.088 264.304 477.34 264.982 477.844 265.534C478.36 266.074 479.014 266.344 479.806 266.344ZM486.514 259H488.242L491.392 263.104L494.578 259H496.306V268H494.326V262.114L491.41 265.894L488.494 262.114V268H486.514V259ZM498.977 268V259H507.095V268H505.115V260.764H500.957V268H498.977ZM513.442 268.18C512.218 268.18 511.186 267.724 510.346 266.812C509.518 265.9 509.104 264.796 509.104 263.5C509.104 262.204 509.518 261.1 510.346 260.188C511.186 259.276 512.218 258.82 513.442 258.82C514.054 258.82 514.618 258.958 515.134 259.234C515.65 259.498 516.046 259.822 516.322 260.206V259H518.302V268H516.322V266.794C516.046 267.178 515.65 267.508 515.134 267.784C514.618 268.048 514.054 268.18 513.442 268.18ZM511.876 265.552C512.38 266.104 513.022 266.38 513.802 266.38C514.582 266.38 515.224 266.104 515.728 265.552C516.232 265 516.484 264.316 516.484 263.5C516.484 262.684 516.232 262 515.728 261.448C515.224 260.896 514.582 260.62 513.802 260.62C513.022 260.62 512.38 260.896 511.876 261.448C511.372 262 511.12 262.684 511.12 263.5C511.12 264.316 511.372 265 511.876 265.552ZM520.984 268V259H522.964V262.564H527.302V259H529.282V268H527.302V264.328H522.964V268H520.984ZM533.717 268H531.953V259H533.933V264.994L538.523 259H540.287V268H538.307V262.006L533.717 268ZM544.721 268H542.957V259H544.937V264.994L549.527 259H551.291V268H549.311V262.006L544.721 268ZM553.745 263.932V261.988H558.587V263.932H553.745ZM566.986 268L562.99 264.166V268H561.01V259H562.99V262.852L566.536 259H568.948L564.862 263.428L569.596 268H566.986ZM570.748 268.144C570.304 268.144 569.98 268.12 569.776 268.072V266.362C570.04 266.386 570.238 266.398 570.37 266.398C570.742 266.398 571.018 266.278 571.198 266.038C571.378 265.786 571.468 265.348 571.468 264.724V259H578.794V268H576.814V260.764H573.448V265.03C573.448 266.05 573.19 266.824 572.674 267.352C572.17 267.88 571.528 268.144 570.748 268.144ZM583.217 268H581.453V259H583.433V264.994L588.023 259H589.787V268H587.807V262.006L583.217 268ZM596.435 268.18C595.091 268.18 593.987 267.742 593.123 266.866C592.259 265.978 591.827 264.856 591.827 263.5C591.827 262.144 592.253 261.028 593.105 260.152C593.957 259.264 595.073 258.82 596.453 258.82C597.845 258.82 598.967 259.306 599.819 260.278C600.671 261.238 601.049 262.474 600.953 263.986H593.789C593.813 264.682 594.077 265.264 594.581 265.732C595.085 266.2 595.727 266.434 596.507 266.434C597.611 266.434 598.367 266.014 598.775 265.174H600.845C600.569 266.05 600.041 266.77 599.261 267.334C598.481 267.898 597.539 268.18 596.435 268.18ZM596.399 260.476C595.751 260.476 595.193 260.662 594.725 261.034C594.269 261.394 593.975 261.91 593.843 262.582H598.829C598.685 261.886 598.391 261.364 597.947 261.016C597.503 260.656 596.987 260.476 596.399 260.476ZM602.986 268V259H604.966V262.564H609.304V259H611.284V268H609.304V264.328H604.966V268H602.986ZM615.629 268V260.764H612.929V259H620.435V260.764H617.609V268H615.629ZM625.538 268.18C624.314 268.18 623.282 267.724 622.442 266.812C621.614 265.9 621.2 264.796 621.2 263.5C621.2 262.204 621.614 261.1 622.442 260.188C623.282 259.276 624.314 258.82 625.538 258.82C626.15 258.82 626.714 258.958 627.23 259.234C627.746 259.498 628.142 259.822 628.418 260.206V259H630.398V268H628.418V266.794C628.142 267.178 627.746 267.508 627.23 267.784C626.714 268.048 626.15 268.18 625.538 268.18ZM623.972 265.552C624.476 266.104 625.118 266.38 625.898 266.38C626.678 266.38 627.32 266.104 627.824 265.552C628.328 265 628.58 264.316 628.58 263.5C628.58 262.684 628.328 262 627.824 261.448C627.32 260.896 626.678 260.62 625.898 260.62C625.118 260.62 624.476 260.896 623.972 261.448C623.468 262 623.216 262.684 623.216 263.5C623.216 264.316 623.468 265 623.972 265.552Z" fill="white"/>
</svg>
