<svg width="377" height="222" viewBox="0 0 377 222" fill="none" xmlns="http://www.w3.org/2000/svg">
<path d="M193.027 96.944H206.347C206.587 96.944 206.795 96.856 206.971 96.68C207.163 96.504 207.259 96.296 207.259 96.056C207.259 95.8 207.163 95.592 206.971 95.432C206.795 95.256 206.587 95.168 206.347 95.168H193.027V96.944ZM193.027 91.088V92.864H206.371C206.611 92.864 206.819 92.784 206.995 92.624C207.171 92.464 207.259 92.256 207.259 92C207.259 91.76 207.163 91.552 206.971 91.376C206.795 91.184 206.587 91.088 206.347 91.088H193.027ZM191.875 99.248C191.555 99.248 191.283 99.136 191.059 98.912C190.835 98.688 190.723 98.416 190.723 98.096V89.936C190.723 89.616 190.835 89.344 191.059 89.12C191.283 88.896 191.555 88.784 191.875 88.784H206.251C206.699 88.784 207.115 88.872 207.499 89.048C207.899 89.208 208.243 89.432 208.531 89.72C208.835 90.008 209.067 90.352 209.227 90.752C209.403 91.136 209.491 91.552 209.491 92C209.491 92.4 209.419 92.776 209.275 93.128C209.147 93.464 208.971 93.768 208.747 94.04C208.971 94.312 209.147 94.624 209.275 94.976C209.419 95.312 209.491 95.672 209.491 96.056C209.491 96.504 209.403 96.92 209.227 97.304C209.067 97.688 208.835 98.024 208.531 98.312C208.243 98.6 207.899 98.832 207.499 99.008C207.115 99.168 206.699 99.248 206.251 99.248H191.875ZM237.308 96.944C237.852 96.944 238.3 96.848 238.652 96.656C239.004 96.448 239.276 96.2 239.468 95.912C239.676 95.624 239.812 95.312 239.876 94.976C239.956 94.624 239.996 94.304 239.996 94.016C239.996 93.728 239.956 93.416 239.876 93.08C239.812 92.728 239.676 92.408 239.468 92.12C239.276 91.832 239.004 91.592 238.652 91.4C238.3 91.192 237.852 91.088 237.308 91.088H227.612C227.052 91.088 226.596 91.192 226.244 91.4C225.908 91.592 225.636 91.832 225.428 92.12C225.236 92.408 225.1 92.728 225.02 93.08C224.956 93.416 224.924 93.728 224.924 94.016C224.924 94.304 224.956 94.624 225.02 94.976C225.1 95.312 225.236 95.624 225.428 95.912C225.636 96.2 225.908 96.448 226.244 96.656C226.596 96.848 227.052 96.944 227.612 96.944H237.308ZM242.228 94.016C242.228 94.624 242.124 95.24 241.916 95.864C241.724 96.472 241.436 97.032 241.052 97.544C240.668 98.04 240.204 98.448 239.66 98.768C239.116 99.088 238.5 99.248 237.812 99.248H226.868C226.212 99.216 225.628 99.04 225.116 98.72C224.604 98.384 224.164 97.968 223.796 97.472C223.444 96.976 223.172 96.424 222.98 95.816C222.788 95.208 222.692 94.608 222.692 94.016C222.692 93.408 222.788 92.8 222.98 92.192C223.188 91.568 223.484 91.008 223.868 90.512C224.252 90 224.716 89.584 225.26 89.264C225.804 88.944 226.42 88.784 227.108 88.784H238.052C238.708 88.816 239.292 89 239.804 89.336C240.316 89.656 240.748 90.064 241.1 90.56C241.468 91.056 241.748 91.608 241.94 92.216C242.132 92.824 242.228 93.424 242.228 94.016ZM246.934 95.12V96.944H260.254C260.494 96.944 260.702 96.856 260.878 96.68C261.07 96.504 261.166 96.296 261.166 96.056C261.166 95.8 261.07 95.592 260.878 95.432C260.702 95.256 260.494 95.168 260.254 95.168H247.51C247.302 95.168 247.11 95.152 246.934 95.12ZM244.63 89.936C244.63 89.616 244.742 89.344 244.966 89.12C245.19 88.896 245.462 88.784 245.782 88.784C245.862 88.784 245.942 88.792 246.022 88.808H261.262C261.582 88.808 261.854 88.92 262.078 89.144C262.302 89.368 262.414 89.64 262.414 89.96C262.414 90.28 262.302 90.552 262.078 90.776C261.854 91 261.582 91.112 261.262 91.112H246.934V91.976C246.934 92.216 247.006 92.416 247.15 92.576C247.294 92.736 247.47 92.832 247.678 92.864H260.158C260.606 92.864 261.022 92.952 261.406 93.128C261.806 93.288 262.15 93.512 262.438 93.8C262.742 94.088 262.974 94.424 263.134 94.808C263.31 95.192 263.398 95.608 263.398 96.056C263.398 96.504 263.31 96.92 263.134 97.304C262.974 97.688 262.742 98.024 262.438 98.312C262.15 98.6 261.806 98.832 261.406 99.008C261.022 99.168 260.606 99.248 260.158 99.248H245.782C245.462 99.248 245.19 99.136 244.966 98.912C244.742 98.688 244.63 98.416 244.63 98.096C244.63 98 244.638 97.912 244.654 97.832C244.638 97.752 244.63 97.664 244.63 97.568V89.936ZM267.834 98.816C267.594 99.104 267.298 99.248 266.946 99.248C266.626 99.248 266.354 99.136 266.13 98.912C265.906 98.688 265.794 98.416 265.794 98.096C265.794 97.808 265.874 97.576 266.034 97.4L271.866 89.552C272.138 89.184 272.498 88.888 272.946 88.664C273.394 88.424 273.874 88.304 274.386 88.304C274.866 88.304 275.322 88.408 275.754 88.616C276.186 88.824 276.538 89.112 276.81 89.48L282.642 97.28C282.738 97.392 282.818 97.52 282.882 97.664C282.946 97.792 282.978 97.936 282.978 98.096C282.978 98.416 282.866 98.688 282.642 98.912C282.418 99.136 282.146 99.248 281.826 99.248C281.442 99.248 281.138 99.096 280.914 98.792L275.322 91.328C275.21 91.2 275.066 91.064 274.89 90.92C274.73 90.76 274.562 90.68 274.386 90.68C274.21 90.68 274.034 90.76 273.858 90.92C273.698 91.064 273.57 91.2 273.474 91.328L267.834 98.816ZM290.572 94.64H297.388L294.916 91.328C294.804 91.2 294.66 91.064 294.484 90.92C294.324 90.76 294.156 90.68 293.98 90.68C293.804 90.68 293.628 90.76 293.452 90.92C293.292 91.064 293.164 91.2 293.068 91.328L290.572 94.64ZM299.116 96.944H288.82L287.428 98.816C287.188 99.104 286.892 99.248 286.54 99.248C286.22 99.248 285.948 99.136 285.724 98.912C285.5 98.688 285.388 98.416 285.388 98.096C285.388 97.808 285.468 97.576 285.628 97.4L291.46 89.552C291.732 89.184 292.092 88.888 292.54 88.664C292.988 88.424 293.468 88.304 293.98 88.304C294.46 88.304 294.916 88.408 295.348 88.616C295.78 88.824 296.132 89.112 296.404 89.48L302.236 97.28C302.332 97.392 302.412 97.52 302.476 97.664C302.54 97.792 302.572 97.936 302.572 98.096C302.572 98.416 302.46 98.688 302.236 98.912C302.012 99.136 301.74 99.248 301.42 99.248C301.036 99.248 300.732 99.096 300.508 98.792L299.116 96.944ZM304.981 94.016C304.981 93.408 305.077 92.8 305.269 92.192C305.477 91.568 305.773 91.008 306.157 90.512C306.541 90 307.005 89.584 307.549 89.264C308.093 88.944 308.709 88.784 309.397 88.784H323.389C323.709 88.784 323.981 88.896 324.205 89.12C324.429 89.344 324.541 89.616 324.541 89.936C324.541 90.256 324.429 90.528 324.205 90.752C323.981 90.976 323.709 91.088 323.389 91.088H309.901C309.341 91.088 308.885 91.192 308.533 91.4C308.197 91.592 307.925 91.832 307.717 92.12C307.525 92.408 307.389 92.728 307.309 93.08C307.245 93.416 307.213 93.728 307.213 94.016C307.213 94.304 307.245 94.624 307.309 94.976C307.389 95.312 307.525 95.624 307.717 95.912C307.925 96.2 308.197 96.448 308.533 96.656C308.885 96.848 309.341 96.944 309.901 96.944H323.389C323.709 96.944 323.981 97.056 324.205 97.28C324.429 97.504 324.541 97.776 324.541 98.096C324.541 98.416 324.429 98.688 324.205 98.912C323.981 99.136 323.709 99.248 323.389 99.248H309.157C308.501 99.248 307.917 99.088 307.405 98.768C306.893 98.448 306.453 98.04 306.085 97.544C305.733 97.032 305.461 96.464 305.269 95.84C305.077 95.216 304.981 94.608 304.981 94.016ZM344.606 88.784C344.926 88.784 345.198 88.896 345.422 89.12C345.646 89.344 345.758 89.616 345.758 89.936C345.758 90.24 345.654 90.504 345.446 90.728C345.238 90.936 344.99 91.056 344.702 91.088H339.878C339.398 91.12 338.998 91.24 338.678 91.448C338.374 91.64 338.134 91.88 337.958 92.168C337.782 92.456 337.662 92.768 337.598 93.104C337.534 93.44 337.502 93.744 337.502 94.016V98.096C337.502 98.416 337.39 98.688 337.166 98.912C336.942 99.136 336.67 99.248 336.35 99.248C336.03 99.248 335.758 99.136 335.534 98.912C335.31 98.688 335.198 98.416 335.198 98.096V94.016C335.198 93.52 335.262 93.024 335.39 92.528C335.518 92.016 335.71 91.536 335.966 91.088H328.094C327.774 91.088 327.502 90.976 327.278 90.752C327.054 90.528 326.942 90.256 326.942 89.936C326.942 89.616 327.054 89.344 327.278 89.12C327.502 88.896 327.774 88.784 328.094 88.784H344.606ZM350.457 94.664C350.457 95.24 350.489 95.68 350.553 95.984C350.617 96.288 350.769 96.44 351.009 96.44C351.137 96.44 351.297 96.392 351.489 96.296C351.697 96.184 351.953 96.04 352.257 95.864L363.249 89.144C363.425 89.032 363.617 88.944 363.825 88.88C364.049 88.816 364.273 88.784 364.497 88.784C365.153 88.784 365.697 89.008 366.129 89.456C366.577 89.904 366.801 90.456 366.801 91.112V98.096C366.801 98.416 366.689 98.688 366.465 98.912C366.241 99.136 365.969 99.248 365.649 99.248C365.329 99.248 365.057 99.136 364.833 98.912C364.609 98.688 364.497 98.416 364.497 98.096V93.368C364.497 92.792 364.465 92.352 364.401 92.048C364.337 91.744 364.185 91.592 363.945 91.592C363.817 91.592 363.649 91.648 363.441 91.76C363.249 91.856 363.001 91.992 362.697 92.168L351.705 98.888C351.529 99 351.329 99.088 351.105 99.152C350.897 99.216 350.681 99.248 350.457 99.248C349.801 99.248 349.249 99.024 348.801 98.576C348.369 98.128 348.153 97.576 348.153 96.92V89.936C348.153 89.616 348.265 89.344 348.489 89.12C348.713 88.896 348.985 88.784 349.305 88.784C349.625 88.784 349.897 88.896 350.121 89.12C350.345 89.344 350.457 89.616 350.457 89.936V94.664Z" fill="white"/>
<path d="M10.504 58.664C10.504 59.24 10.536 59.68 10.6 59.984C10.664 60.288 10.816 60.44 11.056 60.44C11.184 60.44 11.344 60.392 11.536 60.296C11.744 60.184 12 60.04 12.304 59.864L23.296 53.144C23.472 53.032 23.664 52.944 23.872 52.88C24.096 52.816 24.32 52.784 24.544 52.784C25.2 52.784 25.744 53.008 26.176 53.456C26.624 53.904 26.848 54.456 26.848 55.112V62.096C26.848 62.416 26.736 62.688 26.512 62.912C26.288 63.136 26.016 63.248 25.696 63.248C25.376 63.248 25.104 63.136 24.88 62.912C24.656 62.688 24.544 62.416 24.544 62.096V57.368C24.544 56.792 24.512 56.352 24.448 56.048C24.384 55.744 24.232 55.592 23.992 55.592C23.864 55.592 23.696 55.648 23.488 55.76C23.296 55.856 23.048 55.992 22.744 56.168L11.752 62.888C11.576 63 11.376 63.088 11.152 63.152C10.944 63.216 10.728 63.248 10.504 63.248C9.848 63.248 9.296 63.024 8.848 62.576C8.416 62.128 8.2 61.576 8.2 60.92V53.936C8.2 53.616 8.312 53.344 8.536 53.12C8.76 52.896 9.032 52.784 9.352 52.784C9.672 52.784 9.944 52.896 10.168 53.12C10.392 53.344 10.504 53.616 10.504 53.936V58.664ZM29.2469 58.016C29.2469 57.408 29.3429 56.8 29.5349 56.192C29.7429 55.568 30.0389 55.008 30.4229 54.512C30.8069 54 31.2709 53.584 31.8149 53.264C32.3589 52.944 32.9749 52.784 33.6629 52.784H47.6549C47.9749 52.784 48.2469 52.896 48.4709 53.12C48.6949 53.344 48.8069 53.616 48.8069 53.936C48.8069 54.256 48.6949 54.528 48.4709 54.752C48.2469 54.976 47.9749 55.088 47.6549 55.088H34.1669C33.6069 55.088 33.1509 55.192 32.7989 55.4C32.4629 55.592 32.1909 55.832 31.9829 56.12C31.7909 56.408 31.6549 56.728 31.5749 57.08C31.5109 57.416 31.4789 57.728 31.4789 58.016C31.4789 58.304 31.5109 58.624 31.5749 58.976C31.6549 59.312 31.7909 59.624 31.9829 59.912C32.1909 60.2 32.4629 60.448 32.7989 60.656C33.1509 60.848 33.6069 60.944 34.1669 60.944H47.6549C47.9749 60.944 48.2469 61.056 48.4709 61.28C48.6949 61.504 48.8069 61.776 48.8069 62.096C48.8069 62.416 48.6949 62.688 48.4709 62.912C48.2469 63.136 47.9749 63.248 47.6549 63.248H33.4229C32.7669 63.248 32.1829 63.088 31.6709 62.768C31.1589 62.448 30.7189 62.04 30.3509 61.544C29.9989 61.032 29.7269 60.464 29.5349 59.84C29.3429 59.216 29.2469 58.608 29.2469 58.016ZM51.2078 58.016C51.2078 57.408 51.3038 56.8 51.4958 56.192C51.7038 55.568 51.9998 55.008 52.3838 54.512C52.7678 54 53.2318 53.584 53.7758 53.264C54.3198 52.944 54.9358 52.784 55.6238 52.784H69.6158C69.9358 52.784 70.2078 52.896 70.4318 53.12C70.6558 53.344 70.7678 53.616 70.7678 53.936C70.7678 54.256 70.6558 54.528 70.4318 54.752C70.2078 54.976 69.9358 55.088 69.6158 55.088H56.1278C55.5678 55.088 55.1118 55.192 54.7598 55.4C54.4238 55.592 54.1518 55.832 53.9438 56.12C53.7518 56.408 53.6158 56.728 53.5358 57.08C53.4718 57.416 53.4398 57.728 53.4398 58.016C53.4398 58.304 53.4718 58.624 53.5358 58.976C53.6158 59.312 53.7518 59.624 53.9438 59.912C54.1518 60.2 54.4238 60.448 54.7598 60.656C55.1118 60.848 55.5678 60.944 56.1278 60.944H69.6158C69.9358 60.944 70.2078 61.056 70.4318 61.28C70.6558 61.504 70.7678 61.776 70.7678 62.096C70.7678 62.416 70.6558 62.688 70.4318 62.912C70.2078 63.136 69.9358 63.248 69.6158 63.248H55.3838C54.7278 63.248 54.1438 63.088 53.6318 62.768C53.1198 62.448 52.6798 62.04 52.3118 61.544C51.9598 61.032 51.6878 60.464 51.4958 59.84C51.3038 59.216 51.2078 58.608 51.2078 58.016ZM75.2088 62.816C74.9688 63.104 74.6728 63.248 74.3208 63.248C74.0008 63.248 73.7288 63.136 73.5048 62.912C73.2808 62.688 73.1688 62.416 73.1688 62.096C73.1688 61.808 73.2488 61.576 73.4088 61.4L79.2408 53.552C79.5128 53.184 79.8728 52.888 80.3208 52.664C80.7688 52.424 81.2488 52.304 81.7608 52.304C82.2408 52.304 82.6968 52.408 83.1288 52.616C83.5608 52.824 83.9128 53.112 84.1848 53.48L90.0168 61.28C90.1128 61.392 90.1928 61.52 90.2568 61.664C90.3208 61.792 90.3528 61.936 90.3528 62.096C90.3528 62.416 90.2408 62.688 90.0168 62.912C89.7928 63.136 89.5208 63.248 89.2008 63.248C88.8168 63.248 88.5128 63.096 88.2888 62.792L82.6968 55.328C82.5848 55.2 82.4408 55.064 82.2648 54.92C82.1048 54.76 81.9368 54.68 81.7608 54.68C81.5848 54.68 81.4088 54.76 81.2328 54.92C81.0728 55.064 80.9448 55.2 80.8488 55.328L75.2088 62.816ZM92.7625 53.936C92.7625 53.616 92.8745 53.344 93.0985 53.12C93.3225 52.896 93.5945 52.784 93.9145 52.784H110.931C111.251 52.784 111.523 52.896 111.747 53.12C111.971 53.344 112.083 53.616 112.083 53.936C112.083 54.256 111.971 54.528 111.747 54.752C111.523 54.976 111.251 55.088 110.931 55.088H93.9145C93.5945 55.088 93.3225 54.976 93.0985 54.752C92.8745 54.528 92.7625 54.256 92.7625 53.936ZM95.6905 63.248C95.3385 63.248 94.9865 63.176 94.6345 63.032C94.2825 62.872 93.9705 62.656 93.6985 62.384C93.4265 62.112 93.2025 61.784 93.0265 61.4C92.8505 61.016 92.7625 60.584 92.7625 60.104V57.944C92.7625 57.512 92.8825 57.224 93.1225 57.08C93.3785 56.936 93.7705 56.864 94.2985 56.864H110.403C110.723 56.864 110.995 56.976 111.219 57.2C111.443 57.424 111.555 57.696 111.555 58.016C111.555 58.336 111.443 58.608 111.219 58.832C110.995 59.056 110.723 59.168 110.403 59.168H95.0665V60.344C95.0665 60.504 95.1305 60.648 95.2585 60.776C95.4025 60.888 95.5865 60.944 95.8105 60.944H110.931C111.251 60.944 111.523 61.056 111.747 61.28C111.971 61.504 112.083 61.776 112.083 62.096C112.083 62.416 111.971 62.688 111.747 62.912C111.523 63.136 111.251 63.248 110.931 63.248H95.6905ZM123.705 62.312C123.705 61.896 123.849 61.544 124.137 61.256C124.425 60.968 124.777 60.824 125.193 60.824C125.609 60.824 125.961 60.968 126.249 61.256C126.537 61.544 126.681 61.896 126.681 62.312C126.681 62.728 126.537 63.08 126.249 63.368C125.961 63.656 125.609 63.8 125.193 63.8C124.777 63.8 124.425 63.656 124.137 63.368C123.849 63.08 123.705 62.728 123.705 62.312ZM119.985 61.496H120.585C120.905 61.496 121.177 61.608 121.401 61.832C121.625 62.056 121.737 62.328 121.737 62.648C121.737 62.968 121.625 63.24 121.401 63.464C121.177 63.688 120.905 63.8 120.585 63.8H115.473C115.185 63.768 114.937 63.648 114.729 63.44C114.521 63.216 114.417 62.952 114.417 62.648C114.417 62.328 114.529 62.056 114.753 61.832C114.977 61.608 115.249 61.496 115.569 61.496H117.129L122.769 53.96C123.057 53.592 123.409 53.304 123.825 53.096C124.257 52.888 124.713 52.784 125.193 52.784C125.705 52.784 126.177 52.904 126.609 53.144C127.057 53.368 127.425 53.664 127.713 54.032L133.257 61.496H134.697C135.017 61.496 135.289 61.608 135.513 61.832C135.737 62.056 135.849 62.328 135.849 62.648C135.849 62.968 135.737 63.24 135.513 63.464C135.289 63.688 135.017 63.8 134.697 63.8H129.585C129.297 63.768 129.049 63.648 128.841 63.44C128.633 63.216 128.529 62.952 128.529 62.648C128.529 62.328 128.641 62.056 128.865 61.832C129.089 61.608 129.361 61.496 129.681 61.496H130.401L126.105 55.808C126.009 55.68 125.873 55.544 125.697 55.4C125.537 55.24 125.369 55.16 125.193 55.16C125.017 55.16 124.841 55.24 124.665 55.4C124.505 55.544 124.369 55.68 124.257 55.808L119.985 61.496ZM152.496 60.944C153.04 60.944 153.488 60.848 153.84 60.656C154.192 60.448 154.464 60.2 154.656 59.912C154.864 59.624 155 59.312 155.064 58.976C155.144 58.624 155.184 58.304 155.184 58.016C155.184 57.728 155.144 57.416 155.064 57.08C155 56.728 154.864 56.408 154.656 56.12C154.464 55.832 154.192 55.592 153.84 55.4C153.488 55.192 153.04 55.088 152.496 55.088H142.8C142.24 55.088 141.784 55.192 141.432 55.4C141.096 55.592 140.824 55.832 140.616 56.12C140.424 56.408 140.288 56.728 140.208 57.08C140.144 57.416 140.112 57.728 140.112 58.016C140.112 58.304 140.144 58.624 140.208 58.976C140.288 59.312 140.424 59.624 140.616 59.912C140.824 60.2 141.096 60.448 141.432 60.656C141.784 60.848 142.24 60.944 142.8 60.944H152.496ZM157.416 58.016C157.416 58.624 157.312 59.24 157.104 59.864C156.912 60.472 156.624 61.032 156.24 61.544C155.856 62.04 155.392 62.448 154.848 62.768C154.304 63.088 153.688 63.248 153 63.248H142.056C141.4 63.216 140.816 63.04 140.304 62.72C139.792 62.384 139.352 61.968 138.984 61.472C138.632 60.976 138.36 60.424 138.168 59.816C137.976 59.208 137.88 58.608 137.88 58.016C137.88 57.408 137.976 56.8 138.168 56.192C138.376 55.568 138.672 55.008 139.056 54.512C139.44 54 139.904 53.584 140.448 53.264C140.992 52.944 141.608 52.784 142.296 52.784H153.24C153.896 52.816 154.48 53 154.992 53.336C155.504 53.656 155.936 54.064 156.288 54.56C156.656 55.056 156.936 55.608 157.128 56.216C157.32 56.824 157.416 57.424 157.416 58.016ZM162.121 60.944H175.441C175.681 60.944 175.889 60.856 176.065 60.68C176.257 60.504 176.353 60.296 176.353 60.056C176.353 59.8 176.257 59.592 176.065 59.432C175.889 59.256 175.681 59.168 175.441 59.168H162.121V60.944ZM162.121 55.088V56.864H175.465C175.705 56.864 175.913 56.784 176.089 56.624C176.265 56.464 176.353 56.256 176.353 56C176.353 55.76 176.257 55.552 176.065 55.376C175.889 55.184 175.681 55.088 175.441 55.088H162.121ZM160.969 63.248C160.649 63.248 160.377 63.136 160.153 62.912C159.929 62.688 159.817 62.416 159.817 62.096V53.936C159.817 53.616 159.929 53.344 160.153 53.12C160.377 52.896 160.649 52.784 160.969 52.784H175.345C175.793 52.784 176.209 52.872 176.593 53.048C176.993 53.208 177.337 53.432 177.625 53.72C177.929 54.008 178.161 54.352 178.321 54.752C178.497 55.136 178.585 55.552 178.585 56C178.585 56.4 178.513 56.776 178.369 57.128C178.241 57.464 178.065 57.768 177.841 58.04C178.065 58.312 178.241 58.624 178.369 58.976C178.513 59.312 178.585 59.672 178.585 60.056C178.585 60.504 178.497 60.92 178.321 61.304C178.161 61.688 177.929 62.024 177.625 62.312C177.337 62.6 176.993 62.832 176.593 63.008C176.209 63.168 175.793 63.248 175.345 63.248H160.969ZM186.165 58.64H192.981L190.509 55.328C190.397 55.2 190.253 55.064 190.077 54.92C189.917 54.76 189.749 54.68 189.573 54.68C189.397 54.68 189.221 54.76 189.045 54.92C188.885 55.064 188.757 55.2 188.661 55.328L186.165 58.64ZM194.709 60.944H184.413L183.021 62.816C182.781 63.104 182.485 63.248 182.133 63.248C181.813 63.248 181.541 63.136 181.317 62.912C181.093 62.688 180.981 62.416 180.981 62.096C180.981 61.808 181.061 61.576 181.221 61.4L187.053 53.552C187.325 53.184 187.685 52.888 188.133 52.664C188.581 52.424 189.061 52.304 189.573 52.304C190.053 52.304 190.509 52.408 190.941 52.616C191.373 52.824 191.725 53.112 191.997 53.48L197.829 61.28C197.925 61.392 198.005 61.52 198.069 61.664C198.133 61.792 198.165 61.936 198.165 62.096C198.165 62.416 198.053 62.688 197.829 62.912C197.605 63.136 197.333 63.248 197.013 63.248C196.629 63.248 196.325 63.096 196.101 62.792L194.709 60.944ZM219.367 62.096C219.367 62.416 219.255 62.688 219.031 62.912C218.807 63.136 218.535 63.248 218.215 63.248C217.895 63.248 217.623 63.136 217.399 62.912C217.175 62.688 217.063 62.416 217.063 62.096V59.168H202.879V62.096C202.879 62.416 202.767 62.688 202.543 62.912C202.319 63.136 202.047 63.248 201.727 63.248C201.407 63.248 201.135 63.136 200.911 62.912C200.687 62.688 200.575 62.416 200.575 62.096V53.936C200.575 53.616 200.687 53.344 200.911 53.12C201.135 52.896 201.407 52.784 201.727 52.784C202.047 52.784 202.319 52.896 202.543 53.12C202.767 53.344 202.879 53.616 202.879 53.936V56.864H217.063V53.936C217.063 53.616 217.175 53.344 217.399 53.12C217.623 52.896 217.895 52.784 218.215 52.784C218.535 52.784 218.807 52.896 219.031 53.12C219.255 53.344 219.367 53.616 219.367 53.936V62.096ZM224.067 58.664C224.067 59.24 224.099 59.68 224.163 59.984C224.227 60.288 224.379 60.44 224.619 60.44C224.747 60.44 224.907 60.392 225.099 60.296C225.307 60.184 225.563 60.04 225.867 59.864L236.859 53.144C237.035 53.032 237.227 52.944 237.435 52.88C237.659 52.816 237.883 52.784 238.107 52.784C238.763 52.784 239.307 53.008 239.739 53.456C240.187 53.904 240.411 54.456 240.411 55.112V62.096C240.411 62.416 240.299 62.688 240.075 62.912C239.851 63.136 239.579 63.248 239.259 63.248C238.939 63.248 238.667 63.136 238.443 62.912C238.219 62.688 238.107 62.416 238.107 62.096V57.368C238.107 56.792 238.075 56.352 238.011 56.048C237.947 55.744 237.795 55.592 237.555 55.592C237.427 55.592 237.259 55.648 237.051 55.76C236.859 55.856 236.611 55.992 236.307 56.168L225.315 62.888C225.139 63 224.939 63.088 224.715 63.152C224.507 63.216 224.291 63.248 224.067 63.248C223.411 63.248 222.859 63.024 222.411 62.576C221.979 62.128 221.763 61.576 221.763 60.92V53.936C221.763 53.616 221.875 53.344 222.099 53.12C222.323 52.896 222.595 52.784 222.915 52.784C223.235 52.784 223.507 52.896 223.73 53.12C223.955 53.344 224.067 53.616 224.067 53.936V58.664ZM242.809 62.096C242.809 61.872 242.889 61.656 243.049 61.448C243.625 60.6 244.273 59.888 244.993 59.312C245.729 58.72 246.553 58.248 247.465 57.896C248.393 57.528 249.425 57.264 250.561 57.104C251.697 56.944 252.969 56.864 254.377 56.864H259.273V55.616C259.241 55.472 259.161 55.352 259.033 55.256C258.905 55.144 258.737 55.088 258.529 55.088H245.953C245.729 55.12 245.529 55.216 245.353 55.376C245.193 55.536 245.113 55.736 245.113 55.976C245.113 56.296 245.001 56.568 244.777 56.792C244.553 57.016 244.281 57.128 243.961 57.128C243.641 57.128 243.369 57.016 243.145 56.792C242.921 56.568 242.809 56.296 242.809 55.976C242.809 55.528 242.897 55.112 243.073 54.728C243.249 54.344 243.489 54.008 243.793 53.72C244.097 53.432 244.449 53.208 244.849 53.048C245.249 52.872 245.673 52.784 246.121 52.784H258.649C259.001 52.784 259.353 52.864 259.705 53.024C260.057 53.168 260.369 53.376 260.641 53.648C260.913 53.92 261.137 54.248 261.313 54.632C261.489 55.016 261.577 55.448 261.577 55.928V62.096C261.577 62.416 261.465 62.688 261.241 62.912C261.017 63.136 260.745 63.248 260.425 63.248C260.121 63.248 259.849 63.136 259.609 62.912C259.385 62.688 259.273 62.416 259.273 62.096V59.168H254.377C253.401 59.168 252.481 59.2 251.617 59.264C250.769 59.312 249.961 59.456 249.193 59.696C248.425 59.936 247.689 60.288 246.985 60.752C246.297 61.216 245.625 61.856 244.969 62.672C244.921 62.736 244.849 62.816 244.753 62.912C244.641 63.008 244.521 63.088 244.393 63.152C244.265 63.216 244.121 63.248 243.961 63.248C243.641 63.248 243.369 63.136 243.145 62.912C242.921 62.688 242.809 62.416 242.809 62.096Z" fill="white"/>
<path d="M45.544 22.016C45.544 21.728 45.504 21.416 45.424 21.08C45.36 20.728 45.224 20.408 45.016 20.12C44.824 19.832 44.552 19.592 44.2 19.4C43.848 19.192 43.4 19.088 42.856 19.088H34.192C33.632 19.088 33.176 19.192 32.824 19.4C32.488 19.592 32.216 19.832 32.008 20.12C31.816 20.408 31.68 20.728 31.6 21.08C31.536 21.416 31.504 21.728 31.504 22.016V26.096C31.504 26.416 31.392 26.688 31.168 26.912C30.944 27.136 30.672 27.248 30.352 27.248C30.032 27.248 29.76 27.136 29.536 26.912C29.312 26.688 29.2 26.416 29.2 26.096V22.016C29.2 21.408 29.296 20.8 29.488 20.192C29.696 19.568 29.992 19.008 30.376 18.512C30.76 18 31.224 17.584 31.768 17.264C32.312 16.944 32.928 16.784 33.616 16.784H43.672C44.328 16.816 44.912 17 45.424 17.336C45.936 17.656 46.368 18.064 46.72 18.56C47.088 19.056 47.368 19.608 47.56 20.216C47.752 20.824 47.848 21.424 47.848 22.016V26.096C47.848 26.416 47.736 26.688 47.512 26.912C47.288 27.136 47.016 27.248 46.696 27.248C46.376 27.248 46.104 27.136 45.88 26.912C45.656 26.688 45.544 26.416 45.544 26.096V22.016ZM52.5509 19.088V20.864H65.8709C66.1109 20.864 66.3189 20.784 66.4949 20.624C66.6869 20.448 66.7829 20.232 66.7829 19.976C66.7829 19.736 66.6869 19.528 66.4949 19.352C66.3189 19.176 66.1109 19.088 65.8709 19.088H52.5509ZM65.7749 16.784C66.2229 16.784 66.6389 16.872 67.0229 17.048C67.4229 17.208 67.7669 17.432 68.0549 17.72C68.3589 18.008 68.5909 18.344 68.7509 18.728C68.9269 19.112 69.0149 19.528 69.0149 19.976C69.0149 20.424 68.9269 20.84 68.7509 21.224C68.5909 21.608 68.3589 21.944 68.0549 22.232C67.7669 22.52 67.4229 22.752 67.0229 22.928C66.6389 23.088 66.2229 23.168 65.7749 23.168H52.5509V26.096C52.5509 26.416 52.4309 26.688 52.1909 26.912C51.9669 27.136 51.7029 27.248 51.3989 27.248C51.0789 27.248 50.8069 27.136 50.5829 26.912C50.3589 26.688 50.2469 26.416 50.2469 26.096V17.936C50.2469 17.616 50.3589 17.344 50.5829 17.12C50.8069 16.896 51.0789 16.784 51.3989 16.784H65.7749ZM86.0269 24.944C86.5709 24.944 87.0189 24.848 87.3709 24.656C87.7229 24.448 87.9949 24.2 88.1869 23.912C88.3949 23.624 88.5309 23.312 88.5949 22.976C88.6749 22.624 88.7149 22.304 88.7149 22.016C88.7149 21.728 88.6749 21.416 88.5949 21.08C88.5309 20.728 88.3949 20.408 88.1869 20.12C87.9949 19.832 87.7229 19.592 87.3709 19.4C87.0189 19.192 86.5709 19.088 86.0269 19.088H76.3309C75.7709 19.088 75.3149 19.192 74.9629 19.4C74.6269 19.592 74.3549 19.832 74.1469 20.12C73.9549 20.408 73.8189 20.728 73.7389 21.08C73.6749 21.416 73.6429 21.728 73.6429 22.016C73.6429 22.304 73.6749 22.624 73.7389 22.976C73.8189 23.312 73.9549 23.624 74.1469 23.912C74.3549 24.2 74.6269 24.448 74.9629 24.656C75.3149 24.848 75.7709 24.944 76.3309 24.944H86.0269ZM90.9469 22.016C90.9469 22.624 90.8429 23.24 90.6349 23.864C90.4429 24.472 90.1549 25.032 89.7709 25.544C89.3869 26.04 88.9229 26.448 88.3789 26.768C87.8349 27.088 87.2189 27.248 86.5309 27.248H75.5869C74.9309 27.216 74.3469 27.04 73.8349 26.72C73.3229 26.384 72.8829 25.968 72.5149 25.472C72.1629 24.976 71.8909 24.424 71.6989 23.816C71.5069 23.208 71.4109 22.608 71.4109 22.016C71.4109 21.408 71.5069 20.8 71.6989 20.192C71.9069 19.568 72.2029 19.008 72.5869 18.512C72.9709 18 73.4349 17.584 73.9789 17.264C74.5229 16.944 75.1389 16.784 75.8269 16.784H86.7709C87.4269 16.816 88.0109 17 88.5229 17.336C89.0349 17.656 89.4669 18.064 89.8189 18.56C90.1869 19.056 90.4669 19.608 90.6589 20.216C90.8509 20.824 90.9469 21.424 90.9469 22.016ZM95.6524 24.944H108.972C109.212 24.944 109.42 24.856 109.596 24.68C109.788 24.504 109.884 24.296 109.884 24.056C109.884 23.8 109.788 23.592 109.596 23.432C109.42 23.256 109.212 23.168 108.972 23.168H95.6524V24.944ZM95.6524 19.088V20.864H108.996C109.236 20.864 109.444 20.784 109.62 20.624C109.796 20.464 109.884 20.256 109.884 20C109.884 19.76 109.788 19.552 109.596 19.376C109.42 19.184 109.212 19.088 108.972 19.088H95.6524ZM94.5004 27.248C94.1804 27.248 93.9084 27.136 93.6844 26.912C93.4604 26.688 93.3484 26.416 93.3484 26.096V17.936C93.3484 17.616 93.4604 17.344 93.6844 17.12C93.9084 16.896 94.1804 16.784 94.5004 16.784H108.876C109.324 16.784 109.74 16.872 110.124 17.048C110.524 17.208 110.868 17.432 111.156 17.72C111.46 18.008 111.692 18.352 111.852 18.752C112.028 19.136 112.116 19.552 112.116 20C112.116 20.4 112.044 20.776 111.9 21.128C111.772 21.464 111.596 21.768 111.372 22.04C111.596 22.312 111.772 22.624 111.9 22.976C112.044 23.312 112.116 23.672 112.116 24.056C112.116 24.504 112.028 24.92 111.852 25.304C111.692 25.688 111.46 26.024 111.156 26.312C110.868 26.6 110.524 26.832 110.124 27.008C109.74 27.168 109.324 27.248 108.876 27.248H94.5004ZM129.129 24.944C129.673 24.944 130.121 24.848 130.473 24.656C130.825 24.448 131.097 24.2 131.289 23.912C131.497 23.624 131.633 23.312 131.697 22.976C131.777 22.624 131.817 22.304 131.817 22.016C131.817 21.728 131.777 21.416 131.697 21.08C131.633 20.728 131.497 20.408 131.289 20.12C131.097 19.832 130.825 19.592 130.473 19.4C130.121 19.192 129.673 19.088 129.129 19.088H119.433C118.873 19.088 118.417 19.192 118.065 19.4C117.729 19.592 117.457 19.832 117.249 20.12C117.057 20.408 116.921 20.728 116.84 21.08C116.777 21.416 116.745 21.728 116.745 22.016C116.745 22.304 116.777 22.624 116.84 22.976C116.921 23.312 117.057 23.624 117.249 23.912C117.457 24.2 117.729 24.448 118.065 24.656C118.417 24.848 118.873 24.944 119.433 24.944H129.129ZM134.049 22.016C134.049 22.624 133.945 23.24 133.737 23.864C133.545 24.472 133.257 25.032 132.873 25.544C132.489 26.04 132.025 26.448 131.481 26.768C130.937 27.088 130.321 27.248 129.633 27.248H118.689C118.033 27.216 117.449 27.04 116.937 26.72C116.425 26.384 115.985 25.968 115.617 25.472C115.265 24.976 114.993 24.424 114.801 23.816C114.609 23.208 114.513 22.608 114.513 22.016C114.513 21.408 114.609 20.8 114.801 20.192C115.009 19.568 115.305 19.008 115.689 18.512C116.073 18 116.537 17.584 117.081 17.264C117.625 16.944 118.241 16.784 118.929 16.784H129.873C130.529 16.816 131.113 17 131.625 17.336C132.137 17.656 132.569 18.064 132.921 18.56C133.289 19.056 133.569 19.608 133.761 20.216C133.953 20.824 134.049 21.424 134.049 22.016ZM145.666 26.312C145.666 25.896 145.81 25.544 146.098 25.256C146.386 24.968 146.738 24.824 147.154 24.824C147.57 24.824 147.922 24.968 148.21 25.256C148.498 25.544 148.642 25.896 148.642 26.312C148.642 26.728 148.498 27.08 148.21 27.368C147.922 27.656 147.57 27.8 147.154 27.8C146.738 27.8 146.386 27.656 146.098 27.368C145.81 27.08 145.666 26.728 145.666 26.312ZM141.946 25.496H142.546C142.866 25.496 143.138 25.608 143.362 25.832C143.586 26.056 143.698 26.328 143.698 26.648C143.698 26.968 143.586 27.24 143.362 27.464C143.138 27.688 142.866 27.8 142.546 27.8H137.434C137.146 27.768 136.898 27.648 136.69 27.44C136.482 27.216 136.378 26.952 136.378 26.648C136.378 26.328 136.49 26.056 136.714 25.832C136.938 25.608 137.21 25.496 137.53 25.496H139.09L144.73 17.96C145.018 17.592 145.37 17.304 145.786 17.096C146.218 16.888 146.674 16.784 147.154 16.784C147.666 16.784 148.138 16.904 148.57 17.144C149.018 17.368 149.386 17.664 149.674 18.032L155.218 25.496H156.658C156.978 25.496 157.25 25.608 157.474 25.832C157.698 26.056 157.81 26.328 157.81 26.648C157.81 26.968 157.698 27.24 157.474 27.464C157.25 27.688 156.978 27.8 156.658 27.8H151.546C151.258 27.768 151.01 27.648 150.802 27.44C150.594 27.216 150.49 26.952 150.49 26.648C150.49 26.328 150.602 26.056 150.826 25.832C151.05 25.608 151.322 25.496 151.642 25.496H152.362L148.066 19.808C147.97 19.68 147.834 19.544 147.658 19.4C147.498 19.24 147.33 19.16 147.154 19.16C146.978 19.16 146.802 19.24 146.626 19.4C146.466 19.544 146.33 19.68 146.218 19.808L141.946 25.496ZM162.145 22.664C162.145 23.24 162.177 23.68 162.241 23.984C162.305 24.288 162.457 24.44 162.697 24.44C162.825 24.44 162.985 24.392 163.177 24.296C163.385 24.184 163.641 24.04 163.945 23.864L174.937 17.144C175.113 17.032 175.305 16.944 175.513 16.88C175.737 16.816 175.961 16.784 176.185 16.784C176.841 16.784 177.385 17.008 177.817 17.456C178.265 17.904 178.489 18.456 178.489 19.112V26.096C178.489 26.416 178.377 26.688 178.153 26.912C177.929 27.136 177.657 27.248 177.337 27.248C177.017 27.248 176.745 27.136 176.521 26.912C176.297 26.688 176.185 26.416 176.185 26.096V21.368C176.185 20.792 176.153 20.352 176.089 20.048C176.025 19.744 175.873 19.592 175.633 19.592C175.505 19.592 175.337 19.648 175.129 19.76C174.937 19.856 174.689 19.992 174.385 20.168L163.393 26.888C163.217 27 163.017 27.088 162.793 27.152C162.585 27.216 162.369 27.248 162.145 27.248C161.489 27.248 160.937 27.024 160.489 26.576C160.057 26.128 159.841 25.576 159.841 24.92V17.936C159.841 17.616 159.953 17.344 160.177 17.12C160.401 16.896 160.673 16.784 160.993 16.784C161.313 16.784 161.585 16.896 161.809 17.12C162.033 17.344 162.145 17.616 162.145 17.936V22.664ZM201.144 26.096C201.144 26.416 201.032 26.688 200.808 26.912C200.584 27.136 200.312 27.248 199.992 27.248C199.672 27.248 199.4 27.136 199.176 26.912C198.952 26.688 198.84 26.416 198.84 26.096V20.864C198.84 20.208 198.8 19.88 198.72 19.88C198.656 19.88 198.432 20.096 198.048 20.528L192.768 26.528C192.56 26.768 192.304 26.952 192 27.08C191.696 27.192 191.368 27.248 191.016 27.248C190.664 27.248 190.336 27.192 190.032 27.08C189.728 26.952 189.472 26.768 189.264 26.528L183.984 20.528C183.616 20.096 183.392 19.88 183.312 19.88C183.232 19.88 183.192 20.208 183.192 20.864V26.096C183.192 26.416 183.08 26.688 182.855 26.912C182.632 27.136 182.36 27.248 182.04 27.248C181.72 27.248 181.448 27.136 181.224 26.912C181 26.688 180.888 26.416 180.888 26.096V19.088C180.888 18.448 181.072 17.904 181.44 17.456C181.808 17.008 182.312 16.784 182.952 16.784C183.336 16.784 183.68 16.88 183.984 17.072C184.288 17.264 184.568 17.496 184.824 17.768L190.344 24.056C190.424 24.136 190.52 24.224 190.632 24.32C190.76 24.4 190.888 24.44 191.016 24.44C191.144 24.44 191.264 24.4 191.376 24.32C191.504 24.224 191.608 24.136 191.688 24.056L197.184 17.768H197.208C197.432 17.464 197.704 17.224 198.024 17.048C198.344 16.872 198.696 16.784 199.08 16.784C199.72 16.784 200.224 17.008 200.592 17.456C200.96 17.904 201.144 18.448 201.144 19.088V26.096Z" fill="white"/>
<path d="M8.316 137V127.06H11.578C12.474 127.06 13.1927 127.317 13.734 127.83C14.2753 128.343 14.546 128.964 14.546 129.692C14.546 130.607 14.1913 131.283 13.482 131.722C14.63 132.142 15.204 132.935 15.204 134.102C15.204 134.942 14.896 135.637 14.28 136.188C13.6733 136.729 12.8707 137 11.872 137H8.316ZM9.618 135.824H11.928C12.5813 135.824 13.076 135.675 13.412 135.376C13.7573 135.068 13.93 134.657 13.93 134.144C13.93 133.64 13.7573 133.234 13.412 132.926C13.076 132.609 12.586 132.45 11.942 132.45H9.618V135.824ZM9.618 131.33H11.578C12.1007 131.33 12.5113 131.19 12.81 130.91C13.118 130.621 13.272 130.247 13.272 129.79C13.272 129.351 13.118 128.983 12.81 128.684C12.502 128.385 12.0913 128.236 11.578 128.236H9.618V131.33ZM16.925 137V130H18.129V132.884H21.951V130H23.155V137H21.951V133.976H18.129V137H16.925ZM26.5069 137H25.4289V130H26.6329V135.138L30.5809 130H31.6449V137H30.4549V131.862L26.5069 137ZM38.6368 137L35.1368 133.878V137H33.9328V130H35.1368V133.108L38.2448 130H39.7708L36.3408 133.43L40.2888 137H38.6368ZM43.7758 137.14C42.8051 137.14 41.9885 136.785 41.3258 136.076C40.6725 135.367 40.3458 134.508 40.3458 133.5C40.3458 132.492 40.6725 131.633 41.3258 130.924C41.9885 130.215 42.8051 129.86 43.7758 129.86C44.2891 129.86 44.7651 129.977 45.2038 130.21C45.6518 130.434 45.9971 130.723 46.2398 131.078V130H47.4438V137H46.2398V135.922C45.9971 136.277 45.6518 136.571 45.2038 136.804C44.7651 137.028 44.2891 137.14 43.7758 137.14ZM43.9578 136.034C44.6485 136.034 45.2178 135.791 45.6658 135.306C46.1138 134.821 46.3378 134.219 46.3378 133.5C46.3378 132.781 46.1138 132.179 45.6658 131.694C45.2178 131.209 44.6485 130.966 43.9578 130.966C43.2578 130.966 42.6838 131.209 42.2358 131.694C41.7878 132.179 41.5638 132.781 41.5638 133.5C41.5638 134.219 41.7878 134.821 42.2358 135.306C42.6838 135.791 43.2578 136.034 43.9578 136.034ZM52.6922 137.14C51.6748 137.14 50.8302 136.795 50.1582 136.104C49.4955 135.413 49.1642 134.545 49.1642 133.5C49.1642 132.445 49.4862 131.577 50.1302 130.896C50.7835 130.205 51.6468 129.86 52.7202 129.86C53.8028 129.86 54.6522 130.243 55.2682 131.008C55.8842 131.773 56.1548 132.711 56.0802 133.822H50.3822C50.4008 134.457 50.6342 134.989 51.0822 135.418C51.5302 135.838 52.0715 136.048 52.7062 136.048C53.6582 136.048 54.3348 135.656 54.7362 134.872H55.9682C55.7908 135.525 55.4128 136.067 54.8342 136.496C54.2555 136.925 53.5415 137.14 52.6922 137.14ZM54.0642 131.428C53.6815 131.092 53.2195 130.924 52.6782 130.924C52.1368 130.924 51.6515 131.087 51.2222 131.414C50.8022 131.741 50.5408 132.226 50.4382 132.87H54.8062C54.6942 132.235 54.4468 131.755 54.0642 131.428ZM57.8176 130H58.9236L61.5136 133.444L64.1176 130H65.2236V137H64.0196V131.946L61.5136 135.25L59.0216 131.946V137H57.8176V130ZM70.8742 137V130H73.9262C74.7009 130 75.2936 130.173 75.7042 130.518C76.1149 130.863 76.3202 131.325 76.3202 131.904C76.3202 132.455 76.0916 132.907 75.6342 133.262C76.3996 133.635 76.7822 134.205 76.7822 134.97C76.7822 135.558 76.5722 136.043 76.1522 136.426C75.7322 136.809 75.1022 137 74.2622 137H70.8742ZM72.0782 135.95H74.3322C74.7056 135.95 74.9996 135.857 75.2142 135.67C75.4382 135.483 75.5502 135.227 75.5502 134.9C75.5502 134.573 75.4382 134.321 75.2142 134.144C74.9996 133.957 74.7056 133.864 74.3322 133.864H72.0782V135.95ZM72.0782 132.898H74.0242C74.7429 132.898 75.1022 132.585 75.1022 131.96C75.1022 131.633 74.9996 131.4 74.7942 131.26C74.5889 131.111 74.3322 131.036 74.0242 131.036H72.0782V132.898ZM81.6111 137.14C80.5565 137.14 79.6791 136.79 78.9791 136.09C78.2885 135.381 77.9431 134.517 77.9431 133.5C77.9431 132.483 78.2885 131.624 78.9791 130.924C79.6791 130.215 80.5565 129.86 81.6111 129.86C82.6565 129.86 83.5245 130.215 84.2151 130.924C84.9151 131.624 85.2651 132.483 85.2651 133.5C85.2651 134.517 84.9151 135.381 84.2151 136.09C83.5245 136.79 82.6565 137.14 81.6111 137.14ZM79.8471 135.292C80.3045 135.777 80.8925 136.02 81.6111 136.02C82.3298 136.02 82.9131 135.777 83.3611 135.292C83.8091 134.807 84.0331 134.209 84.0331 133.5C84.0331 132.791 83.8091 132.193 83.3611 131.708C82.9131 131.223 82.3298 130.98 81.6111 130.98C80.8925 130.98 80.3045 131.223 79.8471 131.708C79.3991 132.193 79.1751 132.791 79.1751 133.5C79.1751 134.209 79.3991 134.807 79.8471 135.292ZM90.3703 137V130H93.4223C94.197 130 94.7897 130.173 95.2003 130.518C95.611 130.863 95.8163 131.325 95.8163 131.904C95.8163 132.455 95.5877 132.907 95.1303 133.262C95.8957 133.635 96.2783 134.205 96.2783 134.97C96.2783 135.558 96.0683 136.043 95.6483 136.426C95.2283 136.809 94.5983 137 93.7583 137H90.3703ZM91.5743 135.95H93.8283C94.2017 135.95 94.4957 135.857 94.7103 135.67C94.9343 135.483 95.0463 135.227 95.0463 134.9C95.0463 134.573 94.9343 134.321 94.7103 134.144C94.4957 133.957 94.2017 133.864 93.8283 133.864H91.5743V135.95ZM91.5743 132.898H93.5203C94.239 132.898 94.5983 132.585 94.5983 131.96C94.5983 131.633 94.4957 131.4 94.2903 131.26C94.085 131.111 93.8283 131.036 93.5203 131.036H91.5743V132.898ZM97.9992 137V130H99.2032V132.884H103.025V130H104.229V137H103.025V133.976H99.2032V137H97.9992ZM112.957 130L109.163 138.246C108.874 138.89 108.547 139.352 108.183 139.632C107.828 139.921 107.38 140.066 106.839 140.066C106.494 140.066 106.232 140.043 106.055 139.996V138.932C106.195 138.96 106.424 138.974 106.741 138.974C107.264 138.974 107.684 138.619 108.001 137.91L108.575 136.678L105.481 130H106.811L109.233 135.278L111.613 130H112.957ZM115.503 137V131.106H113.277V130H119.031V131.106H116.707V137H115.503ZM121.611 139.926H120.407V130H121.611V131.078C121.854 130.723 122.195 130.434 122.633 130.21C123.081 129.977 123.562 129.86 124.075 129.86C125.046 129.86 125.858 130.215 126.511 130.924C127.174 131.633 127.505 132.492 127.505 133.5C127.505 134.508 127.174 135.367 126.511 136.076C125.858 136.785 125.046 137.14 124.075 137.14C123.562 137.14 123.081 137.028 122.633 136.804C122.195 136.571 121.854 136.277 121.611 135.922V139.926ZM122.185 135.306C122.633 135.791 123.203 136.034 123.893 136.034C124.584 136.034 125.153 135.791 125.601 135.306C126.049 134.821 126.273 134.219 126.273 133.5C126.273 132.781 126.049 132.179 125.601 131.694C125.153 131.209 124.584 130.966 123.893 130.966C123.203 130.966 122.633 131.209 122.185 131.694C121.737 132.179 121.513 132.781 121.513 133.5C121.513 134.219 121.737 134.821 122.185 135.306ZM132.221 137.14C131.204 137.14 130.359 136.795 129.687 136.104C129.025 135.413 128.693 134.545 128.693 133.5C128.693 132.445 129.015 131.577 129.659 130.896C130.313 130.205 131.176 129.86 132.249 129.86C133.332 129.86 134.181 130.243 134.797 131.008C135.413 131.773 135.684 132.711 135.609 133.822H129.911C129.93 134.457 130.163 134.989 130.611 135.418C131.059 135.838 131.601 136.048 132.235 136.048C133.187 136.048 133.864 135.656 134.265 134.872H135.497C135.32 135.525 134.942 136.067 134.363 136.496C133.785 136.925 133.071 137.14 132.221 137.14ZM133.593 131.428C133.211 131.092 132.749 130.924 132.207 130.924C131.666 130.924 131.181 131.087 130.751 131.414C130.331 131.741 130.07 132.226 129.967 132.87H134.335C134.223 132.235 133.976 131.755 133.593 131.428ZM137.347 137V130H138.551V132.884H142.373V130H143.577V137H142.373V133.976H138.551V137H137.347ZM145.851 137V130H147.055V132.884H150.877V130H152.081V137H150.877V133.976H147.055V137H145.851ZM155.433 137H154.355V130H155.559V135.138L159.507 130H160.571V137H159.381V131.862L155.433 137ZM165.841 137.14C164.823 137.14 163.979 136.795 163.307 136.104C162.644 135.413 162.313 134.545 162.313 133.5C162.313 132.445 162.635 131.577 163.279 130.896C163.932 130.205 164.795 129.86 165.869 129.86C166.951 129.86 167.801 130.243 168.417 131.008C169.033 131.773 169.303 132.711 169.229 133.822H163.531C163.549 134.457 163.783 134.989 164.231 135.418C164.679 135.838 165.22 136.048 165.855 136.048C166.807 136.048 167.483 135.656 167.885 134.872H169.117C168.939 135.525 168.561 136.067 167.983 136.496C167.404 136.925 166.69 137.14 165.841 137.14ZM167.213 131.428C166.83 131.092 166.368 130.924 165.827 130.924C165.285 130.924 164.8 131.087 164.371 131.414C163.951 131.741 163.689 132.226 163.587 132.87H167.955C167.843 132.235 167.595 131.755 167.213 131.428ZM174.343 137V130H180.419V137H179.215V131.106H175.547V137H174.343ZM183.887 139.926H182.683V130H183.887V131.078C184.129 130.723 184.47 130.434 184.909 130.21C185.357 129.977 185.837 129.86 186.351 129.86C187.321 129.86 188.133 130.215 188.787 130.924C189.449 131.633 189.781 132.492 189.781 133.5C189.781 134.508 189.449 135.367 188.787 136.076C188.133 136.785 187.321 137.14 186.351 137.14C185.837 137.14 185.357 137.028 184.909 136.804C184.47 136.571 184.129 136.277 183.887 135.922V139.926ZM184.461 135.306C184.909 135.791 185.478 136.034 186.169 136.034C186.859 136.034 187.429 135.791 187.877 135.306C188.325 134.821 188.549 134.219 188.549 133.5C188.549 132.781 188.325 132.179 187.877 131.694C187.429 131.209 186.859 130.966 186.169 130.966C185.478 130.966 184.909 131.209 184.461 131.694C184.013 132.179 183.789 132.781 183.789 133.5C183.789 134.219 184.013 134.821 184.461 135.306ZM194.623 137.14C193.568 137.14 192.691 136.79 191.991 136.09C191.3 135.381 190.955 134.517 190.955 133.5C190.955 132.483 191.3 131.624 191.991 130.924C192.691 130.215 193.568 129.86 194.623 129.86C195.668 129.86 196.536 130.215 197.227 130.924C197.927 131.624 198.277 132.483 198.277 133.5C198.277 134.517 197.927 135.381 197.227 136.09C196.536 136.79 195.668 137.14 194.623 137.14ZM192.859 135.292C193.316 135.777 193.904 136.02 194.623 136.02C195.342 136.02 195.925 135.777 196.373 135.292C196.821 134.807 197.045 134.209 197.045 133.5C197.045 132.791 196.821 132.193 196.373 131.708C195.925 131.223 195.342 130.98 194.623 130.98C193.904 130.98 193.316 131.223 192.859 131.708C192.411 132.193 192.187 132.791 192.187 133.5C192.187 134.209 192.411 134.807 192.859 135.292ZM207.103 135.894V138.764H205.969V137H200.005V130H201.209V135.894H204.821V130H206.025V135.894H207.103ZM211.559 137.14C210.542 137.14 209.697 136.795 209.025 136.104C208.363 135.413 208.031 134.545 208.031 133.5C208.031 132.445 208.353 131.577 208.997 130.896C209.651 130.205 210.514 129.86 211.587 129.86C212.67 129.86 213.519 130.243 214.135 131.008C214.751 131.773 215.022 132.711 214.947 133.822H209.249C209.268 134.457 209.501 134.989 209.949 135.418C210.397 135.838 210.939 136.048 211.573 136.048C212.525 136.048 213.202 135.656 213.603 134.872H214.835C214.658 135.525 214.28 136.067 213.701 136.496C213.123 136.925 212.409 137.14 211.559 137.14ZM212.931 131.428C212.549 131.092 212.087 130.924 211.545 130.924C211.004 130.924 210.519 131.087 210.089 131.414C209.669 131.741 209.408 132.226 209.305 132.87H213.673C213.561 132.235 213.314 131.755 212.931 131.428ZM219.793 137.14C218.738 137.14 217.865 136.79 217.175 136.09C216.484 135.381 216.139 134.517 216.139 133.5C216.139 132.483 216.484 131.624 217.175 130.924C217.865 130.215 218.738 129.86 219.793 129.86C220.661 129.86 221.412 130.103 222.047 130.588C222.681 131.064 223.106 131.689 223.321 132.464H222.033C221.865 132.007 221.585 131.643 221.193 131.372C220.801 131.101 220.334 130.966 219.793 130.966C219.074 130.966 218.486 131.209 218.029 131.694C217.581 132.179 217.357 132.781 217.357 133.5C217.357 134.219 217.581 134.821 218.029 135.306C218.486 135.791 219.074 136.034 219.793 136.034C220.334 136.034 220.801 135.899 221.193 135.628C221.585 135.357 221.865 134.993 222.033 134.536H223.321C223.115 135.311 222.695 135.941 222.061 136.426C221.426 136.902 220.67 137.14 219.793 137.14ZM228.023 137.14C226.969 137.14 226.096 136.79 225.405 136.09C224.715 135.381 224.369 134.517 224.369 133.5C224.369 132.483 224.715 131.624 225.405 130.924C226.096 130.215 226.969 129.86 228.023 129.86C228.891 129.86 229.643 130.103 230.277 130.588C230.912 131.064 231.337 131.689 231.551 132.464H230.263C230.095 132.007 229.815 131.643 229.423 131.372C229.031 131.101 228.565 130.966 228.023 130.966C227.305 130.966 226.717 131.209 226.259 131.694C225.811 132.179 225.587 132.781 225.587 133.5C225.587 134.219 225.811 134.821 226.259 135.306C226.717 135.791 227.305 136.034 228.023 136.034C228.565 136.034 229.031 135.899 229.423 135.628C229.815 135.357 230.095 134.993 230.263 134.536H231.551C231.346 135.311 230.926 135.941 230.291 136.426C229.657 136.902 228.901 137.14 228.023 137.14ZM239.614 137V130H240.818V137H239.614ZM233.146 137V130H234.35V132.52H235.974C236.814 132.52 237.448 132.739 237.878 133.178C238.316 133.617 238.536 134.139 238.536 134.746C238.536 135.362 238.316 135.894 237.878 136.342C237.439 136.781 236.8 137 235.96 137H233.146ZM234.35 133.612V135.908H235.918C236.366 135.908 236.711 135.805 236.954 135.6C237.206 135.395 237.332 135.11 237.332 134.746C237.332 134.382 237.21 134.102 236.968 133.906C236.725 133.71 236.38 133.612 235.932 133.612H234.35ZM12.838 155L9.338 151.878V155H8.134V148H9.338V151.108L12.446 148H13.972L10.542 151.43L14.49 155H12.838ZM18.1873 155.14C17.1326 155.14 16.2553 154.79 15.5553 154.09C14.8646 153.381 14.5193 152.517 14.5193 151.5C14.5193 150.483 14.8646 149.624 15.5553 148.924C16.2553 148.215 17.1326 147.86 18.1873 147.86C19.2326 147.86 20.1006 148.215 20.7913 148.924C21.4913 149.624 21.8413 150.483 21.8413 151.5C21.8413 152.517 21.4913 153.381 20.7913 154.09C20.1006 154.79 19.2326 155.14 18.1873 155.14ZM16.4233 153.292C16.8806 153.777 17.4686 154.02 18.1873 154.02C18.906 154.02 19.4893 153.777 19.9373 153.292C20.3853 152.807 20.6093 152.209 20.6093 151.5C20.6093 150.791 20.3853 150.193 19.9373 149.708C19.4893 149.223 18.906 148.98 18.1873 148.98C17.4686 148.98 16.8806 149.223 16.4233 149.708C15.9753 150.193 15.7513 150.791 15.7513 151.5C15.7513 152.209 15.9753 152.807 16.4233 153.292ZM23.5695 148H24.6755L27.2655 151.444L29.8695 148H30.9755V155H29.7715V149.946L27.2655 153.25L24.7735 149.946V155H23.5695V148ZM33.2492 155V148H39.3252V155H38.1212V149.106H34.4532V155H33.2492ZM44.4731 155.14C43.5024 155.14 42.6857 154.785 42.0231 154.076C41.3697 153.367 41.0431 152.508 41.0431 151.5C41.0431 150.492 41.3697 149.633 42.0231 148.924C42.6857 148.215 43.5024 147.86 44.4731 147.86C44.9864 147.86 45.4624 147.977 45.9011 148.21C46.3491 148.434 46.6944 148.723 46.9371 149.078V148H48.1411V155H46.9371V153.922C46.6944 154.277 46.3491 154.571 45.9011 154.804C45.4624 155.028 44.9864 155.14 44.4731 155.14ZM44.6551 154.034C45.3457 154.034 45.9151 153.791 46.3631 153.306C46.8111 152.821 47.0351 152.219 47.0351 151.5C47.0351 150.781 46.8111 150.179 46.3631 149.694C45.9151 149.209 45.3457 148.966 44.6551 148.966C43.9551 148.966 43.3811 149.209 42.9331 149.694C42.4851 150.179 42.2611 150.781 42.2611 151.5C42.2611 152.219 42.4851 152.821 42.9331 153.306C43.3811 153.791 43.9551 154.034 44.6551 154.034ZM50.4074 155V148H51.6114V150.884H55.4334V148H56.6374V155H55.4334V151.976H51.6114V155H50.4074ZM59.9893 155H58.9113V148H60.1153V153.138L64.0633 148H65.1273V155H63.9373V149.862L59.9893 155ZM68.4933 155H67.4153V148H68.6193V153.138L72.5673 148H73.6313V155H72.4413V149.862L68.4933 155ZM75.6952 151.682V150.478H79.2652V151.682H75.6952ZM86.0235 155L82.5235 151.878V155H81.3195V148H82.5235V151.108L85.6315 148H87.1575L83.7275 151.43L87.6755 155H86.0235ZM88.4787 155.098C88.1614 155.098 87.9514 155.084 87.8487 155.056V153.978C87.914 153.997 88.0634 154.006 88.2967 154.006C88.586 154.006 88.8007 153.908 88.9407 153.712C89.0807 153.507 89.1507 153.147 89.1507 152.634V148H94.5547V155H93.3507V149.106H90.3547V152.886C90.3547 153.605 90.182 154.155 89.8367 154.538C89.4914 154.911 89.0387 155.098 88.4787 155.098ZM97.9151 155H96.8371V148H98.0411V153.138L101.989 148H103.053V155H101.863V149.862L97.9151 155ZM108.323 155.14C107.306 155.14 106.461 154.795 105.789 154.104C105.126 153.413 104.795 152.545 104.795 151.5C104.795 150.445 105.117 149.577 105.761 148.896C106.414 148.205 107.278 147.86 108.351 147.86C109.434 147.86 110.283 148.243 110.899 149.008C111.515 149.773 111.786 150.711 111.711 151.822H106.013C106.032 152.457 106.265 152.989 106.713 153.418C107.161 153.838 107.702 154.048 108.337 154.048C109.289 154.048 109.966 153.656 110.367 152.872H111.599C111.422 153.525 111.044 154.067 110.465 154.496C109.886 154.925 109.172 155.14 108.323 155.14ZM109.695 149.428C109.312 149.092 108.85 148.924 108.309 148.924C107.768 148.924 107.282 149.087 106.853 149.414C106.433 149.741 106.172 150.226 106.069 150.87H110.437C110.325 150.235 110.078 149.755 109.695 149.428ZM113.448 155V148H114.652V150.884H118.474V148H119.678V155H118.474V151.976H114.652V155H113.448ZM123.282 155V149.106H121.056V148H126.81V149.106H124.486V155H123.282ZM130.879 155.14C129.909 155.14 129.092 154.785 128.429 154.076C127.776 153.367 127.449 152.508 127.449 151.5C127.449 150.492 127.776 149.633 128.429 148.924C129.092 148.215 129.909 147.86 130.879 147.86C131.393 147.86 131.869 147.977 132.307 148.21C132.755 148.434 133.101 148.723 133.343 149.078V148H134.547V155H133.343V153.922C133.101 154.277 132.755 154.571 132.307 154.804C131.869 155.028 131.393 155.14 130.879 155.14ZM131.061 154.034C131.752 154.034 132.321 153.791 132.769 153.306C133.217 152.821 133.441 152.219 133.441 151.5C133.441 150.781 133.217 150.179 132.769 149.694C132.321 149.209 131.752 148.966 131.061 148.966C130.361 148.966 129.787 149.209 129.339 149.694C128.891 150.179 128.667 150.781 128.667 151.5C128.667 152.219 128.891 152.821 129.339 153.306C129.787 153.791 130.361 154.034 131.061 154.034Z" fill="white"/>
<path d="M14.818 182.956C15.4527 183.553 15.77 184.309 15.77 185.224C15.77 186.139 15.4527 186.895 14.818 187.492C14.1927 188.08 13.3713 188.374 12.354 188.374H10.618V192H9.316V182.06H12.354C13.3713 182.06 14.1927 182.359 14.818 182.956ZM13.908 186.624C14.2907 186.26 14.482 185.793 14.482 185.224C14.482 184.655 14.2907 184.188 13.908 183.824C13.5347 183.46 13.0167 183.278 12.354 183.278H10.618V187.17H12.354C13.0167 187.17 13.5347 186.988 13.908 186.624ZM20.1004 192.14C19.083 192.14 18.2384 191.795 17.5664 191.104C16.9037 190.413 16.5724 189.545 16.5724 188.5C16.5724 187.445 16.8944 186.577 17.5384 185.896C18.1917 185.205 19.055 184.86 20.1284 184.86C21.211 184.86 22.0604 185.243 22.6764 186.008C23.2924 186.773 23.563 187.711 23.4884 188.822H17.7904C17.809 189.457 18.0424 189.989 18.4904 190.418C18.9384 190.838 19.4797 191.048 20.1144 191.048C21.0664 191.048 21.743 190.656 22.1444 189.872H23.3764C23.199 190.525 22.821 191.067 22.2424 191.496C21.6637 191.925 20.9497 192.14 20.1004 192.14ZM21.4724 186.428C21.0897 186.092 20.6277 185.924 20.0864 185.924C19.545 185.924 19.0597 186.087 18.6304 186.414C18.2104 186.741 17.949 187.226 17.8464 187.87H22.2144C22.1024 187.235 21.855 186.755 21.4724 186.428ZM25.2258 192V185H26.4298V190.894H29.2158V185H30.4198V190.894H33.2058V185H34.4098V192H25.2258ZM39.5805 192.14C38.6098 192.14 37.7932 191.785 37.1305 191.076C36.4772 190.367 36.1505 189.508 36.1505 188.5C36.1505 187.492 36.4772 186.633 37.1305 185.924C37.7932 185.215 38.6098 184.86 39.5805 184.86C40.0938 184.86 40.5698 184.977 41.0085 185.21C41.4565 185.434 41.8018 185.723 42.0445 186.078V185H43.2485V192H42.0445V190.922C41.8018 191.277 41.4565 191.571 41.0085 191.804C40.5698 192.028 40.0938 192.14 39.5805 192.14ZM39.7625 191.034C40.4532 191.034 41.0225 190.791 41.4705 190.306C41.9185 189.821 42.1425 189.219 42.1425 188.5C42.1425 187.781 41.9185 187.179 41.4705 186.694C41.0225 186.209 40.4532 185.966 39.7625 185.966C39.0625 185.966 38.4885 186.209 38.0405 186.694C37.5925 187.179 37.3685 187.781 37.3685 188.5C37.3685 189.219 37.5925 189.821 38.0405 190.306C38.4885 190.791 39.0625 191.034 39.7625 191.034ZM48.4969 192.14C47.4795 192.14 46.6349 191.795 45.9629 191.104C45.3002 190.413 44.9689 189.545 44.9689 188.5C44.9689 187.445 45.2909 186.577 45.9349 185.896C46.5882 185.205 47.4515 184.86 48.5249 184.86C49.6075 184.86 50.4569 185.243 51.0729 186.008C51.6889 186.773 51.9595 187.711 51.8849 188.822H46.1869C46.2055 189.457 46.4389 189.989 46.8869 190.418C47.3349 190.838 47.8762 191.048 48.5109 191.048C49.4629 191.048 50.1395 190.656 50.5409 189.872H51.7729C51.5955 190.525 51.2175 191.067 50.6389 191.496C50.0602 191.925 49.3462 192.14 48.4969 192.14ZM49.8689 186.428C49.4862 186.092 49.0242 185.924 48.4829 185.924C47.9415 185.924 47.4562 186.087 47.0269 186.414C46.6069 186.741 46.3455 187.226 46.2429 187.87H50.6109C50.4989 187.235 50.2515 186.755 49.8689 186.428ZM53.6223 185H54.7283L57.3183 188.444L59.9223 185H61.0283V192H59.8243V186.946L57.3183 190.25L54.8263 186.946V192H53.6223V185ZM66.6789 192V185H72.7549V192H71.5509V186.106H67.8829V192H66.6789ZM76.2228 194.926H75.0188V185H76.2228V186.078C76.4654 185.723 76.8061 185.434 77.2448 185.21C77.6928 184.977 78.1734 184.86 78.6868 184.86C79.6574 184.86 80.4694 185.215 81.1228 185.924C81.7854 186.633 82.1168 187.492 82.1168 188.5C82.1168 189.508 81.7854 190.367 81.1228 191.076C80.4694 191.785 79.6574 192.14 78.6868 192.14C78.1734 192.14 77.6928 192.028 77.2448 191.804C76.8061 191.571 76.4654 191.277 76.2228 190.922V194.926ZM76.7968 190.306C77.2448 190.791 77.8141 191.034 78.5048 191.034C79.1954 191.034 79.7648 190.791 80.2128 190.306C80.6608 189.821 80.8848 189.219 80.8848 188.5C80.8848 187.781 80.6608 187.179 80.2128 186.694C79.7648 186.209 79.1954 185.966 78.5048 185.966C77.8141 185.966 77.2448 186.209 76.7968 186.694C76.3488 187.179 76.1248 187.781 76.1248 188.5C76.1248 189.219 76.3488 189.821 76.7968 190.306ZM86.9588 192.14C85.9041 192.14 85.0268 191.79 84.3268 191.09C83.6361 190.381 83.2908 189.517 83.2908 188.5C83.2908 187.483 83.6361 186.624 84.3268 185.924C85.0268 185.215 85.9041 184.86 86.9588 184.86C88.0041 184.86 88.8721 185.215 89.5628 185.924C90.2628 186.624 90.6128 187.483 90.6128 188.5C90.6128 189.517 90.2628 190.381 89.5628 191.09C88.8721 191.79 88.0041 192.14 86.9588 192.14ZM85.1948 190.292C85.6521 190.777 86.2401 191.02 86.9588 191.02C87.6775 191.02 88.2608 190.777 88.7088 190.292C89.1568 189.807 89.3808 189.209 89.3808 188.5C89.3808 187.791 89.1568 187.193 88.7088 186.708C88.2608 186.223 87.6775 185.98 86.9588 185.98C86.2401 185.98 85.6521 186.223 85.1948 186.708C84.7468 187.193 84.5228 187.791 84.5228 188.5C84.5228 189.209 84.7468 189.807 85.1948 190.292ZM95.701 192.14C94.5997 192.14 93.7177 191.776 93.055 191.048C92.4017 190.32 92.075 189.363 92.075 188.178V187.464C92.075 185.747 92.383 184.463 92.999 183.614C93.615 182.755 94.623 182.191 96.023 181.92L98.627 181.444V182.592L96.289 183.026C95.2904 183.203 94.567 183.539 94.119 184.034C93.6804 184.529 93.405 185.257 93.293 186.218C93.8997 185.406 94.7584 185 95.869 185C96.9237 185 97.7684 185.336 98.403 186.008C99.047 186.68 99.369 187.501 99.369 188.472C99.369 189.499 99.019 190.367 98.319 191.076C97.6284 191.785 96.7557 192.14 95.701 192.14ZM93.965 190.306C94.413 190.782 94.9917 191.02 95.701 191.02C96.4104 191.02 96.9937 190.782 97.451 190.306C97.9084 189.83 98.137 189.219 98.137 188.472C98.137 187.772 97.9084 187.203 97.451 186.764C97.003 186.316 96.429 186.092 95.729 186.092C95.0104 186.092 94.4224 186.321 93.965 186.778C93.517 187.226 93.293 187.791 93.293 188.472C93.293 189.219 93.517 189.83 93.965 190.306ZM100.772 192.098C100.454 192.098 100.244 192.084 100.142 192.056V190.978C100.207 190.997 100.356 191.006 100.59 191.006C100.879 191.006 101.094 190.908 101.234 190.712C101.374 190.507 101.444 190.147 101.444 189.634V185H106.848V192H105.644V186.106H102.648V189.886C102.648 190.605 102.475 191.155 102.13 191.538C101.784 191.911 101.332 192.098 100.772 192.098ZM112.112 192.14C111.095 192.14 110.25 191.795 109.578 191.104C108.915 190.413 108.584 189.545 108.584 188.5C108.584 187.445 108.906 186.577 109.55 185.896C110.203 185.205 111.067 184.86 112.14 184.86C113.223 184.86 114.072 185.243 114.688 186.008C115.304 186.773 115.575 187.711 115.5 188.822H109.802C109.821 189.457 110.054 189.989 110.502 190.418C110.95 190.838 111.491 191.048 112.126 191.048C113.078 191.048 113.755 190.656 114.156 189.872H115.388C115.211 190.525 114.833 191.067 114.254 191.496C113.675 191.925 112.961 192.14 112.112 192.14ZM113.484 186.428C113.101 186.092 112.639 185.924 112.098 185.924C111.557 185.924 111.071 186.087 110.642 186.414C110.222 186.741 109.961 187.226 109.858 187.87H114.226C114.114 187.235 113.867 186.755 113.484 186.428ZM117.238 185H118.344L120.934 188.444L123.538 185H124.644V192H123.44V186.946L120.934 190.25L118.442 186.946V192H117.238V185ZM133.385 192V185H134.589V192H133.385ZM126.917 192V185H128.121V187.52H129.745C130.585 187.52 131.22 187.739 131.649 188.178C132.088 188.617 132.307 189.139 132.307 189.746C132.307 190.362 132.088 190.894 131.649 191.342C131.211 191.781 130.571 192 129.731 192H126.917ZM128.121 188.612V190.908H129.689C130.137 190.908 130.483 190.805 130.725 190.6C130.977 190.395 131.103 190.11 131.103 189.746C131.103 189.382 130.982 189.102 130.739 188.906C130.497 188.71 130.151 188.612 129.703 188.612H128.121ZM140.247 192V185H146.323V192H145.119V186.106H141.451V192H140.247ZM151.695 192.14C150.64 192.14 149.763 191.79 149.063 191.09C148.372 190.381 148.027 189.517 148.027 188.5C148.027 187.483 148.372 186.624 149.063 185.924C149.763 185.215 150.64 184.86 151.695 184.86C152.74 184.86 153.608 185.215 154.299 185.924C154.999 186.624 155.349 187.483 155.349 188.5C155.349 189.517 154.999 190.381 154.299 191.09C153.608 191.79 152.74 192.14 151.695 192.14ZM149.931 190.292C150.388 190.777 150.976 191.02 151.695 191.02C152.414 191.02 152.997 190.777 153.445 190.292C153.893 189.807 154.117 189.209 154.117 188.5C154.117 187.791 153.893 187.193 153.445 186.708C152.997 186.223 152.414 185.98 151.695 185.98C150.976 185.98 150.388 186.223 149.931 186.708C149.483 187.193 149.259 187.791 149.259 188.5C149.259 189.209 149.483 189.807 149.931 190.292ZM158.216 192V186.106H155.99V185H161.744V186.106H159.42V192H158.216ZM164.324 194.926H163.12V185H164.324V186.078C164.567 185.723 164.908 185.434 165.346 185.21C165.794 184.977 166.275 184.86 166.788 184.86C167.759 184.86 168.571 185.215 169.224 185.924C169.887 186.633 170.218 187.492 170.218 188.5C170.218 189.508 169.887 190.367 169.224 191.076C168.571 191.785 167.759 192.14 166.788 192.14C166.275 192.14 165.794 192.028 165.346 191.804C164.908 191.571 164.567 191.277 164.324 190.922V194.926ZM164.898 190.306C165.346 190.791 165.916 191.034 166.606 191.034C167.297 191.034 167.866 190.791 168.314 190.306C168.762 189.821 168.986 189.219 168.986 188.5C168.986 187.781 168.762 187.179 168.314 186.694C167.866 186.209 167.297 185.966 166.606 185.966C165.916 185.966 165.346 186.209 164.898 186.694C164.45 187.179 164.226 187.781 164.226 188.5C164.226 189.219 164.45 189.821 164.898 190.306ZM174.934 192.14C173.917 192.14 173.072 191.795 172.4 191.104C171.738 190.413 171.406 189.545 171.406 188.5C171.406 187.445 171.728 186.577 172.372 185.896C173.026 185.205 173.889 184.86 174.962 184.86C176.045 184.86 176.894 185.243 177.51 186.008C178.126 186.773 178.397 187.711 178.322 188.822H172.624C172.643 189.457 172.876 189.989 173.324 190.418C173.772 190.838 174.314 191.048 174.948 191.048C175.9 191.048 176.577 190.656 176.978 189.872H178.21C178.033 190.525 177.655 191.067 177.076 191.496C176.498 191.925 175.784 192.14 174.934 192.14ZM176.306 186.428C175.924 186.092 175.462 185.924 174.92 185.924C174.379 185.924 173.894 186.087 173.464 186.414C173.044 186.741 172.783 187.226 172.68 187.87H177.048C176.936 187.235 176.689 186.755 176.306 186.428ZM183.42 192.14C182.318 192.14 181.436 191.776 180.774 191.048C180.12 190.32 179.794 189.363 179.794 188.178V187.464C179.794 185.747 180.102 184.463 180.718 183.614C181.334 182.755 182.342 182.191 183.742 181.92L186.346 181.444V182.592L184.008 183.026C183.009 183.203 182.286 183.539 181.838 184.034C181.399 184.529 181.124 185.257 181.012 186.218C181.618 185.406 182.477 185 183.588 185C184.642 185 185.487 185.336 186.122 186.008C186.766 186.68 187.088 187.501 187.088 188.472C187.088 189.499 186.738 190.367 186.038 191.076C185.347 191.785 184.474 192.14 183.42 192.14ZM181.684 190.306C182.132 190.782 182.71 191.02 183.42 191.02C184.129 191.02 184.712 190.782 185.17 190.306C185.627 189.83 185.856 189.219 185.856 188.472C185.856 187.772 185.627 187.203 185.17 186.764C184.722 186.316 184.148 186.092 183.448 186.092C182.729 186.092 182.141 186.321 181.684 186.778C181.236 187.226 181.012 187.791 181.012 188.472C181.012 189.219 181.236 189.83 181.684 190.306ZM189.888 192H188.81V185H190.014V190.138L193.962 185H195.026V192H193.836V186.862L189.888 192ZM198.644 192V186.106H196.418V185H202.172V186.106H199.848V192H198.644ZM206.325 192.14C205.308 192.14 204.463 191.795 203.791 191.104C203.128 190.413 202.797 189.545 202.797 188.5C202.797 187.445 203.119 186.577 203.763 185.896C204.416 185.205 205.28 184.86 206.353 184.86C207.436 184.86 208.285 185.243 208.901 186.008C209.517 186.773 209.788 187.711 209.713 188.822H204.015C204.034 189.457 204.267 189.989 204.715 190.418C205.163 190.838 205.704 191.048 206.339 191.048C207.291 191.048 207.968 190.656 208.369 189.872H209.601C209.424 190.525 209.046 191.067 208.467 191.496C207.888 191.925 207.174 192.14 206.325 192.14ZM207.697 186.428C207.314 186.092 206.852 185.924 206.311 185.924C205.77 185.924 205.284 186.087 204.855 186.414C204.435 186.741 204.174 187.226 204.071 187.87H208.439C208.327 187.235 208.08 186.755 207.697 186.428ZM211.172 192.098C210.855 192.098 210.645 192.084 210.542 192.056V190.978C210.607 190.997 210.757 191.006 210.99 191.006C211.279 191.006 211.494 190.908 211.634 190.712C211.774 190.507 211.844 190.147 211.844 189.634V185H217.248V192H216.044V186.106H213.048V189.886C213.048 190.605 212.875 191.155 212.53 191.538C212.185 191.911 211.732 192.098 211.172 192.098ZM218.34 192L221.168 189.256C220.618 189.125 220.193 188.883 219.894 188.528C219.596 188.164 219.446 187.73 219.446 187.226C219.446 186.582 219.666 186.05 220.104 185.63C220.552 185.21 221.182 185 221.994 185H224.584V192H223.38V189.452H222.484L219.852 192H218.34ZM222.064 188.374H223.38V186.078H222.064C221.122 186.078 220.65 186.465 220.65 187.24C220.65 187.604 220.772 187.884 221.014 188.08C221.266 188.276 221.616 188.374 222.064 188.374ZM226.872 185H227.978L230.568 188.444L233.172 185H234.278V192H233.074V186.946L230.568 190.25L228.076 186.946V192H226.872V185ZM241.007 192H239.929V185H241.133V190.138L245.081 185H246.145V192H244.955V186.862L241.007 192ZM254.918 192.14C253.863 192.14 252.986 191.79 252.286 191.09C251.595 190.381 251.25 189.517 251.25 188.5C251.25 187.483 251.595 186.624 252.286 185.924C252.986 185.215 253.863 184.86 254.918 184.86C255.963 184.86 256.831 185.215 257.522 185.924C258.222 186.624 258.572 187.483 258.572 188.5C258.572 189.517 258.222 190.381 257.522 191.09C256.831 191.79 255.963 192.14 254.918 192.14ZM253.154 190.292C253.611 190.777 254.199 191.02 254.918 191.02C255.636 191.02 256.22 190.777 256.668 190.292C257.116 189.807 257.34 189.209 257.34 188.5C257.34 187.791 257.116 187.193 256.668 186.708C256.22 186.223 255.636 185.98 254.918 185.98C254.199 185.98 253.611 186.223 253.154 186.708C252.706 187.193 252.482 187.791 252.482 188.5C252.482 189.209 252.706 189.807 253.154 190.292ZM260.3 192V185H266.376V192H265.172V186.106H261.504V192H260.3ZM269.97 192V186.106H267.744V185H273.498V186.106H271.174V192H269.97ZM275.952 192H274.874V185H276.078V190.138L280.026 185H281.09V192H279.9V186.862L275.952 192ZM283.378 185H284.484L287.074 188.444L289.678 185H290.784V192H289.58V186.946L287.074 190.25L284.582 186.946V192H283.378V185ZM294.136 192H293.058V185H294.262V190.138L298.21 185H299.274V192H298.084V186.862L294.136 192ZM303.788 192.14C303.069 192.14 302.439 191.963 301.898 191.608C301.366 191.253 301.034 190.754 300.904 190.11H302.122C302.355 190.782 302.91 191.118 303.788 191.118C304.301 191.118 304.688 191.011 304.95 190.796C305.211 190.581 305.342 190.301 305.342 189.956C305.342 189.611 305.211 189.34 304.95 189.144C304.698 188.948 304.334 188.85 303.858 188.85H303.046V187.87H303.858C304.24 187.87 304.544 187.786 304.768 187.618C305.001 187.45 305.118 187.203 305.118 186.876C305.118 186.559 304.996 186.311 304.754 186.134C304.511 185.957 304.184 185.868 303.774 185.868C302.962 185.868 302.453 186.195 302.248 186.848H301.058C301.188 186.204 301.506 185.714 302.01 185.378C302.514 185.033 303.106 184.86 303.788 184.86C304.572 184.86 305.183 185.047 305.622 185.42C306.06 185.784 306.28 186.246 306.28 186.806C306.28 187.487 305.99 187.996 305.412 188.332C306.177 188.677 306.56 189.251 306.56 190.054C306.56 190.642 306.317 191.137 305.832 191.538C305.346 191.939 304.665 192.14 303.788 192.14ZM309.421 192H308.343V185H309.547V190.138L313.495 185H314.559V192H313.369V186.862L309.421 192ZM318.051 194.926H316.847V185H318.051V186.078C318.294 185.723 318.634 185.434 319.073 185.21C319.521 184.977 320.002 184.86 320.515 184.86C321.486 184.86 322.298 185.215 322.951 185.924C323.614 186.633 323.945 187.492 323.945 188.5C323.945 189.508 323.614 190.367 322.951 191.076C322.298 191.785 321.486 192.14 320.515 192.14C320.002 192.14 319.521 192.028 319.073 191.804C318.634 191.571 318.294 191.277 318.051 190.922V194.926ZM318.625 190.306C319.073 190.791 319.642 191.034 320.333 191.034C321.024 191.034 321.593 190.791 322.041 190.306C322.489 189.821 322.713 189.219 322.713 188.5C322.713 187.781 322.489 187.179 322.041 186.694C321.593 186.209 321.024 185.966 320.333 185.966C319.642 185.966 319.073 186.209 318.625 186.694C318.177 187.179 317.953 187.781 317.953 188.5C317.953 189.219 318.177 189.821 318.625 190.306ZM331.996 185L328.202 193.246C327.913 193.89 327.586 194.352 327.222 194.632C326.868 194.921 326.42 195.066 325.878 195.066C325.533 195.066 325.272 195.043 325.094 194.996V193.932C325.234 193.96 325.463 193.974 325.78 193.974C326.303 193.974 326.723 193.619 327.04 192.91L327.614 191.678L324.52 185H325.85L328.272 190.278L330.652 185H331.996ZM336.057 192.14C335.04 192.14 334.195 191.795 333.523 191.104C332.861 190.413 332.529 189.545 332.529 188.5C332.529 187.445 332.851 186.577 333.495 185.896C334.149 185.205 335.012 184.86 336.085 184.86C337.168 184.86 338.017 185.243 338.633 186.008C339.249 186.773 339.52 187.711 339.445 188.822H333.747C333.766 189.457 333.999 189.989 334.447 190.418C334.895 190.838 335.437 191.048 336.071 191.048C337.023 191.048 337.7 190.656 338.101 189.872H339.333C339.156 190.525 338.778 191.067 338.199 191.496C337.621 191.925 336.907 192.14 336.057 192.14ZM337.429 186.428C337.047 186.092 336.585 185.924 336.043 185.924C335.502 185.924 335.017 186.087 334.587 186.414C334.167 186.741 333.906 187.226 333.803 187.87H338.171C338.059 187.235 337.812 186.755 337.429 186.428ZM341.183 185H342.289L344.879 188.444L347.483 185H348.589V192H347.385V186.946L344.879 190.25L342.387 186.946V192H341.183V185ZM12.494 210.14C11.3927 210.14 10.5107 209.776 9.848 209.048C9.19467 208.32 8.868 207.363 8.868 206.178V205.464C8.868 203.747 9.176 202.463 9.792 201.614C10.408 200.755 11.416 200.191 12.816 199.92L15.42 199.444V200.592L13.082 201.026C12.0833 201.203 11.36 201.539 10.912 202.034C10.4733 202.529 10.198 203.257 10.086 204.218C10.6927 203.406 11.5513 203 12.662 203C13.7167 203 14.5613 203.336 15.196 204.008C15.84 204.68 16.162 205.501 16.162 206.472C16.162 207.499 15.812 208.367 15.112 209.076C14.4213 209.785 13.5487 210.14 12.494 210.14ZM10.758 208.306C11.206 208.782 11.7847 209.02 12.494 209.02C13.2033 209.02 13.7867 208.782 14.244 208.306C14.7013 207.83 14.93 207.219 14.93 206.472C14.93 205.772 14.7013 205.203 14.244 204.764C13.796 204.316 13.222 204.092 12.522 204.092C11.8033 204.092 11.2153 204.321 10.758 204.778C10.31 205.226 10.086 205.791 10.086 206.472C10.086 207.219 10.31 207.83 10.758 208.306ZM18.962 210H17.884V203H19.088V208.138L23.036 203H24.1V210H22.91V204.862L18.962 210ZM28.6139 210.14C27.8952 210.14 27.2652 209.963 26.7239 209.608C26.1919 209.253 25.8606 208.754 25.7299 208.11H26.9479C27.1812 208.782 27.7366 209.118 28.6139 209.118C29.1272 209.118 29.5146 209.011 29.7759 208.796C30.0372 208.581 30.1679 208.301 30.1679 207.956C30.1679 207.611 30.0372 207.34 29.7759 207.144C29.5239 206.948 29.1599 206.85 28.6839 206.85H27.8719V205.87H28.6839C29.0666 205.87 29.3699 205.786 29.5939 205.618C29.8272 205.45 29.9439 205.203 29.9439 204.876C29.9439 204.559 29.8226 204.311 29.5799 204.134C29.3372 203.957 29.0106 203.868 28.5999 203.868C27.7879 203.868 27.2792 204.195 27.0739 204.848H25.8839C26.0146 204.204 26.3319 203.714 26.8359 203.378C27.3399 203.033 27.9326 202.86 28.6139 202.86C29.3979 202.86 30.0092 203.047 30.4479 203.42C30.8866 203.784 31.1059 204.246 31.1059 204.806C31.1059 205.487 30.8166 205.996 30.2379 206.332C31.0032 206.677 31.3859 207.251 31.3859 208.054C31.3859 208.642 31.1432 209.137 30.6579 209.538C30.1726 209.939 29.4912 210.14 28.6139 210.14ZM33.1692 210V203H34.3732V205.884H38.1952V203H39.3992V210H38.1952V206.976H34.3732V210H33.1692ZM44.6551 210.14C43.6377 210.14 42.7931 209.795 42.1211 209.104C41.4584 208.413 41.1271 207.545 41.1271 206.5C41.1271 205.445 41.4491 204.577 42.0931 203.896C42.7464 203.205 43.6097 202.86 44.6831 202.86C45.7657 202.86 46.6151 203.243 47.2311 204.008C47.8471 204.773 48.1177 205.711 48.0431 206.822H42.3451C42.3637 207.457 42.5971 207.989 43.0451 208.418C43.4931 208.838 44.0344 209.048 44.6691 209.048C45.6211 209.048 46.2977 208.656 46.6991 207.872H47.9311C47.7537 208.525 47.3757 209.067 46.7971 209.496C46.2184 209.925 45.5044 210.14 44.6551 210.14ZM46.0271 204.428C45.6444 204.092 45.1824 203.924 44.6411 203.924C44.0997 203.924 43.6144 204.087 43.1851 204.414C42.7651 204.741 42.5037 205.226 42.4011 205.87H46.7691C46.6571 205.235 46.4097 204.755 46.0271 204.428ZM52.8885 210.14C51.8338 210.14 50.9612 209.79 50.2705 209.09C49.5798 208.381 49.2345 207.517 49.2345 206.5C49.2345 205.483 49.5798 204.624 50.2705 203.924C50.9612 203.215 51.8338 202.86 52.8885 202.86C53.7565 202.86 54.5078 203.103 55.1425 203.588C55.7772 204.064 56.2018 204.689 56.4165 205.464H55.1285C54.9605 205.007 54.6805 204.643 54.2885 204.372C53.8965 204.101 53.4298 203.966 52.8885 203.966C52.1698 203.966 51.5818 204.209 51.1245 204.694C50.6765 205.179 50.4525 205.781 50.4525 206.5C50.4525 207.219 50.6765 207.821 51.1245 208.306C51.5818 208.791 52.1698 209.034 52.8885 209.034C53.4298 209.034 53.8965 208.899 54.2885 208.628C54.6805 208.357 54.9605 207.993 55.1285 207.536H56.4165C56.2112 208.311 55.7912 208.941 55.1565 209.426C54.5218 209.902 53.7658 210.14 52.8885 210.14ZM57.787 206.682V205.478H61.357V206.682H57.787ZM63.4113 210V203H69.4873V210H68.2833V204.106H64.6153V210H63.4113ZM72.9552 212.926H71.7512V203H72.9552V204.078C73.1979 203.723 73.5385 203.434 73.9772 203.21C74.4252 202.977 74.9059 202.86 75.4192 202.86C76.3899 202.86 77.2019 203.215 77.8552 203.924C78.5179 204.633 78.8492 205.492 78.8492 206.5C78.8492 207.508 78.5179 208.367 77.8552 209.076C77.2019 209.785 76.3899 210.14 75.4192 210.14C74.9059 210.14 74.4252 210.028 73.9772 209.804C73.5385 209.571 73.1979 209.277 72.9552 208.922V212.926ZM73.5292 208.306C73.9772 208.791 74.5465 209.034 75.2372 209.034C75.9279 209.034 76.4972 208.791 76.9452 208.306C77.3932 207.821 77.6172 207.219 77.6172 206.5C77.6172 205.781 77.3932 205.179 76.9452 204.694C76.4972 204.209 75.9279 203.966 75.2372 203.966C74.5465 203.966 73.9772 204.209 73.5292 204.694C73.0812 205.179 72.8572 205.781 72.8572 206.5C72.8572 207.219 73.0812 207.821 73.5292 208.306ZM83.6912 210.14C82.6366 210.14 81.7592 209.79 81.0592 209.09C80.3686 208.381 80.0232 207.517 80.0232 206.5C80.0232 205.483 80.3686 204.624 81.0592 203.924C81.7592 203.215 82.6366 202.86 83.6912 202.86C84.7366 202.86 85.6046 203.215 86.2952 203.924C86.9952 204.624 87.3452 205.483 87.3452 206.5C87.3452 207.517 86.9952 208.381 86.2952 209.09C85.6046 209.79 84.7366 210.14 83.6912 210.14ZM81.9272 208.292C82.3846 208.777 82.9726 209.02 83.6912 209.02C84.4099 209.02 84.9932 208.777 85.4412 208.292C85.8892 207.807 86.1132 207.209 86.1132 206.5C86.1132 205.791 85.8892 205.193 85.4412 204.708C84.9932 204.223 84.4099 203.98 83.6912 203.98C82.9726 203.98 82.3846 204.223 81.9272 204.708C81.4792 205.193 81.2552 205.791 81.2552 206.5C81.2552 207.209 81.4792 207.807 81.9272 208.292ZM96.1715 208.894V211.764H95.0375V210H89.0735V203H90.2775V208.894H93.8895V203H95.0935V208.894H96.1715ZM100.628 210.14C99.6104 210.14 98.7657 209.795 98.0937 209.104C97.4311 208.413 97.0997 207.545 97.0997 206.5C97.0997 205.445 97.4217 204.577 98.0657 203.896C98.7191 203.205 99.5824 202.86 100.656 202.86C101.738 202.86 102.588 203.243 103.204 204.008C103.82 204.773 104.09 205.711 104.016 206.822H98.3177C98.3364 207.457 98.5697 207.989 99.0177 208.418C99.4657 208.838 100.007 209.048 100.642 209.048C101.594 209.048 102.27 208.656 102.672 207.872H103.904C103.726 208.525 103.348 209.067 102.77 209.496C102.191 209.925 101.477 210.14 100.628 210.14ZM102 204.428C101.617 204.092 101.155 203.924 100.614 203.924C100.072 203.924 99.5871 204.087 99.1577 204.414C98.7377 204.741 98.4764 205.226 98.3737 205.87H102.742C102.63 205.235 102.382 204.755 102 204.428ZM108.861 210.14C107.806 210.14 106.934 209.79 106.243 209.09C105.552 208.381 105.207 207.517 105.207 206.5C105.207 205.483 105.552 204.624 106.243 203.924C106.934 203.215 107.806 202.86 108.861 202.86C109.729 202.86 110.48 203.103 111.115 203.588C111.75 204.064 112.174 204.689 112.389 205.464H111.101C110.933 205.007 110.653 204.643 110.261 204.372C109.869 204.101 109.402 203.966 108.861 203.966C108.142 203.966 107.554 204.209 107.097 204.694C106.649 205.179 106.425 205.781 106.425 206.5C106.425 207.219 106.649 207.821 107.097 208.306C107.554 208.791 108.142 209.034 108.861 209.034C109.402 209.034 109.869 208.899 110.261 208.628C110.653 208.357 110.933 207.993 111.101 207.536H112.389C112.184 208.311 111.764 208.941 111.129 209.426C110.494 209.902 109.738 210.14 108.861 210.14ZM117.092 210.14C116.037 210.14 115.164 209.79 114.474 209.09C113.783 208.381 113.438 207.517 113.438 206.5C113.438 205.483 113.783 204.624 114.474 203.924C115.164 203.215 116.037 202.86 117.092 202.86C117.96 202.86 118.711 203.103 119.346 203.588C119.98 204.064 120.405 204.689 120.62 205.464H119.332C119.164 205.007 118.884 204.643 118.492 204.372C118.1 204.101 117.633 203.966 117.092 203.966C116.373 203.966 115.785 204.209 115.328 204.694C114.88 205.179 114.656 205.781 114.656 206.5C114.656 207.219 114.88 207.821 115.328 208.306C115.785 208.791 116.373 209.034 117.092 209.034C117.633 209.034 118.1 208.899 118.492 208.628C118.884 208.357 119.164 207.993 119.332 207.536H120.62C120.414 208.311 119.994 208.941 119.36 209.426C118.725 209.902 117.969 210.14 117.092 210.14ZM128.682 210V203H129.886V210H128.682ZM122.214 210V203H123.418V205.52H125.042C125.882 205.52 126.517 205.739 126.946 206.178C127.385 206.617 127.604 207.139 127.604 207.746C127.604 208.362 127.385 208.894 126.946 209.342C126.507 209.781 125.868 210 125.028 210H122.214ZM123.418 206.612V208.908H124.986C125.434 208.908 125.779 208.805 126.022 208.6C126.274 208.395 126.4 208.11 126.4 207.746C126.4 207.382 126.279 207.102 126.036 206.906C125.793 206.71 125.448 206.612 125 206.612H123.418Z" fill="white"/>
<mask id="path-6-outside-1_134_6316" maskUnits="userSpaceOnUse" x="86" y="131" width="285" height="89" fill="black">
<rect fill="white" x="86" y="131" width="285" height="89"/>
<path d="M104.458 213.62C102.778 215.78 100.558 216.86 97.7982 216.86C95.3982 216.86 93.3582 216.02 91.6782 214.34C89.9982 212.66 89.1582 210.62 89.1582 208.22C89.1582 205.94 89.7582 204.2 90.9582 203L134.698 144.14C136.738 141.38 139.438 139.16 142.798 137.48C146.158 135.68 149.758 134.78 153.598 134.78C157.198 134.78 160.618 135.56 163.858 137.12C167.098 138.68 169.738 140.84 171.778 143.6L215.518 202.1C216.118 203.06 216.658 204.02 217.138 204.98C217.738 205.94 218.038 207.02 218.038 208.22C218.038 210.62 217.198 212.66 215.518 214.34C213.838 216.02 211.798 216.86 209.398 216.86C206.398 216.86 204.118 215.72 202.558 213.44L160.618 157.46C159.778 156.5 158.698 155.48 157.378 154.4C156.178 153.2 154.918 152.6 153.598 152.6C152.278 152.6 150.958 153.2 149.638 154.4C148.438 155.48 147.478 156.5 146.758 157.46L104.458 213.62ZM251.771 216.86C248.411 216.86 245.231 216.26 242.231 215.06C239.231 213.74 236.591 212 234.311 209.84C232.151 207.68 230.411 205.16 229.091 202.28C227.771 199.4 227.111 196.28 227.111 192.92V147.02C227.111 144.62 227.951 142.58 229.631 140.9C231.311 139.22 233.351 138.38 235.751 138.38C238.031 138.38 240.011 139.22 241.691 140.9C243.491 142.58 244.391 144.62 244.391 147.02V192.92C244.391 194.72 245.051 196.28 246.371 197.6C247.811 198.92 249.431 199.58 251.231 199.58H359.231C361.631 199.58 363.671 200.42 365.351 202.1C367.031 203.78 367.871 205.82 367.871 208.22C367.871 210.62 367.031 212.66 365.351 214.34C363.671 216.02 361.631 216.86 359.231 216.86H251.771Z"/>
</mask>
<path d="M104.458 213.62L106.826 215.462L106.841 215.443L106.855 215.425L104.458 213.62ZM91.6782 214.34L93.7995 212.219H93.7995L91.6782 214.34ZM90.9582 203L93.0795 205.121L93.235 204.966L93.3661 204.789L90.9582 203ZM134.698 144.14L137.106 145.929L137.111 145.923L134.698 144.14ZM142.798 137.48L144.14 140.163L144.178 140.144L144.215 140.124L142.798 137.48ZM163.858 137.12L165.16 134.417L163.858 137.12ZM171.778 143.6L169.366 145.383L169.371 145.39L169.376 145.396L171.778 143.6ZM215.518 202.1L218.062 200.51L217.996 200.404L217.921 200.304L215.518 202.1ZM217.138 204.98L214.455 206.322L214.519 206.449L214.594 206.57L217.138 204.98ZM202.558 213.44L205.034 211.746L204.998 211.693L204.959 211.641L202.558 213.44ZM160.618 157.46L163.019 155.661L162.951 155.57L162.876 155.484L160.618 157.46ZM157.378 154.4L155.257 156.521L155.363 156.627L155.478 156.722L157.378 154.4ZM149.638 154.4L151.645 156.63L151.651 156.625L151.656 156.62L149.638 154.4ZM146.758 157.46L149.155 159.265L149.158 159.26L146.758 157.46ZM102.09 211.778C100.984 213.2 99.6418 213.86 97.7982 213.86V219.86C101.475 219.86 104.572 218.36 106.826 215.462L102.09 211.778ZM97.7982 213.86C96.1848 213.86 94.9105 213.33 93.7995 212.219L89.5569 216.461C91.8059 218.71 94.6116 219.86 97.7982 219.86V213.86ZM93.7995 212.219C92.6885 211.108 92.1582 209.833 92.1582 208.22H86.1582C86.1582 211.407 87.3079 214.212 89.5569 216.461L93.7995 212.219ZM92.1582 208.22C92.1582 206.454 92.6141 205.587 93.0795 205.121L88.8369 200.879C86.9023 202.813 86.1582 205.426 86.1582 208.22H92.1582ZM93.3661 204.789L137.106 145.929L132.29 142.351L88.5503 201.211L93.3661 204.789ZM137.111 145.923C138.844 143.578 141.162 141.652 144.14 140.163L141.457 134.797C137.714 136.668 134.633 139.182 132.286 142.357L137.111 145.923ZM144.215 140.124C147.136 138.56 150.249 137.78 153.598 137.78V131.78C149.268 131.78 145.181 132.8 141.382 134.836L144.215 140.124ZM153.598 137.78C156.748 137.78 159.723 138.459 162.557 139.823L165.16 134.417C161.513 132.661 157.648 131.78 153.598 131.78V137.78ZM162.557 139.823C165.379 141.182 167.63 143.034 169.366 145.383L174.191 141.817C171.847 138.646 168.818 136.178 165.16 134.417L162.557 139.823ZM169.376 145.396L213.116 203.896L217.921 200.304L174.181 141.804L169.376 145.396ZM212.974 203.69C213.527 204.574 214.02 205.451 214.455 206.322L219.821 203.638C219.297 202.589 218.71 201.546 218.062 200.51L212.974 203.69ZM214.594 206.57C214.878 207.024 215.038 207.547 215.038 208.22H221.038C221.038 206.493 220.598 204.856 219.682 203.39L214.594 206.57ZM215.038 208.22C215.038 209.833 214.508 211.108 213.397 212.219L217.64 216.461C219.889 214.212 221.038 211.407 221.038 208.22H215.038ZM213.397 212.219C212.286 213.33 211.012 213.86 209.398 213.86V219.86C212.585 219.86 215.391 218.71 217.64 216.461L213.397 212.219ZM209.398 213.86C207.288 213.86 205.981 213.129 205.034 211.746L200.082 215.134C202.256 218.311 205.508 219.86 209.398 219.86V213.86ZM204.959 211.641L163.019 155.661L158.217 159.259L200.157 215.239L204.959 211.641ZM162.876 155.484C161.897 154.366 160.687 153.231 159.278 152.078L155.478 156.722C156.71 157.729 157.659 158.634 158.36 159.436L162.876 155.484ZM159.5 152.279C157.905 150.684 155.924 149.6 153.598 149.6V155.6C153.913 155.6 154.451 155.716 155.257 156.521L159.5 152.279ZM153.598 149.6C151.303 149.6 149.296 150.657 147.62 152.18L151.656 156.62C152.621 155.743 153.253 155.6 153.598 155.6V149.6ZM147.631 152.17C146.333 153.339 145.227 154.502 144.358 155.66L149.158 159.26C149.729 158.498 150.544 157.621 151.645 156.63L147.631 152.17ZM144.362 155.655L102.062 211.815L106.855 215.425L149.155 159.265L144.362 155.655ZM242.231 215.06L241.023 217.806L241.07 217.826L241.117 217.845L242.231 215.06ZM234.311 209.84L232.19 211.961L232.219 211.99L232.248 212.018L234.311 209.84ZM229.091 202.28L231.819 201.03L229.091 202.28ZM229.631 140.9L227.51 138.779L229.631 140.9ZM241.691 140.9L239.57 143.021L239.607 143.058L239.644 143.093L241.691 140.9ZM246.371 197.6L244.25 199.721L244.296 199.767L244.344 199.811L246.371 197.6ZM365.351 202.1L363.23 204.221L365.351 202.1ZM251.771 213.86C248.777 213.86 245.977 213.327 243.346 212.275L241.117 217.845C244.486 219.193 248.045 219.86 251.771 219.86V213.86ZM243.44 212.314C240.741 211.127 238.394 209.575 236.375 207.662L232.248 212.018C234.789 214.425 237.721 216.353 241.023 217.806L243.44 212.314ZM236.433 207.719C234.534 205.82 232.996 203.598 231.819 201.03L226.364 203.53C227.827 206.722 229.769 209.54 232.19 211.961L236.433 207.719ZM231.819 201.03C230.689 198.566 230.111 195.875 230.111 192.92H224.111C224.111 196.685 224.854 200.234 226.364 203.53L231.819 201.03ZM230.111 192.92V147.02H224.111V192.92H230.111ZM230.111 147.02C230.111 145.407 230.642 144.132 231.753 143.021L227.51 138.779C225.261 141.028 224.111 143.833 224.111 147.02H230.111ZM231.753 143.021C232.864 141.91 234.138 141.38 235.751 141.38V135.38C232.565 135.38 229.759 136.53 227.51 138.779L231.753 143.021ZM235.751 141.38C237.199 141.38 238.426 141.878 239.57 143.021L243.813 138.779C241.596 136.562 238.864 135.38 235.751 135.38V141.38ZM239.644 143.093C240.854 144.222 241.391 145.476 241.391 147.02H247.391C247.391 143.764 246.128 140.938 243.738 138.707L239.644 143.093ZM241.391 147.02V192.92H247.391V147.02H241.391ZM241.391 192.92C241.391 195.548 242.391 197.862 244.25 199.721L248.493 195.479C247.712 194.698 247.391 193.892 247.391 192.92H241.391ZM244.344 199.811C246.286 201.592 248.614 202.58 251.231 202.58V196.58C250.249 196.58 249.337 196.248 248.398 195.389L244.344 199.811ZM251.231 202.58H359.231V196.58H251.231V202.58ZM359.231 202.58C360.845 202.58 362.119 203.11 363.23 204.221L367.473 199.979C365.224 197.73 362.418 196.58 359.231 196.58V202.58ZM363.23 204.221C364.341 205.332 364.871 206.607 364.871 208.22H370.871C370.871 205.033 369.722 202.228 367.473 199.979L363.23 204.221ZM364.871 208.22C364.871 209.833 364.341 211.108 363.23 212.219L367.473 216.461C369.722 214.212 370.871 211.407 370.871 208.22H364.871ZM363.23 212.219C362.119 213.33 360.845 213.86 359.231 213.86V219.86C362.418 219.86 365.224 218.71 367.473 216.461L363.23 212.219ZM359.231 213.86H251.771V219.86H359.231V213.86Z" fill="#29FF7F" fill-opacity="0.1" mask="url(#path-6-outside-1_134_6316)"/>
<mask id="path-8-outside-2_134_6316" maskUnits="userSpaceOnUse" x="9" y="7" width="301" height="85" fill="black">
<rect fill="white" x="9" y="7" width="301" height="85"/>
<path d="M127.9 58.26C131.14 60.3 134.44 62.52 137.8 64.92C141.16 67.2 144.58 69.72 148.06 72.48C149.38 73.44 150.52 74.58 151.48 75.9C152.44 77.1 152.92 78.54 152.92 80.22C152.92 82.62 152.08 84.66 150.4 86.34C148.72 88.02 146.68 88.86 144.28 88.86C143.32 88.86 142.3 88.62 141.22 88.14C140.14 87.66 139.12 87.06 138.16 86.34C133.24 82.74 128.2 79.26 123.04 75.9C117.88 72.42 112.48 69.42 106.84 66.9C101.32 64.26 95.5602 62.16 89.5602 60.6C83.5602 59.04 77.3202 58.26 70.8402 58.26H35.0202C33.4602 58.5 32.1402 59.22 31.0602 60.42C29.9802 61.62 29.4402 63.12 29.4402 64.92V80.22C29.4402 82.62 28.5402 84.66 26.7402 86.34C25.0602 88.02 23.0802 88.86 20.8002 88.86C18.4002 88.86 16.3602 88.02 14.6802 86.34C13.0002 84.66 12.1602 82.62 12.1602 80.22V62.94C12.1602 59.94 12.7002 57.12 13.7802 54.48C14.9802 51.72 16.5402 49.38 18.4602 47.46C20.3802 45.42 22.6602 43.86 25.3002 42.78C27.9402 41.58 30.8202 40.98 33.9402 40.98H129.34C131.14 40.98 132.7 40.38 134.02 39.18C135.46 37.86 136.18 36.24 136.18 34.32C136.18 32.52 135.46 30.96 134.02 29.64C132.7 28.32 131.14 27.66 129.34 27.66H20.8002C18.4002 27.66 16.3602 26.82 14.6802 25.14C13.0002 23.46 12.1602 21.42 12.1602 19.02C12.1602 16.62 13.0002 14.58 14.6802 12.9C16.3602 11.22 18.4002 10.38 20.8002 10.38H128.62C131.98 10.38 135.1 11.04 137.98 12.36C140.98 13.56 143.56 15.24 145.72 17.4C148 19.56 149.74 22.08 150.94 24.96C152.26 27.84 152.92 30.96 152.92 34.32C152.92 37.68 152.26 40.8 150.94 43.68C149.74 46.56 148 49.08 145.72 51.24C143.56 53.4 140.98 55.14 137.98 56.46C135.1 57.66 131.98 58.26 128.62 58.26H127.9ZM161.891 19.02C161.891 16.62 162.731 14.58 164.411 12.9C166.091 11.22 168.131 10.38 170.531 10.38H298.151C300.551 10.38 302.591 11.22 304.271 12.9C305.951 14.58 306.791 16.62 306.791 19.02C306.791 21.42 305.951 23.46 304.271 25.14C302.591 26.82 300.551 27.66 298.151 27.66H170.531C168.131 27.66 166.091 26.82 164.411 25.14C162.731 23.46 161.891 21.42 161.891 19.02ZM183.851 88.86C181.211 88.86 178.571 88.32 175.931 87.24C173.291 86.04 170.951 84.42 168.911 82.38C166.871 80.34 165.191 77.88 163.871 75C162.551 72.12 161.891 68.88 161.891 65.28V49.08C161.891 45.84 162.791 43.68 164.591 42.6C166.511 41.52 169.451 40.98 173.411 40.98H294.191C296.591 40.98 298.631 41.82 300.311 43.5C301.991 45.18 302.831 47.22 302.831 49.62C302.831 52.02 301.991 54.06 300.311 55.74C298.631 57.42 296.591 58.26 294.191 58.26H179.171V67.08C179.171 68.28 179.651 69.36 180.611 70.32C181.691 71.16 183.071 71.58 184.751 71.58H298.151C300.551 71.58 302.591 72.42 304.271 74.1C305.951 75.78 306.791 77.82 306.791 80.22C306.791 82.62 305.951 84.66 304.271 86.34C302.591 88.02 300.551 88.86 298.151 88.86H183.851Z"/>
</mask>
<path d="M127.9 58.26V55.26H117.505L126.302 60.7987L127.9 58.26ZM137.8 64.92L136.056 67.3612L136.086 67.3822L136.116 67.4024L137.8 64.92ZM148.06 72.48L146.196 74.8305L146.245 74.8694L146.296 74.9062L148.06 72.48ZM151.48 75.9L149.054 77.6645L149.094 77.7203L149.138 77.7741L151.48 75.9ZM141.22 88.14L142.439 85.3986L141.22 88.14ZM138.16 86.34L139.96 83.94L139.946 83.9294L139.932 83.9189L138.16 86.34ZM123.04 75.9L121.363 78.3872L121.383 78.4008L121.403 78.414L123.04 75.9ZM106.84 66.9L105.546 69.6064L105.581 69.6232L105.616 69.639L106.84 66.9ZM89.5602 60.6L88.8053 63.5035L89.5602 60.6ZM35.0202 58.26V55.26H34.7907L34.564 55.2949L35.0202 58.26ZM31.0602 60.42L28.8303 58.4131L31.0602 60.42ZM26.7402 86.34L24.6932 84.1468L24.6554 84.1821L24.6188 84.2187L26.7402 86.34ZM14.6802 86.34L16.8015 84.2187H16.8015L14.6802 86.34ZM13.7802 54.48L11.0289 53.2838L11.0159 53.3138L11.0035 53.3441L13.7802 54.48ZM18.4602 47.46L20.5815 49.5813L20.6136 49.5492L20.6448 49.5161L18.4602 47.46ZM25.3002 42.78L26.4361 45.5566L26.4892 45.5349L26.5416 45.5111L25.3002 42.78ZM134.02 39.18L136.038 41.3998L136.047 41.3915L134.02 39.18ZM134.02 29.64L131.899 31.7613L131.945 31.8074L131.993 31.8515L134.02 29.64ZM14.6802 25.14L16.8015 23.0187H16.8015L14.6802 25.14ZM14.6802 12.9L12.5588 10.7787H12.5588L14.6802 12.9ZM137.98 12.36L136.73 15.0872L136.797 15.118L136.866 15.1454L137.98 12.36ZM145.72 17.4L143.599 19.5213L143.628 19.55L143.657 19.5779L145.72 17.4ZM150.94 24.96L148.171 26.1138L148.191 26.1623L148.213 26.21L150.94 24.96ZM150.94 43.68L148.213 42.43L148.191 42.4777L148.171 42.5262L150.94 43.68ZM145.72 51.24L143.657 49.0621L143.628 49.09L143.599 49.1187L145.72 51.24ZM137.98 56.46L139.134 59.2292L139.161 59.2178L139.188 59.2059L137.98 56.46ZM126.302 60.7987C129.489 62.8053 132.74 64.9925 136.056 67.3612L139.544 62.4788C136.14 60.0475 132.792 57.7947 129.499 55.7213L126.302 60.7987ZM136.116 67.4024C139.409 69.637 142.769 72.1124 146.196 74.8305L149.924 70.1295C146.391 67.3276 142.912 64.763 139.485 62.4376L136.116 67.4024ZM146.296 74.9062C147.362 75.6816 148.279 76.5983 149.054 77.6645L153.906 74.1355C152.762 72.5617 151.398 71.1984 149.825 70.0538L146.296 74.9062ZM149.138 77.7741C149.632 78.3916 149.92 79.1535 149.92 80.22H155.92C155.92 77.9265 155.249 75.8084 153.823 74.0259L149.138 77.7741ZM149.92 80.22C149.92 81.8334 149.39 83.1077 148.279 84.2187L152.521 88.4613C154.77 86.2123 155.92 83.4066 155.92 80.22H149.92ZM148.279 84.2187C147.168 85.3297 145.894 85.86 144.28 85.86V91.86C147.467 91.86 150.272 90.7103 152.521 88.4613L148.279 84.2187ZM144.28 85.86C143.825 85.86 143.221 85.7465 142.439 85.3986L140.002 90.8814C141.379 91.4935 142.815 91.86 144.28 91.86V85.86ZM142.439 85.3986C141.568 85.0116 140.743 84.5268 139.96 83.94L136.36 88.74C137.498 89.5932 138.713 90.3084 140.002 90.8814L142.439 85.3986ZM139.932 83.9189C134.967 80.2864 129.882 76.7755 124.677 73.386L121.403 78.414C126.518 81.7446 131.513 85.1936 136.389 88.7611L139.932 83.9189ZM124.718 73.4128C119.415 69.8366 113.863 66.7522 108.064 64.161L105.616 69.639C111.097 72.0878 116.345 75.0034 121.363 78.3872L124.718 73.4128ZM108.135 64.1936C102.439 61.4697 96.4983 59.3042 90.3151 57.6965L88.8053 63.5035C94.622 65.0158 100.201 67.0503 105.546 69.6064L108.135 64.1936ZM90.3151 57.6965C84.0576 56.0696 77.5633 55.26 70.8402 55.26V61.26C77.077 61.26 83.0627 62.0104 88.8053 63.5035L90.3151 57.6965ZM70.8402 55.26H35.0202V61.26H70.8402V55.26ZM34.564 55.2949C32.3031 55.6427 30.3618 56.7115 28.8303 58.4131L33.29 62.4269C33.9186 61.7285 34.6172 61.3573 35.4763 61.2251L34.564 55.2949ZM28.8303 58.4131C27.1964 60.2286 26.4402 62.4706 26.4402 64.92H32.4402C32.4402 63.7694 32.764 63.0114 33.29 62.4269L28.8303 58.4131ZM26.4402 64.92V80.22H32.4402V64.92H26.4402ZM26.4402 80.22C26.4402 81.7644 25.9031 83.0176 24.6932 84.1468L28.7871 88.5332C31.1772 86.3024 32.4402 83.4756 32.4402 80.22H26.4402ZM24.6188 84.2187C23.4751 85.3625 22.248 85.86 20.8002 85.86V91.86C23.9124 91.86 26.6453 90.6776 28.8615 88.4613L24.6188 84.2187ZM20.8002 85.86C19.1867 85.86 17.9125 85.3297 16.8015 84.2187L12.5588 88.4613C14.8078 90.7103 17.6136 91.86 20.8002 91.86V85.86ZM16.8015 84.2187C15.6905 83.1077 15.1602 81.8334 15.1602 80.22H9.16016C9.16016 83.4066 10.3098 86.2123 12.5588 88.4613L16.8015 84.2187ZM15.1602 80.22V62.94H9.16016V80.22H15.1602ZM15.1602 62.94C15.1602 60.3091 15.6319 57.8769 16.5568 55.6159L11.0035 53.3441C9.76846 56.3631 9.16016 59.5709 9.16016 62.94H15.1602ZM16.5314 55.6762C17.5975 53.224 18.955 51.2078 20.5815 49.5813L16.3388 45.3387C14.1253 47.5522 12.3628 50.216 11.0289 53.2838L16.5314 55.6762ZM20.6448 49.5161C22.2653 47.7943 24.1857 46.4772 26.4361 45.5566L24.1643 40.0034C21.1346 41.2427 18.495 43.0457 16.2756 45.4039L20.6448 49.5161ZM26.5416 45.5111C28.7627 44.5015 31.2154 43.98 33.9402 43.98V37.98C30.4249 37.98 27.1176 38.6585 24.0588 40.0489L26.5416 45.5111ZM33.9402 43.98H129.34V37.98H33.9402V43.98ZM129.34 43.98C131.879 43.98 134.16 43.1068 136.038 41.3998L132.002 36.9602C131.24 37.6532 130.401 37.98 129.34 37.98V43.98ZM136.047 41.3915C138.095 39.5145 139.18 37.0974 139.18 34.32H133.18C133.18 35.3825 132.825 36.2055 131.993 36.9685L136.047 41.3915ZM139.18 34.32C139.18 31.6021 138.048 29.2626 136.047 27.4285L131.993 31.8515C132.872 32.6574 133.18 33.4379 133.18 34.32H139.18ZM136.141 27.5187C134.282 25.6594 131.968 24.66 129.34 24.66V30.66C130.312 30.66 131.118 30.9806 131.899 31.7613L136.141 27.5187ZM129.34 24.66H20.8002V30.66H129.34V24.66ZM20.8002 24.66C19.1867 24.66 17.9125 24.1297 16.8015 23.0187L12.5588 27.2613C14.8078 29.5103 17.6136 30.66 20.8002 30.66V24.66ZM16.8015 23.0187C15.6905 21.9077 15.1602 20.6334 15.1602 19.02H9.16016C9.16016 22.2066 10.3098 25.0123 12.5588 27.2613L16.8015 23.0187ZM15.1602 19.02C15.1602 17.4066 15.6905 16.1323 16.8015 15.0213L12.5588 10.7787C10.3098 13.0277 9.16016 15.8334 9.16016 19.02H15.1602ZM16.8015 15.0213C17.9125 13.9103 19.1867 13.38 20.8002 13.38V7.38C17.6136 7.38 14.8078 8.52968 12.5588 10.7787L16.8015 15.0213ZM20.8002 13.38H128.62V7.38H20.8002V13.38ZM128.62 13.38C131.575 13.38 134.266 13.9577 136.73 15.0872L139.23 9.6328C135.934 8.12227 132.385 7.38 128.62 7.38V13.38ZM136.866 15.1454C139.511 16.2034 141.743 17.665 143.599 19.5213L147.841 15.2787C145.378 12.815 142.449 10.9166 139.094 9.57456L136.866 15.1454ZM143.657 19.5779C145.635 21.4516 147.133 23.6234 148.171 26.1138L153.709 23.8061C152.347 20.5366 150.366 17.6684 147.783 15.2221L143.657 19.5779ZM148.213 26.21C149.342 28.6742 149.92 31.3648 149.92 34.32H155.92C155.92 30.5552 155.178 27.0058 153.667 23.71L148.213 26.21ZM149.92 34.32C149.92 37.2752 149.342 39.9658 148.213 42.43L153.667 44.93C155.178 41.6342 155.92 38.0848 155.92 34.32H149.92ZM148.171 42.5262C147.133 45.0166 145.635 47.1884 143.657 49.0621L147.783 53.4179C150.366 50.9716 152.347 48.1034 153.709 44.8338L148.171 42.5262ZM143.599 49.1187C141.721 50.997 139.457 52.5328 136.772 53.7141L139.188 59.2059C142.504 57.7472 145.4 55.803 147.841 53.3613L143.599 49.1187ZM136.826 53.6908C134.339 54.727 131.615 55.26 128.62 55.26V61.26C132.345 61.26 135.861 60.593 139.134 59.2292L136.826 53.6908ZM128.62 55.26H127.9V61.26H128.62V55.26ZM164.411 12.9L162.289 10.7787L164.411 12.9ZM304.271 12.9L306.392 10.7787L304.271 12.9ZM164.411 25.14L166.532 23.0187L164.411 25.14ZM175.931 87.24L174.689 89.9711L174.742 89.9949L174.795 90.0166L175.931 87.24ZM168.911 82.38L166.789 84.5013V84.5013L168.911 82.38ZM163.871 75L166.598 73.75L163.871 75ZM164.591 42.6L163.12 39.9853L163.083 40.0059L163.047 40.0275L164.591 42.6ZM300.311 55.74L302.432 57.8613V57.8613L300.311 55.74ZM179.171 58.26V55.26H176.171V58.26H179.171ZM180.611 70.32L178.489 72.4413L178.621 72.5734L178.769 72.688L180.611 70.32ZM304.271 74.1L302.149 76.2213H302.149L304.271 74.1ZM164.891 19.02C164.891 17.4066 165.421 16.1323 166.532 15.0213L162.289 10.7787C160.04 13.0277 158.891 15.8334 158.891 19.02H164.891ZM166.532 15.0213C167.643 13.9103 168.917 13.38 170.531 13.38V7.38C167.344 7.38 164.538 8.52968 162.289 10.7787L166.532 15.0213ZM170.531 13.38H298.151V7.38H170.531V13.38ZM298.151 13.38C299.764 13.38 301.038 13.9103 302.149 15.0213L306.392 10.7787C304.143 8.52968 301.337 7.38 298.151 7.38V13.38ZM302.149 15.0213C303.26 16.1323 303.791 17.4066 303.791 19.02H309.791C309.791 15.8334 308.641 13.0277 306.392 10.7787L302.149 15.0213ZM303.791 19.02C303.791 20.6334 303.26 21.9077 302.149 23.0187L306.392 27.2613C308.641 25.0123 309.791 22.2066 309.791 19.02H303.791ZM302.149 23.0187C301.038 24.1297 299.764 24.66 298.151 24.66V30.66C301.337 30.66 304.143 29.5103 306.392 27.2613L302.149 23.0187ZM298.151 24.66H170.531V30.66H298.151V24.66ZM170.531 24.66C168.917 24.66 167.643 24.1297 166.532 23.0187L162.289 27.2613C164.538 29.5103 167.344 30.66 170.531 30.66V24.66ZM166.532 23.0187C165.421 21.9077 164.891 20.6334 164.891 19.02H158.891C158.891 22.2066 160.04 25.0123 162.289 27.2613L166.532 23.0187ZM183.851 85.86C181.631 85.86 179.375 85.4078 177.067 84.4634L174.795 90.0166C177.766 91.2322 180.791 91.86 183.851 91.86V85.86ZM177.172 84.5089C174.858 83.457 172.816 82.043 171.032 80.2587L166.789 84.5013C169.085 86.797 171.723 88.623 174.689 89.9711L177.172 84.5089ZM171.032 80.2587C169.268 78.4944 167.784 76.3377 166.598 73.75L161.143 76.25C162.597 79.4223 164.474 82.1856 166.789 84.5013L171.032 80.2587ZM166.598 73.75C165.481 71.3124 164.891 68.5074 164.891 65.28H158.891C158.891 69.2526 159.621 72.9276 161.143 76.25L166.598 73.75ZM164.891 65.28V49.08H158.891V65.28H164.891ZM164.891 49.08C164.891 46.2829 165.661 45.4565 166.134 45.1725L163.047 40.0275C159.921 41.9035 158.891 45.3971 158.891 49.08H164.891ZM166.061 45.2147C167.302 44.5168 169.614 43.98 173.411 43.98V37.98C169.287 37.98 165.719 38.5232 163.12 39.9853L166.061 45.2147ZM173.411 43.98H294.191V37.98H173.411V43.98ZM294.191 43.98C295.804 43.98 297.078 44.5103 298.189 45.6213L302.432 41.3787C300.183 39.1297 297.377 37.98 294.191 37.98V43.98ZM298.189 45.6213C299.3 46.7323 299.831 48.0066 299.831 49.62H305.831C305.831 46.4334 304.681 43.6277 302.432 41.3787L298.189 45.6213ZM299.831 49.62C299.831 51.2334 299.3 52.5077 298.189 53.6187L302.432 57.8613C304.681 55.6123 305.831 52.8066 305.831 49.62H299.831ZM298.189 53.6187C297.078 54.7297 295.804 55.26 294.191 55.26V61.26C297.377 61.26 300.183 60.1103 302.432 57.8613L298.189 53.6187ZM294.191 55.26H179.171V61.26H294.191V55.26ZM176.171 58.26V67.08H182.171V58.26H176.171ZM176.171 67.08C176.171 69.1827 177.047 70.9993 178.489 72.4413L182.732 68.1987C182.254 67.7207 182.171 67.3773 182.171 67.08H176.171ZM178.769 72.688C180.486 74.024 182.559 74.58 184.751 74.58V68.58C183.582 68.58 182.895 68.296 182.452 67.9519L178.769 72.688ZM184.751 74.58H298.151V68.58H184.751V74.58ZM298.151 74.58C299.764 74.58 301.038 75.1103 302.149 76.2213L306.392 71.9787C304.143 69.7297 301.337 68.58 298.151 68.58V74.58ZM302.149 76.2213C303.26 77.3323 303.791 78.6066 303.791 80.22H309.791C309.791 77.0334 308.641 74.2277 306.392 71.9787L302.149 76.2213ZM303.791 80.22C303.791 81.8334 303.26 83.1077 302.149 84.2187L306.392 88.4613C308.641 86.2123 309.791 83.4066 309.791 80.22H303.791ZM302.149 84.2187C301.038 85.3297 299.764 85.86 298.151 85.86V91.86C301.337 91.86 304.143 90.7103 306.392 88.4613L302.149 84.2187ZM298.151 85.86H183.851V91.86H298.151V85.86Z" fill="#29FF7F" fill-opacity="0.1" mask="url(#path-8-outside-2_134_6316)"/>
</svg>
