<svg width="361" height="181" viewBox="0 0 361 181" fill="none" xmlns="http://www.w3.org/2000/svg">
<path fill-rule="evenodd" clip-rule="evenodd" d="M294.39 48.3722L294.34 48.3217C291.946 45.9277 289.233 44.8004 286.061 44.8004H41.6609C35.541 44.8004 30.2419 42.624 25.9396 38.3217C21.6373 34.0194 19.4609 28.7203 19.4609 22.6004C19.4609 16.4805 21.6373 11.1814 25.9396 6.87906C30.242 2.57674 35.541 0.400391 41.6609 0.400391H284.061C291.885 0.400391 299.207 1.79797 305.995 4.62276C313.008 7.43097 319.083 11.3801 324.182 16.4791C329.253 21.5501 333.197 27.4648 336.01 34.1987C339.119 41.0009 340.661 48.3475 340.661 56.2004C340.661 63.2155 339.4 69.8517 336.86 76.0815C334.903 81.4457 332.199 86.3017 328.747 90.6336C336.663 100.808 340.661 112.292 340.661 125C340.661 132.853 339.119 140.2 336.01 147.002C333.197 153.736 329.253 159.651 324.182 164.722C319.083 169.821 313.008 173.77 305.995 176.578C299.207 179.403 291.885 180.8 284.061 180.8H41.6609C35.541 180.8 30.2419 178.624 25.9396 174.322C21.6373 170.019 19.4609 164.72 19.4609 158.6C19.4609 152.48 21.6373 147.181 25.9396 142.879C30.2419 138.577 35.541 136.4 41.6609 136.4H286.061C289.298 136.4 292.027 135.356 294.39 133.228C296.749 130.847 297.861 128.15 297.861 125C297.861 121.504 296.693 118.675 294.34 116.322C291.946 113.928 289.233 112.8 286.061 112.8H87.2609C81.141 112.8 75.8419 110.624 71.5396 106.322C67.2373 102.019 65.0609 96.7203 65.0609 90.6004C65.0609 84.4805 67.2373 79.1814 71.5396 74.8791C75.8419 70.5768 81.141 68.4004 87.2609 68.4004H286.061C289.233 68.4004 291.946 67.2731 294.34 64.8791C296.693 62.526 297.861 59.6968 297.861 56.2004C297.861 53.0369 296.744 50.5125 294.443 48.4202L294.39 48.3722ZM296.461 135.4C293.528 138.067 290.061 139.4 286.061 139.4H41.6609C36.3276 139.4 31.7943 141.267 28.0609 145C24.3276 148.734 22.4609 153.267 22.4609 158.6C22.4609 163.934 24.3276 168.467 28.0609 172.2C31.7943 175.934 36.3276 177.8 41.6609 177.8H284.061C291.528 177.8 298.461 176.467 304.861 173.8C311.528 171.134 317.261 167.4 322.061 162.6C326.861 157.8 330.594 152.2 333.261 145.8C336.194 139.4 337.661 132.467 337.661 125C337.661 112.2 333.394 100.734 324.861 90.6004C328.861 86.067 331.928 80.8671 334.061 75.0004C336.461 69.1337 337.661 62.8671 337.661 56.2004C337.661 48.7337 336.194 41.8004 333.261 35.4004C330.594 29.0004 326.861 23.4004 322.061 18.6004C317.261 13.8004 311.528 10.0671 304.861 7.40039C298.461 4.73373 291.528 3.40039 284.061 3.40039H41.6609C36.3276 3.40039 31.7943 5.26706 28.0609 9.00038C24.3276 12.7337 22.4609 17.267 22.4609 22.6004C22.4609 27.9337 24.3276 32.4671 28.0609 36.2004C31.7943 39.9337 36.3276 41.8004 41.6609 41.8004H286.061C290.061 41.8004 293.528 43.2671 296.461 46.2004C299.394 48.8671 300.861 52.2004 300.861 56.2004C300.861 60.4671 299.394 64.067 296.461 67.0004C293.528 69.9337 290.061 71.4004 286.061 71.4004H87.2609C81.9276 71.4004 77.3943 73.2671 73.6609 77.0004C69.9276 80.7337 68.0609 85.2671 68.0609 90.6004C68.0609 95.9337 69.9276 100.467 73.6609 104.2C77.3943 107.934 81.9276 109.8 87.2609 109.8H286.061C290.061 109.8 293.528 111.267 296.461 114.2C299.394 117.134 300.861 120.734 300.861 125C300.861 129 299.394 132.467 296.461 135.4Z" fill="#29FF7F" fill-opacity="0.1"/>
<path d="M331.652 163.42C331.652 163.093 331.769 162.778 332.002 162.475C332.842 161.238 333.787 160.2 334.837 159.36C335.911 158.497 337.112 157.808 338.442 157.295C339.796 156.758 341.301 156.373 342.957 156.14C344.614 155.907 346.469 155.79 348.522 155.79H355.662V153.97C355.616 153.76 355.499 153.585 355.312 153.445C355.126 153.282 354.881 153.2 354.577 153.2H336.237C335.911 153.247 335.619 153.387 335.362 153.62C335.129 153.853 335.012 154.145 335.012 154.495C335.012 154.962 334.849 155.358 334.522 155.685C334.196 156.012 333.799 156.175 333.332 156.175C332.866 156.175 332.469 156.012 332.142 155.685C331.816 155.358 331.652 154.962 331.652 154.495C331.652 153.842 331.781 153.235 332.037 152.675C332.294 152.115 332.644 151.625 333.087 151.205C333.531 150.785 334.044 150.458 334.627 150.225C335.211 149.968 335.829 149.84 336.482 149.84H354.752C355.266 149.84 355.779 149.957 356.292 150.19C356.806 150.4 357.261 150.703 357.657 151.1C358.054 151.497 358.381 151.975 358.637 152.535C358.894 153.095 359.022 153.725 359.022 154.425V163.42C359.022 163.887 358.859 164.283 358.532 164.61C358.206 164.937 357.809 165.1 357.342 165.1C356.899 165.1 356.502 164.937 356.152 164.61C355.826 164.283 355.662 163.887 355.662 163.42V159.15H348.522C347.099 159.15 345.757 159.197 344.497 159.29C343.261 159.36 342.082 159.57 340.962 159.92C339.842 160.27 338.769 160.783 337.742 161.46C336.739 162.137 335.759 163.07 334.802 164.26C334.732 164.353 334.627 164.47 334.487 164.61C334.324 164.75 334.149 164.867 333.962 164.96C333.776 165.053 333.566 165.1 333.332 165.1C332.866 165.1 332.469 164.937 332.142 164.61C331.816 164.283 331.652 163.887 331.652 163.42Z" fill="white"/>
<path d="M304.319 158.415C304.319 159.255 304.366 159.897 304.459 160.34C304.552 160.783 304.774 161.005 305.124 161.005C305.311 161.005 305.544 160.935 305.824 160.795C306.127 160.632 306.501 160.422 306.944 160.165L322.974 150.365C323.231 150.202 323.511 150.073 323.814 149.98C324.141 149.887 324.467 149.84 324.794 149.84C325.751 149.84 326.544 150.167 327.174 150.82C327.827 151.473 328.154 152.278 328.154 153.235V163.42C328.154 163.887 327.991 164.283 327.664 164.61C327.337 164.937 326.941 165.1 326.474 165.1C326.007 165.1 325.611 164.937 325.284 164.61C324.957 164.283 324.794 163.887 324.794 163.42V156.525C324.794 155.685 324.747 155.043 324.654 154.6C324.561 154.157 324.339 153.935 323.989 153.935C323.802 153.935 323.557 154.017 323.254 154.18C322.974 154.32 322.612 154.518 322.169 154.775L306.139 164.575C305.882 164.738 305.591 164.867 305.264 164.96C304.961 165.053 304.646 165.1 304.319 165.1C303.362 165.1 302.557 164.773 301.904 164.12C301.274 163.467 300.959 162.662 300.959 161.705V151.52C300.959 151.053 301.122 150.657 301.449 150.33C301.776 150.003 302.172 149.84 302.639 149.84C303.106 149.84 303.502 150.003 303.829 150.33C304.156 150.657 304.319 151.053 304.319 151.52V158.415Z" fill="white"/>
<path d="M297.466 163.42C297.466 163.887 297.302 164.283 296.976 164.61C296.649 164.937 296.252 165.1 295.786 165.1C295.319 165.1 294.922 164.937 294.596 164.61C294.269 164.283 294.106 163.887 294.106 163.42V159.15H273.421V163.42C273.421 163.887 273.257 164.283 272.931 164.61C272.604 164.937 272.207 165.1 271.741 165.1C271.274 165.1 270.877 164.937 270.551 164.61C270.224 164.283 270.061 163.887 270.061 163.42V151.52C270.061 151.053 270.224 150.657 270.551 150.33C270.877 150.003 271.274 149.84 271.741 149.84C272.207 149.84 272.604 150.003 272.931 150.33C273.257 150.657 273.421 151.053 273.421 151.52V155.79H294.106V151.52C294.106 151.053 294.269 150.657 294.596 150.33C294.922 150.003 295.319 149.84 295.786 149.84C296.252 149.84 296.649 150.003 296.976 150.33C297.302 150.657 297.466 151.053 297.466 151.52V163.42Z" fill="white"/>
<path d="M238.376 151.52C238.376 151.053 238.539 150.657 238.866 150.33C239.193 150.003 239.589 149.84 240.056 149.84H264.871C265.338 149.84 265.734 150.003 266.061 150.33C266.388 150.657 266.551 151.053 266.551 151.52C266.551 151.987 266.388 152.383 266.061 152.71C265.734 153.037 265.338 153.2 264.871 153.2H240.056C239.589 153.2 239.193 153.037 238.866 152.71C238.539 152.383 238.376 151.987 238.376 151.52ZM242.646 165.1C242.133 165.1 241.619 164.995 241.106 164.785C240.593 164.552 240.138 164.237 239.741 163.84C239.344 163.443 239.018 162.965 238.761 162.405C238.504 161.845 238.376 161.215 238.376 160.515V157.365C238.376 156.735 238.551 156.315 238.901 156.105C239.274 155.895 239.846 155.79 240.616 155.79H264.101C264.568 155.79 264.964 155.953 265.291 156.28C265.618 156.607 265.781 157.003 265.781 157.47C265.781 157.937 265.618 158.333 265.291 158.66C264.964 158.987 264.568 159.15 264.101 159.15H241.736V160.865C241.736 161.098 241.829 161.308 242.016 161.495C242.226 161.658 242.494 161.74 242.821 161.74H264.871C265.338 161.74 265.734 161.903 266.061 162.23C266.388 162.557 266.551 162.953 266.551 163.42C266.551 163.887 266.388 164.283 266.061 164.61C265.734 164.937 265.338 165.1 264.871 165.1H242.646Z" fill="white"/>
<path d="M233.186 165.1C233.092 165.1 233.011 165.1 232.941 165.1C232.871 165.077 232.789 165.053 232.696 165.03C231.669 164.82 230.666 164.47 229.686 163.98C228.706 163.49 227.831 162.907 227.061 162.23C226.291 161.553 225.672 160.807 225.206 159.99C224.739 159.15 224.506 158.31 224.506 157.47C224.506 156.63 224.739 155.802 225.206 154.985C225.672 154.168 226.291 153.422 227.061 152.745C227.831 152.045 228.706 151.45 229.686 150.96C230.666 150.47 231.669 150.12 232.696 149.91C232.789 149.887 232.871 149.875 232.941 149.875C233.011 149.852 233.092 149.84 233.186 149.84C233.652 149.84 234.049 150.003 234.376 150.33C234.702 150.657 234.866 151.053 234.866 151.52C234.866 151.963 234.714 152.337 234.411 152.64C234.107 152.92 233.734 153.107 233.291 153.2C232.567 153.363 231.879 153.597 231.226 153.9C230.572 154.203 229.989 154.553 229.476 154.95C228.986 155.323 228.589 155.732 228.286 156.175C228.006 156.595 227.866 157.027 227.866 157.47C227.866 157.913 228.006 158.357 228.286 158.8C228.589 159.243 228.986 159.663 229.476 160.06C229.989 160.433 230.572 160.772 231.226 161.075C231.879 161.378 232.567 161.6 233.291 161.74C233.734 161.833 234.107 162.032 234.411 162.335C234.714 162.615 234.866 162.977 234.866 163.42C234.866 163.887 234.702 164.283 234.376 164.61C234.049 164.937 233.652 165.1 233.186 165.1ZM218.626 163.21V151.065C218.626 150.528 218.824 150.05 219.221 149.63C219.617 149.21 220.107 149 220.691 149C221.251 149 221.729 149.21 222.126 149.63C222.522 150.05 222.732 150.528 222.756 151.065L222.721 163.385C222.721 163.875 222.522 164.33 222.126 164.75C221.729 165.17 221.251 165.38 220.691 165.38C220.107 165.38 219.617 165.17 219.221 164.75C218.824 164.33 218.626 163.817 218.626 163.21ZM208.406 165.1C207.939 165.1 207.542 164.937 207.216 164.61C206.889 164.283 206.726 163.887 206.726 163.42C206.726 162.977 206.877 162.615 207.181 162.335C207.484 162.032 207.857 161.833 208.301 161.74C209.024 161.6 209.712 161.378 210.366 161.075C211.019 160.772 211.591 160.433 212.081 160.06C212.594 159.663 212.991 159.243 213.271 158.8C213.574 158.357 213.726 157.913 213.726 157.47C213.726 157.027 213.574 156.595 213.271 156.175C212.991 155.732 212.594 155.323 212.081 154.95C211.591 154.553 211.019 154.203 210.366 153.9C209.712 153.597 209.024 153.363 208.301 153.2C207.857 153.107 207.484 152.92 207.181 152.64C206.877 152.337 206.726 151.963 206.726 151.52C206.726 151.053 206.889 150.657 207.216 150.33C207.542 150.003 207.939 149.84 208.406 149.84C208.499 149.84 208.581 149.852 208.651 149.875C208.721 149.875 208.802 149.887 208.896 149.91C209.922 150.12 210.926 150.47 211.906 150.96C212.886 151.45 213.761 152.045 214.531 152.745C215.301 153.422 215.919 154.168 216.386 154.985C216.852 155.802 217.086 156.63 217.086 157.47C217.086 158.31 216.852 159.15 216.386 159.99C215.919 160.807 215.301 161.553 214.531 162.23C213.761 162.907 212.886 163.49 211.906 163.98C210.926 164.47 209.922 164.82 208.896 165.03C208.802 165.053 208.721 165.077 208.651 165.1C208.581 165.1 208.499 165.1 208.406 165.1Z" fill="white"/>
<path d="M179.392 158.415C179.392 159.255 179.439 159.897 179.532 160.34C179.626 160.783 179.847 161.005 180.197 161.005C180.384 161.005 180.617 160.935 180.897 160.795C181.201 160.632 181.574 160.422 182.017 160.165L198.047 150.365C198.304 150.202 198.584 150.073 198.887 149.98C199.214 149.887 199.541 149.84 199.867 149.84C200.824 149.84 201.617 150.167 202.247 150.82C202.901 151.473 203.227 152.278 203.227 153.235V163.42C203.227 163.887 203.064 164.283 202.737 164.61C202.411 164.937 202.014 165.1 201.547 165.1C201.081 165.1 200.684 164.937 200.357 164.61C200.031 164.283 199.867 163.887 199.867 163.42V156.525C199.867 155.685 199.821 155.043 199.727 154.6C199.634 154.157 199.412 153.935 199.062 153.935C198.876 153.935 198.631 154.017 198.327 154.18C198.047 154.32 197.686 154.518 197.242 154.775L181.212 164.575C180.956 164.738 180.664 164.867 180.337 164.96C180.034 165.053 179.719 165.1 179.392 165.1C178.436 165.1 177.631 164.773 176.977 164.12C176.347 163.467 176.032 162.662 176.032 161.705V151.52C176.032 151.053 176.196 150.657 176.522 150.33C176.849 150.003 177.246 149.84 177.712 149.84C178.179 149.84 178.576 150.003 178.902 150.33C179.229 150.657 179.392 151.053 179.392 151.52V158.415Z" fill="white"/>
<path d="M148.528 161.74H167.953C168.303 161.74 168.606 161.612 168.863 161.355C169.143 161.098 169.283 160.795 169.283 160.445C169.283 160.072 169.143 159.768 168.863 159.535C168.606 159.278 168.303 159.15 167.953 159.15H148.528V161.74ZM148.528 153.2V155.79H167.988C168.338 155.79 168.641 155.673 168.898 155.44C169.155 155.207 169.283 154.903 169.283 154.53C169.283 154.18 169.143 153.877 168.863 153.62C168.606 153.34 168.303 153.2 167.953 153.2H148.528ZM146.848 165.1C146.381 165.1 145.985 164.937 145.658 164.61C145.331 164.283 145.168 163.887 145.168 163.42V151.52C145.168 151.053 145.331 150.657 145.658 150.33C145.985 150.003 146.381 149.84 146.848 149.84H167.813C168.466 149.84 169.073 149.968 169.633 150.225C170.216 150.458 170.718 150.785 171.138 151.205C171.581 151.625 171.92 152.127 172.153 152.71C172.41 153.27 172.538 153.877 172.538 154.53C172.538 155.113 172.433 155.662 172.223 156.175C172.036 156.665 171.78 157.108 171.453 157.505C171.78 157.902 172.036 158.357 172.223 158.87C172.433 159.36 172.538 159.885 172.538 160.445C172.538 161.098 172.41 161.705 172.153 162.265C171.92 162.825 171.581 163.315 171.138 163.735C170.718 164.155 170.216 164.493 169.633 164.75C169.073 164.983 168.466 165.1 167.813 165.1H146.848Z" fill="white"/>
<path d="M124.497 163.735C124.497 163.128 124.707 162.615 125.127 162.195C125.547 161.775 126.06 161.565 126.667 161.565C127.273 161.565 127.787 161.775 128.207 162.195C128.627 162.615 128.837 163.128 128.837 163.735C128.837 164.342 128.627 164.855 128.207 165.275C127.787 165.695 127.273 165.905 126.667 165.905C126.06 165.905 125.547 165.695 125.127 165.275C124.707 164.855 124.497 164.342 124.497 163.735ZM119.072 162.545H119.947C120.413 162.545 120.81 162.708 121.137 163.035C121.463 163.362 121.627 163.758 121.627 164.225C121.627 164.692 121.463 165.088 121.137 165.415C120.81 165.742 120.413 165.905 119.947 165.905H112.492C112.072 165.858 111.71 165.683 111.407 165.38C111.103 165.053 110.952 164.668 110.952 164.225C110.952 163.758 111.115 163.362 111.442 163.035C111.768 162.708 112.165 162.545 112.632 162.545H114.907L123.132 151.555C123.552 151.018 124.065 150.598 124.672 150.295C125.302 149.992 125.967 149.84 126.667 149.84C127.413 149.84 128.102 150.015 128.732 150.365C129.385 150.692 129.922 151.123 130.342 151.66L138.427 162.545H140.527C140.993 162.545 141.39 162.708 141.717 163.035C142.043 163.362 142.207 163.758 142.207 164.225C142.207 164.692 142.043 165.088 141.717 165.415C141.39 165.742 140.993 165.905 140.527 165.905H133.072C132.652 165.858 132.29 165.683 131.987 165.38C131.683 165.053 131.532 164.668 131.532 164.225C131.532 163.758 131.695 163.362 132.022 163.035C132.348 162.708 132.745 162.545 133.212 162.545H134.262L127.997 154.25C127.857 154.063 127.658 153.865 127.402 153.655C127.168 153.422 126.923 153.305 126.667 153.305C126.41 153.305 126.153 153.422 125.897 153.655C125.663 153.865 125.465 154.063 125.302 154.25L119.072 162.545Z" fill="white"/>
<path d="M100.379 161.74C101.173 161.74 101.826 161.6 102.339 161.32C102.853 161.017 103.249 160.655 103.529 160.235C103.833 159.815 104.031 159.36 104.124 158.87C104.241 158.357 104.299 157.89 104.299 157.47C104.299 157.05 104.241 156.595 104.124 156.105C104.031 155.592 103.833 155.125 103.529 154.705C103.249 154.285 102.853 153.935 102.339 153.655C101.826 153.352 101.173 153.2 100.379 153.2H86.2395C85.4228 153.2 84.7578 153.352 84.2445 153.655C83.7545 153.935 83.3578 154.285 83.0545 154.705C82.7745 155.125 82.5761 155.592 82.4594 156.105C82.3661 156.595 82.3195 157.05 82.3195 157.47C82.3195 157.89 82.3661 158.357 82.4594 158.87C82.5761 159.36 82.7745 159.815 83.0545 160.235C83.3578 160.655 83.7545 161.017 84.2445 161.32C84.7578 161.6 85.4228 161.74 86.2395 161.74H100.379ZM107.554 157.47C107.554 158.357 107.403 159.255 107.099 160.165C106.819 161.052 106.399 161.868 105.839 162.615C105.279 163.338 104.603 163.933 103.809 164.4C103.016 164.867 102.118 165.1 101.114 165.1H85.1545C84.1978 165.053 83.3461 164.797 82.5995 164.33C81.8528 163.84 81.2111 163.233 80.6745 162.51C80.1611 161.787 79.7645 160.982 79.4845 160.095C79.2045 159.208 79.0645 158.333 79.0645 157.47C79.0645 156.583 79.2045 155.697 79.4845 154.81C79.7878 153.9 80.2195 153.083 80.7795 152.36C81.3395 151.613 82.0161 151.007 82.8095 150.54C83.6028 150.073 84.5011 149.84 85.5045 149.84H101.464C102.421 149.887 103.273 150.155 104.019 150.645C104.766 151.112 105.396 151.707 105.909 152.43C106.446 153.153 106.854 153.958 107.134 154.845C107.414 155.732 107.554 156.607 107.554 157.47Z" fill="white"/>
<path d="M51.5602 153.2V155.79H70.9852C71.3352 155.79 71.6385 155.673 71.8952 155.44C72.1752 155.183 72.3152 154.868 72.3152 154.495C72.3152 154.145 72.1752 153.842 71.8952 153.585C71.6385 153.328 71.3352 153.2 70.9852 153.2H51.5602ZM70.8452 149.84C71.4985 149.84 72.1052 149.968 72.6652 150.225C73.2485 150.458 73.7502 150.785 74.1702 151.205C74.6135 151.625 74.9519 152.115 75.1852 152.675C75.4419 153.235 75.5702 153.842 75.5702 154.495C75.5702 155.148 75.4419 155.755 75.1852 156.315C74.9519 156.875 74.6135 157.365 74.1702 157.785C73.7502 158.205 73.2485 158.543 72.6652 158.8C72.1052 159.033 71.4985 159.15 70.8452 159.15H51.5602V163.42C51.5602 163.887 51.3852 164.283 51.0352 164.61C50.7085 164.937 50.3235 165.1 49.8802 165.1C49.4135 165.1 49.0169 164.937 48.6902 164.61C48.3635 164.283 48.2002 163.887 48.2002 163.42V151.52C48.2002 151.053 48.3635 150.657 48.6902 150.33C49.0169 150.003 49.4135 149.84 49.8802 149.84H70.8452Z" fill="white"/>
<path d="M41.3418 157.47C41.3418 157.05 41.2835 156.595 41.1668 156.105C41.0735 155.592 40.8752 155.125 40.5718 154.705C40.2918 154.285 39.8952 153.935 39.3818 153.655C38.8685 153.352 38.2152 153.2 37.4218 153.2H24.7868C23.9702 153.2 23.3052 153.352 22.7918 153.655C22.3018 153.935 21.9052 154.285 21.6018 154.705C21.3218 155.125 21.1235 155.592 21.0068 156.105C20.9135 156.595 20.8668 157.05 20.8668 157.47V163.42C20.8668 163.887 20.7035 164.283 20.3768 164.61C20.0502 164.937 19.6535 165.1 19.1868 165.1C18.7202 165.1 18.3235 164.937 17.9968 164.61C17.6702 164.283 17.5068 163.887 17.5068 163.42V157.47C17.5068 156.583 17.6468 155.697 17.9268 154.81C18.2302 153.9 18.6618 153.083 19.2218 152.36C19.7818 151.613 20.4585 151.007 21.2518 150.54C22.0452 150.073 22.9435 149.84 23.9468 149.84H38.6118C39.5685 149.887 40.4202 150.155 41.1668 150.645C41.9135 151.112 42.5435 151.707 43.0568 152.43C43.5935 153.153 44.0018 153.958 44.2818 154.845C44.5618 155.732 44.7018 156.607 44.7018 157.47V163.42C44.7018 163.887 44.5385 164.283 44.2118 164.61C43.8852 164.937 43.4885 165.1 43.0218 165.1C42.5552 165.1 42.1585 164.937 41.8318 164.61C41.5052 164.283 41.3418 163.887 41.3418 163.42V157.47Z" fill="white"/>
<path d="M232.64 90.24H242.58L238.975 85.41C238.812 85.2233 238.602 85.025 238.345 84.815C238.112 84.5817 237.867 84.465 237.61 84.465C237.353 84.465 237.097 84.5817 236.84 84.815C236.607 85.025 236.42 85.2233 236.28 85.41L232.64 90.24ZM245.1 93.6H230.085L228.055 96.33C227.705 96.75 227.273 96.96 226.76 96.96C226.293 96.96 225.897 96.7967 225.57 96.47C225.243 96.1433 225.08 95.7467 225.08 95.28C225.08 94.86 225.197 94.5217 225.43 94.265L233.935 82.82C234.332 82.2833 234.857 81.8517 235.51 81.525C236.163 81.175 236.863 81 237.61 81C238.31 81 238.975 81.1517 239.605 81.455C240.235 81.7583 240.748 82.1783 241.145 82.715L249.65 94.09C249.79 94.2533 249.907 94.44 250 94.65C250.093 94.8367 250.14 95.0467 250.14 95.28C250.14 95.7467 249.977 96.1433 249.65 96.47C249.323 96.7967 248.927 96.96 248.46 96.96C247.9 96.96 247.457 96.7383 247.13 96.295L245.1 93.6Z" fill="white"/>
<path d="M197.541 87.6502H205.626C206.839 87.6502 208.029 87.4985 209.196 87.1952C210.362 86.8685 211.494 86.4485 212.591 85.9352C213.711 85.4219 214.772 84.8385 215.776 84.1852C216.802 83.5319 217.782 82.8669 218.716 82.1902C219.112 81.8635 219.509 81.7002 219.906 81.7002C220.372 81.7002 220.769 81.8635 221.096 82.1902C221.422 82.5169 221.586 82.9135 221.586 83.3802C221.586 83.7069 221.492 83.9985 221.306 84.2552C221.119 84.4885 220.897 84.6985 220.641 84.8852C220.034 85.3519 219.451 85.7952 218.891 86.2152C218.331 86.6119 217.771 86.9852 217.211 87.3352C216.651 87.6852 216.067 88.0235 215.461 88.3502C214.877 88.6769 214.247 89.0035 213.571 89.3302C214.247 89.6569 214.877 89.9835 215.461 90.3102C216.067 90.6369 216.651 90.9752 217.211 91.3252C217.771 91.6752 218.331 92.0602 218.891 92.4802C219.451 92.8769 220.034 93.3085 220.641 93.7752C220.897 93.9619 221.119 94.1835 221.306 94.4402C221.492 94.6735 221.586 94.9535 221.586 95.2802C221.586 95.7469 221.422 96.1435 221.096 96.4702C220.769 96.7969 220.372 96.9602 219.906 96.9602C219.509 96.9602 219.112 96.7969 218.716 96.4702C217.759 95.7702 216.767 95.0935 215.741 94.4402C214.737 93.7869 213.687 93.2035 212.591 92.6902C211.494 92.1769 210.362 91.7685 209.196 91.4652C208.029 91.1619 206.839 91.0102 205.626 91.0102H197.541V95.2802C197.541 95.7469 197.377 96.1435 197.051 96.4702C196.724 96.7969 196.339 96.9602 195.896 96.9602C195.429 96.9602 195.032 96.7969 194.706 96.4702C194.379 96.1435 194.216 95.7469 194.216 95.2802V83.3802C194.216 82.9135 194.379 82.5169 194.706 82.1902C195.032 81.8635 195.417 81.7002 195.861 81.7002C196.327 81.7002 196.724 81.8635 197.051 82.1902C197.377 82.5169 197.541 82.9135 197.541 83.3802V87.6502Z" fill="white"/>
<path d="M166.882 90.2752C166.882 91.1152 166.929 91.7569 167.022 92.2002C167.116 92.6435 167.337 92.8652 167.687 92.8652C167.874 92.8652 168.107 92.7952 168.387 92.6552C168.691 92.4919 169.064 92.2819 169.507 92.0252L185.537 82.2252C185.794 82.0619 186.074 81.9335 186.377 81.8402C186.704 81.7469 187.031 81.7002 187.357 81.7002C188.314 81.7002 189.107 82.0269 189.737 82.6802C190.391 83.3335 190.717 84.1385 190.717 85.0952V95.2802C190.717 95.7469 190.554 96.1435 190.227 96.4702C189.901 96.7969 189.504 96.9602 189.037 96.9602C188.571 96.9602 188.174 96.7969 187.847 96.4702C187.521 96.1435 187.357 95.7469 187.357 95.2802V88.3852C187.357 87.5452 187.311 86.9035 187.217 86.4602C187.124 86.0169 186.902 85.7952 186.552 85.7952C186.366 85.7952 186.121 85.8769 185.817 86.0402C185.537 86.1802 185.176 86.3785 184.732 86.6352L168.702 96.4352C168.446 96.5985 168.154 96.7269 167.827 96.8202C167.524 96.9135 167.209 96.9602 166.882 96.9602C165.926 96.9602 165.121 96.6335 164.467 95.9802C163.837 95.3269 163.522 94.5219 163.522 93.5652V83.3802C163.522 82.9135 163.686 82.5169 164.012 82.1902C164.339 81.8635 164.736 81.7002 165.202 81.7002C165.669 81.7002 166.066 81.8635 166.392 82.1902C166.719 82.5169 166.882 82.9135 166.882 83.3802V90.2752Z" fill="white"/>
<path d="M142.851 95.5952C142.851 94.9885 143.061 94.4752 143.481 94.0552C143.901 93.6352 144.414 93.4252 145.021 93.4252C145.628 93.4252 146.141 93.6352 146.561 94.0552C146.981 94.4752 147.191 94.9885 147.191 95.5952C147.191 96.2019 146.981 96.7152 146.561 97.1352C146.141 97.5552 145.628 97.7652 145.021 97.7652C144.414 97.7652 143.901 97.5552 143.481 97.1352C143.061 96.7152 142.851 96.2019 142.851 95.5952ZM137.426 94.4052H138.301C138.768 94.4052 139.164 94.5685 139.491 94.8952C139.818 95.2219 139.981 95.6185 139.981 96.0852C139.981 96.5519 139.818 96.9485 139.491 97.2752C139.164 97.6019 138.768 97.7652 138.301 97.7652H130.846C130.426 97.7185 130.064 97.5435 129.761 97.2402C129.458 96.9135 129.306 96.5285 129.306 96.0852C129.306 95.6185 129.469 95.2219 129.796 94.8952C130.123 94.5685 130.519 94.4052 130.986 94.4052H133.261L141.486 83.4152C141.906 82.8785 142.419 82.4585 143.026 82.1552C143.656 81.8519 144.321 81.7002 145.021 81.7002C145.768 81.7002 146.456 81.8752 147.086 82.2252C147.739 82.5519 148.276 82.9835 148.696 83.5202L156.781 94.4052H158.881C159.348 94.4052 159.744 94.5685 160.071 94.8952C160.398 95.2219 160.561 95.6185 160.561 96.0852C160.561 96.5519 160.398 96.9485 160.071 97.2752C159.744 97.6019 159.348 97.7652 158.881 97.7652H151.426C151.006 97.7185 150.644 97.5435 150.341 97.2402C150.038 96.9135 149.886 96.5285 149.886 96.0852C149.886 95.6185 150.049 95.2219 150.376 94.8952C150.703 94.5685 151.099 94.4052 151.566 94.4052H152.616L146.351 86.1102C146.211 85.9235 146.013 85.7252 145.756 85.5152C145.523 85.2819 145.278 85.1652 145.021 85.1652C144.764 85.1652 144.508 85.2819 144.251 85.5152C144.018 85.7252 143.819 85.9235 143.656 86.1102L137.426 94.4052Z" fill="white"/>
<path d="M118.734 93.6002C119.527 93.6002 120.181 93.4602 120.694 93.1802C121.207 92.8769 121.604 92.5152 121.884 92.0952C122.187 91.6752 122.386 91.2202 122.479 90.7302C122.596 90.2169 122.654 89.7502 122.654 89.3302C122.654 88.9102 122.596 88.4552 122.479 87.9652C122.386 87.4519 122.187 86.9852 121.884 86.5652C121.604 86.1452 121.207 85.7952 120.694 85.5152C120.181 85.2119 119.527 85.0602 118.734 85.0602H104.594C103.777 85.0602 103.112 85.2119 102.599 85.5152C102.109 85.7952 101.712 86.1452 101.409 86.5652C101.129 86.9852 100.931 87.4519 100.814 87.9652C100.721 88.4552 100.674 88.9102 100.674 89.3302C100.674 89.7502 100.721 90.2169 100.814 90.7302C100.931 91.2202 101.129 91.6752 101.409 92.0952C101.712 92.5152 102.109 92.8769 102.599 93.1802C103.112 93.4602 103.777 93.6002 104.594 93.6002H118.734ZM125.909 89.3302C125.909 90.2169 125.757 91.1152 125.454 92.0252C125.174 92.9119 124.754 93.7285 124.194 94.4752C123.634 95.1985 122.957 95.7935 122.164 96.2602C121.371 96.7269 120.472 96.9602 119.469 96.9602H103.509C102.552 96.9135 101.701 96.6569 100.954 96.1902C100.207 95.7002 99.5656 95.0935 99.0289 94.3702C98.5156 93.6469 98.1189 92.8419 97.8389 91.9552C97.5589 91.0685 97.4189 90.1935 97.4189 89.3302C97.4189 88.4435 97.5589 87.5569 97.8389 86.6702C98.1423 85.7602 98.5739 84.9435 99.1339 84.2202C99.6939 83.4735 100.371 82.8669 101.164 82.4002C101.957 81.9335 102.856 81.7002 103.859 81.7002H119.819C120.776 81.7469 121.627 82.0152 122.374 82.5052C123.121 82.9719 123.751 83.5669 124.264 84.2902C124.801 85.0135 125.209 85.8185 125.489 86.7052C125.769 87.5919 125.909 88.4669 125.909 89.3302Z" fill="white"/>
<path d="M92.2463 81.7002C92.713 81.7002 93.1097 81.8635 93.4363 82.1902C93.763 82.5169 93.9263 82.9135 93.9263 83.3802C93.9263 83.8235 93.7747 84.2085 93.4713 84.5352C93.168 84.8385 92.8063 85.0135 92.3863 85.0602H85.3513C84.6513 85.1069 84.068 85.2819 83.6013 85.5852C83.158 85.8652 82.808 86.2152 82.5513 86.6352C82.2947 87.0552 82.1197 87.5102 82.0263 88.0002C81.933 88.4902 81.8863 88.9335 81.8863 89.3302V95.2802C81.8863 95.7469 81.723 96.1435 81.3963 96.4702C81.0697 96.7969 80.673 96.9602 80.2063 96.9602C79.7397 96.9602 79.343 96.7969 79.0163 96.4702C78.6897 96.1435 78.5263 95.7469 78.5263 95.2802V89.3302C78.5263 88.6069 78.6197 87.8835 78.8063 87.1602C78.993 86.4135 79.273 85.7135 79.6463 85.0602H68.1663C67.6997 85.0602 67.303 84.8969 66.9763 84.5702C66.6497 84.2435 66.4863 83.8469 66.4863 83.3802C66.4863 82.9135 66.6497 82.5169 66.9763 82.1902C67.303 81.8635 67.6997 81.7002 68.1663 81.7002H92.2463Z" fill="white"/>
<path d="M34.8018 83.3802C34.8018 82.9135 34.9651 82.5169 35.2918 82.1902C35.6184 81.8635 36.0151 81.7002 36.4818 81.7002H61.2968C61.7634 81.7002 62.1601 81.8635 62.4868 82.1902C62.8134 82.5169 62.9768 82.9135 62.9768 83.3802C62.9768 83.8469 62.8134 84.2435 62.4868 84.5702C62.1601 84.8969 61.7634 85.0602 61.2968 85.0602H36.4818C36.0151 85.0602 35.6184 84.8969 35.2918 84.5702C34.9651 84.2435 34.8018 83.8469 34.8018 83.3802ZM39.0718 96.9602C38.5584 96.9602 38.0451 96.8552 37.5318 96.6452C37.0184 96.4119 36.5634 96.0969 36.1668 95.7002C35.7701 95.3035 35.4434 94.8252 35.1868 94.2652C34.9301 93.7052 34.8018 93.0752 34.8018 92.3752V89.2252C34.8018 88.5952 34.9768 88.1752 35.3268 87.9652C35.7001 87.7552 36.2718 87.6502 37.0418 87.6502H60.5268C60.9934 87.6502 61.3901 87.8135 61.7168 88.1402C62.0434 88.4669 62.2068 88.8635 62.2068 89.3302C62.2068 89.7969 62.0434 90.1935 61.7168 90.5202C61.3901 90.8469 60.9934 91.0102 60.5268 91.0102H38.1618V92.7252C38.1618 92.9585 38.2551 93.1685 38.4418 93.3552C38.6518 93.5185 38.9201 93.6002 39.2468 93.6002H61.2968C61.7634 93.6002 62.1601 93.7635 62.4868 94.0902C62.8134 94.4169 62.9768 94.8135 62.9768 95.2802C62.9768 95.7469 62.8134 96.1435 62.4868 96.4702C62.1601 96.7969 61.7634 96.9602 61.2968 96.9602H39.0718Z" fill="white"/>
<path d="M31.29 95.2802C31.29 95.7469 31.1267 96.1435 30.8 96.4702C30.4733 96.7969 30.0767 96.9602 29.61 96.9602C29.1433 96.9602 28.7467 96.7969 28.42 96.4702C28.0933 96.1435 27.93 95.7469 27.93 95.2802V87.6502C27.93 86.6935 27.8717 86.2152 27.755 86.2152C27.6617 86.2152 27.335 86.5302 26.775 87.1602L19.075 95.9102C18.7717 96.2602 18.3983 96.5285 17.955 96.7152C17.5117 96.8785 17.0333 96.9602 16.52 96.9602C16.0067 96.9602 15.5283 96.8785 15.085 96.7152C14.6417 96.5285 14.2683 96.2602 13.965 95.9102L6.265 87.1602C5.72833 86.5302 5.40167 86.2152 5.285 86.2152C5.16833 86.2152 5.11 86.6935 5.11 87.6502V95.2802C5.11 95.7469 4.94667 96.1435 4.62 96.4702C4.29333 96.7969 3.89667 96.9602 3.43 96.9602C2.96333 96.9602 2.56667 96.7969 2.24 96.4702C1.91333 96.1435 1.75 95.7469 1.75 95.2802V85.0602C1.75 84.1269 2.01833 83.3335 2.555 82.6802C3.09167 82.0269 3.82667 81.7002 4.76 81.7002C5.32 81.7002 5.82167 81.8402 6.265 82.1202C6.70833 82.4002 7.11667 82.7385 7.49 83.1352L15.54 92.3052C15.6567 92.4219 15.7967 92.5502 15.96 92.6902C16.1467 92.8069 16.3333 92.8652 16.52 92.8652C16.7067 92.8652 16.8817 92.8069 17.045 92.6902C17.2317 92.5502 17.3833 92.4219 17.5 92.3052L25.515 83.1352H25.55C25.8767 82.6919 26.2733 82.3419 26.74 82.0852C27.2067 81.8285 27.72 81.7002 28.28 81.7002C29.2133 81.7002 29.9483 82.0269 30.485 82.6802C31.0217 83.3335 31.29 84.1269 31.29 85.0602V95.2802Z" fill="white"/>
<path d="M304.138 27.7655C304.138 27.4389 304.254 27.1239 304.488 26.8205C305.328 25.5839 306.273 24.5455 307.323 23.7055C308.396 22.8422 309.598 22.1539 310.928 21.6405C312.281 21.1039 313.786 20.7189 315.443 20.4855C317.099 20.2522 318.954 20.1355 321.008 20.1355H328.148V18.3155C328.101 18.1055 327.984 17.9305 327.798 17.7905C327.611 17.6272 327.366 17.5455 327.063 17.5455H308.723C308.396 17.5922 308.104 17.7322 307.848 17.9655C307.614 18.1989 307.498 18.4905 307.498 18.8405C307.498 19.3072 307.334 19.7039 307.008 20.0305C306.681 20.3572 306.284 20.5205 305.818 20.5205C305.351 20.5205 304.954 20.3572 304.628 20.0305C304.301 19.7039 304.138 19.3072 304.138 18.8405C304.138 18.1872 304.266 17.5805 304.523 17.0205C304.779 16.4605 305.129 15.9705 305.573 15.5505C306.016 15.1305 306.529 14.8039 307.113 14.5705C307.696 14.3139 308.314 14.1855 308.968 14.1855H327.238C327.751 14.1855 328.264 14.3022 328.778 14.5355C329.291 14.7455 329.746 15.0489 330.143 15.4455C330.539 15.8422 330.866 16.3205 331.123 16.8805C331.379 17.4405 331.508 18.0705 331.508 18.7705V27.7655C331.508 28.2322 331.344 28.6289 331.018 28.9555C330.691 29.2822 330.294 29.4455 329.828 29.4455C329.384 29.4455 328.988 29.2822 328.638 28.9555C328.311 28.6289 328.148 28.2322 328.148 27.7655V23.4955H321.008C319.584 23.4955 318.243 23.5422 316.983 23.6355C315.746 23.7055 314.568 23.9155 313.448 24.2655C312.328 24.6155 311.254 25.1289 310.228 25.8055C309.224 26.4822 308.244 27.4155 307.288 28.6055C307.218 28.6989 307.113 28.8155 306.973 28.9555C306.809 29.0955 306.634 29.2122 306.448 29.3055C306.261 29.3989 306.051 29.4455 305.818 29.4455C305.351 29.4455 304.954 29.2822 304.628 28.9555C304.301 28.6289 304.138 28.2322 304.138 27.7655Z" fill="white"/>
<path d="M283.123 22.7254H293.063L289.458 17.8954C289.295 17.7087 289.085 17.5104 288.828 17.3004C288.595 17.067 288.35 16.9504 288.093 16.9504C287.837 16.9504 287.58 17.067 287.323 17.3004C287.09 17.5104 286.903 17.7087 286.763 17.8954L283.123 22.7254ZM295.583 26.0854H280.568L278.538 28.8154C278.188 29.2354 277.757 29.4454 277.243 29.4454C276.777 29.4454 276.38 29.282 276.053 28.9554C275.727 28.6287 275.563 28.232 275.563 27.7654C275.563 27.3454 275.68 27.007 275.913 26.7504L284.418 15.3054C284.815 14.7687 285.34 14.337 285.993 14.0104C286.647 13.6604 287.347 13.4854 288.093 13.4854C288.793 13.4854 289.458 13.637 290.088 13.9404C290.718 14.2437 291.232 14.6637 291.628 15.2004L300.133 26.5754C300.273 26.7387 300.39 26.9254 300.483 27.1354C300.577 27.322 300.623 27.532 300.623 27.7654C300.623 28.232 300.46 28.6287 300.133 28.9554C299.807 29.282 299.41 29.4454 298.943 29.4454C298.383 29.4454 297.94 29.2237 297.613 28.7804L295.583 26.0854Z" fill="white"/>
<path d="M272.07 27.7655C272.07 28.2322 271.907 28.6289 271.58 28.9555C271.253 29.2822 270.857 29.4455 270.39 29.4455C269.923 29.4455 269.527 29.2822 269.2 28.9555C268.873 28.6289 268.71 28.2322 268.71 27.7655V23.4955H248.025V27.7655C248.025 28.2322 247.862 28.6289 247.535 28.9555C247.208 29.2822 246.812 29.4455 246.345 29.4455C245.878 29.4455 245.482 29.2822 245.155 28.9555C244.828 28.6289 244.665 28.2322 244.665 27.7655V15.8655C244.665 15.3989 244.828 15.0022 245.155 14.6755C245.482 14.3489 245.878 14.1855 246.345 14.1855C246.812 14.1855 247.208 14.3489 247.535 14.6755C247.862 15.0022 248.025 15.3989 248.025 15.8655V20.1355H268.71V15.8655C268.71 15.3989 268.873 15.0022 269.2 14.6755C269.527 14.3489 269.923 14.1855 270.39 14.1855C270.857 14.1855 271.253 14.3489 271.58 14.6755C271.907 15.0022 272.07 15.3989 272.07 15.8655V27.7655Z" fill="white"/>
<path d="M236.586 26.0855C236.936 26.0855 237.239 25.9572 237.496 25.7005C237.776 25.4439 237.916 25.1405 237.916 24.7905C237.916 24.4172 237.776 24.1139 237.496 23.8805C237.239 23.6239 236.936 23.4955 236.586 23.4955H217.161V26.0855H236.586ZM215.481 29.4455C215.014 29.4455 214.617 29.2822 214.291 28.9555C213.964 28.6289 213.801 28.2322 213.801 27.7655V15.8655C213.801 15.3989 213.964 15.0022 214.291 14.6755C214.617 14.3489 215.014 14.1855 215.481 14.1855C215.924 14.1855 216.309 14.3489 216.636 14.6755C216.986 15.0022 217.161 15.3989 217.161 15.8655V20.1355H236.446C237.099 20.1355 237.706 20.2639 238.266 20.5205C238.849 20.7539 239.351 21.0805 239.771 21.5005C240.214 21.9205 240.552 22.4105 240.786 22.9705C241.042 23.5305 241.171 24.1372 241.171 24.7905C241.171 25.4439 241.042 26.0505 240.786 26.6105C240.552 27.1705 240.214 27.6605 239.771 28.0805C239.351 28.5005 238.849 28.8389 238.266 29.0955C237.706 29.3289 237.099 29.4455 236.446 29.4455H215.481Z" fill="white"/>
<path d="M188.202 28.8154C187.852 29.2354 187.42 29.4454 186.907 29.4454C186.44 29.4454 186.043 29.282 185.717 28.9554C185.39 28.6287 185.227 28.232 185.227 27.7654C185.227 27.3454 185.343 27.007 185.577 26.7504L194.082 15.3054C194.478 14.7687 195.003 14.337 195.657 14.0104C196.31 13.6604 197.01 13.4854 197.757 13.4854C198.457 13.4854 199.122 13.637 199.752 13.9404C200.382 14.2437 200.895 14.6637 201.292 15.2004L209.797 26.5754C209.937 26.7387 210.053 26.9254 210.147 27.1354C210.24 27.322 210.287 27.532 210.287 27.7654C210.287 28.232 210.123 28.6287 209.797 28.9554C209.47 29.282 209.073 29.4454 208.607 29.4454C208.047 29.4454 207.603 29.2237 207.277 28.7804L199.122 17.8954C198.958 17.7087 198.748 17.5104 198.492 17.3004C198.258 17.067 198.013 16.9504 197.757 16.9504C197.5 16.9504 197.243 17.067 196.987 17.3004C196.753 17.5104 196.567 17.7087 196.427 17.8954L188.202 28.8154Z" fill="white"/>
<path d="M164.212 22.7254H174.152L170.547 17.8954C170.384 17.7087 170.174 17.5104 169.917 17.3004C169.684 17.067 169.439 16.9504 169.182 16.9504C168.926 16.9504 168.669 17.067 168.412 17.3004C168.179 17.5104 167.992 17.7087 167.852 17.8954L164.212 22.7254ZM176.672 26.0854H161.657L159.627 28.8154C159.277 29.2354 158.846 29.4454 158.332 29.4454C157.866 29.4454 157.469 29.282 157.142 28.9554C156.816 28.6287 156.652 28.232 156.652 27.7654C156.652 27.3454 156.769 27.007 157.002 26.7504L165.507 15.3054C165.904 14.7687 166.429 14.337 167.082 14.0104C167.736 13.6604 168.436 13.4854 169.182 13.4854C169.882 13.4854 170.547 13.637 171.177 13.9404C171.807 14.2437 172.321 14.6637 172.717 15.2004L181.222 26.5754C181.362 26.7387 181.479 26.9254 181.572 27.1354C181.666 27.322 181.712 27.532 181.712 27.7654C181.712 28.232 181.549 28.6287 181.222 28.9554C180.896 29.282 180.499 29.4454 180.032 29.4454C179.472 29.4454 179.029 29.2237 178.702 28.7804L176.672 26.0854Z" fill="white"/>
<path d="M129.113 20.1355H137.198C138.411 20.1355 139.601 19.9839 140.768 19.6805C141.935 19.3539 143.066 18.9339 144.163 18.4205C145.283 17.9072 146.345 17.3239 147.348 16.6705C148.375 16.0172 149.355 15.3522 150.288 14.6755C150.685 14.3489 151.081 14.1855 151.478 14.1855C151.945 14.1855 152.341 14.3489 152.668 14.6755C152.995 15.0022 153.158 15.3989 153.158 15.8655C153.158 16.1922 153.065 16.4839 152.878 16.7405C152.691 16.9739 152.47 17.1839 152.213 17.3705C151.606 17.8372 151.023 18.2805 150.463 18.7005C149.903 19.0972 149.343 19.4705 148.783 19.8205C148.223 20.1705 147.64 20.5089 147.033 20.8355C146.45 21.1622 145.82 21.4889 145.143 21.8155C145.82 22.1422 146.45 22.4689 147.033 22.7955C147.64 23.1222 148.223 23.4605 148.783 23.8105C149.343 24.1605 149.903 24.5455 150.463 24.9655C151.023 25.3622 151.606 25.7939 152.213 26.2605C152.47 26.4472 152.691 26.6689 152.878 26.9255C153.065 27.1589 153.158 27.4389 153.158 27.7655C153.158 28.2322 152.995 28.6289 152.668 28.9555C152.341 29.2822 151.945 29.4455 151.478 29.4455C151.081 29.4455 150.685 29.2822 150.288 28.9555C149.331 28.2555 148.34 27.5789 147.313 26.9255C146.31 26.2722 145.26 25.6889 144.163 25.1755C143.066 24.6622 141.935 24.2539 140.768 23.9505C139.601 23.6472 138.411 23.4955 137.198 23.4955H129.113V27.7655C129.113 28.2322 128.95 28.6289 128.623 28.9555C128.296 29.2822 127.911 29.4455 127.468 29.4455C127.001 29.4455 126.605 29.2822 126.278 28.9555C125.951 28.6289 125.788 28.2322 125.788 27.7655V15.8655C125.788 15.3989 125.951 15.0022 126.278 14.6755C126.605 14.3489 126.99 14.1855 127.433 14.1855C127.9 14.1855 128.296 14.3489 128.623 14.6755C128.95 15.0022 129.113 15.3989 129.113 15.8655V20.1355Z" fill="white"/>
<path d="M98.4547 22.7605C98.4547 23.6005 98.5014 24.2422 98.5947 24.6855C98.6881 25.1289 98.9097 25.3505 99.2597 25.3505C99.4464 25.3505 99.6797 25.2805 99.9597 25.1405C100.263 24.9772 100.636 24.7672 101.08 24.5105L117.11 14.7105C117.366 14.5472 117.646 14.4189 117.95 14.3255C118.276 14.2322 118.603 14.1855 118.93 14.1855C119.886 14.1855 120.68 14.5122 121.31 15.1655C121.963 15.8189 122.29 16.6239 122.29 17.5805V27.7655C122.29 28.2322 122.126 28.6289 121.8 28.9555C121.473 29.2822 121.076 29.4455 120.61 29.4455C120.143 29.4455 119.746 29.2822 119.42 28.9555C119.093 28.6289 118.93 28.2322 118.93 27.7655V20.8705C118.93 20.0305 118.883 19.3889 118.79 18.9455C118.696 18.5022 118.475 18.2805 118.125 18.2805C117.938 18.2805 117.693 18.3622 117.39 18.5255C117.11 18.6655 116.748 18.8639 116.305 19.1205L100.275 28.9205C100.018 29.0839 99.7264 29.2122 99.3997 29.3055C99.0964 29.3989 98.7814 29.4455 98.4547 29.4455C97.4981 29.4455 96.6931 29.1189 96.0397 28.4655C95.4097 27.8122 95.0947 27.0072 95.0947 26.0505V15.8655C95.0947 15.3989 95.2581 15.0022 95.5847 14.6755C95.9114 14.3489 96.3081 14.1855 96.7747 14.1855C97.2414 14.1855 97.6381 14.3489 97.9647 14.6755C98.2914 15.0022 98.4547 15.3989 98.4547 15.8655V22.7605Z" fill="white"/>
<path d="M91.6013 27.7655C91.6013 28.2322 91.438 28.6289 91.1113 28.9555C90.7846 29.2822 90.388 29.4455 89.9213 29.4455C89.4546 29.4455 89.058 29.2822 88.7313 28.9555C88.4046 28.6289 88.2413 28.2322 88.2413 27.7655V23.4955H67.5563V27.7655C67.5563 28.2322 67.393 28.6289 67.0663 28.9555C66.7396 29.2822 66.343 29.4455 65.8763 29.4455C65.4096 29.4455 65.013 29.2822 64.6863 28.9555C64.3596 28.6289 64.1963 28.2322 64.1963 27.7655V15.8655C64.1963 15.3989 64.3596 15.0022 64.6863 14.6755C65.013 14.3489 65.4096 14.1855 65.8763 14.1855C66.343 14.1855 66.7396 14.3489 67.0663 14.6755C67.393 15.0022 67.5563 15.3989 67.5563 15.8655V20.1355H88.2413V15.8655C88.2413 15.3989 88.4046 15.0022 88.7313 14.6755C89.058 14.3489 89.4546 14.1855 89.9213 14.1855C90.388 14.1855 90.7846 14.3489 91.1113 14.6755C91.438 15.0022 91.6013 15.3989 91.6013 15.8655V27.7655Z" fill="white"/>
<path d="M57.3434 22.0601H38.0934C37.4401 22.0601 36.8218 21.9434 36.2384 21.7101C35.6551 21.4534 35.1418 21.1151 34.6984 20.6951C34.2551 20.2751 33.9051 19.7851 33.6484 19.2251C33.3918 18.6651 33.2634 18.0584 33.2634 17.4051V15.7601C33.2634 15.2934 33.4268 14.8967 33.7534 14.5701C34.0801 14.2434 34.4768 14.0801 34.9434 14.0801C35.4101 14.0801 35.8068 14.2434 36.1334 14.5701C36.4601 14.8967 36.6234 15.2934 36.6234 15.7601V17.4051C36.6234 17.7784 36.7518 18.0934 37.0084 18.3501C37.2884 18.5834 37.6034 18.7001 37.9534 18.7001H57.3434V15.7601C57.3434 15.2934 57.5068 14.8967 57.8334 14.5701C58.1601 14.2434 58.5568 14.0801 59.0234 14.0801C59.4901 14.0801 59.8868 14.2434 60.2134 14.5701C60.5401 14.8967 60.7034 15.2934 60.7034 15.7601V22.2001C60.7034 22.3167 60.6918 22.4334 60.6684 22.5501C60.5984 23.2034 60.4584 23.8567 60.2484 24.5101C59.9451 25.3967 59.5134 26.2017 58.9534 26.9251C58.3701 27.6717 57.6701 28.2784 56.8534 28.7451C56.0368 29.2117 55.1268 29.4451 54.1234 29.4451H38.3034C37.5101 29.4451 36.7518 29.2817 36.0284 28.9551C35.3284 28.6284 34.7101 28.1851 34.1734 27.6251C33.6368 27.0884 33.2168 26.4701 32.9134 25.7701C32.6801 24.6734 32.7384 23.9617 33.0884 23.6351C33.4151 23.3084 33.8001 23.1451 34.2434 23.1451C34.7101 23.1451 35.1068 23.3084 35.4334 23.6351C35.7601 23.9617 35.9818 24.3701 36.0984 24.8601C36.2151 25.3267 36.8218 25.6651 37.9184 25.8751C38.3618 26.0151 38.8284 26.0851 39.3184 26.0851H53.4234C54.1934 26.0851 54.8234 25.9567 55.3134 25.7001C55.8268 25.4434 56.2351 25.1167 56.5384 24.7201C56.8184 24.3234 57.0168 23.8917 57.1334 23.4251C57.2734 22.9584 57.3434 22.5151 57.3434 22.0951V22.0601Z" fill="white"/>
<path d="M3.618 121.176H5.914C6.91267 121.176 7.72 121.433 8.336 121.946C8.96133 122.459 9.274 123.173 9.274 124.088C9.274 124.993 8.96133 125.707 8.336 126.23C7.72 126.743 6.91267 127 5.914 127H2.316V117.06H8.35V118.292H3.618V121.176ZM7.972 124.088C7.972 123.537 7.79467 123.117 7.44 122.828C7.08533 122.529 6.57667 122.38 5.914 122.38H3.618V125.796H5.914C6.57667 125.796 7.08533 125.647 7.44 125.348C7.79467 125.049 7.972 124.629 7.972 124.088ZM13.8523 127.14C12.835 127.14 11.9903 126.795 11.3183 126.104C10.6557 125.413 10.3243 124.545 10.3243 123.5C10.3243 122.445 10.6463 121.577 11.2903 120.896C11.9437 120.205 12.807 119.86 13.8803 119.86C14.963 119.86 15.8123 120.243 16.4283 121.008C17.0443 121.773 17.315 122.711 17.2403 123.822H11.5423C11.561 124.457 11.7943 124.989 12.2423 125.418C12.6903 125.838 13.2317 126.048 13.8663 126.048C14.8183 126.048 15.495 125.656 15.8963 124.872H17.1283C16.951 125.525 16.573 126.067 15.9943 126.496C15.4157 126.925 14.7017 127.14 13.8523 127.14ZM15.2243 121.428C14.8417 121.092 14.3797 120.924 13.8383 120.924C13.297 120.924 12.8117 121.087 12.3823 121.414C11.9623 121.741 11.701 122.226 11.5983 122.87H15.9663C15.8543 122.235 15.607 121.755 15.2243 121.428ZM22.0858 127.14C21.0311 127.14 20.1584 126.79 19.4678 126.09C18.7771 125.381 18.4318 124.517 18.4318 123.5C18.4318 122.483 18.7771 121.624 19.4678 120.924C20.1584 120.215 21.0311 119.86 22.0858 119.86C22.9538 119.86 23.7051 120.103 24.3398 120.588C24.9744 121.064 25.3991 121.689 25.6138 122.464H24.3258C24.1578 122.007 23.8778 121.643 23.4858 121.372C23.0938 121.101 22.6271 120.966 22.0858 120.966C21.3671 120.966 20.7791 121.209 20.3218 121.694C19.8738 122.179 19.6498 122.781 19.6498 123.5C19.6498 124.219 19.8738 124.821 20.3218 125.306C20.7791 125.791 21.3671 126.034 22.0858 126.034C22.6271 126.034 23.0938 125.899 23.4858 125.628C23.8778 125.357 24.1578 124.993 24.3258 124.536H25.6138C25.4084 125.311 24.9884 125.941 24.3538 126.426C23.7191 126.902 22.9631 127.14 22.0858 127.14ZM27.2082 127V120H33.2842V127H32.0802V121.106H28.4122V127H27.2082ZM35.3381 127.098C35.0207 127.098 34.8107 127.084 34.7081 127.056V125.978C34.7734 125.997 34.9227 126.006 35.1561 126.006C35.4454 126.006 35.6601 125.908 35.8001 125.712C35.9401 125.507 36.0101 125.147 36.0101 124.634V120H41.4141V127H40.2101V121.106H37.2141V124.886C37.2141 125.605 37.0414 126.155 36.6961 126.538C36.3507 126.911 35.8981 127.098 35.3381 127.098ZM46.5805 127.14C45.6098 127.14 44.7932 126.785 44.1305 126.076C43.4772 125.367 43.1505 124.508 43.1505 123.5C43.1505 122.492 43.4772 121.633 44.1305 120.924C44.7932 120.215 45.6098 119.86 46.5805 119.86C47.0938 119.86 47.5698 119.977 48.0085 120.21C48.4565 120.434 48.8018 120.723 49.0445 121.078V120H50.2485V127H49.0445V125.922C48.8018 126.277 48.4565 126.571 48.0085 126.804C47.5698 127.028 47.0938 127.14 46.5805 127.14ZM46.7625 126.034C47.4532 126.034 48.0225 125.791 48.4705 125.306C48.9185 124.821 49.1425 124.219 49.1425 123.5C49.1425 122.781 48.9185 122.179 48.4705 121.694C48.0225 121.209 47.4532 120.966 46.7625 120.966C46.0625 120.966 45.4885 121.209 45.0405 121.694C44.5925 122.179 44.3685 122.781 44.3685 123.5C44.3685 124.219 44.5925 124.821 45.0405 125.306C45.4885 125.791 46.0625 126.034 46.7625 126.034ZM53.8449 127V121.106H51.6189V120H57.3729V121.106H55.0489V127H53.8449ZM58.7492 127V120H59.9532V122.884H63.7752V120H64.9792V127H63.7752V123.976H59.9532V127H58.7492ZM70.3611 127.14C69.3065 127.14 68.4291 126.79 67.7291 126.09C67.0385 125.381 66.6931 124.517 66.6931 123.5C66.6931 122.483 67.0385 121.624 67.7291 120.924C68.4291 120.215 69.3065 119.86 70.3611 119.86C71.4065 119.86 72.2745 120.215 72.9651 120.924C73.6651 121.624 74.0151 122.483 74.0151 123.5C74.0151 124.517 73.6651 125.381 72.9651 126.09C72.2745 126.79 71.4065 127.14 70.3611 127.14ZM68.5971 125.292C69.0545 125.777 69.6425 126.02 70.3611 126.02C71.0798 126.02 71.6631 125.777 72.1111 125.292C72.5591 124.807 72.7831 124.209 72.7831 123.5C72.7831 122.791 72.5591 122.193 72.1111 121.708C71.6631 121.223 71.0798 120.98 70.3611 120.98C69.6425 120.98 69.0545 121.223 68.5971 121.708C68.1491 122.193 67.9251 122.791 67.9251 123.5C67.9251 124.209 68.1491 124.807 68.5971 125.292ZM80.1983 127H79.1203V120H80.3243V125.138L84.2723 120H85.3363V127H84.1463V121.862L80.1983 127ZM89.8502 127.14C89.1316 127.14 88.5016 126.963 87.9602 126.608C87.4282 126.253 87.0969 125.754 86.9662 125.11H88.1842C88.4176 125.782 88.9729 126.118 89.8502 126.118C90.3636 126.118 90.7509 126.011 91.0122 125.796C91.2736 125.581 91.4042 125.301 91.4042 124.956C91.4042 124.611 91.2736 124.34 91.0122 124.144C90.7602 123.948 90.3962 123.85 89.9202 123.85H89.1082V122.87H89.9202C90.3029 122.87 90.6062 122.786 90.8302 122.618C91.0636 122.45 91.1802 122.203 91.1802 121.876C91.1802 121.559 91.0589 121.311 90.8162 121.134C90.5736 120.957 90.2469 120.868 89.8362 120.868C89.0242 120.868 88.5156 121.195 88.3102 121.848H87.1202C87.2509 121.204 87.5682 120.714 88.0722 120.378C88.5762 120.033 89.1689 119.86 89.8502 119.86C90.6342 119.86 91.2456 120.047 91.6842 120.42C92.1229 120.784 92.3422 121.246 92.3422 121.806C92.3422 122.487 92.0529 122.996 91.4742 123.332C92.2396 123.677 92.6222 124.251 92.6222 125.054C92.6222 125.642 92.3796 126.137 91.8942 126.538C91.4089 126.939 90.7276 127.14 89.8502 127.14ZM100.777 120L96.9835 128.246C96.6941 128.89 96.3675 129.352 96.0035 129.632C95.6488 129.921 95.2008 130.066 94.6595 130.066C94.3141 130.066 94.0528 130.043 93.8755 129.996V128.932C94.0155 128.96 94.2441 128.974 94.5615 128.974C95.0841 128.974 95.5041 128.619 95.8215 127.91L96.3955 126.678L93.3015 120H94.6315L97.0535 125.278L99.4335 120H100.777ZM107.327 127H106.123V123.738C105.937 124.027 105.652 124.256 105.269 124.424C104.887 124.592 104.457 124.676 103.981 124.676C103.197 124.676 102.572 124.452 102.105 124.004C101.648 123.556 101.419 122.926 101.419 122.114V120H102.623V121.988C102.623 123.052 103.169 123.584 104.261 123.584C104.737 123.584 105.167 123.421 105.549 123.094C105.932 122.758 106.123 122.287 106.123 121.68V120H107.327V127ZM110.673 127H109.595V120H110.799V125.138L114.747 120H115.811V127H114.621V121.862L110.673 127ZM118.099 120H119.205L121.795 123.444L124.399 120H125.505V127H124.301V121.946L121.795 125.25L119.303 121.946V127H118.099V120ZM132.233 127H131.155V120H132.359V125.138L136.307 120H137.371V127H136.181V121.862L132.233 127ZM143.036 127V120H149.112V127H147.908V121.106H144.24V127H143.036ZM152.58 129.926H151.376V120H152.58V121.078C152.823 120.723 153.164 120.434 153.602 120.21C154.05 119.977 154.531 119.86 155.044 119.86C156.015 119.86 156.827 120.215 157.48 120.924C158.143 121.633 158.474 122.492 158.474 123.5C158.474 124.508 158.143 125.367 157.48 126.076C156.827 126.785 156.015 127.14 155.044 127.14C154.531 127.14 154.05 127.028 153.602 126.804C153.164 126.571 152.823 126.277 152.58 125.922V129.926ZM153.154 125.306C153.602 125.791 154.172 126.034 154.862 126.034C155.553 126.034 156.122 125.791 156.57 125.306C157.018 124.821 157.242 124.219 157.242 123.5C157.242 122.781 157.018 122.179 156.57 121.694C156.122 121.209 155.553 120.966 154.862 120.966C154.172 120.966 153.602 121.209 153.154 121.694C152.706 122.179 152.482 122.781 152.482 123.5C152.482 124.219 152.706 124.821 153.154 125.306ZM163.19 127.14C162.173 127.14 161.328 126.795 160.656 126.104C159.994 125.413 159.662 124.545 159.662 123.5C159.662 122.445 159.984 121.577 160.628 120.896C161.282 120.205 162.145 119.86 163.218 119.86C164.301 119.86 165.15 120.243 165.766 121.008C166.382 121.773 166.653 122.711 166.578 123.822H160.88C160.899 124.457 161.132 124.989 161.58 125.418C162.028 125.838 162.57 126.048 163.204 126.048C164.156 126.048 164.833 125.656 165.234 124.872H166.466C166.289 125.525 165.911 126.067 165.332 126.496C164.754 126.925 164.04 127.14 163.19 127.14ZM164.562 121.428C164.18 121.092 163.718 120.924 163.176 120.924C162.635 120.924 162.15 121.087 161.72 121.414C161.3 121.741 161.039 122.226 160.936 122.87H165.304C165.192 122.235 164.945 121.755 164.562 121.428ZM167.562 125.894H167.73C168.402 125.894 168.738 125.138 168.738 123.626V120H174.296V125.894H175.346V128.764H174.212V127H168.696V128.764H167.562V125.894ZM169.942 121.106V123.822C169.942 124.699 169.797 125.39 169.508 125.894H173.092V121.106H169.942ZM176.774 127.098C176.456 127.098 176.246 127.084 176.144 127.056V125.978C176.209 125.997 176.358 126.006 176.592 126.006C176.881 126.006 177.096 125.908 177.236 125.712C177.376 125.507 177.446 125.147 177.446 124.634V120H182.85V127H181.646V121.106H178.65V124.886C178.65 125.605 178.477 126.155 178.132 126.538C177.786 126.911 177.334 127.098 176.774 127.098ZM188.24 127.14C187.185 127.14 186.308 126.79 185.608 126.09C184.917 125.381 184.572 124.517 184.572 123.5C184.572 122.483 184.917 121.624 185.608 120.924C186.308 120.215 187.185 119.86 188.24 119.86C189.285 119.86 190.153 120.215 190.844 120.924C191.544 121.624 191.894 122.483 191.894 123.5C191.894 124.517 191.544 125.381 190.844 126.09C190.153 126.79 189.285 127.14 188.24 127.14ZM186.476 125.292C186.933 125.777 187.521 126.02 188.24 126.02C188.959 126.02 189.542 125.777 189.99 125.292C190.438 124.807 190.662 124.209 190.662 123.5C190.662 122.791 190.438 122.193 189.99 121.708C189.542 121.223 188.959 120.98 188.24 120.98C187.521 120.98 186.933 121.223 186.476 121.708C186.028 122.193 185.804 122.791 185.804 123.5C185.804 124.209 186.028 124.807 186.476 125.292ZM201.444 127L198.126 123.892V127H196.922V123.892L193.604 127H192.022L195.774 123.43L192.512 120H194.01L196.922 123.108V120H198.126V123.108L201.052 120H202.536L199.274 123.444L203.026 127H201.444ZM205.187 127H204.109V120H205.313V125.138L209.261 120H210.325V127H209.135V121.862L205.187 127ZM212.613 120H213.719L216.309 123.444L218.913 120H220.019V127H218.815V121.946L216.309 125.25L213.817 121.946V127H212.613V120ZM226.873 129.926H225.669V120H226.873V121.078C227.116 120.723 227.456 120.434 227.895 120.21C228.343 119.977 228.824 119.86 229.337 119.86C230.308 119.86 231.12 120.215 231.773 120.924C232.436 121.633 232.767 122.492 232.767 123.5C232.767 124.508 232.436 125.367 231.773 126.076C231.12 126.785 230.308 127.14 229.337 127.14C228.824 127.14 228.343 127.028 227.895 126.804C227.456 126.571 227.116 126.277 226.873 125.922V129.926ZM227.447 125.306C227.895 125.791 228.464 126.034 229.155 126.034C229.846 126.034 230.415 125.791 230.863 125.306C231.311 124.821 231.535 124.219 231.535 123.5C231.535 122.781 231.311 122.179 230.863 121.694C230.415 121.209 229.846 120.966 229.155 120.966C228.464 120.966 227.895 121.209 227.447 121.694C226.999 122.179 226.775 122.781 226.775 123.5C226.775 124.219 226.999 124.821 227.447 125.306ZM237.483 127.14C236.466 127.14 235.621 126.795 234.949 126.104C234.287 125.413 233.955 124.545 233.955 123.5C233.955 122.445 234.277 121.577 234.921 120.896C235.575 120.205 236.438 119.86 237.511 119.86C238.594 119.86 239.443 120.243 240.059 121.008C240.675 121.773 240.946 122.711 240.871 123.822H235.173C235.192 124.457 235.425 124.989 235.873 125.418C236.321 125.838 236.863 126.048 237.497 126.048C238.449 126.048 239.126 125.656 239.527 124.872H240.759C240.582 125.525 240.204 126.067 239.625 126.496C239.047 126.925 238.333 127.14 237.483 127.14ZM238.855 121.428C238.473 121.092 238.011 120.924 237.469 120.924C236.928 120.924 236.443 121.087 236.013 121.414C235.593 121.741 235.332 122.226 235.229 122.87H239.597C239.485 122.235 239.238 121.755 238.855 121.428ZM242.609 127V120H243.813V125.894H246.599V120H247.803V125.894H250.589V120H251.793V127H242.609ZM257.061 127.14C256.044 127.14 255.199 126.795 254.527 126.104C253.865 125.413 253.533 124.545 253.533 123.5C253.533 122.445 253.855 121.577 254.499 120.896C255.153 120.205 256.016 119.86 257.089 119.86C258.172 119.86 259.021 120.243 259.637 121.008C260.253 121.773 260.524 122.711 260.449 123.822H254.751C254.77 124.457 255.003 124.989 255.451 125.418C255.899 125.838 256.441 126.048 257.075 126.048C258.027 126.048 258.704 125.656 259.105 124.872H260.337C260.16 125.525 259.782 126.067 259.203 126.496C258.625 126.925 257.911 127.14 257.061 127.14ZM258.433 121.428C258.051 121.092 257.589 120.924 257.047 120.924C256.506 120.924 256.021 121.087 255.591 121.414C255.171 121.741 254.91 122.226 254.807 122.87H259.175C259.063 122.235 258.816 121.755 258.433 121.428ZM262.187 127V120H263.391V122.884H267.213V120H268.417V127H267.213V123.976H263.391V127H262.187ZM271.769 127H270.691V120H271.895V125.138L275.843 120H276.907V127H275.717V121.862L271.769 127ZM278.005 127L280.833 124.256C280.282 124.125 279.857 123.883 279.559 123.528C279.26 123.164 279.111 122.73 279.111 122.226C279.111 121.582 279.33 121.05 279.769 120.63C280.217 120.21 280.847 120 281.659 120H284.249V127H283.045V124.452H282.149L279.517 127H278.005ZM281.729 123.374H283.045V121.078H281.729C280.786 121.078 280.315 121.465 280.315 122.24C280.315 122.604 280.436 122.884 280.679 123.08C280.931 123.276 281.281 123.374 281.729 123.374Z" fill="white"/>
<path d="M106.062 61V51.06H109.324C110.22 51.06 110.939 51.3167 111.48 51.83C112.021 52.3433 112.292 52.964 112.292 53.692C112.292 54.6067 111.937 55.2833 111.228 55.722C112.376 56.142 112.95 56.9353 112.95 58.102C112.95 58.942 112.642 59.6373 112.026 60.188C111.419 60.7293 110.617 61 109.618 61H106.062ZM107.364 59.824H109.674C110.327 59.824 110.822 59.6747 111.158 59.376C111.503 59.068 111.676 58.6573 111.676 58.144C111.676 57.64 111.503 57.234 111.158 56.926C110.822 56.6087 110.332 56.45 109.688 56.45H107.364V59.824ZM107.364 55.33H109.324C109.847 55.33 110.257 55.19 110.556 54.91C110.864 54.6207 111.018 54.2473 111.018 53.79C111.018 53.3513 110.864 52.9827 110.556 52.684C110.248 52.3853 109.837 52.236 109.324 52.236H107.364V55.33ZM121.139 61V54H122.343V61H121.139ZM114.671 61V54H115.875V56.52H117.499C118.339 56.52 118.974 56.7393 119.403 57.178C119.842 57.6167 120.061 58.1393 120.061 58.746C120.061 59.362 119.842 59.894 119.403 60.342C118.964 60.7807 118.325 61 117.485 61H114.671ZM115.875 57.612V59.908H117.443C117.891 59.908 118.236 59.8053 118.479 59.6C118.731 59.3947 118.857 59.11 118.857 58.746C118.857 58.382 118.736 58.102 118.493 57.906C118.25 57.71 117.905 57.612 117.457 57.612H115.875ZM124.624 61V54H127.676C128.451 54 129.044 54.1727 129.454 54.518C129.865 54.8633 130.07 55.3253 130.07 55.904C130.07 56.4547 129.842 56.9073 129.384 57.262C130.15 57.6353 130.532 58.2047 130.532 58.97C130.532 59.558 130.322 60.0433 129.902 60.426C129.482 60.8087 128.852 61 128.012 61H124.624ZM125.828 59.95H128.082C128.456 59.95 128.75 59.8567 128.964 59.67C129.188 59.4833 129.3 59.2267 129.3 58.9C129.3 58.5733 129.188 58.3213 128.964 58.144C128.75 57.9573 128.456 57.864 128.082 57.864H125.828V59.95ZM125.828 56.898H127.774C128.493 56.898 128.852 56.5853 128.852 55.96C128.852 55.6333 128.75 55.4 128.544 55.26C128.339 55.1107 128.082 55.036 127.774 55.036H125.828V56.898ZM135.235 61.14C134.218 61.14 133.373 60.7947 132.701 60.104C132.038 59.4133 131.707 58.5453 131.707 57.5C131.707 56.4453 132.029 55.5773 132.673 54.896C133.326 54.2053 134.19 53.86 135.263 53.86C136.346 53.86 137.195 54.2427 137.811 55.008C138.427 55.7733 138.698 56.7113 138.623 57.822H132.925C132.944 58.4567 133.177 58.9887 133.625 59.418C134.073 59.838 134.614 60.048 135.249 60.048C136.201 60.048 136.878 59.656 137.279 58.872H138.511C138.334 59.5253 137.956 60.0667 137.377 60.496C136.798 60.9253 136.084 61.14 135.235 61.14ZM136.607 55.428C136.224 55.092 135.762 54.924 135.221 54.924C134.68 54.924 134.194 55.0873 133.765 55.414C133.345 55.7407 133.084 56.226 132.981 56.87H137.349C137.237 56.2353 136.99 55.7547 136.607 55.428ZM139.607 59.894H139.775C140.447 59.894 140.783 59.138 140.783 57.626V54H146.341V59.894H147.391V62.764H146.257V61H140.741V62.764H139.607V59.894ZM141.987 55.106V57.822C141.987 58.6993 141.842 59.39 141.553 59.894H145.137V55.106H141.987ZM151.874 61.14C150.856 61.14 150.012 60.7947 149.34 60.104C148.677 59.4133 148.346 58.5453 148.346 57.5C148.346 56.4453 148.668 55.5773 149.312 54.896C149.965 54.2053 150.828 53.86 151.902 53.86C152.984 53.86 153.834 54.2427 154.45 55.008C155.066 55.7733 155.336 56.7113 155.262 57.822H149.564C149.582 58.4567 149.816 58.9887 150.264 59.418C150.712 59.838 151.253 60.048 151.888 60.048C152.84 60.048 153.516 59.656 153.918 58.872H155.15C154.972 59.5253 154.594 60.0667 154.016 60.496C153.437 60.9253 152.723 61.14 151.874 61.14ZM153.246 55.428C152.863 55.092 152.401 54.924 151.86 54.924C151.318 54.924 150.833 55.0873 150.404 55.414C149.984 55.7407 149.722 56.226 149.62 56.87H153.988C153.876 56.2353 153.628 55.7547 153.246 55.428ZM156.999 54H158.105L160.695 57.444L163.299 54H164.405V61H163.201V55.946L160.695 59.25L158.203 55.946V61H156.999V54ZM170.056 61V54H173.108C173.883 54 174.475 54.1727 174.886 54.518C175.297 54.8633 175.502 55.3253 175.502 55.904C175.502 56.4547 175.273 56.9073 174.816 57.262C175.581 57.6353 175.964 58.2047 175.964 58.97C175.964 59.558 175.754 60.0433 175.334 60.426C174.914 60.8087 174.284 61 173.444 61H170.056ZM171.26 59.95H173.514C173.887 59.95 174.181 59.8567 174.396 59.67C174.62 59.4833 174.732 59.2267 174.732 58.9C174.732 58.5733 174.62 58.3213 174.396 58.144C174.181 57.9573 173.887 57.864 173.514 57.864H171.26V59.95ZM171.26 56.898H173.206C173.925 56.898 174.284 56.5853 174.284 55.96C174.284 55.6333 174.181 55.4 173.976 55.26C173.771 55.1107 173.514 55.036 173.206 55.036H171.26V56.898ZM180.569 61.14C179.598 61.14 178.781 60.7853 178.119 60.076C177.465 59.3667 177.139 58.508 177.139 57.5C177.139 56.492 177.465 55.6333 178.119 54.924C178.781 54.2147 179.598 53.86 180.569 53.86C181.082 53.86 181.558 53.9767 181.997 54.21C182.445 54.434 182.79 54.7233 183.033 55.078V54H184.237V61H183.033V59.922C182.79 60.2767 182.445 60.5707 181.997 60.804C181.558 61.028 181.082 61.14 180.569 61.14ZM180.751 60.034C181.441 60.034 182.011 59.7913 182.459 59.306C182.907 58.8207 183.131 58.2187 183.131 57.5C183.131 56.7813 182.907 56.1793 182.459 55.694C182.011 55.2087 181.441 54.966 180.751 54.966C180.051 54.966 179.477 55.2087 179.029 55.694C178.581 56.1793 178.357 56.7813 178.357 57.5C178.357 58.2187 178.581 58.8207 179.029 59.306C179.477 59.7913 180.051 60.034 180.751 60.034ZM186.503 61V54H187.707V59.894H190.493V54H191.697V59.894H194.483V54H195.687V61H186.503ZM204.459 61.14C203.404 61.14 202.531 60.79 201.841 60.09C201.15 59.3807 200.805 58.5173 200.805 57.5C200.805 56.4827 201.15 55.624 201.841 54.924C202.531 54.2147 203.404 53.86 204.459 53.86C205.327 53.86 206.078 54.1027 206.713 54.588C207.347 55.064 207.772 55.6893 207.987 56.464H206.699C206.531 56.0067 206.251 55.6427 205.859 55.372C205.467 55.1013 205 54.966 204.459 54.966C203.74 54.966 203.152 55.2087 202.695 55.694C202.247 56.1793 202.023 56.7813 202.023 57.5C202.023 58.2187 202.247 58.8207 202.695 59.306C203.152 59.7913 203.74 60.034 204.459 60.034C205 60.034 205.467 59.8987 205.859 59.628C206.251 59.3573 206.531 58.9933 206.699 58.536H207.987C207.781 59.3107 207.361 59.9407 206.727 60.426C206.092 60.902 205.336 61.14 204.459 61.14ZM212.465 61.14C211.495 61.14 210.678 60.7853 210.015 60.076C209.362 59.3667 209.035 58.508 209.035 57.5C209.035 56.492 209.362 55.6333 210.015 54.924C210.678 54.2147 211.495 53.86 212.465 53.86C212.979 53.86 213.455 53.9767 213.893 54.21C214.341 54.434 214.687 54.7233 214.929 55.078V54H216.133V61H214.929V59.922C214.687 60.2767 214.341 60.5707 213.893 60.804C213.455 61.028 212.979 61.14 212.465 61.14ZM212.647 60.034C213.338 60.034 213.907 59.7913 214.355 59.306C214.803 58.8207 215.027 58.2187 215.027 57.5C215.027 56.7813 214.803 56.1793 214.355 55.694C213.907 55.2087 213.338 54.966 212.647 54.966C211.947 54.966 211.373 55.2087 210.925 55.694C210.477 56.1793 210.253 56.7813 210.253 57.5C210.253 58.2187 210.477 58.8207 210.925 59.306C211.373 59.7913 211.947 60.034 212.647 60.034ZM219.478 61H218.4V54H219.604V59.138L223.552 54H224.616V61H223.426V55.862L219.478 61ZM223.202 52.292C222.782 52.7027 222.254 52.908 221.62 52.908C220.985 52.908 220.453 52.7027 220.024 52.292C219.604 51.8813 219.394 51.3447 219.394 50.682V50.5H220.346V50.682C220.346 51.13 220.462 51.48 220.696 51.732C220.938 51.9747 221.246 52.096 221.62 52.096C221.993 52.096 222.296 51.9747 222.53 51.732C222.772 51.48 222.894 51.13 222.894 50.682V50.5H223.846V50.682C223.846 51.3447 223.631 51.8813 223.202 52.292ZM228.234 61V55.106H226.008V54H231.762V55.106H229.438V61H228.234ZM236.159 61V54H239.211C239.986 54 240.579 54.1727 240.989 54.518C241.4 54.8633 241.605 55.3253 241.605 55.904C241.605 56.4547 241.377 56.9073 240.919 57.262C241.685 57.6353 242.067 58.2047 242.067 58.97C242.067 59.558 241.857 60.0433 241.437 60.426C241.017 60.8087 240.387 61 239.547 61H236.159ZM237.363 59.95H239.617C239.991 59.95 240.285 59.8567 240.499 59.67C240.723 59.4833 240.835 59.2267 240.835 58.9C240.835 58.5733 240.723 58.3213 240.499 58.144C240.285 57.9573 239.991 57.864 239.617 57.864H237.363V59.95ZM237.363 56.898H239.309C240.028 56.898 240.387 56.5853 240.387 55.96C240.387 55.6333 240.285 55.4 240.079 55.26C239.874 55.1107 239.617 55.036 239.309 55.036H237.363V56.898ZM248.898 61V52.292H245.804V51.06H253.266V52.292H250.172V61H248.898ZM258.772 59.936C259.864 59.936 260.774 59.558 261.502 58.802C262.239 58.046 262.608 57.122 262.608 56.03C262.608 54.938 262.239 54.014 261.502 53.258C260.774 52.502 259.864 52.124 258.772 52.124C257.689 52.124 256.779 52.502 256.042 53.258C255.314 54.014 254.95 54.938 254.95 56.03C254.95 57.122 255.314 58.046 256.042 58.802C256.779 59.558 257.689 59.936 258.772 59.936ZM258.772 61.168C257.344 61.168 256.131 60.6733 255.132 59.684C254.133 58.6853 253.634 57.4673 253.634 56.03C253.634 54.5927 254.133 53.3793 255.132 52.39C256.131 51.3913 257.344 50.892 258.772 50.892C260.209 50.892 261.423 51.3913 262.412 52.39C263.411 53.3793 263.91 54.5927 263.91 56.03C263.91 57.4673 263.411 58.6853 262.412 59.684C261.423 60.6733 260.209 61.168 258.772 61.168ZM272.411 61V52.292H267.133V61H265.873V51.06H273.685V61H272.411ZM275.926 57.682V56.478H279.496V57.682H275.926ZM284.574 61.14C283.585 61.14 282.745 60.8413 282.054 60.244C281.373 59.6373 281.032 58.8813 281.032 57.976H282.25C282.287 58.564 282.525 59.0447 282.964 59.418C283.403 59.782 283.939 59.964 284.574 59.964C285.153 59.964 285.633 59.8053 286.016 59.488C286.399 59.1707 286.59 58.732 286.59 58.172C286.59 57.5747 286.394 57.1267 286.002 56.828C285.619 56.5293 285.092 56.38 284.42 56.38H283.678V55.274H284.476C285.008 55.274 285.442 55.1247 285.778 54.826C286.123 54.5273 286.301 54.14 286.31 53.664C286.31 53.1973 286.137 52.8147 285.792 52.516C285.456 52.2173 285.031 52.068 284.518 52.068C283.93 52.068 283.435 52.2407 283.034 52.586C282.633 52.9313 282.432 53.412 282.432 54.028H281.2C281.2 53.076 281.517 52.3153 282.152 51.746C282.787 51.1767 283.575 50.892 284.518 50.892C285.386 50.892 286.105 51.144 286.674 51.648C287.253 52.1427 287.542 52.8007 287.542 53.622C287.533 54.098 287.402 54.5273 287.15 54.91C286.907 55.2927 286.59 55.5867 286.198 55.792C286.702 55.9973 287.099 56.3147 287.388 56.744C287.677 57.164 287.822 57.654 287.822 58.214C287.822 59.082 287.519 59.7867 286.912 60.328C286.305 60.8693 285.526 61.14 284.574 61.14ZM293.048 61V54H296.1C296.875 54 297.467 54.1727 297.878 54.518C298.289 54.8633 298.494 55.3253 298.494 55.904C298.494 56.4547 298.265 56.9073 297.808 57.262C298.573 57.6353 298.956 58.2047 298.956 58.97C298.956 59.558 298.746 60.0433 298.326 60.426C297.906 60.8087 297.276 61 296.436 61H293.048ZM294.252 59.95H296.506C296.879 59.95 297.173 59.8567 297.388 59.67C297.612 59.4833 297.724 59.2267 297.724 58.9C297.724 58.5733 297.612 58.3213 297.388 58.144C297.173 57.9573 296.879 57.864 296.506 57.864H294.252V59.95ZM294.252 56.898H296.198C296.917 56.898 297.276 56.5853 297.276 55.96C297.276 55.6333 297.173 55.4 296.968 55.26C296.763 55.1107 296.506 55.036 296.198 55.036H294.252V56.898ZM308.903 61V56.954H307.657L304.199 61H302.575L306.215 56.772C305.478 56.6133 304.899 56.2867 304.479 55.792C304.069 55.288 303.863 54.686 303.863 53.986C303.863 53.118 304.167 52.4133 304.773 51.872C305.38 51.3307 306.197 51.06 307.223 51.06H310.191V61H308.903ZM305.151 53.986C305.151 54.5273 305.333 54.9567 305.697 55.274C306.071 55.5913 306.593 55.75 307.265 55.75H308.903V52.264H307.265C306.593 52.264 306.071 52.418 305.697 52.726C305.333 53.034 305.151 53.454 305.151 53.986ZM312.626 61V54H313.83V56.884H317.652V54H318.856V61H317.652V57.976H313.83V61H312.626ZM320.458 59.894H320.626C321.298 59.894 321.634 59.138 321.634 57.626V54H327.192V59.894H328.242V62.764H327.108V61H321.592V62.764H320.458V59.894ZM322.838 55.106V57.822C322.838 58.6993 322.693 59.39 322.404 59.894H325.988V55.106H322.838ZM332.725 61.14C331.708 61.14 330.863 60.7947 330.191 60.104C329.529 59.4133 329.197 58.5453 329.197 57.5C329.197 56.4453 329.519 55.5773 330.163 54.896C330.817 54.2053 331.68 53.86 332.753 53.86C333.836 53.86 334.685 54.2427 335.301 55.008C335.917 55.7733 336.188 56.7113 336.113 57.822H330.415C330.434 58.4567 330.667 58.9887 331.115 59.418C331.563 59.838 332.105 60.048 332.739 60.048C333.691 60.048 334.368 59.656 334.769 58.872H336.001C335.824 59.5253 335.446 60.0667 334.867 60.496C334.289 60.9253 333.575 61.14 332.725 61.14ZM334.097 55.428C333.715 55.092 333.253 54.924 332.711 54.924C332.17 54.924 331.685 55.0873 331.255 55.414C330.835 55.7407 330.574 56.226 330.471 56.87H334.839C334.727 56.2353 334.48 55.7547 334.097 55.428ZM342.555 61L339.055 57.878V61H337.851V54H339.055V57.108L342.163 54H343.689L340.259 57.43L344.207 61H342.555ZM347.904 61.14C346.849 61.14 345.977 60.79 345.286 60.09C344.595 59.3807 344.25 58.5173 344.25 57.5C344.25 56.4827 344.595 55.624 345.286 54.924C345.977 54.2147 346.849 53.86 347.904 53.86C348.772 53.86 349.523 54.1027 350.158 54.588C350.793 55.064 351.217 55.6893 351.432 56.464H350.144C349.976 56.0067 349.696 55.6427 349.304 55.372C348.912 55.1013 348.445 54.966 347.904 54.966C347.185 54.966 346.597 55.2087 346.14 55.694C345.692 56.1793 345.468 56.7813 345.468 57.5C345.468 58.2187 345.692 58.8207 346.14 59.306C346.597 59.7913 347.185 60.034 347.904 60.034C348.445 60.034 348.912 59.8987 349.304 59.628C349.696 59.3573 349.976 58.9933 350.144 58.536H351.432C351.227 59.3107 350.807 59.9407 350.172 60.426C349.537 60.902 348.781 61.14 347.904 61.14ZM356.009 61.14C354.991 61.14 354.147 60.7947 353.475 60.104C352.812 59.4133 352.481 58.5453 352.481 57.5C352.481 56.4453 352.803 55.5773 353.447 54.896C354.1 54.2053 354.963 53.86 356.037 53.86C357.119 53.86 357.969 54.2427 358.585 55.008C359.201 55.7733 359.471 56.7113 359.397 57.822H353.699C353.717 58.4567 353.951 58.9887 354.399 59.418C354.847 59.838 355.388 60.048 356.023 60.048C356.975 60.048 357.651 59.656 358.053 58.872H359.285C359.107 59.5253 358.729 60.0667 358.151 60.496C357.572 60.9253 356.858 61.14 356.009 61.14ZM357.381 55.428C356.998 55.092 356.536 54.924 355.995 54.924C355.453 54.924 354.968 55.0873 354.539 55.414C354.119 55.7407 353.857 56.226 353.755 56.87H358.123C358.011 56.2353 357.763 55.7547 357.381 55.428Z" fill="white"/>
</svg>
